<?xml version="1.0" encoding="UTF-8" standalone="no"?>
<!DOCTYPE svg PUBLIC "-//W3C//DTD SVG 1.1//EN"
 "http://www.w3.org/Graphics/SVG/1.1/DTD/svg11.dtd">
<!-- Generated by graphviz version 2.26.3 (20100126.1600)
 -->
<!-- Title: g Pages: 1 -->
<svg width="184pt" height="296pt"
 viewBox="0.00 0.00 184.00 296.00" xmlns="http://www.w3.org/2000/svg" xmlns:xlink="http://www.w3.org/1999/xlink">
<g id="graph1" class="graph" transform="scale(1 1) rotate(0) translate(4 292)">
<title>g</title>
<polygon fill="white" stroke="white" points="-4,5 -4,-292 181,-292 181,5 -4,5"/>
<!-- andreas -->
<g id="node1" class="node"><title>andreas</title>
<polygon fill="#fcee7d" stroke="#fcee7d" stroke-width="1.5" points="123,-288 53,-288 41,-276 41,-264 53,-252 123,-252 135,-264 135,-276 123,-288"/>
<path fill="#fcee7d" stroke="#fcee7d" stroke-width="1.5" d="M53,-288C47,-288 41,-282 41,-276"/>
<path fill="#fcee7d" stroke="#fcee7d" stroke-width="1.5" d="M41,-264C41,-258 47,-252 53,-252"/>
<path fill="#fcee7d" stroke="#fcee7d" stroke-width="1.5" d="M123,-252C129,-252 135,-258 135,-264"/>
<path fill="#fcee7d" stroke="#fcee7d" stroke-width="1.5" d="M135,-276C135,-282 129,-288 123,-288"/>
<polyline fill="none" stroke="#2e3436" stroke-width="1.5" points="123,-288 53,-288 "/>
<path fill="none" stroke="#2e3436" stroke-width="1.5" d="M53,-288C47,-288 41,-282 41,-276"/>
<polyline fill="none" stroke="#2e3436" stroke-width="1.5" points="41,-276 41,-264 "/>
<path fill="none" stroke="#2e3436" stroke-width="1.5" d="M41,-264C41,-258 47,-252 53,-252"/>
<polyline fill="none" stroke="#2e3436" stroke-width="1.5" points="53,-252 123,-252 "/>
<path fill="none" stroke="#2e3436" stroke-width="1.5" d="M123,-252C129,-252 135,-258 135,-264"/>
<polyline fill="none" stroke="#2e3436" stroke-width="1.5" points="135,-264 135,-276 "/>
<path fill="none" stroke="#2e3436" stroke-width="1.5" d="M135,-276C135,-282 129,-288 123,-288"/>
<text text-anchor="middle" x="88" y="-267" font-family="FreeSans" font-size="10.00" fill="#1c2021">Andreas Kollegger</text>
</g>
<!-- status1 -->
<g id="node2" class="node"><title>status1</title>
<polygon fill="#ffffff" stroke="#ffffff" stroke-width="1.5" points="156,-204 20,-204 8,-192 8,-180 20,-168 156,-168 168,-180 168,-192 156,-204"/>
<path fill="#ffffff" stroke="#ffffff" stroke-width="1.5" d="M20,-204C14,-204 8,-198 8,-192"/>
<path fill="#ffffff" stroke="#ffffff" stroke-width="1.5" d="M8,-180C8,-174 14,-168 20,-168"/>
<path fill="#ffffff" stroke="#ffffff" stroke-width="1.5" d="M156,-168C162,-168 168,-174 168,-180"/>
<path fill="#ffffff" stroke="#ffffff" stroke-width="1.5" d="M168,-192C168,-198 162,-204 156,-204"/>
<polyline fill="none" stroke="#2e3436" stroke-width="1.5" points="156,-204 20,-204 "/>
<path fill="none" stroke="#2e3436" stroke-width="1.5" d="M20,-204C14,-204 8,-198 8,-192"/>
<polyline fill="none" stroke="#2e3436" stroke-width="1.5" points="8,-192 8,-180 "/>
<path fill="none" stroke="#2e3436" stroke-width="1.5" d="M8,-180C8,-174 14,-168 20,-168"/>
<polyline fill="none" stroke="#2e3436" stroke-width="1.5" points="20,-168 156,-168 "/>
<path fill="none" stroke="#2e3436" stroke-width="1.5" d="M156,-168C162,-168 168,-174 168,-180"/>
<polyline fill="none" stroke="#2e3436" stroke-width="1.5" points="168,-180 168,-192 "/>
<path fill="none" stroke="#2e3436" stroke-width="1.5" d="M168,-192C168,-198 162,-204 156,-204"/>
<text text-anchor="middle" x="88" y="-189" font-family="FreeSans" font-size="10.00" fill="#1c2021">started designing this graph model</text>
<text text-anchor="middle" x="88" y="-177" font-family="FreeSans" font-size="10.00" fill="#1c2021">9:30 am</text>
</g>
<!-- andreas&#45;&gt;status1 -->
<g id="edge2" class="edge"><title>andreas&#45;&gt;status1</title>
<path fill="none" stroke="#2e3436" stroke-width="2" d="M88,-251.773C88,-240.105 88,-224.787 88,-211.87"/>
<polygon fill="#2e3436" stroke="#2e3436" points="88,-204.191 91.3751,-211.691 88.5,-207.941 88.5001,-211.691 88.0001,-211.691 87.5001,-211.691 87.5,-207.941 84.6251,-211.691 88,-204.191 88,-204.191"/>
<text text-anchor="middle" x="101" y="-225" font-family="FreeSans" font-size="10.00" fill="#1c2021">status</text>
</g>
<!-- status2 -->
<g id="node3" class="node"><title>status2</title>
<polygon fill="#ffffff" stroke="#ffffff" stroke-width="1.5" points="164,-120 12,-120 5.68434e-14,-108 2.84217e-14,-96 12,-84 164,-84 176,-96 176,-108 164,-120"/>
<path fill="#ffffff" stroke="#ffffff" stroke-width="1.5" d="M12,-120C6,-120 7.10543e-14,-114 5.68434e-14,-108"/>
<path fill="#ffffff" stroke="#ffffff" stroke-width="1.5" d="M2.84217e-14,-96C1.42109e-14,-90 6,-84 12,-84"/>
<path fill="#ffffff" stroke="#ffffff" stroke-width="1.5" d="M164,-84C170,-84 176,-90 176,-96"/>
<path fill="#ffffff" stroke="#ffffff" stroke-width="1.5" d="M176,-108C176,-114 170,-120 164,-120"/>
<polyline fill="none" stroke="#2e3436" stroke-width="1.5" points="164,-120 12,-120 "/>
<path fill="none" stroke="#2e3436" stroke-width="1.5" d="M12,-120C6,-120 7.10543e-14,-114 5.68434e-14,-108"/>
<polyline fill="none" stroke="#2e3436" stroke-width="1.5" points="5.68434e-14,-108 2.84217e-14,-96 "/>
<path fill="none" stroke="#2e3436" stroke-width="1.5" d="M2.84217e-14,-96C1.42109e-14,-90 6,-84 12,-84"/>
<polyline fill="none" stroke="#2e3436" stroke-width="1.5" points="12,-84 164,-84 "/>
<path fill="none" stroke="#2e3436" stroke-width="1.5" d="M164,-84C170,-84 176,-90 176,-96"/>
<polyline fill="none" stroke="#2e3436" stroke-width="1.5" points="176,-96 176,-108 "/>
<path fill="none" stroke="#2e3436" stroke-width="1.5" d="M176,-108C176,-114 170,-120 164,-120"/>
<text text-anchor="middle" x="88" y="-105" font-family="FreeSans" font-size="10.00" fill="#1c2021">rode my awesome Skeppshult to work</text>
<text text-anchor="middle" x="88" y="-93" font-family="FreeSans" font-size="10.00" fill="#1c2021">8:45 am</text>
</g>
<!-- status1&#45;&gt;status2 -->
<g id="edge4" class="edge"><title>status1&#45;&gt;status2</title>
<path fill="none" stroke="#2e3436" stroke-width="2" d="M88,-167.773C88,-156.105 88,-140.787 88,-127.87"/>
<polygon fill="#2e3436" stroke="#2e3436" points="88,-120.191 91.3751,-127.691 88.5,-123.941 88.5001,-127.691 88.0001,-127.691 87.5001,-127.691 87.5,-123.941 84.6251,-127.691 88,-120.191 88,-120.191"/>
<text text-anchor="middle" x="97.5" y="-141" font-family="FreeSans" font-size="10.00" fill="#1c2021">next</text>
</g>
<!-- status3 -->
<g id="node4" class="node"><title>status3</title>
<polygon fill="#ffffff" stroke="#ffffff" stroke-width="1.5" points="162,-36 14,-36 2,-24 2,-12 14,-1.67721e-14 162,-4.54417e-15 174,-12 174,-24 162,-36"/>
<path fill="#ffffff" stroke="#ffffff" stroke-width="1.5" d="M14,-36C8,-36 2,-30 2,-24"/>
<path fill="#ffffff" stroke="#ffffff" stroke-width="1.5" d="M2,-12C2,-6 8,-1.72678e-14 14,-1.67721e-14"/>
<path fill="#ffffff" stroke="#ffffff" stroke-width="1.5" d="M162,-4.54417e-15C168,-4.04844e-15 174,-6 174,-12"/>
<path fill="#ffffff" stroke="#ffffff" stroke-width="1.5" d="M174,-24C174,-30 168,-36 162,-36"/>
<polyline fill="none" stroke="#2e3436" stroke-width="1.5" points="162,-36 14,-36 "/>
<path fill="none" stroke="#2e3436" stroke-width="1.5" d="M14,-36C8,-36 2,-30 2,-24"/>
<polyline fill="none" stroke="#2e3436" stroke-width="1.5" points="2,-24 2,-12 "/>
<path fill="none" stroke="#2e3436" stroke-width="1.5" d="M2,-12C2,-6 8,-1.72678e-14 14,-1.67721e-14"/>
<polyline fill="none" stroke="#2e3436" stroke-width="1.5" points="14,-1.67721e-14 162,-4.54417e-15 "/>
<path fill="none" stroke="#2e3436" stroke-width="1.5" d="M162,-4.54417e-15C168,-4.04844e-15 174,-6 174,-12"/>
<polyline fill="none" stroke="#2e3436" stroke-width="1.5" points="174,-12 174,-24 "/>
<path fill="none" stroke="#2e3436" stroke-width="1.5" d="M174,-24C174,-30 168,-36 162,-36"/>
<text text-anchor="middle" x="88" y="-21" font-family="FreeSans" font-size="10.00" fill="#1c2021">is getting used to muesli for breakfast</text>
<text text-anchor="middle" x="88" y="-9" font-family="FreeSans" font-size="10.00" fill="#1c2021">8:00 am</text>
</g>
<!-- status2&#45;&gt;status3 -->
<g id="edge6" class="edge"><title>status2&#45;&gt;status3</title>
<path fill="none" stroke="#2e3436" stroke-width="2" d="M88,-83.7733C88,-72.1053 88,-56.7874 88,-43.8699"/>
<polygon fill="#2e3436" stroke="#2e3436" points="88,-36.1912 91.3751,-43.6911 88.5,-39.9412 88.5001,-43.6912 88.0001,-43.6912 87.5001,-43.6912 87.5,-39.9412 84.6251,-43.6912 88,-36.1912 88,-36.1912"/>
<text text-anchor="middle" x="97.5" y="-57" font-family="FreeSans" font-size="10.00" fill="#1c2021">next</text>
</g>
</g>
</svg>
