<?xml version="1.0" encoding="UTF-8" standalone="no"?>
<!DOCTYPE svg PUBLIC "-//W3C//DTD SVG 1.1//EN"
 "http://www.w3.org/Graphics/SVG/1.1/DTD/svg11.dtd">
<!-- Generated by graphviz version 2.26.3 (20100126.1600)
 -->
<!-- Title: g Pages: 1 -->
<svg width="209pt" height="214pt"
 viewBox="0.00 0.00 209.00 214.00" xmlns="http://www.w3.org/2000/svg" xmlns:xlink="http://www.w3.org/1999/xlink">
<g id="graph1" class="graph" transform="scale(1 1) rotate(0) translate(4 210)">
<title>g</title>
<polygon fill="white" stroke="white" points="-4,5 -4,-210 206,-210 206,5 -4,5"/>
<!-- N1 -->
<g id="node1" class="node"><title>N1</title>
<polygon fill="#ffffff" stroke="#ffffff" stroke-width="1.5" points="12,-85 42,-85 54,-97 54,-109 42,-121 12,-121 0,-109 0,-97 12,-85"/>
<path fill="#ffffff" stroke="#ffffff" stroke-width="1.5" d="M42,-85C48,-85 54,-91 54,-97"/>
<path fill="#ffffff" stroke="#ffffff" stroke-width="1.5" d="M54,-109C54,-115 48,-121 42,-121"/>
<path fill="#ffffff" stroke="#ffffff" stroke-width="1.5" d="M12,-121C6,-121 0,-115 0,-109"/>
<path fill="#ffffff" stroke="#ffffff" stroke-width="1.5" d="M0,-97C0,-91 6,-85 12,-85"/>
<polyline fill="none" stroke="#2e3436" stroke-width="1.5" points="12,-85 42,-85 "/>
<path fill="none" stroke="#2e3436" stroke-width="1.5" d="M42,-85C48,-85 54,-91 54,-97"/>
<polyline fill="none" stroke="#2e3436" stroke-width="1.5" points="54,-97 54,-109 "/>
<path fill="none" stroke="#2e3436" stroke-width="1.5" d="M54,-109C54,-115 48,-121 42,-121"/>
<polyline fill="none" stroke="#2e3436" stroke-width="1.5" points="42,-121 12,-121 "/>
<path fill="none" stroke="#2e3436" stroke-width="1.5" d="M12,-121C6,-121 0,-115 0,-109"/>
<polyline fill="none" stroke="#2e3436" stroke-width="1.5" points="0,-109 0,-97 "/>
<path fill="none" stroke="#2e3436" stroke-width="1.5" d="M0,-97C0,-91 6,-85 12,-85"/>
<text text-anchor="middle" x="27" y="-109.8" font-family="FreeSans" font-size="8.00" fill="#1c2021">Node[1]</text>
<polyline fill="none" stroke="#2e3436" stroke-width="1.5" points="0,-103 54,-103 "/>
<text text-anchor="start" x="8" y="-91.8" font-family="FreeSans" font-size="8.00" fill="#1c2021">name = &#39;A&#39;</text>
</g>
<!-- N4 -->
<g id="node3" class="node"><title>N4</title>
<polygon fill="#ffffff" stroke="#ffffff" stroke-width="1.5" points="62.5,-1 93.5,-1 105.5,-13 105.5,-25 93.5,-37 62.5,-37 50.5,-25 50.5,-13 62.5,-1"/>
<path fill="#ffffff" stroke="#ffffff" stroke-width="1.5" d="M93.5,-1C99.5,-1 105.5,-7 105.5,-13"/>
<path fill="#ffffff" stroke="#ffffff" stroke-width="1.5" d="M105.5,-25C105.5,-31 99.5,-37 93.5,-37"/>
<path fill="#ffffff" stroke="#ffffff" stroke-width="1.5" d="M62.5,-37C56.5,-37 50.5,-31 50.5,-25"/>
<path fill="#ffffff" stroke="#ffffff" stroke-width="1.5" d="M50.5,-13C50.5,-7 56.5,-1 62.5,-1"/>
<polyline fill="none" stroke="#2e3436" stroke-width="1.5" points="62.5,-1 93.5,-1 "/>
<path fill="none" stroke="#2e3436" stroke-width="1.5" d="M93.5,-1C99.5,-1 105.5,-7 105.5,-13"/>
<polyline fill="none" stroke="#2e3436" stroke-width="1.5" points="105.5,-13 105.5,-25 "/>
<path fill="none" stroke="#2e3436" stroke-width="1.5" d="M105.5,-25C105.5,-31 99.5,-37 93.5,-37"/>
<polyline fill="none" stroke="#2e3436" stroke-width="1.5" points="93.5,-37 62.5,-37 "/>
<path fill="none" stroke="#2e3436" stroke-width="1.5" d="M62.5,-37C56.5,-37 50.5,-31 50.5,-25"/>
<polyline fill="none" stroke="#2e3436" stroke-width="1.5" points="50.5,-25 50.5,-13 "/>
<path fill="none" stroke="#2e3436" stroke-width="1.5" d="M50.5,-13C50.5,-7 56.5,-1 62.5,-1"/>
<text text-anchor="middle" x="78" y="-25.8" font-family="FreeSans" font-size="8.00" fill="#1c2021">Node[4]</text>
<polyline fill="none" stroke="#2e3436" stroke-width="1.5" points="50.5,-19 105.5,-19 "/>
<text text-anchor="start" x="58.5" y="-7.8" font-family="FreeSans" font-size="8.00" fill="#1c2021">name = &#39;C&#39;</text>
</g>
<!-- N1&#45;&gt;N4 -->
<g id="edge2" class="edge"><title>N1&#45;&gt;N4</title>
<path fill="none" stroke="#2e3436" stroke-width="2" d="M38.0662,-84.7733C45.3509,-72.7751 54.9787,-56.9174 62.9556,-43.779"/>
<polygon fill="#2e3436" stroke="#2e3436" points="66.9554,-37.1912 65.9479,-45.3537 65.4366,-40.6561 63.4904,-43.8616 63.063,-43.6021 62.6356,-43.3426 64.5818,-40.1371 60.1781,-41.8505 66.9554,-37.1912 66.9554,-37.1912"/>
<text text-anchor="middle" x="70.5" y="-58.8" font-family="FreeSans" font-size="8.00" fill="#2e3436">KNOWS</text>
</g>
<!-- N2 -->
<g id="node4" class="node"><title>N2</title>
<polygon fill="#ffffff" stroke="#ffffff" stroke-width="1.5" points="92.5,-169 131.5,-169 143.5,-181 143.5,-193 131.5,-205 92.5,-205 80.5,-193 80.5,-181 92.5,-169"/>
<path fill="#ffffff" stroke="#ffffff" stroke-width="1.5" d="M131.5,-169C137.5,-169 143.5,-175 143.5,-181"/>
<path fill="#ffffff" stroke="#ffffff" stroke-width="1.5" d="M143.5,-193C143.5,-199 137.5,-205 131.5,-205"/>
<path fill="#ffffff" stroke="#ffffff" stroke-width="1.5" d="M92.5,-205C86.5,-205 80.5,-199 80.5,-193"/>
<path fill="#ffffff" stroke="#ffffff" stroke-width="1.5" d="M80.5,-181C80.5,-175 86.5,-169 92.5,-169"/>
<polyline fill="none" stroke="#2e3436" stroke-width="1.5" points="92.5,-169 131.5,-169 "/>
<path fill="none" stroke="#2e3436" stroke-width="1.5" d="M131.5,-169C137.5,-169 143.5,-175 143.5,-181"/>
<polyline fill="none" stroke="#2e3436" stroke-width="1.5" points="143.5,-181 143.5,-193 "/>
<path fill="none" stroke="#2e3436" stroke-width="1.5" d="M143.5,-193C143.5,-199 137.5,-205 131.5,-205"/>
<polyline fill="none" stroke="#2e3436" stroke-width="1.5" points="131.5,-205 92.5,-205 "/>
<path fill="none" stroke="#2e3436" stroke-width="1.5" d="M92.5,-205C86.5,-205 80.5,-199 80.5,-193"/>
<polyline fill="none" stroke="#2e3436" stroke-width="1.5" points="80.5,-193 80.5,-181 "/>
<path fill="none" stroke="#2e3436" stroke-width="1.5" d="M80.5,-181C80.5,-175 86.5,-169 92.5,-169"/>
<text text-anchor="middle" x="112" y="-193.8" font-family="FreeSans" font-size="8.00" fill="#1c2021">Node[2]</text>
<polyline fill="none" stroke="#2e3436" stroke-width="1.5" points="80.5,-187 143.5,-187 "/>
<text text-anchor="start" x="88.5" y="-175.8" font-family="FreeSans" font-size="8.00" fill="#1c2021">name = &#39;root&#39;</text>
</g>
<!-- N2&#45;&gt;N1 -->
<g id="edge4" class="edge"><title>N2&#45;&gt;N1</title>
<path fill="none" stroke="#4e9a06" stroke-width="2" d="M93.5563,-168.773C81.0811,-156.445 64.4826,-140.042 50.9827,-126.701"/>
<polygon fill="#4e9a06" stroke="#4e9a06" points="45.4077,-121.191 53.1147,-124.062 48.4265,-123.471 51.0938,-126.107 50.7424,-126.463 50.3909,-126.819 47.7236,-124.183 48.37,-128.864 45.4077,-121.191 45.4077,-121.191"/>
<text text-anchor="middle" x="76" y="-142.8" font-family="FreeSans" font-size="8.00" fill="#4e9a06">X</text>
</g>
<!-- N2&#45;&gt;N4 -->
<g id="edge8" class="edge"><title>N2&#45;&gt;N4</title>
<path fill="none" stroke="#4e9a06" stroke-width="2" d="M110.763,-168.923C108.705,-143.393 103.698,-95.4826 93,-56 91.9617,-52.1678 90.637,-48.1981 89.2061,-44.3442"/>
<polygon fill="#4e9a06" stroke="#4e9a06" points="86.371,-37.1427 92.2588,-42.885 88.2099,-40.4489 89.5837,-43.9382 89.1184,-44.1214 88.6532,-44.3045 87.2795,-40.8152 85.978,-45.3577 86.371,-37.1427 86.371,-37.1427"/>
<text text-anchor="middle" x="108" y="-100.8" font-family="FreeSans" font-size="8.00" fill="#4e9a06">X</text>
</g>
<!-- N3 -->
<g id="node7" class="node"><title>N3</title>
<polygon fill="#ffffff" stroke="#ffffff" stroke-width="1.5" points="159,-85 189,-85 201,-97 201,-109 189,-121 159,-121 147,-109 147,-97 159,-85"/>
<path fill="#ffffff" stroke="#ffffff" stroke-width="1.5" d="M189,-85C195,-85 201,-91 201,-97"/>
<path fill="#ffffff" stroke="#ffffff" stroke-width="1.5" d="M201,-109C201,-115 195,-121 189,-121"/>
<path fill="#ffffff" stroke="#ffffff" stroke-width="1.5" d="M159,-121C153,-121 147,-115 147,-109"/>
<path fill="#ffffff" stroke="#ffffff" stroke-width="1.5" d="M147,-97C147,-91 153,-85 159,-85"/>
<polyline fill="none" stroke="#2e3436" stroke-width="1.5" points="159,-85 189,-85 "/>
<path fill="none" stroke="#2e3436" stroke-width="1.5" d="M189,-85C195,-85 201,-91 201,-97"/>
<polyline fill="none" stroke="#2e3436" stroke-width="1.5" points="201,-97 201,-109 "/>
<path fill="none" stroke="#2e3436" stroke-width="1.5" d="M201,-109C201,-115 195,-121 189,-121"/>
<polyline fill="none" stroke="#2e3436" stroke-width="1.5" points="189,-121 159,-121 "/>
<path fill="none" stroke="#2e3436" stroke-width="1.5" d="M159,-121C153,-121 147,-115 147,-109"/>
<polyline fill="none" stroke="#2e3436" stroke-width="1.5" points="147,-109 147,-97 "/>
<path fill="none" stroke="#2e3436" stroke-width="1.5" d="M147,-97C147,-91 153,-85 159,-85"/>
<text text-anchor="middle" x="174" y="-109.8" font-family="FreeSans" font-size="8.00" fill="#1c2021">Node[3]</text>
<polyline fill="none" stroke="#2e3436" stroke-width="1.5" points="147,-103 201,-103 "/>
<text text-anchor="start" x="155" y="-91.8" font-family="FreeSans" font-size="8.00" fill="#1c2021">name = &#39;B&#39;</text>
</g>
<!-- N2&#45;&gt;N3 -->
<g id="edge6" class="edge"><title>N2&#45;&gt;N3</title>
<path fill="none" stroke="#4e9a06" stroke-width="2" d="M125.453,-168.773C134.39,-156.665 146.228,-140.626 155.977,-127.418"/>
<polygon fill="#4e9a06" stroke="#4e9a06" points="160.573,-121.191 158.835,-129.23 158.749,-124.505 156.522,-127.522 156.119,-127.226 155.717,-126.929 157.944,-123.911 153.404,-125.221 160.573,-121.191 160.573,-121.191"/>
<text text-anchor="middle" x="147" y="-142.8" font-family="FreeSans" font-size="8.00" fill="#4e9a06">X</text>
</g>
</g>
</svg>
