<?xml version="1.0" encoding="UTF-8" standalone="no"?>
<!DOCTYPE svg PUBLIC "-//W3C//DTD SVG 1.1//EN"
 "http://www.w3.org/Graphics/SVG/1.1/DTD/svg11.dtd">
<!-- Generated by graphviz version 2.26.3 (20100126.1600)
 -->
<!-- Title: g Pages: 1 -->
<svg width="259pt" height="298pt"
 viewBox="0.00 0.00 259.00 298.00" xmlns="http://www.w3.org/2000/svg" xmlns:xlink="http://www.w3.org/1999/xlink">
<g id="graph1" class="graph" transform="scale(1 1) rotate(0) translate(4 294)">
<title>g</title>
<polygon fill="white" stroke="white" points="-4,5 -4,-294 256,-294 256,5 -4,5"/>
<!-- N1 -->
<g id="node1" class="node"><title>N1</title>
<polygon fill="#ffffff" stroke="#ffffff" stroke-width="1.5" points="32.5,-85 67.5,-85 79.5,-97 79.5,-109 67.5,-121 32.5,-121 20.5,-109 20.5,-97 32.5,-85"/>
<path fill="#ffffff" stroke="#ffffff" stroke-width="1.5" d="M67.5,-85C73.5,-85 79.5,-91 79.5,-97"/>
<path fill="#ffffff" stroke="#ffffff" stroke-width="1.5" d="M79.5,-109C79.5,-115 73.5,-121 67.5,-121"/>
<path fill="#ffffff" stroke="#ffffff" stroke-width="1.5" d="M32.5,-121C26.5,-121 20.5,-115 20.5,-109"/>
<path fill="#ffffff" stroke="#ffffff" stroke-width="1.5" d="M20.5,-97C20.5,-91 26.5,-85 32.5,-85"/>
<polyline fill="none" stroke="#2e3436" stroke-width="1.5" points="32.5,-85 67.5,-85 "/>
<path fill="none" stroke="#2e3436" stroke-width="1.5" d="M67.5,-85C73.5,-85 79.5,-91 79.5,-97"/>
<polyline fill="none" stroke="#2e3436" stroke-width="1.5" points="79.5,-97 79.5,-109 "/>
<path fill="none" stroke="#2e3436" stroke-width="1.5" d="M79.5,-109C79.5,-115 73.5,-121 67.5,-121"/>
<polyline fill="none" stroke="#2e3436" stroke-width="1.5" points="67.5,-121 32.5,-121 "/>
<path fill="none" stroke="#2e3436" stroke-width="1.5" d="M32.5,-121C26.5,-121 20.5,-115 20.5,-109"/>
<polyline fill="none" stroke="#2e3436" stroke-width="1.5" points="20.5,-109 20.5,-97 "/>
<path fill="none" stroke="#2e3436" stroke-width="1.5" d="M20.5,-97C20.5,-91 26.5,-85 32.5,-85"/>
<text text-anchor="start" x="28.5" y="-100.8" font-family="FreeSans" font-size="8.00" fill="#1c2021">name = &#39;Bill&#39;</text>
</g>
<!-- N3 -->
<g id="node3" class="node"><title>N3</title>
<polygon fill="#ffffff" stroke="#ffffff" stroke-width="1.5" points="12,-1 64,-1 76,-13 76,-25 64,-37 12,-37 0,-25 0,-13 12,-1"/>
<path fill="#ffffff" stroke="#ffffff" stroke-width="1.5" d="M64,-1C70,-1 76,-7 76,-13"/>
<path fill="#ffffff" stroke="#ffffff" stroke-width="1.5" d="M76,-25C76,-31 70,-37 64,-37"/>
<path fill="#ffffff" stroke="#ffffff" stroke-width="1.5" d="M12,-37C6,-37 0,-31 0,-25"/>
<path fill="#ffffff" stroke="#ffffff" stroke-width="1.5" d="M0,-13C0,-7 6,-1 12,-1"/>
<polyline fill="none" stroke="#2e3436" stroke-width="1.5" points="12,-1 64,-1 "/>
<path fill="none" stroke="#2e3436" stroke-width="1.5" d="M64,-1C70,-1 76,-7 76,-13"/>
<polyline fill="none" stroke="#2e3436" stroke-width="1.5" points="76,-13 76,-25 "/>
<path fill="none" stroke="#2e3436" stroke-width="1.5" d="M76,-25C76,-31 70,-37 64,-37"/>
<polyline fill="none" stroke="#2e3436" stroke-width="1.5" points="64,-37 12,-37 "/>
<path fill="none" stroke="#2e3436" stroke-width="1.5" d="M12,-37C6,-37 0,-31 0,-25"/>
<polyline fill="none" stroke="#2e3436" stroke-width="1.5" points="0,-25 0,-13 "/>
<path fill="none" stroke="#2e3436" stroke-width="1.5" d="M0,-13C0,-7 6,-1 12,-1"/>
<text text-anchor="start" x="8" y="-16.8" font-family="FreeSans" font-size="8.00" fill="#1c2021">name = &#39;Derrick&#39;</text>
</g>
<!-- N1&#45;&gt;N3 -->
<g id="edge2" class="edge"><title>N1&#45;&gt;N3</title>
<path fill="none" stroke="#2e3436" stroke-width="2" d="M41.6717,-84.9317C39.3573,-79.0262 37.1613,-72.3507 36,-66 34.7751,-59.3017 34.5602,-51.9812 34.8274,-45.1543"/>
<polygon fill="#2e3436" stroke="#2e3436" points="35.3308,-37.4336 38.2106,-45.1373 35.5857,-41.2082 35.3417,-44.9502 34.8427,-44.9177 34.3438,-44.8851 34.5878,-41.1431 31.4749,-44.698 35.3308,-37.4336 35.3308,-37.4336"/>
<text text-anchor="middle" x="48" y="-58.8" font-family="FreeSans" font-size="8.00" fill="#2e3436">knows</text>
</g>
<!-- N4 -->
<g id="node5" class="node"><title>N4</title>
<polygon fill="#ffffff" stroke="#ffffff" stroke-width="1.5" points="119,-1 155,-1 167,-13 167,-25 155,-37 119,-37 107,-25 107,-13 119,-1"/>
<path fill="#ffffff" stroke="#ffffff" stroke-width="1.5" d="M155,-1C161,-1 167,-7 167,-13"/>
<path fill="#ffffff" stroke="#ffffff" stroke-width="1.5" d="M167,-25C167,-31 161,-37 155,-37"/>
<path fill="#ffffff" stroke="#ffffff" stroke-width="1.5" d="M119,-37C113,-37 107,-31 107,-25"/>
<path fill="#ffffff" stroke="#ffffff" stroke-width="1.5" d="M107,-13C107,-7 113,-1 119,-1"/>
<polyline fill="none" stroke="#2e3436" stroke-width="1.5" points="119,-1 155,-1 "/>
<path fill="none" stroke="#2e3436" stroke-width="1.5" d="M155,-1C161,-1 167,-7 167,-13"/>
<polyline fill="none" stroke="#2e3436" stroke-width="1.5" points="167,-13 167,-25 "/>
<path fill="none" stroke="#2e3436" stroke-width="1.5" d="M167,-25C167,-31 161,-37 155,-37"/>
<polyline fill="none" stroke="#2e3436" stroke-width="1.5" points="155,-37 119,-37 "/>
<path fill="none" stroke="#2e3436" stroke-width="1.5" d="M119,-37C113,-37 107,-31 107,-25"/>
<polyline fill="none" stroke="#2e3436" stroke-width="1.5" points="107,-25 107,-13 "/>
<path fill="none" stroke="#2e3436" stroke-width="1.5" d="M107,-13C107,-7 113,-1 119,-1"/>
<text text-anchor="start" x="115" y="-16.8" font-family="FreeSans" font-size="8.00" fill="#1c2021">name = &#39;Ian&#39;</text>
</g>
<!-- N1&#45;&gt;N4 -->
<g id="edge4" class="edge"><title>N1&#45;&gt;N4</title>
<path fill="none" stroke="#2e3436" stroke-width="2" d="M66.274,-84.7099C74.3883,-75.8278 84.4804,-65.1288 94,-56 98.8026,-51.3946 104.065,-46.643 109.211,-42.143"/>
<polygon fill="#2e3436" stroke="#2e3436" points="115.162,-37 111.694,-44.4574 112.652,-39.8302 109.814,-42.2821 109.487,-41.9038 109.161,-41.5254 111.998,-39.0736 107.281,-39.3501 115.162,-37 115.162,-37"/>
<text text-anchor="middle" x="106" y="-58.8" font-family="FreeSans" font-size="8.00" fill="#2e3436">knows</text>
</g>
<!-- N2 -->
<g id="node6" class="node"><title>N2</title>
<polygon fill="#ffffff" stroke="#ffffff" stroke-width="1.5" points="115,-169 157,-169 169,-181 169,-193 157,-205 115,-205 103,-193 103,-181 115,-169"/>
<path fill="#ffffff" stroke="#ffffff" stroke-width="1.5" d="M157,-169C163,-169 169,-175 169,-181"/>
<path fill="#ffffff" stroke="#ffffff" stroke-width="1.5" d="M169,-193C169,-199 163,-205 157,-205"/>
<path fill="#ffffff" stroke="#ffffff" stroke-width="1.5" d="M115,-205C109,-205 103,-199 103,-193"/>
<path fill="#ffffff" stroke="#ffffff" stroke-width="1.5" d="M103,-181C103,-175 109,-169 115,-169"/>
<polyline fill="none" stroke="#2e3436" stroke-width="1.5" points="115,-169 157,-169 "/>
<path fill="none" stroke="#2e3436" stroke-width="1.5" d="M157,-169C163,-169 169,-175 169,-181"/>
<polyline fill="none" stroke="#2e3436" stroke-width="1.5" points="169,-181 169,-193 "/>
<path fill="none" stroke="#2e3436" stroke-width="1.5" d="M169,-193C169,-199 163,-205 157,-205"/>
<polyline fill="none" stroke="#2e3436" stroke-width="1.5" points="157,-205 115,-205 "/>
<path fill="none" stroke="#2e3436" stroke-width="1.5" d="M115,-205C109,-205 103,-199 103,-193"/>
<polyline fill="none" stroke="#2e3436" stroke-width="1.5" points="103,-193 103,-181 "/>
<path fill="none" stroke="#2e3436" stroke-width="1.5" d="M103,-181C103,-175 109,-169 115,-169"/>
<text text-anchor="start" x="111" y="-184.8" font-family="FreeSans" font-size="8.00" fill="#1c2021">name = &#39;Sara&#39;</text>
</g>
<!-- N2&#45;&gt;N1 -->
<g id="edge6" class="edge"><title>N2&#45;&gt;N1</title>
<path fill="none" stroke="#2e3436" stroke-width="2" d="M114.706,-168.944C107.96,-163.039 100.556,-156.361 94,-150 86.4566,-142.681 78.5184,-134.398 71.4932,-126.846"/>
<polygon fill="#2e3436" stroke="#2e3436" points="66.3205,-121.242 73.8875,-124.464 69.2314,-123.658 71.7748,-126.414 71.4074,-126.753 71.0399,-127.092 68.4965,-124.337 68.9273,-129.042 66.3205,-121.242 66.3205,-121.242"/>
<text text-anchor="middle" x="106" y="-142.8" font-family="FreeSans" font-size="8.00" fill="#2e3436">knows</text>
</g>
<!-- N2&#45;&gt;N4 -->
<g id="edge8" class="edge"><title>N2&#45;&gt;N4</title>
<path fill="none" stroke="#2e3436" stroke-width="2" d="M136.109,-168.701C136.287,-138.705 136.643,-78.99 136.847,-44.7399"/>
<polygon fill="#2e3436" stroke="#2e3436" points="136.893,-37.0219 140.223,-44.5419 137.37,-40.7748 137.348,-44.5248 136.848,-44.5218 136.348,-44.5188 136.37,-40.7689 133.473,-44.5016 136.893,-37.0219 136.893,-37.0219"/>
<text text-anchor="middle" x="148" y="-100.8" font-family="FreeSans" font-size="8.00" fill="#2e3436">knows</text>
</g>
<!-- N5 -->
<g id="node10" class="node"><title>N5</title>
<polygon fill="#ffffff" stroke="#ffffff" stroke-width="1.5" points="205,-85 239,-85 251,-97 251,-109 239,-121 205,-121 193,-109 193,-97 205,-85"/>
<path fill="#ffffff" stroke="#ffffff" stroke-width="1.5" d="M239,-85C245,-85 251,-91 251,-97"/>
<path fill="#ffffff" stroke="#ffffff" stroke-width="1.5" d="M251,-109C251,-115 245,-121 239,-121"/>
<path fill="#ffffff" stroke="#ffffff" stroke-width="1.5" d="M205,-121C199,-121 193,-115 193,-109"/>
<path fill="#ffffff" stroke="#ffffff" stroke-width="1.5" d="M193,-97C193,-91 199,-85 205,-85"/>
<polyline fill="none" stroke="#2e3436" stroke-width="1.5" points="205,-85 239,-85 "/>
<path fill="none" stroke="#2e3436" stroke-width="1.5" d="M239,-85C245,-85 251,-91 251,-97"/>
<polyline fill="none" stroke="#2e3436" stroke-width="1.5" points="251,-97 251,-109 "/>
<path fill="none" stroke="#2e3436" stroke-width="1.5" d="M251,-109C251,-115 245,-121 239,-121"/>
<polyline fill="none" stroke="#2e3436" stroke-width="1.5" points="239,-121 205,-121 "/>
<path fill="none" stroke="#2e3436" stroke-width="1.5" d="M205,-121C199,-121 193,-115 193,-109"/>
<polyline fill="none" stroke="#2e3436" stroke-width="1.5" points="193,-109 193,-97 "/>
<path fill="none" stroke="#2e3436" stroke-width="1.5" d="M193,-97C193,-91 199,-85 205,-85"/>
<text text-anchor="start" x="201" y="-100.8" font-family="FreeSans" font-size="8.00" fill="#1c2021">name = &#39;Jill&#39;</text>
</g>
<!-- N2&#45;&gt;N5 -->
<g id="edge10" class="edge"><title>N2&#45;&gt;N5</title>
<path fill="none" stroke="#2e3436" stroke-width="2" d="M154.661,-168.773C167.283,-156.445 184.076,-140.042 197.735,-126.701"/>
<polygon fill="#2e3436" stroke="#2e3436" points="203.376,-121.191 200.369,-128.846 201.042,-124.169 198.36,-126.789 198.01,-126.432 197.661,-126.074 200.344,-123.454 195.652,-124.017 203.376,-121.191 203.376,-121.191"/>
<text text-anchor="middle" x="193" y="-142.8" font-family="FreeSans" font-size="8.00" fill="#2e3436">knows</text>
</g>
<!-- N6 -->
<g id="node11" class="node"><title>N6</title>
<polygon fill="#ffffff" stroke="#ffffff" stroke-width="1.5" points="62,-253 100,-253 112,-265 112,-277 100,-289 62,-289 50,-277 50,-265 62,-253"/>
<path fill="#ffffff" stroke="#ffffff" stroke-width="1.5" d="M100,-253C106,-253 112,-259 112,-265"/>
<path fill="#ffffff" stroke="#ffffff" stroke-width="1.5" d="M112,-277C112,-283 106,-289 100,-289"/>
<path fill="#ffffff" stroke="#ffffff" stroke-width="1.5" d="M62,-289C56,-289 50,-283 50,-277"/>
<path fill="#ffffff" stroke="#ffffff" stroke-width="1.5" d="M50,-265C50,-259 56,-253 62,-253"/>
<polyline fill="none" stroke="#2e3436" stroke-width="1.5" points="62,-253 100,-253 "/>
<path fill="none" stroke="#2e3436" stroke-width="1.5" d="M100,-253C106,-253 112,-259 112,-265"/>
<polyline fill="none" stroke="#2e3436" stroke-width="1.5" points="112,-265 112,-277 "/>
<path fill="none" stroke="#2e3436" stroke-width="1.5" d="M112,-277C112,-283 106,-289 100,-289"/>
<polyline fill="none" stroke="#2e3436" stroke-width="1.5" points="100,-289 62,-289 "/>
<path fill="none" stroke="#2e3436" stroke-width="1.5" d="M62,-289C56,-289 50,-283 50,-277"/>
<polyline fill="none" stroke="#2e3436" stroke-width="1.5" points="50,-277 50,-265 "/>
<path fill="none" stroke="#2e3436" stroke-width="1.5" d="M50,-265C50,-259 56,-253 62,-253"/>
<text text-anchor="start" x="58" y="-268.8" font-family="FreeSans" font-size="8.00" fill="#1c2021">name = &#39;Joe&#39;</text>
</g>
<!-- N6&#45;&gt;N1 -->
<g id="edge12" class="edge"><title>N6&#45;&gt;N1</title>
<path fill="none" stroke="#2e3436" stroke-width="2" d="M76.0438,-252.893C72.6131,-239.911 68.1205,-221.968 65,-206 59.8986,-179.895 55.7046,-149.757 53.061,-128.855"/>
<polygon fill="#2e3436" stroke="#2e3436" points="52.1251,-121.324 56.3993,-128.351 53.0838,-124.984 53.5463,-128.705 53.0501,-128.767 52.5539,-128.828 52.0914,-125.107 49.7009,-129.183 52.1251,-121.324 52.1251,-121.324"/>
<text text-anchor="middle" x="77" y="-184.8" font-family="FreeSans" font-size="8.00" fill="#2e3436">knows</text>
</g>
<!-- N6&#45;&gt;N2 -->
<g id="edge14" class="edge"><title>N6&#45;&gt;N2</title>
<path fill="none" stroke="#2e3436" stroke-width="2" d="M92.9342,-252.773C100.79,-240.775 111.173,-224.917 119.776,-211.779"/>
<polygon fill="#2e3436" stroke="#2e3436" points="124.089,-205.191 122.804,-213.315 122.453,-208.602 120.399,-211.74 119.981,-211.466 119.562,-211.192 121.617,-208.055 117.157,-209.617 124.089,-205.191 124.089,-205.191"/>
<text text-anchor="middle" x="122" y="-226.8" font-family="FreeSans" font-size="8.00" fill="#2e3436">knows</text>
</g>
</g>
</svg>
