<?xml version="1.0" encoding="UTF-8" standalone="no"?>
<!DOCTYPE svg PUBLIC "-//W3C//DTD SVG 1.1//EN"
 "http://www.w3.org/Graphics/SVG/1.1/DTD/svg11.dtd">
<!-- Generated by graphviz version 2.26.3 (20100126.1600)
 -->
<!-- Title: g Pages: 1 -->
<svg width="238pt" height="284pt"
 viewBox="0.00 0.00 238.00 284.00" xmlns="http://www.w3.org/2000/svg" xmlns:xlink="http://www.w3.org/1999/xlink">
<g id="graph1" class="graph" transform="scale(1 1) rotate(0) translate(4 280)">
<title>g</title>
<polygon fill="white" stroke="white" points="-4,5 -4,-280 235,-280 235,5 -4,5"/>
<!-- N1 -->
<g id="node1" class="node"><title>N1</title>
<polygon fill="#ffffff" stroke="#ffffff" stroke-width="1.5" points="160.5,-6 207.5,-6 219.5,-18 219.5,-50 207.5,-62 160.5,-62 148.5,-50 148.5,-18 160.5,-6"/>
<path fill="#ffffff" stroke="#ffffff" stroke-width="1.5" d="M207.5,-6C213.5,-6 219.5,-12 219.5,-18"/>
<path fill="#ffffff" stroke="#ffffff" stroke-width="1.5" d="M219.5,-50C219.5,-56 213.5,-62 207.5,-62"/>
<path fill="#ffffff" stroke="#ffffff" stroke-width="1.5" d="M160.5,-62C154.5,-62 148.5,-56 148.5,-50"/>
<path fill="#ffffff" stroke="#ffffff" stroke-width="1.5" d="M148.5,-18C148.5,-12 154.5,-6 160.5,-6"/>
<polyline fill="none" stroke="#2e3436" stroke-width="1.5" points="160.5,-6 207.5,-6 "/>
<path fill="none" stroke="#2e3436" stroke-width="1.5" d="M207.5,-6C213.5,-6 219.5,-12 219.5,-18"/>
<polyline fill="none" stroke="#2e3436" stroke-width="1.5" points="219.5,-18 219.5,-50 "/>
<path fill="none" stroke="#2e3436" stroke-width="1.5" d="M219.5,-50C219.5,-56 213.5,-62 207.5,-62"/>
<polyline fill="none" stroke="#2e3436" stroke-width="1.5" points="207.5,-62 160.5,-62 "/>
<path fill="none" stroke="#2e3436" stroke-width="1.5" d="M160.5,-62C154.5,-62 148.5,-56 148.5,-50"/>
<polyline fill="none" stroke="#2e3436" stroke-width="1.5" points="148.5,-50 148.5,-18 "/>
<path fill="none" stroke="#2e3436" stroke-width="1.5" d="M148.5,-18C148.5,-12 154.5,-6 160.5,-6"/>
<text text-anchor="middle" x="184" y="-50.8" font-family="FreeSans" font-size="8.00" fill="#1c2021">Node[1]</text>
<polyline fill="none" stroke="#2e3436" stroke-width="1.5" points="148.5,-44 219.5,-44 "/>
<text text-anchor="start" x="156.5" y="-32.8" font-family="FreeSans" font-size="8.00" fill="#1c2021">age = 54</text>
<text text-anchor="start" x="156.5" y="-22.8" font-family="FreeSans" font-size="8.00" fill="#1c2021">name = &#39;Daniel&#39;</text>
<text text-anchor="start" x="156.5" y="-12.8" font-family="FreeSans" font-size="8.00" fill="#1c2021">eyes = &#39;brown&#39;</text>
</g>
<!-- N2 -->
<g id="node2" class="node"><title>N2</title>
<polygon fill="#ffffff" stroke="#ffffff" stroke-width="1.5" points="12,-1 100,-1 112,-13 112,-55 100,-67 12,-67 0,-55 0,-13 12,-1"/>
<path fill="#ffffff" stroke="#ffffff" stroke-width="1.5" d="M100,-1C106,-1 112,-7 112,-13"/>
<path fill="#ffffff" stroke="#ffffff" stroke-width="1.5" d="M112,-55C112,-61 106,-67 100,-67"/>
<path fill="#ffffff" stroke="#ffffff" stroke-width="1.5" d="M12,-67C6,-67 0,-61 0,-55"/>
<path fill="#ffffff" stroke="#ffffff" stroke-width="1.5" d="M0,-13C0,-7 6,-1 12,-1"/>
<polyline fill="none" stroke="#2e3436" stroke-width="1.5" points="12,-1 100,-1 "/>
<path fill="none" stroke="#2e3436" stroke-width="1.5" d="M100,-1C106,-1 112,-7 112,-13"/>
<polyline fill="none" stroke="#2e3436" stroke-width="1.5" points="112,-13 112,-55 "/>
<path fill="none" stroke="#2e3436" stroke-width="1.5" d="M112,-55C112,-61 106,-67 100,-67"/>
<polyline fill="none" stroke="#2e3436" stroke-width="1.5" points="100,-67 12,-67 "/>
<path fill="none" stroke="#2e3436" stroke-width="1.5" d="M12,-67C6,-67 0,-61 0,-55"/>
<polyline fill="none" stroke="#2e3436" stroke-width="1.5" points="0,-55 0,-13 "/>
<path fill="none" stroke="#2e3436" stroke-width="1.5" d="M0,-13C0,-7 6,-1 12,-1"/>
<text text-anchor="middle" x="56" y="-55.8" font-family="FreeSans" font-size="8.00" fill="#1c2021">Node[2]</text>
<polyline fill="none" stroke="#2e3436" stroke-width="1.5" points="0,-49 112,-49 "/>
<text text-anchor="start" x="8" y="-37.8" font-family="FreeSans" font-size="8.00" fill="#1c2021">age = 41</text>
<text text-anchor="start" x="8" y="-27.8" font-family="FreeSans" font-size="8.00" fill="#1c2021">name = &#39;Eskil&#39;</text>
<text text-anchor="start" x="8" y="-17.8" font-family="FreeSans" font-size="8.00" fill="#1c2021">array = [&#39;one&#39;, &#39;two&#39;, &#39;three&#39;]</text>
<text text-anchor="start" x="8" y="-7.8" font-family="FreeSans" font-size="8.00" fill="#1c2021">eyes = &#39;blue&#39;</text>
</g>
<!-- N3 -->
<g id="node3" class="node"><title>N3</title>
<polygon fill="#ffffff" stroke="#ffffff" stroke-width="1.5" points="126,-219 170,-219 182,-231 182,-263 170,-275 126,-275 114,-263 114,-231 126,-219"/>
<path fill="#ffffff" stroke="#ffffff" stroke-width="1.5" d="M170,-219C176,-219 182,-225 182,-231"/>
<path fill="#ffffff" stroke="#ffffff" stroke-width="1.5" d="M182,-263C182,-269 176,-275 170,-275"/>
<path fill="#ffffff" stroke="#ffffff" stroke-width="1.5" d="M126,-275C120,-275 114,-269 114,-263"/>
<path fill="#ffffff" stroke="#ffffff" stroke-width="1.5" d="M114,-231C114,-225 120,-219 126,-219"/>
<polyline fill="none" stroke="#2e3436" stroke-width="1.5" points="126,-219 170,-219 "/>
<path fill="none" stroke="#2e3436" stroke-width="1.5" d="M170,-219C176,-219 182,-225 182,-231"/>
<polyline fill="none" stroke="#2e3436" stroke-width="1.5" points="182,-231 182,-263 "/>
<path fill="none" stroke="#2e3436" stroke-width="1.5" d="M182,-263C182,-269 176,-275 170,-275"/>
<polyline fill="none" stroke="#2e3436" stroke-width="1.5" points="170,-275 126,-275 "/>
<path fill="none" stroke="#2e3436" stroke-width="1.5" d="M126,-275C120,-275 114,-269 114,-263"/>
<polyline fill="none" stroke="#2e3436" stroke-width="1.5" points="114,-263 114,-231 "/>
<path fill="none" stroke="#2e3436" stroke-width="1.5" d="M114,-231C114,-225 120,-219 126,-219"/>
<text text-anchor="middle" x="148" y="-263.8" font-family="FreeSans" font-size="8.00" fill="#1c2021">Node[3]</text>
<polyline fill="none" stroke="#2e3436" stroke-width="1.5" points="114,-257 182,-257 "/>
<text text-anchor="start" x="122" y="-245.8" font-family="FreeSans" font-size="8.00" fill="#1c2021">age = 38</text>
<text text-anchor="start" x="122" y="-235.8" font-family="FreeSans" font-size="8.00" fill="#1c2021">name = &#39;Alice&#39;</text>
<text text-anchor="start" x="122" y="-225.8" font-family="FreeSans" font-size="8.00" fill="#1c2021">eyes = &#39;brown&#39;</text>
</g>
<!-- N4 -->
<g id="node5" class="node"><title>N4</title>
<polygon fill="#ffffff" stroke="#ffffff" stroke-width="1.5" points="76.5,-115 115.5,-115 127.5,-127 127.5,-159 115.5,-171 76.5,-171 64.5,-159 64.5,-127 76.5,-115"/>
<path fill="#ffffff" stroke="#ffffff" stroke-width="1.5" d="M115.5,-115C121.5,-115 127.5,-121 127.5,-127"/>
<path fill="#ffffff" stroke="#ffffff" stroke-width="1.5" d="M127.5,-159C127.5,-165 121.5,-171 115.5,-171"/>
<path fill="#ffffff" stroke="#ffffff" stroke-width="1.5" d="M76.5,-171C70.5,-171 64.5,-165 64.5,-159"/>
<path fill="#ffffff" stroke="#ffffff" stroke-width="1.5" d="M64.5,-127C64.5,-121 70.5,-115 76.5,-115"/>
<polyline fill="none" stroke="#2e3436" stroke-width="1.5" points="76.5,-115 115.5,-115 "/>
<path fill="none" stroke="#2e3436" stroke-width="1.5" d="M115.5,-115C121.5,-115 127.5,-121 127.5,-127"/>
<polyline fill="none" stroke="#2e3436" stroke-width="1.5" points="127.5,-127 127.5,-159 "/>
<path fill="none" stroke="#2e3436" stroke-width="1.5" d="M127.5,-159C127.5,-165 121.5,-171 115.5,-171"/>
<polyline fill="none" stroke="#2e3436" stroke-width="1.5" points="115.5,-171 76.5,-171 "/>
<path fill="none" stroke="#2e3436" stroke-width="1.5" d="M76.5,-171C70.5,-171 64.5,-165 64.5,-159"/>
<polyline fill="none" stroke="#2e3436" stroke-width="1.5" points="64.5,-159 64.5,-127 "/>
<path fill="none" stroke="#2e3436" stroke-width="1.5" d="M64.5,-127C64.5,-121 70.5,-115 76.5,-115"/>
<text text-anchor="middle" x="96" y="-159.8" font-family="FreeSans" font-size="8.00" fill="#1c2021">Node[4]</text>
<polyline fill="none" stroke="#2e3436" stroke-width="1.5" points="64.5,-153 127.5,-153 "/>
<text text-anchor="start" x="72.5" y="-141.8" font-family="FreeSans" font-size="8.00" fill="#1c2021">age = 25</text>
<text text-anchor="start" x="72.5" y="-131.8" font-family="FreeSans" font-size="8.00" fill="#1c2021">name = &#39;Bob&#39;</text>
<text text-anchor="start" x="72.5" y="-121.8" font-family="FreeSans" font-size="8.00" fill="#1c2021">eyes = &#39;blue&#39;</text>
</g>
<!-- N3&#45;&gt;N4 -->
<g id="edge2" class="edge"><title>N3&#45;&gt;N4</title>
<path fill="none" stroke="#2e3436" stroke-width="2" d="M133.928,-218.856C127.627,-206.254 120.133,-191.266 113.477,-177.954"/>
<polygon fill="#2e3436" stroke="#2e3436" points="110.083,-171.166 116.456,-176.365 112.207,-174.297 113.885,-177.651 113.437,-177.875 112.99,-178.098 111.313,-174.744 110.419,-179.384 110.083,-171.166 110.083,-171.166"/>
<text text-anchor="middle" x="138.5" y="-192.8" font-family="FreeSans" font-size="8.00" fill="#2e3436">KNOWS</text>
</g>
<!-- N5 -->
<g id="node7" class="node"><title>N5</title>
<polygon fill="#ffffff" stroke="#ffffff" stroke-width="1.5" points="168,-115 218,-115 230,-127 230,-159 218,-171 168,-171 156,-159 156,-127 168,-115"/>
<path fill="#ffffff" stroke="#ffffff" stroke-width="1.5" d="M218,-115C224,-115 230,-121 230,-127"/>
<path fill="#ffffff" stroke="#ffffff" stroke-width="1.5" d="M230,-159C230,-165 224,-171 218,-171"/>
<path fill="#ffffff" stroke="#ffffff" stroke-width="1.5" d="M168,-171C162,-171 156,-165 156,-159"/>
<path fill="#ffffff" stroke="#ffffff" stroke-width="1.5" d="M156,-127C156,-121 162,-115 168,-115"/>
<polyline fill="none" stroke="#2e3436" stroke-width="1.5" points="168,-115 218,-115 "/>
<path fill="none" stroke="#2e3436" stroke-width="1.5" d="M218,-115C224,-115 230,-121 230,-127"/>
<polyline fill="none" stroke="#2e3436" stroke-width="1.5" points="230,-127 230,-159 "/>
<path fill="none" stroke="#2e3436" stroke-width="1.5" d="M230,-159C230,-165 224,-171 218,-171"/>
<polyline fill="none" stroke="#2e3436" stroke-width="1.5" points="218,-171 168,-171 "/>
<path fill="none" stroke="#2e3436" stroke-width="1.5" d="M168,-171C162,-171 156,-165 156,-159"/>
<polyline fill="none" stroke="#2e3436" stroke-width="1.5" points="156,-159 156,-127 "/>
<path fill="none" stroke="#2e3436" stroke-width="1.5" d="M156,-127C156,-121 162,-115 168,-115"/>
<text text-anchor="middle" x="193" y="-159.8" font-family="FreeSans" font-size="8.00" fill="#1c2021">Node[5]</text>
<polyline fill="none" stroke="#2e3436" stroke-width="1.5" points="156,-153 230,-153 "/>
<text text-anchor="start" x="164" y="-141.8" font-family="FreeSans" font-size="8.00" fill="#1c2021">age = 53</text>
<text text-anchor="start" x="164" y="-131.8" font-family="FreeSans" font-size="8.00" fill="#1c2021">name = &#39;Charlie&#39;</text>
<text text-anchor="start" x="164" y="-121.8" font-family="FreeSans" font-size="8.00" fill="#1c2021">eyes = &#39;green&#39;</text>
</g>
<!-- N3&#45;&gt;N5 -->
<g id="edge4" class="edge"><title>N3&#45;&gt;N5</title>
<path fill="none" stroke="#2e3436" stroke-width="2" d="M160.178,-218.856C165.58,-206.37 171.997,-191.541 177.717,-178.32"/>
<polygon fill="#2e3436" stroke="#2e3436" points="180.813,-171.166 180.932,-179.39 179.782,-174.807 178.293,-178.248 177.834,-178.05 177.375,-177.851 178.865,-174.409 174.737,-176.709 180.813,-171.166 180.813,-171.166"/>
<text text-anchor="middle" x="186.5" y="-192.8" font-family="FreeSans" font-size="8.00" fill="#2e3436">KNOWS</text>
</g>
<!-- N4&#45;&gt;N1 -->
<g id="edge6" class="edge"><title>N4&#45;&gt;N1</title>
<path fill="none" stroke="#2e3436" stroke-width="2" d="M118.662,-114.93C130.171,-100.674 144.25,-83.2353 156.388,-68.2009"/>
<polygon fill="#2e3436" stroke="#2e3436" points="161.109,-62.3539 159.023,-70.3096 159.142,-65.5858 156.786,-68.5036 156.397,-68.1895 156.008,-67.8754 158.364,-64.9576 153.771,-66.0694 161.109,-62.3539 161.109,-62.3539"/>
<text text-anchor="middle" x="155.5" y="-88.8" font-family="FreeSans" font-size="8.00" fill="#2e3436">KNOWS</text>
</g>
<!-- N4&#45;&gt;N2 -->
<g id="edge8" class="edge"><title>N4&#45;&gt;N2</title>
<path fill="none" stroke="#4e9a06" stroke-width="2" d="M65.1917,-114.912C60.6148,-109.14 56.5756,-102.748 54,-96 51.4899,-89.4239 50.3918,-82.1644 50.1484,-74.999"/>
<polygon fill="#4e9a06" stroke="#4e9a06" points="50.1934,-67.2975 53.5245,-74.8171 50.6715,-71.0504 50.6495,-74.8003 50.1495,-74.7974 49.6495,-74.7945 49.6715,-71.0445 46.7746,-74.7776 50.1934,-67.2975 50.1934,-67.2975"/>
<text text-anchor="middle" x="73" y="-88.8" font-family="FreeSans" font-size="8.00" fill="#4e9a06">MARRIED</text>
</g>
<!-- N5&#45;&gt;N1 -->
<g id="edge10" class="edge"><title>N5&#45;&gt;N1</title>
<path fill="none" stroke="#2e3436" stroke-width="2" d="M190.682,-114.93C189.557,-101.305 188.192,-84.7723 186.99,-70.2102"/>
<polygon fill="#2e3436" stroke="#2e3436" points="186.341,-62.3539 190.322,-69.5507 187.148,-66.0501 187.457,-69.7873 186.958,-69.8285 186.46,-69.8696 186.151,-66.1324 183.595,-70.1063 186.341,-62.3539 186.341,-62.3539"/>
<text text-anchor="middle" x="204.5" y="-88.8" font-family="FreeSans" font-size="8.00" fill="#2e3436">KNOWS</text>
</g>
</g>
</svg>
