<?xml version="1.0" encoding="UTF-8" standalone="no"?>
<!DOCTYPE svg PUBLIC "-//W3C//DTD SVG 1.1//EN"
 "http://www.w3.org/Graphics/SVG/1.1/DTD/svg11.dtd">
<!-- Generated by graphviz version 2.26.3 (20100126.1600)
 -->
<!-- Title: g Pages: 1 -->
<svg width="408pt" height="382pt"
 viewBox="0.00 0.00 408.00 382.00" xmlns="http://www.w3.org/2000/svg" xmlns:xlink="http://www.w3.org/1999/xlink">
<g id="graph1" class="graph" transform="scale(1 1) rotate(0) translate(4 378)">
<title>g</title>
<polygon fill="white" stroke="white" points="-4,5 -4,-378 405,-378 405,5 -4,5"/>
<!-- root -->
<g id="node1" class="node"><title>root</title>
<polygon fill="#ffffff" stroke="#ffffff" stroke-width="1.5" points="106,-337 136,-337 148,-349 148,-361 136,-373 106,-373 94,-361 94,-349 106,-337"/>
<path fill="#ffffff" stroke="#ffffff" stroke-width="1.5" d="M136,-337C142,-337 148,-343 148,-349"/>
<path fill="#ffffff" stroke="#ffffff" stroke-width="1.5" d="M148,-361C148,-367 142,-373 136,-373"/>
<path fill="#ffffff" stroke="#ffffff" stroke-width="1.5" d="M106,-373C100,-373 94,-367 94,-361"/>
<path fill="#ffffff" stroke="#ffffff" stroke-width="1.5" d="M94,-349C94,-343 100,-337 106,-337"/>
<polyline fill="none" stroke="#2e3436" stroke-width="1.5" points="106,-337 136,-337 "/>
<path fill="none" stroke="#2e3436" stroke-width="1.5" d="M136,-337C142,-337 148,-343 148,-349"/>
<polyline fill="none" stroke="#2e3436" stroke-width="1.5" points="148,-349 148,-361 "/>
<path fill="none" stroke="#2e3436" stroke-width="1.5" d="M148,-361C148,-367 142,-373 136,-373"/>
<polyline fill="none" stroke="#2e3436" stroke-width="1.5" points="136,-373 106,-373 "/>
<path fill="none" stroke="#2e3436" stroke-width="1.5" d="M106,-373C100,-373 94,-367 94,-361"/>
<polyline fill="none" stroke="#2e3436" stroke-width="1.5" points="94,-361 94,-349 "/>
<path fill="none" stroke="#2e3436" stroke-width="1.5" d="M94,-349C94,-343 100,-337 106,-337"/>
<text text-anchor="middle" x="121" y="-352.8" font-family="FreeSans" font-size="8.00" fill="#1c2021">Root</text>
</g>
<!-- Y10 -->
<g id="node3" class="node"><title>Y10</title>
<polygon fill="#ffffff" stroke="#ffffff" stroke-width="1.5" points="50,-253 80,-253 92,-265 92,-277 80,-289 50,-289 38,-277 38,-265 50,-253"/>
<path fill="#ffffff" stroke="#ffffff" stroke-width="1.5" d="M80,-253C86,-253 92,-259 92,-265"/>
<path fill="#ffffff" stroke="#ffffff" stroke-width="1.5" d="M92,-277C92,-283 86,-289 80,-289"/>
<path fill="#ffffff" stroke="#ffffff" stroke-width="1.5" d="M50,-289C44,-289 38,-283 38,-277"/>
<path fill="#ffffff" stroke="#ffffff" stroke-width="1.5" d="M38,-265C38,-259 44,-253 50,-253"/>
<polyline fill="none" stroke="#2e3436" stroke-width="1.5" points="50,-253 80,-253 "/>
<path fill="none" stroke="#2e3436" stroke-width="1.5" d="M80,-253C86,-253 92,-259 92,-265"/>
<polyline fill="none" stroke="#2e3436" stroke-width="1.5" points="92,-265 92,-277 "/>
<path fill="none" stroke="#2e3436" stroke-width="1.5" d="M92,-277C92,-283 86,-289 80,-289"/>
<polyline fill="none" stroke="#2e3436" stroke-width="1.5" points="80,-289 50,-289 "/>
<path fill="none" stroke="#2e3436" stroke-width="1.5" d="M50,-289C44,-289 38,-283 38,-277"/>
<polyline fill="none" stroke="#2e3436" stroke-width="1.5" points="38,-277 38,-265 "/>
<path fill="none" stroke="#2e3436" stroke-width="1.5" d="M38,-265C38,-259 44,-253 50,-253"/>
<text text-anchor="middle" x="65" y="-268.8" font-family="FreeSans" font-size="8.00" fill="#1c2021">Year 2010</text>
</g>
<!-- root&#45;&gt;Y10 -->
<g id="edge3" class="edge"><title>root&#45;&gt;Y10</title>
<path fill="none" stroke="greenyellow" stroke-width="3" d="M108.849,-336.773C100.85,-324.775 90.2783,-308.917 81.5193,-295.779"/>
<polygon fill="greenyellow" stroke="greenyellow" points="77.1275,-289.191 84.0959,-293.559 80.0397,-291.757 82.1198,-294.877 81.2877,-295.432 80.4557,-295.986 78.3755,-292.866 78.4796,-297.304 77.1275,-289.191 77.1275,-289.191"/>
<text text-anchor="middle" x="104.5" y="-310.8" font-family="FreeSans" font-size="8.00" fill="#1c2021">2010</text>
</g>
<!-- Y11 -->
<g id="node4" class="node"><title>Y11</title>
<polygon fill="#ffffff" stroke="#ffffff" stroke-width="1.5" points="167,-253 197,-253 209,-265 209,-277 197,-289 167,-289 155,-277 155,-265 167,-253"/>
<path fill="#ffffff" stroke="#ffffff" stroke-width="1.5" d="M197,-253C203,-253 209,-259 209,-265"/>
<path fill="#ffffff" stroke="#ffffff" stroke-width="1.5" d="M209,-277C209,-283 203,-289 197,-289"/>
<path fill="#ffffff" stroke="#ffffff" stroke-width="1.5" d="M167,-289C161,-289 155,-283 155,-277"/>
<path fill="#ffffff" stroke="#ffffff" stroke-width="1.5" d="M155,-265C155,-259 161,-253 167,-253"/>
<polyline fill="none" stroke="#2e3436" stroke-width="1.5" points="167,-253 197,-253 "/>
<path fill="none" stroke="#2e3436" stroke-width="1.5" d="M197,-253C203,-253 209,-259 209,-265"/>
<polyline fill="none" stroke="#2e3436" stroke-width="1.5" points="209,-265 209,-277 "/>
<path fill="none" stroke="#2e3436" stroke-width="1.5" d="M209,-277C209,-283 203,-289 197,-289"/>
<polyline fill="none" stroke="#2e3436" stroke-width="1.5" points="197,-289 167,-289 "/>
<path fill="none" stroke="#2e3436" stroke-width="1.5" d="M167,-289C161,-289 155,-283 155,-277"/>
<polyline fill="none" stroke="#2e3436" stroke-width="1.5" points="155,-277 155,-265 "/>
<path fill="none" stroke="#2e3436" stroke-width="1.5" d="M155,-265C155,-259 161,-253 167,-253"/>
<text text-anchor="middle" x="182" y="-268.8" font-family="FreeSans" font-size="8.00" fill="#1c2021">Year 2011</text>
</g>
<!-- root&#45;&gt;Y11 -->
<g id="edge5" class="edge"><title>root&#45;&gt;Y11</title>
<path fill="none" stroke="darkgreen" stroke-width="3" d="M134.236,-336.773C143.029,-324.665 154.676,-308.626 164.268,-295.418"/>
<polygon fill="darkgreen" stroke="darkgreen" points="168.79,-289.191 167.114,-297.243 167.395,-292.813 165.192,-295.847 164.383,-295.26 163.574,-294.672 165.777,-291.638 161.652,-293.277 168.79,-289.191 168.79,-289.191"/>
<text text-anchor="middle" x="163.5" y="-310.8" font-family="FreeSans" font-size="8.00" fill="#1c2021">2011</text>
</g>
<!-- Y10M12 -->
<g id="node8" class="node"><title>Y10M12</title>
<polygon fill="#ffffff" stroke="#ffffff" stroke-width="1.5" points="42,-169 72,-169 84,-181 84,-193 72,-205 42,-205 30,-193 30,-181 42,-169"/>
<path fill="#ffffff" stroke="#ffffff" stroke-width="1.5" d="M72,-169C78,-169 84,-175 84,-181"/>
<path fill="#ffffff" stroke="#ffffff" stroke-width="1.5" d="M84,-193C84,-199 78,-205 72,-205"/>
<path fill="#ffffff" stroke="#ffffff" stroke-width="1.5" d="M42,-205C36,-205 30,-199 30,-193"/>
<path fill="#ffffff" stroke="#ffffff" stroke-width="1.5" d="M30,-181C30,-175 36,-169 42,-169"/>
<polyline fill="none" stroke="#2e3436" stroke-width="1.5" points="42,-169 72,-169 "/>
<path fill="none" stroke="#2e3436" stroke-width="1.5" d="M72,-169C78,-169 84,-175 84,-181"/>
<polyline fill="none" stroke="#2e3436" stroke-width="1.5" points="84,-181 84,-193 "/>
<path fill="none" stroke="#2e3436" stroke-width="1.5" d="M84,-193C84,-199 78,-205 72,-205"/>
<polyline fill="none" stroke="#2e3436" stroke-width="1.5" points="72,-205 42,-205 "/>
<path fill="none" stroke="#2e3436" stroke-width="1.5" d="M42,-205C36,-205 30,-199 30,-193"/>
<polyline fill="none" stroke="#2e3436" stroke-width="1.5" points="30,-193 30,-181 "/>
<path fill="none" stroke="#2e3436" stroke-width="1.5" d="M30,-181C30,-175 36,-169 42,-169"/>
<text text-anchor="middle" x="57" y="-184.8" font-family="FreeSans" font-size="8.00" fill="#1c2021">Month 12</text>
</g>
<!-- Y10&#45;&gt;Y10M12 -->
<g id="edge8" class="edge"><title>Y10&#45;&gt;Y10M12</title>
<path fill="none" stroke="greenyellow" stroke-width="3" d="M63.2641,-252.773C62.1529,-241.105 60.694,-225.787 59.4638,-212.87"/>
<polygon fill="greenyellow" stroke="greenyellow" points="58.7325,-205.191 62.8034,-212.337 60.0836,-208.829 60.4391,-212.563 59.4436,-212.657 58.4482,-212.752 58.0926,-209.019 56.0839,-212.977 58.7325,-205.191 58.7325,-205.191"/>
<text text-anchor="middle" x="67" y="-226.8" font-family="FreeSans" font-size="8.00" fill="#1c2021">12</text>
</g>
<!-- Y11M01 -->
<g id="node9" class="node"><title>Y11M01</title>
<polygon fill="#ffffff" stroke="#ffffff" stroke-width="1.5" points="173,-169 203,-169 215,-181 215,-193 203,-205 173,-205 161,-193 161,-181 173,-169"/>
<path fill="#ffffff" stroke="#ffffff" stroke-width="1.5" d="M203,-169C209,-169 215,-175 215,-181"/>
<path fill="#ffffff" stroke="#ffffff" stroke-width="1.5" d="M215,-193C215,-199 209,-205 203,-205"/>
<path fill="#ffffff" stroke="#ffffff" stroke-width="1.5" d="M173,-205C167,-205 161,-199 161,-193"/>
<path fill="#ffffff" stroke="#ffffff" stroke-width="1.5" d="M161,-181C161,-175 167,-169 173,-169"/>
<polyline fill="none" stroke="#2e3436" stroke-width="1.5" points="173,-169 203,-169 "/>
<path fill="none" stroke="#2e3436" stroke-width="1.5" d="M203,-169C209,-169 215,-175 215,-181"/>
<polyline fill="none" stroke="#2e3436" stroke-width="1.5" points="215,-181 215,-193 "/>
<path fill="none" stroke="#2e3436" stroke-width="1.5" d="M215,-193C215,-199 209,-205 203,-205"/>
<polyline fill="none" stroke="#2e3436" stroke-width="1.5" points="203,-205 173,-205 "/>
<path fill="none" stroke="#2e3436" stroke-width="1.5" d="M173,-205C167,-205 161,-199 161,-193"/>
<polyline fill="none" stroke="#2e3436" stroke-width="1.5" points="161,-193 161,-181 "/>
<path fill="none" stroke="#2e3436" stroke-width="1.5" d="M161,-181C161,-175 167,-169 173,-169"/>
<text text-anchor="middle" x="188" y="-184.8" font-family="FreeSans" font-size="8.00" fill="#1c2021">Month 01</text>
</g>
<!-- Y11&#45;&gt;Y11M01 -->
<g id="edge10" class="edge"><title>Y11&#45;&gt;Y11M01</title>
<path fill="none" stroke="darkgreen" stroke-width="3" d="M183.302,-252.773C184.135,-241.105 185.229,-225.787 186.152,-212.87"/>
<polygon fill="darkgreen" stroke="darkgreen" points="186.701,-205.191 189.533,-212.913 187.431,-209.003 187.164,-212.743 186.166,-212.672 185.169,-212.601 185.436,-208.86 182.8,-212.432 186.701,-205.191 186.701,-205.191"/>
<text text-anchor="middle" x="191" y="-226.8" font-family="FreeSans" font-size="8.00" fill="#1c2021">01</text>
</g>
<!-- Y10M12D31 -->
<g id="node13" class="node"><title>Y10M12D31</title>
<polygon fill="#ffffff" stroke="#ffffff" stroke-width="1.5" points="22,-85 52,-85 64,-97 64,-109 52,-121 22,-121 10,-109 10,-97 22,-85"/>
<path fill="#ffffff" stroke="#ffffff" stroke-width="1.5" d="M52,-85C58,-85 64,-91 64,-97"/>
<path fill="#ffffff" stroke="#ffffff" stroke-width="1.5" d="M64,-109C64,-115 58,-121 52,-121"/>
<path fill="#ffffff" stroke="#ffffff" stroke-width="1.5" d="M22,-121C16,-121 10,-115 10,-109"/>
<path fill="#ffffff" stroke="#ffffff" stroke-width="1.5" d="M10,-97C10,-91 16,-85 22,-85"/>
<polyline fill="none" stroke="#2e3436" stroke-width="1.5" points="22,-85 52,-85 "/>
<path fill="none" stroke="#2e3436" stroke-width="1.5" d="M52,-85C58,-85 64,-91 64,-97"/>
<polyline fill="none" stroke="#2e3436" stroke-width="1.5" points="64,-97 64,-109 "/>
<path fill="none" stroke="#2e3436" stroke-width="1.5" d="M64,-109C64,-115 58,-121 52,-121"/>
<polyline fill="none" stroke="#2e3436" stroke-width="1.5" points="52,-121 22,-121 "/>
<path fill="none" stroke="#2e3436" stroke-width="1.5" d="M22,-121C16,-121 10,-115 10,-109"/>
<polyline fill="none" stroke="#2e3436" stroke-width="1.5" points="10,-109 10,-97 "/>
<path fill="none" stroke="#2e3436" stroke-width="1.5" d="M10,-97C10,-91 16,-85 22,-85"/>
<text text-anchor="middle" x="37" y="-100.8" font-family="FreeSans" font-size="8.00" fill="#1c2021">Day 31</text>
</g>
<!-- Y10M12&#45;&gt;Y10M12D31 -->
<g id="edge13" class="edge"><title>Y10M12&#45;&gt;Y10M12D31</title>
<path fill="none" stroke="greenyellow" stroke-width="3" d="M52.6603,-168.773C49.856,-156.995 46.1662,-141.498 43.0726,-128.505"/>
<polygon fill="greenyellow" stroke="greenyellow" points="41.3312,-121.191 46.3517,-127.705 43.1727,-124.608 44.0413,-128.256 43.0685,-128.487 42.0957,-128.719 41.227,-125.071 39.7852,-129.269 41.3312,-121.191 41.3312,-121.191"/>
<text text-anchor="middle" x="53" y="-142.8" font-family="FreeSans" font-size="8.00" fill="#1c2021">31</text>
</g>
<!-- Y11M01D01 -->
<g id="node14" class="node"><title>Y11M01D01</title>
<polygon fill="#ffffff" stroke="#ffffff" stroke-width="1.5" points="134,-85 164,-85 176,-97 176,-109 164,-121 134,-121 122,-109 122,-97 134,-85"/>
<path fill="#ffffff" stroke="#ffffff" stroke-width="1.5" d="M164,-85C170,-85 176,-91 176,-97"/>
<path fill="#ffffff" stroke="#ffffff" stroke-width="1.5" d="M176,-109C176,-115 170,-121 164,-121"/>
<path fill="#ffffff" stroke="#ffffff" stroke-width="1.5" d="M134,-121C128,-121 122,-115 122,-109"/>
<path fill="#ffffff" stroke="#ffffff" stroke-width="1.5" d="M122,-97C122,-91 128,-85 134,-85"/>
<polyline fill="none" stroke="#2e3436" stroke-width="1.5" points="134,-85 164,-85 "/>
<path fill="none" stroke="#2e3436" stroke-width="1.5" d="M164,-85C170,-85 176,-91 176,-97"/>
<polyline fill="none" stroke="#2e3436" stroke-width="1.5" points="176,-97 176,-109 "/>
<path fill="none" stroke="#2e3436" stroke-width="1.5" d="M176,-109C176,-115 170,-121 164,-121"/>
<polyline fill="none" stroke="#2e3436" stroke-width="1.5" points="164,-121 134,-121 "/>
<path fill="none" stroke="#2e3436" stroke-width="1.5" d="M134,-121C128,-121 122,-115 122,-109"/>
<polyline fill="none" stroke="#2e3436" stroke-width="1.5" points="122,-109 122,-97 "/>
<path fill="none" stroke="#2e3436" stroke-width="1.5" d="M122,-97C122,-91 128,-85 134,-85"/>
<text text-anchor="middle" x="149" y="-100.8" font-family="FreeSans" font-size="8.00" fill="#1c2021">Day 01</text>
</g>
<!-- Y11M01&#45;&gt;Y11M01D01 -->
<g id="edge15" class="edge"><title>Y11M01&#45;&gt;Y11M01D01</title>
<path fill="none" stroke="#2e3436" stroke-width="2" d="M179.538,-168.773C174.018,-156.885 166.739,-141.208 160.673,-128.141"/>
<polygon fill="#2e3436" stroke="#2e3436" points="157.446,-121.191 163.665,-126.572 159.479,-124.382 161.058,-127.783 160.604,-127.994 160.151,-128.204 158.572,-124.803 157.543,-129.415 157.446,-121.191 157.446,-121.191"/>
<text text-anchor="middle" x="175" y="-142.8" font-family="FreeSans" font-size="8.00" fill="#1c2021">01</text>
</g>
<!-- Y11M01D02 -->
<g id="node15" class="node"><title>Y11M01D02</title>
<polygon fill="#ffffff" stroke="#ffffff" stroke-width="1.5" points="246,-85 276,-85 288,-97 288,-109 276,-121 246,-121 234,-109 234,-97 246,-85"/>
<path fill="#ffffff" stroke="#ffffff" stroke-width="1.5" d="M276,-85C282,-85 288,-91 288,-97"/>
<path fill="#ffffff" stroke="#ffffff" stroke-width="1.5" d="M288,-109C288,-115 282,-121 276,-121"/>
<path fill="#ffffff" stroke="#ffffff" stroke-width="1.5" d="M246,-121C240,-121 234,-115 234,-109"/>
<path fill="#ffffff" stroke="#ffffff" stroke-width="1.5" d="M234,-97C234,-91 240,-85 246,-85"/>
<polyline fill="none" stroke="#2e3436" stroke-width="1.5" points="246,-85 276,-85 "/>
<path fill="none" stroke="#2e3436" stroke-width="1.5" d="M276,-85C282,-85 288,-91 288,-97"/>
<polyline fill="none" stroke="#2e3436" stroke-width="1.5" points="288,-97 288,-109 "/>
<path fill="none" stroke="#2e3436" stroke-width="1.5" d="M288,-109C288,-115 282,-121 276,-121"/>
<polyline fill="none" stroke="#2e3436" stroke-width="1.5" points="276,-121 246,-121 "/>
<path fill="none" stroke="#2e3436" stroke-width="1.5" d="M246,-121C240,-121 234,-115 234,-109"/>
<polyline fill="none" stroke="#2e3436" stroke-width="1.5" points="234,-109 234,-97 "/>
<path fill="none" stroke="#2e3436" stroke-width="1.5" d="M234,-97C234,-91 240,-85 246,-85"/>
<text text-anchor="middle" x="261" y="-100.8" font-family="FreeSans" font-size="8.00" fill="#1c2021">Day 02</text>
</g>
<!-- Y11M01&#45;&gt;Y11M01D02 -->
<g id="edge17" class="edge"><title>Y11M01&#45;&gt;Y11M01D02</title>
<path fill="none" stroke="#2e3436" stroke-width="2" d="M203.84,-168.773C214.458,-156.555 228.555,-140.334 240.092,-127.059"/>
<polygon fill="#2e3436" stroke="#2e3436" points="245.191,-121.191 242.819,-129.066 243.109,-124.35 240.649,-127.18 240.271,-126.852 239.894,-126.524 242.354,-123.694 237.724,-124.638 245.191,-121.191 245.191,-121.191"/>
<text text-anchor="middle" x="232" y="-142.8" font-family="FreeSans" font-size="8.00" fill="#1c2021">02</text>
</g>
<!-- Y11M01D03 -->
<g id="node16" class="node"><title>Y11M01D03</title>
<polygon fill="#ffffff" stroke="#ffffff" stroke-width="1.5" points="358,-85 388,-85 400,-97 400,-109 388,-121 358,-121 346,-109 346,-97 358,-85"/>
<path fill="#ffffff" stroke="#ffffff" stroke-width="1.5" d="M388,-85C394,-85 400,-91 400,-97"/>
<path fill="#ffffff" stroke="#ffffff" stroke-width="1.5" d="M400,-109C400,-115 394,-121 388,-121"/>
<path fill="#ffffff" stroke="#ffffff" stroke-width="1.5" d="M358,-121C352,-121 346,-115 346,-109"/>
<path fill="#ffffff" stroke="#ffffff" stroke-width="1.5" d="M346,-97C346,-91 352,-85 358,-85"/>
<polyline fill="none" stroke="#2e3436" stroke-width="1.5" points="358,-85 388,-85 "/>
<path fill="none" stroke="#2e3436" stroke-width="1.5" d="M388,-85C394,-85 400,-91 400,-97"/>
<polyline fill="none" stroke="#2e3436" stroke-width="1.5" points="400,-97 400,-109 "/>
<path fill="none" stroke="#2e3436" stroke-width="1.5" d="M400,-109C400,-115 394,-121 388,-121"/>
<polyline fill="none" stroke="#2e3436" stroke-width="1.5" points="388,-121 358,-121 "/>
<path fill="none" stroke="#2e3436" stroke-width="1.5" d="M358,-121C352,-121 346,-115 346,-109"/>
<polyline fill="none" stroke="#2e3436" stroke-width="1.5" points="346,-109 346,-97 "/>
<path fill="none" stroke="#2e3436" stroke-width="1.5" d="M346,-97C346,-91 352,-85 358,-85"/>
<text text-anchor="middle" x="373" y="-100.8" font-family="FreeSans" font-size="8.00" fill="#1c2021">Day 03</text>
</g>
<!-- Y11M01&#45;&gt;Y11M01D03 -->
<g id="edge19" class="edge"><title>Y11M01&#45;&gt;Y11M01D03</title>
<path fill="none" stroke="darkgreen" stroke-width="3" d="M215.297,-174.606C248.183,-159.674 303.439,-134.584 339.045,-118.417"/>
<polygon fill="darkgreen" stroke="darkgreen" points="345.892,-115.309 340.458,-121.482 342.891,-117.769 339.476,-119.32 339.063,-118.409 338.65,-117.499 342.064,-115.948 337.668,-115.336 345.892,-115.309 345.892,-115.309"/>
<text text-anchor="middle" x="292" y="-142.8" font-family="FreeSans" font-size="8.00" fill="#1c2021">03</text>
</g>
<!-- Y10M12D31&#45;&gt;Y11M01D01 -->
<g id="edge21" class="edge"><title>Y10M12D31&#45;&gt;Y11M01D01</title>
<path fill="none" stroke="blue" stroke-width="3" d="M64.1121,-103C79.1337,-103 97.9742,-103 114.087,-103"/>
<polygon fill="blue" stroke="blue" points="121.749,-103 114.249,-106.375 117.999,-104 114.249,-104 114.249,-103 114.249,-102 117.999,-102 114.249,-99.6251 121.749,-103 121.749,-103"/>
<text text-anchor="middle" x="93" y="-105.8" font-family="FreeSans" font-size="8.00" fill="#1c2021">NEXT</text>
</g>
<!-- E1 -->
<g id="node25" class="node"><title>E1</title>
<polygon fill="#ffffff" stroke="#ffffff" stroke-width="2" points="12,-1 42,-1 54,-13 54,-25 42,-37 12,-37 0,-25 0,-13 12,-1"/>
<path fill="#ffffff" stroke="#ffffff" stroke-width="2" d="M42,-1C48,-1 54,-7 54,-13"/>
<path fill="#ffffff" stroke="#ffffff" stroke-width="2" d="M54,-25C54,-31 48,-37 42,-37"/>
<path fill="#ffffff" stroke="#ffffff" stroke-width="2" d="M12,-37C6,-37 0,-31 0,-25"/>
<path fill="#ffffff" stroke="#ffffff" stroke-width="2" d="M0,-13C0,-7 6,-1 12,-1"/>
<polyline fill="none" stroke="#2e3436" stroke-width="2" points="12,-1 42,-1 "/>
<path fill="none" stroke="#2e3436" stroke-width="2" d="M42,-1C48,-1 54,-7 54,-13"/>
<polyline fill="none" stroke="#2e3436" stroke-width="2" points="54,-13 54,-25 "/>
<path fill="none" stroke="#2e3436" stroke-width="2" d="M54,-25C54,-31 48,-37 42,-37"/>
<polyline fill="none" stroke="#2e3436" stroke-width="2" points="42,-37 12,-37 "/>
<path fill="none" stroke="#2e3436" stroke-width="2" d="M12,-37C6,-37 0,-31 0,-25"/>
<polyline fill="none" stroke="#2e3436" stroke-width="2" points="0,-25 0,-13 "/>
<path fill="none" stroke="#2e3436" stroke-width="2" d="M0,-13C0,-7 6,-1 12,-1"/>
<text text-anchor="middle" x="27" y="-16.8" font-family="FreeSans" font-size="8.00" fill="#1c2021">Event1</text>
</g>
<!-- Y10M12D31&#45;&gt;E1 -->
<g id="edge28" class="edge"><title>Y10M12D31&#45;&gt;E1</title>
<path fill="none" stroke="red" stroke-width="3" d="M29.8565,-84.8347C27.8726,-78.924 25.9913,-72.2699 25,-66 23.9366,-59.2742 23.778,-51.9441 24.0476,-45.1167"/>
<polygon fill="red" stroke="red" points="24.5323,-37.3992 27.4305,-45.096 25.2953,-41.2045 25.0602,-44.9472 24.0621,-44.8845 23.0641,-44.8218 23.2992,-41.0791 20.6938,-44.6729 24.5323,-37.3992 24.5323,-37.3992"/>
<text text-anchor="middle" x="38.5" y="-58.8" font-family="FreeSans" font-size="8.00" fill="#1c2021">VALUE</text>
</g>
<!-- E2 -->
<g id="node26" class="node"><title>E2</title>
<polygon fill="#ffffff" stroke="#ffffff" stroke-width="2" points="115,-1 145,-1 157,-13 157,-25 145,-37 115,-37 103,-25 103,-13 115,-1"/>
<path fill="#ffffff" stroke="#ffffff" stroke-width="2" d="M145,-1C151,-1 157,-7 157,-13"/>
<path fill="#ffffff" stroke="#ffffff" stroke-width="2" d="M157,-25C157,-31 151,-37 145,-37"/>
<path fill="#ffffff" stroke="#ffffff" stroke-width="2" d="M115,-37C109,-37 103,-31 103,-25"/>
<path fill="#ffffff" stroke="#ffffff" stroke-width="2" d="M103,-13C103,-7 109,-1 115,-1"/>
<polyline fill="none" stroke="#2e3436" stroke-width="2" points="115,-1 145,-1 "/>
<path fill="none" stroke="#2e3436" stroke-width="2" d="M145,-1C151,-1 157,-7 157,-13"/>
<polyline fill="none" stroke="#2e3436" stroke-width="2" points="157,-13 157,-25 "/>
<path fill="none" stroke="#2e3436" stroke-width="2" d="M157,-25C157,-31 151,-37 145,-37"/>
<polyline fill="none" stroke="#2e3436" stroke-width="2" points="145,-37 115,-37 "/>
<path fill="none" stroke="#2e3436" stroke-width="2" d="M115,-37C109,-37 103,-31 103,-25"/>
<polyline fill="none" stroke="#2e3436" stroke-width="2" points="103,-25 103,-13 "/>
<path fill="none" stroke="#2e3436" stroke-width="2" d="M103,-13C103,-7 109,-1 115,-1"/>
<text text-anchor="middle" x="130" y="-16.8" font-family="FreeSans" font-size="8.00" fill="#1c2021">Event2</text>
</g>
<!-- Y10M12D31&#45;&gt;E2 -->
<g id="edge30" class="edge"><title>Y10M12D31&#45;&gt;E2</title>
<path fill="none" stroke="red" stroke-width="3" d="M57.1796,-84.7733C70.9508,-72.3348 89.3143,-55.7484 104.155,-42.3439"/>
<polygon fill="red" stroke="red" points="109.86,-37.1912 106.556,-44.723 107.747,-40.4469 104.964,-42.9605 104.294,-42.2184 103.624,-41.4763 106.407,-38.9627 102.032,-39.7137 109.86,-37.1912 109.86,-37.1912"/>
<text text-anchor="middle" x="100.5" y="-58.8" font-family="FreeSans" font-size="8.00" fill="#1c2021">VALUE</text>
</g>
<!-- Y11M01D01&#45;&gt;Y11M01D02 -->
<g id="edge23" class="edge"><title>Y11M01D01&#45;&gt;Y11M01D02</title>
<path fill="none" stroke="blue" stroke-width="3" d="M176.112,-103C191.134,-103 209.974,-103 226.087,-103"/>
<polygon fill="blue" stroke="blue" points="233.749,-103 226.249,-106.375 229.999,-104 226.249,-104 226.249,-103 226.249,-102 229.999,-102 226.249,-99.6251 233.749,-103 233.749,-103"/>
<text text-anchor="middle" x="205" y="-105.8" font-family="FreeSans" font-size="8.00" fill="#1c2021">NEXT</text>
</g>
<!-- Y11M01D01&#45;&gt;E2 -->
<g id="edge32" class="edge"><title>Y11M01D01&#45;&gt;E2</title>
<path fill="none" stroke="red" stroke-width="3" d="M144.877,-84.7733C142.238,-73.1053 138.773,-57.7874 135.852,-44.8699"/>
<polygon fill="red" stroke="red" points="134.115,-37.1912 139.061,-43.7618 135.917,-40.6282 136.745,-44.2858 135.769,-44.5064 134.794,-44.727 133.967,-41.0694 132.478,-45.251 134.115,-37.1912 134.115,-37.1912"/>
<text text-anchor="middle" x="154.5" y="-58.8" font-family="FreeSans" font-size="8.00" fill="#1c2021">VALUE</text>
</g>
<!-- Y11M01D02&#45;&gt;Y11M01D03 -->
<g id="edge25" class="edge"><title>Y11M01D02&#45;&gt;Y11M01D03</title>
<path fill="none" stroke="blue" stroke-width="3" d="M288.112,-103C303.134,-103 321.974,-103 338.087,-103"/>
<polygon fill="blue" stroke="blue" points="345.749,-103 338.249,-106.375 341.999,-104 338.249,-104 338.249,-103 338.249,-102 341.999,-102 338.249,-99.6251 345.749,-103 345.749,-103"/>
<text text-anchor="middle" x="317" y="-105.8" font-family="FreeSans" font-size="8.00" fill="#1c2021">NEXT</text>
</g>
<!-- E3 -->
<g id="node27" class="node"><title>E3</title>
<polygon fill="#ffffff" stroke="#ffffff" stroke-width="2" points="358,-1 388,-1 400,-13 400,-25 388,-37 358,-37 346,-25 346,-13 358,-1"/>
<path fill="#ffffff" stroke="#ffffff" stroke-width="2" d="M388,-1C394,-1 400,-7 400,-13"/>
<path fill="#ffffff" stroke="#ffffff" stroke-width="2" d="M400,-25C400,-31 394,-37 388,-37"/>
<path fill="#ffffff" stroke="#ffffff" stroke-width="2" d="M358,-37C352,-37 346,-31 346,-25"/>
<path fill="#ffffff" stroke="#ffffff" stroke-width="2" d="M346,-13C346,-7 352,-1 358,-1"/>
<polyline fill="none" stroke="#2e3436" stroke-width="2" points="358,-1 388,-1 "/>
<path fill="none" stroke="#2e3436" stroke-width="2" d="M388,-1C394,-1 400,-7 400,-13"/>
<polyline fill="none" stroke="#2e3436" stroke-width="2" points="400,-13 400,-25 "/>
<path fill="none" stroke="#2e3436" stroke-width="2" d="M400,-25C400,-31 394,-37 388,-37"/>
<polyline fill="none" stroke="#2e3436" stroke-width="2" points="388,-37 358,-37 "/>
<path fill="none" stroke="#2e3436" stroke-width="2" d="M358,-37C352,-37 346,-31 346,-25"/>
<polyline fill="none" stroke="#2e3436" stroke-width="2" points="346,-25 346,-13 "/>
<path fill="none" stroke="#2e3436" stroke-width="2" d="M346,-13C346,-7 352,-1 358,-1"/>
<text text-anchor="middle" x="373" y="-16.8" font-family="FreeSans" font-size="8.00" fill="#1c2021">Event3</text>
</g>
<!-- Y11M01D03&#45;&gt;E3 -->
<g id="edge34" class="edge"><title>Y11M01D03&#45;&gt;E3</title>
<path fill="none" stroke="red" stroke-width="3" d="M373,-84.7733C373,-73.1053 373,-57.7874 373,-44.8699"/>
<polygon fill="red" stroke="red" points="373,-37.1912 376.375,-44.6911 374,-40.9412 374,-44.6912 373,-44.6912 372,-44.6912 372,-40.9412 369.625,-44.6912 373,-37.1912 373,-37.1912"/>
<text text-anchor="middle" x="386.5" y="-58.8" font-family="FreeSans" font-size="8.00" fill="#1c2021">VALUE</text>
</g>
</g>
</svg>
