<?xml version="1.0" encoding="UTF-8" standalone="no"?>
<!DOCTYPE svg PUBLIC "-//W3C//DTD SVG 1.1//EN"
 "http://www.w3.org/Graphics/SVG/1.1/DTD/svg11.dtd">
<!-- Generated by graphviz version 2.26.3 (20100126.1600)
 -->
<!-- Title: g Pages: 1 -->
<svg width="383pt" height="382pt"
 viewBox="0.00 0.00 383.00 382.00" xmlns="http://www.w3.org/2000/svg" xmlns:xlink="http://www.w3.org/1999/xlink">
<g id="graph1" class="graph" transform="scale(1 1) rotate(0) translate(4 378)">
<title>g</title>
<polygon fill="white" stroke="white" points="-4,5 -4,-378 380,-378 380,5 -4,5"/>
<!-- N1 -->
<g id="node1" class="node"><title>N1</title>
<polygon fill="#ffffff" stroke="#ffffff" stroke-width="1.5" points="36,-253 92,-253 104,-265 104,-277 92,-289 36,-289 24,-277 24,-265 36,-253"/>
<path fill="#ffffff" stroke="#ffffff" stroke-width="1.5" d="M92,-253C98,-253 104,-259 104,-265"/>
<path fill="#ffffff" stroke="#ffffff" stroke-width="1.5" d="M104,-277C104,-283 98,-289 92,-289"/>
<path fill="#ffffff" stroke="#ffffff" stroke-width="1.5" d="M36,-289C30,-289 24,-283 24,-277"/>
<path fill="#ffffff" stroke="#ffffff" stroke-width="1.5" d="M24,-265C24,-259 30,-253 36,-253"/>
<polyline fill="none" stroke="#2e3436" stroke-width="1.5" points="36,-253 92,-253 "/>
<path fill="none" stroke="#2e3436" stroke-width="1.5" d="M92,-253C98,-253 104,-259 104,-265"/>
<polyline fill="none" stroke="#2e3436" stroke-width="1.5" points="104,-265 104,-277 "/>
<path fill="none" stroke="#2e3436" stroke-width="1.5" d="M104,-277C104,-283 98,-289 92,-289"/>
<polyline fill="none" stroke="#2e3436" stroke-width="1.5" points="92,-289 36,-289 "/>
<path fill="none" stroke="#2e3436" stroke-width="1.5" d="M36,-289C30,-289 24,-283 24,-277"/>
<polyline fill="none" stroke="#2e3436" stroke-width="1.5" points="24,-277 24,-265 "/>
<path fill="none" stroke="#2e3436" stroke-width="1.5" d="M24,-265C24,-259 30,-253 36,-253"/>
<text text-anchor="start" x="32" y="-268.8" font-family="FreeSans" font-size="8.00" fill="#1c2021">name = &#39;U1G2R1&#39;</text>
</g>
<!-- N5 -->
<g id="node3" class="node"><title>N5</title>
<polygon fill="#ffffff" stroke="#ffffff" stroke-width="1.5" points="12,-85 58,-85 70,-97 70,-109 58,-121 12,-121 0,-109 0,-97 12,-85"/>
<path fill="#ffffff" stroke="#ffffff" stroke-width="1.5" d="M58,-85C64,-85 70,-91 70,-97"/>
<path fill="#ffffff" stroke="#ffffff" stroke-width="1.5" d="M70,-109C70,-115 64,-121 58,-121"/>
<path fill="#ffffff" stroke="#ffffff" stroke-width="1.5" d="M12,-121C6,-121 0,-115 0,-109"/>
<path fill="#ffffff" stroke="#ffffff" stroke-width="1.5" d="M0,-97C0,-91 6,-85 12,-85"/>
<polyline fill="none" stroke="#2e3436" stroke-width="1.5" points="12,-85 58,-85 "/>
<path fill="none" stroke="#2e3436" stroke-width="1.5" d="M58,-85C64,-85 70,-91 70,-97"/>
<polyline fill="none" stroke="#2e3436" stroke-width="1.5" points="70,-97 70,-109 "/>
<path fill="none" stroke="#2e3436" stroke-width="1.5" d="M70,-109C70,-115 64,-121 58,-121"/>
<polyline fill="none" stroke="#2e3436" stroke-width="1.5" points="58,-121 12,-121 "/>
<path fill="none" stroke="#2e3436" stroke-width="1.5" d="M12,-121C6,-121 0,-115 0,-109"/>
<polyline fill="none" stroke="#2e3436" stroke-width="1.5" points="0,-109 0,-97 "/>
<path fill="none" stroke="#2e3436" stroke-width="1.5" d="M0,-97C0,-91 6,-85 12,-85"/>
<text text-anchor="start" x="8" y="-100.8" font-family="FreeSans" font-size="8.00" fill="#1c2021">name = &#39;Role1&#39;</text>
</g>
<!-- N1&#45;&gt;N5 -->
<g id="edge2" class="edge"><title>N1&#45;&gt;N5</title>
<path fill="none" stroke="#2e3436" stroke-width="2" d="M42.1299,-252.996C29.5196,-241.137 14.8448,-224.432 8,-206 -2.2306,-178.451 1.94995,-167.615 12,-140 13.5245,-135.811 15.5661,-131.59 17.806,-127.573"/>
<polygon fill="#2e3436" stroke="#2e3436" points="21.7063,-121.048 20.755,-129.217 20.2113,-124.524 18.2873,-127.742 17.8581,-127.486 17.4289,-127.229 19.353,-124.01 14.9612,-125.754 21.7063,-121.048 21.7063,-121.048"/>
<text text-anchor="middle" x="23" y="-184.8" font-family="FreeSans" font-size="8.00" fill="#2e3436">hasRole</text>
</g>
<!-- N4 -->
<g id="node5" class="node"><title>N4</title>
<polygon fill="#ffffff" stroke="#ffffff" stroke-width="1.5" points="64,-169 116,-169 128,-181 128,-193 116,-205 64,-205 52,-193 52,-181 64,-169"/>
<path fill="#ffffff" stroke="#ffffff" stroke-width="1.5" d="M116,-169C122,-169 128,-175 128,-181"/>
<path fill="#ffffff" stroke="#ffffff" stroke-width="1.5" d="M128,-193C128,-199 122,-205 116,-205"/>
<path fill="#ffffff" stroke="#ffffff" stroke-width="1.5" d="M64,-205C58,-205 52,-199 52,-193"/>
<path fill="#ffffff" stroke="#ffffff" stroke-width="1.5" d="M52,-181C52,-175 58,-169 64,-169"/>
<polyline fill="none" stroke="#2e3436" stroke-width="1.5" points="64,-169 116,-169 "/>
<path fill="none" stroke="#2e3436" stroke-width="1.5" d="M116,-169C122,-169 128,-175 128,-181"/>
<polyline fill="none" stroke="#2e3436" stroke-width="1.5" points="128,-181 128,-193 "/>
<path fill="none" stroke="#2e3436" stroke-width="1.5" d="M128,-193C128,-199 122,-205 116,-205"/>
<polyline fill="none" stroke="#2e3436" stroke-width="1.5" points="116,-205 64,-205 "/>
<path fill="none" stroke="#2e3436" stroke-width="1.5" d="M64,-205C58,-205 52,-199 52,-193"/>
<polyline fill="none" stroke="#2e3436" stroke-width="1.5" points="52,-193 52,-181 "/>
<path fill="none" stroke="#2e3436" stroke-width="1.5" d="M52,-181C52,-175 58,-169 64,-169"/>
<text text-anchor="start" x="60" y="-184.8" font-family="FreeSans" font-size="8.00" fill="#1c2021">name = &#39;Group2&#39;</text>
</g>
<!-- N1&#45;&gt;N4 -->
<g id="edge4" class="edge"><title>N1&#45;&gt;N4</title>
<path fill="none" stroke="#4e9a06" stroke-width="2" d="M69.6416,-252.773C73.2872,-240.995 78.0839,-225.498 82.1056,-212.505"/>
<polygon fill="#4e9a06" stroke="#4e9a06" points="84.3694,-205.191 85.3758,-213.354 83.7382,-208.921 82.6293,-212.504 82.1517,-212.356 81.6741,-212.208 82.7829,-208.626 78.9276,-211.358 84.3694,-205.191 84.3694,-205.191"/>
<text text-anchor="middle" x="95" y="-226.8" font-family="FreeSans" font-size="8.00" fill="#4e9a06">hasGroup</text>
</g>
<!-- N6 -->
<g id="node8" class="node"><title>N6</title>
<polygon fill="#ffffff" stroke="#ffffff" stroke-width="1.5" points="175.5,-1 216.5,-1 228.5,-13 228.5,-25 216.5,-37 175.5,-37 163.5,-25 163.5,-13 175.5,-1"/>
<path fill="#ffffff" stroke="#ffffff" stroke-width="1.5" d="M216.5,-1C222.5,-1 228.5,-7 228.5,-13"/>
<path fill="#ffffff" stroke="#ffffff" stroke-width="1.5" d="M228.5,-25C228.5,-31 222.5,-37 216.5,-37"/>
<path fill="#ffffff" stroke="#ffffff" stroke-width="1.5" d="M175.5,-37C169.5,-37 163.5,-31 163.5,-25"/>
<path fill="#ffffff" stroke="#ffffff" stroke-width="1.5" d="M163.5,-13C163.5,-7 169.5,-1 175.5,-1"/>
<polyline fill="none" stroke="#2e3436" stroke-width="1.5" points="175.5,-1 216.5,-1 "/>
<path fill="none" stroke="#2e3436" stroke-width="1.5" d="M216.5,-1C222.5,-1 228.5,-7 228.5,-13"/>
<polyline fill="none" stroke="#2e3436" stroke-width="1.5" points="228.5,-13 228.5,-25 "/>
<path fill="none" stroke="#2e3436" stroke-width="1.5" d="M228.5,-25C228.5,-31 222.5,-37 216.5,-37"/>
<polyline fill="none" stroke="#2e3436" stroke-width="1.5" points="216.5,-37 175.5,-37 "/>
<path fill="none" stroke="#2e3436" stroke-width="1.5" d="M175.5,-37C169.5,-37 163.5,-31 163.5,-25"/>
<polyline fill="none" stroke="#2e3436" stroke-width="1.5" points="163.5,-25 163.5,-13 "/>
<path fill="none" stroke="#2e3436" stroke-width="1.5" d="M163.5,-13C163.5,-7 169.5,-1 175.5,-1"/>
<text text-anchor="start" x="171.5" y="-16.8" font-family="FreeSans" font-size="8.00" fill="#1c2021">name = &#39;Role&#39;</text>
</g>
<!-- N5&#45;&gt;N6 -->
<g id="edge20" class="edge"><title>N5&#45;&gt;N6</title>
<path fill="none" stroke="#a40000" stroke-width="2" d="M69.5385,-84.9799C95.0685,-71.6599 129.874,-53.5007 156.508,-39.6047"/>
<polygon fill="#a40000" stroke="#a40000" points="163.44,-35.988 158.351,-42.4495 160.346,-38.1659 157.022,-39.9006 156.79,-39.4573 156.559,-39.014 159.884,-37.2793 155.229,-36.4651 163.44,-35.988 163.44,-35.988"/>
<text text-anchor="middle" x="125.5" y="-58.8" font-family="FreeSans" font-size="8.00" fill="#a40000">isA</text>
</g>
<!-- N4&#45;&gt;N5 -->
<g id="edge16" class="edge"><title>N4&#45;&gt;N5</title>
<path fill="none" stroke="#204a87" stroke-width="2" d="M51.7734,-175.349C39.7952,-169.696 27.9105,-161.547 21,-150 17.065,-143.425 17.6272,-135.664 20.0108,-128.364"/>
<polygon fill="#204a87" stroke="#204a87" points="22.9024,-121.278 23.1934,-129.497 21.9484,-124.939 20.5315,-128.411 20.0686,-128.222 19.6056,-128.033 21.0225,-124.561 16.9437,-126.946 22.9024,-121.278 22.9024,-121.278"/>
<text text-anchor="middle" x="37.5" y="-142.8" font-family="FreeSans" font-size="8.00" fill="#204a87">canHave</text>
</g>
<!-- N2 -->
<g id="node6" class="node"><title>N2</title>
<polygon fill="#ffffff" stroke="#ffffff" stroke-width="1.5" points="279,-85 325,-85 337,-97 337,-109 325,-121 279,-121 267,-109 267,-97 279,-85"/>
<path fill="#ffffff" stroke="#ffffff" stroke-width="1.5" d="M325,-85C331,-85 337,-91 337,-97"/>
<path fill="#ffffff" stroke="#ffffff" stroke-width="1.5" d="M337,-109C337,-115 331,-121 325,-121"/>
<path fill="#ffffff" stroke="#ffffff" stroke-width="1.5" d="M279,-121C273,-121 267,-115 267,-109"/>
<path fill="#ffffff" stroke="#ffffff" stroke-width="1.5" d="M267,-97C267,-91 273,-85 279,-85"/>
<polyline fill="none" stroke="#2e3436" stroke-width="1.5" points="279,-85 325,-85 "/>
<path fill="none" stroke="#2e3436" stroke-width="1.5" d="M325,-85C331,-85 337,-91 337,-97"/>
<polyline fill="none" stroke="#2e3436" stroke-width="1.5" points="337,-97 337,-109 "/>
<path fill="none" stroke="#2e3436" stroke-width="1.5" d="M337,-109C337,-115 331,-121 325,-121"/>
<polyline fill="none" stroke="#2e3436" stroke-width="1.5" points="325,-121 279,-121 "/>
<path fill="none" stroke="#2e3436" stroke-width="1.5" d="M279,-121C273,-121 267,-115 267,-109"/>
<polyline fill="none" stroke="#2e3436" stroke-width="1.5" points="267,-109 267,-97 "/>
<path fill="none" stroke="#2e3436" stroke-width="1.5" d="M267,-97C267,-91 273,-85 279,-85"/>
<text text-anchor="start" x="275" y="-100.8" font-family="FreeSans" font-size="8.00" fill="#1c2021">name = &#39;Role2&#39;</text>
</g>
<!-- N4&#45;&gt;N2 -->
<g id="edge14" class="edge"><title>N4&#45;&gt;N2</title>
<path fill="none" stroke="#204a87" stroke-width="2" d="M128.446,-169.047C148.429,-159.948 173.349,-148.958 196,-140 216.733,-131.801 240.102,-123.542 259.61,-116.913"/>
<polygon fill="#204a87" stroke="#204a87" points="266.885,-114.456 260.859,-120.054 263.492,-116.13 259.939,-117.33 259.779,-116.856 259.619,-116.382 263.172,-115.182 258.699,-113.659 266.885,-114.456 266.885,-114.456"/>
<text text-anchor="middle" x="212.5" y="-142.8" font-family="FreeSans" font-size="8.00" fill="#204a87">canHave</text>
</g>
<!-- N9 -->
<g id="node13" class="node"><title>N9</title>
<polygon fill="#ffffff" stroke="#ffffff" stroke-width="1.5" points="156.5,-85 203.5,-85 215.5,-97 215.5,-109 203.5,-121 156.5,-121 144.5,-109 144.5,-97 156.5,-85"/>
<path fill="#ffffff" stroke="#ffffff" stroke-width="1.5" d="M203.5,-85C209.5,-85 215.5,-91 215.5,-97"/>
<path fill="#ffffff" stroke="#ffffff" stroke-width="1.5" d="M215.5,-109C215.5,-115 209.5,-121 203.5,-121"/>
<path fill="#ffffff" stroke="#ffffff" stroke-width="1.5" d="M156.5,-121C150.5,-121 144.5,-115 144.5,-109"/>
<path fill="#ffffff" stroke="#ffffff" stroke-width="1.5" d="M144.5,-97C144.5,-91 150.5,-85 156.5,-85"/>
<polyline fill="none" stroke="#2e3436" stroke-width="1.5" points="156.5,-85 203.5,-85 "/>
<path fill="none" stroke="#2e3436" stroke-width="1.5" d="M203.5,-85C209.5,-85 215.5,-91 215.5,-97"/>
<polyline fill="none" stroke="#2e3436" stroke-width="1.5" points="215.5,-97 215.5,-109 "/>
<path fill="none" stroke="#2e3436" stroke-width="1.5" d="M215.5,-109C215.5,-115 209.5,-121 203.5,-121"/>
<polyline fill="none" stroke="#2e3436" stroke-width="1.5" points="203.5,-121 156.5,-121 "/>
<path fill="none" stroke="#2e3436" stroke-width="1.5" d="M156.5,-121C150.5,-121 144.5,-115 144.5,-109"/>
<polyline fill="none" stroke="#2e3436" stroke-width="1.5" points="144.5,-109 144.5,-97 "/>
<path fill="none" stroke="#2e3436" stroke-width="1.5" d="M144.5,-97C144.5,-91 150.5,-85 156.5,-85"/>
<text text-anchor="start" x="152.5" y="-100.8" font-family="FreeSans" font-size="8.00" fill="#1c2021">name = &#39;Group&#39;</text>
</g>
<!-- N4&#45;&gt;N9 -->
<g id="edge18" class="edge"><title>N4&#45;&gt;N9</title>
<path fill="none" stroke="#a40000" stroke-width="2" d="M84.8957,-168.639C83.4077,-159.322 83.4412,-148.261 89,-140 99.7471,-124.029 118.708,-114.949 136.551,-109.787"/>
<polygon fill="#a40000" stroke="#a40000" points="144.102,-107.807 137.703,-112.974 140.601,-109.242 136.974,-110.193 136.847,-109.71 136.72,-109.226 140.347,-108.275 135.991,-106.445 144.102,-107.807 144.102,-107.807"/>
<text text-anchor="middle" x="94.5" y="-142.8" font-family="FreeSans" font-size="8.00" fill="#a40000">isA</text>
</g>
<!-- N2&#45;&gt;N6 -->
<g id="edge6" class="edge"><title>N2&#45;&gt;N6</title>
<path fill="none" stroke="#a40000" stroke-width="2" d="M279.26,-84.9799C263.44,-72.4431 242.21,-55.6194 225.148,-42.0982"/>
<polygon fill="#a40000" stroke="#a40000" points="219.068,-37.2801 227.042,-39.2931 222.317,-39.2173 225.256,-41.5464 224.946,-41.9383 224.635,-42.3302 221.696,-40.0011 222.85,-44.5834 219.068,-37.2801 219.068,-37.2801"/>
<text text-anchor="middle" x="257.5" y="-58.8" font-family="FreeSans" font-size="8.00" fill="#a40000">isA</text>
</g>
<!-- N3 -->
<g id="node9" class="node"><title>N3</title>
<polygon fill="#ffffff" stroke="#ffffff" stroke-width="1.5" points="243,-169 295,-169 307,-181 307,-193 295,-205 243,-205 231,-193 231,-181 243,-169"/>
<path fill="#ffffff" stroke="#ffffff" stroke-width="1.5" d="M295,-169C301,-169 307,-175 307,-181"/>
<path fill="#ffffff" stroke="#ffffff" stroke-width="1.5" d="M307,-193C307,-199 301,-205 295,-205"/>
<path fill="#ffffff" stroke="#ffffff" stroke-width="1.5" d="M243,-205C237,-205 231,-199 231,-193"/>
<path fill="#ffffff" stroke="#ffffff" stroke-width="1.5" d="M231,-181C231,-175 237,-169 243,-169"/>
<polyline fill="none" stroke="#2e3436" stroke-width="1.5" points="243,-169 295,-169 "/>
<path fill="none" stroke="#2e3436" stroke-width="1.5" d="M295,-169C301,-169 307,-175 307,-181"/>
<polyline fill="none" stroke="#2e3436" stroke-width="1.5" points="307,-181 307,-193 "/>
<path fill="none" stroke="#2e3436" stroke-width="1.5" d="M307,-193C307,-199 301,-205 295,-205"/>
<polyline fill="none" stroke="#2e3436" stroke-width="1.5" points="295,-205 243,-205 "/>
<path fill="none" stroke="#2e3436" stroke-width="1.5" d="M243,-205C237,-205 231,-199 231,-193"/>
<polyline fill="none" stroke="#2e3436" stroke-width="1.5" points="231,-193 231,-181 "/>
<path fill="none" stroke="#2e3436" stroke-width="1.5" d="M231,-181C231,-175 237,-169 243,-169"/>
<text text-anchor="start" x="239" y="-184.8" font-family="FreeSans" font-size="8.00" fill="#1c2021">name = &#39;Group1&#39;</text>
</g>
<!-- N3&#45;&gt;N5 -->
<g id="edge8" class="edge"><title>N3&#45;&gt;N5</title>
<path fill="none" stroke="#204a87" stroke-width="2" d="M230.896,-178.737C203.068,-172.216 164.657,-162.199 132,-150 112.98,-142.895 92.6583,-133.37 75.5549,-124.753"/>
<polygon fill="#204a87" stroke="#204a87" points="68.435,-121.125 76.6498,-121.523 72.0033,-122.382 75.3445,-124.085 75.1175,-124.53 74.8905,-124.976 71.5493,-123.273 73.5852,-127.537 68.435,-121.125 68.435,-121.125"/>
<text text-anchor="middle" x="148.5" y="-142.8" font-family="FreeSans" font-size="8.00" fill="#204a87">canHave</text>
</g>
<!-- N3&#45;&gt;N2 -->
<g id="edge10" class="edge"><title>N3&#45;&gt;N2</title>
<path fill="none" stroke="#204a87" stroke-width="2" d="M276.161,-168.773C280.788,-156.995 286.876,-141.498 291.98,-128.505"/>
<polygon fill="#204a87" stroke="#204a87" points="294.853,-121.191 295.252,-129.406 293.948,-124.864 292.576,-128.355 292.111,-128.172 291.646,-127.989 293.017,-124.499 288.97,-126.938 294.853,-121.191 294.853,-121.191"/>
<text text-anchor="middle" x="302.5" y="-142.8" font-family="FreeSans" font-size="8.00" fill="#204a87">canHave</text>
</g>
<!-- N3&#45;&gt;N9 -->
<g id="edge12" class="edge"><title>N3&#45;&gt;N9</title>
<path fill="none" stroke="#a40000" stroke-width="2" d="M258.51,-168.818C252.625,-159.55 244.722,-148.478 236,-140 230.611,-134.761 224.382,-129.813 218.08,-125.343"/>
<polygon fill="#a40000" stroke="#a40000" points="211.781,-121.038 219.877,-122.483 215.159,-122.741 218.255,-124.857 217.973,-125.269 217.691,-125.682 214.594,-123.566 216.068,-128.056 211.781,-121.038 211.781,-121.038"/>
<text text-anchor="middle" x="249.5" y="-142.8" font-family="FreeSans" font-size="8.00" fill="#a40000">isA</text>
</g>
<!-- N7 -->
<g id="node18" class="node"><title>N7</title>
<polygon fill="#ffffff" stroke="#ffffff" stroke-width="1.5" points="170.5,-337 217.5,-337 229.5,-349 229.5,-361 217.5,-373 170.5,-373 158.5,-361 158.5,-349 170.5,-337"/>
<path fill="#ffffff" stroke="#ffffff" stroke-width="1.5" d="M217.5,-337C223.5,-337 229.5,-343 229.5,-349"/>
<path fill="#ffffff" stroke="#ffffff" stroke-width="1.5" d="M229.5,-361C229.5,-367 223.5,-373 217.5,-373"/>
<path fill="#ffffff" stroke="#ffffff" stroke-width="1.5" d="M170.5,-373C164.5,-373 158.5,-367 158.5,-361"/>
<path fill="#ffffff" stroke="#ffffff" stroke-width="1.5" d="M158.5,-349C158.5,-343 164.5,-337 170.5,-337"/>
<polyline fill="none" stroke="#2e3436" stroke-width="1.5" points="170.5,-337 217.5,-337 "/>
<path fill="none" stroke="#2e3436" stroke-width="1.5" d="M217.5,-337C223.5,-337 229.5,-343 229.5,-349"/>
<polyline fill="none" stroke="#2e3436" stroke-width="1.5" points="229.5,-349 229.5,-361 "/>
<path fill="none" stroke="#2e3436" stroke-width="1.5" d="M229.5,-361C229.5,-367 223.5,-373 217.5,-373"/>
<polyline fill="none" stroke="#2e3436" stroke-width="1.5" points="217.5,-373 170.5,-373 "/>
<path fill="none" stroke="#2e3436" stroke-width="1.5" d="M170.5,-373C164.5,-373 158.5,-367 158.5,-361"/>
<polyline fill="none" stroke="#2e3436" stroke-width="1.5" points="158.5,-361 158.5,-349 "/>
<path fill="none" stroke="#2e3436" stroke-width="1.5" d="M158.5,-349C158.5,-343 164.5,-337 170.5,-337"/>
<text text-anchor="start" x="166.5" y="-352.8" font-family="FreeSans" font-size="8.00" fill="#1c2021">name = &#39;User1&#39;</text>
</g>
<!-- N7&#45;&gt;N1 -->
<g id="edge26" class="edge"><title>N7&#45;&gt;N1</title>
<path fill="none" stroke="#5c3566" stroke-width="2" d="M158.464,-351.532C133.824,-347.365 101.82,-338.192 81,-318 75.1137,-312.291 71.2567,-304.393 68.7328,-296.699"/>
<polygon fill="#5c3566" stroke="#5c3566" points="66.6275,-289.162 71.8959,-295.478 68.118,-292.639 69.1269,-296.251 68.6453,-296.386 68.1638,-296.52 67.1549,-292.909 65.3948,-297.294 66.6275,-289.162 66.6275,-289.162"/>
<text text-anchor="middle" x="110.5" y="-310.8" font-family="FreeSans" font-size="8.00" fill="#5c3566">hasRoleInGroup</text>
</g>
<!-- N7&#45;&gt;N4 -->
<g id="edge24" class="edge"><title>N7&#45;&gt;N4</title>
<path fill="none" stroke="#8f5902" stroke-width="2" d="M184.865,-336.631C171.721,-310.753 146.167,-262.433 120,-224 117.123,-219.775 113.887,-215.433 110.632,-211.277"/>
<polygon fill="#8f5902" stroke="#8f5902" points="105.89,-205.356 113.212,-209.1 108.624,-207.97 110.968,-210.897 110.578,-211.21 110.188,-211.522 107.844,-208.595 107.944,-213.32 105.89,-205.356 105.89,-205.356"/>
<text text-anchor="middle" x="162.5" y="-268.8" font-family="FreeSans" font-size="8.00" fill="#8f5902">in</text>
</g>
<!-- N7&#45;&gt;N3 -->
<g id="edge22" class="edge"><title>N7&#45;&gt;N3</title>
<path fill="none" stroke="#8f5902" stroke-width="2" d="M202.169,-336.701C215.673,-306.452 242.67,-245.98 257.894,-211.878"/>
<polygon fill="#8f5902" stroke="#8f5902" points="260.955,-205.022 260.979,-213.246 259.882,-208.65 258.354,-212.074 257.897,-211.87 257.44,-211.667 258.969,-208.242 254.815,-210.495 260.955,-205.022 260.955,-205.022"/>
<text text-anchor="middle" x="241.5" y="-268.8" font-family="FreeSans" font-size="8.00" fill="#8f5902">in</text>
</g>
<!-- N8 -->
<g id="node23" class="node"><title>N8</title>
<polygon fill="#ffffff" stroke="#ffffff" stroke-width="1.5" points="275,-253 331,-253 343,-265 343,-277 331,-289 275,-289 263,-277 263,-265 275,-253"/>
<path fill="#ffffff" stroke="#ffffff" stroke-width="1.5" d="M331,-253C337,-253 343,-259 343,-265"/>
<path fill="#ffffff" stroke="#ffffff" stroke-width="1.5" d="M343,-277C343,-283 337,-289 331,-289"/>
<path fill="#ffffff" stroke="#ffffff" stroke-width="1.5" d="M275,-289C269,-289 263,-283 263,-277"/>
<path fill="#ffffff" stroke="#ffffff" stroke-width="1.5" d="M263,-265C263,-259 269,-253 275,-253"/>
<polyline fill="none" stroke="#2e3436" stroke-width="1.5" points="275,-253 331,-253 "/>
<path fill="none" stroke="#2e3436" stroke-width="1.5" d="M331,-253C337,-253 343,-259 343,-265"/>
<polyline fill="none" stroke="#2e3436" stroke-width="1.5" points="343,-265 343,-277 "/>
<path fill="none" stroke="#2e3436" stroke-width="1.5" d="M343,-277C343,-283 337,-289 331,-289"/>
<polyline fill="none" stroke="#2e3436" stroke-width="1.5" points="331,-289 275,-289 "/>
<path fill="none" stroke="#2e3436" stroke-width="1.5" d="M275,-289C269,-289 263,-283 263,-277"/>
<polyline fill="none" stroke="#2e3436" stroke-width="1.5" points="263,-277 263,-265 "/>
<path fill="none" stroke="#2e3436" stroke-width="1.5" d="M263,-265C263,-259 269,-253 275,-253"/>
<text text-anchor="start" x="271" y="-268.8" font-family="FreeSans" font-size="8.00" fill="#1c2021">name = &#39;U1G1R2&#39;</text>
</g>
<!-- N7&#45;&gt;N8 -->
<g id="edge28" class="edge"><title>N7&#45;&gt;N8</title>
<path fill="none" stroke="#5c3566" stroke-width="2" d="M222.452,-336.833C231.132,-331.033 240.598,-324.443 249,-318 258.709,-310.555 268.935,-301.886 277.846,-294.036"/>
<polygon fill="#5c3566" stroke="#5c3566" points="283.493,-289.016 280.129,-296.521 281.022,-291.881 278.219,-294.373 277.887,-293.999 277.555,-293.625 280.358,-291.134 275.645,-291.476 283.493,-289.016 283.493,-289.016"/>
<text text-anchor="middle" x="290.5" y="-310.8" font-family="FreeSans" font-size="8.00" fill="#5c3566">hasRoleInGroup</text>
</g>
<!-- N8&#45;&gt;N2 -->
<g id="edge30" class="edge"><title>N8&#45;&gt;N2</title>
<path fill="none" stroke="#2e3436" stroke-width="2" d="M319.819,-252.706C323.962,-247.104 327.831,-240.653 330,-234 336.304,-214.667 373.467,-287.42 326,-140 324.647,-135.798 322.686,-131.612 320.46,-127.648"/>
<polygon fill="#2e3436" stroke="#2e3436" points="316.523,-121.222 323.319,-125.854 318.908,-124.159 320.867,-127.356 320.441,-127.617 320.015,-127.879 318.056,-124.681 317.563,-129.381 316.523,-121.222 316.523,-121.222"/>
<text text-anchor="middle" x="360" y="-184.8" font-family="FreeSans" font-size="8.00" fill="#2e3436">hasRole</text>
</g>
<!-- N8&#45;&gt;N3 -->
<g id="edge32" class="edge"><title>N8&#45;&gt;N3</title>
<path fill="none" stroke="#4e9a06" stroke-width="2" d="M295.623,-252.773C290.855,-240.995 284.583,-225.498 279.323,-212.505"/>
<polygon fill="#4e9a06" stroke="#4e9a06" points="276.363,-205.191 282.306,-210.877 278.234,-208.48 279.641,-211.956 279.177,-212.143 278.714,-212.331 277.307,-208.855 276.049,-213.41 276.363,-205.191 276.363,-205.191"/>
<text text-anchor="middle" x="305" y="-226.8" font-family="FreeSans" font-size="8.00" fill="#4e9a06">hasGroup</text>
</g>
</g>
</svg>
