<?xml version="1.0" encoding="UTF-8" standalone="no"?>
<!DOCTYPE svg PUBLIC "-//W3C//DTD SVG 1.1//EN"
 "http://www.w3.org/Graphics/SVG/1.1/DTD/svg11.dtd">
<!-- Generated by graphviz version 2.26.3 (20100126.1600)
 -->
<!-- Title: g Pages: 1 -->
<svg width="77pt" height="150pt"
 viewBox="0.00 0.00 77.31 150.00" xmlns="http://www.w3.org/2000/svg" xmlns:xlink="http://www.w3.org/1999/xlink">
<g id="graph1" class="graph" transform="scale(1 1) rotate(0) translate(4 146)">
<title>g</title>
<polygon fill="white" stroke="white" points="-4,5 -4,-146 74.3063,-146 74.3063,5 -4,5"/>
<!-- N1 -->
<g id="node1" class="node"><title>N1</title>
<polygon fill="#ffffff" stroke="#ffffff" stroke-width="1.5" points="13.8063,-85 56.8063,-85 68.8063,-97 68.8063,-129 56.8063,-141 13.8063,-141 1.80633,-129 1.80633,-97 13.8063,-85"/>
<path fill="#ffffff" stroke="#ffffff" stroke-width="1.5" d="M56.8063,-85C62.8063,-85 68.8063,-91 68.8063,-97"/>
<path fill="#ffffff" stroke="#ffffff" stroke-width="1.5" d="M68.8063,-129C68.8063,-135 62.8063,-141 56.8063,-141"/>
<path fill="#ffffff" stroke="#ffffff" stroke-width="1.5" d="M13.8063,-141C7.80633,-141 1.80633,-135 1.80633,-129"/>
<path fill="#ffffff" stroke="#ffffff" stroke-width="1.5" d="M1.80633,-97C1.80633,-91 7.80633,-85 13.8063,-85"/>
<polyline fill="none" stroke="#2e3436" stroke-width="1.5" points="13.8063,-85 56.8063,-85 "/>
<path fill="none" stroke="#2e3436" stroke-width="1.5" d="M56.8063,-85C62.8063,-85 68.8063,-91 68.8063,-97"/>
<polyline fill="none" stroke="#2e3436" stroke-width="1.5" points="68.8063,-97 68.8063,-129 "/>
<path fill="none" stroke="#2e3436" stroke-width="1.5" d="M68.8063,-129C68.8063,-135 62.8063,-141 56.8063,-141"/>
<polyline fill="none" stroke="#2e3436" stroke-width="1.5" points="56.8063,-141 13.8063,-141 "/>
<path fill="none" stroke="#2e3436" stroke-width="1.5" d="M13.8063,-141C7.80633,-141 1.80633,-135 1.80633,-129"/>
<polyline fill="none" stroke="#2e3436" stroke-width="1.5" points="1.80633,-129 1.80633,-97 "/>
<path fill="none" stroke="#2e3436" stroke-width="1.5" d="M1.80633,-97C1.80633,-91 7.80633,-85 13.8063,-85"/>
<text text-anchor="middle" x="35.3063" y="-129.8" font-family="FreeSans" font-size="8.00" fill="#1c2021">Node[1]</text>
<polyline fill="none" stroke="#2e3436" stroke-width="1.5" points="1.80633,-123 68.8063,-123 "/>
<text text-anchor="start" x="9.80633" y="-111.8" font-family="FreeSans" font-size="8.00" fill="#1c2021">happy = &#39;Yes!&#39;</text>
<text text-anchor="start" x="9.80633" y="-101.8" font-family="FreeSans" font-size="8.00" fill="#1c2021">age = 55</text>
<text text-anchor="start" x="9.80633" y="-91.8" font-family="FreeSans" font-size="8.00" fill="#1c2021">name = &#39;A&#39;</text>
</g>
<!-- N2 -->
<g id="node3" class="node"><title>N2</title>
<polygon fill="#ffffff" stroke="#ffffff" stroke-width="1.5" points="20.3063,-1 50.3063,-1 62.3063,-13 62.3063,-25 50.3063,-37 20.3063,-37 8.30633,-25 8.30633,-13 20.3063,-1"/>
<path fill="#ffffff" stroke="#ffffff" stroke-width="1.5" d="M50.3063,-1C56.3063,-1 62.3063,-7 62.3063,-13"/>
<path fill="#ffffff" stroke="#ffffff" stroke-width="1.5" d="M62.3063,-25C62.3063,-31 56.3063,-37 50.3063,-37"/>
<path fill="#ffffff" stroke="#ffffff" stroke-width="1.5" d="M20.3063,-37C14.3063,-37 8.30633,-31 8.30633,-25"/>
<path fill="#ffffff" stroke="#ffffff" stroke-width="1.5" d="M8.30633,-13C8.30633,-7 14.3063,-1 20.3063,-1"/>
<polyline fill="none" stroke="#2e3436" stroke-width="1.5" points="20.3063,-1 50.3063,-1 "/>
<path fill="none" stroke="#2e3436" stroke-width="1.5" d="M50.3063,-1C56.3063,-1 62.3063,-7 62.3063,-13"/>
<polyline fill="none" stroke="#2e3436" stroke-width="1.5" points="62.3063,-13 62.3063,-25 "/>
<path fill="none" stroke="#2e3436" stroke-width="1.5" d="M62.3063,-25C62.3063,-31 56.3063,-37 50.3063,-37"/>
<polyline fill="none" stroke="#2e3436" stroke-width="1.5" points="50.3063,-37 20.3063,-37 "/>
<path fill="none" stroke="#2e3436" stroke-width="1.5" d="M20.3063,-37C14.3063,-37 8.30633,-31 8.30633,-25"/>
<polyline fill="none" stroke="#2e3436" stroke-width="1.5" points="8.30633,-25 8.30633,-13 "/>
<path fill="none" stroke="#2e3436" stroke-width="1.5" d="M8.30633,-13C8.30633,-7 14.3063,-1 20.3063,-1"/>
<text text-anchor="middle" x="35.3063" y="-25.8" font-family="FreeSans" font-size="8.00" fill="#1c2021">Node[2]</text>
<polyline fill="none" stroke="#2e3436" stroke-width="1.5" points="8.30633,-19 62.3063,-19 "/>
<text text-anchor="start" x="16.3063" y="-7.8" font-family="FreeSans" font-size="8.00" fill="#1c2021">name = &#39;B&#39;</text>
</g>
<!-- N1&#45;&gt;N2 -->
<g id="edge2" class="edge"><title>N1&#45;&gt;N2</title>
<path fill="none" stroke="#2e3436" stroke-width="2" d="M10.8113,-84.9853C6.90354,-79.0727 3.44688,-72.611 1.30633,-66 -1.30633,-57.9308 1.47976,-50.0841 6.39522,-43.1868"/>
<polygon fill="#2e3436" stroke="#2e3436" points="11.4143,-37.1404 9.22085,-45.0669 9.40382,-40.3452 7.00866,-43.2306 6.62394,-42.9113 6.23921,-42.5919 8.63437,-39.7065 4.02703,-40.7556 11.4143,-37.1404 11.4143,-37.1404"/>
<text text-anchor="middle" x="16.8063" y="-58.8" font-family="FreeSans" font-size="8.00" fill="#2e3436">KNOWS</text>
</g>
<!-- N1&#45;&gt;N2 -->
<g id="edge4" class="edge"><title>N1&#45;&gt;N2</title>
<path fill="none" stroke="#4e9a06" stroke-width="2" d="M35.3063,-84.7969C35.3063,-72.1095 35.3063,-57.2342 35.3063,-44.8401"/>
<polygon fill="#4e9a06" stroke="#4e9a06" points="35.3063,-37.1015 38.6814,-44.6015 35.8064,-40.8515 35.8064,-44.6015 35.3064,-44.6015 34.8064,-44.6015 34.8064,-40.8515 31.9314,-44.6016 35.3063,-37.1015 35.3063,-37.1015"/>
<text text-anchor="middle" x="52.3063" y="-58.8" font-family="FreeSans" font-size="8.00" fill="#4e9a06">BLOCKS</text>
</g>
</g>
</svg>
