<?xml version="1.0" encoding="UTF-8" standalone="no"?>
<!DOCTYPE svg PUBLIC "-//W3C//DTD SVG 1.1//EN"
 "http://www.w3.org/Graphics/SVG/1.1/DTD/svg11.dtd">
<!-- Generated by graphviz version 2.26.3 (20100126.1600)
 -->
<!-- Title: g Pages: 1 -->
<svg width="262pt" height="160pt"
 viewBox="0.00 0.00 262.00 160.00" xmlns="http://www.w3.org/2000/svg" xmlns:xlink="http://www.w3.org/1999/xlink">
<g id="graph1" class="graph" transform="scale(1 1) rotate(0) translate(4 156)">
<title>g</title>
<polygon fill="white" stroke="white" points="-4,5 -4,-156 259,-156 259,5 -4,5"/>
<!-- N1 -->
<g id="node1" class="node"><title>N1</title>
<polygon fill="#ffffff" stroke="#ffffff" stroke-width="1.5" points="12,-6 56,-6 68,-18 68,-40 56,-52 12,-52 0,-40 0,-18 12,-6"/>
<path fill="#ffffff" stroke="#ffffff" stroke-width="1.5" d="M56,-6C62,-6 68,-12 68,-18"/>
<path fill="#ffffff" stroke="#ffffff" stroke-width="1.5" d="M68,-40C68,-46 62,-52 56,-52"/>
<path fill="#ffffff" stroke="#ffffff" stroke-width="1.5" d="M12,-52C6,-52 0,-46 0,-40"/>
<path fill="#ffffff" stroke="#ffffff" stroke-width="1.5" d="M0,-18C0,-12 6,-6 12,-6"/>
<polyline fill="none" stroke="#2e3436" stroke-width="1.5" points="12,-6 56,-6 "/>
<path fill="none" stroke="#2e3436" stroke-width="1.5" d="M56,-6C62,-6 68,-12 68,-18"/>
<polyline fill="none" stroke="#2e3436" stroke-width="1.5" points="68,-18 68,-40 "/>
<path fill="none" stroke="#2e3436" stroke-width="1.5" d="M68,-40C68,-46 62,-52 56,-52"/>
<polyline fill="none" stroke="#2e3436" stroke-width="1.5" points="56,-52 12,-52 "/>
<path fill="none" stroke="#2e3436" stroke-width="1.5" d="M12,-52C6,-52 0,-46 0,-40"/>
<polyline fill="none" stroke="#2e3436" stroke-width="1.5" points="0,-40 0,-18 "/>
<path fill="none" stroke="#2e3436" stroke-width="1.5" d="M0,-18C0,-12 6,-6 12,-6"/>
<text text-anchor="middle" x="34" y="-40.8" font-family="FreeSans" font-size="8.00" fill="#1c2021">Node[1]</text>
<polyline fill="none" stroke="#2e3436" stroke-width="1.5" points="0,-34 68,-34 "/>
<text text-anchor="start" x="8" y="-22.8" font-family="FreeSans" font-size="8.00" fill="#1c2021">name = &#39;D&#39;</text>
<text text-anchor="start" x="8" y="-12.8" font-family="FreeSans" font-size="8.00" fill="#1c2021">eyes = &#39;brown&#39;</text>
</g>
<!-- N2 -->
<g id="node2" class="node"><title>N2</title>
<polygon fill="#ffffff" stroke="#ffffff" stroke-width="1.5" points="108.5,-105 149.5,-105 161.5,-117 161.5,-139 149.5,-151 108.5,-151 96.5,-139 96.5,-117 108.5,-105"/>
<path fill="#ffffff" stroke="#ffffff" stroke-width="1.5" d="M149.5,-105C155.5,-105 161.5,-111 161.5,-117"/>
<path fill="#ffffff" stroke="#ffffff" stroke-width="1.5" d="M161.5,-139C161.5,-145 155.5,-151 149.5,-151"/>
<path fill="#ffffff" stroke="#ffffff" stroke-width="1.5" d="M108.5,-151C102.5,-151 96.5,-145 96.5,-139"/>
<path fill="#ffffff" stroke="#ffffff" stroke-width="1.5" d="M96.5,-117C96.5,-111 102.5,-105 108.5,-105"/>
<polyline fill="none" stroke="#2e3436" stroke-width="1.5" points="108.5,-105 149.5,-105 "/>
<path fill="none" stroke="#2e3436" stroke-width="1.5" d="M149.5,-105C155.5,-105 161.5,-111 161.5,-117"/>
<polyline fill="none" stroke="#2e3436" stroke-width="1.5" points="161.5,-117 161.5,-139 "/>
<path fill="none" stroke="#2e3436" stroke-width="1.5" d="M161.5,-139C161.5,-145 155.5,-151 149.5,-151"/>
<polyline fill="none" stroke="#2e3436" stroke-width="1.5" points="149.5,-151 108.5,-151 "/>
<path fill="none" stroke="#2e3436" stroke-width="1.5" d="M108.5,-151C102.5,-151 96.5,-145 96.5,-139"/>
<polyline fill="none" stroke="#2e3436" stroke-width="1.5" points="96.5,-139 96.5,-117 "/>
<path fill="none" stroke="#2e3436" stroke-width="1.5" d="M96.5,-117C96.5,-111 102.5,-105 108.5,-105"/>
<text text-anchor="middle" x="129" y="-139.8" font-family="FreeSans" font-size="8.00" fill="#1c2021">Node[2]</text>
<polyline fill="none" stroke="#2e3436" stroke-width="1.5" points="96.5,-133 161.5,-133 "/>
<text text-anchor="start" x="104.5" y="-121.8" font-family="FreeSans" font-size="8.00" fill="#1c2021">name = &#39;A&#39;</text>
<text text-anchor="start" x="104.5" y="-111.8" font-family="FreeSans" font-size="8.00" fill="#1c2021">property = 13</text>
</g>
<!-- N2&#45;&gt;N1 -->
<g id="edge6" class="edge"><title>N2&#45;&gt;N1</title>
<path fill="none" stroke="#2e3436" stroke-width="2" d="M106.727,-104.789C93.2673,-90.7627 76.001,-72.7694 61.6699,-57.8349"/>
<polygon fill="#2e3436" stroke="#2e3436" points="56.1337,-52.0657 63.7618,-55.1404 59.0909,-54.4252 61.6874,-57.131 61.3266,-57.4772 60.9658,-57.8234 58.3694,-55.1176 58.8914,-59.814 56.1337,-52.0657 56.1337,-52.0657"/>
<text text-anchor="middle" x="103.5" y="-78.8" font-family="FreeSans" font-size="8.00" fill="#2e3436">KNOWS</text>
</g>
<!-- N3 -->
<g id="node4" class="node"><title>N3</title>
<polygon fill="#ffffff" stroke="#ffffff" stroke-width="1.5" points="108.5,-1 149.5,-1 161.5,-13 161.5,-45 149.5,-57 108.5,-57 96.5,-45 96.5,-13 108.5,-1"/>
<path fill="#ffffff" stroke="#ffffff" stroke-width="1.5" d="M149.5,-1C155.5,-1 161.5,-7 161.5,-13"/>
<path fill="#ffffff" stroke="#ffffff" stroke-width="1.5" d="M161.5,-45C161.5,-51 155.5,-57 149.5,-57"/>
<path fill="#ffffff" stroke="#ffffff" stroke-width="1.5" d="M108.5,-57C102.5,-57 96.5,-51 96.5,-45"/>
<path fill="#ffffff" stroke="#ffffff" stroke-width="1.5" d="M96.5,-13C96.5,-7 102.5,-1 108.5,-1"/>
<polyline fill="none" stroke="#2e3436" stroke-width="1.5" points="108.5,-1 149.5,-1 "/>
<path fill="none" stroke="#2e3436" stroke-width="1.5" d="M149.5,-1C155.5,-1 161.5,-7 161.5,-13"/>
<polyline fill="none" stroke="#2e3436" stroke-width="1.5" points="161.5,-13 161.5,-45 "/>
<path fill="none" stroke="#2e3436" stroke-width="1.5" d="M161.5,-45C161.5,-51 155.5,-57 149.5,-57"/>
<polyline fill="none" stroke="#2e3436" stroke-width="1.5" points="149.5,-57 108.5,-57 "/>
<path fill="none" stroke="#2e3436" stroke-width="1.5" d="M108.5,-57C102.5,-57 96.5,-51 96.5,-45"/>
<polyline fill="none" stroke="#2e3436" stroke-width="1.5" points="96.5,-45 96.5,-13 "/>
<path fill="none" stroke="#2e3436" stroke-width="1.5" d="M96.5,-13C96.5,-7 102.5,-1 108.5,-1"/>
<text text-anchor="middle" x="129" y="-45.8" font-family="FreeSans" font-size="8.00" fill="#1c2021">Node[3]</text>
<polyline fill="none" stroke="#2e3436" stroke-width="1.5" points="96.5,-39 161.5,-39 "/>
<text text-anchor="start" x="104.5" y="-27.8" font-family="FreeSans" font-size="8.00" fill="#1c2021">name = &#39;B&#39;</text>
<text text-anchor="start" x="104.5" y="-17.8" font-family="FreeSans" font-size="8.00" fill="#1c2021">property = 33</text>
<text text-anchor="start" x="104.5" y="-7.8" font-family="FreeSans" font-size="8.00" fill="#1c2021">eyes = &#39;blue&#39;</text>
</g>
<!-- N2&#45;&gt;N3 -->
<g id="edge2" class="edge"><title>N2&#45;&gt;N3</title>
<path fill="none" stroke="#2e3436" stroke-width="2" d="M129,-104.789C129,-92.8452 129,-78.0249 129,-64.6661"/>
<polygon fill="#2e3436" stroke="#2e3436" points="129,-57.0024 132.375,-64.5023 129.5,-60.7524 129.5,-64.5024 129,-64.5024 128.5,-64.5024 128.5,-60.7524 125.625,-64.5024 129,-57.0024 129,-57.0024"/>
<text text-anchor="middle" x="144.5" y="-78.8" font-family="FreeSans" font-size="8.00" fill="#2e3436">KNOWS</text>
</g>
<!-- N4 -->
<g id="node6" class="node"><title>N4</title>
<polygon fill="#ffffff" stroke="#ffffff" stroke-width="1.5" points="201.5,-1 242.5,-1 254.5,-13 254.5,-45 242.5,-57 201.5,-57 189.5,-45 189.5,-13 201.5,-1"/>
<path fill="#ffffff" stroke="#ffffff" stroke-width="1.5" d="M242.5,-1C248.5,-1 254.5,-7 254.5,-13"/>
<path fill="#ffffff" stroke="#ffffff" stroke-width="1.5" d="M254.5,-45C254.5,-51 248.5,-57 242.5,-57"/>
<path fill="#ffffff" stroke="#ffffff" stroke-width="1.5" d="M201.5,-57C195.5,-57 189.5,-51 189.5,-45"/>
<path fill="#ffffff" stroke="#ffffff" stroke-width="1.5" d="M189.5,-13C189.5,-7 195.5,-1 201.5,-1"/>
<polyline fill="none" stroke="#2e3436" stroke-width="1.5" points="201.5,-1 242.5,-1 "/>
<path fill="none" stroke="#2e3436" stroke-width="1.5" d="M242.5,-1C248.5,-1 254.5,-7 254.5,-13"/>
<polyline fill="none" stroke="#2e3436" stroke-width="1.5" points="254.5,-13 254.5,-45 "/>
<path fill="none" stroke="#2e3436" stroke-width="1.5" d="M254.5,-45C254.5,-51 248.5,-57 242.5,-57"/>
<polyline fill="none" stroke="#2e3436" stroke-width="1.5" points="242.5,-57 201.5,-57 "/>
<path fill="none" stroke="#2e3436" stroke-width="1.5" d="M201.5,-57C195.5,-57 189.5,-51 189.5,-45"/>
<polyline fill="none" stroke="#2e3436" stroke-width="1.5" points="189.5,-45 189.5,-13 "/>
<path fill="none" stroke="#2e3436" stroke-width="1.5" d="M189.5,-13C189.5,-7 195.5,-1 201.5,-1"/>
<text text-anchor="middle" x="222" y="-45.8" font-family="FreeSans" font-size="8.00" fill="#1c2021">Node[4]</text>
<polyline fill="none" stroke="#2e3436" stroke-width="1.5" points="189.5,-39 254.5,-39 "/>
<text text-anchor="start" x="197.5" y="-27.8" font-family="FreeSans" font-size="8.00" fill="#1c2021">name = &#39;C&#39;</text>
<text text-anchor="start" x="197.5" y="-17.8" font-family="FreeSans" font-size="8.00" fill="#1c2021">property = 44</text>
<text text-anchor="start" x="197.5" y="-7.8" font-family="FreeSans" font-size="8.00" fill="#1c2021">eyes = &#39;blue&#39;</text>
</g>
<!-- N2&#45;&gt;N4 -->
<g id="edge4" class="edge"><title>N2&#45;&gt;N4</title>
<path fill="none" stroke="#2e3436" stroke-width="2" d="M150.804,-104.789C162.549,-92.2871 177.253,-76.6335 190.245,-62.8034"/>
<polygon fill="#2e3436" stroke="#2e3436" points="195.695,-57.0024 193.02,-64.7796 193.492,-60.0779 190.924,-62.8111 190.56,-62.4688 190.195,-62.1264 192.763,-59.3932 188.1,-60.158 195.695,-57.0024 195.695,-57.0024"/>
<text text-anchor="middle" x="190.5" y="-78.8" font-family="FreeSans" font-size="8.00" fill="#2e3436">KNOWS</text>
</g>
</g>
</svg>
