<?xml version="1.0" encoding="UTF-8" standalone="no"?>
<!DOCTYPE svg PUBLIC "-//W3C//DTD SVG 1.1//EN"
 "http://www.w3.org/Graphics/SVG/1.1/DTD/svg11.dtd">
<!-- Generated by graphviz version 2.26.3 (20100126.1600)
 -->
<!-- Title: g Pages: 1 -->
<svg width="94pt" height="254pt"
 viewBox="0.00 0.00 94.00 254.00" xmlns="http://www.w3.org/2000/svg" xmlns:xlink="http://www.w3.org/1999/xlink">
<g id="graph1" class="graph" transform="scale(1 1) rotate(0) translate(4 250)">
<title>g</title>
<polygon fill="white" stroke="white" points="-4,5 -4,-250 91,-250 91,5 -4,5"/>
<!-- N1 -->
<g id="node1" class="node"><title>N1</title>
<polygon fill="#ffffff" stroke="#ffffff" stroke-width="1.5" points="12,-1 74,-1 86,-13 86,-45 74,-57 12,-57 0,-45 0,-13 12,-1"/>
<path fill="#ffffff" stroke="#ffffff" stroke-width="1.5" d="M74,-1C80,-1 86,-7 86,-13"/>
<path fill="#ffffff" stroke="#ffffff" stroke-width="1.5" d="M86,-45C86,-51 80,-57 74,-57"/>
<path fill="#ffffff" stroke="#ffffff" stroke-width="1.5" d="M12,-57C6,-57 0,-51 0,-45"/>
<path fill="#ffffff" stroke="#ffffff" stroke-width="1.5" d="M0,-13C0,-7 6,-1 12,-1"/>
<polyline fill="none" stroke="#2e3436" stroke-width="1.5" points="12,-1 74,-1 "/>
<path fill="none" stroke="#2e3436" stroke-width="1.5" d="M74,-1C80,-1 86,-7 86,-13"/>
<polyline fill="none" stroke="#2e3436" stroke-width="1.5" points="86,-13 86,-45 "/>
<path fill="none" stroke="#2e3436" stroke-width="1.5" d="M86,-45C86,-51 80,-57 74,-57"/>
<polyline fill="none" stroke="#2e3436" stroke-width="1.5" points="74,-57 12,-57 "/>
<path fill="none" stroke="#2e3436" stroke-width="1.5" d="M12,-57C6,-57 0,-51 0,-45"/>
<polyline fill="none" stroke="#2e3436" stroke-width="1.5" points="0,-45 0,-13 "/>
<path fill="none" stroke="#2e3436" stroke-width="1.5" d="M0,-13C0,-7 6,-1 12,-1"/>
<text text-anchor="middle" x="43" y="-45.8" font-family="FreeSans" font-size="8.00" fill="#1c2021">Node[1]</text>
<polyline fill="none" stroke="#2e3436" stroke-width="1.5" points="0,-39 86,-39 "/>
<text text-anchor="start" x="8" y="-27.8" font-family="FreeSans" font-size="8.00" fill="#1c2021">text = &#39;bobs status2&#39;</text>
<text text-anchor="start" x="8" y="-17.8" font-family="FreeSans" font-size="8.00" fill="#1c2021">name = &#39;bob_s2&#39;</text>
<text text-anchor="start" x="8" y="-7.8" font-family="FreeSans" font-size="8.00" fill="#1c2021">date = 4</text>
</g>
<!-- N2 -->
<g id="node2" class="node"><title>N2</title>
<polygon fill="#ffffff" stroke="#ffffff" stroke-width="1.5" points="12,-105 74,-105 86,-117 86,-149 74,-161 12,-161 0,-149 0,-117 12,-105"/>
<path fill="#ffffff" stroke="#ffffff" stroke-width="1.5" d="M74,-105C80,-105 86,-111 86,-117"/>
<path fill="#ffffff" stroke="#ffffff" stroke-width="1.5" d="M86,-149C86,-155 80,-161 74,-161"/>
<path fill="#ffffff" stroke="#ffffff" stroke-width="1.5" d="M12,-161C6,-161 0,-155 0,-149"/>
<path fill="#ffffff" stroke="#ffffff" stroke-width="1.5" d="M0,-117C0,-111 6,-105 12,-105"/>
<polyline fill="none" stroke="#2e3436" stroke-width="1.5" points="12,-105 74,-105 "/>
<path fill="none" stroke="#2e3436" stroke-width="1.5" d="M74,-105C80,-105 86,-111 86,-117"/>
<polyline fill="none" stroke="#2e3436" stroke-width="1.5" points="86,-117 86,-149 "/>
<path fill="none" stroke="#2e3436" stroke-width="1.5" d="M86,-149C86,-155 80,-161 74,-161"/>
<polyline fill="none" stroke="#2e3436" stroke-width="1.5" points="74,-161 12,-161 "/>
<path fill="none" stroke="#2e3436" stroke-width="1.5" d="M12,-161C6,-161 0,-155 0,-149"/>
<polyline fill="none" stroke="#2e3436" stroke-width="1.5" points="0,-149 0,-117 "/>
<path fill="none" stroke="#2e3436" stroke-width="1.5" d="M0,-117C0,-111 6,-105 12,-105"/>
<text text-anchor="middle" x="43" y="-149.8" font-family="FreeSans" font-size="8.00" fill="#1c2021">Node[2]</text>
<polyline fill="none" stroke="#2e3436" stroke-width="1.5" points="0,-143 86,-143 "/>
<text text-anchor="start" x="8" y="-131.8" font-family="FreeSans" font-size="8.00" fill="#1c2021">text = &#39;bobs status1&#39;</text>
<text text-anchor="start" x="8" y="-121.8" font-family="FreeSans" font-size="8.00" fill="#1c2021">name = &#39;bob_s1&#39;</text>
<text text-anchor="start" x="8" y="-111.8" font-family="FreeSans" font-size="8.00" fill="#1c2021">date = 1</text>
</g>
<!-- N2&#45;&gt;N1 -->
<g id="edge2" class="edge"><title>N2&#45;&gt;N1</title>
<path fill="none" stroke="#2e3436" stroke-width="2" d="M43,-104.856C43,-92.4855 43,-77.8152 43,-64.6881"/>
<polygon fill="#2e3436" stroke="#2e3436" points="43,-57.1664 46.3751,-64.6663 43.5,-60.9164 43.5001,-64.6664 43.0001,-64.6664 42.5001,-64.6664 42.5,-60.9164 39.6251,-64.6664 43,-57.1664 43,-57.1664"/>
<text text-anchor="middle" x="54" y="-78.8" font-family="FreeSans" font-size="8.00" fill="#2e3436">NEXT</text>
</g>
<!-- N3 -->
<g id="node4" class="node"><title>N3</title>
<polygon fill="#ffffff" stroke="#ffffff" stroke-width="1.5" points="23.5,-209 62.5,-209 74.5,-221 74.5,-233 62.5,-245 23.5,-245 11.5,-233 11.5,-221 23.5,-209"/>
<path fill="#ffffff" stroke="#ffffff" stroke-width="1.5" d="M62.5,-209C68.5,-209 74.5,-215 74.5,-221"/>
<path fill="#ffffff" stroke="#ffffff" stroke-width="1.5" d="M74.5,-233C74.5,-239 68.5,-245 62.5,-245"/>
<path fill="#ffffff" stroke="#ffffff" stroke-width="1.5" d="M23.5,-245C17.5,-245 11.5,-239 11.5,-233"/>
<path fill="#ffffff" stroke="#ffffff" stroke-width="1.5" d="M11.5,-221C11.5,-215 17.5,-209 23.5,-209"/>
<polyline fill="none" stroke="#2e3436" stroke-width="1.5" points="23.5,-209 62.5,-209 "/>
<path fill="none" stroke="#2e3436" stroke-width="1.5" d="M62.5,-209C68.5,-209 74.5,-215 74.5,-221"/>
<polyline fill="none" stroke="#2e3436" stroke-width="1.5" points="74.5,-221 74.5,-233 "/>
<path fill="none" stroke="#2e3436" stroke-width="1.5" d="M74.5,-233C74.5,-239 68.5,-245 62.5,-245"/>
<polyline fill="none" stroke="#2e3436" stroke-width="1.5" points="62.5,-245 23.5,-245 "/>
<path fill="none" stroke="#2e3436" stroke-width="1.5" d="M23.5,-245C17.5,-245 11.5,-239 11.5,-233"/>
<polyline fill="none" stroke="#2e3436" stroke-width="1.5" points="11.5,-233 11.5,-221 "/>
<path fill="none" stroke="#2e3436" stroke-width="1.5" d="M11.5,-221C11.5,-215 17.5,-209 23.5,-209"/>
<text text-anchor="middle" x="43" y="-233.8" font-family="FreeSans" font-size="8.00" fill="#1c2021">Node[3]</text>
<polyline fill="none" stroke="#2e3436" stroke-width="1.5" points="11.5,-227 74.5,-227 "/>
<text text-anchor="start" x="19.5" y="-215.8" font-family="FreeSans" font-size="8.00" fill="#1c2021">name = &#39;Bob&#39;</text>
</g>
<!-- N3&#45;&gt;N2 -->
<g id="edge4" class="edge"><title>N3&#45;&gt;N2</title>
<path fill="none" stroke="#4e9a06" stroke-width="2" d="M43,-208.876C43,-197.548 43,-182.567 43,-168.91"/>
<polygon fill="#4e9a06" stroke="#4e9a06" points="43,-161.06 46.3751,-168.56 43.5,-164.81 43.5001,-168.56 43.0001,-168.56 42.5001,-168.56 42.5,-164.81 39.6251,-168.56 43,-161.06 43,-161.06"/>
<text text-anchor="middle" x="59.5" y="-182.8" font-family="FreeSans" font-size="8.00" fill="#4e9a06">STATUS</text>
</g>
</g>
</svg>
