<?xml version="1.0" encoding="UTF-8" standalone="no"?>
<!DOCTYPE svg PUBLIC "-//W3C//DTD SVG 1.1//EN"
 "http://www.w3.org/Graphics/SVG/1.1/DTD/svg11.dtd">
<!-- Generated by graphviz version 2.26.3 (20100126.1600)
 -->
<!-- Title: g Pages: 1 -->
<svg width="376pt" height="482pt"
 viewBox="0.00 0.00 376.00 482.00" xmlns="http://www.w3.org/2000/svg" xmlns:xlink="http://www.w3.org/1999/xlink">
<g id="graph1" class="graph" transform="scale(1 1) rotate(0) translate(4 478)">
<title>g</title>
<polygon fill="white" stroke="white" points="-4,5 -4,-478 373,-478 373,5 -4,5"/>
<!-- N1 -->
<g id="node1" class="node"><title>N1</title>
<polygon fill="#ffffff" stroke="#ffffff" stroke-width="1.5" points="11.5,-209 70.5,-209 82.5,-221 82.5,-253 70.5,-265 11.5,-265 -0.5,-253 -0.5,-221 11.5,-209"/>
<path fill="#ffffff" stroke="#ffffff" stroke-width="1.5" d="M70.5,-209C76.5,-209 82.5,-215 82.5,-221"/>
<path fill="#ffffff" stroke="#ffffff" stroke-width="1.5" d="M82.5,-253C82.5,-259 76.5,-265 70.5,-265"/>
<path fill="#ffffff" stroke="#ffffff" stroke-width="1.5" d="M11.5,-265C5.5,-265 -0.5,-259 -0.5,-253"/>
<path fill="#ffffff" stroke="#ffffff" stroke-width="1.5" d="M-0.5,-221C-0.5,-215 5.5,-209 11.5,-209"/>
<polyline fill="none" stroke="#2e3436" stroke-width="1.5" points="11.5,-209 70.5,-209 "/>
<path fill="none" stroke="#2e3436" stroke-width="1.5" d="M70.5,-209C76.5,-209 82.5,-215 82.5,-221"/>
<polyline fill="none" stroke="#2e3436" stroke-width="1.5" points="82.5,-221 82.5,-253 "/>
<path fill="none" stroke="#2e3436" stroke-width="1.5" d="M82.5,-253C82.5,-259 76.5,-265 70.5,-265"/>
<polyline fill="none" stroke="#2e3436" stroke-width="1.5" points="70.5,-265 11.5,-265 "/>
<path fill="none" stroke="#2e3436" stroke-width="1.5" d="M11.5,-265C5.5,-265 -0.5,-259 -0.5,-253"/>
<polyline fill="none" stroke="#2e3436" stroke-width="1.5" points="-0.5,-253 -0.5,-221 "/>
<path fill="none" stroke="#2e3436" stroke-width="1.5" d="M-0.5,-221C-0.5,-215 5.5,-209 11.5,-209"/>
<text text-anchor="middle" x="41" y="-253.8" font-family="FreeSans" font-size="8.00" fill="#1c2021">Node[1]</text>
<polyline fill="none" stroke="#2e3436" stroke-width="1.5" points="-0.5,-247 82.5,-247 "/>
<text text-anchor="start" x="7.5" y="-235.8" font-family="FreeSans" font-size="8.00" fill="#1c2021">text = &#39;Joe status2&#39;</text>
<text text-anchor="start" x="7.5" y="-225.8" font-family="FreeSans" font-size="8.00" fill="#1c2021">name = &#39;joe_s2&#39;</text>
<text text-anchor="start" x="7.5" y="-215.8" font-family="FreeSans" font-size="8.00" fill="#1c2021">date = 6</text>
</g>
<!-- N2 -->
<g id="node2" class="node"><title>N2</title>
<polygon fill="#ffffff" stroke="#ffffff" stroke-width="1.5" points="37.5,-323 96.5,-323 108.5,-335 108.5,-367 96.5,-379 37.5,-379 25.5,-367 25.5,-335 37.5,-323"/>
<path fill="#ffffff" stroke="#ffffff" stroke-width="1.5" d="M96.5,-323C102.5,-323 108.5,-329 108.5,-335"/>
<path fill="#ffffff" stroke="#ffffff" stroke-width="1.5" d="M108.5,-367C108.5,-373 102.5,-379 96.5,-379"/>
<path fill="#ffffff" stroke="#ffffff" stroke-width="1.5" d="M37.5,-379C31.5,-379 25.5,-373 25.5,-367"/>
<path fill="#ffffff" stroke="#ffffff" stroke-width="1.5" d="M25.5,-335C25.5,-329 31.5,-323 37.5,-323"/>
<polyline fill="none" stroke="#2e3436" stroke-width="1.5" points="37.5,-323 96.5,-323 "/>
<path fill="none" stroke="#2e3436" stroke-width="1.5" d="M96.5,-323C102.5,-323 108.5,-329 108.5,-335"/>
<polyline fill="none" stroke="#2e3436" stroke-width="1.5" points="108.5,-335 108.5,-367 "/>
<path fill="none" stroke="#2e3436" stroke-width="1.5" d="M108.5,-367C108.5,-373 102.5,-379 96.5,-379"/>
<polyline fill="none" stroke="#2e3436" stroke-width="1.5" points="96.5,-379 37.5,-379 "/>
<path fill="none" stroke="#2e3436" stroke-width="1.5" d="M37.5,-379C31.5,-379 25.5,-373 25.5,-367"/>
<polyline fill="none" stroke="#2e3436" stroke-width="1.5" points="25.5,-367 25.5,-335 "/>
<path fill="none" stroke="#2e3436" stroke-width="1.5" d="M25.5,-335C25.5,-329 31.5,-323 37.5,-323"/>
<text text-anchor="middle" x="67" y="-367.8" font-family="FreeSans" font-size="8.00" fill="#1c2021">Node[2]</text>
<polyline fill="none" stroke="#2e3436" stroke-width="1.5" points="25.5,-361 108.5,-361 "/>
<text text-anchor="start" x="33.5" y="-349.8" font-family="FreeSans" font-size="8.00" fill="#1c2021">text = &#39;Joe status1&#39;</text>
<text text-anchor="start" x="33.5" y="-339.8" font-family="FreeSans" font-size="8.00" fill="#1c2021">name = &#39;joe_s1&#39;</text>
<text text-anchor="start" x="33.5" y="-329.8" font-family="FreeSans" font-size="8.00" fill="#1c2021">date = 3</text>
</g>
<!-- N2&#45;&gt;N1 -->
<g id="edge2" class="edge"><title>N2&#45;&gt;N1</title>
<path fill="none" stroke="#2e3436" stroke-width="2" d="M60.573,-322.82C57.1355,-307.748 52.8658,-289.027 49.1923,-272.92"/>
<polygon fill="#2e3436" stroke="#2e3436" points="47.4431,-265.251 52.4014,-271.812 48.7645,-268.796 49.5984,-272.452 49.1109,-272.563 48.6234,-272.674 47.7895,-269.018 45.8204,-273.313 47.4431,-265.251 47.4431,-265.251"/>
<text text-anchor="middle" x="67" y="-291.8" font-family="FreeSans" font-size="8.00" fill="#2e3436">NEXT</text>
</g>
<!-- N3 -->
<g id="node4" class="node"><title>N3</title>
<polygon fill="#ffffff" stroke="#ffffff" stroke-width="1.5" points="162,-437 200,-437 212,-449 212,-461 200,-473 162,-473 150,-461 150,-449 162,-437"/>
<path fill="#ffffff" stroke="#ffffff" stroke-width="1.5" d="M200,-437C206,-437 212,-443 212,-449"/>
<path fill="#ffffff" stroke="#ffffff" stroke-width="1.5" d="M212,-461C212,-467 206,-473 200,-473"/>
<path fill="#ffffff" stroke="#ffffff" stroke-width="1.5" d="M162,-473C156,-473 150,-467 150,-461"/>
<path fill="#ffffff" stroke="#ffffff" stroke-width="1.5" d="M150,-449C150,-443 156,-437 162,-437"/>
<polyline fill="none" stroke="#2e3436" stroke-width="1.5" points="162,-437 200,-437 "/>
<path fill="none" stroke="#2e3436" stroke-width="1.5" d="M200,-437C206,-437 212,-443 212,-449"/>
<polyline fill="none" stroke="#2e3436" stroke-width="1.5" points="212,-449 212,-461 "/>
<path fill="none" stroke="#2e3436" stroke-width="1.5" d="M212,-461C212,-467 206,-473 200,-473"/>
<polyline fill="none" stroke="#2e3436" stroke-width="1.5" points="200,-473 162,-473 "/>
<path fill="none" stroke="#2e3436" stroke-width="1.5" d="M162,-473C156,-473 150,-467 150,-461"/>
<polyline fill="none" stroke="#2e3436" stroke-width="1.5" points="150,-461 150,-449 "/>
<path fill="none" stroke="#2e3436" stroke-width="1.5" d="M150,-449C150,-443 156,-437 162,-437"/>
<text text-anchor="middle" x="181" y="-461.8" font-family="FreeSans" font-size="8.00" fill="#1c2021">Node[3]</text>
<polyline fill="none" stroke="#2e3436" stroke-width="1.5" points="150,-455 212,-455 "/>
<text text-anchor="start" x="158" y="-443.8" font-family="FreeSans" font-size="8.00" fill="#1c2021">name = &#39;Joe&#39;</text>
</g>
<!-- N3&#45;&gt;N2 -->
<g id="edge4" class="edge"><title>N3&#45;&gt;N2</title>
<path fill="none" stroke="#4e9a06" stroke-width="2" d="M161.143,-436.885C145.302,-422.434 122.683,-401.799 103.586,-384.377"/>
<polygon fill="#4e9a06" stroke="#4e9a06" points="97.7843,-379.084 105.6,-381.645 100.892,-381.242 103.662,-383.769 103.325,-384.139 102.988,-384.508 100.218,-381.981 101.05,-386.632 97.7843,-379.084 97.7843,-379.084"/>
<text text-anchor="middle" x="154.5" y="-405.8" font-family="FreeSans" font-size="8.00" fill="#4e9a06">STATUS</text>
</g>
<!-- N9 -->
<g id="node7" class="node"><title>N9</title>
<polygon fill="#ffffff" stroke="#ffffff" stroke-width="1.5" points="161.5,-333 200.5,-333 212.5,-345 212.5,-357 200.5,-369 161.5,-369 149.5,-357 149.5,-345 161.5,-333"/>
<path fill="#ffffff" stroke="#ffffff" stroke-width="1.5" d="M200.5,-333C206.5,-333 212.5,-339 212.5,-345"/>
<path fill="#ffffff" stroke="#ffffff" stroke-width="1.5" d="M212.5,-357C212.5,-363 206.5,-369 200.5,-369"/>
<path fill="#ffffff" stroke="#ffffff" stroke-width="1.5" d="M161.5,-369C155.5,-369 149.5,-363 149.5,-357"/>
<path fill="#ffffff" stroke="#ffffff" stroke-width="1.5" d="M149.5,-345C149.5,-339 155.5,-333 161.5,-333"/>
<polyline fill="none" stroke="#2e3436" stroke-width="1.5" points="161.5,-333 200.5,-333 "/>
<path fill="none" stroke="#2e3436" stroke-width="1.5" d="M200.5,-333C206.5,-333 212.5,-339 212.5,-345"/>
<polyline fill="none" stroke="#2e3436" stroke-width="1.5" points="212.5,-345 212.5,-357 "/>
<path fill="none" stroke="#2e3436" stroke-width="1.5" d="M212.5,-357C212.5,-363 206.5,-369 200.5,-369"/>
<polyline fill="none" stroke="#2e3436" stroke-width="1.5" points="200.5,-369 161.5,-369 "/>
<path fill="none" stroke="#2e3436" stroke-width="1.5" d="M161.5,-369C155.5,-369 149.5,-363 149.5,-357"/>
<polyline fill="none" stroke="#2e3436" stroke-width="1.5" points="149.5,-357 149.5,-345 "/>
<path fill="none" stroke="#2e3436" stroke-width="1.5" d="M149.5,-345C149.5,-339 155.5,-333 161.5,-333"/>
<text text-anchor="middle" x="181" y="-357.8" font-family="FreeSans" font-size="8.00" fill="#1c2021">Node[9]</text>
<polyline fill="none" stroke="#2e3436" stroke-width="1.5" points="149.5,-351 212.5,-351 "/>
<text text-anchor="start" x="157.5" y="-339.8" font-family="FreeSans" font-size="8.00" fill="#1c2021">name = &#39;Bob&#39;</text>
</g>
<!-- N3&#45;&gt;N9 -->
<g id="edge6" class="edge"><title>N3&#45;&gt;N9</title>
<path fill="none" stroke="#a40000" stroke-width="2" d="M181,-436.885C181,-420.284 181,-395.523 181,-376.847"/>
<polygon fill="#a40000" stroke="#a40000" points="181,-369.257 184.375,-376.757 181.5,-373.007 181.5,-376.757 181,-376.757 180.5,-376.757 180.5,-373.007 177.625,-376.757 181,-369.257 181,-369.257"/>
<text text-anchor="middle" x="223" y="-410.8" font-family="FreeSans" font-size="8.00" fill="#a40000">FRIEND</text>
<text text-anchor="start" x="181" y="-400.8" font-family="FreeSans" font-size="8.00" fill="#a40000">status = &#39;CONFIRMED&#39;</text>
</g>
<!-- N6 -->
<g id="node11" class="node"><title>N6</title>
<polygon fill="#ffffff" stroke="#ffffff" stroke-width="1.5" points="263,-219 305,-219 317,-231 317,-243 305,-255 263,-255 251,-243 251,-231 263,-219"/>
<path fill="#ffffff" stroke="#ffffff" stroke-width="1.5" d="M305,-219C311,-219 317,-225 317,-231"/>
<path fill="#ffffff" stroke="#ffffff" stroke-width="1.5" d="M317,-243C317,-249 311,-255 305,-255"/>
<path fill="#ffffff" stroke="#ffffff" stroke-width="1.5" d="M263,-255C257,-255 251,-249 251,-243"/>
<path fill="#ffffff" stroke="#ffffff" stroke-width="1.5" d="M251,-231C251,-225 257,-219 263,-219"/>
<polyline fill="none" stroke="#2e3436" stroke-width="1.5" points="263,-219 305,-219 "/>
<path fill="none" stroke="#2e3436" stroke-width="1.5" d="M305,-219C311,-219 317,-225 317,-231"/>
<polyline fill="none" stroke="#2e3436" stroke-width="1.5" points="317,-231 317,-243 "/>
<path fill="none" stroke="#2e3436" stroke-width="1.5" d="M317,-243C317,-249 311,-255 305,-255"/>
<polyline fill="none" stroke="#2e3436" stroke-width="1.5" points="305,-255 263,-255 "/>
<path fill="none" stroke="#2e3436" stroke-width="1.5" d="M263,-255C257,-255 251,-249 251,-243"/>
<polyline fill="none" stroke="#2e3436" stroke-width="1.5" points="251,-243 251,-231 "/>
<path fill="none" stroke="#2e3436" stroke-width="1.5" d="M251,-231C251,-225 257,-219 263,-219"/>
<text text-anchor="middle" x="284" y="-243.8" font-family="FreeSans" font-size="8.00" fill="#1c2021">Node[6]</text>
<polyline fill="none" stroke="#2e3436" stroke-width="1.5" points="251,-237 317,-237 "/>
<text text-anchor="start" x="259" y="-225.8" font-family="FreeSans" font-size="8.00" fill="#1c2021">name = &#39;Alice&#39;</text>
</g>
<!-- N9&#45;&gt;N6 -->
<g id="edge18" class="edge"><title>N9&#45;&gt;N6</title>
<path fill="none" stroke="#a40000" stroke-width="2" d="M184.003,-332.824C187.169,-318.302 193.374,-298.115 205,-284 215.377,-271.403 230.07,-261.37 243.975,-253.863"/>
<polygon fill="#a40000" stroke="#a40000" points="250.715,-250.38 245.601,-256.821 247.613,-252.546 244.281,-254.267 244.052,-253.823 243.822,-253.379 247.154,-251.657 242.503,-250.824 250.715,-250.38 250.715,-250.38"/>
<text text-anchor="middle" x="247" y="-296.8" font-family="FreeSans" font-size="8.00" fill="#a40000">FRIEND</text>
<text text-anchor="start" x="205" y="-286.8" font-family="FreeSans" font-size="8.00" fill="#a40000">status = &#39;CONFIRMED&#39;</text>
</g>
<!-- N8 -->
<g id="node15" class="node"><title>N8</title>
<polygon fill="#ffffff" stroke="#ffffff" stroke-width="1.5" points="123,-209 185,-209 197,-221 197,-253 185,-265 123,-265 111,-253 111,-221 123,-209"/>
<path fill="#ffffff" stroke="#ffffff" stroke-width="1.5" d="M185,-209C191,-209 197,-215 197,-221"/>
<path fill="#ffffff" stroke="#ffffff" stroke-width="1.5" d="M197,-253C197,-259 191,-265 185,-265"/>
<path fill="#ffffff" stroke="#ffffff" stroke-width="1.5" d="M123,-265C117,-265 111,-259 111,-253"/>
<path fill="#ffffff" stroke="#ffffff" stroke-width="1.5" d="M111,-221C111,-215 117,-209 123,-209"/>
<polyline fill="none" stroke="#2e3436" stroke-width="1.5" points="123,-209 185,-209 "/>
<path fill="none" stroke="#2e3436" stroke-width="1.5" d="M185,-209C191,-209 197,-215 197,-221"/>
<polyline fill="none" stroke="#2e3436" stroke-width="1.5" points="197,-221 197,-253 "/>
<path fill="none" stroke="#2e3436" stroke-width="1.5" d="M197,-253C197,-259 191,-265 185,-265"/>
<polyline fill="none" stroke="#2e3436" stroke-width="1.5" points="185,-265 123,-265 "/>
<path fill="none" stroke="#2e3436" stroke-width="1.5" d="M123,-265C117,-265 111,-259 111,-253"/>
<polyline fill="none" stroke="#2e3436" stroke-width="1.5" points="111,-253 111,-221 "/>
<path fill="none" stroke="#2e3436" stroke-width="1.5" d="M111,-221C111,-215 117,-209 123,-209"/>
<text text-anchor="middle" x="154" y="-253.8" font-family="FreeSans" font-size="8.00" fill="#1c2021">Node[8]</text>
<polyline fill="none" stroke="#2e3436" stroke-width="1.5" points="111,-247 197,-247 "/>
<text text-anchor="start" x="119" y="-235.8" font-family="FreeSans" font-size="8.00" fill="#1c2021">text = &#39;bobs status1&#39;</text>
<text text-anchor="start" x="119" y="-225.8" font-family="FreeSans" font-size="8.00" fill="#1c2021">name = &#39;bob_s1&#39;</text>
<text text-anchor="start" x="119" y="-215.8" font-family="FreeSans" font-size="8.00" fill="#1c2021">date = 1</text>
</g>
<!-- N9&#45;&gt;N8 -->
<g id="edge16" class="edge"><title>N9&#45;&gt;N8</title>
<path fill="none" stroke="#4e9a06" stroke-width="2" d="M158.383,-332.756C150.346,-324.864 142.245,-314.928 138,-304 134.132,-294.043 134.911,-282.878 137.565,-272.56"/>
<polygon fill="#4e9a06" stroke="#4e9a06" points="139.79,-265.225 140.843,-273.382 139.18,-268.959 138.091,-272.548 137.613,-272.403 137.135,-272.257 138.223,-268.669 134.383,-271.423 139.79,-265.225 139.79,-265.225"/>
<text text-anchor="middle" x="154.5" y="-291.8" font-family="FreeSans" font-size="8.00" fill="#4e9a06">STATUS</text>
</g>
<!-- N4 -->
<g id="node8" class="node"><title>N4</title>
<polygon fill="#ffffff" stroke="#ffffff" stroke-width="1.5" points="251,-1 317,-1 329,-13 329,-45 317,-57 251,-57 239,-45 239,-13 251,-1"/>
<path fill="#ffffff" stroke="#ffffff" stroke-width="1.5" d="M317,-1C323,-1 329,-7 329,-13"/>
<path fill="#ffffff" stroke="#ffffff" stroke-width="1.5" d="M329,-45C329,-51 323,-57 317,-57"/>
<path fill="#ffffff" stroke="#ffffff" stroke-width="1.5" d="M251,-57C245,-57 239,-51 239,-45"/>
<path fill="#ffffff" stroke="#ffffff" stroke-width="1.5" d="M239,-13C239,-7 245,-1 251,-1"/>
<polyline fill="none" stroke="#2e3436" stroke-width="1.5" points="251,-1 317,-1 "/>
<path fill="none" stroke="#2e3436" stroke-width="1.5" d="M317,-1C323,-1 329,-7 329,-13"/>
<polyline fill="none" stroke="#2e3436" stroke-width="1.5" points="329,-13 329,-45 "/>
<path fill="none" stroke="#2e3436" stroke-width="1.5" d="M329,-45C329,-51 323,-57 317,-57"/>
<polyline fill="none" stroke="#2e3436" stroke-width="1.5" points="317,-57 251,-57 "/>
<path fill="none" stroke="#2e3436" stroke-width="1.5" d="M251,-57C245,-57 239,-51 239,-45"/>
<polyline fill="none" stroke="#2e3436" stroke-width="1.5" points="239,-45 239,-13 "/>
<path fill="none" stroke="#2e3436" stroke-width="1.5" d="M239,-13C239,-7 245,-1 251,-1"/>
<text text-anchor="middle" x="284" y="-45.8" font-family="FreeSans" font-size="8.00" fill="#1c2021">Node[4]</text>
<polyline fill="none" stroke="#2e3436" stroke-width="1.5" points="239,-39 329,-39 "/>
<text text-anchor="start" x="247" y="-27.8" font-family="FreeSans" font-size="8.00" fill="#1c2021">text = &#39;Alices status2&#39;</text>
<text text-anchor="start" x="247" y="-17.8" font-family="FreeSans" font-size="8.00" fill="#1c2021">name = &#39;alice_s2&#39;</text>
<text text-anchor="start" x="247" y="-7.8" font-family="FreeSans" font-size="8.00" fill="#1c2021">date = 5</text>
</g>
<!-- N5 -->
<g id="node9" class="node"><title>N5</title>
<polygon fill="#ffffff" stroke="#ffffff" stroke-width="1.5" points="251,-105 317,-105 329,-117 329,-149 317,-161 251,-161 239,-149 239,-117 251,-105"/>
<path fill="#ffffff" stroke="#ffffff" stroke-width="1.5" d="M317,-105C323,-105 329,-111 329,-117"/>
<path fill="#ffffff" stroke="#ffffff" stroke-width="1.5" d="M329,-149C329,-155 323,-161 317,-161"/>
<path fill="#ffffff" stroke="#ffffff" stroke-width="1.5" d="M251,-161C245,-161 239,-155 239,-149"/>
<path fill="#ffffff" stroke="#ffffff" stroke-width="1.5" d="M239,-117C239,-111 245,-105 251,-105"/>
<polyline fill="none" stroke="#2e3436" stroke-width="1.5" points="251,-105 317,-105 "/>
<path fill="none" stroke="#2e3436" stroke-width="1.5" d="M317,-105C323,-105 329,-111 329,-117"/>
<polyline fill="none" stroke="#2e3436" stroke-width="1.5" points="329,-117 329,-149 "/>
<path fill="none" stroke="#2e3436" stroke-width="1.5" d="M329,-149C329,-155 323,-161 317,-161"/>
<polyline fill="none" stroke="#2e3436" stroke-width="1.5" points="317,-161 251,-161 "/>
<path fill="none" stroke="#2e3436" stroke-width="1.5" d="M251,-161C245,-161 239,-155 239,-149"/>
<polyline fill="none" stroke="#2e3436" stroke-width="1.5" points="239,-149 239,-117 "/>
<path fill="none" stroke="#2e3436" stroke-width="1.5" d="M239,-117C239,-111 245,-105 251,-105"/>
<text text-anchor="middle" x="284" y="-149.8" font-family="FreeSans" font-size="8.00" fill="#1c2021">Node[5]</text>
<polyline fill="none" stroke="#2e3436" stroke-width="1.5" points="239,-143 329,-143 "/>
<text text-anchor="start" x="247" y="-131.8" font-family="FreeSans" font-size="8.00" fill="#1c2021">text = &#39;Alices status1&#39;</text>
<text text-anchor="start" x="247" y="-121.8" font-family="FreeSans" font-size="8.00" fill="#1c2021">name = &#39;alice_s1&#39;</text>
<text text-anchor="start" x="247" y="-111.8" font-family="FreeSans" font-size="8.00" fill="#1c2021">date = 2</text>
</g>
<!-- N5&#45;&gt;N4 -->
<g id="edge8" class="edge"><title>N5&#45;&gt;N4</title>
<path fill="none" stroke="#2e3436" stroke-width="2" d="M284,-104.856C284,-92.4855 284,-77.8152 284,-64.6881"/>
<polygon fill="#2e3436" stroke="#2e3436" points="284,-57.1664 287.375,-64.6663 284.5,-60.9164 284.5,-64.6664 284,-64.6664 283.5,-64.6664 283.5,-60.9164 280.625,-64.6664 284,-57.1664 284,-57.1664"/>
<text text-anchor="middle" x="295" y="-78.8" font-family="FreeSans" font-size="8.00" fill="#2e3436">NEXT</text>
</g>
<!-- N6&#45;&gt;N3 -->
<g id="edge12" class="edge"><title>N6&#45;&gt;N3</title>
<path fill="none" stroke="#a40000" stroke-width="2" d="M288.917,-255.067C297.413,-290.619 310.475,-370.338 272,-418 259.158,-433.908 238.39,-443.031 219.934,-448.234"/>
<polygon fill="#a40000" stroke="#a40000" points="212.195,-450.233 218.613,-445.09 215.701,-448.811 219.332,-447.873 219.457,-448.358 219.582,-448.842 215.951,-449.779 220.301,-451.625 212.195,-450.233 212.195,-450.233"/>
<text text-anchor="middle" x="333" y="-353.8" font-family="FreeSans" font-size="8.00" fill="#a40000">FRIEND</text>
<text text-anchor="start" x="298" y="-343.8" font-family="FreeSans" font-size="8.00" fill="#a40000">status = &#39;PENDING&#39;</text>
</g>
<!-- N6&#45;&gt;N5 -->
<g id="edge10" class="edge"><title>N6&#45;&gt;N5</title>
<path fill="none" stroke="#4e9a06" stroke-width="2" d="M284,-218.885C284,-205.057 284,-185.566 284,-168.647"/>
<polygon fill="#4e9a06" stroke="#4e9a06" points="284,-161.084 287.375,-168.584 284.5,-164.834 284.5,-168.584 284,-168.584 283.5,-168.584 283.5,-164.834 280.625,-168.584 284,-161.084 284,-161.084"/>
<text text-anchor="middle" x="300.5" y="-182.8" font-family="FreeSans" font-size="8.00" fill="#4e9a06">STATUS</text>
</g>
<!-- N7 -->
<g id="node14" class="node"><title>N7</title>
<polygon fill="#ffffff" stroke="#ffffff" stroke-width="1.5" points="123,-105 185,-105 197,-117 197,-149 185,-161 123,-161 111,-149 111,-117 123,-105"/>
<path fill="#ffffff" stroke="#ffffff" stroke-width="1.5" d="M185,-105C191,-105 197,-111 197,-117"/>
<path fill="#ffffff" stroke="#ffffff" stroke-width="1.5" d="M197,-149C197,-155 191,-161 185,-161"/>
<path fill="#ffffff" stroke="#ffffff" stroke-width="1.5" d="M123,-161C117,-161 111,-155 111,-149"/>
<path fill="#ffffff" stroke="#ffffff" stroke-width="1.5" d="M111,-117C111,-111 117,-105 123,-105"/>
<polyline fill="none" stroke="#2e3436" stroke-width="1.5" points="123,-105 185,-105 "/>
<path fill="none" stroke="#2e3436" stroke-width="1.5" d="M185,-105C191,-105 197,-111 197,-117"/>
<polyline fill="none" stroke="#2e3436" stroke-width="1.5" points="197,-117 197,-149 "/>
<path fill="none" stroke="#2e3436" stroke-width="1.5" d="M197,-149C197,-155 191,-161 185,-161"/>
<polyline fill="none" stroke="#2e3436" stroke-width="1.5" points="185,-161 123,-161 "/>
<path fill="none" stroke="#2e3436" stroke-width="1.5" d="M123,-161C117,-161 111,-155 111,-149"/>
<polyline fill="none" stroke="#2e3436" stroke-width="1.5" points="111,-149 111,-117 "/>
<path fill="none" stroke="#2e3436" stroke-width="1.5" d="M111,-117C111,-111 117,-105 123,-105"/>
<text text-anchor="middle" x="154" y="-149.8" font-family="FreeSans" font-size="8.00" fill="#1c2021">Node[7]</text>
<polyline fill="none" stroke="#2e3436" stroke-width="1.5" points="111,-143 197,-143 "/>
<text text-anchor="start" x="119" y="-131.8" font-family="FreeSans" font-size="8.00" fill="#1c2021">text = &#39;bobs status2&#39;</text>
<text text-anchor="start" x="119" y="-121.8" font-family="FreeSans" font-size="8.00" fill="#1c2021">name = &#39;bob_s2&#39;</text>
<text text-anchor="start" x="119" y="-111.8" font-family="FreeSans" font-size="8.00" fill="#1c2021">date = 4</text>
</g>
<!-- N8&#45;&gt;N7 -->
<g id="edge14" class="edge"><title>N8&#45;&gt;N7</title>
<path fill="none" stroke="#2e3436" stroke-width="2" d="M154,-208.856C154,-196.486 154,-181.815 154,-168.688"/>
<polygon fill="#2e3436" stroke="#2e3436" points="154,-161.166 157.375,-168.666 154.5,-164.916 154.5,-168.666 154,-168.666 153.5,-168.666 153.5,-164.916 150.625,-168.666 154,-161.166 154,-161.166"/>
<text text-anchor="middle" x="165" y="-182.8" font-family="FreeSans" font-size="8.00" fill="#2e3436">NEXT</text>
</g>
</g>
</svg>
