<?xml version="1.0" encoding="UTF-8" standalone="no"?>
<!DOCTYPE svg PUBLIC "-//W3C//DTD SVG 1.1//EN"
 "http://www.w3.org/Graphics/SVG/1.1/DTD/svg11.dtd">
<!-- Generated by graphviz version 2.26.3 (20100126.1600)
 -->
<!-- Title: g Pages: 1 -->
<svg width="311pt" height="130pt"
 viewBox="0.00 0.00 311.00 130.00" xmlns="http://www.w3.org/2000/svg" xmlns:xlink="http://www.w3.org/1999/xlink">
<g id="graph1" class="graph" transform="scale(1 1) rotate(0) translate(4 126)">
<title>g</title>
<polygon fill="white" stroke="white" points="-4,5 -4,-126 308,-126 308,5 -4,5"/>
<!-- N1 -->
<g id="node1" class="node"><title>N1</title>
<polygon fill="#ffffff" stroke="#ffffff" stroke-width="1.5" points="11.5,-1 42.5,-1 54.5,-13 54.5,-25 42.5,-37 11.5,-37 -0.5,-25 -0.5,-13 11.5,-1"/>
<path fill="#ffffff" stroke="#ffffff" stroke-width="1.5" d="M42.5,-1C48.5,-1 54.5,-7 54.5,-13"/>
<path fill="#ffffff" stroke="#ffffff" stroke-width="1.5" d="M54.5,-25C54.5,-31 48.5,-37 42.5,-37"/>
<path fill="#ffffff" stroke="#ffffff" stroke-width="1.5" d="M11.5,-37C5.5,-37 -0.5,-31 -0.5,-25"/>
<path fill="#ffffff" stroke="#ffffff" stroke-width="1.5" d="M-0.5,-13C-0.5,-7 5.5,-1 11.5,-1"/>
<polyline fill="none" stroke="#2e3436" stroke-width="1.5" points="11.5,-1 42.5,-1 "/>
<path fill="none" stroke="#2e3436" stroke-width="1.5" d="M42.5,-1C48.5,-1 54.5,-7 54.5,-13"/>
<polyline fill="none" stroke="#2e3436" stroke-width="1.5" points="54.5,-13 54.5,-25 "/>
<path fill="none" stroke="#2e3436" stroke-width="1.5" d="M54.5,-25C54.5,-31 48.5,-37 42.5,-37"/>
<polyline fill="none" stroke="#2e3436" stroke-width="1.5" points="42.5,-37 11.5,-37 "/>
<path fill="none" stroke="#2e3436" stroke-width="1.5" d="M11.5,-37C5.5,-37 -0.5,-31 -0.5,-25"/>
<polyline fill="none" stroke="#2e3436" stroke-width="1.5" points="-0.5,-25 -0.5,-13 "/>
<path fill="none" stroke="#2e3436" stroke-width="1.5" d="M-0.5,-13C-0.5,-7 5.5,-1 11.5,-1"/>
<text text-anchor="middle" x="27" y="-25.8" font-family="FreeSans" font-size="8.00" fill="#1c2021">Node[1]</text>
<polyline fill="none" stroke="#2e3436" stroke-width="1.5" points="-0.5,-19 54.5,-19 "/>
<text text-anchor="start" x="7.5" y="-7.8" font-family="FreeSans" font-size="8.00" fill="#1c2021">name = &#39;D&#39;</text>
</g>
<!-- N2 -->
<g id="node2" class="node"><title>N2</title>
<polygon fill="#ffffff" stroke="#ffffff" stroke-width="1.5" points="95,-1 125,-1 137,-13 137,-25 125,-37 95,-37 83,-25 83,-13 95,-1"/>
<path fill="#ffffff" stroke="#ffffff" stroke-width="1.5" d="M125,-1C131,-1 137,-7 137,-13"/>
<path fill="#ffffff" stroke="#ffffff" stroke-width="1.5" d="M137,-25C137,-31 131,-37 125,-37"/>
<path fill="#ffffff" stroke="#ffffff" stroke-width="1.5" d="M95,-37C89,-37 83,-31 83,-25"/>
<path fill="#ffffff" stroke="#ffffff" stroke-width="1.5" d="M83,-13C83,-7 89,-1 95,-1"/>
<polyline fill="none" stroke="#2e3436" stroke-width="1.5" points="95,-1 125,-1 "/>
<path fill="none" stroke="#2e3436" stroke-width="1.5" d="M125,-1C131,-1 137,-7 137,-13"/>
<polyline fill="none" stroke="#2e3436" stroke-width="1.5" points="137,-13 137,-25 "/>
<path fill="none" stroke="#2e3436" stroke-width="1.5" d="M137,-25C137,-31 131,-37 125,-37"/>
<polyline fill="none" stroke="#2e3436" stroke-width="1.5" points="125,-37 95,-37 "/>
<path fill="none" stroke="#2e3436" stroke-width="1.5" d="M95,-37C89,-37 83,-31 83,-25"/>
<polyline fill="none" stroke="#2e3436" stroke-width="1.5" points="83,-25 83,-13 "/>
<path fill="none" stroke="#2e3436" stroke-width="1.5" d="M83,-13C83,-7 89,-1 95,-1"/>
<text text-anchor="middle" x="110" y="-25.8" font-family="FreeSans" font-size="8.00" fill="#1c2021">Node[2]</text>
<polyline fill="none" stroke="#2e3436" stroke-width="1.5" points="83,-19 137,-19 "/>
<text text-anchor="start" x="91" y="-7.8" font-family="FreeSans" font-size="8.00" fill="#1c2021">name = &#39;E&#39;</text>
</g>
<!-- N3 -->
<g id="node3" class="node"><title>N3</title>
<polygon fill="#ffffff" stroke="#ffffff" stroke-width="1.5" points="136,-85 166,-85 178,-97 178,-109 166,-121 136,-121 124,-109 124,-97 136,-85"/>
<path fill="#ffffff" stroke="#ffffff" stroke-width="1.5" d="M166,-85C172,-85 178,-91 178,-97"/>
<path fill="#ffffff" stroke="#ffffff" stroke-width="1.5" d="M178,-109C178,-115 172,-121 166,-121"/>
<path fill="#ffffff" stroke="#ffffff" stroke-width="1.5" d="M136,-121C130,-121 124,-115 124,-109"/>
<path fill="#ffffff" stroke="#ffffff" stroke-width="1.5" d="M124,-97C124,-91 130,-85 136,-85"/>
<polyline fill="none" stroke="#2e3436" stroke-width="1.5" points="136,-85 166,-85 "/>
<path fill="none" stroke="#2e3436" stroke-width="1.5" d="M166,-85C172,-85 178,-91 178,-97"/>
<polyline fill="none" stroke="#2e3436" stroke-width="1.5" points="178,-97 178,-109 "/>
<path fill="none" stroke="#2e3436" stroke-width="1.5" d="M178,-109C178,-115 172,-121 166,-121"/>
<polyline fill="none" stroke="#2e3436" stroke-width="1.5" points="166,-121 136,-121 "/>
<path fill="none" stroke="#2e3436" stroke-width="1.5" d="M136,-121C130,-121 124,-115 124,-109"/>
<polyline fill="none" stroke="#2e3436" stroke-width="1.5" points="124,-109 124,-97 "/>
<path fill="none" stroke="#2e3436" stroke-width="1.5" d="M124,-97C124,-91 130,-85 136,-85"/>
<text text-anchor="middle" x="151" y="-109.8" font-family="FreeSans" font-size="8.00" fill="#1c2021">Node[3]</text>
<polyline fill="none" stroke="#2e3436" stroke-width="1.5" points="124,-103 178,-103 "/>
<text text-anchor="start" x="132" y="-91.8" font-family="FreeSans" font-size="8.00" fill="#1c2021">name = &#39;A&#39;</text>
</g>
<!-- N3&#45;&gt;N1 -->
<g id="edge6" class="edge"><title>N3&#45;&gt;N1</title>
<path fill="none" stroke="#2e3436" stroke-width="2" d="M123.791,-89.7844C111.052,-83.201 95.8825,-74.7808 83,-66 72.5898,-58.9043 61.8337,-50.2454 52.5649,-42.3022"/>
<polygon fill="#2e3436" stroke="#2e3436" points="46.7072,-37.2094 54.5816,-39.5834 49.8653,-39.2925 52.6952,-41.753 52.3672,-42.1303 52.0391,-42.5077 49.2091,-40.0472 50.1527,-44.6773 46.7072,-37.2094 46.7072,-37.2094"/>
<text text-anchor="middle" x="98.5" y="-58.8" font-family="FreeSans" font-size="8.00" fill="#2e3436">KNOWS</text>
</g>
<!-- N3&#45;&gt;N2 -->
<g id="edge8" class="edge"><title>N3&#45;&gt;N2</title>
<path fill="none" stroke="#2e3436" stroke-width="2" d="M137.273,-84.765C133.295,-78.9622 129.174,-72.3872 126,-66 122.676,-59.3109 119.769,-51.7649 117.378,-44.7087"/>
<polygon fill="#2e3436" stroke="#2e3436" points="114.99,-37.3078 120.505,-43.4091 116.617,-40.7231 117.769,-44.2919 117.293,-44.4454 116.817,-44.599 115.666,-41.0301 114.081,-45.4818 114.99,-37.3078 114.99,-37.3078"/>
<text text-anchor="middle" x="141.5" y="-58.8" font-family="FreeSans" font-size="8.00" fill="#2e3436">KNOWS</text>
</g>
<!-- N4 -->
<g id="node5" class="node"><title>N4</title>
<polygon fill="#ffffff" stroke="#ffffff" stroke-width="1.5" points="178,-1 208,-1 220,-13 220,-25 208,-37 178,-37 166,-25 166,-13 178,-1"/>
<path fill="#ffffff" stroke="#ffffff" stroke-width="1.5" d="M208,-1C214,-1 220,-7 220,-13"/>
<path fill="#ffffff" stroke="#ffffff" stroke-width="1.5" d="M220,-25C220,-31 214,-37 208,-37"/>
<path fill="#ffffff" stroke="#ffffff" stroke-width="1.5" d="M178,-37C172,-37 166,-31 166,-25"/>
<path fill="#ffffff" stroke="#ffffff" stroke-width="1.5" d="M166,-13C166,-7 172,-1 178,-1"/>
<polyline fill="none" stroke="#2e3436" stroke-width="1.5" points="178,-1 208,-1 "/>
<path fill="none" stroke="#2e3436" stroke-width="1.5" d="M208,-1C214,-1 220,-7 220,-13"/>
<polyline fill="none" stroke="#2e3436" stroke-width="1.5" points="220,-13 220,-25 "/>
<path fill="none" stroke="#2e3436" stroke-width="1.5" d="M220,-25C220,-31 214,-37 208,-37"/>
<polyline fill="none" stroke="#2e3436" stroke-width="1.5" points="208,-37 178,-37 "/>
<path fill="none" stroke="#2e3436" stroke-width="1.5" d="M178,-37C172,-37 166,-31 166,-25"/>
<polyline fill="none" stroke="#2e3436" stroke-width="1.5" points="166,-25 166,-13 "/>
<path fill="none" stroke="#2e3436" stroke-width="1.5" d="M166,-13C166,-7 172,-1 178,-1"/>
<text text-anchor="middle" x="193" y="-25.8" font-family="FreeSans" font-size="8.00" fill="#1c2021">Node[4]</text>
<polyline fill="none" stroke="#2e3436" stroke-width="1.5" points="166,-19 220,-19 "/>
<text text-anchor="start" x="174" y="-7.8" font-family="FreeSans" font-size="8.00" fill="#1c2021">name = &#39;B&#39;</text>
</g>
<!-- N3&#45;&gt;N4 -->
<g id="edge2" class="edge"><title>N3&#45;&gt;N4</title>
<path fill="none" stroke="#2e3436" stroke-width="2" d="M160.113,-84.7733C166.057,-72.8851 173.896,-57.2081 180.429,-44.1413"/>
<polygon fill="#2e3436" stroke="#2e3436" points="183.904,-37.1912 183.569,-45.4088 182.675,-40.7689 180.997,-44.123 180.55,-43.8994 180.103,-43.6758 181.78,-40.3217 177.532,-42.39 183.904,-37.1912 183.904,-37.1912"/>
<text text-anchor="middle" x="188.5" y="-58.8" font-family="FreeSans" font-size="8.00" fill="#2e3436">KNOWS</text>
</g>
<!-- N5 -->
<g id="node7" class="node"><title>N5</title>
<polygon fill="#ffffff" stroke="#ffffff" stroke-width="1.5" points="260.5,-1 291.5,-1 303.5,-13 303.5,-25 291.5,-37 260.5,-37 248.5,-25 248.5,-13 260.5,-1"/>
<path fill="#ffffff" stroke="#ffffff" stroke-width="1.5" d="M291.5,-1C297.5,-1 303.5,-7 303.5,-13"/>
<path fill="#ffffff" stroke="#ffffff" stroke-width="1.5" d="M303.5,-25C303.5,-31 297.5,-37 291.5,-37"/>
<path fill="#ffffff" stroke="#ffffff" stroke-width="1.5" d="M260.5,-37C254.5,-37 248.5,-31 248.5,-25"/>
<path fill="#ffffff" stroke="#ffffff" stroke-width="1.5" d="M248.5,-13C248.5,-7 254.5,-1 260.5,-1"/>
<polyline fill="none" stroke="#2e3436" stroke-width="1.5" points="260.5,-1 291.5,-1 "/>
<path fill="none" stroke="#2e3436" stroke-width="1.5" d="M291.5,-1C297.5,-1 303.5,-7 303.5,-13"/>
<polyline fill="none" stroke="#2e3436" stroke-width="1.5" points="303.5,-13 303.5,-25 "/>
<path fill="none" stroke="#2e3436" stroke-width="1.5" d="M303.5,-25C303.5,-31 297.5,-37 291.5,-37"/>
<polyline fill="none" stroke="#2e3436" stroke-width="1.5" points="291.5,-37 260.5,-37 "/>
<path fill="none" stroke="#2e3436" stroke-width="1.5" d="M260.5,-37C254.5,-37 248.5,-31 248.5,-25"/>
<polyline fill="none" stroke="#2e3436" stroke-width="1.5" points="248.5,-25 248.5,-13 "/>
<path fill="none" stroke="#2e3436" stroke-width="1.5" d="M248.5,-13C248.5,-7 254.5,-1 260.5,-1"/>
<text text-anchor="middle" x="276" y="-25.8" font-family="FreeSans" font-size="8.00" fill="#1c2021">Node[5]</text>
<polyline fill="none" stroke="#2e3436" stroke-width="1.5" points="248.5,-19 303.5,-19 "/>
<text text-anchor="start" x="256.5" y="-7.8" font-family="FreeSans" font-size="8.00" fill="#1c2021">name = &#39;C&#39;</text>
</g>
<!-- N3&#45;&gt;N5 -->
<g id="edge4" class="edge"><title>N3&#45;&gt;N5</title>
<path fill="none" stroke="#2e3436" stroke-width="2" d="M178.148,-86.8393C188.533,-80.5067 200.419,-73.0739 211,-66 222.516,-58.3007 234.897,-49.4882 245.732,-41.5903"/>
<polygon fill="#2e3436" stroke="#2e3436" points="251.914,-37.0611 247.859,-44.216 249.185,-39.6806 246.16,-41.8968 245.864,-41.4934 245.569,-41.0901 248.594,-38.8739 243.869,-38.7709 251.914,-37.0611 251.914,-37.0611"/>
<text text-anchor="middle" x="240.5" y="-58.8" font-family="FreeSans" font-size="8.00" fill="#2e3436">KNOWS</text>
</g>
</g>
</svg>
