<?xml version="1.0" encoding="UTF-8" standalone="no"?>
<!DOCTYPE svg PUBLIC "-//W3C//DTD SVG 1.1//EN"
 "http://www.w3.org/Graphics/SVG/1.1/DTD/svg11.dtd">
<!-- Generated by graphviz version 2.26.3 (20100126.1600)
 -->
<!-- Title: g Pages: 1 -->
<svg width="504pt" height="92pt"
 viewBox="0.00 0.00 504.00 92.00" xmlns="http://www.w3.org/2000/svg" xmlns:xlink="http://www.w3.org/1999/xlink">
<g id="graph1" class="graph" transform="scale(0.429897 0.429897) rotate(0) translate(4 210)">
<title>g</title>
<polygon fill="white" stroke="white" points="-4,5 -4,-210 1169.37,-210 1169.37,5 -4,5"/>
<!-- N1 -->
<g id="node1" class="node"><title>N1</title>
<polygon fill="#ffffff" stroke="#ffffff" stroke-width="1.5" points="150.873,-85 211.873,-85 223.873,-97 223.873,-109 211.873,-121 150.873,-121 138.873,-109 138.873,-97 150.873,-85"/>
<path fill="#ffffff" stroke="#ffffff" stroke-width="1.5" d="M211.873,-85C217.873,-85 223.873,-91 223.873,-97"/>
<path fill="#ffffff" stroke="#ffffff" stroke-width="1.5" d="M223.873,-109C223.873,-115 217.873,-121 211.873,-121"/>
<path fill="#ffffff" stroke="#ffffff" stroke-width="1.5" d="M150.873,-121C144.873,-121 138.873,-115 138.873,-109"/>
<path fill="#ffffff" stroke="#ffffff" stroke-width="1.5" d="M138.873,-97C138.873,-91 144.873,-85 150.873,-85"/>
<polyline fill="none" stroke="#2e3436" stroke-width="1.5" points="150.873,-85 211.873,-85 "/>
<path fill="none" stroke="#2e3436" stroke-width="1.5" d="M211.873,-85C217.873,-85 223.873,-91 223.873,-97"/>
<polyline fill="none" stroke="#2e3436" stroke-width="1.5" points="223.873,-97 223.873,-109 "/>
<path fill="none" stroke="#2e3436" stroke-width="1.5" d="M223.873,-109C223.873,-115 217.873,-121 211.873,-121"/>
<polyline fill="none" stroke="#2e3436" stroke-width="1.5" points="211.873,-121 150.873,-121 "/>
<path fill="none" stroke="#2e3436" stroke-width="1.5" d="M150.873,-121C144.873,-121 138.873,-115 138.873,-109"/>
<polyline fill="none" stroke="#2e3436" stroke-width="1.5" points="138.873,-109 138.873,-97 "/>
<path fill="none" stroke="#2e3436" stroke-width="1.5" d="M138.873,-97C138.873,-91 144.873,-85 150.873,-85"/>
<text text-anchor="start" x="146.873" y="-100.8" font-family="FreeSans" font-size="8.00" fill="#1c2021">name = &#39;U2G2R34&#39;</text>
</g>
<!-- N12 -->
<g id="node3" class="node"><title>N12</title>
<polygon fill="#ffffff" stroke="#ffffff" stroke-width="1.5" points="14.3733,-1 66.3733,-1 78.3733,-13 78.3733,-25 66.3733,-37 14.3733,-37 2.37334,-25 2.37334,-13 14.3733,-1"/>
<path fill="#ffffff" stroke="#ffffff" stroke-width="1.5" d="M66.3733,-1C72.3733,-1 78.3733,-7 78.3733,-13"/>
<path fill="#ffffff" stroke="#ffffff" stroke-width="1.5" d="M78.3733,-25C78.3733,-31 72.3733,-37 66.3733,-37"/>
<path fill="#ffffff" stroke="#ffffff" stroke-width="1.5" d="M14.3733,-37C8.37334,-37 2.37334,-31 2.37334,-25"/>
<path fill="#ffffff" stroke="#ffffff" stroke-width="1.5" d="M2.37334,-13C2.37334,-7 8.37334,-1 14.3733,-1"/>
<polyline fill="none" stroke="#2e3436" stroke-width="1.5" points="14.3733,-1 66.3733,-1 "/>
<path fill="none" stroke="#2e3436" stroke-width="1.5" d="M66.3733,-1C72.3733,-1 78.3733,-7 78.3733,-13"/>
<polyline fill="none" stroke="#2e3436" stroke-width="1.5" points="78.3733,-13 78.3733,-25 "/>
<path fill="none" stroke="#2e3436" stroke-width="1.5" d="M78.3733,-25C78.3733,-31 72.3733,-37 66.3733,-37"/>
<polyline fill="none" stroke="#2e3436" stroke-width="1.5" points="66.3733,-37 14.3733,-37 "/>
<path fill="none" stroke="#2e3436" stroke-width="1.5" d="M14.3733,-37C8.37334,-37 2.37334,-31 2.37334,-25"/>
<polyline fill="none" stroke="#2e3436" stroke-width="1.5" points="2.37334,-25 2.37334,-13 "/>
<path fill="none" stroke="#2e3436" stroke-width="1.5" d="M2.37334,-13C2.37334,-7 8.37334,-1 14.3733,-1"/>
<text text-anchor="start" x="10.3733" y="-16.8" font-family="FreeSans" font-size="8.00" fill="#1c2021">name = &#39;Group2&#39;</text>
</g>
<!-- N1&#45;&gt;N12 -->
<g id="edge2" class="edge"><title>N1&#45;&gt;N12</title>
<path fill="none" stroke="#2e3436" stroke-width="2" d="M138.665,-100.18C91.5345,-96.0744 20.1049,-86.5671 3.37334,-66 -2.73675,-58.4892 0.511364,-50.2152 7.11166,-42.7301"/>
<polygon fill="#2e3436" stroke="#2e3436" points="12.7129,-37.1857 9.75691,-44.8606 10.3995,-40.1792 7.73435,-42.8173 7.38261,-42.4619 7.03086,-42.1066 9.69601,-39.4685 5.00831,-40.0633 12.7129,-37.1857 12.7129,-37.1857"/>
<text text-anchor="middle" x="21.3733" y="-58.8" font-family="FreeSans" font-size="8.00" fill="#2e3436">hasGroup</text>
</g>
<!-- N13 -->
<g id="node5" class="node"><title>N13</title>
<polygon fill="#ffffff" stroke="#ffffff" stroke-width="1.5" points="186.373,-1 232.373,-1 244.373,-13 244.373,-25 232.373,-37 186.373,-37 174.373,-25 174.373,-13 186.373,-1"/>
<path fill="#ffffff" stroke="#ffffff" stroke-width="1.5" d="M232.373,-1C238.373,-1 244.373,-7 244.373,-13"/>
<path fill="#ffffff" stroke="#ffffff" stroke-width="1.5" d="M244.373,-25C244.373,-31 238.373,-37 232.373,-37"/>
<path fill="#ffffff" stroke="#ffffff" stroke-width="1.5" d="M186.373,-37C180.373,-37 174.373,-31 174.373,-25"/>
<path fill="#ffffff" stroke="#ffffff" stroke-width="1.5" d="M174.373,-13C174.373,-7 180.373,-1 186.373,-1"/>
<polyline fill="none" stroke="#2e3436" stroke-width="1.5" points="186.373,-1 232.373,-1 "/>
<path fill="none" stroke="#2e3436" stroke-width="1.5" d="M232.373,-1C238.373,-1 244.373,-7 244.373,-13"/>
<polyline fill="none" stroke="#2e3436" stroke-width="1.5" points="244.373,-13 244.373,-25 "/>
<path fill="none" stroke="#2e3436" stroke-width="1.5" d="M244.373,-25C244.373,-31 238.373,-37 232.373,-37"/>
<polyline fill="none" stroke="#2e3436" stroke-width="1.5" points="232.373,-37 186.373,-37 "/>
<path fill="none" stroke="#2e3436" stroke-width="1.5" d="M186.373,-37C180.373,-37 174.373,-31 174.373,-25"/>
<polyline fill="none" stroke="#2e3436" stroke-width="1.5" points="174.373,-25 174.373,-13 "/>
<path fill="none" stroke="#2e3436" stroke-width="1.5" d="M174.373,-13C174.373,-7 180.373,-1 186.373,-1"/>
<text text-anchor="start" x="182.373" y="-16.8" font-family="FreeSans" font-size="8.00" fill="#1c2021">name = &#39;Role3&#39;</text>
</g>
<!-- N1&#45;&gt;N13 -->
<g id="edge4" class="edge"><title>N1&#45;&gt;N13</title>
<path fill="none" stroke="#4e9a06" stroke-width="2" d="M153.438,-84.965C144.081,-76.5873 137.38,-66.2309 143.373,-56 148.93,-46.5145 157.907,-39.2767 167.474,-33.8306"/>
<polygon fill="#4e9a06" stroke="#4e9a06" points="174.157,-30.3409 169.071,-36.8042 171.064,-32.52 167.74,-34.2558 167.509,-33.8126 167.277,-33.3693 170.601,-31.6335 165.946,-30.8209 174.157,-30.3409 174.157,-30.3409"/>
<text text-anchor="middle" x="158.373" y="-58.8" font-family="FreeSans" font-size="8.00" fill="#4e9a06">hasRole</text>
</g>
<!-- N7 -->
<g id="node7" class="node"><title>N7</title>
<polygon fill="#ffffff" stroke="#ffffff" stroke-width="1.5" points="336.373,-1 382.373,-1 394.373,-13 394.373,-25 382.373,-37 336.373,-37 324.373,-25 324.373,-13 336.373,-1"/>
<path fill="#ffffff" stroke="#ffffff" stroke-width="1.5" d="M382.373,-1C388.373,-1 394.373,-7 394.373,-13"/>
<path fill="#ffffff" stroke="#ffffff" stroke-width="1.5" d="M394.373,-25C394.373,-31 388.373,-37 382.373,-37"/>
<path fill="#ffffff" stroke="#ffffff" stroke-width="1.5" d="M336.373,-37C330.373,-37 324.373,-31 324.373,-25"/>
<path fill="#ffffff" stroke="#ffffff" stroke-width="1.5" d="M324.373,-13C324.373,-7 330.373,-1 336.373,-1"/>
<polyline fill="none" stroke="#2e3436" stroke-width="1.5" points="336.373,-1 382.373,-1 "/>
<path fill="none" stroke="#2e3436" stroke-width="1.5" d="M382.373,-1C388.373,-1 394.373,-7 394.373,-13"/>
<polyline fill="none" stroke="#2e3436" stroke-width="1.5" points="394.373,-13 394.373,-25 "/>
<path fill="none" stroke="#2e3436" stroke-width="1.5" d="M394.373,-25C394.373,-31 388.373,-37 382.373,-37"/>
<polyline fill="none" stroke="#2e3436" stroke-width="1.5" points="382.373,-37 336.373,-37 "/>
<path fill="none" stroke="#2e3436" stroke-width="1.5" d="M336.373,-37C330.373,-37 324.373,-31 324.373,-25"/>
<polyline fill="none" stroke="#2e3436" stroke-width="1.5" points="324.373,-25 324.373,-13 "/>
<path fill="none" stroke="#2e3436" stroke-width="1.5" d="M324.373,-13C324.373,-7 330.373,-1 336.373,-1"/>
<text text-anchor="start" x="332.373" y="-16.8" font-family="FreeSans" font-size="8.00" fill="#1c2021">name = &#39;Role4&#39;</text>
</g>
<!-- N1&#45;&gt;N7 -->
<g id="edge6" class="edge"><title>N1&#45;&gt;N7</title>
<path fill="none" stroke="#4e9a06" stroke-width="2" d="M224.053,-91.0977C256.611,-81.8611 297.082,-69.9799 304.373,-66 315.877,-59.7206 327.14,-50.7519 336.448,-42.3294"/>
<polygon fill="#4e9a06" stroke="#4e9a06" points="341.975,-37.1847 338.785,-44.765 339.571,-40.1056 336.826,-42.6606 336.485,-42.2946 336.145,-41.9286 338.89,-39.3736 334.186,-39.8241 341.975,-37.1847 341.975,-37.1847"/>
<text text-anchor="middle" x="333.373" y="-58.8" font-family="FreeSans" font-size="8.00" fill="#4e9a06">hasRole</text>
</g>
<!-- N2 -->
<g id="node8" class="node"><title>N2</title>
<polygon fill="#ffffff" stroke="#ffffff" stroke-width="1.5" points="398.873,-85 459.873,-85 471.873,-97 471.873,-109 459.873,-121 398.873,-121 386.873,-109 386.873,-97 398.873,-85"/>
<path fill="#ffffff" stroke="#ffffff" stroke-width="1.5" d="M459.873,-85C465.873,-85 471.873,-91 471.873,-97"/>
<path fill="#ffffff" stroke="#ffffff" stroke-width="1.5" d="M471.873,-109C471.873,-115 465.873,-121 459.873,-121"/>
<path fill="#ffffff" stroke="#ffffff" stroke-width="1.5" d="M398.873,-121C392.873,-121 386.873,-115 386.873,-109"/>
<path fill="#ffffff" stroke="#ffffff" stroke-width="1.5" d="M386.873,-97C386.873,-91 392.873,-85 398.873,-85"/>
<polyline fill="none" stroke="#2e3436" stroke-width="1.5" points="398.873,-85 459.873,-85 "/>
<path fill="none" stroke="#2e3436" stroke-width="1.5" d="M459.873,-85C465.873,-85 471.873,-91 471.873,-97"/>
<polyline fill="none" stroke="#2e3436" stroke-width="1.5" points="471.873,-97 471.873,-109 "/>
<path fill="none" stroke="#2e3436" stroke-width="1.5" d="M471.873,-109C471.873,-115 465.873,-121 459.873,-121"/>
<polyline fill="none" stroke="#2e3436" stroke-width="1.5" points="459.873,-121 398.873,-121 "/>
<path fill="none" stroke="#2e3436" stroke-width="1.5" d="M398.873,-121C392.873,-121 386.873,-115 386.873,-109"/>
<polyline fill="none" stroke="#2e3436" stroke-width="1.5" points="386.873,-109 386.873,-97 "/>
<path fill="none" stroke="#2e3436" stroke-width="1.5" d="M386.873,-97C386.873,-91 392.873,-85 398.873,-85"/>
<text text-anchor="start" x="394.873" y="-100.8" font-family="FreeSans" font-size="8.00" fill="#1c2021">name = &#39;U1G3R34&#39;</text>
</g>
<!-- N2&#45;&gt;N13 -->
<g id="edge10" class="edge"><title>N2&#45;&gt;N13</title>
<path fill="none" stroke="#4e9a06" stroke-width="2" d="M386.852,-89.4647C380.038,-87.5017 373.037,-85.6052 366.373,-84 322.896,-73.5268 308.015,-84.6607 267.373,-66 254.771,-60.2135 242.57,-51.0533 232.638,-42.3506"/>
<polygon fill="#4e9a06" stroke="#4e9a06" points="227.066,-37.3083 234.892,-39.8383 230.182,-39.4538 232.963,-41.97 232.627,-42.3408 232.292,-42.7115 229.511,-40.1953 230.363,-44.8432 227.066,-37.3083 227.066,-37.3083"/>
<text text-anchor="middle" x="282.373" y="-58.8" font-family="FreeSans" font-size="8.00" fill="#4e9a06">hasRole</text>
</g>
<!-- N2&#45;&gt;N7 -->
<g id="edge12" class="edge"><title>N2&#45;&gt;N7</title>
<path fill="none" stroke="#4e9a06" stroke-width="2" d="M414.184,-84.7733C404.002,-72.5549 390.485,-56.3342 379.422,-43.0586"/>
<polygon fill="#4e9a06" stroke="#4e9a06" points="374.533,-37.1912 381.927,-40.7922 377.317,-39.7519 379.718,-42.6328 379.334,-42.9529 378.95,-43.273 376.549,-40.3921 376.741,-45.1135 374.533,-37.1912 374.533,-37.1912"/>
<text text-anchor="middle" x="411.373" y="-58.8" font-family="FreeSans" font-size="8.00" fill="#4e9a06">hasRole</text>
</g>
<!-- N14 -->
<g id="node10" class="node"><title>N14</title>
<polygon fill="#ffffff" stroke="#ffffff" stroke-width="1.5" points="458.373,-1 510.373,-1 522.373,-13 522.373,-25 510.373,-37 458.373,-37 446.373,-25 446.373,-13 458.373,-1"/>
<path fill="#ffffff" stroke="#ffffff" stroke-width="1.5" d="M510.373,-1C516.373,-1 522.373,-7 522.373,-13"/>
<path fill="#ffffff" stroke="#ffffff" stroke-width="1.5" d="M522.373,-25C522.373,-31 516.373,-37 510.373,-37"/>
<path fill="#ffffff" stroke="#ffffff" stroke-width="1.5" d="M458.373,-37C452.373,-37 446.373,-31 446.373,-25"/>
<path fill="#ffffff" stroke="#ffffff" stroke-width="1.5" d="M446.373,-13C446.373,-7 452.373,-1 458.373,-1"/>
<polyline fill="none" stroke="#2e3436" stroke-width="1.5" points="458.373,-1 510.373,-1 "/>
<path fill="none" stroke="#2e3436" stroke-width="1.5" d="M510.373,-1C516.373,-1 522.373,-7 522.373,-13"/>
<polyline fill="none" stroke="#2e3436" stroke-width="1.5" points="522.373,-13 522.373,-25 "/>
<path fill="none" stroke="#2e3436" stroke-width="1.5" d="M522.373,-25C522.373,-31 516.373,-37 510.373,-37"/>
<polyline fill="none" stroke="#2e3436" stroke-width="1.5" points="510.373,-37 458.373,-37 "/>
<path fill="none" stroke="#2e3436" stroke-width="1.5" d="M458.373,-37C452.373,-37 446.373,-31 446.373,-25"/>
<polyline fill="none" stroke="#2e3436" stroke-width="1.5" points="446.373,-25 446.373,-13 "/>
<path fill="none" stroke="#2e3436" stroke-width="1.5" d="M446.373,-13C446.373,-7 452.373,-1 458.373,-1"/>
<text text-anchor="start" x="454.373" y="-16.8" font-family="FreeSans" font-size="8.00" fill="#1c2021">name = &#39;Group3&#39;</text>
</g>
<!-- N2&#45;&gt;N14 -->
<g id="edge8" class="edge"><title>N2&#45;&gt;N14</title>
<path fill="none" stroke="#2e3436" stroke-width="2" d="M441.308,-84.7733C449.163,-72.7751 459.546,-56.9174 468.149,-43.779"/>
<polygon fill="#2e3436" stroke="#2e3436" points="472.462,-37.1912 471.178,-45.3146 470.827,-40.6024 468.772,-43.7397 468.354,-43.4658 467.936,-43.1919 469.99,-40.0546 465.53,-41.617 472.462,-37.1912 472.462,-37.1912"/>
<text text-anchor="middle" x="476.373" y="-58.8" font-family="FreeSans" font-size="8.00" fill="#2e3436">hasGroup</text>
</g>
<!-- N3 -->
<g id="node13" class="node"><title>N3</title>
<polygon fill="#ffffff" stroke="#ffffff" stroke-width="1.5" points="426.873,-169 473.873,-169 485.873,-181 485.873,-193 473.873,-205 426.873,-205 414.873,-193 414.873,-181 426.873,-169"/>
<path fill="#ffffff" stroke="#ffffff" stroke-width="1.5" d="M473.873,-169C479.873,-169 485.873,-175 485.873,-181"/>
<path fill="#ffffff" stroke="#ffffff" stroke-width="1.5" d="M485.873,-193C485.873,-199 479.873,-205 473.873,-205"/>
<path fill="#ffffff" stroke="#ffffff" stroke-width="1.5" d="M426.873,-205C420.873,-205 414.873,-199 414.873,-193"/>
<path fill="#ffffff" stroke="#ffffff" stroke-width="1.5" d="M414.873,-181C414.873,-175 420.873,-169 426.873,-169"/>
<polyline fill="none" stroke="#2e3436" stroke-width="1.5" points="426.873,-169 473.873,-169 "/>
<path fill="none" stroke="#2e3436" stroke-width="1.5" d="M473.873,-169C479.873,-169 485.873,-175 485.873,-181"/>
<polyline fill="none" stroke="#2e3436" stroke-width="1.5" points="485.873,-181 485.873,-193 "/>
<path fill="none" stroke="#2e3436" stroke-width="1.5" d="M485.873,-193C485.873,-199 479.873,-205 473.873,-205"/>
<polyline fill="none" stroke="#2e3436" stroke-width="1.5" points="473.873,-205 426.873,-205 "/>
<path fill="none" stroke="#2e3436" stroke-width="1.5" d="M426.873,-205C420.873,-205 414.873,-199 414.873,-193"/>
<polyline fill="none" stroke="#2e3436" stroke-width="1.5" points="414.873,-193 414.873,-181 "/>
<path fill="none" stroke="#2e3436" stroke-width="1.5" d="M414.873,-181C414.873,-175 420.873,-169 426.873,-169"/>
<text text-anchor="start" x="422.873" y="-184.8" font-family="FreeSans" font-size="8.00" fill="#1c2021">name = &#39;User2&#39;</text>
</g>
<!-- N3&#45;&gt;N1 -->
<g id="edge16" class="edge"><title>N3&#45;&gt;N1</title>
<path fill="none" stroke="#a40000" stroke-width="2" d="M414.72,-181.176C380.91,-175.148 328.948,-164.562 285.373,-150 264.636,-143.07 242.452,-133.381 223.922,-124.6"/>
<polygon fill="#a40000" stroke="#a40000" points="216.748,-121.159 224.97,-121.359 220.346,-122.33 223.727,-123.951 223.511,-124.402 223.294,-124.853 219.913,-123.232 222.051,-127.445 216.748,-121.159 216.748,-121.159"/>
<text text-anchor="middle" x="314.873" y="-142.8" font-family="FreeSans" font-size="8.00" fill="#a40000">hasRoleInGroup</text>
</g>
<!-- N9 -->
<g id="node15" class="node"><title>N9</title>
<polygon fill="#ffffff" stroke="#ffffff" stroke-width="1.5" points="766.873,-85 827.873,-85 839.873,-97 839.873,-109 827.873,-121 766.873,-121 754.873,-109 754.873,-97 766.873,-85"/>
<path fill="#ffffff" stroke="#ffffff" stroke-width="1.5" d="M827.873,-85C833.873,-85 839.873,-91 839.873,-97"/>
<path fill="#ffffff" stroke="#ffffff" stroke-width="1.5" d="M839.873,-109C839.873,-115 833.873,-121 827.873,-121"/>
<path fill="#ffffff" stroke="#ffffff" stroke-width="1.5" d="M766.873,-121C760.873,-121 754.873,-115 754.873,-109"/>
<path fill="#ffffff" stroke="#ffffff" stroke-width="1.5" d="M754.873,-97C754.873,-91 760.873,-85 766.873,-85"/>
<polyline fill="none" stroke="#2e3436" stroke-width="1.5" points="766.873,-85 827.873,-85 "/>
<path fill="none" stroke="#2e3436" stroke-width="1.5" d="M827.873,-85C833.873,-85 839.873,-91 839.873,-97"/>
<polyline fill="none" stroke="#2e3436" stroke-width="1.5" points="839.873,-97 839.873,-109 "/>
<path fill="none" stroke="#2e3436" stroke-width="1.5" d="M839.873,-109C839.873,-115 833.873,-121 827.873,-121"/>
<polyline fill="none" stroke="#2e3436" stroke-width="1.5" points="827.873,-121 766.873,-121 "/>
<path fill="none" stroke="#2e3436" stroke-width="1.5" d="M766.873,-121C760.873,-121 754.873,-115 754.873,-109"/>
<polyline fill="none" stroke="#2e3436" stroke-width="1.5" points="754.873,-109 754.873,-97 "/>
<path fill="none" stroke="#2e3436" stroke-width="1.5" d="M754.873,-97C754.873,-91 760.873,-85 766.873,-85"/>
<text text-anchor="start" x="762.873" y="-100.8" font-family="FreeSans" font-size="8.00" fill="#1c2021">name = &#39;U2G1R25&#39;</text>
</g>
<!-- N3&#45;&gt;N9 -->
<g id="edge14" class="edge"><title>N3&#45;&gt;N9</title>
<path fill="none" stroke="#a40000" stroke-width="2" d="M485.915,-172.694C490.734,-170.99 495.647,-169.372 500.373,-168 538.712,-156.873 549.342,-158.38 588.373,-150 642.743,-138.327 704.9,-124.256 747.199,-114.571"/>
<polygon fill="#a40000" stroke="#a40000" points="754.597,-112.875 748.041,-117.84 751.054,-114.2 747.399,-115.038 747.287,-114.551 747.175,-114.063 750.83,-113.225 746.533,-111.261 754.597,-112.875 754.597,-112.875"/>
<text text-anchor="middle" x="662.873" y="-142.8" font-family="FreeSans" font-size="8.00" fill="#a40000">hasRoleInGroup</text>
</g>
<!-- N17 -->
<g id="node18" class="node"><title>N17</title>
<polygon fill="#ffffff" stroke="#ffffff" stroke-width="1.5" points="539.873,-85 600.873,-85 612.873,-97 612.873,-109 600.873,-121 539.873,-121 527.873,-109 527.873,-97 539.873,-85"/>
<path fill="#ffffff" stroke="#ffffff" stroke-width="1.5" d="M600.873,-85C606.873,-85 612.873,-91 612.873,-97"/>
<path fill="#ffffff" stroke="#ffffff" stroke-width="1.5" d="M612.873,-109C612.873,-115 606.873,-121 600.873,-121"/>
<path fill="#ffffff" stroke="#ffffff" stroke-width="1.5" d="M539.873,-121C533.873,-121 527.873,-115 527.873,-109"/>
<path fill="#ffffff" stroke="#ffffff" stroke-width="1.5" d="M527.873,-97C527.873,-91 533.873,-85 539.873,-85"/>
<polyline fill="none" stroke="#2e3436" stroke-width="1.5" points="539.873,-85 600.873,-85 "/>
<path fill="none" stroke="#2e3436" stroke-width="1.5" d="M600.873,-85C606.873,-85 612.873,-91 612.873,-97"/>
<polyline fill="none" stroke="#2e3436" stroke-width="1.5" points="612.873,-97 612.873,-109 "/>
<path fill="none" stroke="#2e3436" stroke-width="1.5" d="M612.873,-109C612.873,-115 606.873,-121 600.873,-121"/>
<polyline fill="none" stroke="#2e3436" stroke-width="1.5" points="600.873,-121 539.873,-121 "/>
<path fill="none" stroke="#2e3436" stroke-width="1.5" d="M539.873,-121C533.873,-121 527.873,-115 527.873,-109"/>
<polyline fill="none" stroke="#2e3436" stroke-width="1.5" points="527.873,-109 527.873,-97 "/>
<path fill="none" stroke="#2e3436" stroke-width="1.5" d="M527.873,-97C527.873,-91 533.873,-85 539.873,-85"/>
<text text-anchor="start" x="535.873" y="-100.8" font-family="FreeSans" font-size="8.00" fill="#1c2021">name = &#39;U2G3R56&#39;</text>
</g>
<!-- N3&#45;&gt;N17 -->
<g id="edge18" class="edge"><title>N3&#45;&gt;N17</title>
<path fill="none" stroke="#a40000" stroke-width="2" d="M480.449,-168.917C489.837,-163.066 500.146,-156.426 509.373,-150 520.185,-142.471 531.712,-133.774 541.802,-125.923"/>
<polygon fill="#a40000" stroke="#a40000" points="547.879,-121.163 544.056,-128.445 545.235,-123.869 542.283,-126.182 541.975,-125.788 541.666,-125.394 544.618,-123.082 539.893,-123.131 547.879,-121.163 547.879,-121.163"/>
<text text-anchor="middle" x="551.873" y="-142.8" font-family="FreeSans" font-size="8.00" fill="#a40000">hasRoleInGroup</text>
</g>
<!-- N11 -->
<g id="node28" class="node"><title>N11</title>
<polygon fill="#ffffff" stroke="#ffffff" stroke-width="1.5" points="838.373,-1 884.373,-1 896.373,-13 896.373,-25 884.373,-37 838.373,-37 826.373,-25 826.373,-13 838.373,-1"/>
<path fill="#ffffff" stroke="#ffffff" stroke-width="1.5" d="M884.373,-1C890.373,-1 896.373,-7 896.373,-13"/>
<path fill="#ffffff" stroke="#ffffff" stroke-width="1.5" d="M896.373,-25C896.373,-31 890.373,-37 884.373,-37"/>
<path fill="#ffffff" stroke="#ffffff" stroke-width="1.5" d="M838.373,-37C832.373,-37 826.373,-31 826.373,-25"/>
<path fill="#ffffff" stroke="#ffffff" stroke-width="1.5" d="M826.373,-13C826.373,-7 832.373,-1 838.373,-1"/>
<polyline fill="none" stroke="#2e3436" stroke-width="1.5" points="838.373,-1 884.373,-1 "/>
<path fill="none" stroke="#2e3436" stroke-width="1.5" d="M884.373,-1C890.373,-1 896.373,-7 896.373,-13"/>
<polyline fill="none" stroke="#2e3436" stroke-width="1.5" points="896.373,-13 896.373,-25 "/>
<path fill="none" stroke="#2e3436" stroke-width="1.5" d="M896.373,-25C896.373,-31 890.373,-37 884.373,-37"/>
<polyline fill="none" stroke="#2e3436" stroke-width="1.5" points="884.373,-37 838.373,-37 "/>
<path fill="none" stroke="#2e3436" stroke-width="1.5" d="M838.373,-37C832.373,-37 826.373,-31 826.373,-25"/>
<polyline fill="none" stroke="#2e3436" stroke-width="1.5" points="826.373,-25 826.373,-13 "/>
<path fill="none" stroke="#2e3436" stroke-width="1.5" d="M826.373,-13C826.373,-7 832.373,-1 838.373,-1"/>
<text text-anchor="start" x="834.373" y="-16.8" font-family="FreeSans" font-size="8.00" fill="#1c2021">name = &#39;Role2&#39;</text>
</g>
<!-- N9&#45;&gt;N11 -->
<g id="edge34" class="edge"><title>N9&#45;&gt;N11</title>
<path fill="none" stroke="#4e9a06" stroke-width="2" d="M813.141,-84.8086C818.122,-78.8965 823.576,-72.2483 828.373,-66 833.859,-58.8554 839.582,-50.9001 844.693,-43.596"/>
<polygon fill="#4e9a06" stroke="#4e9a06" points="849.189,-37.1133 847.688,-45.1995 847.463,-40.4796 845.326,-43.5609 844.915,-43.2759 844.504,-42.9909 846.641,-39.9096 842.142,-41.3523 849.189,-37.1133 849.189,-37.1133"/>
<text text-anchor="middle" x="849.373" y="-58.8" font-family="FreeSans" font-size="8.00" fill="#4e9a06">hasRole</text>
</g>
<!-- N8 -->
<g id="node30" class="node"><title>N8</title>
<polygon fill="#ffffff" stroke="#ffffff" stroke-width="1.5" points="696.373,-1 742.373,-1 754.373,-13 754.373,-25 742.373,-37 696.373,-37 684.373,-25 684.373,-13 696.373,-1"/>
<path fill="#ffffff" stroke="#ffffff" stroke-width="1.5" d="M742.373,-1C748.373,-1 754.373,-7 754.373,-13"/>
<path fill="#ffffff" stroke="#ffffff" stroke-width="1.5" d="M754.373,-25C754.373,-31 748.373,-37 742.373,-37"/>
<path fill="#ffffff" stroke="#ffffff" stroke-width="1.5" d="M696.373,-37C690.373,-37 684.373,-31 684.373,-25"/>
<path fill="#ffffff" stroke="#ffffff" stroke-width="1.5" d="M684.373,-13C684.373,-7 690.373,-1 696.373,-1"/>
<polyline fill="none" stroke="#2e3436" stroke-width="1.5" points="696.373,-1 742.373,-1 "/>
<path fill="none" stroke="#2e3436" stroke-width="1.5" d="M742.373,-1C748.373,-1 754.373,-7 754.373,-13"/>
<polyline fill="none" stroke="#2e3436" stroke-width="1.5" points="754.373,-13 754.373,-25 "/>
<path fill="none" stroke="#2e3436" stroke-width="1.5" d="M754.373,-25C754.373,-31 748.373,-37 742.373,-37"/>
<polyline fill="none" stroke="#2e3436" stroke-width="1.5" points="742.373,-37 696.373,-37 "/>
<path fill="none" stroke="#2e3436" stroke-width="1.5" d="M696.373,-37C690.373,-37 684.373,-31 684.373,-25"/>
<polyline fill="none" stroke="#2e3436" stroke-width="1.5" points="684.373,-25 684.373,-13 "/>
<path fill="none" stroke="#2e3436" stroke-width="1.5" d="M684.373,-13C684.373,-7 690.373,-1 696.373,-1"/>
<text text-anchor="start" x="692.373" y="-16.8" font-family="FreeSans" font-size="8.00" fill="#1c2021">name = &#39;Role5&#39;</text>
</g>
<!-- N9&#45;&gt;N8 -->
<g id="edge36" class="edge"><title>N9&#45;&gt;N8</title>
<path fill="none" stroke="#4e9a06" stroke-width="2" d="M754.731,-85.7945C745.96,-80.5657 737.534,-74.022 731.373,-66 726.778,-60.016 723.929,-52.4638 722.167,-45.174"/>
<polygon fill="#4e9a06" stroke="#4e9a06" points="720.651,-37.4534 725.408,-44.1624 721.864,-41.0368 722.587,-44.7165 722.096,-44.8128 721.606,-44.9092 720.883,-41.2295 718.785,-45.4632 720.651,-37.4534 720.651,-37.4534"/>
<text text-anchor="middle" x="746.373" y="-58.8" font-family="FreeSans" font-size="8.00" fill="#4e9a06">hasRole</text>
</g>
<!-- N10 -->
<g id="node32" class="node"><title>N10</title>
<polygon fill="#ffffff" stroke="#ffffff" stroke-width="1.5" points="982.373,-1 1034.37,-1 1046.37,-13 1046.37,-25 1034.37,-37 982.373,-37 970.373,-25 970.373,-13 982.373,-1"/>
<path fill="#ffffff" stroke="#ffffff" stroke-width="1.5" d="M1034.37,-1C1040.37,-1 1046.37,-7 1046.37,-13"/>
<path fill="#ffffff" stroke="#ffffff" stroke-width="1.5" d="M1046.37,-25C1046.37,-31 1040.37,-37 1034.37,-37"/>
<path fill="#ffffff" stroke="#ffffff" stroke-width="1.5" d="M982.373,-37C976.373,-37 970.373,-31 970.373,-25"/>
<path fill="#ffffff" stroke="#ffffff" stroke-width="1.5" d="M970.373,-13C970.373,-7 976.373,-1 982.373,-1"/>
<polyline fill="none" stroke="#2e3436" stroke-width="1.5" points="982.373,-1 1034.37,-1 "/>
<path fill="none" stroke="#2e3436" stroke-width="1.5" d="M1034.37,-1C1040.37,-1 1046.37,-7 1046.37,-13"/>
<polyline fill="none" stroke="#2e3436" stroke-width="1.5" points="1046.37,-13 1046.37,-25 "/>
<path fill="none" stroke="#2e3436" stroke-width="1.5" d="M1046.37,-25C1046.37,-31 1040.37,-37 1034.37,-37"/>
<polyline fill="none" stroke="#2e3436" stroke-width="1.5" points="1034.37,-37 982.373,-37 "/>
<path fill="none" stroke="#2e3436" stroke-width="1.5" d="M982.373,-37C976.373,-37 970.373,-31 970.373,-25"/>
<polyline fill="none" stroke="#2e3436" stroke-width="1.5" points="970.373,-25 970.373,-13 "/>
<path fill="none" stroke="#2e3436" stroke-width="1.5" d="M970.373,-13C970.373,-7 976.373,-1 982.373,-1"/>
<text text-anchor="start" x="978.373" y="-16.8" font-family="FreeSans" font-size="8.00" fill="#1c2021">name = &#39;Group1&#39;</text>
</g>
<!-- N9&#45;&gt;N10 -->
<g id="edge32" class="edge"><title>N9&#45;&gt;N10</title>
<path fill="none" stroke="#2e3436" stroke-width="2" d="M839.904,-98.9967C873.145,-94.5116 919.705,-85.1734 956.373,-66 967.588,-60.1359 978.273,-51.2795 987.008,-42.8299"/>
<polygon fill="#2e3436" stroke="#2e3436" points="992.726,-37.0869 989.826,-44.7831 990.434,-40.0972 987.788,-42.7546 987.434,-42.4018 987.08,-42.0491 989.725,-39.3916 985.042,-40.0206 992.726,-37.0869 992.726,-37.0869"/>
<text text-anchor="middle" x="988.373" y="-58.8" font-family="FreeSans" font-size="8.00" fill="#2e3436">hasGroup</text>
</g>
<!-- N17&#45;&gt;N14 -->
<g id="edge44" class="edge"><title>N17&#45;&gt;N14</title>
<path fill="none" stroke="#2e3436" stroke-width="2" d="M551.713,-84.7733C539.091,-72.4448 522.297,-56.0416 508.638,-42.7005"/>
<polygon fill="#2e3436" stroke="#2e3436" points="502.998,-37.1912 510.721,-40.0173 506.03,-39.4538 508.712,-42.0741 508.363,-42.4318 508.014,-42.7894 505.331,-40.1692 506.005,-44.8462 502.998,-37.1912 502.998,-37.1912"/>
<text text-anchor="middle" x="547.373" y="-58.8" font-family="FreeSans" font-size="8.00" fill="#2e3436">hasGroup</text>
</g>
<!-- N5 -->
<g id="node25" class="node"><title>N5</title>
<polygon fill="#ffffff" stroke="#ffffff" stroke-width="1.5" points="582.373,-1 628.373,-1 640.373,-13 640.373,-25 628.373,-37 582.373,-37 570.373,-25 570.373,-13 582.373,-1"/>
<path fill="#ffffff" stroke="#ffffff" stroke-width="1.5" d="M628.373,-1C634.373,-1 640.373,-7 640.373,-13"/>
<path fill="#ffffff" stroke="#ffffff" stroke-width="1.5" d="M640.373,-25C640.373,-31 634.373,-37 628.373,-37"/>
<path fill="#ffffff" stroke="#ffffff" stroke-width="1.5" d="M582.373,-37C576.373,-37 570.373,-31 570.373,-25"/>
<path fill="#ffffff" stroke="#ffffff" stroke-width="1.5" d="M570.373,-13C570.373,-7 576.373,-1 582.373,-1"/>
<polyline fill="none" stroke="#2e3436" stroke-width="1.5" points="582.373,-1 628.373,-1 "/>
<path fill="none" stroke="#2e3436" stroke-width="1.5" d="M628.373,-1C634.373,-1 640.373,-7 640.373,-13"/>
<polyline fill="none" stroke="#2e3436" stroke-width="1.5" points="640.373,-13 640.373,-25 "/>
<path fill="none" stroke="#2e3436" stroke-width="1.5" d="M640.373,-25C640.373,-31 634.373,-37 628.373,-37"/>
<polyline fill="none" stroke="#2e3436" stroke-width="1.5" points="628.373,-37 582.373,-37 "/>
<path fill="none" stroke="#2e3436" stroke-width="1.5" d="M582.373,-37C576.373,-37 570.373,-31 570.373,-25"/>
<polyline fill="none" stroke="#2e3436" stroke-width="1.5" points="570.373,-25 570.373,-13 "/>
<path fill="none" stroke="#2e3436" stroke-width="1.5" d="M570.373,-13C570.373,-7 576.373,-1 582.373,-1"/>
<text text-anchor="start" x="578.373" y="-16.8" font-family="FreeSans" font-size="8.00" fill="#1c2021">name = &#39;Role6&#39;</text>
</g>
<!-- N17&#45;&gt;N5 -->
<g id="edge48" class="edge"><title>N17&#45;&gt;N5</title>
<path fill="none" stroke="#4e9a06" stroke-width="2" d="M577.968,-84.7733C582.921,-72.8851 589.453,-57.2081 594.898,-44.1413"/>
<polygon fill="#4e9a06" stroke="#4e9a06" points="597.794,-37.1912 598.024,-45.4124 596.813,-40.845 595.371,-44.3066 594.909,-44.1143 594.447,-43.922 595.89,-40.4604 591.794,-42.8162 597.794,-37.1912 597.794,-37.1912"/>
<text text-anchor="middle" x="603.373" y="-58.8" font-family="FreeSans" font-size="8.00" fill="#4e9a06">hasRole</text>
</g>
<!-- N17&#45;&gt;N8 -->
<g id="edge46" class="edge"><title>N17&#45;&gt;N8</title>
<path fill="none" stroke="#4e9a06" stroke-width="2" d="M602.338,-84.9799C625.239,-72.0691 656.205,-54.6118 680.532,-40.8971"/>
<polygon fill="#4e9a06" stroke="#4e9a06" points="687.205,-37.135 682.329,-43.7583 684.184,-39.4122 680.917,-41.2538 680.672,-40.8183 680.426,-40.3827 683.693,-38.5411 679.014,-37.8783 687.205,-37.135 687.205,-37.135"/>
<text text-anchor="middle" x="663.373" y="-58.8" font-family="FreeSans" font-size="8.00" fill="#4e9a06">hasRole</text>
</g>
<!-- N4 -->
<g id="node19" class="node"><title>N4</title>
<polygon fill="#ffffff" stroke="#ffffff" stroke-width="1.5" points="525.873,-169 572.873,-169 584.873,-181 584.873,-193 572.873,-205 525.873,-205 513.873,-193 513.873,-181 525.873,-169"/>
<path fill="#ffffff" stroke="#ffffff" stroke-width="1.5" d="M572.873,-169C578.873,-169 584.873,-175 584.873,-181"/>
<path fill="#ffffff" stroke="#ffffff" stroke-width="1.5" d="M584.873,-193C584.873,-199 578.873,-205 572.873,-205"/>
<path fill="#ffffff" stroke="#ffffff" stroke-width="1.5" d="M525.873,-205C519.873,-205 513.873,-199 513.873,-193"/>
<path fill="#ffffff" stroke="#ffffff" stroke-width="1.5" d="M513.873,-181C513.873,-175 519.873,-169 525.873,-169"/>
<polyline fill="none" stroke="#2e3436" stroke-width="1.5" points="525.873,-169 572.873,-169 "/>
<path fill="none" stroke="#2e3436" stroke-width="1.5" d="M572.873,-169C578.873,-169 584.873,-175 584.873,-181"/>
<polyline fill="none" stroke="#2e3436" stroke-width="1.5" points="584.873,-181 584.873,-193 "/>
<path fill="none" stroke="#2e3436" stroke-width="1.5" d="M584.873,-193C584.873,-199 578.873,-205 572.873,-205"/>
<polyline fill="none" stroke="#2e3436" stroke-width="1.5" points="572.873,-205 525.873,-205 "/>
<path fill="none" stroke="#2e3436" stroke-width="1.5" d="M525.873,-205C519.873,-205 513.873,-199 513.873,-193"/>
<polyline fill="none" stroke="#2e3436" stroke-width="1.5" points="513.873,-193 513.873,-181 "/>
<path fill="none" stroke="#2e3436" stroke-width="1.5" d="M513.873,-181C513.873,-175 519.873,-169 525.873,-169"/>
<text text-anchor="start" x="521.873" y="-184.8" font-family="FreeSans" font-size="8.00" fill="#1c2021">name = &#39;User1&#39;</text>
</g>
<!-- N4&#45;&gt;N2 -->
<g id="edge24" class="edge"><title>N4&#45;&gt;N2</title>
<path fill="none" stroke="#a40000" stroke-width="2" d="M513.612,-172.829C509.169,-171.159 504.677,-169.512 500.373,-168 475.309,-159.193 462.004,-168.939 443.373,-150 437.731,-144.264 434.346,-136.359 432.322,-128.667"/>
<polygon fill="#a40000" stroke="#a40000" points="430.717,-121.135 435.581,-127.767 431.988,-124.698 432.769,-128.366 432.28,-128.47 431.791,-128.574 431.01,-124.906 428.979,-129.173 430.717,-121.135 430.717,-121.135"/>
<text text-anchor="middle" x="472.873" y="-142.8" font-family="FreeSans" font-size="8.00" fill="#a40000">hasRoleInGroup</text>
</g>
<!-- N15 -->
<g id="node21" class="node"><title>N15</title>
<polygon fill="#ffffff" stroke="#ffffff" stroke-width="1.5" points="961.873,-85 1022.87,-85 1034.87,-97 1034.87,-109 1022.87,-121 961.873,-121 949.873,-109 949.873,-97 961.873,-85"/>
<path fill="#ffffff" stroke="#ffffff" stroke-width="1.5" d="M1022.87,-85C1028.87,-85 1034.87,-91 1034.87,-97"/>
<path fill="#ffffff" stroke="#ffffff" stroke-width="1.5" d="M1034.87,-109C1034.87,-115 1028.87,-121 1022.87,-121"/>
<path fill="#ffffff" stroke="#ffffff" stroke-width="1.5" d="M961.873,-121C955.873,-121 949.873,-115 949.873,-109"/>
<path fill="#ffffff" stroke="#ffffff" stroke-width="1.5" d="M949.873,-97C949.873,-91 955.873,-85 961.873,-85"/>
<polyline fill="none" stroke="#2e3436" stroke-width="1.5" points="961.873,-85 1022.87,-85 "/>
<path fill="none" stroke="#2e3436" stroke-width="1.5" d="M1022.87,-85C1028.87,-85 1034.87,-91 1034.87,-97"/>
<polyline fill="none" stroke="#2e3436" stroke-width="1.5" points="1034.87,-97 1034.87,-109 "/>
<path fill="none" stroke="#2e3436" stroke-width="1.5" d="M1034.87,-109C1034.87,-115 1028.87,-121 1022.87,-121"/>
<polyline fill="none" stroke="#2e3436" stroke-width="1.5" points="1022.87,-121 961.873,-121 "/>
<path fill="none" stroke="#2e3436" stroke-width="1.5" d="M961.873,-121C955.873,-121 949.873,-115 949.873,-109"/>
<polyline fill="none" stroke="#2e3436" stroke-width="1.5" points="949.873,-109 949.873,-97 "/>
<path fill="none" stroke="#2e3436" stroke-width="1.5" d="M949.873,-97C949.873,-91 955.873,-85 961.873,-85"/>
<text text-anchor="start" x="957.873" y="-100.8" font-family="FreeSans" font-size="8.00" fill="#1c2021">name = &#39;U1G1R12&#39;</text>
</g>
<!-- N4&#45;&gt;N15 -->
<g id="edge20" class="edge"><title>N4&#45;&gt;N15</title>
<path fill="none" stroke="#a40000" stroke-width="2" d="M584.877,-180.268C663.36,-165.386 851.791,-129.657 942.251,-112.504"/>
<polygon fill="#a40000" stroke="#a40000" points="949.644,-111.102 942.904,-115.815 946.052,-112.292 942.368,-112.991 942.275,-112.5 942.182,-112.008 945.866,-111.31 941.646,-109.184 949.644,-111.102 949.644,-111.102"/>
<text text-anchor="middle" x="812.873" y="-142.8" font-family="FreeSans" font-size="8.00" fill="#a40000">hasRoleInGroup</text>
</g>
<!-- N6 -->
<g id="node23" class="node"><title>N6</title>
<polygon fill="#ffffff" stroke="#ffffff" stroke-width="1.5" points="278.873,-85 339.873,-85 351.873,-97 351.873,-109 339.873,-121 278.873,-121 266.873,-109 266.873,-97 278.873,-85"/>
<path fill="#ffffff" stroke="#ffffff" stroke-width="1.5" d="M339.873,-85C345.873,-85 351.873,-91 351.873,-97"/>
<path fill="#ffffff" stroke="#ffffff" stroke-width="1.5" d="M351.873,-109C351.873,-115 345.873,-121 339.873,-121"/>
<path fill="#ffffff" stroke="#ffffff" stroke-width="1.5" d="M278.873,-121C272.873,-121 266.873,-115 266.873,-109"/>
<path fill="#ffffff" stroke="#ffffff" stroke-width="1.5" d="M266.873,-97C266.873,-91 272.873,-85 278.873,-85"/>
<polyline fill="none" stroke="#2e3436" stroke-width="1.5" points="278.873,-85 339.873,-85 "/>
<path fill="none" stroke="#2e3436" stroke-width="1.5" d="M339.873,-85C345.873,-85 351.873,-91 351.873,-97"/>
<polyline fill="none" stroke="#2e3436" stroke-width="1.5" points="351.873,-97 351.873,-109 "/>
<path fill="none" stroke="#2e3436" stroke-width="1.5" d="M351.873,-109C351.873,-115 345.873,-121 339.873,-121"/>
<polyline fill="none" stroke="#2e3436" stroke-width="1.5" points="339.873,-121 278.873,-121 "/>
<path fill="none" stroke="#2e3436" stroke-width="1.5" d="M278.873,-121C272.873,-121 266.873,-115 266.873,-109"/>
<polyline fill="none" stroke="#2e3436" stroke-width="1.5" points="266.873,-109 266.873,-97 "/>
<path fill="none" stroke="#2e3436" stroke-width="1.5" d="M266.873,-97C266.873,-91 272.873,-85 278.873,-85"/>
<text text-anchor="start" x="274.873" y="-100.8" font-family="FreeSans" font-size="8.00" fill="#1c2021">name = &#39;U1G2R23&#39;</text>
</g>
<!-- N4&#45;&gt;N6 -->
<g id="edge22" class="edge"><title>N4&#45;&gt;N6</title>
<path fill="none" stroke="#a40000" stroke-width="2" d="M513.829,-172.116C509.349,-170.568 504.789,-169.145 500.373,-168 443.912,-153.358 424.165,-172.555 370.373,-150 356.975,-144.382 343.96,-135.064 333.416,-126.2"/>
<polygon fill="#a40000" stroke="#a40000" points="327.51,-121.065 335.385,-123.439 330.668,-123.148 333.498,-125.609 333.17,-125.986 332.842,-126.363 330.012,-123.903 330.956,-128.533 327.51,-121.065 327.51,-121.065"/>
<text text-anchor="middle" x="399.873" y="-142.8" font-family="FreeSans" font-size="8.00" fill="#a40000">hasRoleInGroup</text>
</g>
<!-- N15&#45;&gt;N11 -->
<g id="edge42" class="edge"><title>N15&#45;&gt;N11</title>
<path fill="none" stroke="#4e9a06" stroke-width="2" d="M955.95,-84.8366C945.255,-79.1402 933.67,-72.606 923.373,-66 911.874,-58.6225 899.783,-49.7376 889.363,-41.6881"/>
<polygon fill="#4e9a06" stroke="#4e9a06" points="883.438,-37.063 891.426,-39.0175 886.701,-38.9763 889.657,-41.2838 889.35,-41.678 889.042,-42.0721 886.086,-39.7646 887.273,-44.3384 883.438,-37.063 883.438,-37.063"/>
<text text-anchor="middle" x="938.373" y="-58.8" font-family="FreeSans" font-size="8.00" fill="#4e9a06">hasRole</text>
</g>
<!-- N15&#45;&gt;N10 -->
<g id="edge38" class="edge"><title>N15&#45;&gt;N10</title>
<path fill="none" stroke="#2e3436" stroke-width="2" d="M1013.84,-84.9693C1018.92,-79.4598 1023.65,-72.9905 1026.37,-66 1029.13,-58.917 1027.94,-51.2201 1025.16,-44.1445"/>
<polygon fill="#2e3436" stroke="#2e3436" points="1021.94,-37.3217 1028.19,-42.663 1023.99,-40.4993 1025.59,-43.8904 1025.14,-44.1039 1024.69,-44.3173 1023.09,-40.9263 1022.09,-45.5448 1021.94,-37.3217 1021.94,-37.3217"/>
<text text-anchor="middle" x="1045.37" y="-58.8" font-family="FreeSans" font-size="8.00" fill="#2e3436">hasGroup</text>
</g>
<!-- N16 -->
<g id="node37" class="node"><title>N16</title>
<polygon fill="#ffffff" stroke="#ffffff" stroke-width="1.5" points="1106.37,-1 1152.37,-1 1164.37,-13 1164.37,-25 1152.37,-37 1106.37,-37 1094.37,-25 1094.37,-13 1106.37,-1"/>
<path fill="#ffffff" stroke="#ffffff" stroke-width="1.5" d="M1152.37,-1C1158.37,-1 1164.37,-7 1164.37,-13"/>
<path fill="#ffffff" stroke="#ffffff" stroke-width="1.5" d="M1164.37,-25C1164.37,-31 1158.37,-37 1152.37,-37"/>
<path fill="#ffffff" stroke="#ffffff" stroke-width="1.5" d="M1106.37,-37C1100.37,-37 1094.37,-31 1094.37,-25"/>
<path fill="#ffffff" stroke="#ffffff" stroke-width="1.5" d="M1094.37,-13C1094.37,-7 1100.37,-1 1106.37,-1"/>
<polyline fill="none" stroke="#2e3436" stroke-width="1.5" points="1106.37,-1 1152.37,-1 "/>
<path fill="none" stroke="#2e3436" stroke-width="1.5" d="M1152.37,-1C1158.37,-1 1164.37,-7 1164.37,-13"/>
<polyline fill="none" stroke="#2e3436" stroke-width="1.5" points="1164.37,-13 1164.37,-25 "/>
<path fill="none" stroke="#2e3436" stroke-width="1.5" d="M1164.37,-25C1164.37,-31 1158.37,-37 1152.37,-37"/>
<polyline fill="none" stroke="#2e3436" stroke-width="1.5" points="1152.37,-37 1106.37,-37 "/>
<path fill="none" stroke="#2e3436" stroke-width="1.5" d="M1106.37,-37C1100.37,-37 1094.37,-31 1094.37,-25"/>
<polyline fill="none" stroke="#2e3436" stroke-width="1.5" points="1094.37,-25 1094.37,-13 "/>
<path fill="none" stroke="#2e3436" stroke-width="1.5" d="M1094.37,-13C1094.37,-7 1100.37,-1 1106.37,-1"/>
<text text-anchor="start" x="1102.37" y="-16.8" font-family="FreeSans" font-size="8.00" fill="#1c2021">name = &#39;Role1&#39;</text>
</g>
<!-- N15&#45;&gt;N16 -->
<g id="edge40" class="edge"><title>N15&#45;&gt;N16</title>
<path fill="none" stroke="#4e9a06" stroke-width="2" d="M1035.01,-84.9392C1046.76,-79.3862 1059.31,-72.9021 1070.37,-66 1081.6,-58.9966 1093.15,-50.2008 1103.03,-42.118"/>
<polygon fill="#4e9a06" stroke="#4e9a06" points="1108.94,-37.1999 1105.33,-44.5904 1106.38,-39.9821 1103.5,-42.3799 1103.18,-41.9955 1102.86,-41.611 1105.74,-39.2133 1101.02,-39.4005 1108.94,-37.1999 1108.94,-37.1999"/>
<text text-anchor="middle" x="1098.37" y="-58.8" font-family="FreeSans" font-size="8.00" fill="#4e9a06">hasRole</text>
</g>
<!-- N6&#45;&gt;N12 -->
<g id="edge26" class="edge"><title>N6&#45;&gt;N12</title>
<path fill="none" stroke="#2e3436" stroke-width="2" d="M266.562,-90.7314C257.008,-88.2658 246.889,-85.8635 237.373,-84 176.241,-72.0278 155.63,-90.539 98.3733,-66 85.4277,-60.4518 73.0214,-51.1446 63.0292,-42.2696"/>
<polygon fill="#2e3436" stroke="#2e3436" points="57.4391,-37.1258 65.2434,-39.7207 60.5372,-39.2971 63.2967,-41.8363 62.9581,-42.2042 62.6196,-42.5722 59.86,-40.0329 60.6728,-44.6878 57.4391,-37.1258 57.4391,-37.1258"/>
<text text-anchor="middle" x="116.373" y="-58.8" font-family="FreeSans" font-size="8.00" fill="#2e3436">hasGroup</text>
</g>
<!-- N6&#45;&gt;N13 -->
<g id="edge30" class="edge"><title>N6&#45;&gt;N13</title>
<path fill="none" stroke="#4e9a06" stroke-width="2" d="M266.616,-92.7644C242.019,-85.9157 214.591,-76.2961 207.373,-66 203.173,-60.0084 202.158,-52.4539 202.613,-45.1643"/>
<polygon fill="#4e9a06" stroke="#4e9a06" points="203.602,-37.4449 205.996,-45.3131 203.621,-41.228 203.144,-44.9476 202.648,-44.8841 202.152,-44.8205 202.629,-41.1009 199.301,-44.455 203.602,-37.4449 203.602,-37.4449"/>
<text text-anchor="middle" x="222.373" y="-58.8" font-family="FreeSans" font-size="8.00" fill="#4e9a06">hasRole</text>
</g>
<!-- N6&#45;&gt;N11 -->
<g id="edge28" class="edge"><title>N6&#45;&gt;N11</title>
<path fill="none" stroke="#4e9a06" stroke-width="2" d="M352.069,-88.7715C359.119,-86.8723 366.402,-85.1773 373.373,-84 544.906,-55.0326 595.76,-108.803 764.373,-66 775.83,-63.0917 799.6,-51.6087 820.741,-40.7218"/>
<polygon fill="#4e9a06" stroke="#4e9a06" points="827.494,-37.2197 822.39,-43.6687 824.395,-39.3901 821.067,-41.1165 820.836,-40.6727 820.606,-40.2288 823.935,-38.5023 819.282,-37.6766 827.494,-37.2197 827.494,-37.2197"/>
<text text-anchor="middle" x="802.373" y="-58.8" font-family="FreeSans" font-size="8.00" fill="#4e9a06">hasRole</text>
</g>
</g>
</svg>
