<?xml version="1.0" encoding="UTF-8" standalone="no"?>
<!DOCTYPE svg PUBLIC "-//W3C//DTD SVG 1.1//EN"
 "http://www.w3.org/Graphics/SVG/1.1/DTD/svg11.dtd">
<!-- Generated by graphviz version 2.26.3 (20100126.1600)
 -->
<!-- Title: g Pages: 1 -->
<svg width="177pt" height="150pt"
 viewBox="0.00 0.00 177.00 150.00" xmlns="http://www.w3.org/2000/svg" xmlns:xlink="http://www.w3.org/1999/xlink">
<g id="graph1" class="graph" transform="scale(1 1) rotate(0) translate(4 146)">
<title>g</title>
<polygon fill="white" stroke="white" points="-4,5 -4,-146 174,-146 174,5 -4,5"/>
<!-- N1 -->
<g id="node1" class="node"><title>N1</title>
<polygon fill="#ffffff" stroke="#ffffff" stroke-width="1.5" points="11.5,-1 60.5,-1 72.5,-13 72.5,-35 60.5,-47 11.5,-47 -0.5,-35 -0.5,-13 11.5,-1"/>
<path fill="#ffffff" stroke="#ffffff" stroke-width="1.5" d="M60.5,-1C66.5,-1 72.5,-7 72.5,-13"/>
<path fill="#ffffff" stroke="#ffffff" stroke-width="1.5" d="M72.5,-35C72.5,-41 66.5,-47 60.5,-47"/>
<path fill="#ffffff" stroke="#ffffff" stroke-width="1.5" d="M11.5,-47C5.5,-47 -0.5,-41 -0.5,-35"/>
<path fill="#ffffff" stroke="#ffffff" stroke-width="1.5" d="M-0.5,-13C-0.5,-7 5.5,-1 11.5,-1"/>
<polyline fill="none" stroke="#2e3436" stroke-width="1.5" points="11.5,-1 60.5,-1 "/>
<path fill="none" stroke="#2e3436" stroke-width="1.5" d="M60.5,-1C66.5,-1 72.5,-7 72.5,-13"/>
<polyline fill="none" stroke="#2e3436" stroke-width="1.5" points="72.5,-13 72.5,-35 "/>
<path fill="none" stroke="#2e3436" stroke-width="1.5" d="M72.5,-35C72.5,-41 66.5,-47 60.5,-47"/>
<polyline fill="none" stroke="#2e3436" stroke-width="1.5" points="60.5,-47 11.5,-47 "/>
<path fill="none" stroke="#2e3436" stroke-width="1.5" d="M11.5,-47C5.5,-47 -0.5,-41 -0.5,-35"/>
<polyline fill="none" stroke="#2e3436" stroke-width="1.5" points="-0.5,-35 -0.5,-13 "/>
<path fill="none" stroke="#2e3436" stroke-width="1.5" d="M-0.5,-13C-0.5,-7 5.5,-1 11.5,-1"/>
<text text-anchor="middle" x="36" y="-35.8" font-family="FreeSans" font-size="8.00" fill="#1c2021">Node[1]</text>
<polyline fill="none" stroke="#2e3436" stroke-width="1.5" points="-0.5,-29 72.5,-29 "/>
<text text-anchor="start" x="7.5" y="-17.8" font-family="FreeSans" font-size="8.00" fill="#1c2021">age = 25</text>
<text text-anchor="start" x="7.5" y="-7.8" font-family="FreeSans" font-size="8.00" fill="#1c2021">name = &#39;Tobias&#39;</text>
</g>
<!-- N2 -->
<g id="node2" class="node"><title>N2</title>
<polygon fill="#ffffff" stroke="#ffffff" stroke-width="1.5" points="113,-1 157,-1 169,-13 169,-35 157,-47 113,-47 101,-35 101,-13 113,-1"/>
<path fill="#ffffff" stroke="#ffffff" stroke-width="1.5" d="M157,-1C163,-1 169,-7 169,-13"/>
<path fill="#ffffff" stroke="#ffffff" stroke-width="1.5" d="M169,-35C169,-41 163,-47 157,-47"/>
<path fill="#ffffff" stroke="#ffffff" stroke-width="1.5" d="M113,-47C107,-47 101,-41 101,-35"/>
<path fill="#ffffff" stroke="#ffffff" stroke-width="1.5" d="M101,-13C101,-7 107,-1 113,-1"/>
<polyline fill="none" stroke="#2e3436" stroke-width="1.5" points="113,-1 157,-1 "/>
<path fill="none" stroke="#2e3436" stroke-width="1.5" d="M157,-1C163,-1 169,-7 169,-13"/>
<polyline fill="none" stroke="#2e3436" stroke-width="1.5" points="169,-13 169,-35 "/>
<path fill="none" stroke="#2e3436" stroke-width="1.5" d="M169,-35C169,-41 163,-47 157,-47"/>
<polyline fill="none" stroke="#2e3436" stroke-width="1.5" points="157,-47 113,-47 "/>
<path fill="none" stroke="#2e3436" stroke-width="1.5" d="M113,-47C107,-47 101,-41 101,-35"/>
<polyline fill="none" stroke="#2e3436" stroke-width="1.5" points="101,-35 101,-13 "/>
<path fill="none" stroke="#2e3436" stroke-width="1.5" d="M101,-13C101,-7 107,-1 113,-1"/>
<text text-anchor="middle" x="135" y="-35.8" font-family="FreeSans" font-size="8.00" fill="#1c2021">Node[2]</text>
<polyline fill="none" stroke="#2e3436" stroke-width="1.5" points="101,-29 169,-29 "/>
<text text-anchor="start" x="109" y="-17.8" font-family="FreeSans" font-size="8.00" fill="#1c2021">age = 34</text>
<text text-anchor="start" x="109" y="-7.8" font-family="FreeSans" font-size="8.00" fill="#1c2021">name = &#39;Peter&#39;</text>
</g>
<!-- N3 -->
<g id="node3" class="node"><title>N3</title>
<polygon fill="#ffffff" stroke="#ffffff" stroke-width="1.5" points="60,-95 110,-95 122,-107 122,-129 110,-141 60,-141 48,-129 48,-107 60,-95"/>
<path fill="#ffffff" stroke="#ffffff" stroke-width="1.5" d="M110,-95C116,-95 122,-101 122,-107"/>
<path fill="#ffffff" stroke="#ffffff" stroke-width="1.5" d="M122,-129C122,-135 116,-141 110,-141"/>
<path fill="#ffffff" stroke="#ffffff" stroke-width="1.5" d="M60,-141C54,-141 48,-135 48,-129"/>
<path fill="#ffffff" stroke="#ffffff" stroke-width="1.5" d="M48,-107C48,-101 54,-95 60,-95"/>
<polyline fill="none" stroke="#2e3436" stroke-width="1.5" points="60,-95 110,-95 "/>
<path fill="none" stroke="#2e3436" stroke-width="1.5" d="M110,-95C116,-95 122,-101 122,-107"/>
<polyline fill="none" stroke="#2e3436" stroke-width="1.5" points="122,-107 122,-129 "/>
<path fill="none" stroke="#2e3436" stroke-width="1.5" d="M122,-129C122,-135 116,-141 110,-141"/>
<polyline fill="none" stroke="#2e3436" stroke-width="1.5" points="110,-141 60,-141 "/>
<path fill="none" stroke="#2e3436" stroke-width="1.5" d="M60,-141C54,-141 48,-135 48,-129"/>
<polyline fill="none" stroke="#2e3436" stroke-width="1.5" points="48,-129 48,-107 "/>
<path fill="none" stroke="#2e3436" stroke-width="1.5" d="M48,-107C48,-101 54,-95 60,-95"/>
<text text-anchor="middle" x="85" y="-129.8" font-family="FreeSans" font-size="8.00" fill="#1c2021">Node[3]</text>
<polyline fill="none" stroke="#2e3436" stroke-width="1.5" points="48,-123 122,-123 "/>
<text text-anchor="start" x="56" y="-111.8" font-family="FreeSans" font-size="8.00" fill="#1c2021">age = 36</text>
<text text-anchor="start" x="56" y="-101.8" font-family="FreeSans" font-size="8.00" fill="#1c2021">name = &#39;Andres&#39;</text>
</g>
<!-- N3&#45;&gt;N1 -->
<g id="edge2" class="edge"><title>N3&#45;&gt;N1</title>
<path fill="none" stroke="#2e3436" stroke-width="2" d="M72.8876,-94.764C66.4681,-82.449 58.5087,-67.18 51.6285,-53.9812"/>
<polygon fill="#2e3436" stroke="#2e3436" points="48.1428,-47.2944 54.6025,-52.385 50.3197,-50.3886 52.0531,-53.714 51.6097,-53.9451 51.1663,-54.1762 49.4329,-50.8509 48.6169,-55.5052 48.1428,-47.2944 48.1428,-47.2944"/>
<text text-anchor="middle" x="77.5" y="-68.8" font-family="FreeSans" font-size="8.00" fill="#2e3436">KNOWS</text>
</g>
<!-- N3&#45;&gt;N2 -->
<g id="edge4" class="edge"><title>N3&#45;&gt;N2</title>
<path fill="none" stroke="#2e3436" stroke-width="2" d="M97.3596,-94.764C103.91,-82.449 112.032,-67.18 119.053,-53.9812"/>
<polygon fill="#2e3436" stroke="#2e3436" points="122.609,-47.2944 122.067,-55.501 121.29,-50.84 119.529,-54.1508 119.087,-53.916 118.646,-53.6812 120.407,-50.3704 116.107,-52.331 122.609,-47.2944 122.609,-47.2944"/>
<text text-anchor="middle" x="126.5" y="-68.8" font-family="FreeSans" font-size="8.00" fill="#2e3436">KNOWS</text>
</g>
</g>
</svg>
