<?xml version="1.0" encoding="UTF-8" standalone="no"?>
<!DOCTYPE svg PUBLIC "-//W3C//DTD SVG 1.1//EN"
 "http://www.w3.org/Graphics/SVG/1.1/DTD/svg11.dtd">
<!-- Generated by graphviz version 2.26.3 (20100126.1600)
 -->
<!-- Title: g Pages: 1 -->
<svg width="357pt" height="214pt"
 viewBox="0.00 0.00 356.75 214.00" xmlns="http://www.w3.org/2000/svg" xmlns:xlink="http://www.w3.org/1999/xlink">
<g id="graph1" class="graph" transform="scale(1 1) rotate(0) translate(4 210)">
<title>g</title>
<polygon fill="white" stroke="white" points="-4,5 -4,-210 353.748,-210 353.748,5 -4,5"/>
<!-- N1 -->
<g id="node1" class="node"><title>N1</title>
<polygon fill="#ffffff" stroke="#ffffff" stroke-width="1.5" points="197.248,-85 232.248,-85 244.248,-97 244.248,-109 232.248,-121 197.248,-121 185.248,-109 185.248,-97 197.248,-85"/>
<path fill="#ffffff" stroke="#ffffff" stroke-width="1.5" d="M232.248,-85C238.248,-85 244.248,-91 244.248,-97"/>
<path fill="#ffffff" stroke="#ffffff" stroke-width="1.5" d="M244.248,-109C244.248,-115 238.248,-121 232.248,-121"/>
<path fill="#ffffff" stroke="#ffffff" stroke-width="1.5" d="M197.248,-121C191.248,-121 185.248,-115 185.248,-109"/>
<path fill="#ffffff" stroke="#ffffff" stroke-width="1.5" d="M185.248,-97C185.248,-91 191.248,-85 197.248,-85"/>
<polyline fill="none" stroke="#2e3436" stroke-width="1.5" points="197.248,-85 232.248,-85 "/>
<path fill="none" stroke="#2e3436" stroke-width="1.5" d="M232.248,-85C238.248,-85 244.248,-91 244.248,-97"/>
<polyline fill="none" stroke="#2e3436" stroke-width="1.5" points="244.248,-97 244.248,-109 "/>
<path fill="none" stroke="#2e3436" stroke-width="1.5" d="M244.248,-109C244.248,-115 238.248,-121 232.248,-121"/>
<polyline fill="none" stroke="#2e3436" stroke-width="1.5" points="232.248,-121 197.248,-121 "/>
<path fill="none" stroke="#2e3436" stroke-width="1.5" d="M197.248,-121C191.248,-121 185.248,-115 185.248,-109"/>
<polyline fill="none" stroke="#2e3436" stroke-width="1.5" points="185.248,-109 185.248,-97 "/>
<path fill="none" stroke="#2e3436" stroke-width="1.5" d="M185.248,-97C185.248,-91 191.248,-85 197.248,-85"/>
<text text-anchor="middle" x="214.748" y="-109.8" font-family="FreeSans" font-size="8.00" fill="#1c2021">Node[1]</text>
<polyline fill="none" stroke="#2e3436" stroke-width="1.5" points="185.248,-103 244.248,-103 "/>
<text text-anchor="start" x="193.248" y="-91.8" font-family="FreeSans" font-size="8.00" fill="#1c2021">name = &#39;Bill&#39;</text>
</g>
<!-- N2 -->
<g id="node3" class="node"><title>N2</title>
<polygon fill="#ffffff" stroke="#ffffff" stroke-width="1.5" points="137.748,-1 189.748,-1 201.748,-13 201.748,-25 189.748,-37 137.748,-37 125.748,-25 125.748,-13 137.748,-1"/>
<path fill="#ffffff" stroke="#ffffff" stroke-width="1.5" d="M189.748,-1C195.748,-1 201.748,-7 201.748,-13"/>
<path fill="#ffffff" stroke="#ffffff" stroke-width="1.5" d="M201.748,-25C201.748,-31 195.748,-37 189.748,-37"/>
<path fill="#ffffff" stroke="#ffffff" stroke-width="1.5" d="M137.748,-37C131.748,-37 125.748,-31 125.748,-25"/>
<path fill="#ffffff" stroke="#ffffff" stroke-width="1.5" d="M125.748,-13C125.748,-7 131.748,-1 137.748,-1"/>
<polyline fill="none" stroke="#2e3436" stroke-width="1.5" points="137.748,-1 189.748,-1 "/>
<path fill="none" stroke="#2e3436" stroke-width="1.5" d="M189.748,-1C195.748,-1 201.748,-7 201.748,-13"/>
<polyline fill="none" stroke="#2e3436" stroke-width="1.5" points="201.748,-13 201.748,-25 "/>
<path fill="none" stroke="#2e3436" stroke-width="1.5" d="M201.748,-25C201.748,-31 195.748,-37 189.748,-37"/>
<polyline fill="none" stroke="#2e3436" stroke-width="1.5" points="189.748,-37 137.748,-37 "/>
<path fill="none" stroke="#2e3436" stroke-width="1.5" d="M137.748,-37C131.748,-37 125.748,-31 125.748,-25"/>
<polyline fill="none" stroke="#2e3436" stroke-width="1.5" points="125.748,-25 125.748,-13 "/>
<path fill="none" stroke="#2e3436" stroke-width="1.5" d="M125.748,-13C125.748,-7 131.748,-1 137.748,-1"/>
<text text-anchor="middle" x="163.748" y="-25.8" font-family="FreeSans" font-size="8.00" fill="#1c2021">Node[2]</text>
<polyline fill="none" stroke="#2e3436" stroke-width="1.5" points="125.748,-19 201.748,-19 "/>
<text text-anchor="start" x="133.748" y="-7.8" font-family="FreeSans" font-size="8.00" fill="#1c2021">name = &#39;Group1&#39;</text>
</g>
<!-- N1&#45;&gt;N2 -->
<g id="edge2" class="edge"><title>N1&#45;&gt;N2</title>
<path fill="none" stroke="#2e3436" stroke-width="2" d="M203.682,-84.7733C196.397,-72.7751 186.769,-56.9174 178.793,-43.779"/>
<polygon fill="#2e3436" stroke="#2e3436" points="174.793,-37.1912 181.57,-41.8505 177.166,-40.1371 179.113,-43.3426 178.685,-43.6021 178.258,-43.8616 176.312,-40.6561 175.8,-45.3537 174.793,-37.1912 174.793,-37.1912"/>
<text text-anchor="middle" x="224.248" y="-58.8" font-family="FreeSans" font-size="8.00" fill="#2e3436">member_of_group</text>
</g>
<!-- N3 -->
<g id="node4" class="node"><title>N3</title>
<polygon fill="#ffffff" stroke="#ffffff" stroke-width="1.5" points="100.248,-85 139.248,-85 151.248,-97 151.248,-109 139.248,-121 100.248,-121 88.2481,-109 88.2481,-97 100.248,-85"/>
<path fill="#ffffff" stroke="#ffffff" stroke-width="1.5" d="M139.248,-85C145.248,-85 151.248,-91 151.248,-97"/>
<path fill="#ffffff" stroke="#ffffff" stroke-width="1.5" d="M151.248,-109C151.248,-115 145.248,-121 139.248,-121"/>
<path fill="#ffffff" stroke="#ffffff" stroke-width="1.5" d="M100.248,-121C94.2481,-121 88.2481,-115 88.2481,-109"/>
<path fill="#ffffff" stroke="#ffffff" stroke-width="1.5" d="M88.2481,-97C88.2481,-91 94.2481,-85 100.248,-85"/>
<polyline fill="none" stroke="#2e3436" stroke-width="1.5" points="100.248,-85 139.248,-85 "/>
<path fill="none" stroke="#2e3436" stroke-width="1.5" d="M139.248,-85C145.248,-85 151.248,-91 151.248,-97"/>
<polyline fill="none" stroke="#2e3436" stroke-width="1.5" points="151.248,-97 151.248,-109 "/>
<path fill="none" stroke="#2e3436" stroke-width="1.5" d="M151.248,-109C151.248,-115 145.248,-121 139.248,-121"/>
<polyline fill="none" stroke="#2e3436" stroke-width="1.5" points="139.248,-121 100.248,-121 "/>
<path fill="none" stroke="#2e3436" stroke-width="1.5" d="M100.248,-121C94.2481,-121 88.2481,-115 88.2481,-109"/>
<polyline fill="none" stroke="#2e3436" stroke-width="1.5" points="88.2481,-109 88.2481,-97 "/>
<path fill="none" stroke="#2e3436" stroke-width="1.5" d="M88.2481,-97C88.2481,-91 94.2481,-85 100.248,-85"/>
<text text-anchor="middle" x="119.748" y="-109.8" font-family="FreeSans" font-size="8.00" fill="#1c2021">Node[3]</text>
<polyline fill="none" stroke="#2e3436" stroke-width="1.5" points="88.2481,-103 151.248,-103 "/>
<text text-anchor="start" x="96.2481" y="-91.8" font-family="FreeSans" font-size="8.00" fill="#1c2021">name = &#39;Bob&#39;</text>
</g>
<!-- N3&#45;&gt;N2 -->
<g id="edge4" class="edge"><title>N3&#45;&gt;N2</title>
<path fill="none" stroke="#2e3436" stroke-width="2" d="M111.519,-84.7738C108.668,-75.7064 107.195,-64.8275 111.748,-56 114.462,-50.7379 118.309,-46.0604 122.697,-41.9528"/>
<polygon fill="#2e3436" stroke="#2e3436" points="128.501,-37.0535 124.947,-44.4704 125.958,-39.8545 123.092,-42.2735 122.77,-41.8915 122.447,-41.5094 125.313,-39.0904 120.593,-39.3125 128.501,-37.0535 128.501,-37.0535"/>
<text text-anchor="middle" x="145.248" y="-58.8" font-family="FreeSans" font-size="8.00" fill="#2e3436">member_of_group</text>
</g>
<!-- N4 -->
<g id="node6" class="node"><title>N4</title>
<polygon fill="#ffffff" stroke="#ffffff" stroke-width="1.5" points="102.748,-169 136.748,-169 148.748,-181 148.748,-193 136.748,-205 102.748,-205 90.7481,-193 90.7481,-181 102.748,-169"/>
<path fill="#ffffff" stroke="#ffffff" stroke-width="1.5" d="M136.748,-169C142.748,-169 148.748,-175 148.748,-181"/>
<path fill="#ffffff" stroke="#ffffff" stroke-width="1.5" d="M148.748,-193C148.748,-199 142.748,-205 136.748,-205"/>
<path fill="#ffffff" stroke="#ffffff" stroke-width="1.5" d="M102.748,-205C96.7481,-205 90.7481,-199 90.7481,-193"/>
<path fill="#ffffff" stroke="#ffffff" stroke-width="1.5" d="M90.7481,-181C90.7481,-175 96.7481,-169 102.748,-169"/>
<polyline fill="none" stroke="#2e3436" stroke-width="1.5" points="102.748,-169 136.748,-169 "/>
<path fill="none" stroke="#2e3436" stroke-width="1.5" d="M136.748,-169C142.748,-169 148.748,-175 148.748,-181"/>
<polyline fill="none" stroke="#2e3436" stroke-width="1.5" points="148.748,-181 148.748,-193 "/>
<path fill="none" stroke="#2e3436" stroke-width="1.5" d="M148.748,-193C148.748,-199 142.748,-205 136.748,-205"/>
<polyline fill="none" stroke="#2e3436" stroke-width="1.5" points="136.748,-205 102.748,-205 "/>
<path fill="none" stroke="#2e3436" stroke-width="1.5" d="M102.748,-205C96.7481,-205 90.7481,-199 90.7481,-193"/>
<polyline fill="none" stroke="#2e3436" stroke-width="1.5" points="90.7481,-193 90.7481,-181 "/>
<path fill="none" stroke="#2e3436" stroke-width="1.5" d="M90.7481,-181C90.7481,-175 96.7481,-169 102.748,-169"/>
<text text-anchor="middle" x="119.748" y="-193.8" font-family="FreeSans" font-size="8.00" fill="#1c2021">Node[4]</text>
<polyline fill="none" stroke="#2e3436" stroke-width="1.5" points="90.7481,-187 148.748,-187 "/>
<text text-anchor="start" x="98.7481" y="-175.8" font-family="FreeSans" font-size="8.00" fill="#1c2021">name = &#39;Jill&#39;</text>
</g>
<!-- N4&#45;&gt;N1 -->
<g id="edge8" class="edge"><title>N4&#45;&gt;N1</title>
<path fill="none" stroke="#4e9a06" stroke-width="2" d="M140.362,-168.773C154.429,-156.335 173.187,-139.748 188.347,-126.344"/>
<polygon fill="#4e9a06" stroke="#4e9a06" points="194.175,-121.191 190.792,-128.688 191.697,-124.05 188.887,-126.534 188.556,-126.159 188.225,-125.785 191.034,-123.301 186.321,-123.631 194.175,-121.191 194.175,-121.191"/>
<text text-anchor="middle" x="181.748" y="-142.8" font-family="FreeSans" font-size="8.00" fill="#4e9a06">knows</text>
</g>
<!-- N4&#45;&gt;N2 -->
<g id="edge6" class="edge"><title>N4&#45;&gt;N2</title>
<path fill="none" stroke="#2e3436" stroke-width="2" d="M90.619,-179.325C63.5,-170.459 24.6522,-152.954 6.74811,-122 -1.70802,-107.381 -2.63605,-98.0418 6.74811,-84 31.3098,-47.2476 80.9067,-31.2501 117.817,-24.3023"/>
<polygon fill="#2e3436" stroke="#2e3436" points="125.487,-22.9528 118.685,-27.5764 121.88,-24.0951 118.187,-24.7449 118.1,-24.2525 118.014,-23.76 121.707,-23.1102 117.515,-20.9285 125.487,-22.9528 125.487,-22.9528"/>
<text text-anchor="middle" x="40.2481" y="-100.8" font-family="FreeSans" font-size="8.00" fill="#2e3436">member_of_group</text>
</g>
<!-- N5 -->
<g id="node9" class="node"><title>N5</title>
<polygon fill="#ffffff" stroke="#ffffff" stroke-width="1.5" points="249.748,-169 287.748,-169 299.748,-181 299.748,-193 287.748,-205 249.748,-205 237.748,-193 237.748,-181 249.748,-169"/>
<path fill="#ffffff" stroke="#ffffff" stroke-width="1.5" d="M287.748,-169C293.748,-169 299.748,-175 299.748,-181"/>
<path fill="#ffffff" stroke="#ffffff" stroke-width="1.5" d="M299.748,-193C299.748,-199 293.748,-205 287.748,-205"/>
<path fill="#ffffff" stroke="#ffffff" stroke-width="1.5" d="M249.748,-205C243.748,-205 237.748,-199 237.748,-193"/>
<path fill="#ffffff" stroke="#ffffff" stroke-width="1.5" d="M237.748,-181C237.748,-175 243.748,-169 249.748,-169"/>
<polyline fill="none" stroke="#2e3436" stroke-width="1.5" points="249.748,-169 287.748,-169 "/>
<path fill="none" stroke="#2e3436" stroke-width="1.5" d="M287.748,-169C293.748,-169 299.748,-175 299.748,-181"/>
<polyline fill="none" stroke="#2e3436" stroke-width="1.5" points="299.748,-181 299.748,-193 "/>
<path fill="none" stroke="#2e3436" stroke-width="1.5" d="M299.748,-193C299.748,-199 293.748,-205 287.748,-205"/>
<polyline fill="none" stroke="#2e3436" stroke-width="1.5" points="287.748,-205 249.748,-205 "/>
<path fill="none" stroke="#2e3436" stroke-width="1.5" d="M249.748,-205C243.748,-205 237.748,-199 237.748,-193"/>
<polyline fill="none" stroke="#2e3436" stroke-width="1.5" points="237.748,-193 237.748,-181 "/>
<path fill="none" stroke="#2e3436" stroke-width="1.5" d="M237.748,-181C237.748,-175 243.748,-169 249.748,-169"/>
<text text-anchor="middle" x="268.748" y="-193.8" font-family="FreeSans" font-size="8.00" fill="#1c2021">Node[5]</text>
<polyline fill="none" stroke="#2e3436" stroke-width="1.5" points="237.748,-187 299.748,-187 "/>
<text text-anchor="start" x="245.748" y="-175.8" font-family="FreeSans" font-size="8.00" fill="#1c2021">name = &#39;Joe&#39;</text>
</g>
<!-- N5&#45;&gt;N1 -->
<g id="edge12" class="edge"><title>N5&#45;&gt;N1</title>
<path fill="none" stroke="#4e9a06" stroke-width="2" d="M257.031,-168.773C249.318,-156.775 239.124,-140.917 230.677,-127.779"/>
<polygon fill="#4e9a06" stroke="#4e9a06" points="226.442,-121.191 233.337,-125.675 228.891,-124.075 230.919,-127.23 230.498,-127.5 230.078,-127.77 228.05,-124.616 227.659,-129.325 226.442,-121.191 226.442,-121.191"/>
<text text-anchor="middle" x="254.748" y="-142.8" font-family="FreeSans" font-size="8.00" fill="#4e9a06">knows</text>
</g>
<!-- N5&#45;&gt;N2 -->
<g id="edge10" class="edge"><title>N5&#45;&gt;N2</title>
<path fill="none" stroke="#2e3436" stroke-width="2" d="M274.329,-168.671C281.509,-141.078 290.242,-88.6337 264.748,-56 257.461,-46.6716 232.62,-37.5082 209.4,-30.6343"/>
<polygon fill="#2e3436" stroke="#2e3436" points="201.942,-28.4856 210.083,-27.3189 205.684,-29.0433 209.288,-30.0816 209.149,-30.562 209.011,-31.0425 205.407,-30.0043 208.215,-33.8051 201.942,-28.4856 201.942,-28.4856"/>
<text text-anchor="middle" x="315.248" y="-100.8" font-family="FreeSans" font-size="8.00" fill="#2e3436">member_of_group</text>
</g>
</g>
</svg>
