<?xml version="1.0" encoding="UTF-8" standalone="no"?>
<!DOCTYPE svg PUBLIC "-//W3C//DTD SVG 1.1//EN"
 "http://www.w3.org/Graphics/SVG/1.1/DTD/svg11.dtd">
<!-- Generated by graphviz version 2.26.3 (20100126.1600)
 -->
<!-- Title: g Pages: 1 -->
<svg width="504pt" height="195pt"
 viewBox="0.00 0.00 504.00 194.65" xmlns="http://www.w3.org/2000/svg" xmlns:xlink="http://www.w3.org/1999/xlink">
<g id="graph1" class="graph" transform="scale(0.868966 0.868966) rotate(0) translate(4 220)">
<title>g</title>
<polygon fill="white" stroke="white" points="-4,5 -4,-220 577,-220 577,5 -4,5"/>
<!-- N1 -->
<g id="node1" class="node"><title>N1</title>
<polygon fill="#ffffff" stroke="#ffffff" stroke-width="1.5" points="11.5,-95 80.5,-95 92.5,-107 92.5,-119 80.5,-131 11.5,-131 -0.5,-119 -0.5,-107 11.5,-95"/>
<path fill="#ffffff" stroke="#ffffff" stroke-width="1.5" d="M80.5,-95C86.5,-95 92.5,-101 92.5,-107"/>
<path fill="#ffffff" stroke="#ffffff" stroke-width="1.5" d="M92.5,-119C92.5,-125 86.5,-131 80.5,-131"/>
<path fill="#ffffff" stroke="#ffffff" stroke-width="1.5" d="M11.5,-131C5.5,-131 -0.5,-125 -0.5,-119"/>
<path fill="#ffffff" stroke="#ffffff" stroke-width="1.5" d="M-0.5,-107C-0.5,-101 5.5,-95 11.5,-95"/>
<polyline fill="none" stroke="#2e3436" stroke-width="1.5" points="11.5,-95 80.5,-95 "/>
<path fill="none" stroke="#2e3436" stroke-width="1.5" d="M80.5,-95C86.5,-95 92.5,-101 92.5,-107"/>
<polyline fill="none" stroke="#2e3436" stroke-width="1.5" points="92.5,-107 92.5,-119 "/>
<path fill="none" stroke="#2e3436" stroke-width="1.5" d="M92.5,-119C92.5,-125 86.5,-131 80.5,-131"/>
<polyline fill="none" stroke="#2e3436" stroke-width="1.5" points="80.5,-131 11.5,-131 "/>
<path fill="none" stroke="#2e3436" stroke-width="1.5" d="M11.5,-131C5.5,-131 -0.5,-125 -0.5,-119"/>
<polyline fill="none" stroke="#2e3436" stroke-width="1.5" points="-0.5,-119 -0.5,-107 "/>
<path fill="none" stroke="#2e3436" stroke-width="1.5" d="M-0.5,-107C-0.5,-101 5.5,-95 11.5,-95"/>
<text text-anchor="middle" x="46" y="-119.8" font-family="FreeSans" font-size="8.00" fill="#1c2021">Node[1]</text>
<polyline fill="none" stroke="#2e3436" stroke-width="1.5" points="-0.5,-113 92.5,-113 "/>
<text text-anchor="start" x="7.5" y="-101.8" font-family="FreeSans" font-size="8.00" fill="#1c2021">name = &#39;Oliver Stone&#39;</text>
</g>
<!-- N5 -->
<g id="node3" class="node"><title>N5</title>
<polygon fill="#ffffff" stroke="#ffffff" stroke-width="1.5" points="143,-1 205,-1 217,-13 217,-35 205,-47 143,-47 131,-35 131,-13 143,-1"/>
<path fill="#ffffff" stroke="#ffffff" stroke-width="1.5" d="M205,-1C211,-1 217,-7 217,-13"/>
<path fill="#ffffff" stroke="#ffffff" stroke-width="1.5" d="M217,-35C217,-41 211,-47 205,-47"/>
<path fill="#ffffff" stroke="#ffffff" stroke-width="1.5" d="M143,-47C137,-47 131,-41 131,-35"/>
<path fill="#ffffff" stroke="#ffffff" stroke-width="1.5" d="M131,-13C131,-7 137,-1 143,-1"/>
<polyline fill="none" stroke="#2e3436" stroke-width="1.5" points="143,-1 205,-1 "/>
<path fill="none" stroke="#2e3436" stroke-width="1.5" d="M205,-1C211,-1 217,-7 217,-13"/>
<polyline fill="none" stroke="#2e3436" stroke-width="1.5" points="217,-13 217,-35 "/>
<path fill="none" stroke="#2e3436" stroke-width="1.5" d="M217,-35C217,-41 211,-47 205,-47"/>
<polyline fill="none" stroke="#2e3436" stroke-width="1.5" points="205,-47 143,-47 "/>
<path fill="none" stroke="#2e3436" stroke-width="1.5" d="M143,-47C137,-47 131,-41 131,-35"/>
<polyline fill="none" stroke="#2e3436" stroke-width="1.5" points="131,-35 131,-13 "/>
<path fill="none" stroke="#2e3436" stroke-width="1.5" d="M131,-13C131,-7 137,-1 143,-1"/>
<text text-anchor="middle" x="174" y="-35.8" font-family="FreeSans" font-size="8.00" fill="#1c2021">Node[5]</text>
<polyline fill="none" stroke="#2e3436" stroke-width="1.5" points="131,-29 217,-29 "/>
<text text-anchor="start" x="139" y="-17.8" font-family="FreeSans" font-size="8.00" fill="#1c2021">title = &#39;Wall Street&#39;</text>
<text text-anchor="start" x="139" y="-7.8" font-family="FreeSans" font-size="8.00" fill="#1c2021">name = &#39;WallStreet&#39;</text>
</g>
<!-- N1&#45;&gt;N5 -->
<g id="edge2" class="edge"><title>N1&#45;&gt;N5</title>
<path fill="none" stroke="#2e3436" stroke-width="2" d="M58.1263,-94.8246C65.1348,-85.3352 74.6096,-74.0564 85,-66 96.613,-56.9957 110.469,-49.301 123.749,-43.0522"/>
<polygon fill="#2e3436" stroke="#2e3436" points="130.627,-39.9171 125.202,-46.099 127.422,-41.9275 124.01,-43.483 123.802,-43.0281 123.595,-42.5731 127.007,-41.0176 122.402,-39.9571 130.627,-39.9171 130.627,-39.9171"/>
<text text-anchor="middle" x="106.5" y="-68.8" font-family="FreeSans" font-size="8.00" fill="#2e3436">DIRECTED</text>
</g>
<!-- N2 -->
<g id="node4" class="node"><title>N2</title>
<polygon fill="#ffffff" stroke="#ffffff" stroke-width="1.5" points="188,-179 264,-179 276,-191 276,-203 264,-215 188,-215 176,-203 176,-191 188,-179"/>
<path fill="#ffffff" stroke="#ffffff" stroke-width="1.5" d="M264,-179C270,-179 276,-185 276,-191"/>
<path fill="#ffffff" stroke="#ffffff" stroke-width="1.5" d="M276,-203C276,-209 270,-215 264,-215"/>
<path fill="#ffffff" stroke="#ffffff" stroke-width="1.5" d="M188,-215C182,-215 176,-209 176,-203"/>
<path fill="#ffffff" stroke="#ffffff" stroke-width="1.5" d="M176,-191C176,-185 182,-179 188,-179"/>
<polyline fill="none" stroke="#2e3436" stroke-width="1.5" points="188,-179 264,-179 "/>
<path fill="none" stroke="#2e3436" stroke-width="1.5" d="M264,-179C270,-179 276,-185 276,-191"/>
<polyline fill="none" stroke="#2e3436" stroke-width="1.5" points="276,-191 276,-203 "/>
<path fill="none" stroke="#2e3436" stroke-width="1.5" d="M276,-203C276,-209 270,-215 264,-215"/>
<polyline fill="none" stroke="#2e3436" stroke-width="1.5" points="264,-215 188,-215 "/>
<path fill="none" stroke="#2e3436" stroke-width="1.5" d="M188,-215C182,-215 176,-209 176,-203"/>
<polyline fill="none" stroke="#2e3436" stroke-width="1.5" points="176,-203 176,-191 "/>
<path fill="none" stroke="#2e3436" stroke-width="1.5" d="M176,-191C176,-185 182,-179 188,-179"/>
<text text-anchor="middle" x="226" y="-203.8" font-family="FreeSans" font-size="8.00" fill="#1c2021">Node[2]</text>
<polyline fill="none" stroke="#2e3436" stroke-width="1.5" points="176,-197 276,-197 "/>
<text text-anchor="start" x="184" y="-185.8" font-family="FreeSans" font-size="8.00" fill="#1c2021">name = &#39;Charlie Sheen&#39;</text>
</g>
<!-- N2&#45;&gt;N5 -->
<g id="edge4" class="edge"><title>N2&#45;&gt;N5</title>
<path fill="none" stroke="#4e9a06" stroke-width="2" d="M201.204,-178.939C187.407,-167.288 171.537,-150.821 164,-132 154.106,-107.293 158.185,-76.9484 163.824,-54.7215"/>
<polygon fill="#4e9a06" stroke="#4e9a06" points="165.863,-47.2207 167.152,-55.3434 165.362,-50.9705 164.378,-54.5892 163.896,-54.458 163.413,-54.3268 164.397,-50.7082 160.639,-53.5726 165.863,-47.2207 165.863,-47.2207"/>
<text text-anchor="middle" x="184.5" y="-110.8" font-family="FreeSans" font-size="8.00" fill="#4e9a06">ACTED_IN</text>
</g>
<!-- N3 -->
<g id="node7" class="node"><title>N3</title>
<polygon fill="#ffffff" stroke="#ffffff" stroke-width="1.5" points="368.5,-95 441.5,-95 453.5,-107 453.5,-119 441.5,-131 368.5,-131 356.5,-119 356.5,-107 368.5,-95"/>
<path fill="#ffffff" stroke="#ffffff" stroke-width="1.5" d="M441.5,-95C447.5,-95 453.5,-101 453.5,-107"/>
<path fill="#ffffff" stroke="#ffffff" stroke-width="1.5" d="M453.5,-119C453.5,-125 447.5,-131 441.5,-131"/>
<path fill="#ffffff" stroke="#ffffff" stroke-width="1.5" d="M368.5,-131C362.5,-131 356.5,-125 356.5,-119"/>
<path fill="#ffffff" stroke="#ffffff" stroke-width="1.5" d="M356.5,-107C356.5,-101 362.5,-95 368.5,-95"/>
<polyline fill="none" stroke="#2e3436" stroke-width="1.5" points="368.5,-95 441.5,-95 "/>
<path fill="none" stroke="#2e3436" stroke-width="1.5" d="M441.5,-95C447.5,-95 453.5,-101 453.5,-107"/>
<polyline fill="none" stroke="#2e3436" stroke-width="1.5" points="453.5,-107 453.5,-119 "/>
<path fill="none" stroke="#2e3436" stroke-width="1.5" d="M453.5,-119C453.5,-125 447.5,-131 441.5,-131"/>
<polyline fill="none" stroke="#2e3436" stroke-width="1.5" points="441.5,-131 368.5,-131 "/>
<path fill="none" stroke="#2e3436" stroke-width="1.5" d="M368.5,-131C362.5,-131 356.5,-125 356.5,-119"/>
<polyline fill="none" stroke="#2e3436" stroke-width="1.5" points="356.5,-119 356.5,-107 "/>
<path fill="none" stroke="#2e3436" stroke-width="1.5" d="M356.5,-107C356.5,-101 362.5,-95 368.5,-95"/>
<text text-anchor="middle" x="405" y="-119.8" font-family="FreeSans" font-size="8.00" fill="#1c2021">Node[3]</text>
<polyline fill="none" stroke="#2e3436" stroke-width="1.5" points="356.5,-113 453.5,-113 "/>
<text text-anchor="start" x="364.5" y="-101.8" font-family="FreeSans" font-size="8.00" fill="#1c2021">name = &#39;Martin Sheen&#39;</text>
</g>
<!-- N2&#45;&gt;N3 -->
<g id="edge6" class="edge"><title>N2&#45;&gt;N3</title>
<path fill="none" stroke="#a40000" stroke-width="2" d="M264.4,-178.98C292.265,-165.904 330.068,-148.163 359.458,-134.372"/>
<polygon fill="#a40000" stroke="#a40000" points="366.355,-131.135 360.999,-137.377 363.173,-133.181 359.778,-134.774 359.566,-134.321 359.353,-133.869 362.748,-132.276 358.132,-131.266 366.355,-131.135 366.355,-131.135"/>
<text text-anchor="middle" x="337" y="-152.8" font-family="FreeSans" font-size="8.00" fill="#a40000">FATHER</text>
</g>
<!-- N3&#45;&gt;N5 -->
<g id="edge8" class="edge"><title>N3&#45;&gt;N5</title>
<path fill="none" stroke="#4e9a06" stroke-width="2" d="M374.42,-94.9168C357.575,-85.4544 336.067,-74.1719 316,-66 286.401,-53.9466 252.064,-43.6956 224.571,-36.3388"/>
<polygon fill="#4e9a06" stroke="#4e9a06" points="217.007,-34.3414 225.12,-32.9933 220.761,-34.8155 224.386,-35.773 224.259,-36.2564 224.131,-36.7399 220.505,-35.7824 223.397,-39.5196 217.007,-34.3414 217.007,-34.3414"/>
<text text-anchor="middle" x="356.5" y="-68.8" font-family="FreeSans" font-size="8.00" fill="#4e9a06">ACTED_IN</text>
</g>
<!-- N4 -->
<g id="node10" class="node"><title>N4</title>
<polygon fill="#ffffff" stroke="#ffffff" stroke-width="1.5" points="370.5,-1 477.5,-1 489.5,-13 489.5,-35 477.5,-47 370.5,-47 358.5,-35 358.5,-13 370.5,-1"/>
<path fill="#ffffff" stroke="#ffffff" stroke-width="1.5" d="M477.5,-1C483.5,-1 489.5,-7 489.5,-13"/>
<path fill="#ffffff" stroke="#ffffff" stroke-width="1.5" d="M489.5,-35C489.5,-41 483.5,-47 477.5,-47"/>
<path fill="#ffffff" stroke="#ffffff" stroke-width="1.5" d="M370.5,-47C364.5,-47 358.5,-41 358.5,-35"/>
<path fill="#ffffff" stroke="#ffffff" stroke-width="1.5" d="M358.5,-13C358.5,-7 364.5,-1 370.5,-1"/>
<polyline fill="none" stroke="#2e3436" stroke-width="1.5" points="370.5,-1 477.5,-1 "/>
<path fill="none" stroke="#2e3436" stroke-width="1.5" d="M477.5,-1C483.5,-1 489.5,-7 489.5,-13"/>
<polyline fill="none" stroke="#2e3436" stroke-width="1.5" points="489.5,-13 489.5,-35 "/>
<path fill="none" stroke="#2e3436" stroke-width="1.5" d="M489.5,-35C489.5,-41 483.5,-47 477.5,-47"/>
<polyline fill="none" stroke="#2e3436" stroke-width="1.5" points="477.5,-47 370.5,-47 "/>
<path fill="none" stroke="#2e3436" stroke-width="1.5" d="M370.5,-47C364.5,-47 358.5,-41 358.5,-35"/>
<polyline fill="none" stroke="#2e3436" stroke-width="1.5" points="358.5,-35 358.5,-13 "/>
<path fill="none" stroke="#2e3436" stroke-width="1.5" d="M358.5,-13C358.5,-7 364.5,-1 370.5,-1"/>
<text text-anchor="middle" x="424" y="-35.8" font-family="FreeSans" font-size="8.00" fill="#1c2021">Node[4]</text>
<polyline fill="none" stroke="#2e3436" stroke-width="1.5" points="358.5,-29 489.5,-29 "/>
<text text-anchor="start" x="366.5" y="-17.8" font-family="FreeSans" font-size="8.00" fill="#1c2021">title = &#39;The American President&#39;</text>
<text text-anchor="start" x="366.5" y="-7.8" font-family="FreeSans" font-size="8.00" fill="#1c2021">name = &#39;TheAmericanPresident&#39;</text>
</g>
<!-- N3&#45;&gt;N4 -->
<g id="edge10" class="edge"><title>N3&#45;&gt;N4</title>
<path fill="none" stroke="#4e9a06" stroke-width="2" d="M408.845,-94.9895C411.31,-83.4404 414.575,-68.1487 417.443,-54.7161"/>
<polygon fill="#4e9a06" stroke="#4e9a06" points="419.076,-47.0644 420.811,-55.1038 418.782,-50.8362 417.999,-54.5035 417.51,-54.3991 417.021,-54.2947 417.804,-50.6274 414.21,-53.6945 419.076,-47.0644 419.076,-47.0644"/>
<text text-anchor="middle" x="434.5" y="-68.8" font-family="FreeSans" font-size="8.00" fill="#4e9a06">ACTED_IN</text>
</g>
<!-- N6 -->
<g id="node11" class="node"><title>N6</title>
<polygon fill="#ffffff" stroke="#ffffff" stroke-width="1.5" points="494,-95 560,-95 572,-107 572,-119 560,-131 494,-131 482,-119 482,-107 494,-95"/>
<path fill="#ffffff" stroke="#ffffff" stroke-width="1.5" d="M560,-95C566,-95 572,-101 572,-107"/>
<path fill="#ffffff" stroke="#ffffff" stroke-width="1.5" d="M572,-119C572,-125 566,-131 560,-131"/>
<path fill="#ffffff" stroke="#ffffff" stroke-width="1.5" d="M494,-131C488,-131 482,-125 482,-119"/>
<path fill="#ffffff" stroke="#ffffff" stroke-width="1.5" d="M482,-107C482,-101 488,-95 494,-95"/>
<polyline fill="none" stroke="#2e3436" stroke-width="1.5" points="494,-95 560,-95 "/>
<path fill="none" stroke="#2e3436" stroke-width="1.5" d="M560,-95C566,-95 572,-101 572,-107"/>
<polyline fill="none" stroke="#2e3436" stroke-width="1.5" points="572,-107 572,-119 "/>
<path fill="none" stroke="#2e3436" stroke-width="1.5" d="M572,-119C572,-125 566,-131 560,-131"/>
<polyline fill="none" stroke="#2e3436" stroke-width="1.5" points="560,-131 494,-131 "/>
<path fill="none" stroke="#2e3436" stroke-width="1.5" d="M494,-131C488,-131 482,-125 482,-119"/>
<polyline fill="none" stroke="#2e3436" stroke-width="1.5" points="482,-119 482,-107 "/>
<path fill="none" stroke="#2e3436" stroke-width="1.5" d="M482,-107C482,-101 488,-95 494,-95"/>
<text text-anchor="middle" x="527" y="-119.8" font-family="FreeSans" font-size="8.00" fill="#1c2021">Node[6]</text>
<polyline fill="none" stroke="#2e3436" stroke-width="1.5" points="482,-113 572,-113 "/>
<text text-anchor="start" x="490" y="-101.8" font-family="FreeSans" font-size="8.00" fill="#1c2021">name = &#39;Rob Reiner&#39;</text>
</g>
<!-- N6&#45;&gt;N4 -->
<g id="edge12" class="edge"><title>N6&#45;&gt;N4</title>
<path fill="none" stroke="#2e3436" stroke-width="2" d="M506.156,-94.9895C491.916,-82.6849 472.759,-66.1319 456.526,-52.1053"/>
<polygon fill="#2e3436" stroke="#2e3436" points="450.693,-47.0644 458.574,-49.4143 453.857,-49.1379 456.694,-51.5897 456.367,-51.968 456.041,-52.3464 453.203,-49.8946 454.161,-54.5218 450.693,-47.0644 450.693,-47.0644"/>
<text text-anchor="middle" x="502.5" y="-68.8" font-family="FreeSans" font-size="8.00" fill="#2e3436">DIRECTED</text>
</g>
<!-- N7 -->
<g id="node13" class="node"><title>N7</title>
<polygon fill="#ffffff" stroke="#ffffff" stroke-width="1.5" points="232,-95 316,-95 328,-107 328,-119 316,-131 232,-131 220,-119 220,-107 232,-95"/>
<path fill="#ffffff" stroke="#ffffff" stroke-width="1.5" d="M316,-95C322,-95 328,-101 328,-107"/>
<path fill="#ffffff" stroke="#ffffff" stroke-width="1.5" d="M328,-119C328,-125 322,-131 316,-131"/>
<path fill="#ffffff" stroke="#ffffff" stroke-width="1.5" d="M232,-131C226,-131 220,-125 220,-119"/>
<path fill="#ffffff" stroke="#ffffff" stroke-width="1.5" d="M220,-107C220,-101 226,-95 232,-95"/>
<polyline fill="none" stroke="#2e3436" stroke-width="1.5" points="232,-95 316,-95 "/>
<path fill="none" stroke="#2e3436" stroke-width="1.5" d="M316,-95C322,-95 328,-101 328,-107"/>
<polyline fill="none" stroke="#2e3436" stroke-width="1.5" points="328,-107 328,-119 "/>
<path fill="none" stroke="#2e3436" stroke-width="1.5" d="M328,-119C328,-125 322,-131 316,-131"/>
<polyline fill="none" stroke="#2e3436" stroke-width="1.5" points="316,-131 232,-131 "/>
<path fill="none" stroke="#2e3436" stroke-width="1.5" d="M232,-131C226,-131 220,-125 220,-119"/>
<polyline fill="none" stroke="#2e3436" stroke-width="1.5" points="220,-119 220,-107 "/>
<path fill="none" stroke="#2e3436" stroke-width="1.5" d="M220,-107C220,-101 226,-95 232,-95"/>
<text text-anchor="middle" x="274" y="-119.8" font-family="FreeSans" font-size="8.00" fill="#1c2021">Node[7]</text>
<polyline fill="none" stroke="#2e3436" stroke-width="1.5" points="220,-113 328,-113 "/>
<text text-anchor="start" x="228" y="-101.8" font-family="FreeSans" font-size="8.00" fill="#1c2021">name = &#39;Michael Douglas&#39;</text>
</g>
<!-- N7&#45;&gt;N5 -->
<g id="edge14" class="edge"><title>N7&#45;&gt;N5</title>
<path fill="none" stroke="#4e9a06" stroke-width="2" d="M222.964,-94.8073C213.514,-89.776 204.328,-83.5624 197,-76 191.057,-69.8667 186.504,-61.9399 183.08,-54.1324"/>
<polygon fill="#4e9a06" stroke="#4e9a06" points="180.246,-47.0506 186.166,-52.7596 182.104,-50.3463 183.497,-53.8279 183.033,-54.0137 182.569,-54.1995 181.175,-50.7179 179.899,-55.2677 180.246,-47.0506 180.246,-47.0506"/>
<text text-anchor="middle" x="217.5" y="-68.8" font-family="FreeSans" font-size="8.00" fill="#4e9a06">ACTED_IN</text>
</g>
<!-- N7&#45;&gt;N4 -->
<g id="edge16" class="edge"><title>N7&#45;&gt;N4</title>
<path fill="none" stroke="#4e9a06" stroke-width="2" d="M268.061,-94.8262C266.144,-85.3373 265.866,-74.0584 272,-66 282.097,-52.7341 316.989,-42.5847 350.799,-35.5889"/>
<polygon fill="#4e9a06" stroke="#4e9a06" points="358.44,-34.0558 351.75,-38.8403 354.861,-35.2837 351.185,-36.0215 351.086,-35.5312 350.988,-35.041 354.665,-34.3033 350.422,-32.2222 358.44,-34.0558 358.44,-34.0558"/>
<text text-anchor="middle" x="292.5" y="-68.8" font-family="FreeSans" font-size="8.00" fill="#4e9a06">ACTED_IN</text>
</g>
</g>
</svg>
