<?xml version="1.0" encoding="UTF-8" standalone="no"?>
<!DOCTYPE svg PUBLIC "-//W3C//DTD SVG 1.1//EN"
 "http://www.w3.org/Graphics/SVG/1.1/DTD/svg11.dtd">
<!-- Generated by graphviz version 2.26.3 (20100126.1600)
 -->
<!-- Title: g Pages: 1 -->
<svg width="402pt" height="214pt"
 viewBox="0.00 0.00 402.00 214.00" xmlns="http://www.w3.org/2000/svg" xmlns:xlink="http://www.w3.org/1999/xlink">
<g id="graph1" class="graph" transform="scale(1 1) rotate(0) translate(4 210)">
<title>g</title>
<polygon fill="white" stroke="white" points="-4,5 -4,-210 399,-210 399,5 -4,5"/>
<!-- N1 -->
<g id="node1" class="node"><title>N1</title>
<polygon fill="#ffffff" stroke="#ffffff" stroke-width="1.5" points="184,-85 226,-85 238,-97 238,-109 226,-121 184,-121 172,-109 172,-97 184,-85"/>
<path fill="#ffffff" stroke="#ffffff" stroke-width="1.5" d="M226,-85C232,-85 238,-91 238,-97"/>
<path fill="#ffffff" stroke="#ffffff" stroke-width="1.5" d="M238,-109C238,-115 232,-121 226,-121"/>
<path fill="#ffffff" stroke="#ffffff" stroke-width="1.5" d="M184,-121C178,-121 172,-115 172,-109"/>
<path fill="#ffffff" stroke="#ffffff" stroke-width="1.5" d="M172,-97C172,-91 178,-85 184,-85"/>
<polyline fill="none" stroke="#2e3436" stroke-width="1.5" points="184,-85 226,-85 "/>
<path fill="none" stroke="#2e3436" stroke-width="1.5" d="M226,-85C232,-85 238,-91 238,-97"/>
<polyline fill="none" stroke="#2e3436" stroke-width="1.5" points="238,-97 238,-109 "/>
<path fill="none" stroke="#2e3436" stroke-width="1.5" d="M238,-109C238,-115 232,-121 226,-121"/>
<polyline fill="none" stroke="#2e3436" stroke-width="1.5" points="226,-121 184,-121 "/>
<path fill="none" stroke="#2e3436" stroke-width="1.5" d="M184,-121C178,-121 172,-115 172,-109"/>
<polyline fill="none" stroke="#2e3436" stroke-width="1.5" points="172,-109 172,-97 "/>
<path fill="none" stroke="#2e3436" stroke-width="1.5" d="M172,-97C172,-91 178,-85 184,-85"/>
<text text-anchor="start" x="180" y="-100.8" font-family="FreeSans" font-size="8.00" fill="#1c2021">name = &#39;Sara&#39;</text>
</g>
<!-- N2 -->
<g id="node3" class="node"><title>N2</title>
<polygon fill="#ffffff" stroke="#ffffff" stroke-width="1.5" points="327.5,-1 368.5,-1 380.5,-13 380.5,-25 368.5,-37 327.5,-37 315.5,-25 315.5,-13 327.5,-1"/>
<path fill="#ffffff" stroke="#ffffff" stroke-width="1.5" d="M368.5,-1C374.5,-1 380.5,-7 380.5,-13"/>
<path fill="#ffffff" stroke="#ffffff" stroke-width="1.5" d="M380.5,-25C380.5,-31 374.5,-37 368.5,-37"/>
<path fill="#ffffff" stroke="#ffffff" stroke-width="1.5" d="M327.5,-37C321.5,-37 315.5,-31 315.5,-25"/>
<path fill="#ffffff" stroke="#ffffff" stroke-width="1.5" d="M315.5,-13C315.5,-7 321.5,-1 327.5,-1"/>
<polyline fill="none" stroke="#2e3436" stroke-width="1.5" points="327.5,-1 368.5,-1 "/>
<path fill="none" stroke="#2e3436" stroke-width="1.5" d="M368.5,-1C374.5,-1 380.5,-7 380.5,-13"/>
<polyline fill="none" stroke="#2e3436" stroke-width="1.5" points="380.5,-13 380.5,-25 "/>
<path fill="none" stroke="#2e3436" stroke-width="1.5" d="M380.5,-25C380.5,-31 374.5,-37 368.5,-37"/>
<polyline fill="none" stroke="#2e3436" stroke-width="1.5" points="368.5,-37 327.5,-37 "/>
<path fill="none" stroke="#2e3436" stroke-width="1.5" d="M327.5,-37C321.5,-37 315.5,-31 315.5,-25"/>
<polyline fill="none" stroke="#2e3436" stroke-width="1.5" points="315.5,-25 315.5,-13 "/>
<path fill="none" stroke="#2e3436" stroke-width="1.5" d="M315.5,-13C315.5,-7 321.5,-1 327.5,-1"/>
<text text-anchor="start" x="323.5" y="-16.8" font-family="FreeSans" font-size="8.00" fill="#1c2021">name = &#39;Cats&#39;</text>
</g>
<!-- N1&#45;&gt;N2 -->
<g id="edge2" class="edge"><title>N1&#45;&gt;N2</title>
<path fill="none" stroke="#2e3436" stroke-width="2" d="M208.377,-84.7233C211.067,-74.9659 215.798,-63.4636 224,-56 236.422,-44.6966 276.63,-33.9758 307.932,-27.0126"/>
<polygon fill="#2e3436" stroke="#2e3436" points="315.269,-25.4119 308.661,-30.3079 311.712,-26.6997 308.048,-27.499 307.941,-27.0105 307.835,-26.522 311.499,-25.7227 307.222,-23.713 315.269,-25.4119 315.269,-25.4119"/>
<text text-anchor="middle" x="237.5" y="-58.8" font-family="FreeSans" font-size="8.00" fill="#2e3436">favorite</text>
</g>
<!-- N4 -->
<g id="node5" class="node"><title>N4</title>
<polygon fill="#ffffff" stroke="#ffffff" stroke-width="1.5" points="118,-1 162,-1 174,-13 174,-25 162,-37 118,-37 106,-25 106,-13 118,-1"/>
<path fill="#ffffff" stroke="#ffffff" stroke-width="1.5" d="M162,-1C168,-1 174,-7 174,-13"/>
<path fill="#ffffff" stroke="#ffffff" stroke-width="1.5" d="M174,-25C174,-31 168,-37 162,-37"/>
<path fill="#ffffff" stroke="#ffffff" stroke-width="1.5" d="M118,-37C112,-37 106,-31 106,-25"/>
<path fill="#ffffff" stroke="#ffffff" stroke-width="1.5" d="M106,-13C106,-7 112,-1 118,-1"/>
<polyline fill="none" stroke="#2e3436" stroke-width="1.5" points="118,-1 162,-1 "/>
<path fill="none" stroke="#2e3436" stroke-width="1.5" d="M162,-1C168,-1 174,-7 174,-13"/>
<polyline fill="none" stroke="#2e3436" stroke-width="1.5" points="174,-13 174,-25 "/>
<path fill="none" stroke="#2e3436" stroke-width="1.5" d="M174,-25C174,-31 168,-37 162,-37"/>
<polyline fill="none" stroke="#2e3436" stroke-width="1.5" points="162,-37 118,-37 "/>
<path fill="none" stroke="#2e3436" stroke-width="1.5" d="M118,-37C112,-37 106,-31 106,-25"/>
<polyline fill="none" stroke="#2e3436" stroke-width="1.5" points="106,-25 106,-13 "/>
<path fill="none" stroke="#2e3436" stroke-width="1.5" d="M106,-13C106,-7 112,-1 118,-1"/>
<text text-anchor="start" x="114" y="-16.8" font-family="FreeSans" font-size="8.00" fill="#1c2021">name = &#39;Bikes&#39;</text>
</g>
<!-- N1&#45;&gt;N4 -->
<g id="edge4" class="edge"><title>N1&#45;&gt;N4</title>
<path fill="none" stroke="#2e3436" stroke-width="2" d="M181.179,-84.8935C174.772,-79.2945 168.188,-72.7981 163,-66 158.04,-59.5005 153.725,-51.7619 150.214,-44.4588"/>
<polygon fill="#2e3436" stroke="#2e3436" points="146.977,-37.3629 153.161,-42.7859 148.989,-40.5672 150.545,-43.979 150.09,-44.1866 149.635,-44.3941 148.079,-40.9822 147.019,-45.5872 146.977,-37.3629 146.977,-37.3629"/>
<text text-anchor="middle" x="176.5" y="-58.8" font-family="FreeSans" font-size="8.00" fill="#2e3436">favorite</text>
</g>
<!-- N3 -->
<g id="node6" class="node"><title>N3</title>
<polygon fill="#ffffff" stroke="#ffffff" stroke-width="1.5" points="279,-85 331,-85 343,-97 343,-109 331,-121 279,-121 267,-109 267,-97 279,-85"/>
<path fill="#ffffff" stroke="#ffffff" stroke-width="1.5" d="M331,-85C337,-85 343,-91 343,-97"/>
<path fill="#ffffff" stroke="#ffffff" stroke-width="1.5" d="M343,-109C343,-115 337,-121 331,-121"/>
<path fill="#ffffff" stroke="#ffffff" stroke-width="1.5" d="M279,-121C273,-121 267,-115 267,-109"/>
<path fill="#ffffff" stroke="#ffffff" stroke-width="1.5" d="M267,-97C267,-91 273,-85 279,-85"/>
<polyline fill="none" stroke="#2e3436" stroke-width="1.5" points="279,-85 331,-85 "/>
<path fill="none" stroke="#2e3436" stroke-width="1.5" d="M331,-85C337,-85 343,-91 343,-97"/>
<polyline fill="none" stroke="#2e3436" stroke-width="1.5" points="343,-97 343,-109 "/>
<path fill="none" stroke="#2e3436" stroke-width="1.5" d="M343,-109C343,-115 337,-121 331,-121"/>
<polyline fill="none" stroke="#2e3436" stroke-width="1.5" points="331,-121 279,-121 "/>
<path fill="none" stroke="#2e3436" stroke-width="1.5" d="M279,-121C273,-121 267,-115 267,-109"/>
<polyline fill="none" stroke="#2e3436" stroke-width="1.5" points="267,-109 267,-97 "/>
<path fill="none" stroke="#2e3436" stroke-width="1.5" d="M267,-97C267,-91 273,-85 279,-85"/>
<text text-anchor="start" x="275" y="-100.8" font-family="FreeSans" font-size="8.00" fill="#1c2021">name = &#39;Derrick&#39;</text>
</g>
<!-- N3&#45;&gt;N2 -->
<g id="edge6" class="edge"><title>N3&#45;&gt;N2</title>
<path fill="none" stroke="#2e3436" stroke-width="2" d="M314.33,-84.7733C320.416,-72.8851 328.441,-57.2081 335.13,-44.1413"/>
<polygon fill="#2e3436" stroke="#2e3436" points="338.688,-37.1912 338.275,-45.4052 337.424,-40.7571 335.715,-44.0951 335.27,-43.8673 334.825,-43.6395 336.534,-40.3014 332.266,-42.3294 338.688,-37.1912 338.688,-37.1912"/>
<text text-anchor="middle" x="341.5" y="-58.8" font-family="FreeSans" font-size="8.00" fill="#2e3436">favorite</text>
</g>
<!-- N3&#45;&gt;N4 -->
<g id="edge8" class="edge"><title>N3&#45;&gt;N4</title>
<path fill="none" stroke="#2e3436" stroke-width="2" d="M289.034,-84.8747C279.655,-75.1647 267.096,-63.6593 254,-56 231.569,-42.8809 203.894,-33.7565 181.429,-27.8513"/>
<polygon fill="#2e3436" stroke="#2e3436" points="174.026,-25.9709 182.126,-24.546 177.783,-26.4095 181.418,-27.3326 181.295,-27.8172 181.172,-28.3018 177.537,-27.3787 180.464,-31.0883 174.026,-25.9709 174.026,-25.9709"/>
<text text-anchor="middle" x="282.5" y="-58.8" font-family="FreeSans" font-size="8.00" fill="#2e3436">favorite</text>
</g>
<!-- N5 -->
<g id="node9" class="node"><title>N5</title>
<polygon fill="#ffffff" stroke="#ffffff" stroke-width="1.5" points="12,-85 46,-85 58,-97 58,-109 46,-121 12,-121 0,-109 0,-97 12,-85"/>
<path fill="#ffffff" stroke="#ffffff" stroke-width="1.5" d="M46,-85C52,-85 58,-91 58,-97"/>
<path fill="#ffffff" stroke="#ffffff" stroke-width="1.5" d="M58,-109C58,-115 52,-121 46,-121"/>
<path fill="#ffffff" stroke="#ffffff" stroke-width="1.5" d="M12,-121C6,-121 0,-115 0,-109"/>
<path fill="#ffffff" stroke="#ffffff" stroke-width="1.5" d="M0,-97C0,-91 6,-85 12,-85"/>
<polyline fill="none" stroke="#2e3436" stroke-width="1.5" points="12,-85 46,-85 "/>
<path fill="none" stroke="#2e3436" stroke-width="1.5" d="M46,-85C52,-85 58,-91 58,-97"/>
<polyline fill="none" stroke="#2e3436" stroke-width="1.5" points="58,-97 58,-109 "/>
<path fill="none" stroke="#2e3436" stroke-width="1.5" d="M58,-109C58,-115 52,-121 46,-121"/>
<polyline fill="none" stroke="#2e3436" stroke-width="1.5" points="46,-121 12,-121 "/>
<path fill="none" stroke="#2e3436" stroke-width="1.5" d="M12,-121C6,-121 0,-115 0,-109"/>
<polyline fill="none" stroke="#2e3436" stroke-width="1.5" points="0,-109 0,-97 "/>
<path fill="none" stroke="#2e3436" stroke-width="1.5" d="M0,-97C0,-91 6,-85 12,-85"/>
<text text-anchor="start" x="8" y="-100.8" font-family="FreeSans" font-size="8.00" fill="#1c2021">name = &#39;Jill&#39;</text>
</g>
<!-- N5&#45;&gt;N4 -->
<g id="edge10" class="edge"><title>N5&#45;&gt;N4</title>
<path fill="none" stroke="#2e3436" stroke-width="2" d="M40.8207,-84.9244C47.651,-75.4642 56.8827,-64.1815 67,-56 76.6067,-48.2314 88.1094,-41.4715 99.1117,-35.9313"/>
<polygon fill="#2e3436" stroke="#2e3436" points="105.876,-32.6413 100.608,-38.9568 102.722,-34.7312 99.3502,-36.3714 99.1315,-35.9218 98.9128,-35.4721 102.285,-33.8319 97.6553,-32.8867 105.876,-32.6413 105.876,-32.6413"/>
<text text-anchor="middle" x="80.5" y="-58.8" font-family="FreeSans" font-size="8.00" fill="#2e3436">favorite</text>
</g>
<!-- N6 -->
<g id="node11" class="node"><title>N6</title>
<polygon fill="#ffffff" stroke="#ffffff" stroke-width="1.5" points="186,-169 224,-169 236,-181 236,-193 224,-205 186,-205 174,-193 174,-181 186,-169"/>
<path fill="#ffffff" stroke="#ffffff" stroke-width="1.5" d="M224,-169C230,-169 236,-175 236,-181"/>
<path fill="#ffffff" stroke="#ffffff" stroke-width="1.5" d="M236,-193C236,-199 230,-205 224,-205"/>
<path fill="#ffffff" stroke="#ffffff" stroke-width="1.5" d="M186,-205C180,-205 174,-199 174,-193"/>
<path fill="#ffffff" stroke="#ffffff" stroke-width="1.5" d="M174,-181C174,-175 180,-169 186,-169"/>
<polyline fill="none" stroke="#2e3436" stroke-width="1.5" points="186,-169 224,-169 "/>
<path fill="none" stroke="#2e3436" stroke-width="1.5" d="M224,-169C230,-169 236,-175 236,-181"/>
<polyline fill="none" stroke="#2e3436" stroke-width="1.5" points="236,-181 236,-193 "/>
<path fill="none" stroke="#2e3436" stroke-width="1.5" d="M236,-193C236,-199 230,-205 224,-205"/>
<polyline fill="none" stroke="#2e3436" stroke-width="1.5" points="224,-205 186,-205 "/>
<path fill="none" stroke="#2e3436" stroke-width="1.5" d="M186,-205C180,-205 174,-199 174,-193"/>
<polyline fill="none" stroke="#2e3436" stroke-width="1.5" points="174,-193 174,-181 "/>
<path fill="none" stroke="#2e3436" stroke-width="1.5" d="M174,-181C174,-175 180,-169 186,-169"/>
<text text-anchor="start" x="182" y="-184.8" font-family="FreeSans" font-size="8.00" fill="#1c2021">name = &#39;Joe&#39;</text>
</g>
<!-- N6&#45;&gt;N1 -->
<g id="edge16" class="edge"><title>N6&#45;&gt;N1</title>
<path fill="none" stroke="#4e9a06" stroke-width="2" d="M205,-168.773C205,-157.105 205,-141.787 205,-128.87"/>
<polygon fill="#4e9a06" stroke="#4e9a06" points="205,-121.191 208.375,-128.691 205.5,-124.941 205.5,-128.691 205,-128.691 204.5,-128.691 204.5,-124.941 201.625,-128.691 205,-121.191 205,-121.191"/>
<text text-anchor="middle" x="215.5" y="-142.8" font-family="FreeSans" font-size="8.00" fill="#4e9a06">friend</text>
</g>
<!-- N6&#45;&gt;N2 -->
<g id="edge12" class="edge"><title>N6&#45;&gt;N2</title>
<path fill="none" stroke="#2e3436" stroke-width="2" d="M236.18,-183.333C272.055,-177.305 329.653,-161.691 358,-122 374.042,-99.5385 367.228,-66.9407 359.213,-44.4624"/>
<polygon fill="#2e3436" stroke="#2e3436" points="356.481,-37.2565 362.296,-43.0724 358.278,-40.5855 359.608,-44.0919 359.14,-44.2692 358.673,-44.4465 357.343,-40.9401 355.984,-45.466 356.481,-37.2565 356.481,-37.2565"/>
<text text-anchor="middle" x="380.5" y="-100.8" font-family="FreeSans" font-size="8.00" fill="#2e3436">favorite</text>
</g>
<!-- N6&#45;&gt;N4 -->
<g id="edge14" class="edge"><title>N6&#45;&gt;N4</title>
<path fill="none" stroke="#2e3436" stroke-width="2" d="M173.985,-169.282C157.619,-158.058 139.089,-141.906 130,-122 118.718,-97.2936 124.248,-65.8482 130.668,-44.2387"/>
<polygon fill="#2e3436" stroke="#2e3436" points="132.95,-37.0325 133.904,-45.2015 132.295,-40.7585 131.163,-44.3335 130.686,-44.1826 130.21,-44.0316 131.342,-40.4566 127.469,-43.1637 132.95,-37.0325 132.95,-37.0325"/>
<text text-anchor="middle" x="143.5" y="-100.8" font-family="FreeSans" font-size="8.00" fill="#2e3436">favorite</text>
</g>
</g>
</svg>
