<?xml version="1.0" encoding="UTF-8" standalone="no"?>
<!DOCTYPE svg PUBLIC "-//W3C//DTD SVG 1.1//EN"
 "http://www.w3.org/Graphics/SVG/1.1/DTD/svg11.dtd">
<!-- Generated by graphviz version 2.26.3 (20100126.1600)
 -->
<!-- Title: g Pages: 1 -->
<svg width="414pt" height="79pt"
 viewBox="0.00 0.00 414.00 79.00" xmlns="http://www.w3.org/2000/svg" xmlns:xlink="http://www.w3.org/1999/xlink">
<g id="graph1" class="graph" transform="scale(1 1) rotate(0) translate(4 75)">
<title>g</title>
<polygon fill="white" stroke="white" points="-4,5 -4,-75 411,-75 411,5 -4,5"/>
<!-- N1 -->
<g id="node1" class="node"><title>N1</title>
<polygon fill="#ffffff" stroke="#ffffff" stroke-width="1.5" points="364,-0 394,-0 406,-12 406,-24 394,-36 364,-36 352,-24 352,-12 364,-0"/>
<path fill="#ffffff" stroke="#ffffff" stroke-width="1.5" d="M394,-0C400,-0 406,-6 406,-12"/>
<path fill="#ffffff" stroke="#ffffff" stroke-width="1.5" d="M406,-24C406,-30 400,-36 394,-36"/>
<path fill="#ffffff" stroke="#ffffff" stroke-width="1.5" d="M364,-36C358,-36 352,-30 352,-24"/>
<path fill="#ffffff" stroke="#ffffff" stroke-width="1.5" d="M352,-12C352,-6 358,-0 364,-0"/>
<polyline fill="none" stroke="#2e3436" stroke-width="1.5" points="364,-0 394,-0 "/>
<path fill="none" stroke="#2e3436" stroke-width="1.5" d="M394,-0C400,-0 406,-6 406,-12"/>
<polyline fill="none" stroke="#2e3436" stroke-width="1.5" points="406,-12 406,-24 "/>
<path fill="none" stroke="#2e3436" stroke-width="1.5" d="M406,-24C406,-30 400,-36 394,-36"/>
<polyline fill="none" stroke="#2e3436" stroke-width="1.5" points="394,-36 364,-36 "/>
<path fill="none" stroke="#2e3436" stroke-width="1.5" d="M364,-36C358,-36 352,-30 352,-24"/>
<polyline fill="none" stroke="#2e3436" stroke-width="1.5" points="352,-24 352,-12 "/>
<path fill="none" stroke="#2e3436" stroke-width="1.5" d="M352,-12C352,-6 358,-0 364,-0"/>
<text text-anchor="start" x="360" y="-20.8" font-family="FreeSans" font-size="8.00" fill="#1c2021">name = &#39;A&#39;</text>
<text text-anchor="start" x="360" y="-10.8" font-family="FreeSans" font-size="8.00" fill="#1c2021">value = 10</text>
</g>
<!-- N2 -->
<g id="node3" class="node"><title>N2</title>
<polygon fill="#ffffff" stroke="#ffffff" stroke-width="1.5" points="254,-35 284,-35 296,-47 296,-59 284,-71 254,-71 242,-59 242,-47 254,-35"/>
<path fill="#ffffff" stroke="#ffffff" stroke-width="1.5" d="M284,-35C290,-35 296,-41 296,-47"/>
<path fill="#ffffff" stroke="#ffffff" stroke-width="1.5" d="M296,-59C296,-65 290,-71 284,-71"/>
<path fill="#ffffff" stroke="#ffffff" stroke-width="1.5" d="M254,-71C248,-71 242,-65 242,-59"/>
<path fill="#ffffff" stroke="#ffffff" stroke-width="1.5" d="M242,-47C242,-41 248,-35 254,-35"/>
<polyline fill="none" stroke="#2e3436" stroke-width="1.5" points="254,-35 284,-35 "/>
<path fill="none" stroke="#2e3436" stroke-width="1.5" d="M284,-35C290,-35 296,-41 296,-47"/>
<polyline fill="none" stroke="#2e3436" stroke-width="1.5" points="296,-47 296,-59 "/>
<path fill="none" stroke="#2e3436" stroke-width="1.5" d="M296,-59C296,-65 290,-71 284,-71"/>
<polyline fill="none" stroke="#2e3436" stroke-width="1.5" points="284,-71 254,-71 "/>
<path fill="none" stroke="#2e3436" stroke-width="1.5" d="M254,-71C248,-71 242,-65 242,-59"/>
<polyline fill="none" stroke="#2e3436" stroke-width="1.5" points="242,-59 242,-47 "/>
<path fill="none" stroke="#2e3436" stroke-width="1.5" d="M242,-47C242,-41 248,-35 254,-35"/>
<text text-anchor="start" x="250" y="-55.8" font-family="FreeSans" font-size="8.00" fill="#1c2021">name = &#39;B&#39;</text>
<text text-anchor="start" x="250" y="-45.8" font-family="FreeSans" font-size="8.00" fill="#1c2021">value = 20</text>
</g>
<!-- N1&#45;&gt;N2 -->
<g id="edge2" class="edge"><title>N1&#45;&gt;N2</title>
<path fill="none" stroke="#2e3436" stroke-width="2" d="M351.809,-26.6517C337.266,-31.2791 319.202,-37.0267 303.66,-41.9718"/>
<polygon fill="#2e3436" stroke="#2e3436" points="296.259,-44.3265 302.383,-38.8363 299.681,-42.713 303.255,-41.576 303.406,-42.0524 303.558,-42.5289 299.985,-43.666 304.43,-45.2686 296.259,-44.3265 296.259,-44.3265"/>
<text text-anchor="middle" x="324" y="-40.8" font-family="FreeSans" font-size="8.00" fill="#2e3436">LINK</text>
</g>
<!-- N3 -->
<g id="node5" class="node"><title>N3</title>
<polygon fill="#ffffff" stroke="#ffffff" stroke-width="1.5" points="142.5,-35 173.5,-35 185.5,-47 185.5,-59 173.5,-71 142.5,-71 130.5,-59 130.5,-47 142.5,-35"/>
<path fill="#ffffff" stroke="#ffffff" stroke-width="1.5" d="M173.5,-35C179.5,-35 185.5,-41 185.5,-47"/>
<path fill="#ffffff" stroke="#ffffff" stroke-width="1.5" d="M185.5,-59C185.5,-65 179.5,-71 173.5,-71"/>
<path fill="#ffffff" stroke="#ffffff" stroke-width="1.5" d="M142.5,-71C136.5,-71 130.5,-65 130.5,-59"/>
<path fill="#ffffff" stroke="#ffffff" stroke-width="1.5" d="M130.5,-47C130.5,-41 136.5,-35 142.5,-35"/>
<polyline fill="none" stroke="#2e3436" stroke-width="1.5" points="142.5,-35 173.5,-35 "/>
<path fill="none" stroke="#2e3436" stroke-width="1.5" d="M173.5,-35C179.5,-35 185.5,-41 185.5,-47"/>
<polyline fill="none" stroke="#2e3436" stroke-width="1.5" points="185.5,-47 185.5,-59 "/>
<path fill="none" stroke="#2e3436" stroke-width="1.5" d="M185.5,-59C185.5,-65 179.5,-71 173.5,-71"/>
<polyline fill="none" stroke="#2e3436" stroke-width="1.5" points="173.5,-71 142.5,-71 "/>
<path fill="none" stroke="#2e3436" stroke-width="1.5" d="M142.5,-71C136.5,-71 130.5,-65 130.5,-59"/>
<polyline fill="none" stroke="#2e3436" stroke-width="1.5" points="130.5,-59 130.5,-47 "/>
<path fill="none" stroke="#2e3436" stroke-width="1.5" d="M130.5,-47C130.5,-41 136.5,-35 142.5,-35"/>
<text text-anchor="start" x="138.5" y="-55.8" font-family="FreeSans" font-size="8.00" fill="#1c2021">name = &#39;C&#39;</text>
<text text-anchor="start" x="138.5" y="-45.8" font-family="FreeSans" font-size="8.00" fill="#1c2021">value = 30</text>
</g>
<!-- N2&#45;&gt;N3 -->
<g id="edge4" class="edge"><title>N2&#45;&gt;N3</title>
<path fill="none" stroke="#2e3436" stroke-width="2" d="M241.846,-53C227.308,-53 209.222,-53 193.574,-53"/>
<polygon fill="#2e3436" stroke="#2e3436" points="185.644,-53 193.144,-49.6251 189.394,-52.5 193.144,-52.5001 193.144,-53.0001 193.144,-53.5001 189.394,-53.5 193.144,-56.3751 185.644,-53 185.644,-53"/>
<text text-anchor="middle" x="214" y="-55.8" font-family="FreeSans" font-size="8.00" fill="#2e3436">LINK</text>
</g>
<!-- N4 -->
<g id="node7" class="node"><title>N4</title>
<polygon fill="#ffffff" stroke="#ffffff" stroke-width="1.5" points="12,-0 62,-0 74,-12 74,-24 62,-36 12,-36 0,-24 0,-12 12,-0"/>
<path fill="#ffffff" stroke="#ffffff" stroke-width="1.5" d="M62,-0C68,-0 74,-6 74,-12"/>
<path fill="#ffffff" stroke="#ffffff" stroke-width="1.5" d="M74,-24C74,-30 68,-36 62,-36"/>
<path fill="#ffffff" stroke="#ffffff" stroke-width="1.5" d="M12,-36C6,-36 0,-30 0,-24"/>
<path fill="#ffffff" stroke="#ffffff" stroke-width="1.5" d="M0,-12C0,-6 6,-0 12,-0"/>
<polyline fill="none" stroke="#2e3436" stroke-width="1.5" points="12,-0 62,-0 "/>
<path fill="none" stroke="#2e3436" stroke-width="1.5" d="M62,-0C68,-0 74,-6 74,-12"/>
<polyline fill="none" stroke="#2e3436" stroke-width="1.5" points="74,-12 74,-24 "/>
<path fill="none" stroke="#2e3436" stroke-width="1.5" d="M74,-24C74,-30 68,-36 62,-36"/>
<polyline fill="none" stroke="#2e3436" stroke-width="1.5" points="62,-36 12,-36 "/>
<path fill="none" stroke="#2e3436" stroke-width="1.5" d="M12,-36C6,-36 0,-30 0,-24"/>
<polyline fill="none" stroke="#2e3436" stroke-width="1.5" points="0,-24 0,-12 "/>
<path fill="none" stroke="#2e3436" stroke-width="1.5" d="M0,-12C0,-6 6,-0 12,-0"/>
<text text-anchor="start" x="8" y="-15.8" font-family="FreeSans" font-size="8.00" fill="#1c2021">name = &#39;ROOT&#39;</text>
</g>
<!-- N3&#45;&gt;N4 -->
<g id="edge6" class="edge"><title>N3&#45;&gt;N4</title>
<path fill="none" stroke="#2e3436" stroke-width="2" d="M130.24,-44.9703C115.84,-40.8049 97.8982,-35.6152 81.6103,-30.9038"/>
<polygon fill="#2e3436" stroke="#2e3436" points="74.2616,-28.7782 82.4041,-27.6201 78.0029,-29.3399 81.6052,-30.3819 81.4663,-30.8622 81.3274,-31.3425 77.725,-30.3005 80.5285,-34.1043 74.2616,-28.7782 74.2616,-28.7782"/>
<text text-anchor="middle" x="102" y="-41.8" font-family="FreeSans" font-size="8.00" fill="#2e3436">LINK</text>
</g>
<!-- N4&#45;&gt;N1 -->
<g id="edge8" class="edge"><title>N4&#45;&gt;N1</title>
<path fill="none" stroke="#2e3436" stroke-width="2" d="M74.0124,-18C140.572,-18 279.554,-18 344.353,-18"/>
<polygon fill="#2e3436" stroke="#2e3436" points="351.878,-18 344.378,-21.3751 348.128,-18.5 344.378,-18.5001 344.378,-18.0001 344.378,-17.5001 348.128,-17.5 344.378,-14.6251 351.878,-18 351.878,-18"/>
<text text-anchor="middle" x="214" y="-20.8" font-family="FreeSans" font-size="8.00" fill="#2e3436">LINK</text>
</g>
</g>
</svg>
