<?xml version="1.0" encoding="UTF-8" standalone="no"?>
<!DOCTYPE svg PUBLIC "-//W3C//DTD SVG 1.1//EN"
 "http://www.w3.org/Graphics/SVG/1.1/DTD/svg11.dtd">
<!-- Generated by graphviz version 2.26.3 (20100126.1600)
 -->
<!-- Title: g Pages: 1 -->
<svg width="444pt" height="214pt"
 viewBox="0.00 0.00 444.00 214.00" xmlns="http://www.w3.org/2000/svg" xmlns:xlink="http://www.w3.org/1999/xlink">
<g id="graph1" class="graph" transform="scale(1 1) rotate(0) translate(4 210)">
<title>g</title>
<polygon fill="white" stroke="white" points="-4,5 -4,-210 441,-210 441,5 -4,5"/>
<!-- N1 -->
<g id="node1" class="node"><title>N1</title>
<polygon fill="#ffffff" stroke="#ffffff" stroke-width="1.5" points="83.5,-1 136.5,-1 148.5,-13 148.5,-25 136.5,-37 83.5,-37 71.5,-25 71.5,-13 83.5,-1"/>
<path fill="#ffffff" stroke="#ffffff" stroke-width="1.5" d="M136.5,-1C142.5,-1 148.5,-7 148.5,-13"/>
<path fill="#ffffff" stroke="#ffffff" stroke-width="1.5" d="M148.5,-25C148.5,-31 142.5,-37 136.5,-37"/>
<path fill="#ffffff" stroke="#ffffff" stroke-width="1.5" d="M83.5,-37C77.5,-37 71.5,-31 71.5,-25"/>
<path fill="#ffffff" stroke="#ffffff" stroke-width="1.5" d="M71.5,-13C71.5,-7 77.5,-1 83.5,-1"/>
<polyline fill="none" stroke="#2e3436" stroke-width="1.5" points="83.5,-1 136.5,-1 "/>
<path fill="none" stroke="#2e3436" stroke-width="1.5" d="M136.5,-1C142.5,-1 148.5,-7 148.5,-13"/>
<polyline fill="none" stroke="#2e3436" stroke-width="1.5" points="148.5,-13 148.5,-25 "/>
<path fill="none" stroke="#2e3436" stroke-width="1.5" d="M148.5,-25C148.5,-31 142.5,-37 136.5,-37"/>
<polyline fill="none" stroke="#2e3436" stroke-width="1.5" points="136.5,-37 83.5,-37 "/>
<path fill="none" stroke="#2e3436" stroke-width="1.5" d="M83.5,-37C77.5,-37 71.5,-31 71.5,-25"/>
<polyline fill="none" stroke="#2e3436" stroke-width="1.5" points="71.5,-25 71.5,-13 "/>
<path fill="none" stroke="#2e3436" stroke-width="1.5" d="M71.5,-13C71.5,-7 77.5,-1 83.5,-1"/>
<text text-anchor="start" x="79.5" y="-16.8" font-family="FreeSans" font-size="8.00" fill="#1c2021">name = &#39;Animals&#39;</text>
</g>
<!-- N2 -->
<g id="node2" class="node"><title>N2</title>
<polygon fill="#ffffff" stroke="#ffffff" stroke-width="1.5" points="228,-1 276,-1 288,-13 288,-25 276,-37 228,-37 216,-25 216,-13 228,-1"/>
<path fill="#ffffff" stroke="#ffffff" stroke-width="1.5" d="M276,-1C282,-1 288,-7 288,-13"/>
<path fill="#ffffff" stroke="#ffffff" stroke-width="1.5" d="M288,-25C288,-31 282,-37 276,-37"/>
<path fill="#ffffff" stroke="#ffffff" stroke-width="1.5" d="M228,-37C222,-37 216,-31 216,-25"/>
<path fill="#ffffff" stroke="#ffffff" stroke-width="1.5" d="M216,-13C216,-7 222,-1 228,-1"/>
<polyline fill="none" stroke="#2e3436" stroke-width="1.5" points="228,-1 276,-1 "/>
<path fill="none" stroke="#2e3436" stroke-width="1.5" d="M276,-1C282,-1 288,-7 288,-13"/>
<polyline fill="none" stroke="#2e3436" stroke-width="1.5" points="288,-13 288,-25 "/>
<path fill="none" stroke="#2e3436" stroke-width="1.5" d="M288,-25C288,-31 282,-37 276,-37"/>
<polyline fill="none" stroke="#2e3436" stroke-width="1.5" points="276,-37 228,-37 "/>
<path fill="none" stroke="#2e3436" stroke-width="1.5" d="M228,-37C222,-37 216,-31 216,-25"/>
<polyline fill="none" stroke="#2e3436" stroke-width="1.5" points="216,-25 216,-13 "/>
<path fill="none" stroke="#2e3436" stroke-width="1.5" d="M216,-13C216,-7 222,-1 228,-1"/>
<text text-anchor="start" x="224" y="-16.8" font-family="FreeSans" font-size="8.00" fill="#1c2021">name = &#39;Hobby&#39;</text>
</g>
<!-- N3 -->
<g id="node3" class="node"><title>N3</title>
<polygon fill="#ffffff" stroke="#ffffff" stroke-width="1.5" points="208,-85 258,-85 270,-97 270,-109 258,-121 208,-121 196,-109 196,-97 208,-85"/>
<path fill="#ffffff" stroke="#ffffff" stroke-width="1.5" d="M258,-85C264,-85 270,-91 270,-97"/>
<path fill="#ffffff" stroke="#ffffff" stroke-width="1.5" d="M270,-109C270,-115 264,-121 258,-121"/>
<path fill="#ffffff" stroke="#ffffff" stroke-width="1.5" d="M208,-121C202,-121 196,-115 196,-109"/>
<path fill="#ffffff" stroke="#ffffff" stroke-width="1.5" d="M196,-97C196,-91 202,-85 208,-85"/>
<polyline fill="none" stroke="#2e3436" stroke-width="1.5" points="208,-85 258,-85 "/>
<path fill="none" stroke="#2e3436" stroke-width="1.5" d="M258,-85C264,-85 270,-91 270,-97"/>
<polyline fill="none" stroke="#2e3436" stroke-width="1.5" points="270,-97 270,-109 "/>
<path fill="none" stroke="#2e3436" stroke-width="1.5" d="M270,-109C270,-115 264,-121 258,-121"/>
<polyline fill="none" stroke="#2e3436" stroke-width="1.5" points="258,-121 208,-121 "/>
<path fill="none" stroke="#2e3436" stroke-width="1.5" d="M208,-121C202,-121 196,-115 196,-109"/>
<polyline fill="none" stroke="#2e3436" stroke-width="1.5" points="196,-109 196,-97 "/>
<path fill="none" stroke="#2e3436" stroke-width="1.5" d="M196,-97C196,-91 202,-85 208,-85"/>
<text text-anchor="start" x="204" y="-100.8" font-family="FreeSans" font-size="8.00" fill="#1c2021">name = &#39;Surfing&#39;</text>
</g>
<!-- N3&#45;&gt;N2 -->
<g id="edge2" class="edge"><title>N3&#45;&gt;N2</title>
<path fill="none" stroke="#2e3436" stroke-width="2" d="M237.123,-84.7733C239.762,-73.1053 243.227,-57.7874 246.148,-44.8699"/>
<polygon fill="#2e3436" stroke="#2e3436" points="247.885,-37.1912 249.522,-45.251 247.546,-40.9591 246.718,-44.6167 246.231,-44.5064 245.743,-44.3961 246.57,-40.7385 242.939,-43.7618 247.885,-37.1912 247.885,-37.1912"/>
<text text-anchor="middle" x="255.5" y="-58.8" font-family="FreeSans" font-size="8.00" fill="#2e3436">tagged</text>
</g>
<!-- N4 -->
<g id="node5" class="node"><title>N4</title>
<polygon fill="#ffffff" stroke="#ffffff" stroke-width="1.5" points="266,-169 308,-169 320,-181 320,-193 308,-205 266,-205 254,-193 254,-181 266,-169"/>
<path fill="#ffffff" stroke="#ffffff" stroke-width="1.5" d="M308,-169C314,-169 320,-175 320,-181"/>
<path fill="#ffffff" stroke="#ffffff" stroke-width="1.5" d="M320,-193C320,-199 314,-205 308,-205"/>
<path fill="#ffffff" stroke="#ffffff" stroke-width="1.5" d="M266,-205C260,-205 254,-199 254,-193"/>
<path fill="#ffffff" stroke="#ffffff" stroke-width="1.5" d="M254,-181C254,-175 260,-169 266,-169"/>
<polyline fill="none" stroke="#2e3436" stroke-width="1.5" points="266,-169 308,-169 "/>
<path fill="none" stroke="#2e3436" stroke-width="1.5" d="M308,-169C314,-169 320,-175 320,-181"/>
<polyline fill="none" stroke="#2e3436" stroke-width="1.5" points="320,-181 320,-193 "/>
<path fill="none" stroke="#2e3436" stroke-width="1.5" d="M320,-193C320,-199 314,-205 308,-205"/>
<polyline fill="none" stroke="#2e3436" stroke-width="1.5" points="308,-205 266,-205 "/>
<path fill="none" stroke="#2e3436" stroke-width="1.5" d="M266,-205C260,-205 254,-199 254,-193"/>
<polyline fill="none" stroke="#2e3436" stroke-width="1.5" points="254,-193 254,-181 "/>
<path fill="none" stroke="#2e3436" stroke-width="1.5" d="M254,-181C254,-175 260,-169 266,-169"/>
<text text-anchor="start" x="262" y="-184.8" font-family="FreeSans" font-size="8.00" fill="#1c2021">name = &#39;Sara&#39;</text>
</g>
<!-- N8 -->
<g id="node7" class="node"><title>N8</title>
<polygon fill="#ffffff" stroke="#ffffff" stroke-width="1.5" points="313,-85 357,-85 369,-97 369,-109 357,-121 313,-121 301,-109 301,-97 313,-85"/>
<path fill="#ffffff" stroke="#ffffff" stroke-width="1.5" d="M357,-85C363,-85 369,-91 369,-97"/>
<path fill="#ffffff" stroke="#ffffff" stroke-width="1.5" d="M369,-109C369,-115 363,-121 357,-121"/>
<path fill="#ffffff" stroke="#ffffff" stroke-width="1.5" d="M313,-121C307,-121 301,-115 301,-109"/>
<path fill="#ffffff" stroke="#ffffff" stroke-width="1.5" d="M301,-97C301,-91 307,-85 313,-85"/>
<polyline fill="none" stroke="#2e3436" stroke-width="1.5" points="313,-85 357,-85 "/>
<path fill="none" stroke="#2e3436" stroke-width="1.5" d="M357,-85C363,-85 369,-91 369,-97"/>
<polyline fill="none" stroke="#2e3436" stroke-width="1.5" points="369,-97 369,-109 "/>
<path fill="none" stroke="#2e3436" stroke-width="1.5" d="M369,-109C369,-115 363,-121 357,-121"/>
<polyline fill="none" stroke="#2e3436" stroke-width="1.5" points="357,-121 313,-121 "/>
<path fill="none" stroke="#2e3436" stroke-width="1.5" d="M313,-121C307,-121 301,-115 301,-109"/>
<polyline fill="none" stroke="#2e3436" stroke-width="1.5" points="301,-109 301,-97 "/>
<path fill="none" stroke="#2e3436" stroke-width="1.5" d="M301,-97C301,-91 307,-85 313,-85"/>
<text text-anchor="start" x="309" y="-100.8" font-family="FreeSans" font-size="8.00" fill="#1c2021">name = &#39;Bikes&#39;</text>
</g>
<!-- N4&#45;&gt;N8 -->
<g id="edge4" class="edge"><title>N4&#45;&gt;N8</title>
<path fill="none" stroke="#4e9a06" stroke-width="2" d="M297.415,-168.773C304.271,-156.775 313.333,-140.917 320.841,-127.779"/>
<polygon fill="#4e9a06" stroke="#4e9a06" points="324.605,-121.191 323.814,-129.378 323.179,-124.695 321.318,-127.951 320.884,-127.703 320.45,-127.455 322.31,-124.199 317.954,-126.029 324.605,-121.191 324.605,-121.191"/>
<text text-anchor="middle" x="325.5" y="-142.8" font-family="FreeSans" font-size="8.00" fill="#4e9a06">favorite</text>
</g>
<!-- N7 -->
<g id="node9" class="node"><title>N7</title>
<polygon fill="#ffffff" stroke="#ffffff" stroke-width="1.5" points="105,-85 155,-85 167,-97 167,-109 155,-121 105,-121 93,-109 93,-97 105,-85"/>
<path fill="#ffffff" stroke="#ffffff" stroke-width="1.5" d="M155,-85C161,-85 167,-91 167,-97"/>
<path fill="#ffffff" stroke="#ffffff" stroke-width="1.5" d="M167,-109C167,-115 161,-121 155,-121"/>
<path fill="#ffffff" stroke="#ffffff" stroke-width="1.5" d="M105,-121C99,-121 93,-115 93,-109"/>
<path fill="#ffffff" stroke="#ffffff" stroke-width="1.5" d="M93,-97C93,-91 99,-85 105,-85"/>
<polyline fill="none" stroke="#2e3436" stroke-width="1.5" points="105,-85 155,-85 "/>
<path fill="none" stroke="#2e3436" stroke-width="1.5" d="M155,-85C161,-85 167,-91 167,-97"/>
<polyline fill="none" stroke="#2e3436" stroke-width="1.5" points="167,-97 167,-109 "/>
<path fill="none" stroke="#2e3436" stroke-width="1.5" d="M167,-109C167,-115 161,-121 155,-121"/>
<polyline fill="none" stroke="#2e3436" stroke-width="1.5" points="155,-121 105,-121 "/>
<path fill="none" stroke="#2e3436" stroke-width="1.5" d="M105,-121C99,-121 93,-115 93,-109"/>
<polyline fill="none" stroke="#2e3436" stroke-width="1.5" points="93,-109 93,-97 "/>
<path fill="none" stroke="#2e3436" stroke-width="1.5" d="M93,-97C93,-91 99,-85 105,-85"/>
<text text-anchor="start" x="101" y="-100.8" font-family="FreeSans" font-size="8.00" fill="#1c2021">name = &#39;Horses&#39;</text>
</g>
<!-- N4&#45;&gt;N7 -->
<g id="edge6" class="edge"><title>N4&#45;&gt;N7</title>
<path fill="none" stroke="#4e9a06" stroke-width="2" d="M273.77,-168.648C265.85,-158.867 255.003,-147.367 243,-140 218.545,-124.991 208.24,-131.015 181,-122 178.898,-121.304 176.753,-120.577 174.591,-119.829"/>
<polygon fill="#4e9a06" stroke="#4e9a06" points="167.211,-117.225 175.406,-116.538 170.914,-118.002 174.45,-119.249 174.284,-119.721 174.117,-120.192 170.581,-118.945 173.161,-122.903 167.211,-117.225 167.211,-117.225"/>
<text text-anchor="middle" x="268.5" y="-142.8" font-family="FreeSans" font-size="8.00" fill="#4e9a06">favorite</text>
</g>
<!-- N8&#45;&gt;N2 -->
<g id="edge14" class="edge"><title>N8&#45;&gt;N2</title>
<path fill="none" stroke="#2e3436" stroke-width="2" d="M316.99,-84.7733C304.809,-72.4448 288.601,-56.0416 275.418,-42.7005"/>
<polygon fill="#2e3436" stroke="#2e3436" points="269.975,-37.1912 277.647,-40.154 272.966,-39.5072 275.602,-42.1747 275.246,-42.5262 274.89,-42.8776 272.255,-40.2101 272.845,-44.8983 269.975,-37.1912 269.975,-37.1912"/>
<text text-anchor="middle" x="307.5" y="-58.8" font-family="FreeSans" font-size="8.00" fill="#2e3436">tagged</text>
</g>
<!-- N7&#45;&gt;N1 -->
<g id="edge12" class="edge"><title>N7&#45;&gt;N1</title>
<path fill="none" stroke="#2e3436" stroke-width="2" d="M125.66,-84.7733C122.856,-72.9952 119.166,-57.4981 116.073,-44.5049"/>
<polygon fill="#2e3436" stroke="#2e3436" points="114.331,-37.1912 119.352,-43.7055 115.686,-40.7234 116.555,-44.3714 116.068,-44.4872 115.582,-44.603 114.713,-40.955 112.785,-45.269 114.331,-37.1912 114.331,-37.1912"/>
<text text-anchor="middle" x="133.5" y="-58.8" font-family="FreeSans" font-size="8.00" fill="#2e3436">tagged</text>
</g>
<!-- N5 -->
<g id="node10" class="node"><title>N5</title>
<polygon fill="#ffffff" stroke="#ffffff" stroke-width="1.5" points="11.5,-85 52.5,-85 64.5,-97 64.5,-109 52.5,-121 11.5,-121 -0.5,-109 -0.5,-97 11.5,-85"/>
<path fill="#ffffff" stroke="#ffffff" stroke-width="1.5" d="M52.5,-85C58.5,-85 64.5,-91 64.5,-97"/>
<path fill="#ffffff" stroke="#ffffff" stroke-width="1.5" d="M64.5,-109C64.5,-115 58.5,-121 52.5,-121"/>
<path fill="#ffffff" stroke="#ffffff" stroke-width="1.5" d="M11.5,-121C5.5,-121 -0.5,-115 -0.5,-109"/>
<path fill="#ffffff" stroke="#ffffff" stroke-width="1.5" d="M-0.5,-97C-0.5,-91 5.5,-85 11.5,-85"/>
<polyline fill="none" stroke="#2e3436" stroke-width="1.5" points="11.5,-85 52.5,-85 "/>
<path fill="none" stroke="#2e3436" stroke-width="1.5" d="M52.5,-85C58.5,-85 64.5,-91 64.5,-97"/>
<polyline fill="none" stroke="#2e3436" stroke-width="1.5" points="64.5,-97 64.5,-109 "/>
<path fill="none" stroke="#2e3436" stroke-width="1.5" d="M64.5,-109C64.5,-115 58.5,-121 52.5,-121"/>
<polyline fill="none" stroke="#2e3436" stroke-width="1.5" points="52.5,-121 11.5,-121 "/>
<path fill="none" stroke="#2e3436" stroke-width="1.5" d="M11.5,-121C5.5,-121 -0.5,-115 -0.5,-109"/>
<polyline fill="none" stroke="#2e3436" stroke-width="1.5" points="-0.5,-109 -0.5,-97 "/>
<path fill="none" stroke="#2e3436" stroke-width="1.5" d="M-0.5,-97C-0.5,-91 5.5,-85 11.5,-85"/>
<text text-anchor="start" x="7.5" y="-100.8" font-family="FreeSans" font-size="8.00" fill="#1c2021">name = &#39;Cats&#39;</text>
</g>
<!-- N5&#45;&gt;N1 -->
<g id="edge8" class="edge"><title>N5&#45;&gt;N1</title>
<path fill="none" stroke="#2e3436" stroke-width="2" d="M48.9248,-84.7733C60.3726,-72.4448 75.6042,-56.0416 87.9924,-42.7005"/>
<polygon fill="#2e3436" stroke="#2e3436" points="93.1082,-37.1912 90.478,-44.9837 90.9229,-40.2794 88.3712,-43.0274 88.0048,-42.6872 87.6384,-42.3469 90.1901,-39.5989 85.5316,-40.3906 93.1082,-37.1912 93.1082,-37.1912"/>
<text text-anchor="middle" x="86.5" y="-58.8" font-family="FreeSans" font-size="8.00" fill="#2e3436">tagged</text>
</g>
<!-- N6 -->
<g id="node12" class="node"><title>N6</title>
<polygon fill="#ffffff" stroke="#ffffff" stroke-width="1.5" points="372,-169 424,-169 436,-181 436,-193 424,-205 372,-205 360,-193 360,-181 372,-169"/>
<path fill="#ffffff" stroke="#ffffff" stroke-width="1.5" d="M424,-169C430,-169 436,-175 436,-181"/>
<path fill="#ffffff" stroke="#ffffff" stroke-width="1.5" d="M436,-193C436,-199 430,-205 424,-205"/>
<path fill="#ffffff" stroke="#ffffff" stroke-width="1.5" d="M372,-205C366,-205 360,-199 360,-193"/>
<path fill="#ffffff" stroke="#ffffff" stroke-width="1.5" d="M360,-181C360,-175 366,-169 372,-169"/>
<polyline fill="none" stroke="#2e3436" stroke-width="1.5" points="372,-169 424,-169 "/>
<path fill="none" stroke="#2e3436" stroke-width="1.5" d="M424,-169C430,-169 436,-175 436,-181"/>
<polyline fill="none" stroke="#2e3436" stroke-width="1.5" points="436,-181 436,-193 "/>
<path fill="none" stroke="#2e3436" stroke-width="1.5" d="M436,-193C436,-199 430,-205 424,-205"/>
<polyline fill="none" stroke="#2e3436" stroke-width="1.5" points="424,-205 372,-205 "/>
<path fill="none" stroke="#2e3436" stroke-width="1.5" d="M372,-205C366,-205 360,-199 360,-193"/>
<polyline fill="none" stroke="#2e3436" stroke-width="1.5" points="360,-193 360,-181 "/>
<path fill="none" stroke="#2e3436" stroke-width="1.5" d="M360,-181C360,-175 366,-169 372,-169"/>
<text text-anchor="start" x="368" y="-184.8" font-family="FreeSans" font-size="8.00" fill="#1c2021">name = &#39;Derrick&#39;</text>
</g>
<!-- N6&#45;&gt;N8 -->
<g id="edge10" class="edge"><title>N6&#45;&gt;N8</title>
<path fill="none" stroke="#4e9a06" stroke-width="2" d="M384.33,-168.773C375.249,-156.665 363.22,-140.626 353.314,-127.418"/>
<polygon fill="#4e9a06" stroke="#4e9a06" points="348.643,-121.191 355.843,-125.166 351.293,-123.891 353.543,-126.891 353.143,-127.191 352.743,-127.491 350.493,-124.491 350.443,-129.216 348.643,-121.191 348.643,-121.191"/>
<text text-anchor="middle" x="381.5" y="-142.8" font-family="FreeSans" font-size="8.00" fill="#4e9a06">favorite</text>
</g>
<!-- N9 -->
<g id="node16" class="node"><title>N9</title>
<polygon fill="#ffffff" stroke="#ffffff" stroke-width="1.5" points="104,-169 142,-169 154,-181 154,-193 142,-205 104,-205 92,-193 92,-181 104,-169"/>
<path fill="#ffffff" stroke="#ffffff" stroke-width="1.5" d="M142,-169C148,-169 154,-175 154,-181"/>
<path fill="#ffffff" stroke="#ffffff" stroke-width="1.5" d="M154,-193C154,-199 148,-205 142,-205"/>
<path fill="#ffffff" stroke="#ffffff" stroke-width="1.5" d="M104,-205C98,-205 92,-199 92,-193"/>
<path fill="#ffffff" stroke="#ffffff" stroke-width="1.5" d="M92,-181C92,-175 98,-169 104,-169"/>
<polyline fill="none" stroke="#2e3436" stroke-width="1.5" points="104,-169 142,-169 "/>
<path fill="none" stroke="#2e3436" stroke-width="1.5" d="M142,-169C148,-169 154,-175 154,-181"/>
<polyline fill="none" stroke="#2e3436" stroke-width="1.5" points="154,-181 154,-193 "/>
<path fill="none" stroke="#2e3436" stroke-width="1.5" d="M154,-193C154,-199 148,-205 142,-205"/>
<polyline fill="none" stroke="#2e3436" stroke-width="1.5" points="142,-205 104,-205 "/>
<path fill="none" stroke="#2e3436" stroke-width="1.5" d="M104,-205C98,-205 92,-199 92,-193"/>
<polyline fill="none" stroke="#2e3436" stroke-width="1.5" points="92,-193 92,-181 "/>
<path fill="none" stroke="#2e3436" stroke-width="1.5" d="M92,-181C92,-175 98,-169 104,-169"/>
<text text-anchor="start" x="100" y="-184.8" font-family="FreeSans" font-size="8.00" fill="#1c2021">name = &#39;Joe&#39;</text>
</g>
<!-- N9&#45;&gt;N3 -->
<g id="edge22" class="edge"><title>N9&#45;&gt;N3</title>
<path fill="none" stroke="#4e9a06" stroke-width="2" d="M131.07,-168.675C136.005,-159.141 143.087,-147.868 152,-140 158.181,-134.543 173.273,-127.21 188.778,-120.512"/>
<polygon fill="#4e9a06" stroke="#4e9a06" points="195.9,-117.488 190.315,-123.526 192.644,-119.414 189.192,-120.88 188.996,-120.419 188.801,-119.959 192.253,-118.494 187.677,-117.313 195.9,-117.488 195.9,-117.488"/>
<text text-anchor="middle" x="165.5" y="-142.8" font-family="FreeSans" font-size="8.00" fill="#4e9a06">favorite</text>
</g>
<!-- N9&#45;&gt;N8 -->
<g id="edge20" class="edge"><title>N9&#45;&gt;N8</title>
<path fill="none" stroke="#4e9a06" stroke-width="2" d="M151.523,-168.89C167.838,-159.185 188.984,-147.68 209,-140 241.409,-127.565 251.816,-132.187 285,-122 287.735,-121.16 290.537,-120.247 293.348,-119.291"/>
<polygon fill="#4e9a06" stroke="#4e9a06" points="300.777,-116.679 294.821,-122.351 297.405,-118.395 293.867,-119.639 293.701,-119.167 293.536,-118.695 297.073,-117.452 292.582,-115.983 300.777,-116.679 300.777,-116.679"/>
<text text-anchor="middle" x="222.5" y="-142.8" font-family="FreeSans" font-size="8.00" fill="#4e9a06">favorite</text>
</g>
<!-- N9&#45;&gt;N7 -->
<g id="edge18" class="edge"><title>N9&#45;&gt;N7</title>
<path fill="none" stroke="#4e9a06" stroke-width="2" d="M99.8723,-168.759C92.2144,-160.424 86.635,-150.158 91,-140 93.0301,-135.276 95.9926,-130.871 99.3923,-126.868"/>
<polygon fill="#4e9a06" stroke="#4e9a06" points="104.628,-121.298 101.95,-129.074 102.424,-124.373 99.8554,-127.105 99.4911,-126.763 99.1268,-126.42 101.695,-123.688 97.0321,-124.451 104.628,-121.298 104.628,-121.298"/>
<text text-anchor="middle" x="104.5" y="-142.8" font-family="FreeSans" font-size="8.00" fill="#4e9a06">favorite</text>
</g>
<!-- N9&#45;&gt;N5 -->
<g id="edge16" class="edge"><title>N9&#45;&gt;N5</title>
<path fill="none" stroke="#4e9a06" stroke-width="2" d="M91.7208,-174.538C79.4658,-168.507 65.9816,-160.311 56,-150 49.95,-143.751 45.0866,-135.672 41.3617,-127.981"/>
<polygon fill="#4e9a06" stroke="#4e9a06" points="38.2596,-121.091 44.416,-126.544 40.255,-124.305 41.7944,-127.724 41.3385,-127.93 40.8825,-128.135 39.3431,-124.715 38.2609,-129.315 38.2596,-121.091 38.2596,-121.091"/>
<text text-anchor="middle" x="69.5" y="-142.8" font-family="FreeSans" font-size="8.00" fill="#4e9a06">favorite</text>
</g>
</g>
</svg>
