<?xml version="1.0" encoding="UTF-8" standalone="no"?>
<!DOCTYPE svg PUBLIC "-//W3C//DTD SVG 1.1//EN"
 "http://www.w3.org/Graphics/SVG/1.1/DTD/svg11.dtd">
<!-- Generated by graphviz version 2.26.3 (20100126.1600)
 -->
<!-- Title: g Pages: 1 -->
<svg width="504pt" height="157pt"
 viewBox="0.00 0.00 504.00 157.00" xmlns="http://www.w3.org/2000/svg" xmlns:xlink="http://www.w3.org/1999/xlink">
<g id="graph1" class="graph" transform="scale(0.733624 0.733624) rotate(0) translate(4 210)">
<title>g</title>
<polygon fill="white" stroke="white" points="-4,5 -4,-210 684,-210 684,5 -4,5"/>
<!-- N1 -->
<g id="node1" class="node"><title>N1</title>
<polygon fill="#ffffff" stroke="#ffffff" stroke-width="1.5" points="11.5,-85 64.5,-85 76.5,-97 76.5,-109 64.5,-121 11.5,-121 -0.5,-109 -0.5,-97 11.5,-85"/>
<path fill="#ffffff" stroke="#ffffff" stroke-width="1.5" d="M64.5,-85C70.5,-85 76.5,-91 76.5,-97"/>
<path fill="#ffffff" stroke="#ffffff" stroke-width="1.5" d="M76.5,-109C76.5,-115 70.5,-121 64.5,-121"/>
<path fill="#ffffff" stroke="#ffffff" stroke-width="1.5" d="M11.5,-121C5.5,-121 -0.5,-115 -0.5,-109"/>
<path fill="#ffffff" stroke="#ffffff" stroke-width="1.5" d="M-0.5,-97C-0.5,-91 5.5,-85 11.5,-85"/>
<polyline fill="none" stroke="#2e3436" stroke-width="1.5" points="11.5,-85 64.5,-85 "/>
<path fill="none" stroke="#2e3436" stroke-width="1.5" d="M64.5,-85C70.5,-85 76.5,-91 76.5,-97"/>
<polyline fill="none" stroke="#2e3436" stroke-width="1.5" points="76.5,-97 76.5,-109 "/>
<path fill="none" stroke="#2e3436" stroke-width="1.5" d="M76.5,-109C76.5,-115 70.5,-121 64.5,-121"/>
<polyline fill="none" stroke="#2e3436" stroke-width="1.5" points="64.5,-121 11.5,-121 "/>
<path fill="none" stroke="#2e3436" stroke-width="1.5" d="M11.5,-121C5.5,-121 -0.5,-115 -0.5,-109"/>
<polyline fill="none" stroke="#2e3436" stroke-width="1.5" points="-0.5,-109 -0.5,-97 "/>
<path fill="none" stroke="#2e3436" stroke-width="1.5" d="M-0.5,-97C-0.5,-91 5.5,-85 11.5,-85"/>
<text text-anchor="start" x="7.5" y="-100.8" font-family="FreeSans" font-size="8.00" fill="#1c2021">name = &#39;SaunaX&#39;</text>
</g>
<!-- N2 -->
<g id="node2" class="node"><title>N2</title>
<polygon fill="#ffffff" stroke="#ffffff" stroke-width="1.5" points="116.5,-85 187.5,-85 199.5,-97 199.5,-109 187.5,-121 116.5,-121 104.5,-109 104.5,-97 116.5,-85"/>
<path fill="#ffffff" stroke="#ffffff" stroke-width="1.5" d="M187.5,-85C193.5,-85 199.5,-91 199.5,-97"/>
<path fill="#ffffff" stroke="#ffffff" stroke-width="1.5" d="M199.5,-109C199.5,-115 193.5,-121 187.5,-121"/>
<path fill="#ffffff" stroke="#ffffff" stroke-width="1.5" d="M116.5,-121C110.5,-121 104.5,-115 104.5,-109"/>
<path fill="#ffffff" stroke="#ffffff" stroke-width="1.5" d="M104.5,-97C104.5,-91 110.5,-85 116.5,-85"/>
<polyline fill="none" stroke="#2e3436" stroke-width="1.5" points="116.5,-85 187.5,-85 "/>
<path fill="none" stroke="#2e3436" stroke-width="1.5" d="M187.5,-85C193.5,-85 199.5,-91 199.5,-97"/>
<polyline fill="none" stroke="#2e3436" stroke-width="1.5" points="199.5,-97 199.5,-109 "/>
<path fill="none" stroke="#2e3436" stroke-width="1.5" d="M199.5,-109C199.5,-115 193.5,-121 187.5,-121"/>
<polyline fill="none" stroke="#2e3436" stroke-width="1.5" points="187.5,-121 116.5,-121 "/>
<path fill="none" stroke="#2e3436" stroke-width="1.5" d="M116.5,-121C110.5,-121 104.5,-115 104.5,-109"/>
<polyline fill="none" stroke="#2e3436" stroke-width="1.5" points="104.5,-109 104.5,-97 "/>
<path fill="none" stroke="#2e3436" stroke-width="1.5" d="M104.5,-97C104.5,-91 110.5,-85 116.5,-85"/>
<text text-anchor="start" x="112.5" y="-100.8" font-family="FreeSans" font-size="8.00" fill="#1c2021">name = &#39;CoffeeShop1&#39;</text>
</g>
<!-- N5 -->
<g id="node4" class="node"><title>N5</title>
<polygon fill="#ffffff" stroke="#ffffff" stroke-width="1.5" points="431.5,-1 472.5,-1 484.5,-13 484.5,-25 472.5,-37 431.5,-37 419.5,-25 419.5,-13 431.5,-1"/>
<path fill="#ffffff" stroke="#ffffff" stroke-width="1.5" d="M472.5,-1C478.5,-1 484.5,-7 484.5,-13"/>
<path fill="#ffffff" stroke="#ffffff" stroke-width="1.5" d="M484.5,-25C484.5,-31 478.5,-37 472.5,-37"/>
<path fill="#ffffff" stroke="#ffffff" stroke-width="1.5" d="M431.5,-37C425.5,-37 419.5,-31 419.5,-25"/>
<path fill="#ffffff" stroke="#ffffff" stroke-width="1.5" d="M419.5,-13C419.5,-7 425.5,-1 431.5,-1"/>
<polyline fill="none" stroke="#2e3436" stroke-width="1.5" points="431.5,-1 472.5,-1 "/>
<path fill="none" stroke="#2e3436" stroke-width="1.5" d="M472.5,-1C478.5,-1 484.5,-7 484.5,-13"/>
<polyline fill="none" stroke="#2e3436" stroke-width="1.5" points="484.5,-13 484.5,-25 "/>
<path fill="none" stroke="#2e3436" stroke-width="1.5" d="M484.5,-25C484.5,-31 478.5,-37 472.5,-37"/>
<polyline fill="none" stroke="#2e3436" stroke-width="1.5" points="472.5,-37 431.5,-37 "/>
<path fill="none" stroke="#2e3436" stroke-width="1.5" d="M431.5,-37C425.5,-37 419.5,-31 419.5,-25"/>
<polyline fill="none" stroke="#2e3436" stroke-width="1.5" points="419.5,-25 419.5,-13 "/>
<path fill="none" stroke="#2e3436" stroke-width="1.5" d="M419.5,-13C419.5,-7 425.5,-1 431.5,-1"/>
<text text-anchor="start" x="427.5" y="-16.8" font-family="FreeSans" font-size="8.00" fill="#1c2021">name = &#39;Cool&#39;</text>
</g>
<!-- N2&#45;&gt;N5 -->
<g id="edge2" class="edge"><title>N2&#45;&gt;N5</title>
<path fill="none" stroke="#2e3436" stroke-width="2" d="M199.821,-87.6081C204.26,-86.3297 208.703,-85.1057 213,-84 251.661,-74.0516 262.614,-76.9646 301,-66 313.304,-62.4853 315.862,-60.0538 328,-56 355.904,-46.6802 387.707,-37.2135 412.119,-30.1889"/>
<polygon fill="#2e3436" stroke="#2e3436" points="419.445,-28.0901 413.165,-33.4001 415.978,-29.6035 412.373,-30.6363 412.235,-30.1557 412.097,-29.675 415.702,-28.6422 411.306,-26.9112 419.445,-28.0901 419.445,-28.0901"/>
<text text-anchor="middle" x="340.5" y="-58.8" font-family="FreeSans" font-size="8.00" fill="#2e3436">tagged</text>
</g>
<!-- N8 -->
<g id="node6" class="node"><title>N8</title>
<polygon fill="#ffffff" stroke="#ffffff" stroke-width="1.5" points="253.5,-1 296.5,-1 308.5,-13 308.5,-25 296.5,-37 253.5,-37 241.5,-25 241.5,-13 253.5,-1"/>
<path fill="#ffffff" stroke="#ffffff" stroke-width="1.5" d="M296.5,-1C302.5,-1 308.5,-7 308.5,-13"/>
<path fill="#ffffff" stroke="#ffffff" stroke-width="1.5" d="M308.5,-25C308.5,-31 302.5,-37 296.5,-37"/>
<path fill="#ffffff" stroke="#ffffff" stroke-width="1.5" d="M253.5,-37C247.5,-37 241.5,-31 241.5,-25"/>
<path fill="#ffffff" stroke="#ffffff" stroke-width="1.5" d="M241.5,-13C241.5,-7 247.5,-1 253.5,-1"/>
<polyline fill="none" stroke="#2e3436" stroke-width="1.5" points="253.5,-1 296.5,-1 "/>
<path fill="none" stroke="#2e3436" stroke-width="1.5" d="M296.5,-1C302.5,-1 308.5,-7 308.5,-13"/>
<polyline fill="none" stroke="#2e3436" stroke-width="1.5" points="308.5,-13 308.5,-25 "/>
<path fill="none" stroke="#2e3436" stroke-width="1.5" d="M308.5,-25C308.5,-31 302.5,-37 296.5,-37"/>
<polyline fill="none" stroke="#2e3436" stroke-width="1.5" points="296.5,-37 253.5,-37 "/>
<path fill="none" stroke="#2e3436" stroke-width="1.5" d="M253.5,-37C247.5,-37 241.5,-31 241.5,-25"/>
<polyline fill="none" stroke="#2e3436" stroke-width="1.5" points="241.5,-25 241.5,-13 "/>
<path fill="none" stroke="#2e3436" stroke-width="1.5" d="M241.5,-13C241.5,-7 247.5,-1 253.5,-1"/>
<text text-anchor="start" x="249.5" y="-16.8" font-family="FreeSans" font-size="8.00" fill="#1c2021">name = &#39;Cosy&#39;</text>
</g>
<!-- N2&#45;&gt;N8 -->
<g id="edge4" class="edge"><title>N2&#45;&gt;N8</title>
<path fill="none" stroke="#2e3436" stroke-width="2" d="M178.387,-84.9799C196.986,-72.2781 222.028,-55.1759 241.957,-41.5662"/>
<polygon fill="#2e3436" stroke="#2e3436" points="248.233,-37.2801 243.943,-44.297 245.418,-39.8079 242.321,-41.9228 242.039,-41.5099 241.757,-41.097 244.854,-38.9821 240.136,-38.7228 248.233,-37.2801 248.233,-37.2801"/>
<text text-anchor="middle" x="230.5" y="-58.8" font-family="FreeSans" font-size="8.00" fill="#2e3436">tagged</text>
</g>
<!-- N3 -->
<g id="node7" class="node"><title>N3</title>
<polygon fill="#ffffff" stroke="#ffffff" stroke-width="1.5" points="363,-85 425,-85 437,-97 437,-109 425,-121 363,-121 351,-109 351,-97 363,-85"/>
<path fill="#ffffff" stroke="#ffffff" stroke-width="1.5" d="M425,-85C431,-85 437,-91 437,-97"/>
<path fill="#ffffff" stroke="#ffffff" stroke-width="1.5" d="M437,-109C437,-115 431,-121 425,-121"/>
<path fill="#ffffff" stroke="#ffffff" stroke-width="1.5" d="M363,-121C357,-121 351,-115 351,-109"/>
<path fill="#ffffff" stroke="#ffffff" stroke-width="1.5" d="M351,-97C351,-91 357,-85 363,-85"/>
<polyline fill="none" stroke="#2e3436" stroke-width="1.5" points="363,-85 425,-85 "/>
<path fill="none" stroke="#2e3436" stroke-width="1.5" d="M425,-85C431,-85 437,-91 437,-97"/>
<polyline fill="none" stroke="#2e3436" stroke-width="1.5" points="437,-97 437,-109 "/>
<path fill="none" stroke="#2e3436" stroke-width="1.5" d="M437,-109C437,-115 431,-121 425,-121"/>
<polyline fill="none" stroke="#2e3436" stroke-width="1.5" points="425,-121 363,-121 "/>
<path fill="none" stroke="#2e3436" stroke-width="1.5" d="M363,-121C357,-121 351,-115 351,-109"/>
<polyline fill="none" stroke="#2e3436" stroke-width="1.5" points="351,-109 351,-97 "/>
<path fill="none" stroke="#2e3436" stroke-width="1.5" d="M351,-97C351,-91 357,-85 363,-85"/>
<text text-anchor="start" x="359" y="-100.8" font-family="FreeSans" font-size="8.00" fill="#1c2021">name = &#39;MelsPlace&#39;</text>
</g>
<!-- N3&#45;&gt;N5 -->
<g id="edge8" class="edge"><title>N3&#45;&gt;N5</title>
<path fill="none" stroke="#2e3436" stroke-width="2" d="M406.585,-84.7733C414.946,-72.665 426.02,-56.6261 435.14,-43.4181"/>
<polygon fill="#2e3436" stroke="#2e3436" points="439.439,-37.1912 437.955,-45.2806 437.72,-40.5611 435.589,-43.647 435.178,-43.3629 434.767,-43.0788 436.897,-39.993 432.401,-41.4453 439.439,-37.1912 439.439,-37.1912"/>
<text text-anchor="middle" x="436.5" y="-58.8" font-family="FreeSans" font-size="8.00" fill="#2e3436">tagged</text>
</g>
<!-- N3&#45;&gt;N8 -->
<g id="edge6" class="edge"><title>N3&#45;&gt;N8</title>
<path fill="none" stroke="#2e3436" stroke-width="2" d="M383.964,-84.6429C378.011,-75.1002 369.73,-63.8285 360,-56 347.069,-45.5954 330.763,-37.5693 315.899,-31.6938"/>
<polygon fill="#2e3436" stroke="#2e3436" points="308.739,-28.9812 316.948,-28.4824 312.423,-29.8423 315.93,-31.1709 315.753,-31.6384 315.575,-32.106 312.069,-30.7774 314.557,-34.7945 308.739,-28.9812 308.739,-28.9812"/>
<text text-anchor="middle" x="382.5" y="-58.8" font-family="FreeSans" font-size="8.00" fill="#2e3436">tagged</text>
</g>
<!-- N4 -->
<g id="node10" class="node"><title>N4</title>
<polygon fill="#ffffff" stroke="#ffffff" stroke-width="1.5" points="239.5,-85 310.5,-85 322.5,-97 322.5,-109 310.5,-121 239.5,-121 227.5,-109 227.5,-97 239.5,-85"/>
<path fill="#ffffff" stroke="#ffffff" stroke-width="1.5" d="M310.5,-85C316.5,-85 322.5,-91 322.5,-97"/>
<path fill="#ffffff" stroke="#ffffff" stroke-width="1.5" d="M322.5,-109C322.5,-115 316.5,-121 310.5,-121"/>
<path fill="#ffffff" stroke="#ffffff" stroke-width="1.5" d="M239.5,-121C233.5,-121 227.5,-115 227.5,-109"/>
<path fill="#ffffff" stroke="#ffffff" stroke-width="1.5" d="M227.5,-97C227.5,-91 233.5,-85 239.5,-85"/>
<polyline fill="none" stroke="#2e3436" stroke-width="1.5" points="239.5,-85 310.5,-85 "/>
<path fill="none" stroke="#2e3436" stroke-width="1.5" d="M310.5,-85C316.5,-85 322.5,-91 322.5,-97"/>
<polyline fill="none" stroke="#2e3436" stroke-width="1.5" points="322.5,-97 322.5,-109 "/>
<path fill="none" stroke="#2e3436" stroke-width="1.5" d="M322.5,-109C322.5,-115 316.5,-121 310.5,-121"/>
<polyline fill="none" stroke="#2e3436" stroke-width="1.5" points="310.5,-121 239.5,-121 "/>
<path fill="none" stroke="#2e3436" stroke-width="1.5" d="M239.5,-121C233.5,-121 227.5,-115 227.5,-109"/>
<polyline fill="none" stroke="#2e3436" stroke-width="1.5" points="227.5,-109 227.5,-97 "/>
<path fill="none" stroke="#2e3436" stroke-width="1.5" d="M227.5,-97C227.5,-91 233.5,-85 239.5,-85"/>
<text text-anchor="start" x="235.5" y="-100.8" font-family="FreeSans" font-size="8.00" fill="#1c2021">name = &#39;CoffeeShop3&#39;</text>
</g>
<!-- N4&#45;&gt;N8 -->
<g id="edge10" class="edge"><title>N4&#45;&gt;N8</title>
<path fill="none" stroke="#2e3436" stroke-width="2" d="M273.828,-84.9415C273.49,-78.9199 273.167,-72.1734 273,-66 272.816,-59.1932 272.964,-51.8348 273.247,-45.0061"/>
<polygon fill="#2e3436" stroke="#2e3436" points="273.63,-37.298 276.629,-44.9562 273.944,-41.0682 273.758,-44.8136 273.258,-44.7888 272.759,-44.764 272.945,-41.0186 269.887,-44.6213 273.63,-37.298 273.63,-37.298"/>
<text text-anchor="middle" x="285.5" y="-58.8" font-family="FreeSans" font-size="8.00" fill="#2e3436">tagged</text>
</g>
<!-- N6 -->
<g id="node12" class="node"><title>N6</title>
<polygon fill="#ffffff" stroke="#ffffff" stroke-width="1.5" points="477.5,-85 548.5,-85 560.5,-97 560.5,-109 548.5,-121 477.5,-121 465.5,-109 465.5,-97 477.5,-85"/>
<path fill="#ffffff" stroke="#ffffff" stroke-width="1.5" d="M548.5,-85C554.5,-85 560.5,-91 560.5,-97"/>
<path fill="#ffffff" stroke="#ffffff" stroke-width="1.5" d="M560.5,-109C560.5,-115 554.5,-121 548.5,-121"/>
<path fill="#ffffff" stroke="#ffffff" stroke-width="1.5" d="M477.5,-121C471.5,-121 465.5,-115 465.5,-109"/>
<path fill="#ffffff" stroke="#ffffff" stroke-width="1.5" d="M465.5,-97C465.5,-91 471.5,-85 477.5,-85"/>
<polyline fill="none" stroke="#2e3436" stroke-width="1.5" points="477.5,-85 548.5,-85 "/>
<path fill="none" stroke="#2e3436" stroke-width="1.5" d="M548.5,-85C554.5,-85 560.5,-91 560.5,-97"/>
<polyline fill="none" stroke="#2e3436" stroke-width="1.5" points="560.5,-97 560.5,-109 "/>
<path fill="none" stroke="#2e3436" stroke-width="1.5" d="M560.5,-109C560.5,-115 554.5,-121 548.5,-121"/>
<polyline fill="none" stroke="#2e3436" stroke-width="1.5" points="548.5,-121 477.5,-121 "/>
<path fill="none" stroke="#2e3436" stroke-width="1.5" d="M477.5,-121C471.5,-121 465.5,-115 465.5,-109"/>
<polyline fill="none" stroke="#2e3436" stroke-width="1.5" points="465.5,-109 465.5,-97 "/>
<path fill="none" stroke="#2e3436" stroke-width="1.5" d="M465.5,-97C465.5,-91 471.5,-85 477.5,-85"/>
<text text-anchor="start" x="473.5" y="-100.8" font-family="FreeSans" font-size="8.00" fill="#1c2021">name = &#39;CoffeeShop2&#39;</text>
</g>
<!-- N6&#45;&gt;N5 -->
<g id="edge12" class="edge"><title>N6&#45;&gt;N5</title>
<path fill="none" stroke="#2e3436" stroke-width="2" d="M499.764,-84.7733C490.971,-72.665 479.324,-56.6261 469.732,-43.4181"/>
<polygon fill="#2e3436" stroke="#2e3436" points="465.21,-37.1912 472.348,-41.2767 467.818,-39.9317 470.022,-42.966 469.617,-43.2598 469.213,-43.5536 467.009,-40.5193 466.886,-45.243 465.21,-37.1912 465.21,-37.1912"/>
<text text-anchor="middle" x="496.5" y="-58.8" font-family="FreeSans" font-size="8.00" fill="#2e3436">tagged</text>
</g>
<!-- N7 -->
<g id="node14" class="node"><title>N7</title>
<polygon fill="#ffffff" stroke="#ffffff" stroke-width="1.5" points="600.5,-85 667.5,-85 679.5,-97 679.5,-109 667.5,-121 600.5,-121 588.5,-109 588.5,-97 600.5,-85"/>
<path fill="#ffffff" stroke="#ffffff" stroke-width="1.5" d="M667.5,-85C673.5,-85 679.5,-91 679.5,-97"/>
<path fill="#ffffff" stroke="#ffffff" stroke-width="1.5" d="M679.5,-109C679.5,-115 673.5,-121 667.5,-121"/>
<path fill="#ffffff" stroke="#ffffff" stroke-width="1.5" d="M600.5,-121C594.5,-121 588.5,-115 588.5,-109"/>
<path fill="#ffffff" stroke="#ffffff" stroke-width="1.5" d="M588.5,-97C588.5,-91 594.5,-85 600.5,-85"/>
<polyline fill="none" stroke="#2e3436" stroke-width="1.5" points="600.5,-85 667.5,-85 "/>
<path fill="none" stroke="#2e3436" stroke-width="1.5" d="M667.5,-85C673.5,-85 679.5,-91 679.5,-97"/>
<polyline fill="none" stroke="#2e3436" stroke-width="1.5" points="679.5,-97 679.5,-109 "/>
<path fill="none" stroke="#2e3436" stroke-width="1.5" d="M679.5,-109C679.5,-115 673.5,-121 667.5,-121"/>
<polyline fill="none" stroke="#2e3436" stroke-width="1.5" points="667.5,-121 600.5,-121 "/>
<path fill="none" stroke="#2e3436" stroke-width="1.5" d="M600.5,-121C594.5,-121 588.5,-115 588.5,-109"/>
<polyline fill="none" stroke="#2e3436" stroke-width="1.5" points="588.5,-109 588.5,-97 "/>
<path fill="none" stroke="#2e3436" stroke-width="1.5" d="M588.5,-97C588.5,-91 594.5,-85 600.5,-85"/>
<text text-anchor="start" x="596.5" y="-100.8" font-family="FreeSans" font-size="8.00" fill="#1c2021">name = &#39;CoffeShop2&#39;</text>
</g>
<!-- N9 -->
<g id="node15" class="node"><title>N9</title>
<polygon fill="#ffffff" stroke="#ffffff" stroke-width="1.5" points="377,-169 411,-169 423,-181 423,-193 411,-205 377,-205 365,-193 365,-181 377,-169"/>
<path fill="#ffffff" stroke="#ffffff" stroke-width="1.5" d="M411,-169C417,-169 423,-175 423,-181"/>
<path fill="#ffffff" stroke="#ffffff" stroke-width="1.5" d="M423,-193C423,-199 417,-205 411,-205"/>
<path fill="#ffffff" stroke="#ffffff" stroke-width="1.5" d="M377,-205C371,-205 365,-199 365,-193"/>
<path fill="#ffffff" stroke="#ffffff" stroke-width="1.5" d="M365,-181C365,-175 371,-169 377,-169"/>
<polyline fill="none" stroke="#2e3436" stroke-width="1.5" points="377,-169 411,-169 "/>
<path fill="none" stroke="#2e3436" stroke-width="1.5" d="M411,-169C417,-169 423,-175 423,-181"/>
<polyline fill="none" stroke="#2e3436" stroke-width="1.5" points="423,-181 423,-193 "/>
<path fill="none" stroke="#2e3436" stroke-width="1.5" d="M423,-193C423,-199 417,-205 411,-205"/>
<polyline fill="none" stroke="#2e3436" stroke-width="1.5" points="411,-205 377,-205 "/>
<path fill="none" stroke="#2e3436" stroke-width="1.5" d="M377,-205C371,-205 365,-199 365,-193"/>
<polyline fill="none" stroke="#2e3436" stroke-width="1.5" points="365,-193 365,-181 "/>
<path fill="none" stroke="#2e3436" stroke-width="1.5" d="M365,-181C365,-175 371,-169 377,-169"/>
<text text-anchor="start" x="373" y="-184.8" font-family="FreeSans" font-size="8.00" fill="#1c2021">name = &#39;Jill&#39;</text>
</g>
<!-- N9&#45;&gt;N2 -->
<g id="edge14" class="edge"><title>N9&#45;&gt;N2</title>
<path fill="none" stroke="#4e9a06" stroke-width="2" d="M364.952,-176.492C338.241,-166.868 297.516,-152.295 262,-140 244.174,-133.829 224.674,-127.223 207.108,-121.325"/>
<polygon fill="#4e9a06" stroke="#4e9a06" points="199.709,-118.844 207.893,-118.029 203.424,-119.562 206.979,-120.755 206.82,-121.229 206.661,-121.703 203.106,-120.511 205.747,-124.429 199.709,-118.844 199.709,-118.844"/>
<text text-anchor="middle" x="300.5" y="-142.8" font-family="FreeSans" font-size="8.00" fill="#4e9a06">favorite</text>
</g>
<!-- N9&#45;&gt;N3 -->
<g id="edge16" class="edge"><title>N9&#45;&gt;N3</title>
<path fill="none" stroke="#4e9a06" stroke-width="2" d="M394,-168.773C394,-157.105 394,-141.787 394,-128.87"/>
<polygon fill="#4e9a06" stroke="#4e9a06" points="394,-121.191 397.375,-128.691 394.5,-124.941 394.5,-128.691 394,-128.691 393.5,-128.691 393.5,-124.941 390.625,-128.691 394,-121.191 394,-121.191"/>
<text text-anchor="middle" x="407.5" y="-142.8" font-family="FreeSans" font-size="8.00" fill="#4e9a06">favorite</text>
</g>
<!-- N9&#45;&gt;N7 -->
<g id="edge18" class="edge"><title>N9&#45;&gt;N7</title>
<path fill="none" stroke="#4e9a06" stroke-width="2" d="M423.429,-176.7C462.599,-162.99 532.55,-138.508 581.023,-121.542"/>
<polygon fill="#4e9a06" stroke="#4e9a06" points="588.311,-118.991 582.347,-124.655 584.936,-120.702 581.397,-121.941 581.232,-121.469 581.066,-120.997 584.606,-119.758 580.117,-118.283 588.311,-118.991 588.311,-118.991"/>
<text text-anchor="middle" x="534.5" y="-142.8" font-family="FreeSans" font-size="8.00" fill="#4e9a06">favorite</text>
</g>
<!-- N10 -->
<g id="node19" class="node"><title>N10</title>
<polygon fill="#ffffff" stroke="#ffffff" stroke-width="1.5" points="133,-169 171,-169 183,-181 183,-193 171,-205 133,-205 121,-193 121,-181 133,-169"/>
<path fill="#ffffff" stroke="#ffffff" stroke-width="1.5" d="M171,-169C177,-169 183,-175 183,-181"/>
<path fill="#ffffff" stroke="#ffffff" stroke-width="1.5" d="M183,-193C183,-199 177,-205 171,-205"/>
<path fill="#ffffff" stroke="#ffffff" stroke-width="1.5" d="M133,-205C127,-205 121,-199 121,-193"/>
<path fill="#ffffff" stroke="#ffffff" stroke-width="1.5" d="M121,-181C121,-175 127,-169 133,-169"/>
<polyline fill="none" stroke="#2e3436" stroke-width="1.5" points="133,-169 171,-169 "/>
<path fill="none" stroke="#2e3436" stroke-width="1.5" d="M171,-169C177,-169 183,-175 183,-181"/>
<polyline fill="none" stroke="#2e3436" stroke-width="1.5" points="183,-181 183,-193 "/>
<path fill="none" stroke="#2e3436" stroke-width="1.5" d="M183,-193C183,-199 177,-205 171,-205"/>
<polyline fill="none" stroke="#2e3436" stroke-width="1.5" points="171,-205 133,-205 "/>
<path fill="none" stroke="#2e3436" stroke-width="1.5" d="M133,-205C127,-205 121,-199 121,-193"/>
<polyline fill="none" stroke="#2e3436" stroke-width="1.5" points="121,-193 121,-181 "/>
<path fill="none" stroke="#2e3436" stroke-width="1.5" d="M121,-181C121,-175 127,-169 133,-169"/>
<text text-anchor="start" x="129" y="-184.8" font-family="FreeSans" font-size="8.00" fill="#1c2021">name = &#39;Joe&#39;</text>
</g>
<!-- N10&#45;&gt;N1 -->
<g id="edge22" class="edge"><title>N10&#45;&gt;N1</title>
<path fill="none" stroke="#4e9a06" stroke-width="2" d="M127.544,-168.98C110.381,-156.333 87.2967,-139.324 68.8657,-125.743"/>
<polygon fill="#4e9a06" stroke="#4e9a06" points="62.8088,-121.28 70.8488,-123.012 66.1243,-123.102 69.1433,-125.327 68.8467,-125.729 68.5501,-126.132 65.5311,-123.907 66.8446,-128.446 62.8088,-121.28 62.8088,-121.28"/>
<text text-anchor="middle" x="112.5" y="-142.8" font-family="FreeSans" font-size="8.00" fill="#4e9a06">favorite</text>
</g>
<!-- N10&#45;&gt;N2 -->
<g id="edge20" class="edge"><title>N10&#45;&gt;N2</title>
<path fill="none" stroke="#4e9a06" stroke-width="2" d="M152,-168.773C152,-157.105 152,-141.787 152,-128.87"/>
<polygon fill="#4e9a06" stroke="#4e9a06" points="152,-121.191 155.375,-128.691 152.5,-124.941 152.5,-128.691 152,-128.691 151.5,-128.691 151.5,-124.941 148.625,-128.691 152,-121.191 152,-121.191"/>
<text text-anchor="middle" x="165.5" y="-142.8" font-family="FreeSans" font-size="8.00" fill="#4e9a06">favorite</text>
</g>
<!-- N10&#45;&gt;N3 -->
<g id="edge24" class="edge"><title>N10&#45;&gt;N3</title>
<path fill="none" stroke="#4e9a06" stroke-width="2" d="M175.72,-168.963C190.11,-158.906 209.261,-147.027 228,-140 273.975,-122.76 289.339,-133.8 337,-122 339.136,-121.471 341.307,-120.901 343.492,-120.299"/>
<polygon fill="#4e9a06" stroke="#4e9a06" points="350.951,-118.146 344.681,-123.468 347.486,-119.666 343.883,-120.706 343.745,-120.226 343.606,-119.745 347.209,-118.706 342.809,-116.983 350.951,-118.146 350.951,-118.146"/>
<text text-anchor="middle" x="241.5" y="-142.8" font-family="FreeSans" font-size="8.00" fill="#4e9a06">favorite</text>
</g>
</g>
</svg>
