<?xml version="1.0" encoding="UTF-8" standalone="no"?>
<!DOCTYPE svg PUBLIC "-//W3C//DTD SVG 1.1//EN"
 "http://www.w3.org/Graphics/SVG/1.1/DTD/svg11.dtd">
<!-- Generated by graphviz version 2.26.3 (20100126.1600)
 -->
<!-- Title: g Pages: 1 -->
<svg width="173pt" height="214pt"
 viewBox="0.00 0.00 173.00 214.00" xmlns="http://www.w3.org/2000/svg" xmlns:xlink="http://www.w3.org/1999/xlink">
<g id="graph1" class="graph" transform="scale(1 1) rotate(0) translate(4 210)">
<title>g</title>
<polygon fill="white" stroke="white" points="-4,5 -4,-210 170,-210 170,5 -4,5"/>
<!-- N1 -->
<g id="node1" class="node"><title>N1</title>
<polygon fill="#ffffff" stroke="#ffffff" stroke-width="1.5" points="14,-85 56,-85 68,-97 68,-109 56,-121 14,-121 2,-109 2,-97 14,-85"/>
<path fill="#ffffff" stroke="#ffffff" stroke-width="1.5" d="M56,-85C62,-85 68,-91 68,-97"/>
<path fill="#ffffff" stroke="#ffffff" stroke-width="1.5" d="M68,-109C68,-115 62,-121 56,-121"/>
<path fill="#ffffff" stroke="#ffffff" stroke-width="1.5" d="M14,-121C8,-121 2,-115 2,-109"/>
<path fill="#ffffff" stroke="#ffffff" stroke-width="1.5" d="M2,-97C2,-91 8,-85 14,-85"/>
<polyline fill="none" stroke="#2e3436" stroke-width="1.5" points="14,-85 56,-85 "/>
<path fill="none" stroke="#2e3436" stroke-width="1.5" d="M56,-85C62,-85 68,-91 68,-97"/>
<polyline fill="none" stroke="#2e3436" stroke-width="1.5" points="68,-97 68,-109 "/>
<path fill="none" stroke="#2e3436" stroke-width="1.5" d="M68,-109C68,-115 62,-121 56,-121"/>
<polyline fill="none" stroke="#2e3436" stroke-width="1.5" points="56,-121 14,-121 "/>
<path fill="none" stroke="#2e3436" stroke-width="1.5" d="M14,-121C8,-121 2,-115 2,-109"/>
<polyline fill="none" stroke="#2e3436" stroke-width="1.5" points="2,-109 2,-97 "/>
<path fill="none" stroke="#2e3436" stroke-width="1.5" d="M2,-97C2,-91 8,-85 14,-85"/>
<text text-anchor="middle" x="35" y="-109.8" font-family="FreeSans" font-size="8.00" fill="#1c2021">Node[1]</text>
<polyline fill="none" stroke="#2e3436" stroke-width="1.5" points="2,-103 68,-103 "/>
<text text-anchor="start" x="10" y="-91.8" font-family="FreeSans" font-size="8.00" fill="#1c2021">name = &#39;Sara&#39;</text>
</g>
<!-- N2 -->
<g id="node3" class="node"><title>N2</title>
<polygon fill="#ffffff" stroke="#ffffff" stroke-width="1.5" points="11.5,-1 56.5,-1 68.5,-13 68.5,-25 56.5,-37 11.5,-37 -0.5,-25 -0.5,-13 11.5,-1"/>
<path fill="#ffffff" stroke="#ffffff" stroke-width="1.5" d="M56.5,-1C62.5,-1 68.5,-7 68.5,-13"/>
<path fill="#ffffff" stroke="#ffffff" stroke-width="1.5" d="M68.5,-25C68.5,-31 62.5,-37 56.5,-37"/>
<path fill="#ffffff" stroke="#ffffff" stroke-width="1.5" d="M11.5,-37C5.5,-37 -0.5,-31 -0.5,-25"/>
<path fill="#ffffff" stroke="#ffffff" stroke-width="1.5" d="M-0.5,-13C-0.5,-7 5.5,-1 11.5,-1"/>
<polyline fill="none" stroke="#2e3436" stroke-width="1.5" points="11.5,-1 56.5,-1 "/>
<path fill="none" stroke="#2e3436" stroke-width="1.5" d="M56.5,-1C62.5,-1 68.5,-7 68.5,-13"/>
<polyline fill="none" stroke="#2e3436" stroke-width="1.5" points="68.5,-13 68.5,-25 "/>
<path fill="none" stroke="#2e3436" stroke-width="1.5" d="M68.5,-25C68.5,-31 62.5,-37 56.5,-37"/>
<polyline fill="none" stroke="#2e3436" stroke-width="1.5" points="56.5,-37 11.5,-37 "/>
<path fill="none" stroke="#2e3436" stroke-width="1.5" d="M11.5,-37C5.5,-37 -0.5,-31 -0.5,-25"/>
<polyline fill="none" stroke="#2e3436" stroke-width="1.5" points="-0.5,-25 -0.5,-13 "/>
<path fill="none" stroke="#2e3436" stroke-width="1.5" d="M-0.5,-13C-0.5,-7 5.5,-1 11.5,-1"/>
<text text-anchor="middle" x="34" y="-25.8" font-family="FreeSans" font-size="8.00" fill="#1c2021">Node[2]</text>
<polyline fill="none" stroke="#2e3436" stroke-width="1.5" points="-0.5,-19 68.5,-19 "/>
<text text-anchor="start" x="7.5" y="-7.8" font-family="FreeSans" font-size="8.00" fill="#1c2021">name = &#39;Maria&#39;</text>
</g>
<!-- N1&#45;&gt;N2 -->
<g id="edge2" class="edge"><title>N1&#45;&gt;N2</title>
<path fill="none" stroke="#2e3436" stroke-width="2" d="M34.783,-84.7733C34.6441,-73.1053 34.4618,-57.7874 34.308,-44.8699"/>
<polygon fill="#2e3436" stroke="#2e3436" points="34.2166,-37.1912 37.6807,-44.6504 34.7612,-40.935 34.8059,-44.6847 34.3059,-44.6906 33.806,-44.6966 33.7613,-40.9469 30.9312,-44.7309 34.2166,-37.1912 34.2166,-37.1912"/>
<text text-anchor="middle" x="45.5" y="-58.8" font-family="FreeSans" font-size="8.00" fill="#2e3436">friend</text>
</g>
<!-- N3 -->
<g id="node4" class="node"><title>N3</title>
<polygon fill="#ffffff" stroke="#ffffff" stroke-width="1.5" points="108.5,-1 153.5,-1 165.5,-13 165.5,-25 153.5,-37 108.5,-37 96.5,-25 96.5,-13 108.5,-1"/>
<path fill="#ffffff" stroke="#ffffff" stroke-width="1.5" d="M153.5,-1C159.5,-1 165.5,-7 165.5,-13"/>
<path fill="#ffffff" stroke="#ffffff" stroke-width="1.5" d="M165.5,-25C165.5,-31 159.5,-37 153.5,-37"/>
<path fill="#ffffff" stroke="#ffffff" stroke-width="1.5" d="M108.5,-37C102.5,-37 96.5,-31 96.5,-25"/>
<path fill="#ffffff" stroke="#ffffff" stroke-width="1.5" d="M96.5,-13C96.5,-7 102.5,-1 108.5,-1"/>
<polyline fill="none" stroke="#2e3436" stroke-width="1.5" points="108.5,-1 153.5,-1 "/>
<path fill="none" stroke="#2e3436" stroke-width="1.5" d="M153.5,-1C159.5,-1 165.5,-7 165.5,-13"/>
<polyline fill="none" stroke="#2e3436" stroke-width="1.5" points="165.5,-13 165.5,-25 "/>
<path fill="none" stroke="#2e3436" stroke-width="1.5" d="M165.5,-25C165.5,-31 159.5,-37 153.5,-37"/>
<polyline fill="none" stroke="#2e3436" stroke-width="1.5" points="153.5,-37 108.5,-37 "/>
<path fill="none" stroke="#2e3436" stroke-width="1.5" d="M108.5,-37C102.5,-37 96.5,-31 96.5,-25"/>
<polyline fill="none" stroke="#2e3436" stroke-width="1.5" points="96.5,-25 96.5,-13 "/>
<path fill="none" stroke="#2e3436" stroke-width="1.5" d="M96.5,-13C96.5,-7 102.5,-1 108.5,-1"/>
<text text-anchor="middle" x="131" y="-25.8" font-family="FreeSans" font-size="8.00" fill="#1c2021">Node[3]</text>
<polyline fill="none" stroke="#2e3436" stroke-width="1.5" points="96.5,-19 165.5,-19 "/>
<text text-anchor="start" x="104.5" y="-7.8" font-family="FreeSans" font-size="8.00" fill="#1c2021">name = &#39;Steve&#39;</text>
</g>
<!-- N4 -->
<g id="node5" class="node"><title>N4</title>
<polygon fill="#ffffff" stroke="#ffffff" stroke-width="1.5" points="65.5,-169 108.5,-169 120.5,-181 120.5,-193 108.5,-205 65.5,-205 53.5,-193 53.5,-181 65.5,-169"/>
<path fill="#ffffff" stroke="#ffffff" stroke-width="1.5" d="M108.5,-169C114.5,-169 120.5,-175 120.5,-181"/>
<path fill="#ffffff" stroke="#ffffff" stroke-width="1.5" d="M120.5,-193C120.5,-199 114.5,-205 108.5,-205"/>
<path fill="#ffffff" stroke="#ffffff" stroke-width="1.5" d="M65.5,-205C59.5,-205 53.5,-199 53.5,-193"/>
<path fill="#ffffff" stroke="#ffffff" stroke-width="1.5" d="M53.5,-181C53.5,-175 59.5,-169 65.5,-169"/>
<polyline fill="none" stroke="#2e3436" stroke-width="1.5" points="65.5,-169 108.5,-169 "/>
<path fill="none" stroke="#2e3436" stroke-width="1.5" d="M108.5,-169C114.5,-169 120.5,-175 120.5,-181"/>
<polyline fill="none" stroke="#2e3436" stroke-width="1.5" points="120.5,-181 120.5,-193 "/>
<path fill="none" stroke="#2e3436" stroke-width="1.5" d="M120.5,-193C120.5,-199 114.5,-205 108.5,-205"/>
<polyline fill="none" stroke="#2e3436" stroke-width="1.5" points="108.5,-205 65.5,-205 "/>
<path fill="none" stroke="#2e3436" stroke-width="1.5" d="M65.5,-205C59.5,-205 53.5,-199 53.5,-193"/>
<polyline fill="none" stroke="#2e3436" stroke-width="1.5" points="53.5,-193 53.5,-181 "/>
<path fill="none" stroke="#2e3436" stroke-width="1.5" d="M53.5,-181C53.5,-175 59.5,-169 65.5,-169"/>
<text text-anchor="middle" x="87" y="-193.8" font-family="FreeSans" font-size="8.00" fill="#1c2021">Node[4]</text>
<polyline fill="none" stroke="#2e3436" stroke-width="1.5" points="53.5,-187 120.5,-187 "/>
<text text-anchor="start" x="61.5" y="-175.8" font-family="FreeSans" font-size="8.00" fill="#1c2021">name = &#39;John&#39;</text>
</g>
<!-- N4&#45;&gt;N1 -->
<g id="edge4" class="edge"><title>N4&#45;&gt;N1</title>
<path fill="none" stroke="#2e3436" stroke-width="2" d="M75.7168,-168.773C68.2893,-156.775 58.4727,-140.917 50.3394,-127.779"/>
<polygon fill="#2e3436" stroke="#2e3436" points="46.2612,-121.191 53.0786,-125.792 48.6602,-124.116 50.634,-127.305 50.2089,-127.568 49.7838,-127.831 47.8099,-124.643 47.3393,-129.345 46.2612,-121.191 46.2612,-121.191"/>
<text text-anchor="middle" x="73.5" y="-142.8" font-family="FreeSans" font-size="8.00" fill="#2e3436">friend</text>
</g>
<!-- N5 -->
<g id="node8" class="node"><title>N5</title>
<polygon fill="#ffffff" stroke="#ffffff" stroke-width="1.5" points="111,-85 149,-85 161,-97 161,-109 149,-121 111,-121 99,-109 99,-97 111,-85"/>
<path fill="#ffffff" stroke="#ffffff" stroke-width="1.5" d="M149,-85C155,-85 161,-91 161,-97"/>
<path fill="#ffffff" stroke="#ffffff" stroke-width="1.5" d="M161,-109C161,-115 155,-121 149,-121"/>
<path fill="#ffffff" stroke="#ffffff" stroke-width="1.5" d="M111,-121C105,-121 99,-115 99,-109"/>
<path fill="#ffffff" stroke="#ffffff" stroke-width="1.5" d="M99,-97C99,-91 105,-85 111,-85"/>
<polyline fill="none" stroke="#2e3436" stroke-width="1.5" points="111,-85 149,-85 "/>
<path fill="none" stroke="#2e3436" stroke-width="1.5" d="M149,-85C155,-85 161,-91 161,-97"/>
<polyline fill="none" stroke="#2e3436" stroke-width="1.5" points="161,-97 161,-109 "/>
<path fill="none" stroke="#2e3436" stroke-width="1.5" d="M161,-109C161,-115 155,-121 149,-121"/>
<polyline fill="none" stroke="#2e3436" stroke-width="1.5" points="149,-121 111,-121 "/>
<path fill="none" stroke="#2e3436" stroke-width="1.5" d="M111,-121C105,-121 99,-115 99,-109"/>
<polyline fill="none" stroke="#2e3436" stroke-width="1.5" points="99,-109 99,-97 "/>
<path fill="none" stroke="#2e3436" stroke-width="1.5" d="M99,-97C99,-91 105,-85 111,-85"/>
<text text-anchor="middle" x="130" y="-109.8" font-family="FreeSans" font-size="8.00" fill="#1c2021">Node[5]</text>
<polyline fill="none" stroke="#2e3436" stroke-width="1.5" points="99,-103 161,-103 "/>
<text text-anchor="start" x="107" y="-91.8" font-family="FreeSans" font-size="8.00" fill="#1c2021">name = &#39;Joe&#39;</text>
</g>
<!-- N4&#45;&gt;N5 -->
<g id="edge6" class="edge"><title>N4&#45;&gt;N5</title>
<path fill="none" stroke="#2e3436" stroke-width="2" d="M96.3304,-168.773C102.416,-156.885 110.441,-141.208 117.13,-128.141"/>
<polygon fill="#2e3436" stroke="#2e3436" points="120.688,-121.191 120.275,-129.405 119.424,-124.757 117.715,-128.095 117.27,-127.867 116.825,-127.639 118.534,-124.301 114.266,-126.329 120.688,-121.191 120.688,-121.191"/>
<text text-anchor="middle" x="119.5" y="-142.8" font-family="FreeSans" font-size="8.00" fill="#2e3436">friend</text>
</g>
<!-- N5&#45;&gt;N3 -->
<g id="edge8" class="edge"><title>N5&#45;&gt;N3</title>
<path fill="none" stroke="#2e3436" stroke-width="2" d="M130.217,-84.7733C130.356,-73.1053 130.538,-57.7874 130.692,-44.8699"/>
<polygon fill="#2e3436" stroke="#2e3436" points="130.783,-37.1912 134.069,-44.7309 131.239,-40.9469 131.194,-44.6966 130.694,-44.6906 130.194,-44.6847 130.239,-40.935 127.319,-44.6504 130.783,-37.1912 130.783,-37.1912"/>
<text text-anchor="middle" x="140.5" y="-58.8" font-family="FreeSans" font-size="8.00" fill="#2e3436">friend</text>
</g>
</g>
</svg>
