<?xml version="1.0" encoding="UTF-8" standalone="no"?>
<!DOCTYPE svg PUBLIC "-//W3C//DTD SVG 1.1//EN"
 "http://www.w3.org/Graphics/SVG/1.1/DTD/svg11.dtd">
<!-- Generated by graphviz version 2.26.3 (20100126.1600)
 -->
<!-- Title: g Pages: 1 -->
<svg width="125pt" height="296pt"
 viewBox="0.00 0.00 125.00 296.00" xmlns="http://www.w3.org/2000/svg" xmlns:xlink="http://www.w3.org/1999/xlink">
<g id="graph1" class="graph" transform="scale(1 1) rotate(0) translate(4 292)">
<title>g</title>
<polygon fill="white" stroke="white" points="-4,5 -4,-292 122,-292 122,5 -4,5"/>
<!-- A -->
<g id="node1" class="node"><title>A</title>
<polygon fill="#ffffff" stroke="#ffffff" stroke-width="1.5" points="104,-288 74,-288 62,-276 62,-264 74,-252 104,-252 116,-264 116,-276 104,-288"/>
<path fill="#ffffff" stroke="#ffffff" stroke-width="1.5" d="M74,-288C68,-288 62,-282 62,-276"/>
<path fill="#ffffff" stroke="#ffffff" stroke-width="1.5" d="M62,-264C62,-258 68,-252 74,-252"/>
<path fill="#ffffff" stroke="#ffffff" stroke-width="1.5" d="M104,-252C110,-252 116,-258 116,-264"/>
<path fill="#ffffff" stroke="#ffffff" stroke-width="1.5" d="M116,-276C116,-282 110,-288 104,-288"/>
<polyline fill="none" stroke="#2e3436" stroke-width="1.5" points="104,-288 74,-288 "/>
<path fill="none" stroke="#2e3436" stroke-width="1.5" d="M74,-288C68,-288 62,-282 62,-276"/>
<polyline fill="none" stroke="#2e3436" stroke-width="1.5" points="62,-276 62,-264 "/>
<path fill="none" stroke="#2e3436" stroke-width="1.5" d="M62,-264C62,-258 68,-252 74,-252"/>
<polyline fill="none" stroke="#2e3436" stroke-width="1.5" points="74,-252 104,-252 "/>
<path fill="none" stroke="#2e3436" stroke-width="1.5" d="M104,-252C110,-252 116,-258 116,-264"/>
<polyline fill="none" stroke="#2e3436" stroke-width="1.5" points="116,-264 116,-276 "/>
<path fill="none" stroke="#2e3436" stroke-width="1.5" d="M116,-276C116,-282 110,-288 104,-288"/>
<text text-anchor="middle" x="89" y="-267" font-family="FreeSans" font-size="10.00" fill="#1c2021">A</text>
</g>
<!-- B -->
<g id="node3" class="node"><title>B</title>
<polygon fill="#ffffff" stroke="#ffffff" stroke-width="1.5" points="42,-204 12,-204 1.42109e-14,-192 7.10543e-15,-180 12,-168 42,-168 54,-180 54,-192 42,-204"/>
<path fill="#ffffff" stroke="#ffffff" stroke-width="1.5" d="M12,-204C6,-204 1.77636e-14,-198 1.42109e-14,-192"/>
<path fill="#ffffff" stroke="#ffffff" stroke-width="1.5" d="M7.10543e-15,-180C3.55271e-15,-174 6,-168 12,-168"/>
<path fill="#ffffff" stroke="#ffffff" stroke-width="1.5" d="M42,-168C48,-168 54,-174 54,-180"/>
<path fill="#ffffff" stroke="#ffffff" stroke-width="1.5" d="M54,-192C54,-198 48,-204 42,-204"/>
<polyline fill="none" stroke="#2e3436" stroke-width="1.5" points="42,-204 12,-204 "/>
<path fill="none" stroke="#2e3436" stroke-width="1.5" d="M12,-204C6,-204 1.77636e-14,-198 1.42109e-14,-192"/>
<polyline fill="none" stroke="#2e3436" stroke-width="1.5" points="1.42109e-14,-192 7.10543e-15,-180 "/>
<path fill="none" stroke="#2e3436" stroke-width="1.5" d="M7.10543e-15,-180C3.55271e-15,-174 6,-168 12,-168"/>
<polyline fill="none" stroke="#2e3436" stroke-width="1.5" points="12,-168 42,-168 "/>
<path fill="none" stroke="#2e3436" stroke-width="1.5" d="M42,-168C48,-168 54,-174 54,-180"/>
<polyline fill="none" stroke="#2e3436" stroke-width="1.5" points="54,-180 54,-192 "/>
<path fill="none" stroke="#2e3436" stroke-width="1.5" d="M54,-192C54,-198 48,-204 42,-204"/>
<text text-anchor="middle" x="27" y="-183" font-family="FreeSans" font-size="10.00" fill="#1c2021">B</text>
</g>
<!-- A&#45;&gt;B -->
<g id="edge2" class="edge"><title>A&#45;&gt;B</title>
<path fill="none" stroke="#a40000" stroke-width="2" d="M75.5469,-251.773C66.6099,-239.665 54.7717,-223.626 45.0229,-210.418"/>
<polygon fill="#a40000" stroke="#a40000" points="40.4268,-204.191 47.5962,-208.221 43.0561,-206.911 45.283,-209.929 44.8808,-210.226 44.4785,-210.522 42.2515,-207.505 42.1653,-212.23 40.4268,-204.191 40.4268,-204.191"/>
<text text-anchor="middle" x="74" y="-225" font-family="FreeSans" font-size="10.00" fill="#a40000">REL1</text>
</g>
<!-- C -->
<g id="node5" class="node"><title>C</title>
<polygon fill="#ffffff" stroke="#ffffff" stroke-width="1.5" points="95,-120 65,-120 53,-108 53,-96 65,-84 95,-84 107,-96 107,-108 95,-120"/>
<path fill="#ffffff" stroke="#ffffff" stroke-width="1.5" d="M65,-120C59,-120 53,-114 53,-108"/>
<path fill="#ffffff" stroke="#ffffff" stroke-width="1.5" d="M53,-96C53,-90 59,-84 65,-84"/>
<path fill="#ffffff" stroke="#ffffff" stroke-width="1.5" d="M95,-84C101,-84 107,-90 107,-96"/>
<path fill="#ffffff" stroke="#ffffff" stroke-width="1.5" d="M107,-108C107,-114 101,-120 95,-120"/>
<polyline fill="none" stroke="#2e3436" stroke-width="1.5" points="95,-120 65,-120 "/>
<path fill="none" stroke="#2e3436" stroke-width="1.5" d="M65,-120C59,-120 53,-114 53,-108"/>
<polyline fill="none" stroke="#2e3436" stroke-width="1.5" points="53,-108 53,-96 "/>
<path fill="none" stroke="#2e3436" stroke-width="1.5" d="M53,-96C53,-90 59,-84 65,-84"/>
<polyline fill="none" stroke="#2e3436" stroke-width="1.5" points="65,-84 95,-84 "/>
<path fill="none" stroke="#2e3436" stroke-width="1.5" d="M95,-84C101,-84 107,-90 107,-96"/>
<polyline fill="none" stroke="#2e3436" stroke-width="1.5" points="107,-96 107,-108 "/>
<path fill="none" stroke="#2e3436" stroke-width="1.5" d="M107,-108C107,-114 101,-120 95,-120"/>
<text text-anchor="middle" x="80" y="-99" font-family="FreeSans" font-size="10.00" fill="#1c2021">C</text>
</g>
<!-- A&#45;&gt;C -->
<g id="edge4" class="edge"><title>A&#45;&gt;C</title>
<path fill="none" stroke="#2e3436" stroke-width="2" d="M91.4276,-251.719C92.0735,-246.051 92.6801,-239.777 93,-234 94.7374,-202.63 93.2001,-175.153 88,-138 87.528,-134.628 86.9068,-131.103 86.2187,-127.634"/>
<polygon fill="#2e3436" stroke="#2e3436" points="84.6378,-120.211 89.5013,-126.844 85.9081,-123.775 86.6893,-127.443 86.2003,-127.547 85.7113,-127.651 84.93,-123.983 82.8993,-128.25 84.6378,-120.211 84.6378,-120.211"/>
<text text-anchor="middle" x="105" y="-183" font-family="FreeSans" font-size="10.00" fill="#1c2021">REL2</text>
</g>
<!-- B&#45;&gt;C -->
<g id="edge6" class="edge"><title>B&#45;&gt;C</title>
<path fill="none" stroke="#a40000" stroke-width="2" d="M38.5002,-167.773C46.0705,-155.775 56.0759,-139.917 64.3656,-126.779"/>
<polygon fill="#a40000" stroke="#a40000" points="68.5222,-120.191 67.3744,-128.335 66.944,-123.629 64.9429,-126.801 64.5201,-126.534 64.0972,-126.267 66.0983,-123.096 61.6657,-124.733 68.5222,-120.191 68.5222,-120.191"/>
<text text-anchor="middle" x="69" y="-141" font-family="FreeSans" font-size="10.00" fill="#a40000">REL2</text>
</g>
<!-- D -->
<g id="node8" class="node"><title>D</title>
<polygon fill="#ffffff" stroke="#ffffff" stroke-width="1.5" points="95,-36 65,-36 53,-24 53,-12 65,-1.46056e-14 95,-6.71068e-15 107,-12 107,-24 95,-36"/>
<path fill="#ffffff" stroke="#ffffff" stroke-width="1.5" d="M65,-36C59,-36 53,-30 53,-24"/>
<path fill="#ffffff" stroke="#ffffff" stroke-width="1.5" d="M53,-12C53,-6 59,-1.61846e-14 65,-1.46056e-14"/>
<path fill="#ffffff" stroke="#ffffff" stroke-width="1.5" d="M95,-6.71068e-15C101,-5.1317e-15 107,-6 107,-12"/>
<path fill="#ffffff" stroke="#ffffff" stroke-width="1.5" d="M107,-24C107,-30 101,-36 95,-36"/>
<polyline fill="none" stroke="#2e3436" stroke-width="1.5" points="95,-36 65,-36 "/>
<path fill="none" stroke="#2e3436" stroke-width="1.5" d="M65,-36C59,-36 53,-30 53,-24"/>
<polyline fill="none" stroke="#2e3436" stroke-width="1.5" points="53,-24 53,-12 "/>
<path fill="none" stroke="#2e3436" stroke-width="1.5" d="M53,-12C53,-6 59,-1.61846e-14 65,-1.46056e-14"/>
<polyline fill="none" stroke="#2e3436" stroke-width="1.5" points="65,-1.46056e-14 95,-6.71068e-15 "/>
<path fill="none" stroke="#2e3436" stroke-width="1.5" d="M95,-6.71068e-15C101,-5.1317e-15 107,-6 107,-12"/>
<polyline fill="none" stroke="#2e3436" stroke-width="1.5" points="107,-12 107,-24 "/>
<path fill="none" stroke="#2e3436" stroke-width="1.5" d="M107,-24C107,-30 101,-36 95,-36"/>
<text text-anchor="middle" x="80" y="-15" font-family="FreeSans" font-size="10.00" fill="#1c2021">D</text>
</g>
<!-- C&#45;&gt;D -->
<g id="edge8" class="edge"><title>C&#45;&gt;D</title>
<path fill="none" stroke="#a40000" stroke-width="2" d="M80,-83.7733C80,-72.1053 80,-56.7874 80,-43.8699"/>
<polygon fill="#a40000" stroke="#a40000" points="80,-36.1912 83.3751,-43.6911 80.5,-39.9412 80.5001,-43.6912 80.0001,-43.6912 79.5001,-43.6912 79.5,-39.9412 76.6251,-43.6912 80,-36.1912 80,-36.1912"/>
<text text-anchor="middle" x="92" y="-57" font-family="FreeSans" font-size="10.00" fill="#a40000">REL3</text>
</g>
</g>
</svg>
