<?xml version="1.0" encoding="UTF-8" standalone="no"?>
<!DOCTYPE svg PUBLIC "-//W3C//DTD SVG 1.1//EN"
 "http://www.w3.org/Graphics/SVG/1.1/DTD/svg11.dtd">
<!-- Generated by graphviz version 2.26.3 (20100126.1600)
 -->
<!-- Title: g Pages: 1 -->
<svg width="295pt" height="382pt"
 viewBox="0.00 0.00 295.00 382.00" xmlns="http://www.w3.org/2000/svg" xmlns:xlink="http://www.w3.org/1999/xlink">
<g id="graph1" class="graph" transform="scale(1 1) rotate(0) translate(4 378)">
<title>g</title>
<polygon fill="white" stroke="white" points="-4,5 -4,-378 292,-378 292,5 -4,5"/>
<!-- N33 -->
<g id="node1" class="node"><title>N33</title>
<polygon fill="#ffffff" stroke="#ffffff" stroke-width="1.5" points="219,-85 249,-85 261,-97 261,-109 249,-121 219,-121 207,-109 207,-97 219,-85"/>
<path fill="#ffffff" stroke="#ffffff" stroke-width="1.5" d="M249,-85C255,-85 261,-91 261,-97"/>
<path fill="#ffffff" stroke="#ffffff" stroke-width="1.5" d="M261,-109C261,-115 255,-121 249,-121"/>
<path fill="#ffffff" stroke="#ffffff" stroke-width="1.5" d="M219,-121C213,-121 207,-115 207,-109"/>
<path fill="#ffffff" stroke="#ffffff" stroke-width="1.5" d="M207,-97C207,-91 213,-85 219,-85"/>
<polyline fill="none" stroke="#2e3436" stroke-width="1.5" points="219,-85 249,-85 "/>
<path fill="none" stroke="#2e3436" stroke-width="1.5" d="M249,-85C255,-85 261,-91 261,-97"/>
<polyline fill="none" stroke="#2e3436" stroke-width="1.5" points="261,-97 261,-109 "/>
<path fill="none" stroke="#2e3436" stroke-width="1.5" d="M261,-109C261,-115 255,-121 249,-121"/>
<polyline fill="none" stroke="#2e3436" stroke-width="1.5" points="249,-121 219,-121 "/>
<path fill="none" stroke="#2e3436" stroke-width="1.5" d="M219,-121C213,-121 207,-115 207,-109"/>
<polyline fill="none" stroke="#2e3436" stroke-width="1.5" points="207,-109 207,-97 "/>
<path fill="none" stroke="#2e3436" stroke-width="1.5" d="M207,-97C207,-91 213,-85 219,-85"/>
<text text-anchor="middle" x="234" y="-109.8" font-family="FreeSans" font-size="8.00" fill="#1c2021">Node[33]</text>
<polyline fill="none" stroke="#2e3436" stroke-width="1.5" points="207,-103 261,-103 "/>
<text text-anchor="start" x="215" y="-91.8" font-family="FreeSans" font-size="8.00" fill="#1c2021">name = &#39;f&#39;</text>
</g>
<!-- N34 -->
<g id="node3" class="node"><title>N34</title>
<polygon fill="#ffffff" stroke="#ffffff" stroke-width="1.5" points="122,-1 152,-1 164,-13 164,-25 152,-37 122,-37 110,-25 110,-13 122,-1"/>
<path fill="#ffffff" stroke="#ffffff" stroke-width="1.5" d="M152,-1C158,-1 164,-7 164,-13"/>
<path fill="#ffffff" stroke="#ffffff" stroke-width="1.5" d="M164,-25C164,-31 158,-37 152,-37"/>
<path fill="#ffffff" stroke="#ffffff" stroke-width="1.5" d="M122,-37C116,-37 110,-31 110,-25"/>
<path fill="#ffffff" stroke="#ffffff" stroke-width="1.5" d="M110,-13C110,-7 116,-1 122,-1"/>
<polyline fill="none" stroke="#2e3436" stroke-width="1.5" points="122,-1 152,-1 "/>
<path fill="none" stroke="#2e3436" stroke-width="1.5" d="M152,-1C158,-1 164,-7 164,-13"/>
<polyline fill="none" stroke="#2e3436" stroke-width="1.5" points="164,-13 164,-25 "/>
<path fill="none" stroke="#2e3436" stroke-width="1.5" d="M164,-25C164,-31 158,-37 152,-37"/>
<polyline fill="none" stroke="#2e3436" stroke-width="1.5" points="152,-37 122,-37 "/>
<path fill="none" stroke="#2e3436" stroke-width="1.5" d="M122,-37C116,-37 110,-31 110,-25"/>
<polyline fill="none" stroke="#2e3436" stroke-width="1.5" points="110,-25 110,-13 "/>
<path fill="none" stroke="#2e3436" stroke-width="1.5" d="M110,-13C110,-7 116,-1 122,-1"/>
<text text-anchor="middle" x="137" y="-25.8" font-family="FreeSans" font-size="8.00" fill="#1c2021">Node[34]</text>
<polyline fill="none" stroke="#2e3436" stroke-width="1.5" points="110,-19 164,-19 "/>
<text text-anchor="start" x="118" y="-7.8" font-family="FreeSans" font-size="8.00" fill="#1c2021">name = &#39;g&#39;</text>
</g>
<!-- N33&#45;&gt;N34 -->
<g id="edge2" class="edge"><title>N33&#45;&gt;N34</title>
<path fill="none" stroke="#2e3436" stroke-width="2" d="M215.825,-84.6615C206.777,-75.768 195.543,-65.0733 185,-56 179.612,-51.3629 173.725,-46.5962 167.977,-42.0915"/>
<polygon fill="#2e3436" stroke="#2e3436" points="161.825,-37.3246 169.821,-39.2505 165.095,-39.2262 168.06,-41.5231 167.753,-41.9184 167.447,-42.3136 164.483,-40.0167 165.686,-44.5862 161.825,-37.3246 161.825,-37.3246"/>
<text text-anchor="middle" x="199.5" y="-58.8" font-family="FreeSans" font-size="8.00" fill="#2e3436">to</text>
</g>
<!-- N35 -->
<g id="node4" class="node"><title>N35</title>
<polygon fill="#ffffff" stroke="#ffffff" stroke-width="1.5" points="77,-169 107,-169 119,-181 119,-193 107,-205 77,-205 65,-193 65,-181 77,-169"/>
<path fill="#ffffff" stroke="#ffffff" stroke-width="1.5" d="M107,-169C113,-169 119,-175 119,-181"/>
<path fill="#ffffff" stroke="#ffffff" stroke-width="1.5" d="M119,-193C119,-199 113,-205 107,-205"/>
<path fill="#ffffff" stroke="#ffffff" stroke-width="1.5" d="M77,-205C71,-205 65,-199 65,-193"/>
<path fill="#ffffff" stroke="#ffffff" stroke-width="1.5" d="M65,-181C65,-175 71,-169 77,-169"/>
<polyline fill="none" stroke="#2e3436" stroke-width="1.5" points="77,-169 107,-169 "/>
<path fill="none" stroke="#2e3436" stroke-width="1.5" d="M107,-169C113,-169 119,-175 119,-181"/>
<polyline fill="none" stroke="#2e3436" stroke-width="1.5" points="119,-181 119,-193 "/>
<path fill="none" stroke="#2e3436" stroke-width="1.5" d="M119,-193C119,-199 113,-205 107,-205"/>
<polyline fill="none" stroke="#2e3436" stroke-width="1.5" points="107,-205 77,-205 "/>
<path fill="none" stroke="#2e3436" stroke-width="1.5" d="M77,-205C71,-205 65,-199 65,-193"/>
<polyline fill="none" stroke="#2e3436" stroke-width="1.5" points="65,-193 65,-181 "/>
<path fill="none" stroke="#2e3436" stroke-width="1.5" d="M65,-181C65,-175 71,-169 77,-169"/>
<text text-anchor="middle" x="92" y="-193.8" font-family="FreeSans" font-size="8.00" fill="#1c2021">Node[35]</text>
<polyline fill="none" stroke="#2e3436" stroke-width="1.5" points="65,-187 119,-187 "/>
<text text-anchor="start" x="73" y="-175.8" font-family="FreeSans" font-size="8.00" fill="#1c2021">name = &#39;d&#39;</text>
</g>
<!-- N35&#45;&gt;N34 -->
<g id="edge6" class="edge"><title>N35&#45;&gt;N34</title>
<path fill="none" stroke="#2e3436" stroke-width="2" d="M96.9015,-168.701C104.97,-138.578 121.066,-78.4856 130.221,-44.3077"/>
<polygon fill="#2e3436" stroke="#2e3436" points="132.173,-37.0219 133.492,-45.1398 131.685,-40.7736 130.715,-44.3959 130.232,-44.2665 129.749,-44.1372 130.719,-40.5148 126.972,-43.3933 132.173,-37.0219 132.173,-37.0219"/>
<text text-anchor="middle" x="121.5" y="-100.8" font-family="FreeSans" font-size="8.00" fill="#2e3436">to</text>
</g>
<!-- N36 -->
<g id="node6" class="node"><title>N36</title>
<polygon fill="#ffffff" stroke="#ffffff" stroke-width="1.5" points="12,-85 42,-85 54,-97 54,-109 42,-121 12,-121 0,-109 0,-97 12,-85"/>
<path fill="#ffffff" stroke="#ffffff" stroke-width="1.5" d="M42,-85C48,-85 54,-91 54,-97"/>
<path fill="#ffffff" stroke="#ffffff" stroke-width="1.5" d="M54,-109C54,-115 48,-121 42,-121"/>
<path fill="#ffffff" stroke="#ffffff" stroke-width="1.5" d="M12,-121C6,-121 0,-115 0,-109"/>
<path fill="#ffffff" stroke="#ffffff" stroke-width="1.5" d="M0,-97C0,-91 6,-85 12,-85"/>
<polyline fill="none" stroke="#2e3436" stroke-width="1.5" points="12,-85 42,-85 "/>
<path fill="none" stroke="#2e3436" stroke-width="1.5" d="M42,-85C48,-85 54,-91 54,-97"/>
<polyline fill="none" stroke="#2e3436" stroke-width="1.5" points="54,-97 54,-109 "/>
<path fill="none" stroke="#2e3436" stroke-width="1.5" d="M54,-109C54,-115 48,-121 42,-121"/>
<polyline fill="none" stroke="#2e3436" stroke-width="1.5" points="42,-121 12,-121 "/>
<path fill="none" stroke="#2e3436" stroke-width="1.5" d="M12,-121C6,-121 0,-115 0,-109"/>
<polyline fill="none" stroke="#2e3436" stroke-width="1.5" points="0,-109 0,-97 "/>
<path fill="none" stroke="#2e3436" stroke-width="1.5" d="M0,-97C0,-91 6,-85 12,-85"/>
<text text-anchor="middle" x="27" y="-109.8" font-family="FreeSans" font-size="8.00" fill="#1c2021">Node[36]</text>
<polyline fill="none" stroke="#2e3436" stroke-width="1.5" points="0,-103 54,-103 "/>
<text text-anchor="start" x="8" y="-91.8" font-family="FreeSans" font-size="8.00" fill="#1c2021">name = &#39;e&#39;</text>
</g>
<!-- N35&#45;&gt;N36 -->
<g id="edge4" class="edge"><title>N35&#45;&gt;N36</title>
<path fill="none" stroke="#2e3436" stroke-width="2" d="M77.896,-168.773C68.5265,-156.665 56.1155,-140.626 45.895,-127.418"/>
<polygon fill="#2e3436" stroke="#2e3436" points="41.0765,-121.191 48.3356,-125.057 43.7669,-123.851 46.0619,-126.817 45.6664,-127.123 45.271,-127.429 42.976,-124.463 42.9972,-129.188 41.0765,-121.191 41.0765,-121.191"/>
<text text-anchor="middle" x="65.5" y="-142.8" font-family="FreeSans" font-size="8.00" fill="#2e3436">to</text>
</g>
<!-- N36&#45;&gt;N34 -->
<g id="edge8" class="edge"><title>N36&#45;&gt;N34</title>
<path fill="none" stroke="#2e3436" stroke-width="2" d="M47.6132,-84.8738C58.0247,-75.9326 70.971,-65.1346 83,-56 89.583,-51.001 96.7844,-45.8559 103.721,-41.0511"/>
<polygon fill="#2e3436" stroke="#2e3436" points="109.992,-36.7483 105.718,-43.7745 107.183,-39.2823 104.091,-41.4039 103.808,-40.9916 103.525,-40.5794 106.617,-38.4577 101.899,-38.2087 109.992,-36.7483 109.992,-36.7483"/>
<text text-anchor="middle" x="86.5" y="-58.8" font-family="FreeSans" font-size="8.00" fill="#2e3436">to</text>
</g>
<!-- N37 -->
<g id="node9" class="node"><title>N37</title>
<polygon fill="#ffffff" stroke="#ffffff" stroke-width="1.5" points="219,-169 249,-169 261,-181 261,-193 249,-205 219,-205 207,-193 207,-181 219,-169"/>
<path fill="#ffffff" stroke="#ffffff" stroke-width="1.5" d="M249,-169C255,-169 261,-175 261,-181"/>
<path fill="#ffffff" stroke="#ffffff" stroke-width="1.5" d="M261,-193C261,-199 255,-205 249,-205"/>
<path fill="#ffffff" stroke="#ffffff" stroke-width="1.5" d="M219,-205C213,-205 207,-199 207,-193"/>
<path fill="#ffffff" stroke="#ffffff" stroke-width="1.5" d="M207,-181C207,-175 213,-169 219,-169"/>
<polyline fill="none" stroke="#2e3436" stroke-width="1.5" points="219,-169 249,-169 "/>
<path fill="none" stroke="#2e3436" stroke-width="1.5" d="M249,-169C255,-169 261,-175 261,-181"/>
<polyline fill="none" stroke="#2e3436" stroke-width="1.5" points="261,-181 261,-193 "/>
<path fill="none" stroke="#2e3436" stroke-width="1.5" d="M261,-193C261,-199 255,-205 249,-205"/>
<polyline fill="none" stroke="#2e3436" stroke-width="1.5" points="249,-205 219,-205 "/>
<path fill="none" stroke="#2e3436" stroke-width="1.5" d="M219,-205C213,-205 207,-199 207,-193"/>
<polyline fill="none" stroke="#2e3436" stroke-width="1.5" points="207,-193 207,-181 "/>
<path fill="none" stroke="#2e3436" stroke-width="1.5" d="M207,-181C207,-175 213,-169 219,-169"/>
<text text-anchor="middle" x="234" y="-193.8" font-family="FreeSans" font-size="8.00" fill="#1c2021">Node[37]</text>
<polyline fill="none" stroke="#2e3436" stroke-width="1.5" points="207,-187 261,-187 "/>
<text text-anchor="start" x="215" y="-175.8" font-family="FreeSans" font-size="8.00" fill="#1c2021">name = &#39;b&#39;</text>
</g>
<!-- N37&#45;&gt;N33 -->
<g id="edge10" class="edge"><title>N37&#45;&gt;N33</title>
<path fill="none" stroke="#2e3436" stroke-width="2" d="M234,-168.773C234,-157.105 234,-141.787 234,-128.87"/>
<polygon fill="#2e3436" stroke="#2e3436" points="234,-121.191 237.375,-128.691 234.5,-124.941 234.5,-128.691 234,-128.691 233.5,-128.691 233.5,-124.941 230.625,-128.691 234,-121.191 234,-121.191"/>
<text text-anchor="middle" x="237.5" y="-142.8" font-family="FreeSans" font-size="8.00" fill="#2e3436">to</text>
</g>
<!-- N38 -->
<g id="node11" class="node"><title>N38</title>
<polygon fill="#ffffff" stroke="#ffffff" stroke-width="1.5" points="185,-253 215,-253 227,-265 227,-277 215,-289 185,-289 173,-277 173,-265 185,-253"/>
<path fill="#ffffff" stroke="#ffffff" stroke-width="1.5" d="M215,-253C221,-253 227,-259 227,-265"/>
<path fill="#ffffff" stroke="#ffffff" stroke-width="1.5" d="M227,-277C227,-283 221,-289 215,-289"/>
<path fill="#ffffff" stroke="#ffffff" stroke-width="1.5" d="M185,-289C179,-289 173,-283 173,-277"/>
<path fill="#ffffff" stroke="#ffffff" stroke-width="1.5" d="M173,-265C173,-259 179,-253 185,-253"/>
<polyline fill="none" stroke="#2e3436" stroke-width="1.5" points="185,-253 215,-253 "/>
<path fill="none" stroke="#2e3436" stroke-width="1.5" d="M215,-253C221,-253 227,-259 227,-265"/>
<polyline fill="none" stroke="#2e3436" stroke-width="1.5" points="227,-265 227,-277 "/>
<path fill="none" stroke="#2e3436" stroke-width="1.5" d="M227,-277C227,-283 221,-289 215,-289"/>
<polyline fill="none" stroke="#2e3436" stroke-width="1.5" points="215,-289 185,-289 "/>
<path fill="none" stroke="#2e3436" stroke-width="1.5" d="M185,-289C179,-289 173,-283 173,-277"/>
<polyline fill="none" stroke="#2e3436" stroke-width="1.5" points="173,-277 173,-265 "/>
<path fill="none" stroke="#2e3436" stroke-width="1.5" d="M173,-265C173,-259 179,-253 185,-253"/>
<text text-anchor="middle" x="200" y="-277.8" font-family="FreeSans" font-size="8.00" fill="#1c2021">Node[38]</text>
<polyline fill="none" stroke="#2e3436" stroke-width="1.5" points="173,-271 227,-271 "/>
<text text-anchor="start" x="181" y="-259.8" font-family="FreeSans" font-size="8.00" fill="#1c2021">name = &#39;c&#39;</text>
</g>
<!-- N38&#45;&gt;N33 -->
<g id="edge14" class="edge"><title>N38&#45;&gt;N33</title>
<path fill="none" stroke="#2e3436" stroke-width="2" d="M227.167,-256.172C244.675,-244.95 265.977,-227.762 276,-206 288.28,-179.339 271.172,-148.028 255.244,-126.987"/>
<polygon fill="#2e3436" stroke="#2e3436" points="250.591,-121.07 257.881,-124.879 253.303,-123.709 255.621,-126.656 255.228,-126.965 254.835,-127.274 252.516,-124.327 252.575,-129.052 250.591,-121.07 250.591,-121.07"/>
<text text-anchor="middle" x="283.5" y="-184.8" font-family="FreeSans" font-size="8.00" fill="#2e3436">to</text>
</g>
<!-- N38&#45;&gt;N34 -->
<g id="edge16" class="edge"><title>N38&#45;&gt;N34</title>
<path fill="none" stroke="#2e3436" stroke-width="2" d="M195.469,-252.877C184.44,-208.759 156.166,-95.6642 143.412,-44.6461"/>
<polygon fill="#2e3436" stroke="#2e3436" points="141.574,-37.2976 146.668,-43.7551 142.969,-40.8144 143.879,-44.4524 143.393,-44.5737 142.908,-44.6949 141.999,-41.0569 140.119,-45.3923 141.574,-37.2976 141.574,-37.2976"/>
<text text-anchor="middle" x="172.5" y="-142.8" font-family="FreeSans" font-size="8.00" fill="#2e3436">to</text>
</g>
<!-- N38&#45;&gt;N37 -->
<g id="edge12" class="edge"><title>N38&#45;&gt;N37</title>
<path fill="none" stroke="#2e3436" stroke-width="2" d="M207.377,-252.773C212.145,-240.995 218.417,-225.498 223.677,-212.505"/>
<polygon fill="#2e3436" stroke="#2e3436" points="226.637,-205.191 226.951,-213.41 225.693,-208.855 224.286,-212.331 223.823,-212.143 223.359,-211.956 224.766,-208.48 220.694,-210.877 226.637,-205.191 226.637,-205.191"/>
<text text-anchor="middle" x="221.5" y="-226.8" font-family="FreeSans" font-size="8.00" fill="#2e3436">to</text>
</g>
<!-- N39 -->
<g id="node15" class="node"><title>N39</title>
<polygon fill="#ffffff" stroke="#ffffff" stroke-width="1.5" points="132,-337 162,-337 174,-349 174,-361 162,-373 132,-373 120,-361 120,-349 132,-337"/>
<path fill="#ffffff" stroke="#ffffff" stroke-width="1.5" d="M162,-337C168,-337 174,-343 174,-349"/>
<path fill="#ffffff" stroke="#ffffff" stroke-width="1.5" d="M174,-361C174,-367 168,-373 162,-373"/>
<path fill="#ffffff" stroke="#ffffff" stroke-width="1.5" d="M132,-373C126,-373 120,-367 120,-361"/>
<path fill="#ffffff" stroke="#ffffff" stroke-width="1.5" d="M120,-349C120,-343 126,-337 132,-337"/>
<polyline fill="none" stroke="#2e3436" stroke-width="1.5" points="132,-337 162,-337 "/>
<path fill="none" stroke="#2e3436" stroke-width="1.5" d="M162,-337C168,-337 174,-343 174,-349"/>
<polyline fill="none" stroke="#2e3436" stroke-width="1.5" points="174,-349 174,-361 "/>
<path fill="none" stroke="#2e3436" stroke-width="1.5" d="M174,-361C174,-367 168,-373 162,-373"/>
<polyline fill="none" stroke="#2e3436" stroke-width="1.5" points="162,-373 132,-373 "/>
<path fill="none" stroke="#2e3436" stroke-width="1.5" d="M132,-373C126,-373 120,-367 120,-361"/>
<polyline fill="none" stroke="#2e3436" stroke-width="1.5" points="120,-361 120,-349 "/>
<path fill="none" stroke="#2e3436" stroke-width="1.5" d="M120,-349C120,-343 126,-337 132,-337"/>
<text text-anchor="middle" x="147" y="-361.8" font-family="FreeSans" font-size="8.00" fill="#1c2021">Node[39]</text>
<polyline fill="none" stroke="#2e3436" stroke-width="1.5" points="120,-355 174,-355 "/>
<text text-anchor="start" x="128" y="-343.8" font-family="FreeSans" font-size="8.00" fill="#1c2021">name = &#39;a&#39;</text>
</g>
<!-- N39&#45;&gt;N35 -->
<g id="edge20" class="edge"><title>N39&#45;&gt;N35</title>
<path fill="none" stroke="#2e3436" stroke-width="2" d="M141.009,-336.701C131.148,-306.578 111.474,-246.486 100.285,-212.308"/>
<polygon fill="#2e3436" stroke="#2e3436" points="97.9,-205.022 103.441,-211.1 99.542,-208.43 100.709,-211.994 100.234,-212.15 99.7584,-212.305 98.5916,-208.741 97.0261,-213.2 97.9,-205.022 97.9,-205.022"/>
<text text-anchor="middle" x="127.5" y="-268.8" font-family="FreeSans" font-size="8.00" fill="#2e3436">to</text>
</g>
<!-- N39&#45;&gt;N38 -->
<g id="edge18" class="edge"><title>N39&#45;&gt;N38</title>
<path fill="none" stroke="#2e3436" stroke-width="2" d="M158.5,-336.773C166.07,-324.775 176.076,-308.917 184.366,-295.779"/>
<polygon fill="#2e3436" stroke="#2e3436" points="188.522,-289.191 187.374,-297.335 186.944,-292.629 184.943,-295.801 184.52,-295.534 184.097,-295.267 186.098,-292.096 181.666,-293.733 188.522,-289.191 188.522,-289.191"/>
<text text-anchor="middle" x="178.5" y="-310.8" font-family="FreeSans" font-size="8.00" fill="#2e3436">to</text>
</g>
</g>
</svg>
