<?xml version="1.0" encoding="UTF-8" standalone="no"?>
<!DOCTYPE svg PUBLIC "-//W3C//DTD SVG 1.1//EN"
 "http://www.w3.org/Graphics/SVG/1.1/DTD/svg11.dtd">
<!-- Generated by graphviz version 2.26.3 (20100126.1600)
 -->
<!-- Title: g Pages: 1 -->
<svg width="82pt" height="130pt"
 viewBox="0.00 0.00 82.00 130.00" xmlns="http://www.w3.org/2000/svg" xmlns:xlink="http://www.w3.org/1999/xlink">
<g id="graph1" class="graph" transform="scale(1 1) rotate(0) translate(4 126)">
<title>g</title>
<polygon fill="white" stroke="white" points="-4,5 -4,-126 79,-126 79,5 -4,5"/>
<!-- N7 -->
<g id="node1" class="node"><title>N7</title>
<polygon fill="#ffffff" stroke="#ffffff" stroke-width="1.5" points="15,-1 59,-1 71,-13 71,-25 59,-37 15,-37 3,-25 3,-13 15,-1"/>
<path fill="#ffffff" stroke="#ffffff" stroke-width="1.5" d="M59,-1C65,-1 71,-7 71,-13"/>
<path fill="#ffffff" stroke="#ffffff" stroke-width="1.5" d="M71,-25C71,-31 65,-37 59,-37"/>
<path fill="#ffffff" stroke="#ffffff" stroke-width="1.5" d="M15,-37C9,-37 3,-31 3,-25"/>
<path fill="#ffffff" stroke="#ffffff" stroke-width="1.5" d="M3,-13C3,-7 9,-1 15,-1"/>
<polyline fill="none" stroke="#2e3436" stroke-width="1.5" points="15,-1 59,-1 "/>
<path fill="none" stroke="#2e3436" stroke-width="1.5" d="M59,-1C65,-1 71,-7 71,-13"/>
<polyline fill="none" stroke="#2e3436" stroke-width="1.5" points="71,-13 71,-25 "/>
<path fill="none" stroke="#2e3436" stroke-width="1.5" d="M71,-25C71,-31 65,-37 59,-37"/>
<polyline fill="none" stroke="#2e3436" stroke-width="1.5" points="59,-37 15,-37 "/>
<path fill="none" stroke="#2e3436" stroke-width="1.5" d="M15,-37C9,-37 3,-31 3,-25"/>
<polyline fill="none" stroke="#2e3436" stroke-width="1.5" points="3,-25 3,-13 "/>
<path fill="none" stroke="#2e3436" stroke-width="1.5" d="M3,-13C3,-7 9,-1 15,-1"/>
<text text-anchor="middle" x="37" y="-25.8" font-family="FreeSans" font-size="8.00" fill="#1c2021">Node[7]</text>
<polyline fill="none" stroke="#2e3436" stroke-width="1.5" points="3,-19 71,-19 "/>
<text text-anchor="start" x="11" y="-7.8" font-family="FreeSans" font-size="8.00" fill="#1c2021">name = &#39;Juliet&#39;</text>
</g>
<!-- N8 -->
<g id="node2" class="node"><title>N8</title>
<polygon fill="#ffffff" stroke="#ffffff" stroke-width="1.5" points="11.5,-85 62.5,-85 74.5,-97 74.5,-109 62.5,-121 11.5,-121 -0.5,-109 -0.5,-97 11.5,-85"/>
<path fill="#ffffff" stroke="#ffffff" stroke-width="1.5" d="M62.5,-85C68.5,-85 74.5,-91 74.5,-97"/>
<path fill="#ffffff" stroke="#ffffff" stroke-width="1.5" d="M74.5,-109C74.5,-115 68.5,-121 62.5,-121"/>
<path fill="#ffffff" stroke="#ffffff" stroke-width="1.5" d="M11.5,-121C5.5,-121 -0.5,-115 -0.5,-109"/>
<path fill="#ffffff" stroke="#ffffff" stroke-width="1.5" d="M-0.5,-97C-0.5,-91 5.5,-85 11.5,-85"/>
<polyline fill="none" stroke="#2e3436" stroke-width="1.5" points="11.5,-85 62.5,-85 "/>
<path fill="none" stroke="#2e3436" stroke-width="1.5" d="M62.5,-85C68.5,-85 74.5,-91 74.5,-97"/>
<polyline fill="none" stroke="#2e3436" stroke-width="1.5" points="74.5,-97 74.5,-109 "/>
<path fill="none" stroke="#2e3436" stroke-width="1.5" d="M74.5,-109C74.5,-115 68.5,-121 62.5,-121"/>
<polyline fill="none" stroke="#2e3436" stroke-width="1.5" points="62.5,-121 11.5,-121 "/>
<path fill="none" stroke="#2e3436" stroke-width="1.5" d="M11.5,-121C5.5,-121 -0.5,-115 -0.5,-109"/>
<polyline fill="none" stroke="#2e3436" stroke-width="1.5" points="-0.5,-109 -0.5,-97 "/>
<path fill="none" stroke="#2e3436" stroke-width="1.5" d="M-0.5,-97C-0.5,-91 5.5,-85 11.5,-85"/>
<text text-anchor="middle" x="37" y="-109.8" font-family="FreeSans" font-size="8.00" fill="#1c2021">Node[8]</text>
<polyline fill="none" stroke="#2e3436" stroke-width="1.5" points="-0.5,-103 74.5,-103 "/>
<text text-anchor="start" x="7.5" y="-91.8" font-family="FreeSans" font-size="8.00" fill="#1c2021">name = &#39;Romeo&#39;</text>
</g>
<!-- N8&#45;&gt;N7 -->
<g id="edge2" class="edge"><title>N8&#45;&gt;N7</title>
<path fill="none" stroke="#2e3436" stroke-width="2" d="M37,-84.7733C37,-73.1053 37,-57.7874 37,-44.8699"/>
<polygon fill="#2e3436" stroke="#2e3436" points="37,-37.1912 40.3751,-44.6911 37.5,-40.9412 37.5001,-44.6912 37.0001,-44.6912 36.5001,-44.6912 36.5,-40.9412 33.6251,-44.6912 37,-37.1912 37,-37.1912"/>
<text text-anchor="middle" x="51" y="-58.8" font-family="FreeSans" font-size="8.00" fill="#2e3436">LOVES</text>
</g>
</g>
</svg>
