<?xml version="1.0" encoding="UTF-8" standalone="no"?>
<!DOCTYPE svg PUBLIC "-//W3C//DTD SVG 1.1//EN"
 "http://www.w3.org/Graphics/SVG/1.1/DTD/svg11.dtd">
<!-- Generated by graphviz version 2.26.3 (20100126.1600)
 -->
<!-- Title: g Pages: 1 -->
<svg width="209pt" height="382pt"
 viewBox="0.00 0.00 209.00 382.00" xmlns="http://www.w3.org/2000/svg" xmlns:xlink="http://www.w3.org/1999/xlink">
<g id="graph1" class="graph" transform="scale(1 1) rotate(0) translate(4 378)">
<title>g</title>
<polygon fill="white" stroke="white" points="-4,5 -4,-378 206,-378 206,5 -4,5"/>
<!-- N93 -->
<g id="node1" class="node"><title>N93</title>
<polygon fill="#ffffff" stroke="#ffffff" stroke-width="1.5" points="112,-1 154,-1 166,-13 166,-25 154,-37 112,-37 100,-25 100,-13 112,-1"/>
<path fill="#ffffff" stroke="#ffffff" stroke-width="1.5" d="M154,-1C160,-1 166,-7 166,-13"/>
<path fill="#ffffff" stroke="#ffffff" stroke-width="1.5" d="M166,-25C166,-31 160,-37 154,-37"/>
<path fill="#ffffff" stroke="#ffffff" stroke-width="1.5" d="M112,-37C106,-37 100,-31 100,-25"/>
<path fill="#ffffff" stroke="#ffffff" stroke-width="1.5" d="M100,-13C100,-7 106,-1 112,-1"/>
<polyline fill="none" stroke="#2e3436" stroke-width="1.5" points="112,-1 154,-1 "/>
<path fill="none" stroke="#2e3436" stroke-width="1.5" d="M154,-1C160,-1 166,-7 166,-13"/>
<polyline fill="none" stroke="#2e3436" stroke-width="1.5" points="166,-13 166,-25 "/>
<path fill="none" stroke="#2e3436" stroke-width="1.5" d="M166,-25C166,-31 160,-37 154,-37"/>
<polyline fill="none" stroke="#2e3436" stroke-width="1.5" points="154,-37 112,-37 "/>
<path fill="none" stroke="#2e3436" stroke-width="1.5" d="M112,-37C106,-37 100,-31 100,-25"/>
<polyline fill="none" stroke="#2e3436" stroke-width="1.5" points="100,-25 100,-13 "/>
<path fill="none" stroke="#2e3436" stroke-width="1.5" d="M100,-13C100,-7 106,-1 112,-1"/>
<text text-anchor="middle" x="133" y="-25.8" font-family="FreeSans" font-size="8.00" fill="#1c2021">Node[93]</text>
<polyline fill="none" stroke="#2e3436" stroke-width="1.5" points="100,-19 166,-19 "/>
<text text-anchor="start" x="108" y="-7.8" font-family="FreeSans" font-size="8.00" fill="#1c2021">name = &#39;Sara&#39;</text>
</g>
<!-- N94 -->
<g id="node2" class="node"><title>N94</title>
<polygon fill="#ffffff" stroke="#ffffff" stroke-width="1.5" points="39.5,-253 86.5,-253 98.5,-265 98.5,-277 86.5,-289 39.5,-289 27.5,-277 27.5,-265 39.5,-253"/>
<path fill="#ffffff" stroke="#ffffff" stroke-width="1.5" d="M86.5,-253C92.5,-253 98.5,-259 98.5,-265"/>
<path fill="#ffffff" stroke="#ffffff" stroke-width="1.5" d="M98.5,-277C98.5,-283 92.5,-289 86.5,-289"/>
<path fill="#ffffff" stroke="#ffffff" stroke-width="1.5" d="M39.5,-289C33.5,-289 27.5,-283 27.5,-277"/>
<path fill="#ffffff" stroke="#ffffff" stroke-width="1.5" d="M27.5,-265C27.5,-259 33.5,-253 39.5,-253"/>
<polyline fill="none" stroke="#2e3436" stroke-width="1.5" points="39.5,-253 86.5,-253 "/>
<path fill="none" stroke="#2e3436" stroke-width="1.5" d="M86.5,-253C92.5,-253 98.5,-259 98.5,-265"/>
<polyline fill="none" stroke="#2e3436" stroke-width="1.5" points="98.5,-265 98.5,-277 "/>
<path fill="none" stroke="#2e3436" stroke-width="1.5" d="M98.5,-277C98.5,-283 92.5,-289 86.5,-289"/>
<polyline fill="none" stroke="#2e3436" stroke-width="1.5" points="86.5,-289 39.5,-289 "/>
<path fill="none" stroke="#2e3436" stroke-width="1.5" d="M39.5,-289C33.5,-289 27.5,-283 27.5,-277"/>
<polyline fill="none" stroke="#2e3436" stroke-width="1.5" points="27.5,-277 27.5,-265 "/>
<path fill="none" stroke="#2e3436" stroke-width="1.5" d="M27.5,-265C27.5,-259 33.5,-253 39.5,-253"/>
<text text-anchor="middle" x="63" y="-277.8" font-family="FreeSans" font-size="8.00" fill="#1c2021">Node[94]</text>
<polyline fill="none" stroke="#2e3436" stroke-width="1.5" points="27.5,-271 98.5,-271 "/>
<text text-anchor="start" x="35.5" y="-259.8" font-family="FreeSans" font-size="8.00" fill="#1c2021">name = &#39;Johan&#39;</text>
</g>
<!-- N95 -->
<g id="node4" class="node"><title>N95</title>
<polygon fill="#ffffff" stroke="#ffffff" stroke-width="1.5" points="43,-169 83,-169 95,-181 95,-193 83,-205 43,-205 31,-193 31,-181 43,-169"/>
<path fill="#ffffff" stroke="#ffffff" stroke-width="1.5" d="M83,-169C89,-169 95,-175 95,-181"/>
<path fill="#ffffff" stroke="#ffffff" stroke-width="1.5" d="M95,-193C95,-199 89,-205 83,-205"/>
<path fill="#ffffff" stroke="#ffffff" stroke-width="1.5" d="M43,-205C37,-205 31,-199 31,-193"/>
<path fill="#ffffff" stroke="#ffffff" stroke-width="1.5" d="M31,-181C31,-175 37,-169 43,-169"/>
<polyline fill="none" stroke="#2e3436" stroke-width="1.5" points="43,-169 83,-169 "/>
<path fill="none" stroke="#2e3436" stroke-width="1.5" d="M83,-169C89,-169 95,-175 95,-181"/>
<polyline fill="none" stroke="#2e3436" stroke-width="1.5" points="95,-181 95,-193 "/>
<path fill="none" stroke="#2e3436" stroke-width="1.5" d="M95,-193C95,-199 89,-205 83,-205"/>
<polyline fill="none" stroke="#2e3436" stroke-width="1.5" points="83,-205 43,-205 "/>
<path fill="none" stroke="#2e3436" stroke-width="1.5" d="M43,-205C37,-205 31,-199 31,-193"/>
<polyline fill="none" stroke="#2e3436" stroke-width="1.5" points="31,-193 31,-181 "/>
<path fill="none" stroke="#2e3436" stroke-width="1.5" d="M31,-181C31,-175 37,-169 43,-169"/>
<text text-anchor="middle" x="63" y="-193.8" font-family="FreeSans" font-size="8.00" fill="#1c2021">Node[95]</text>
<polyline fill="none" stroke="#2e3436" stroke-width="1.5" points="31,-187 95,-187 "/>
<text text-anchor="start" x="39" y="-175.8" font-family="FreeSans" font-size="8.00" fill="#1c2021">name = &#39;Emil&#39;</text>
</g>
<!-- N94&#45;&gt;N95 -->
<g id="edge2" class="edge"><title>N94&#45;&gt;N95</title>
<path fill="none" stroke="#2e3436" stroke-width="2" d="M63,-252.773C63,-241.105 63,-225.787 63,-212.87"/>
<polygon fill="#2e3436" stroke="#2e3436" points="63,-205.191 66.3751,-212.691 63.5,-208.941 63.5001,-212.691 63.0001,-212.691 62.5001,-212.691 62.5,-208.941 59.6251,-212.691 63,-205.191 63,-205.191"/>
<text text-anchor="middle" x="75" y="-226.8" font-family="FreeSans" font-size="8.00" fill="#2e3436">knows</text>
</g>
<!-- N98 -->
<g id="node6" class="node"><title>N98</title>
<polygon fill="#ffffff" stroke="#ffffff" stroke-width="1.5" points="12,-85 56,-85 68,-97 68,-109 56,-121 12,-121 0,-109 0,-97 12,-85"/>
<path fill="#ffffff" stroke="#ffffff" stroke-width="1.5" d="M56,-85C62,-85 68,-91 68,-97"/>
<path fill="#ffffff" stroke="#ffffff" stroke-width="1.5" d="M68,-109C68,-115 62,-121 56,-121"/>
<path fill="#ffffff" stroke="#ffffff" stroke-width="1.5" d="M12,-121C6,-121 0,-115 0,-109"/>
<path fill="#ffffff" stroke="#ffffff" stroke-width="1.5" d="M0,-97C0,-91 6,-85 12,-85"/>
<polyline fill="none" stroke="#2e3436" stroke-width="1.5" points="12,-85 56,-85 "/>
<path fill="none" stroke="#2e3436" stroke-width="1.5" d="M56,-85C62,-85 68,-91 68,-97"/>
<polyline fill="none" stroke="#2e3436" stroke-width="1.5" points="68,-97 68,-109 "/>
<path fill="none" stroke="#2e3436" stroke-width="1.5" d="M68,-109C68,-115 62,-121 56,-121"/>
<polyline fill="none" stroke="#2e3436" stroke-width="1.5" points="56,-121 12,-121 "/>
<path fill="none" stroke="#2e3436" stroke-width="1.5" d="M12,-121C6,-121 0,-115 0,-109"/>
<polyline fill="none" stroke="#2e3436" stroke-width="1.5" points="0,-109 0,-97 "/>
<path fill="none" stroke="#2e3436" stroke-width="1.5" d="M0,-97C0,-91 6,-85 12,-85"/>
<text text-anchor="middle" x="34" y="-109.8" font-family="FreeSans" font-size="8.00" fill="#1c2021">Node[98]</text>
<polyline fill="none" stroke="#2e3436" stroke-width="1.5" points="0,-103 68,-103 "/>
<text text-anchor="start" x="8" y="-91.8" font-family="FreeSans" font-size="8.00" fill="#1c2021">name = &#39;Peter&#39;</text>
</g>
<!-- N95&#45;&gt;N98 -->
<g id="edge4" class="edge"><title>N95&#45;&gt;N98</title>
<path fill="none" stroke="#2e3436" stroke-width="2" d="M56.7074,-168.773C52.6412,-156.995 47.291,-141.498 42.8053,-128.505"/>
<polygon fill="#2e3436" stroke="#2e3436" points="40.2803,-121.191 45.9181,-127.179 41.9767,-124.573 43.2005,-128.117 42.7279,-128.281 42.2553,-128.444 41.0315,-124.899 39.5377,-129.382 40.2803,-121.191 40.2803,-121.191"/>
<text text-anchor="middle" x="62" y="-142.8" font-family="FreeSans" font-size="8.00" fill="#2e3436">knows</text>
</g>
<!-- N97 -->
<g id="node8" class="node"><title>N97</title>
<polygon fill="#ffffff" stroke="#ffffff" stroke-width="1.5" points="108.5,-85 157.5,-85 169.5,-97 169.5,-109 157.5,-121 108.5,-121 96.5,-109 96.5,-97 108.5,-85"/>
<path fill="#ffffff" stroke="#ffffff" stroke-width="1.5" d="M157.5,-85C163.5,-85 169.5,-91 169.5,-97"/>
<path fill="#ffffff" stroke="#ffffff" stroke-width="1.5" d="M169.5,-109C169.5,-115 163.5,-121 157.5,-121"/>
<path fill="#ffffff" stroke="#ffffff" stroke-width="1.5" d="M108.5,-121C102.5,-121 96.5,-115 96.5,-109"/>
<path fill="#ffffff" stroke="#ffffff" stroke-width="1.5" d="M96.5,-97C96.5,-91 102.5,-85 108.5,-85"/>
<polyline fill="none" stroke="#2e3436" stroke-width="1.5" points="108.5,-85 157.5,-85 "/>
<path fill="none" stroke="#2e3436" stroke-width="1.5" d="M157.5,-85C163.5,-85 169.5,-91 169.5,-97"/>
<polyline fill="none" stroke="#2e3436" stroke-width="1.5" points="169.5,-97 169.5,-109 "/>
<path fill="none" stroke="#2e3436" stroke-width="1.5" d="M169.5,-109C169.5,-115 163.5,-121 157.5,-121"/>
<polyline fill="none" stroke="#2e3436" stroke-width="1.5" points="157.5,-121 108.5,-121 "/>
<path fill="none" stroke="#2e3436" stroke-width="1.5" d="M108.5,-121C102.5,-121 96.5,-115 96.5,-109"/>
<polyline fill="none" stroke="#2e3436" stroke-width="1.5" points="96.5,-109 96.5,-97 "/>
<path fill="none" stroke="#2e3436" stroke-width="1.5" d="M96.5,-97C96.5,-91 102.5,-85 108.5,-85"/>
<text text-anchor="middle" x="133" y="-109.8" font-family="FreeSans" font-size="8.00" fill="#1c2021">Node[97]</text>
<polyline fill="none" stroke="#2e3436" stroke-width="1.5" points="96.5,-103 169.5,-103 "/>
<text text-anchor="start" x="104.5" y="-91.8" font-family="FreeSans" font-size="8.00" fill="#1c2021">name = &#39;Tobias&#39;</text>
</g>
<!-- N95&#45;&gt;N97 -->
<g id="edge6" class="edge"><title>N95&#45;&gt;N97</title>
<path fill="none" stroke="#2e3436" stroke-width="2" d="M78.189,-168.773C88.3709,-156.555 101.888,-140.334 112.951,-127.059"/>
<polygon fill="#2e3436" stroke="#2e3436" points="117.841,-121.191 115.632,-129.113 115.824,-124.392 113.423,-127.273 113.039,-126.953 112.655,-126.633 115.056,-123.752 110.447,-124.792 117.841,-121.191 117.841,-121.191"/>
<text text-anchor="middle" x="113" y="-142.8" font-family="FreeSans" font-size="8.00" fill="#2e3436">knows</text>
</g>
<!-- N97&#45;&gt;N93 -->
<g id="edge12" class="edge"><title>N97&#45;&gt;N93</title>
<path fill="none" stroke="#4e9a06" stroke-width="2" d="M133,-84.7733C133,-73.1053 133,-57.7874 133,-44.8699"/>
<polygon fill="#4e9a06" stroke="#4e9a06" points="133,-37.1912 136.375,-44.6911 133.5,-40.9412 133.5,-44.6912 133,-44.6912 132.5,-44.6912 132.5,-40.9412 129.625,-44.6912 133,-37.1912 133,-37.1912"/>
<text text-anchor="middle" x="142.5" y="-58.8" font-family="FreeSans" font-size="8.00" fill="#4e9a06">loves</text>
</g>
<!-- N96 -->
<g id="node9" class="node"><title>N96</title>
<polygon fill="#ffffff" stroke="#ffffff" stroke-width="1.5" points="103,-337 145,-337 157,-349 157,-361 145,-373 103,-373 91,-361 91,-349 103,-337"/>
<path fill="#ffffff" stroke="#ffffff" stroke-width="1.5" d="M145,-337C151,-337 157,-343 157,-349"/>
<path fill="#ffffff" stroke="#ffffff" stroke-width="1.5" d="M157,-361C157,-367 151,-373 145,-373"/>
<path fill="#ffffff" stroke="#ffffff" stroke-width="1.5" d="M103,-373C97,-373 91,-367 91,-361"/>
<path fill="#ffffff" stroke="#ffffff" stroke-width="1.5" d="M91,-349C91,-343 97,-337 103,-337"/>
<polyline fill="none" stroke="#2e3436" stroke-width="1.5" points="103,-337 145,-337 "/>
<path fill="none" stroke="#2e3436" stroke-width="1.5" d="M145,-337C151,-337 157,-343 157,-349"/>
<polyline fill="none" stroke="#2e3436" stroke-width="1.5" points="157,-349 157,-361 "/>
<path fill="none" stroke="#2e3436" stroke-width="1.5" d="M157,-361C157,-367 151,-373 145,-373"/>
<polyline fill="none" stroke="#2e3436" stroke-width="1.5" points="145,-373 103,-373 "/>
<path fill="none" stroke="#2e3436" stroke-width="1.5" d="M103,-373C97,-373 91,-367 91,-361"/>
<polyline fill="none" stroke="#2e3436" stroke-width="1.5" points="91,-361 91,-349 "/>
<path fill="none" stroke="#2e3436" stroke-width="1.5" d="M91,-349C91,-343 97,-337 103,-337"/>
<text text-anchor="middle" x="124" y="-361.8" font-family="FreeSans" font-size="8.00" fill="#1c2021">Node[96]</text>
<polyline fill="none" stroke="#2e3436" stroke-width="1.5" points="91,-355 157,-355 "/>
<text text-anchor="start" x="99" y="-343.8" font-family="FreeSans" font-size="8.00" fill="#1c2021">name = &#39;Root&#39;</text>
</g>
<!-- N96&#45;&gt;N94 -->
<g id="edge10" class="edge"><title>N96&#45;&gt;N94</title>
<path fill="none" stroke="#2e3436" stroke-width="2" d="M110.764,-336.773C101.971,-324.665 90.3237,-308.626 80.7322,-295.418"/>
<polygon fill="#2e3436" stroke="#2e3436" points="76.2103,-289.191 83.3482,-293.277 78.8184,-291.932 81.0219,-294.966 80.6173,-295.26 80.2127,-295.554 78.0092,-292.519 77.8864,-297.243 76.2103,-289.191 76.2103,-289.191"/>
<text text-anchor="middle" x="108" y="-310.8" font-family="FreeSans" font-size="8.00" fill="#2e3436">knows</text>
</g>
<!-- N99 -->
<g id="node11" class="node"><title>N99</title>
<polygon fill="#ffffff" stroke="#ffffff" stroke-width="1.5" points="139,-253 189,-253 201,-265 201,-277 189,-289 139,-289 127,-277 127,-265 139,-253"/>
<path fill="#ffffff" stroke="#ffffff" stroke-width="1.5" d="M189,-253C195,-253 201,-259 201,-265"/>
<path fill="#ffffff" stroke="#ffffff" stroke-width="1.5" d="M201,-277C201,-283 195,-289 189,-289"/>
<path fill="#ffffff" stroke="#ffffff" stroke-width="1.5" d="M139,-289C133,-289 127,-283 127,-277"/>
<path fill="#ffffff" stroke="#ffffff" stroke-width="1.5" d="M127,-265C127,-259 133,-253 139,-253"/>
<polyline fill="none" stroke="#2e3436" stroke-width="1.5" points="139,-253 189,-253 "/>
<path fill="none" stroke="#2e3436" stroke-width="1.5" d="M189,-253C195,-253 201,-259 201,-265"/>
<polyline fill="none" stroke="#2e3436" stroke-width="1.5" points="201,-265 201,-277 "/>
<path fill="none" stroke="#2e3436" stroke-width="1.5" d="M201,-277C201,-283 195,-289 189,-289"/>
<polyline fill="none" stroke="#2e3436" stroke-width="1.5" points="189,-289 139,-289 "/>
<path fill="none" stroke="#2e3436" stroke-width="1.5" d="M139,-289C133,-289 127,-283 127,-277"/>
<polyline fill="none" stroke="#2e3436" stroke-width="1.5" points="127,-277 127,-265 "/>
<path fill="none" stroke="#2e3436" stroke-width="1.5" d="M127,-265C127,-259 133,-253 139,-253"/>
<text text-anchor="middle" x="164" y="-277.8" font-family="FreeSans" font-size="8.00" fill="#1c2021">Node[99]</text>
<polyline fill="none" stroke="#2e3436" stroke-width="1.5" points="127,-271 201,-271 "/>
<text text-anchor="start" x="135" y="-259.8" font-family="FreeSans" font-size="8.00" fill="#1c2021">name = &#39;Mattias&#39;</text>
</g>
<!-- N96&#45;&gt;N99 -->
<g id="edge8" class="edge"><title>N96&#45;&gt;N99</title>
<path fill="none" stroke="#2e3436" stroke-width="2" d="M132.679,-336.773C138.34,-324.885 145.806,-309.208 152.028,-296.141"/>
<polygon fill="#2e3436" stroke="#2e3436" points="155.338,-289.191 155.16,-297.414 154.177,-292.792 152.564,-296.178 152.113,-295.963 151.662,-295.748 153.274,-292.362 149.066,-294.512 155.338,-289.191 155.338,-289.191"/>
<text text-anchor="middle" x="158" y="-310.8" font-family="FreeSans" font-size="8.00" fill="#2e3436">knows</text>
</g>
</g>
</svg>
