<?xml version="1.0" encoding="UTF-8" standalone="no"?>
<!DOCTYPE svg PUBLIC "-//W3C//DTD SVG 1.1//EN"
 "http://www.w3.org/Graphics/SVG/1.1/DTD/svg11.dtd">
<!-- Generated by graphviz version 2.26.3 (20100126.1600)
 -->
<!-- Title: g Pages: 1 -->
<svg width="234pt" height="130pt"
 viewBox="0.00 0.00 234.00 130.00" xmlns="http://www.w3.org/2000/svg" xmlns:xlink="http://www.w3.org/1999/xlink">
<g id="graph1" class="graph" transform="scale(1 1) rotate(0) translate(4 126)">
<title>g</title>
<polygon fill="white" stroke="white" points="-4,5 -4,-126 231,-126 231,5 -4,5"/>
<!-- N207 -->
<g id="node1" class="node"><title>N207</title>
<polygon fill="#ffffff" stroke="#ffffff" stroke-width="1.5" points="11.5,-1 54.5,-1 66.5,-13 66.5,-25 54.5,-37 11.5,-37 -0.5,-25 -0.5,-13 11.5,-1"/>
<path fill="#ffffff" stroke="#ffffff" stroke-width="1.5" d="M54.5,-1C60.5,-1 66.5,-7 66.5,-13"/>
<path fill="#ffffff" stroke="#ffffff" stroke-width="1.5" d="M66.5,-25C66.5,-31 60.5,-37 54.5,-37"/>
<path fill="#ffffff" stroke="#ffffff" stroke-width="1.5" d="M11.5,-37C5.5,-37 -0.5,-31 -0.5,-25"/>
<path fill="#ffffff" stroke="#ffffff" stroke-width="1.5" d="M-0.5,-13C-0.5,-7 5.5,-1 11.5,-1"/>
<polyline fill="none" stroke="#2e3436" stroke-width="1.5" points="11.5,-1 54.5,-1 "/>
<path fill="none" stroke="#2e3436" stroke-width="1.5" d="M54.5,-1C60.5,-1 66.5,-7 66.5,-13"/>
<polyline fill="none" stroke="#2e3436" stroke-width="1.5" points="66.5,-13 66.5,-25 "/>
<path fill="none" stroke="#2e3436" stroke-width="1.5" d="M66.5,-25C66.5,-31 60.5,-37 54.5,-37"/>
<polyline fill="none" stroke="#2e3436" stroke-width="1.5" points="54.5,-37 11.5,-37 "/>
<path fill="none" stroke="#2e3436" stroke-width="1.5" d="M11.5,-37C5.5,-37 -0.5,-31 -0.5,-25"/>
<polyline fill="none" stroke="#2e3436" stroke-width="1.5" points="-0.5,-25 -0.5,-13 "/>
<path fill="none" stroke="#2e3436" stroke-width="1.5" d="M-0.5,-13C-0.5,-7 5.5,-1 11.5,-1"/>
<text text-anchor="middle" x="33" y="-25.8" font-family="FreeSans" font-size="8.00" fill="#1c2021">Node[207]</text>
<polyline fill="none" stroke="#2e3436" stroke-width="1.5" points="-0.5,-19 66.5,-19 "/>
<text text-anchor="start" x="7.5" y="-7.8" font-family="FreeSans" font-size="8.00" fill="#1c2021">name = &#39;John&#39;</text>
</g>
<!-- N208 -->
<g id="node2" class="node"><title>N208</title>
<polygon fill="#ffffff" stroke="#ffffff" stroke-width="1.5" points="18,-85 48,-85 60,-97 60,-109 48,-121 18,-121 6,-109 6,-97 18,-85"/>
<path fill="#ffffff" stroke="#ffffff" stroke-width="1.5" d="M48,-85C54,-85 60,-91 60,-97"/>
<path fill="#ffffff" stroke="#ffffff" stroke-width="1.5" d="M60,-109C60,-115 54,-121 48,-121"/>
<path fill="#ffffff" stroke="#ffffff" stroke-width="1.5" d="M18,-121C12,-121 6,-115 6,-109"/>
<path fill="#ffffff" stroke="#ffffff" stroke-width="1.5" d="M6,-97C6,-91 12,-85 18,-85"/>
<polyline fill="none" stroke="#2e3436" stroke-width="1.5" points="18,-85 48,-85 "/>
<path fill="none" stroke="#2e3436" stroke-width="1.5" d="M48,-85C54,-85 60,-91 60,-97"/>
<polyline fill="none" stroke="#2e3436" stroke-width="1.5" points="60,-97 60,-109 "/>
<path fill="none" stroke="#2e3436" stroke-width="1.5" d="M60,-109C60,-115 54,-121 48,-121"/>
<polyline fill="none" stroke="#2e3436" stroke-width="1.5" points="48,-121 18,-121 "/>
<path fill="none" stroke="#2e3436" stroke-width="1.5" d="M18,-121C12,-121 6,-115 6,-109"/>
<polyline fill="none" stroke="#2e3436" stroke-width="1.5" points="6,-109 6,-97 "/>
<path fill="none" stroke="#2e3436" stroke-width="1.5" d="M6,-97C6,-91 12,-85 18,-85"/>
<text text-anchor="middle" x="33" y="-109.8" font-family="FreeSans" font-size="8.00" fill="#1c2021">Node[208]</text>
<polyline fill="none" stroke="#2e3436" stroke-width="1.5" points="6,-103 60,-103 "/>
<text text-anchor="start" x="14" y="-91.8" font-family="FreeSans" font-size="8.00" fill="#1c2021">age = 1</text>
</g>
<!-- N208&#45;&gt;N207 -->
<g id="edge2" class="edge"><title>N208&#45;&gt;N207</title>
<path fill="none" stroke="#2e3436" stroke-width="2" d="M33,-84.7733C33,-73.1053 33,-57.7874 33,-44.8699"/>
<polygon fill="#2e3436" stroke="#2e3436" points="33,-37.1912 36.3751,-44.6911 33.5,-40.9412 33.5001,-44.6912 33.0001,-44.6912 32.5001,-44.6912 32.5,-40.9412 29.6251,-44.6912 33,-37.1912 33,-37.1912"/>
<text text-anchor="middle" x="45" y="-58.8" font-family="FreeSans" font-size="8.00" fill="#2e3436">knows</text>
</g>
<!-- N209 -->
<g id="node4" class="node"><title>N209</title>
<polygon fill="#ffffff" stroke="#ffffff" stroke-width="1.5" points="101,-85 131,-85 143,-97 143,-109 131,-121 101,-121 89,-109 89,-97 101,-85"/>
<path fill="#ffffff" stroke="#ffffff" stroke-width="1.5" d="M131,-85C137,-85 143,-91 143,-97"/>
<path fill="#ffffff" stroke="#ffffff" stroke-width="1.5" d="M143,-109C143,-115 137,-121 131,-121"/>
<path fill="#ffffff" stroke="#ffffff" stroke-width="1.5" d="M101,-121C95,-121 89,-115 89,-109"/>
<path fill="#ffffff" stroke="#ffffff" stroke-width="1.5" d="M89,-97C89,-91 95,-85 101,-85"/>
<polyline fill="none" stroke="#2e3436" stroke-width="1.5" points="101,-85 131,-85 "/>
<path fill="none" stroke="#2e3436" stroke-width="1.5" d="M131,-85C137,-85 143,-91 143,-97"/>
<polyline fill="none" stroke="#2e3436" stroke-width="1.5" points="143,-97 143,-109 "/>
<path fill="none" stroke="#2e3436" stroke-width="1.5" d="M143,-109C143,-115 137,-121 131,-121"/>
<polyline fill="none" stroke="#2e3436" stroke-width="1.5" points="131,-121 101,-121 "/>
<path fill="none" stroke="#2e3436" stroke-width="1.5" d="M101,-121C95,-121 89,-115 89,-109"/>
<polyline fill="none" stroke="#2e3436" stroke-width="1.5" points="89,-109 89,-97 "/>
<path fill="none" stroke="#2e3436" stroke-width="1.5" d="M89,-97C89,-91 95,-85 101,-85"/>
<text text-anchor="middle" x="116" y="-109.8" font-family="FreeSans" font-size="8.00" fill="#1c2021">Node[209]</text>
<polyline fill="none" stroke="#2e3436" stroke-width="1.5" points="89,-103 143,-103 "/>
<text text-anchor="start" x="97" y="-91.8" font-family="FreeSans" font-size="8.00" fill="#1c2021">age = 1</text>
</g>
<!-- N210 -->
<g id="node5" class="node"><title>N210</title>
<polygon fill="#ffffff" stroke="#ffffff" stroke-width="1.5" points="184,-85 214,-85 226,-97 226,-109 214,-121 184,-121 172,-109 172,-97 184,-85"/>
<path fill="#ffffff" stroke="#ffffff" stroke-width="1.5" d="M214,-85C220,-85 226,-91 226,-97"/>
<path fill="#ffffff" stroke="#ffffff" stroke-width="1.5" d="M226,-109C226,-115 220,-121 214,-121"/>
<path fill="#ffffff" stroke="#ffffff" stroke-width="1.5" d="M184,-121C178,-121 172,-115 172,-109"/>
<path fill="#ffffff" stroke="#ffffff" stroke-width="1.5" d="M172,-97C172,-91 178,-85 184,-85"/>
<polyline fill="none" stroke="#2e3436" stroke-width="1.5" points="184,-85 214,-85 "/>
<path fill="none" stroke="#2e3436" stroke-width="1.5" d="M214,-85C220,-85 226,-91 226,-97"/>
<polyline fill="none" stroke="#2e3436" stroke-width="1.5" points="226,-97 226,-109 "/>
<path fill="none" stroke="#2e3436" stroke-width="1.5" d="M226,-109C226,-115 220,-121 214,-121"/>
<polyline fill="none" stroke="#2e3436" stroke-width="1.5" points="214,-121 184,-121 "/>
<path fill="none" stroke="#2e3436" stroke-width="1.5" d="M184,-121C178,-121 172,-115 172,-109"/>
<polyline fill="none" stroke="#2e3436" stroke-width="1.5" points="172,-109 172,-97 "/>
<path fill="none" stroke="#2e3436" stroke-width="1.5" d="M172,-97C172,-91 178,-85 184,-85"/>
<text text-anchor="middle" x="199" y="-109.8" font-family="FreeSans" font-size="8.00" fill="#1c2021">Node[210]</text>
<polyline fill="none" stroke="#2e3436" stroke-width="1.5" points="172,-103 226,-103 "/>
<text text-anchor="start" x="180" y="-91.8" font-family="FreeSans" font-size="8.00" fill="#1c2021">age = 1</text>
</g>
</g>
</svg>
