<?xml version="1.0" encoding="UTF-8" standalone="no"?>
<!DOCTYPE svg PUBLIC "-//W3C//DTD SVG 1.1//EN"
 "http://www.w3.org/Graphics/SVG/1.1/DTD/svg11.dtd">
<!-- Generated by graphviz version 2.26.3 (20100126.1600)
 -->
<!-- Title: g Pages: 1 -->
<svg width="186pt" height="214pt"
 viewBox="0.00 0.00 186.00 214.00" xmlns="http://www.w3.org/2000/svg" xmlns:xlink="http://www.w3.org/1999/xlink">
<g id="graph1" class="graph" transform="scale(1 1) rotate(0) translate(4 210)">
<title>g</title>
<polygon fill="white" stroke="white" points="-4,5 -4,-210 183,-210 183,5 -4,5"/>
<!-- N130 -->
<g id="node1" class="node"><title>N130</title>
<polygon fill="#ffffff" stroke="#ffffff" stroke-width="1.5" points="53,-85 83,-85 95,-97 95,-109 83,-121 53,-121 41,-109 41,-97 53,-85"/>
<path fill="#ffffff" stroke="#ffffff" stroke-width="1.5" d="M83,-85C89,-85 95,-91 95,-97"/>
<path fill="#ffffff" stroke="#ffffff" stroke-width="1.5" d="M95,-109C95,-115 89,-121 83,-121"/>
<path fill="#ffffff" stroke="#ffffff" stroke-width="1.5" d="M53,-121C47,-121 41,-115 41,-109"/>
<path fill="#ffffff" stroke="#ffffff" stroke-width="1.5" d="M41,-97C41,-91 47,-85 53,-85"/>
<polyline fill="none" stroke="#2e3436" stroke-width="1.5" points="53,-85 83,-85 "/>
<path fill="none" stroke="#2e3436" stroke-width="1.5" d="M83,-85C89,-85 95,-91 95,-97"/>
<polyline fill="none" stroke="#2e3436" stroke-width="1.5" points="95,-97 95,-109 "/>
<path fill="none" stroke="#2e3436" stroke-width="1.5" d="M95,-109C95,-115 89,-121 83,-121"/>
<polyline fill="none" stroke="#2e3436" stroke-width="1.5" points="83,-121 53,-121 "/>
<path fill="none" stroke="#2e3436" stroke-width="1.5" d="M53,-121C47,-121 41,-115 41,-109"/>
<polyline fill="none" stroke="#2e3436" stroke-width="1.5" points="41,-109 41,-97 "/>
<path fill="none" stroke="#2e3436" stroke-width="1.5" d="M41,-97C41,-91 47,-85 53,-85"/>
<text text-anchor="middle" x="68" y="-109.8" font-family="FreeSans" font-size="8.00" fill="#1c2021">Node[130]</text>
<polyline fill="none" stroke="#2e3436" stroke-width="1.5" points="41,-103 95,-103 "/>
<text text-anchor="middle" x="68" y="-91.8" font-family="FreeSans" font-size="8.00" fill="#1c2021"> </text>
</g>
<!-- N131 -->
<g id="node3" class="node"><title>N131</title>
<polygon fill="#ffffff" stroke="#ffffff" stroke-width="1.5" points="12,-1 42,-1 54,-13 54,-25 42,-37 12,-37 0,-25 0,-13 12,-1"/>
<path fill="#ffffff" stroke="#ffffff" stroke-width="1.5" d="M42,-1C48,-1 54,-7 54,-13"/>
<path fill="#ffffff" stroke="#ffffff" stroke-width="1.5" d="M54,-25C54,-31 48,-37 42,-37"/>
<path fill="#ffffff" stroke="#ffffff" stroke-width="1.5" d="M12,-37C6,-37 0,-31 0,-25"/>
<path fill="#ffffff" stroke="#ffffff" stroke-width="1.5" d="M0,-13C0,-7 6,-1 12,-1"/>
<polyline fill="none" stroke="#2e3436" stroke-width="1.5" points="12,-1 42,-1 "/>
<path fill="none" stroke="#2e3436" stroke-width="1.5" d="M42,-1C48,-1 54,-7 54,-13"/>
<polyline fill="none" stroke="#2e3436" stroke-width="1.5" points="54,-13 54,-25 "/>
<path fill="none" stroke="#2e3436" stroke-width="1.5" d="M54,-25C54,-31 48,-37 42,-37"/>
<polyline fill="none" stroke="#2e3436" stroke-width="1.5" points="42,-37 12,-37 "/>
<path fill="none" stroke="#2e3436" stroke-width="1.5" d="M12,-37C6,-37 0,-31 0,-25"/>
<polyline fill="none" stroke="#2e3436" stroke-width="1.5" points="0,-25 0,-13 "/>
<path fill="none" stroke="#2e3436" stroke-width="1.5" d="M0,-13C0,-7 6,-1 12,-1"/>
<text text-anchor="middle" x="27" y="-25.8" font-family="FreeSans" font-size="8.00" fill="#1c2021">Node[131]</text>
<polyline fill="none" stroke="#2e3436" stroke-width="1.5" points="0,-19 54,-19 "/>
<text text-anchor="middle" x="27" y="-7.8" font-family="FreeSans" font-size="8.00" fill="#1c2021"> </text>
</g>
<!-- N130&#45;&gt;N131 -->
<g id="edge2" class="edge"><title>N130&#45;&gt;N131</title>
<path fill="none" stroke="#2e3436" stroke-width="2" d="M59.1036,-84.7733C53.3011,-72.8851 45.6492,-57.2081 39.2714,-44.1413"/>
<polygon fill="#2e3436" stroke="#2e3436" points="35.879,-37.1912 42.2018,-42.4508 37.9733,-40.3419 39.6182,-43.7119 39.1688,-43.9312 38.7195,-44.1505 37.0746,-40.7805 36.1358,-45.4116 35.879,-37.1912 35.879,-37.1912"/>
<text text-anchor="middle" x="60.5" y="-58.8" font-family="FreeSans" font-size="8.00" fill="#2e3436">LIKES</text>
</g>
<!-- N133 -->
<g id="node5" class="node"><title>N133</title>
<polygon fill="#ffffff" stroke="#ffffff" stroke-width="1.5" points="95,-1 125,-1 137,-13 137,-25 125,-37 95,-37 83,-25 83,-13 95,-1"/>
<path fill="#ffffff" stroke="#ffffff" stroke-width="1.5" d="M125,-1C131,-1 137,-7 137,-13"/>
<path fill="#ffffff" stroke="#ffffff" stroke-width="1.5" d="M137,-25C137,-31 131,-37 125,-37"/>
<path fill="#ffffff" stroke="#ffffff" stroke-width="1.5" d="M95,-37C89,-37 83,-31 83,-25"/>
<path fill="#ffffff" stroke="#ffffff" stroke-width="1.5" d="M83,-13C83,-7 89,-1 95,-1"/>
<polyline fill="none" stroke="#2e3436" stroke-width="1.5" points="95,-1 125,-1 "/>
<path fill="none" stroke="#2e3436" stroke-width="1.5" d="M125,-1C131,-1 137,-7 137,-13"/>
<polyline fill="none" stroke="#2e3436" stroke-width="1.5" points="137,-13 137,-25 "/>
<path fill="none" stroke="#2e3436" stroke-width="1.5" d="M137,-25C137,-31 131,-37 125,-37"/>
<polyline fill="none" stroke="#2e3436" stroke-width="1.5" points="125,-37 95,-37 "/>
<path fill="none" stroke="#2e3436" stroke-width="1.5" d="M95,-37C89,-37 83,-31 83,-25"/>
<polyline fill="none" stroke="#2e3436" stroke-width="1.5" points="83,-25 83,-13 "/>
<path fill="none" stroke="#2e3436" stroke-width="1.5" d="M83,-13C83,-7 89,-1 95,-1"/>
<text text-anchor="middle" x="110" y="-25.8" font-family="FreeSans" font-size="8.00" fill="#1c2021">Node[133]</text>
<polyline fill="none" stroke="#2e3436" stroke-width="1.5" points="83,-19 137,-19 "/>
<text text-anchor="middle" x="110" y="-7.8" font-family="FreeSans" font-size="8.00" fill="#1c2021"> </text>
</g>
<!-- N130&#45;&gt;N133 -->
<g id="edge4" class="edge"><title>N130&#45;&gt;N133</title>
<path fill="none" stroke="#4e9a06" stroke-width="2" d="M77.1134,-84.7733C83.0574,-72.8851 90.896,-57.2081 97.4293,-44.1413"/>
<polygon fill="#4e9a06" stroke="#4e9a06" points="100.904,-37.1912 100.569,-45.4088 99.6745,-40.7689 97.9975,-44.123 97.5503,-43.8994 97.103,-43.6758 98.7801,-40.3217 94.5316,-42.39 100.904,-37.1912 100.904,-37.1912"/>
<text text-anchor="middle" x="104" y="-58.8" font-family="FreeSans" font-size="8.00" fill="#4e9a06">HATES</text>
</g>
<!-- N132 -->
<g id="node6" class="node"><title>N132</title>
<polygon fill="#ffffff" stroke="#ffffff" stroke-width="1.5" points="53,-169 83,-169 95,-181 95,-193 83,-205 53,-205 41,-193 41,-181 53,-169"/>
<path fill="#ffffff" stroke="#ffffff" stroke-width="1.5" d="M83,-169C89,-169 95,-175 95,-181"/>
<path fill="#ffffff" stroke="#ffffff" stroke-width="1.5" d="M95,-193C95,-199 89,-205 83,-205"/>
<path fill="#ffffff" stroke="#ffffff" stroke-width="1.5" d="M53,-205C47,-205 41,-199 41,-193"/>
<path fill="#ffffff" stroke="#ffffff" stroke-width="1.5" d="M41,-181C41,-175 47,-169 53,-169"/>
<polyline fill="none" stroke="#2e3436" stroke-width="1.5" points="53,-169 83,-169 "/>
<path fill="none" stroke="#2e3436" stroke-width="1.5" d="M83,-169C89,-169 95,-175 95,-181"/>
<polyline fill="none" stroke="#2e3436" stroke-width="1.5" points="95,-181 95,-193 "/>
<path fill="none" stroke="#2e3436" stroke-width="1.5" d="M95,-193C95,-199 89,-205 83,-205"/>
<polyline fill="none" stroke="#2e3436" stroke-width="1.5" points="83,-205 53,-205 "/>
<path fill="none" stroke="#2e3436" stroke-width="1.5" d="M53,-205C47,-205 41,-199 41,-193"/>
<polyline fill="none" stroke="#2e3436" stroke-width="1.5" points="41,-193 41,-181 "/>
<path fill="none" stroke="#2e3436" stroke-width="1.5" d="M41,-181C41,-175 47,-169 53,-169"/>
<text text-anchor="middle" x="68" y="-193.8" font-family="FreeSans" font-size="8.00" fill="#1c2021">Node[132]</text>
<polyline fill="none" stroke="#2e3436" stroke-width="1.5" points="41,-187 95,-187 "/>
<text text-anchor="middle" x="68" y="-175.8" font-family="FreeSans" font-size="8.00" fill="#1c2021"> </text>
</g>
<!-- N132&#45;&gt;N130 -->
<g id="edge6" class="edge"><title>N132&#45;&gt;N130</title>
<path fill="none" stroke="#2e3436" stroke-width="2" d="M68,-168.773C68,-157.105 68,-141.787 68,-128.87"/>
<polygon fill="#2e3436" stroke="#2e3436" points="68,-121.191 71.3751,-128.691 68.5,-124.941 68.5001,-128.691 68.0001,-128.691 67.5001,-128.691 67.5,-124.941 64.6251,-128.691 68,-121.191 68,-121.191"/>
<text text-anchor="middle" x="79.5" y="-142.8" font-family="FreeSans" font-size="8.00" fill="#2e3436">LIKES</text>
</g>
<!-- N134 -->
<g id="node8" class="node"><title>N134</title>
<polygon fill="#ffffff" stroke="#ffffff" stroke-width="1.5" points="136,-169 166,-169 178,-181 178,-193 166,-205 136,-205 124,-193 124,-181 136,-169"/>
<path fill="#ffffff" stroke="#ffffff" stroke-width="1.5" d="M166,-169C172,-169 178,-175 178,-181"/>
<path fill="#ffffff" stroke="#ffffff" stroke-width="1.5" d="M178,-193C178,-199 172,-205 166,-205"/>
<path fill="#ffffff" stroke="#ffffff" stroke-width="1.5" d="M136,-205C130,-205 124,-199 124,-193"/>
<path fill="#ffffff" stroke="#ffffff" stroke-width="1.5" d="M124,-181C124,-175 130,-169 136,-169"/>
<polyline fill="none" stroke="#2e3436" stroke-width="1.5" points="136,-169 166,-169 "/>
<path fill="none" stroke="#2e3436" stroke-width="1.5" d="M166,-169C172,-169 178,-175 178,-181"/>
<polyline fill="none" stroke="#2e3436" stroke-width="1.5" points="178,-181 178,-193 "/>
<path fill="none" stroke="#2e3436" stroke-width="1.5" d="M178,-193C178,-199 172,-205 166,-205"/>
<polyline fill="none" stroke="#2e3436" stroke-width="1.5" points="166,-205 136,-205 "/>
<path fill="none" stroke="#2e3436" stroke-width="1.5" d="M136,-205C130,-205 124,-199 124,-193"/>
<polyline fill="none" stroke="#2e3436" stroke-width="1.5" points="124,-193 124,-181 "/>
<path fill="none" stroke="#2e3436" stroke-width="1.5" d="M124,-181C124,-175 130,-169 136,-169"/>
<text text-anchor="middle" x="151" y="-193.8" font-family="FreeSans" font-size="8.00" fill="#1c2021">Node[134]</text>
<polyline fill="none" stroke="#2e3436" stroke-width="1.5" points="124,-187 178,-187 "/>
<text text-anchor="middle" x="151" y="-175.8" font-family="FreeSans" font-size="8.00" fill="#1c2021"> </text>
</g>
</g>
</svg>
