<?xml version="1.0" encoding="UTF-8" standalone="no"?>
<!DOCTYPE svg PUBLIC "-//W3C//DTD SVG 1.1//EN"
 "http://www.w3.org/Graphics/SVG/1.1/DTD/svg11.dtd">
<!-- Generated by graphviz version 2.26.3 (20100126.1600)
 -->
<!-- Title: g Pages: 1 -->
<svg width="145pt" height="130pt"
 viewBox="0.00 0.00 145.00 130.00" xmlns="http://www.w3.org/2000/svg" xmlns:xlink="http://www.w3.org/1999/xlink">
<g id="graph1" class="graph" transform="scale(1 1) rotate(0) translate(4 126)">
<title>g</title>
<polygon fill="white" stroke="white" points="-4,5 -4,-126 142,-126 142,5 -4,5"/>
<!-- N103 -->
<g id="node1" class="node"><title>N103</title>
<polygon fill="#ffffff" stroke="#ffffff" stroke-width="1.5" points="12,-85 42,-85 54,-97 54,-109 42,-121 12,-121 0,-109 0,-97 12,-85"/>
<path fill="#ffffff" stroke="#ffffff" stroke-width="1.5" d="M42,-85C48,-85 54,-91 54,-97"/>
<path fill="#ffffff" stroke="#ffffff" stroke-width="1.5" d="M54,-109C54,-115 48,-121 42,-121"/>
<path fill="#ffffff" stroke="#ffffff" stroke-width="1.5" d="M12,-121C6,-121 0,-115 0,-109"/>
<path fill="#ffffff" stroke="#ffffff" stroke-width="1.5" d="M0,-97C0,-91 6,-85 12,-85"/>
<polyline fill="none" stroke="#2e3436" stroke-width="1.5" points="12,-85 42,-85 "/>
<path fill="none" stroke="#2e3436" stroke-width="1.5" d="M42,-85C48,-85 54,-91 54,-97"/>
<polyline fill="none" stroke="#2e3436" stroke-width="1.5" points="54,-97 54,-109 "/>
<path fill="none" stroke="#2e3436" stroke-width="1.5" d="M54,-109C54,-115 48,-121 42,-121"/>
<polyline fill="none" stroke="#2e3436" stroke-width="1.5" points="42,-121 12,-121 "/>
<path fill="none" stroke="#2e3436" stroke-width="1.5" d="M12,-121C6,-121 0,-115 0,-109"/>
<polyline fill="none" stroke="#2e3436" stroke-width="1.5" points="0,-109 0,-97 "/>
<path fill="none" stroke="#2e3436" stroke-width="1.5" d="M0,-97C0,-91 6,-85 12,-85"/>
<text text-anchor="middle" x="27" y="-109.8" font-family="FreeSans" font-size="8.00" fill="#1c2021">Node[103]</text>
<polyline fill="none" stroke="#2e3436" stroke-width="1.5" points="0,-103 54,-103 "/>
<text text-anchor="middle" x="27" y="-91.8" font-family="FreeSans" font-size="8.00" fill="#1c2021"> </text>
</g>
<!-- N104 -->
<g id="node3" class="node"><title>N104</title>
<polygon fill="#ffffff" stroke="#ffffff" stroke-width="1.5" points="12,-1 42,-1 54,-13 54,-25 42,-37 12,-37 0,-25 0,-13 12,-1"/>
<path fill="#ffffff" stroke="#ffffff" stroke-width="1.5" d="M42,-1C48,-1 54,-7 54,-13"/>
<path fill="#ffffff" stroke="#ffffff" stroke-width="1.5" d="M54,-25C54,-31 48,-37 42,-37"/>
<path fill="#ffffff" stroke="#ffffff" stroke-width="1.5" d="M12,-37C6,-37 0,-31 0,-25"/>
<path fill="#ffffff" stroke="#ffffff" stroke-width="1.5" d="M0,-13C0,-7 6,-1 12,-1"/>
<polyline fill="none" stroke="#2e3436" stroke-width="1.5" points="12,-1 42,-1 "/>
<path fill="none" stroke="#2e3436" stroke-width="1.5" d="M42,-1C48,-1 54,-7 54,-13"/>
<polyline fill="none" stroke="#2e3436" stroke-width="1.5" points="54,-13 54,-25 "/>
<path fill="none" stroke="#2e3436" stroke-width="1.5" d="M54,-25C54,-31 48,-37 42,-37"/>
<polyline fill="none" stroke="#2e3436" stroke-width="1.5" points="42,-37 12,-37 "/>
<path fill="none" stroke="#2e3436" stroke-width="1.5" d="M12,-37C6,-37 0,-31 0,-25"/>
<polyline fill="none" stroke="#2e3436" stroke-width="1.5" points="0,-25 0,-13 "/>
<path fill="none" stroke="#2e3436" stroke-width="1.5" d="M0,-13C0,-7 6,-1 12,-1"/>
<text text-anchor="middle" x="27" y="-25.8" font-family="FreeSans" font-size="8.00" fill="#1c2021">Node[104]</text>
<polyline fill="none" stroke="#2e3436" stroke-width="1.5" points="0,-19 54,-19 "/>
<text text-anchor="middle" x="27" y="-7.8" font-family="FreeSans" font-size="8.00" fill="#1c2021"> </text>
</g>
<!-- N103&#45;&gt;N104 -->
<g id="edge2" class="edge"><title>N103&#45;&gt;N104</title>
<path fill="none" stroke="#2e3436" stroke-width="2" d="M27,-84.7733C27,-73.1053 27,-57.7874 27,-44.8699"/>
<polygon fill="#2e3436" stroke="#2e3436" points="27,-37.1912 30.3751,-44.6911 27.5,-40.9412 27.5001,-44.6912 27.0001,-44.6912 26.5001,-44.6912 26.5,-40.9412 23.6251,-44.6912 27,-37.1912 27,-37.1912"/>
<text text-anchor="middle" x="33" y="-58.8" font-family="FreeSans" font-size="8.00" fill="#2e3436">foo</text>
</g>
<!-- N105 -->
<g id="node4" class="node"><title>N105</title>
<polygon fill="#ffffff" stroke="#ffffff" stroke-width="1.5" points="95,-85 125,-85 137,-97 137,-109 125,-121 95,-121 83,-109 83,-97 95,-85"/>
<path fill="#ffffff" stroke="#ffffff" stroke-width="1.5" d="M125,-85C131,-85 137,-91 137,-97"/>
<path fill="#ffffff" stroke="#ffffff" stroke-width="1.5" d="M137,-109C137,-115 131,-121 125,-121"/>
<path fill="#ffffff" stroke="#ffffff" stroke-width="1.5" d="M95,-121C89,-121 83,-115 83,-109"/>
<path fill="#ffffff" stroke="#ffffff" stroke-width="1.5" d="M83,-97C83,-91 89,-85 95,-85"/>
<polyline fill="none" stroke="#2e3436" stroke-width="1.5" points="95,-85 125,-85 "/>
<path fill="none" stroke="#2e3436" stroke-width="1.5" d="M125,-85C131,-85 137,-91 137,-97"/>
<polyline fill="none" stroke="#2e3436" stroke-width="1.5" points="137,-97 137,-109 "/>
<path fill="none" stroke="#2e3436" stroke-width="1.5" d="M137,-109C137,-115 131,-121 125,-121"/>
<polyline fill="none" stroke="#2e3436" stroke-width="1.5" points="125,-121 95,-121 "/>
<path fill="none" stroke="#2e3436" stroke-width="1.5" d="M95,-121C89,-121 83,-115 83,-109"/>
<polyline fill="none" stroke="#2e3436" stroke-width="1.5" points="83,-109 83,-97 "/>
<path fill="none" stroke="#2e3436" stroke-width="1.5" d="M83,-97C83,-91 89,-85 95,-85"/>
<text text-anchor="middle" x="110" y="-109.8" font-family="FreeSans" font-size="8.00" fill="#1c2021">Node[105]</text>
<polyline fill="none" stroke="#2e3436" stroke-width="1.5" points="83,-103 137,-103 "/>
<text text-anchor="middle" x="110" y="-91.8" font-family="FreeSans" font-size="8.00" fill="#1c2021"> </text>
</g>
<!-- N106 -->
<g id="node6" class="node"><title>N106</title>
<polygon fill="#ffffff" stroke="#ffffff" stroke-width="1.5" points="95,-1 125,-1 137,-13 137,-25 125,-37 95,-37 83,-25 83,-13 95,-1"/>
<path fill="#ffffff" stroke="#ffffff" stroke-width="1.5" d="M125,-1C131,-1 137,-7 137,-13"/>
<path fill="#ffffff" stroke="#ffffff" stroke-width="1.5" d="M137,-25C137,-31 131,-37 125,-37"/>
<path fill="#ffffff" stroke="#ffffff" stroke-width="1.5" d="M95,-37C89,-37 83,-31 83,-25"/>
<path fill="#ffffff" stroke="#ffffff" stroke-width="1.5" d="M83,-13C83,-7 89,-1 95,-1"/>
<polyline fill="none" stroke="#2e3436" stroke-width="1.5" points="95,-1 125,-1 "/>
<path fill="none" stroke="#2e3436" stroke-width="1.5" d="M125,-1C131,-1 137,-7 137,-13"/>
<polyline fill="none" stroke="#2e3436" stroke-width="1.5" points="137,-13 137,-25 "/>
<path fill="none" stroke="#2e3436" stroke-width="1.5" d="M137,-25C137,-31 131,-37 125,-37"/>
<polyline fill="none" stroke="#2e3436" stroke-width="1.5" points="125,-37 95,-37 "/>
<path fill="none" stroke="#2e3436" stroke-width="1.5" d="M95,-37C89,-37 83,-31 83,-25"/>
<polyline fill="none" stroke="#2e3436" stroke-width="1.5" points="83,-25 83,-13 "/>
<path fill="none" stroke="#2e3436" stroke-width="1.5" d="M83,-13C83,-7 89,-1 95,-1"/>
<text text-anchor="middle" x="110" y="-25.8" font-family="FreeSans" font-size="8.00" fill="#1c2021">Node[106]</text>
<polyline fill="none" stroke="#2e3436" stroke-width="1.5" points="83,-19 137,-19 "/>
<text text-anchor="middle" x="110" y="-7.8" font-family="FreeSans" font-size="8.00" fill="#1c2021"> </text>
</g>
<!-- N105&#45;&gt;N106 -->
<g id="edge4" class="edge"><title>N105&#45;&gt;N106</title>
<path fill="none" stroke="#4e9a06" stroke-width="2" d="M110,-84.7733C110,-73.1053 110,-57.7874 110,-44.8699"/>
<polygon fill="#4e9a06" stroke="#4e9a06" points="110,-37.1912 113.375,-44.6911 110.5,-40.9412 110.5,-44.6912 110,-44.6912 109.5,-44.6912 109.5,-40.9412 106.625,-44.6912 110,-37.1912 110,-37.1912"/>
<text text-anchor="middle" x="116.5" y="-58.8" font-family="FreeSans" font-size="8.00" fill="#4e9a06">bar</text>
</g>
</g>
</svg>
