<?xml version="1.0" encoding="UTF-8" standalone="no"?>
<!DOCTYPE svg PUBLIC "-//W3C//DTD SVG 1.1//EN"
 "http://www.w3.org/Graphics/SVG/1.1/DTD/svg11.dtd">
<!-- Generated by graphviz version 2.26.3 (20100126.1600)
 -->
<!-- Title: g Pages: 1 -->
<svg width="450pt" height="648pt"
 viewBox="0.00 0.00 450.10 648.00" xmlns="http://www.w3.org/2000/svg" xmlns:xlink="http://www.w3.org/1999/xlink">
<g id="graph1" class="graph" transform="scale(0.920455 0.920455) rotate(0) translate(4 700)">
<title>g</title>
<polygon fill="white" stroke="white" points="-4,5 -4,-700 486,-700 486,5 -4,5"/>
<!-- N8 -->
<g id="node1" class="node"><title>N8</title>
<polygon fill="#ffffff" stroke="#ffffff" stroke-width="1.5" points="12,-95 42,-95 54,-107 54,-119 42,-131 12,-131 0,-119 0,-107 12,-95"/>
<path fill="#ffffff" stroke="#ffffff" stroke-width="1.5" d="M42,-95C48,-95 54,-101 54,-107"/>
<path fill="#ffffff" stroke="#ffffff" stroke-width="1.5" d="M54,-119C54,-125 48,-131 42,-131"/>
<path fill="#ffffff" stroke="#ffffff" stroke-width="1.5" d="M12,-131C6,-131 0,-125 0,-119"/>
<path fill="#ffffff" stroke="#ffffff" stroke-width="1.5" d="M0,-107C0,-101 6,-95 12,-95"/>
<polyline fill="none" stroke="#2e3436" stroke-width="1.5" points="12,-95 42,-95 "/>
<path fill="none" stroke="#2e3436" stroke-width="1.5" d="M42,-95C48,-95 54,-101 54,-107"/>
<polyline fill="none" stroke="#2e3436" stroke-width="1.5" points="54,-107 54,-119 "/>
<path fill="none" stroke="#2e3436" stroke-width="1.5" d="M54,-119C54,-125 48,-131 42,-131"/>
<polyline fill="none" stroke="#2e3436" stroke-width="1.5" points="42,-131 12,-131 "/>
<path fill="none" stroke="#2e3436" stroke-width="1.5" d="M12,-131C6,-131 0,-125 0,-119"/>
<polyline fill="none" stroke="#2e3436" stroke-width="1.5" points="0,-119 0,-107 "/>
<path fill="none" stroke="#2e3436" stroke-width="1.5" d="M0,-107C0,-101 6,-95 12,-95"/>
<text text-anchor="middle" x="27" y="-119.8" font-family="FreeSans" font-size="8.00" fill="#1c2021">Node[8]</text>
<polyline fill="none" stroke="#2e3436" stroke-width="1.5" points="0,-113 54,-113 "/>
<text text-anchor="start" x="8" y="-101.8" font-family="FreeSans" font-size="8.00" fill="#1c2021">name = &#39;f&#39;</text>
</g>
<!-- N9 -->
<g id="node2" class="node"><title>N9</title>
<polygon fill="#ffffff" stroke="#ffffff" stroke-width="1.5" points="138,-283 168,-283 180,-295 180,-307 168,-319 138,-319 126,-307 126,-295 138,-283"/>
<path fill="#ffffff" stroke="#ffffff" stroke-width="1.5" d="M168,-283C174,-283 180,-289 180,-295"/>
<path fill="#ffffff" stroke="#ffffff" stroke-width="1.5" d="M180,-307C180,-313 174,-319 168,-319"/>
<path fill="#ffffff" stroke="#ffffff" stroke-width="1.5" d="M138,-319C132,-319 126,-313 126,-307"/>
<path fill="#ffffff" stroke="#ffffff" stroke-width="1.5" d="M126,-295C126,-289 132,-283 138,-283"/>
<polyline fill="none" stroke="#2e3436" stroke-width="1.5" points="138,-283 168,-283 "/>
<path fill="none" stroke="#2e3436" stroke-width="1.5" d="M168,-283C174,-283 180,-289 180,-295"/>
<polyline fill="none" stroke="#2e3436" stroke-width="1.5" points="180,-295 180,-307 "/>
<path fill="none" stroke="#2e3436" stroke-width="1.5" d="M180,-307C180,-313 174,-319 168,-319"/>
<polyline fill="none" stroke="#2e3436" stroke-width="1.5" points="168,-319 138,-319 "/>
<path fill="none" stroke="#2e3436" stroke-width="1.5" d="M138,-319C132,-319 126,-313 126,-307"/>
<polyline fill="none" stroke="#2e3436" stroke-width="1.5" points="126,-307 126,-295 "/>
<path fill="none" stroke="#2e3436" stroke-width="1.5" d="M126,-295C126,-289 132,-283 138,-283"/>
<text text-anchor="middle" x="153" y="-307.8" font-family="FreeSans" font-size="8.00" fill="#1c2021">Node[9]</text>
<polyline fill="none" stroke="#2e3436" stroke-width="1.5" points="126,-301 180,-301 "/>
<text text-anchor="start" x="134" y="-289.8" font-family="FreeSans" font-size="8.00" fill="#1c2021">name = &#39;d&#39;</text>
</g>
<!-- N16 -->
<g id="node4" class="node"><title>N16</title>
<polygon fill="#ffffff" stroke="#ffffff" stroke-width="1.5" points="250,-95 280,-95 292,-107 292,-119 280,-131 250,-131 238,-119 238,-107 250,-95"/>
<path fill="#ffffff" stroke="#ffffff" stroke-width="1.5" d="M280,-95C286,-95 292,-101 292,-107"/>
<path fill="#ffffff" stroke="#ffffff" stroke-width="1.5" d="M292,-119C292,-125 286,-131 280,-131"/>
<path fill="#ffffff" stroke="#ffffff" stroke-width="1.5" d="M250,-131C244,-131 238,-125 238,-119"/>
<path fill="#ffffff" stroke="#ffffff" stroke-width="1.5" d="M238,-107C238,-101 244,-95 250,-95"/>
<polyline fill="none" stroke="#2e3436" stroke-width="1.5" points="250,-95 280,-95 "/>
<path fill="none" stroke="#2e3436" stroke-width="1.5" d="M280,-95C286,-95 292,-101 292,-107"/>
<polyline fill="none" stroke="#2e3436" stroke-width="1.5" points="292,-107 292,-119 "/>
<path fill="none" stroke="#2e3436" stroke-width="1.5" d="M292,-119C292,-125 286,-131 280,-131"/>
<polyline fill="none" stroke="#2e3436" stroke-width="1.5" points="280,-131 250,-131 "/>
<path fill="none" stroke="#2e3436" stroke-width="1.5" d="M250,-131C244,-131 238,-125 238,-119"/>
<polyline fill="none" stroke="#2e3436" stroke-width="1.5" points="238,-119 238,-107 "/>
<path fill="none" stroke="#2e3436" stroke-width="1.5" d="M238,-107C238,-101 244,-95 250,-95"/>
<text text-anchor="middle" x="265" y="-119.8" font-family="FreeSans" font-size="8.00" fill="#1c2021">Node[16]</text>
<polyline fill="none" stroke="#2e3436" stroke-width="1.5" points="238,-113 292,-113 "/>
<text text-anchor="start" x="246" y="-101.8" font-family="FreeSans" font-size="8.00" fill="#1c2021">name = &#39;x&#39;</text>
</g>
<!-- N9&#45;&gt;N16 -->
<g id="edge2" class="edge"><title>N9&#45;&gt;N16</title>
<path fill="none" stroke="#2e3436" stroke-width="2" d="M153.448,-282.762C154.693,-259.54 159.177,-218.743 175,-188 187.43,-163.849 211.384,-144.485 231.456,-131.486"/>
<polygon fill="#2e3436" stroke="#2e3436" points="237.816,-127.492 233.26,-134.339 234.907,-129.91 231.731,-131.904 231.465,-131.481 231.199,-131.057 234.375,-129.063 229.67,-128.622 237.816,-127.492 237.816,-127.492"/>
<text text-anchor="middle" x="193" y="-209.8" font-family="FreeSans" font-size="8.00" fill="#2e3436">to</text>
<text text-anchor="start" x="175" y="-199.8" font-family="FreeSans" font-size="8.00" fill="#2e3436">cost = 3.0</text>
</g>
<!-- N10 -->
<g id="node6" class="node"><title>N10</title>
<polygon fill="#ffffff" stroke="#ffffff" stroke-width="1.5" points="53,-189 83,-189 95,-201 95,-213 83,-225 53,-225 41,-213 41,-201 53,-189"/>
<path fill="#ffffff" stroke="#ffffff" stroke-width="1.5" d="M83,-189C89,-189 95,-195 95,-201"/>
<path fill="#ffffff" stroke="#ffffff" stroke-width="1.5" d="M95,-213C95,-219 89,-225 83,-225"/>
<path fill="#ffffff" stroke="#ffffff" stroke-width="1.5" d="M53,-225C47,-225 41,-219 41,-213"/>
<path fill="#ffffff" stroke="#ffffff" stroke-width="1.5" d="M41,-201C41,-195 47,-189 53,-189"/>
<polyline fill="none" stroke="#2e3436" stroke-width="1.5" points="53,-189 83,-189 "/>
<path fill="none" stroke="#2e3436" stroke-width="1.5" d="M83,-189C89,-189 95,-195 95,-201"/>
<polyline fill="none" stroke="#2e3436" stroke-width="1.5" points="95,-201 95,-213 "/>
<path fill="none" stroke="#2e3436" stroke-width="1.5" d="M95,-213C95,-219 89,-225 83,-225"/>
<polyline fill="none" stroke="#2e3436" stroke-width="1.5" points="83,-225 53,-225 "/>
<path fill="none" stroke="#2e3436" stroke-width="1.5" d="M53,-225C47,-225 41,-219 41,-213"/>
<polyline fill="none" stroke="#2e3436" stroke-width="1.5" points="41,-213 41,-201 "/>
<path fill="none" stroke="#2e3436" stroke-width="1.5" d="M41,-201C41,-195 47,-189 53,-189"/>
<text text-anchor="middle" x="68" y="-213.8" font-family="FreeSans" font-size="8.00" fill="#1c2021">Node[10]</text>
<polyline fill="none" stroke="#2e3436" stroke-width="1.5" points="41,-207 95,-207 "/>
<text text-anchor="start" x="49" y="-195.8" font-family="FreeSans" font-size="8.00" fill="#1c2021">name = &#39;e&#39;</text>
</g>
<!-- N9&#45;&gt;N10 -->
<g id="edge4" class="edge"><title>N9&#45;&gt;N10</title>
<path fill="none" stroke="#2e3436" stroke-width="2" d="M125.813,-287.9C115.187,-281.772 103.531,-273.675 95,-264 86.9386,-254.858 80.783,-242.889 76.3998,-232.281"/>
<polygon fill="#2e3436" stroke="#2e3436" points="73.6469,-225.205 79.5117,-230.971 75.4726,-228.519 76.8324,-232.014 76.3664,-232.195 75.9004,-232.376 74.5407,-228.881 73.2211,-233.419 73.6469,-225.205 73.6469,-225.205"/>
<text text-anchor="middle" x="113" y="-256.8" font-family="FreeSans" font-size="8.00" fill="#2e3436">to</text>
<text text-anchor="start" x="95" y="-246.8" font-family="FreeSans" font-size="8.00" fill="#2e3436">cost = 1.0</text>
</g>
<!-- N15 -->
<g id="node21" class="node"><title>N15</title>
<polygon fill="#ffffff" stroke="#ffffff" stroke-width="1.5" points="250,-1 280,-1 292,-13 292,-25 280,-37 250,-37 238,-25 238,-13 250,-1"/>
<path fill="#ffffff" stroke="#ffffff" stroke-width="1.5" d="M280,-1C286,-1 292,-7 292,-13"/>
<path fill="#ffffff" stroke="#ffffff" stroke-width="1.5" d="M292,-25C292,-31 286,-37 280,-37"/>
<path fill="#ffffff" stroke="#ffffff" stroke-width="1.5" d="M250,-37C244,-37 238,-31 238,-25"/>
<path fill="#ffffff" stroke="#ffffff" stroke-width="1.5" d="M238,-13C238,-7 244,-1 250,-1"/>
<polyline fill="none" stroke="#2e3436" stroke-width="1.5" points="250,-1 280,-1 "/>
<path fill="none" stroke="#2e3436" stroke-width="1.5" d="M280,-1C286,-1 292,-7 292,-13"/>
<polyline fill="none" stroke="#2e3436" stroke-width="1.5" points="292,-13 292,-25 "/>
<path fill="none" stroke="#2e3436" stroke-width="1.5" d="M292,-25C292,-31 286,-37 280,-37"/>
<polyline fill="none" stroke="#2e3436" stroke-width="1.5" points="280,-37 250,-37 "/>
<path fill="none" stroke="#2e3436" stroke-width="1.5" d="M250,-37C244,-37 238,-31 238,-25"/>
<polyline fill="none" stroke="#2e3436" stroke-width="1.5" points="238,-25 238,-13 "/>
<path fill="none" stroke="#2e3436" stroke-width="1.5" d="M238,-13C238,-7 244,-1 250,-1"/>
<text text-anchor="middle" x="265" y="-25.8" font-family="FreeSans" font-size="8.00" fill="#1c2021">Node[15]</text>
<polyline fill="none" stroke="#2e3436" stroke-width="1.5" points="238,-19 292,-19 "/>
<text text-anchor="start" x="246" y="-7.8" font-family="FreeSans" font-size="8.00" fill="#1c2021">name = &#39;y&#39;</text>
</g>
<!-- N16&#45;&gt;N15 -->
<g id="edge26" class="edge"><title>N16&#45;&gt;N15</title>
<path fill="none" stroke="#2e3436" stroke-width="2" d="M265,-94.8759C265,-80.7014 265,-60.806 265,-44.944"/>
<polygon fill="#2e3436" stroke="#2e3436" points="265,-37.0685 268.375,-44.5685 265.5,-40.8185 265.5,-44.5685 265,-44.5685 264.5,-44.5685 264.5,-40.8185 261.625,-44.5685 265,-37.0685 265,-37.0685"/>
<text text-anchor="middle" x="283" y="-68.8" font-family="FreeSans" font-size="8.00" fill="#2e3436">to</text>
<text text-anchor="start" x="265" y="-58.8" font-family="FreeSans" font-size="8.00" fill="#2e3436">cost = 2.0</text>
</g>
<!-- N10&#45;&gt;N8 -->
<g id="edge8" class="edge"><title>N10&#45;&gt;N8</title>
<path fill="none" stroke="#2e3436" stroke-width="2" d="M40.9701,-189.906C34.5434,-184.4 28.5318,-177.698 25,-170 20.5581,-160.318 20.2026,-148.708 21.2835,-138.499"/>
<polygon fill="#2e3436" stroke="#2e3436" points="22.3461,-131.021 24.6323,-138.922 22.3135,-134.804 21.7859,-138.517 21.2908,-138.447 20.7958,-138.376 21.3234,-134.664 17.9494,-137.972 22.3461,-131.021 22.3461,-131.021"/>
<text text-anchor="middle" x="43" y="-162.8" font-family="FreeSans" font-size="8.00" fill="#2e3436">to</text>
<text text-anchor="start" x="25" y="-152.8" font-family="FreeSans" font-size="8.00" fill="#2e3436">cost = 2.0</text>
</g>
<!-- N10&#45;&gt;N16 -->
<g id="edge6" class="edge"><title>N10&#45;&gt;N16</title>
<path fill="none" stroke="#2e3436" stroke-width="2" d="M72.0514,-188.911C75.8499,-176.152 82.8257,-159.672 95,-150 115.581,-133.649 186.757,-122.429 230.218,-116.92"/>
<polygon fill="#2e3436" stroke="#2e3436" points="237.73,-115.99 230.701,-120.262 234.07,-116.947 230.348,-117.408 230.287,-116.912 230.225,-116.416 233.947,-115.955 229.872,-113.563 237.73,-115.99 237.73,-115.99"/>
<text text-anchor="middle" x="113" y="-162.8" font-family="FreeSans" font-size="8.00" fill="#2e3436">to</text>
<text text-anchor="start" x="95" y="-152.8" font-family="FreeSans" font-size="8.00" fill="#2e3436">cost = 1.0</text>
</g>
<!-- N11 -->
<g id="node9" class="node"><title>N11</title>
<polygon fill="#ffffff" stroke="#ffffff" stroke-width="1.5" points="350,-471 380,-471 392,-483 392,-495 380,-507 350,-507 338,-495 338,-483 350,-471"/>
<path fill="#ffffff" stroke="#ffffff" stroke-width="1.5" d="M380,-471C386,-471 392,-477 392,-483"/>
<path fill="#ffffff" stroke="#ffffff" stroke-width="1.5" d="M392,-495C392,-501 386,-507 380,-507"/>
<path fill="#ffffff" stroke="#ffffff" stroke-width="1.5" d="M350,-507C344,-507 338,-501 338,-495"/>
<path fill="#ffffff" stroke="#ffffff" stroke-width="1.5" d="M338,-483C338,-477 344,-471 350,-471"/>
<polyline fill="none" stroke="#2e3436" stroke-width="1.5" points="350,-471 380,-471 "/>
<path fill="none" stroke="#2e3436" stroke-width="1.5" d="M380,-471C386,-471 392,-477 392,-483"/>
<polyline fill="none" stroke="#2e3436" stroke-width="1.5" points="392,-483 392,-495 "/>
<path fill="none" stroke="#2e3436" stroke-width="1.5" d="M392,-495C392,-501 386,-507 380,-507"/>
<polyline fill="none" stroke="#2e3436" stroke-width="1.5" points="380,-507 350,-507 "/>
<path fill="none" stroke="#2e3436" stroke-width="1.5" d="M350,-507C344,-507 338,-501 338,-495"/>
<polyline fill="none" stroke="#2e3436" stroke-width="1.5" points="338,-495 338,-483 "/>
<path fill="none" stroke="#2e3436" stroke-width="1.5" d="M338,-483C338,-477 344,-471 350,-471"/>
<text text-anchor="middle" x="365" y="-495.8" font-family="FreeSans" font-size="8.00" fill="#1c2021">Node[11]</text>
<polyline fill="none" stroke="#2e3436" stroke-width="1.5" points="338,-489 392,-489 "/>
<text text-anchor="start" x="346" y="-477.8" font-family="FreeSans" font-size="8.00" fill="#1c2021">name = &#39;b&#39;</text>
</g>
<!-- N11&#45;&gt;N16 -->
<g id="edge10" class="edge"><title>N11&#45;&gt;N16</title>
<path fill="none" stroke="#2e3436" stroke-width="2" d="M365,-470.98C365,-452.057 365,-421.438 365,-395 365,-395 365,-395 365,-207 365,-169.831 327.869,-143.057 298.859,-127.811"/>
<polygon fill="#2e3436" stroke="#2e3436" points="292.061,-124.367 300.277,-124.746 295.633,-125.616 298.978,-127.31 298.752,-127.756 298.526,-128.202 295.181,-126.508 297.226,-130.767 292.061,-124.367 292.061,-124.367"/>
<text text-anchor="middle" x="383" y="-303.8" font-family="FreeSans" font-size="8.00" fill="#2e3436">to</text>
<text text-anchor="start" x="365" y="-293.8" font-family="FreeSans" font-size="8.00" fill="#2e3436">cost = 7.0</text>
</g>
<!-- N12 -->
<g id="node12" class="node"><title>N12</title>
<polygon fill="#ffffff" stroke="#ffffff" stroke-width="1.5" points="248,-377 278,-377 290,-389 290,-401 278,-413 248,-413 236,-401 236,-389 248,-377"/>
<path fill="#ffffff" stroke="#ffffff" stroke-width="1.5" d="M278,-377C284,-377 290,-383 290,-389"/>
<path fill="#ffffff" stroke="#ffffff" stroke-width="1.5" d="M290,-401C290,-407 284,-413 278,-413"/>
<path fill="#ffffff" stroke="#ffffff" stroke-width="1.5" d="M248,-413C242,-413 236,-407 236,-401"/>
<path fill="#ffffff" stroke="#ffffff" stroke-width="1.5" d="M236,-389C236,-383 242,-377 248,-377"/>
<polyline fill="none" stroke="#2e3436" stroke-width="1.5" points="248,-377 278,-377 "/>
<path fill="none" stroke="#2e3436" stroke-width="1.5" d="M278,-377C284,-377 290,-383 290,-389"/>
<polyline fill="none" stroke="#2e3436" stroke-width="1.5" points="290,-389 290,-401 "/>
<path fill="none" stroke="#2e3436" stroke-width="1.5" d="M290,-401C290,-407 284,-413 278,-413"/>
<polyline fill="none" stroke="#2e3436" stroke-width="1.5" points="278,-413 248,-413 "/>
<path fill="none" stroke="#2e3436" stroke-width="1.5" d="M248,-413C242,-413 236,-407 236,-401"/>
<polyline fill="none" stroke="#2e3436" stroke-width="1.5" points="236,-401 236,-389 "/>
<path fill="none" stroke="#2e3436" stroke-width="1.5" d="M236,-389C236,-383 242,-377 248,-377"/>
<text text-anchor="middle" x="263" y="-401.8" font-family="FreeSans" font-size="8.00" fill="#1c2021">Node[12]</text>
<polyline fill="none" stroke="#2e3436" stroke-width="1.5" points="236,-395 290,-395 "/>
<text text-anchor="start" x="244" y="-383.8" font-family="FreeSans" font-size="8.00" fill="#1c2021">name = &#39;c&#39;</text>
</g>
<!-- N11&#45;&gt;N12 -->
<g id="edge12" class="edge"><title>N11&#45;&gt;N12</title>
<path fill="none" stroke="#2e3436" stroke-width="2" d="M337.929,-474.4C327.676,-468.207 316.256,-460.462 307,-452 296.532,-442.43 286.701,-430.147 278.998,-419.436"/>
<polygon fill="#2e3436" stroke="#2e3436" points="274.49,-413.008 281.559,-417.211 277.052,-415.791 279.205,-418.861 278.796,-419.148 278.387,-419.435 276.233,-416.365 276.033,-421.086 274.49,-413.008 274.49,-413.008"/>
<text text-anchor="middle" x="325" y="-444.8" font-family="FreeSans" font-size="8.00" fill="#2e3436">to</text>
<text text-anchor="start" x="307" y="-434.8" font-family="FreeSans" font-size="8.00" fill="#2e3436">cost = 1.0</text>
</g>
<!-- N12&#45;&gt;N9 -->
<g id="edge18" class="edge"><title>N12&#45;&gt;N9</title>
<path fill="none" stroke="#2e3436" stroke-width="2" d="M235.73,-390.744C214.966,-386.12 187.125,-376.718 170,-358 162.203,-349.478 157.974,-337.522 155.684,-326.759"/>
<polygon fill="#2e3436" stroke="#2e3436" points="154.335,-319.199 158.975,-325.99 155.486,-322.803 156.145,-326.495 155.652,-326.582 155.16,-326.67 154.502,-322.979 152.33,-327.175 154.335,-319.199 154.335,-319.199"/>
<text text-anchor="middle" x="188" y="-350.8" font-family="FreeSans" font-size="8.00" fill="#2e3436">to</text>
<text text-anchor="start" x="170" y="-340.8" font-family="FreeSans" font-size="8.00" fill="#2e3436">cost = 1.0</text>
</g>
<!-- N12&#45;&gt;N16 -->
<g id="edge14" class="edge"><title>N12&#45;&gt;N16</title>
<path fill="none" stroke="#2e3436" stroke-width="2" d="M253.737,-376.628C240.607,-348.423 218.918,-292.61 226,-244 231.48,-206.385 245.372,-164.552 255.003,-138.508"/>
<polygon fill="#2e3436" stroke="#2e3436" points="257.719,-131.276 258.242,-139.483 256.869,-134.962 255.55,-138.473 255.082,-138.297 254.614,-138.121 255.932,-134.611 251.923,-137.111 257.719,-131.276 257.719,-131.276"/>
<text text-anchor="middle" x="244" y="-256.8" font-family="FreeSans" font-size="8.00" fill="#2e3436">to</text>
<text text-anchor="start" x="226" y="-246.8" font-family="FreeSans" font-size="8.00" fill="#2e3436">cost = 5.0</text>
</g>
<!-- N12&#45;&gt;N16 -->
<g id="edge16" class="edge"><title>N12&#45;&gt;N16</title>
<path fill="none" stroke="#2e3436" stroke-width="2" d="M264.076,-376.938C264.408,-370.916 264.751,-364.171 265,-358 268.367,-274.483 268.889,-253.578 270,-170 270.118,-161.112 270.597,-158.869 270,-150 269.752,-146.314 269.367,-142.434 268.917,-138.631"/>
<polygon fill="#2e3436" stroke="#2e3436" points="267.929,-131.017 272.241,-138.02 268.907,-134.672 269.39,-138.39 268.894,-138.455 268.399,-138.519 267.916,-134.8 265.548,-138.889 267.929,-131.017 267.929,-131.017"/>
<text text-anchor="middle" x="287" y="-256.8" font-family="FreeSans" font-size="8.00" fill="#2e3436">to</text>
<text text-anchor="start" x="269" y="-246.8" font-family="FreeSans" font-size="8.00" fill="#2e3436">cost = 4.0</text>
</g>
<!-- N13 -->
<g id="node16" class="node"><title>N13</title>
<polygon fill="#ffffff" stroke="#ffffff" stroke-width="1.5" points="396.5,-659 437.5,-659 449.5,-671 449.5,-683 437.5,-695 396.5,-695 384.5,-683 384.5,-671 396.5,-659"/>
<path fill="#ffffff" stroke="#ffffff" stroke-width="1.5" d="M437.5,-659C443.5,-659 449.5,-665 449.5,-671"/>
<path fill="#ffffff" stroke="#ffffff" stroke-width="1.5" d="M449.5,-683C449.5,-689 443.5,-695 437.5,-695"/>
<path fill="#ffffff" stroke="#ffffff" stroke-width="1.5" d="M396.5,-695C390.5,-695 384.5,-689 384.5,-683"/>
<path fill="#ffffff" stroke="#ffffff" stroke-width="1.5" d="M384.5,-671C384.5,-665 390.5,-659 396.5,-659"/>
<polyline fill="none" stroke="#2e3436" stroke-width="1.5" points="396.5,-659 437.5,-659 "/>
<path fill="none" stroke="#2e3436" stroke-width="1.5" d="M437.5,-659C443.5,-659 449.5,-665 449.5,-671"/>
<polyline fill="none" stroke="#2e3436" stroke-width="1.5" points="449.5,-671 449.5,-683 "/>
<path fill="none" stroke="#2e3436" stroke-width="1.5" d="M449.5,-683C449.5,-689 443.5,-695 437.5,-695"/>
<polyline fill="none" stroke="#2e3436" stroke-width="1.5" points="437.5,-695 396.5,-695 "/>
<path fill="none" stroke="#2e3436" stroke-width="1.5" d="M396.5,-695C390.5,-695 384.5,-689 384.5,-683"/>
<polyline fill="none" stroke="#2e3436" stroke-width="1.5" points="384.5,-683 384.5,-671 "/>
<path fill="none" stroke="#2e3436" stroke-width="1.5" d="M384.5,-671C384.5,-665 390.5,-659 396.5,-659"/>
<text text-anchor="middle" x="417" y="-683.8" font-family="FreeSans" font-size="8.00" fill="#1c2021">Node[13]</text>
<polyline fill="none" stroke="#2e3436" stroke-width="1.5" points="384.5,-677 449.5,-677 "/>
<text text-anchor="start" x="392.5" y="-665.8" font-family="FreeSans" font-size="8.00" fill="#1c2021">name = &#39;start&#39;</text>
</g>
<!-- N14 -->
<g id="node18" class="node"><title>N14</title>
<polygon fill="#ffffff" stroke="#ffffff" stroke-width="1.5" points="402,-565 432,-565 444,-577 444,-589 432,-601 402,-601 390,-589 390,-577 402,-565"/>
<path fill="#ffffff" stroke="#ffffff" stroke-width="1.5" d="M432,-565C438,-565 444,-571 444,-577"/>
<path fill="#ffffff" stroke="#ffffff" stroke-width="1.5" d="M444,-589C444,-595 438,-601 432,-601"/>
<path fill="#ffffff" stroke="#ffffff" stroke-width="1.5" d="M402,-601C396,-601 390,-595 390,-589"/>
<path fill="#ffffff" stroke="#ffffff" stroke-width="1.5" d="M390,-577C390,-571 396,-565 402,-565"/>
<polyline fill="none" stroke="#2e3436" stroke-width="1.5" points="402,-565 432,-565 "/>
<path fill="none" stroke="#2e3436" stroke-width="1.5" d="M432,-565C438,-565 444,-571 444,-577"/>
<polyline fill="none" stroke="#2e3436" stroke-width="1.5" points="444,-577 444,-589 "/>
<path fill="none" stroke="#2e3436" stroke-width="1.5" d="M444,-589C444,-595 438,-601 432,-601"/>
<polyline fill="none" stroke="#2e3436" stroke-width="1.5" points="432,-601 402,-601 "/>
<path fill="none" stroke="#2e3436" stroke-width="1.5" d="M402,-601C396,-601 390,-595 390,-589"/>
<polyline fill="none" stroke="#2e3436" stroke-width="1.5" points="390,-589 390,-577 "/>
<path fill="none" stroke="#2e3436" stroke-width="1.5" d="M390,-577C390,-571 396,-565 402,-565"/>
<text text-anchor="middle" x="417" y="-589.8" font-family="FreeSans" font-size="8.00" fill="#1c2021">Node[14]</text>
<polyline fill="none" stroke="#2e3436" stroke-width="1.5" points="390,-583 444,-583 "/>
<text text-anchor="start" x="398" y="-571.8" font-family="FreeSans" font-size="8.00" fill="#1c2021">name = &#39;a&#39;</text>
</g>
<!-- N13&#45;&gt;N14 -->
<g id="edge20" class="edge"><title>N13&#45;&gt;N14</title>
<path fill="none" stroke="#2e3436" stroke-width="2" d="M417,-658.876C417,-644.701 417,-624.806 417,-608.944"/>
<polygon fill="#2e3436" stroke="#2e3436" points="417,-601.069 420.375,-608.568 417.5,-604.818 417.5,-608.568 417,-608.569 416.5,-608.569 416.5,-604.819 413.625,-608.569 417,-601.069 417,-601.069"/>
<text text-anchor="middle" x="435" y="-632.8" font-family="FreeSans" font-size="8.00" fill="#2e3436">to</text>
<text text-anchor="start" x="417" y="-622.8" font-family="FreeSans" font-size="8.00" fill="#2e3436">cost = 1.0</text>
</g>
<!-- N14&#45;&gt;N16 -->
<g id="edge22" class="edge"><title>N14&#45;&gt;N16</title>
<path fill="none" stroke="#2e3436" stroke-width="2" d="M425.859,-564.752C434.062,-546.152 445,-516.245 445,-489 445,-489 445,-489 445,-207 445,-142.281 352.44,-122.044 300.068,-115.774"/>
<polygon fill="#2e3436" stroke="#2e3436" points="292.338,-114.914 300.165,-112.389 296.12,-114.832 299.847,-115.246 299.792,-115.743 299.737,-116.24 296.01,-115.826 299.419,-119.098 292.338,-114.914 292.338,-114.914"/>
<text text-anchor="middle" x="463" y="-350.8" font-family="FreeSans" font-size="8.00" fill="#2e3436">to</text>
<text text-anchor="start" x="445" y="-340.8" font-family="FreeSans" font-size="8.00" fill="#2e3436">cost = 9.0</text>
</g>
<!-- N14&#45;&gt;N11 -->
<g id="edge24" class="edge"><title>N14&#45;&gt;N11</title>
<path fill="none" stroke="#2e3436" stroke-width="2" d="M400.221,-564.629C395.544,-558.926 390.729,-552.441 387,-546 381.269,-536.102 376.463,-524.429 372.819,-514.233"/>
<polygon fill="#2e3436" stroke="#2e3436" points="370.375,-507.117 376.003,-513.113 372.066,-510.501 373.284,-514.047 372.811,-514.21 372.338,-514.372 371.12,-510.826 369.619,-515.306 370.375,-507.117 370.375,-507.117"/>
<text text-anchor="middle" x="405" y="-538.8" font-family="FreeSans" font-size="8.00" fill="#2e3436">to</text>
<text text-anchor="start" x="387" y="-528.8" font-family="FreeSans" font-size="8.00" fill="#2e3436">cost = 1.0</text>
</g>
</g>
</svg>
