<?xml version="1.0" encoding="UTF-8" standalone="no"?>
<!DOCTYPE svg PUBLIC "-//W3C//DTD SVG 1.1//EN"
 "http://www.w3.org/Graphics/SVG/1.1/DTD/svg11.dtd">
<!-- Generated by graphviz version 2.26.3 (20100126.1600)
 -->
<!-- Title: g Pages: 1 -->
<svg width="68pt" height="56pt"
 viewBox="0.00 0.00 68.00 56.00" xmlns="http://www.w3.org/2000/svg" xmlns:xlink="http://www.w3.org/1999/xlink">
<g id="graph1" class="graph" transform="scale(1 1) rotate(0) translate(4 52)">
<title>g</title>
<polygon fill="white" stroke="white" points="-4,5 -4,-52 65,-52 65,5 -4,5"/>
<!-- N44 -->
<g id="node1" class="node"><title>N44</title>
<polygon fill="#ffffff" stroke="#ffffff" stroke-width="1.5" points="11.5,-1 48.5,-1 60.5,-13 60.5,-35 48.5,-47 11.5,-47 -0.5,-35 -0.5,-13 11.5,-1"/>
<path fill="#ffffff" stroke="#ffffff" stroke-width="1.5" d="M48.5,-1C54.5,-1 60.5,-7 60.5,-13"/>
<path fill="#ffffff" stroke="#ffffff" stroke-width="1.5" d="M60.5,-35C60.5,-41 54.5,-47 48.5,-47"/>
<path fill="#ffffff" stroke="#ffffff" stroke-width="1.5" d="M11.5,-47C5.5,-47 -0.5,-41 -0.5,-35"/>
<path fill="#ffffff" stroke="#ffffff" stroke-width="1.5" d="M-0.5,-13C-0.5,-7 5.5,-1 11.5,-1"/>
<polyline fill="none" stroke="#2e3436" stroke-width="1.5" points="11.5,-1 48.5,-1 "/>
<path fill="none" stroke="#2e3436" stroke-width="1.5" d="M48.5,-1C54.5,-1 60.5,-7 60.5,-13"/>
<polyline fill="none" stroke="#2e3436" stroke-width="1.5" points="60.5,-13 60.5,-35 "/>
<path fill="none" stroke="#2e3436" stroke-width="1.5" d="M60.5,-35C60.5,-41 54.5,-47 48.5,-47"/>
<polyline fill="none" stroke="#2e3436" stroke-width="1.5" points="48.5,-47 11.5,-47 "/>
<path fill="none" stroke="#2e3436" stroke-width="1.5" d="M11.5,-47C5.5,-47 -0.5,-41 -0.5,-35"/>
<polyline fill="none" stroke="#2e3436" stroke-width="1.5" points="-0.5,-35 -0.5,-13 "/>
<path fill="none" stroke="#2e3436" stroke-width="1.5" d="M-0.5,-13C-0.5,-7 5.5,-1 11.5,-1"/>
<text text-anchor="middle" x="30" y="-35.8" font-family="FreeSans" font-size="8.00" fill="#1c2021">Node[44]</text>
<polyline fill="none" stroke="#2e3436" stroke-width="1.5" points="-0.5,-29 60.5,-29 "/>
<text text-anchor="start" x="7.5" y="-17.8" font-family="FreeSans" font-size="8.00" fill="#1c2021">foo2 = &#39;bar2&#39;</text>
<text text-anchor="start" x="7.5" y="-7.8" font-family="FreeSans" font-size="8.00" fill="#1c2021">foo = &#39;bar&#39;</text>
</g>
</g>
</svg>
