<?xml version="1.0" encoding="UTF-8" standalone="no"?>
<!DOCTYPE svg PUBLIC "-//W3C//DTD SVG 1.1//EN"
 "http://www.w3.org/Graphics/SVG/1.1/DTD/svg11.dtd">
<!-- Generated by graphviz version 2.26.3 (20100126.1600)
 -->
<!-- Title: g Pages: 1 -->
<svg width="94pt" height="150pt"
 viewBox="0.00 0.00 94.00 150.00" xmlns="http://www.w3.org/2000/svg" xmlns:xlink="http://www.w3.org/1999/xlink">
<g id="graph1" class="graph" transform="scale(1 1) rotate(0) translate(4 146)">
<title>g</title>
<polygon fill="white" stroke="white" points="-4,5 -4,-146 91,-146 91,5 -4,5"/>
<!-- N11 -->
<g id="node1" class="node"><title>N11</title>
<polygon fill="#ffffff" stroke="#ffffff" stroke-width="1.5" points="15,-1 59,-1 71,-13 71,-25 59,-37 15,-37 3,-25 3,-13 15,-1"/>
<path fill="#ffffff" stroke="#ffffff" stroke-width="1.5" d="M59,-1C65,-1 71,-7 71,-13"/>
<path fill="#ffffff" stroke="#ffffff" stroke-width="1.5" d="M71,-25C71,-31 65,-37 59,-37"/>
<path fill="#ffffff" stroke="#ffffff" stroke-width="1.5" d="M15,-37C9,-37 3,-31 3,-25"/>
<path fill="#ffffff" stroke="#ffffff" stroke-width="1.5" d="M3,-13C3,-7 9,-1 15,-1"/>
<polyline fill="none" stroke="#2e3436" stroke-width="1.5" points="15,-1 59,-1 "/>
<path fill="none" stroke="#2e3436" stroke-width="1.5" d="M59,-1C65,-1 71,-7 71,-13"/>
<polyline fill="none" stroke="#2e3436" stroke-width="1.5" points="71,-13 71,-25 "/>
<path fill="none" stroke="#2e3436" stroke-width="1.5" d="M71,-25C71,-31 65,-37 59,-37"/>
<polyline fill="none" stroke="#2e3436" stroke-width="1.5" points="59,-37 15,-37 "/>
<path fill="none" stroke="#2e3436" stroke-width="1.5" d="M15,-37C9,-37 3,-31 3,-25"/>
<polyline fill="none" stroke="#2e3436" stroke-width="1.5" points="3,-25 3,-13 "/>
<path fill="none" stroke="#2e3436" stroke-width="1.5" d="M3,-13C3,-7 9,-1 15,-1"/>
<text text-anchor="middle" x="37" y="-25.8" font-family="FreeSans" font-size="8.00" fill="#1c2021">Node[11]</text>
<polyline fill="none" stroke="#2e3436" stroke-width="1.5" points="3,-19 71,-19 "/>
<text text-anchor="start" x="11" y="-7.8" font-family="FreeSans" font-size="8.00" fill="#1c2021">name = &#39;Juliet&#39;</text>
</g>
<!-- N12 -->
<g id="node2" class="node"><title>N12</title>
<polygon fill="#ffffff" stroke="#ffffff" stroke-width="1.5" points="11.5,-105 62.5,-105 74.5,-117 74.5,-129 62.5,-141 11.5,-141 -0.5,-129 -0.5,-117 11.5,-105"/>
<path fill="#ffffff" stroke="#ffffff" stroke-width="1.5" d="M62.5,-105C68.5,-105 74.5,-111 74.5,-117"/>
<path fill="#ffffff" stroke="#ffffff" stroke-width="1.5" d="M74.5,-129C74.5,-135 68.5,-141 62.5,-141"/>
<path fill="#ffffff" stroke="#ffffff" stroke-width="1.5" d="M11.5,-141C5.5,-141 -0.5,-135 -0.5,-129"/>
<path fill="#ffffff" stroke="#ffffff" stroke-width="1.5" d="M-0.5,-117C-0.5,-111 5.5,-105 11.5,-105"/>
<polyline fill="none" stroke="#2e3436" stroke-width="1.5" points="11.5,-105 62.5,-105 "/>
<path fill="none" stroke="#2e3436" stroke-width="1.5" d="M62.5,-105C68.5,-105 74.5,-111 74.5,-117"/>
<polyline fill="none" stroke="#2e3436" stroke-width="1.5" points="74.5,-117 74.5,-129 "/>
<path fill="none" stroke="#2e3436" stroke-width="1.5" d="M74.5,-129C74.5,-135 68.5,-141 62.5,-141"/>
<polyline fill="none" stroke="#2e3436" stroke-width="1.5" points="62.5,-141 11.5,-141 "/>
<path fill="none" stroke="#2e3436" stroke-width="1.5" d="M11.5,-141C5.5,-141 -0.5,-135 -0.5,-129"/>
<polyline fill="none" stroke="#2e3436" stroke-width="1.5" points="-0.5,-129 -0.5,-117 "/>
<path fill="none" stroke="#2e3436" stroke-width="1.5" d="M-0.5,-117C-0.5,-111 5.5,-105 11.5,-105"/>
<text text-anchor="middle" x="37" y="-129.8" font-family="FreeSans" font-size="8.00" fill="#1c2021">Node[12]</text>
<polyline fill="none" stroke="#2e3436" stroke-width="1.5" points="-0.5,-123 74.5,-123 "/>
<text text-anchor="start" x="7.5" y="-111.8" font-family="FreeSans" font-size="8.00" fill="#1c2021">name = &#39;Romeo&#39;</text>
</g>
<!-- N12&#45;&gt;N11 -->
<g id="edge2" class="edge"><title>N12&#45;&gt;N11</title>
<path fill="none" stroke="#2e3436" stroke-width="2" d="M37,-104.885C37,-88.284 37,-63.5228 37,-44.8467"/>
<polygon fill="#2e3436" stroke="#2e3436" points="37,-37.2568 40.3751,-44.7567 37.5,-41.0068 37.5001,-44.7568 37.0001,-44.7568 36.5001,-44.7568 36.5,-41.0068 33.6251,-44.7568 37,-37.2568 37,-37.2568"/>
<text text-anchor="middle" x="61.5" y="-78.8" font-family="FreeSans" font-size="8.00" fill="#2e3436">LOVES</text>
<text text-anchor="start" x="37" y="-68.8" font-family="FreeSans" font-size="8.00" fill="#2e3436">since = &#39;1day&#39;</text>
<text text-anchor="start" x="37" y="-58.8" font-family="FreeSans" font-size="8.00" fill="#2e3436">cost = &#39;high&#39;</text>
</g>
</g>
</svg>
