<?xml version="1.0" encoding="UTF-8" standalone="no"?>
<!DOCTYPE svg PUBLIC "-//W3C//DTD SVG 1.1//EN"
 "http://www.w3.org/Graphics/SVG/1.1/DTD/svg11.dtd">
<!-- Generated by graphviz version 2.26.3 (20100126.1600)
 -->
<!-- Title: g Pages: 1 -->
<svg width="88pt" height="140pt"
 viewBox="0.00 0.00 88.00 140.00" xmlns="http://www.w3.org/2000/svg" xmlns:xlink="http://www.w3.org/1999/xlink">
<g id="graph1" class="graph" transform="scale(1 1) rotate(0) translate(4 136)">
<title>g</title>
<polygon fill="white" stroke="white" points="-4,5 -4,-136 85,-136 85,5 -4,5"/>
<!-- N77 -->
<g id="node1" class="node"><title>N77</title>
<polygon fill="#ffffff" stroke="#ffffff" stroke-width="1.5" points="12,-95 50,-95 62,-107 62,-119 50,-131 12,-131 0,-119 0,-107 12,-95"/>
<path fill="#ffffff" stroke="#ffffff" stroke-width="1.5" d="M50,-95C56,-95 62,-101 62,-107"/>
<path fill="#ffffff" stroke="#ffffff" stroke-width="1.5" d="M62,-119C62,-125 56,-131 50,-131"/>
<path fill="#ffffff" stroke="#ffffff" stroke-width="1.5" d="M12,-131C6,-131 0,-125 0,-119"/>
<path fill="#ffffff" stroke="#ffffff" stroke-width="1.5" d="M0,-107C0,-101 6,-95 12,-95"/>
<polyline fill="none" stroke="#2e3436" stroke-width="1.5" points="12,-95 50,-95 "/>
<path fill="none" stroke="#2e3436" stroke-width="1.5" d="M50,-95C56,-95 62,-101 62,-107"/>
<polyline fill="none" stroke="#2e3436" stroke-width="1.5" points="62,-107 62,-119 "/>
<path fill="none" stroke="#2e3436" stroke-width="1.5" d="M62,-119C62,-125 56,-131 50,-131"/>
<polyline fill="none" stroke="#2e3436" stroke-width="1.5" points="50,-131 12,-131 "/>
<path fill="none" stroke="#2e3436" stroke-width="1.5" d="M12,-131C6,-131 0,-125 0,-119"/>
<polyline fill="none" stroke="#2e3436" stroke-width="1.5" points="0,-119 0,-107 "/>
<path fill="none" stroke="#2e3436" stroke-width="1.5" d="M0,-107C0,-101 6,-95 12,-95"/>
<text text-anchor="middle" x="31" y="-119.8" font-family="FreeSans" font-size="8.00" fill="#1c2021">Node[77]</text>
<polyline fill="none" stroke="#2e3436" stroke-width="1.5" points="0,-113 62,-113 "/>
<text text-anchor="start" x="8" y="-101.8" font-family="FreeSans" font-size="8.00" fill="#1c2021">name = &#39;bob&#39;</text>
</g>
<!-- N78 -->
<g id="node3" class="node"><title>N78</title>
<polygon fill="#ffffff" stroke="#ffffff" stroke-width="1.5" points="16,-1 46,-1 58,-13 58,-25 46,-37 16,-37 4,-25 4,-13 16,-1"/>
<path fill="#ffffff" stroke="#ffffff" stroke-width="1.5" d="M46,-1C52,-1 58,-7 58,-13"/>
<path fill="#ffffff" stroke="#ffffff" stroke-width="1.5" d="M58,-25C58,-31 52,-37 46,-37"/>
<path fill="#ffffff" stroke="#ffffff" stroke-width="1.5" d="M16,-37C10,-37 4,-31 4,-25"/>
<path fill="#ffffff" stroke="#ffffff" stroke-width="1.5" d="M4,-13C4,-7 10,-1 16,-1"/>
<polyline fill="none" stroke="#2e3436" stroke-width="1.5" points="16,-1 46,-1 "/>
<path fill="none" stroke="#2e3436" stroke-width="1.5" d="M46,-1C52,-1 58,-7 58,-13"/>
<polyline fill="none" stroke="#2e3436" stroke-width="1.5" points="58,-13 58,-25 "/>
<path fill="none" stroke="#2e3436" stroke-width="1.5" d="M58,-25C58,-31 52,-37 46,-37"/>
<polyline fill="none" stroke="#2e3436" stroke-width="1.5" points="46,-37 16,-37 "/>
<path fill="none" stroke="#2e3436" stroke-width="1.5" d="M16,-37C10,-37 4,-31 4,-25"/>
<polyline fill="none" stroke="#2e3436" stroke-width="1.5" points="4,-25 4,-13 "/>
<path fill="none" stroke="#2e3436" stroke-width="1.5" d="M4,-13C4,-7 10,-1 16,-1"/>
<text text-anchor="middle" x="31" y="-25.8" font-family="FreeSans" font-size="8.00" fill="#1c2021">Node[78]</text>
<polyline fill="none" stroke="#2e3436" stroke-width="1.5" points="4,-19 58,-19 "/>
<text text-anchor="start" x="12" y="-7.8" font-family="FreeSans" font-size="8.00" fill="#1c2021">age = 12</text>
</g>
<!-- N77&#45;&gt;N78 -->
<g id="edge2" class="edge"><title>N77&#45;&gt;N78</title>
<path fill="none" stroke="#2e3436" stroke-width="2" d="M31,-94.8759C31,-80.7014 31,-60.806 31,-44.944"/>
<polygon fill="#2e3436" stroke="#2e3436" points="31,-37.0685 34.3751,-44.5685 31.5,-40.8185 31.5001,-44.5685 31.0001,-44.5685 30.5001,-44.5685 30.5,-40.8185 27.6251,-44.5685 31,-37.0685 31,-37.0685"/>
<text text-anchor="middle" x="55.5" y="-68.8" font-family="FreeSans" font-size="8.00" fill="#2e3436">KNOWS</text>
<text text-anchor="start" x="31" y="-58.8" font-family="FreeSans" font-size="8.00" fill="#2e3436">since = &#39;2010&#39;</text>
</g>
</g>
</svg>
