<?xml version="1.0" encoding="UTF-8" standalone="no"?>
<!DOCTYPE svg PUBLIC "-//W3C//DTD SVG 1.1//EN"
 "http://www.w3.org/Graphics/SVG/1.1/DTD/svg11.dtd">
<!-- Generated by graphviz version 2.26.3 (20100126.1600)
 -->
<!-- Title: g Pages: 1 -->
<svg width="77pt" height="140pt"
 viewBox="0.00 0.00 77.28 140.00" xmlns="http://www.w3.org/2000/svg" xmlns:xlink="http://www.w3.org/1999/xlink">
<g id="graph1" class="graph" transform="scale(1 1) rotate(0) translate(4 136)">
<title>g</title>
<polygon fill="white" stroke="white" points="-4,5 -4,-136 74.2778,-136 74.2778,5 -4,5"/>
<!-- N11 -->
<g id="node1" class="node"><title>N11</title>
<polygon fill="#ffffff" stroke="#ffffff" stroke-width="1.5" points="12.2778,-1 54.2778,-1 66.2778,-13 66.2778,-25 54.2778,-37 12.2778,-37 0.277813,-25 0.277813,-13 12.2778,-1"/>
<path fill="#ffffff" stroke="#ffffff" stroke-width="1.5" d="M54.2778,-1C60.2778,-1 66.2778,-7 66.2778,-13"/>
<path fill="#ffffff" stroke="#ffffff" stroke-width="1.5" d="M66.2778,-25C66.2778,-31 60.2778,-37 54.2778,-37"/>
<path fill="#ffffff" stroke="#ffffff" stroke-width="1.5" d="M12.2778,-37C6.27781,-37 0.277813,-31 0.277813,-25"/>
<path fill="#ffffff" stroke="#ffffff" stroke-width="1.5" d="M0.277813,-13C0.277813,-7 6.27781,-1 12.2778,-1"/>
<polyline fill="none" stroke="#2e3436" stroke-width="1.5" points="12.2778,-1 54.2778,-1 "/>
<path fill="none" stroke="#2e3436" stroke-width="1.5" d="M54.2778,-1C60.2778,-1 66.2778,-7 66.2778,-13"/>
<polyline fill="none" stroke="#2e3436" stroke-width="1.5" points="66.2778,-13 66.2778,-25 "/>
<path fill="none" stroke="#2e3436" stroke-width="1.5" d="M66.2778,-25C66.2778,-31 60.2778,-37 54.2778,-37"/>
<polyline fill="none" stroke="#2e3436" stroke-width="1.5" points="54.2778,-37 12.2778,-37 "/>
<path fill="none" stroke="#2e3436" stroke-width="1.5" d="M12.2778,-37C6.27781,-37 0.277813,-31 0.277813,-25"/>
<polyline fill="none" stroke="#2e3436" stroke-width="1.5" points="0.277813,-25 0.277813,-13 "/>
<path fill="none" stroke="#2e3436" stroke-width="1.5" d="M0.277813,-13C0.277813,-7 6.27781,-1 12.2778,-1"/>
<text text-anchor="middle" x="33.2778" y="-25.8" font-family="FreeSans" font-size="8.00" fill="#1c2021">Node[11]</text>
<polyline fill="none" stroke="#2e3436" stroke-width="1.5" points="0.277813,-19 66.2778,-19 "/>
<text text-anchor="start" x="8.27781" y="-7.8" font-family="FreeSans" font-size="8.00" fill="#1c2021">name = &#39;Sara&#39;</text>
</g>
<!-- N12 -->
<g id="node2" class="node"><title>N12</title>
<polygon fill="#ffffff" stroke="#ffffff" stroke-width="1.5" points="14.2778,-95 52.2778,-95 64.2778,-107 64.2778,-119 52.2778,-131 14.2778,-131 2.27781,-119 2.27781,-107 14.2778,-95"/>
<path fill="#ffffff" stroke="#ffffff" stroke-width="1.5" d="M52.2778,-95C58.2778,-95 64.2778,-101 64.2778,-107"/>
<path fill="#ffffff" stroke="#ffffff" stroke-width="1.5" d="M64.2778,-119C64.2778,-125 58.2778,-131 52.2778,-131"/>
<path fill="#ffffff" stroke="#ffffff" stroke-width="1.5" d="M14.2778,-131C8.27781,-131 2.27781,-125 2.27781,-119"/>
<path fill="#ffffff" stroke="#ffffff" stroke-width="1.5" d="M2.27781,-107C2.27781,-101 8.27781,-95 14.2778,-95"/>
<polyline fill="none" stroke="#2e3436" stroke-width="1.5" points="14.2778,-95 52.2778,-95 "/>
<path fill="none" stroke="#2e3436" stroke-width="1.5" d="M52.2778,-95C58.2778,-95 64.2778,-101 64.2778,-107"/>
<polyline fill="none" stroke="#2e3436" stroke-width="1.5" points="64.2778,-107 64.2778,-119 "/>
<path fill="none" stroke="#2e3436" stroke-width="1.5" d="M64.2778,-119C64.2778,-125 58.2778,-131 52.2778,-131"/>
<polyline fill="none" stroke="#2e3436" stroke-width="1.5" points="52.2778,-131 14.2778,-131 "/>
<path fill="none" stroke="#2e3436" stroke-width="1.5" d="M14.2778,-131C8.27781,-131 2.27781,-125 2.27781,-119"/>
<polyline fill="none" stroke="#2e3436" stroke-width="1.5" points="2.27781,-119 2.27781,-107 "/>
<path fill="none" stroke="#2e3436" stroke-width="1.5" d="M2.27781,-107C2.27781,-101 8.27781,-95 14.2778,-95"/>
<text text-anchor="middle" x="33.2778" y="-119.8" font-family="FreeSans" font-size="8.00" fill="#1c2021">Node[12]</text>
<polyline fill="none" stroke="#2e3436" stroke-width="1.5" points="2.27781,-113 64.2778,-113 "/>
<text text-anchor="start" x="10.2778" y="-101.8" font-family="FreeSans" font-size="8.00" fill="#1c2021">name = &#39;Joe&#39;</text>
</g>
<!-- N12&#45;&gt;N11 -->
<g id="edge2" class="edge"><title>N12&#45;&gt;N11</title>
<path fill="none" stroke="#2e3436" stroke-width="2" d="M13.6803,-94.6819C9.0467,-89.1713 4.74024,-82.7733 2.27781,-76 -0.759271,-67.6461 -0.759271,-64.3539 2.27781,-56 3.89378,-51.555 6.30391,-47.2717 9.07949,-43.2947"/>
<polygon fill="#2e3436" stroke="#2e3436" points="13.6803,-37.3181 11.7797,-45.3199 11.789,-40.5946 9.5015,-43.5661 9.1053,-43.2611 8.7091,-42.9561 10.9966,-39.9846 6.43093,-41.2023 13.6803,-37.3181 13.6803,-37.3181"/>
<text text-anchor="middle" x="14.2778" y="-63.8" font-family="FreeSans" font-size="8.00" fill="#2e3436">knows</text>
</g>
<!-- N12&#45;&gt;N11 -->
<g id="edge4" class="edge"><title>N12&#45;&gt;N11</title>
<path fill="none" stroke="#4e9a06" stroke-width="2" d="M33.2778,-94.8759C33.2778,-80.7014 33.2778,-60.806 33.2778,-44.944"/>
<polygon fill="#4e9a06" stroke="#4e9a06" points="33.2778,-37.0685 36.6529,-44.5685 33.7779,-40.8185 33.7779,-44.5685 33.2779,-44.5685 32.7779,-44.5685 32.7779,-40.8185 29.9029,-44.5685 33.2778,-37.0685 33.2778,-37.0685"/>
<text text-anchor="middle" x="51.2778" y="-68.8" font-family="FreeSans" font-size="8.00" fill="#4e9a06">LOVES</text>
<text text-anchor="start" x="33.2778" y="-58.8" font-family="FreeSans" font-size="8.00" fill="#4e9a06">foo = &#39;bar&#39;</text>
</g>
</g>
</svg>
