<?xml version="1.0" encoding="UTF-8" standalone="no"?>
<!DOCTYPE svg PUBLIC "-//W3C//DTD SVG 1.1//EN"
 "http://www.w3.org/Graphics/SVG/1.1/DTD/svg11.dtd">
<!-- Generated by graphviz version 2.26.3 (20100126.1600)
 -->
<!-- Title: g Pages: 1 -->
<svg width="228pt" height="46pt"
 viewBox="0.00 0.00 228.00 46.00" xmlns="http://www.w3.org/2000/svg" xmlns:xlink="http://www.w3.org/1999/xlink">
<g id="graph1" class="graph" transform="scale(1 1) rotate(0) translate(4 42)">
<title>g</title>
<polygon fill="white" stroke="white" points="-4,5 -4,-42 225,-42 225,5 -4,5"/>
<!-- N116 -->
<g id="node1" class="node"><title>N116</title>
<polygon fill="#ffffff" stroke="#ffffff" stroke-width="1.5" points="12,-1 42,-1 54,-13 54,-25 42,-37 12,-37 0,-25 0,-13 12,-1"/>
<path fill="#ffffff" stroke="#ffffff" stroke-width="1.5" d="M42,-1C48,-1 54,-7 54,-13"/>
<path fill="#ffffff" stroke="#ffffff" stroke-width="1.5" d="M54,-25C54,-31 48,-37 42,-37"/>
<path fill="#ffffff" stroke="#ffffff" stroke-width="1.5" d="M12,-37C6,-37 0,-31 0,-25"/>
<path fill="#ffffff" stroke="#ffffff" stroke-width="1.5" d="M0,-13C0,-7 6,-1 12,-1"/>
<polyline fill="none" stroke="#2e3436" stroke-width="1.5" points="12,-1 42,-1 "/>
<path fill="none" stroke="#2e3436" stroke-width="1.5" d="M42,-1C48,-1 54,-7 54,-13"/>
<polyline fill="none" stroke="#2e3436" stroke-width="1.5" points="54,-13 54,-25 "/>
<path fill="none" stroke="#2e3436" stroke-width="1.5" d="M54,-25C54,-31 48,-37 42,-37"/>
<polyline fill="none" stroke="#2e3436" stroke-width="1.5" points="42,-37 12,-37 "/>
<path fill="none" stroke="#2e3436" stroke-width="1.5" d="M12,-37C6,-37 0,-31 0,-25"/>
<polyline fill="none" stroke="#2e3436" stroke-width="1.5" points="0,-25 0,-13 "/>
<path fill="none" stroke="#2e3436" stroke-width="1.5" d="M0,-13C0,-7 6,-1 12,-1"/>
<text text-anchor="middle" x="27" y="-25.8" font-family="FreeSans" font-size="8.00" fill="#1c2021">Node[116]</text>
<polyline fill="none" stroke="#2e3436" stroke-width="1.5" points="0,-19 54,-19 "/>
<text text-anchor="start" x="8" y="-7.8" font-family="FreeSans" font-size="8.00" fill="#1c2021">name = &#39;b&#39;</text>
</g>
<!-- N117 -->
<g id="node2" class="node"><title>N117</title>
<polygon fill="#ffffff" stroke="#ffffff" stroke-width="1.5" points="95,-1 125,-1 137,-13 137,-25 125,-37 95,-37 83,-25 83,-13 95,-1"/>
<path fill="#ffffff" stroke="#ffffff" stroke-width="1.5" d="M125,-1C131,-1 137,-7 137,-13"/>
<path fill="#ffffff" stroke="#ffffff" stroke-width="1.5" d="M137,-25C137,-31 131,-37 125,-37"/>
<path fill="#ffffff" stroke="#ffffff" stroke-width="1.5" d="M95,-37C89,-37 83,-31 83,-25"/>
<path fill="#ffffff" stroke="#ffffff" stroke-width="1.5" d="M83,-13C83,-7 89,-1 95,-1"/>
<polyline fill="none" stroke="#2e3436" stroke-width="1.5" points="95,-1 125,-1 "/>
<path fill="none" stroke="#2e3436" stroke-width="1.5" d="M125,-1C131,-1 137,-7 137,-13"/>
<polyline fill="none" stroke="#2e3436" stroke-width="1.5" points="137,-13 137,-25 "/>
<path fill="none" stroke="#2e3436" stroke-width="1.5" d="M137,-25C137,-31 131,-37 125,-37"/>
<polyline fill="none" stroke="#2e3436" stroke-width="1.5" points="125,-37 95,-37 "/>
<path fill="none" stroke="#2e3436" stroke-width="1.5" d="M95,-37C89,-37 83,-31 83,-25"/>
<polyline fill="none" stroke="#2e3436" stroke-width="1.5" points="83,-25 83,-13 "/>
<path fill="none" stroke="#2e3436" stroke-width="1.5" d="M83,-13C83,-7 89,-1 95,-1"/>
<text text-anchor="middle" x="110" y="-25.8" font-family="FreeSans" font-size="8.00" fill="#1c2021">Node[117]</text>
<polyline fill="none" stroke="#2e3436" stroke-width="1.5" points="83,-19 137,-19 "/>
<text text-anchor="start" x="91" y="-7.8" font-family="FreeSans" font-size="8.00" fill="#1c2021">name = &#39;c&#39;</text>
</g>
<!-- N118 -->
<g id="node3" class="node"><title>N118</title>
<polygon fill="#ffffff" stroke="#ffffff" stroke-width="1.5" points="178,-1 208,-1 220,-13 220,-25 208,-37 178,-37 166,-25 166,-13 178,-1"/>
<path fill="#ffffff" stroke="#ffffff" stroke-width="1.5" d="M208,-1C214,-1 220,-7 220,-13"/>
<path fill="#ffffff" stroke="#ffffff" stroke-width="1.5" d="M220,-25C220,-31 214,-37 208,-37"/>
<path fill="#ffffff" stroke="#ffffff" stroke-width="1.5" d="M178,-37C172,-37 166,-31 166,-25"/>
<path fill="#ffffff" stroke="#ffffff" stroke-width="1.5" d="M166,-13C166,-7 172,-1 178,-1"/>
<polyline fill="none" stroke="#2e3436" stroke-width="1.5" points="178,-1 208,-1 "/>
<path fill="none" stroke="#2e3436" stroke-width="1.5" d="M208,-1C214,-1 220,-7 220,-13"/>
<polyline fill="none" stroke="#2e3436" stroke-width="1.5" points="220,-13 220,-25 "/>
<path fill="none" stroke="#2e3436" stroke-width="1.5" d="M220,-25C220,-31 214,-37 208,-37"/>
<polyline fill="none" stroke="#2e3436" stroke-width="1.5" points="208,-37 178,-37 "/>
<path fill="none" stroke="#2e3436" stroke-width="1.5" d="M178,-37C172,-37 166,-31 166,-25"/>
<polyline fill="none" stroke="#2e3436" stroke-width="1.5" points="166,-25 166,-13 "/>
<path fill="none" stroke="#2e3436" stroke-width="1.5" d="M166,-13C166,-7 172,-1 178,-1"/>
<text text-anchor="middle" x="193" y="-25.8" font-family="FreeSans" font-size="8.00" fill="#1c2021">Node[118]</text>
<polyline fill="none" stroke="#2e3436" stroke-width="1.5" points="166,-19 220,-19 "/>
<text text-anchor="start" x="174" y="-7.8" font-family="FreeSans" font-size="8.00" fill="#1c2021">name = &#39;a&#39;</text>
</g>
</g>
</svg>
