<?xml version="1.0" encoding="UTF-8" standalone="no"?>
<!DOCTYPE svg PUBLIC "-//W3C//DTD SVG 1.1//EN"
 "http://www.w3.org/Graphics/SVG/1.1/DTD/svg11.dtd">
<!-- Generated by graphviz version 2.26.3 (20100126.1600)
 -->
<!-- Title: g Pages: 1 -->
<svg width="159pt" height="130pt"
 viewBox="0.00 0.00 159.00 130.00" xmlns="http://www.w3.org/2000/svg" xmlns:xlink="http://www.w3.org/1999/xlink">
<g id="graph1" class="graph" transform="scale(1 1) rotate(0) translate(4 126)">
<title>g</title>
<polygon fill="white" stroke="white" points="-4,5 -4,-126 156,-126 156,5 -4,5"/>
<!-- N88 -->
<g id="node1" class="node"><title>N88</title>
<polygon fill="#ffffff" stroke="#ffffff" stroke-width="1.5" points="11.5,-1 48.5,-1 60.5,-13 60.5,-25 48.5,-37 11.5,-37 -0.5,-25 -0.5,-13 11.5,-1"/>
<path fill="#ffffff" stroke="#ffffff" stroke-width="1.5" d="M48.5,-1C54.5,-1 60.5,-7 60.5,-13"/>
<path fill="#ffffff" stroke="#ffffff" stroke-width="1.5" d="M60.5,-25C60.5,-31 54.5,-37 48.5,-37"/>
<path fill="#ffffff" stroke="#ffffff" stroke-width="1.5" d="M11.5,-37C5.5,-37 -0.5,-31 -0.5,-25"/>
<path fill="#ffffff" stroke="#ffffff" stroke-width="1.5" d="M-0.5,-13C-0.5,-7 5.5,-1 11.5,-1"/>
<polyline fill="none" stroke="#2e3436" stroke-width="1.5" points="11.5,-1 48.5,-1 "/>
<path fill="none" stroke="#2e3436" stroke-width="1.5" d="M48.5,-1C54.5,-1 60.5,-7 60.5,-13"/>
<polyline fill="none" stroke="#2e3436" stroke-width="1.5" points="60.5,-13 60.5,-25 "/>
<path fill="none" stroke="#2e3436" stroke-width="1.5" d="M60.5,-25C60.5,-31 54.5,-37 48.5,-37"/>
<polyline fill="none" stroke="#2e3436" stroke-width="1.5" points="48.5,-37 11.5,-37 "/>
<path fill="none" stroke="#2e3436" stroke-width="1.5" d="M11.5,-37C5.5,-37 -0.5,-31 -0.5,-25"/>
<polyline fill="none" stroke="#2e3436" stroke-width="1.5" points="-0.5,-25 -0.5,-13 "/>
<path fill="none" stroke="#2e3436" stroke-width="1.5" d="M-0.5,-13C-0.5,-7 5.5,-1 11.5,-1"/>
<text text-anchor="middle" x="30" y="-25.8" font-family="FreeSans" font-size="8.00" fill="#1c2021">Node[88]</text>
<polyline fill="none" stroke="#2e3436" stroke-width="1.5" points="-0.5,-19 60.5,-19 "/>
<text text-anchor="start" x="7.5" y="-7.8" font-family="FreeSans" font-size="8.00" fill="#1c2021">name = &#39;car&#39;</text>
</g>
<!-- N89 -->
<g id="node2" class="node"><title>N89</title>
<polygon fill="#ffffff" stroke="#ffffff" stroke-width="1.5" points="101,-1 139,-1 151,-13 151,-25 139,-37 101,-37 89,-25 89,-13 101,-1"/>
<path fill="#ffffff" stroke="#ffffff" stroke-width="1.5" d="M139,-1C145,-1 151,-7 151,-13"/>
<path fill="#ffffff" stroke="#ffffff" stroke-width="1.5" d="M151,-25C151,-31 145,-37 139,-37"/>
<path fill="#ffffff" stroke="#ffffff" stroke-width="1.5" d="M101,-37C95,-37 89,-31 89,-25"/>
<path fill="#ffffff" stroke="#ffffff" stroke-width="1.5" d="M89,-13C89,-7 95,-1 101,-1"/>
<polyline fill="none" stroke="#2e3436" stroke-width="1.5" points="101,-1 139,-1 "/>
<path fill="none" stroke="#2e3436" stroke-width="1.5" d="M139,-1C145,-1 151,-7 151,-13"/>
<polyline fill="none" stroke="#2e3436" stroke-width="1.5" points="151,-13 151,-25 "/>
<path fill="none" stroke="#2e3436" stroke-width="1.5" d="M151,-25C151,-31 145,-37 139,-37"/>
<polyline fill="none" stroke="#2e3436" stroke-width="1.5" points="139,-37 101,-37 "/>
<path fill="none" stroke="#2e3436" stroke-width="1.5" d="M101,-37C95,-37 89,-31 89,-25"/>
<polyline fill="none" stroke="#2e3436" stroke-width="1.5" points="89,-25 89,-13 "/>
<path fill="none" stroke="#2e3436" stroke-width="1.5" d="M89,-13C89,-7 95,-1 101,-1"/>
<text text-anchor="middle" x="120" y="-25.8" font-family="FreeSans" font-size="8.00" fill="#1c2021">Node[89]</text>
<polyline fill="none" stroke="#2e3436" stroke-width="1.5" points="89,-19 151,-19 "/>
<text text-anchor="start" x="97" y="-7.8" font-family="FreeSans" font-size="8.00" fill="#1c2021">name = &#39;you&#39;</text>
</g>
<!-- N90 -->
<g id="node3" class="node"><title>N90</title>
<polygon fill="#ffffff" stroke="#ffffff" stroke-width="1.5" points="60,-85 90,-85 102,-97 102,-109 90,-121 60,-121 48,-109 48,-97 60,-85"/>
<path fill="#ffffff" stroke="#ffffff" stroke-width="1.5" d="M90,-85C96,-85 102,-91 102,-97"/>
<path fill="#ffffff" stroke="#ffffff" stroke-width="1.5" d="M102,-109C102,-115 96,-121 90,-121"/>
<path fill="#ffffff" stroke="#ffffff" stroke-width="1.5" d="M60,-121C54,-121 48,-115 48,-109"/>
<path fill="#ffffff" stroke="#ffffff" stroke-width="1.5" d="M48,-97C48,-91 54,-85 60,-85"/>
<polyline fill="none" stroke="#2e3436" stroke-width="1.5" points="60,-85 90,-85 "/>
<path fill="none" stroke="#2e3436" stroke-width="1.5" d="M90,-85C96,-85 102,-91 102,-97"/>
<polyline fill="none" stroke="#2e3436" stroke-width="1.5" points="102,-97 102,-109 "/>
<path fill="none" stroke="#2e3436" stroke-width="1.5" d="M102,-109C102,-115 96,-121 90,-121"/>
<polyline fill="none" stroke="#2e3436" stroke-width="1.5" points="90,-121 60,-121 "/>
<path fill="none" stroke="#2e3436" stroke-width="1.5" d="M60,-121C54,-121 48,-115 48,-109"/>
<polyline fill="none" stroke="#2e3436" stroke-width="1.5" points="48,-109 48,-97 "/>
<path fill="none" stroke="#2e3436" stroke-width="1.5" d="M48,-97C48,-91 54,-85 60,-85"/>
<text text-anchor="middle" x="75" y="-109.8" font-family="FreeSans" font-size="8.00" fill="#1c2021">Node[90]</text>
<polyline fill="none" stroke="#2e3436" stroke-width="1.5" points="48,-103 102,-103 "/>
<text text-anchor="start" x="56" y="-91.8" font-family="FreeSans" font-size="8.00" fill="#1c2021">name = &#39;I&#39;</text>
</g>
<!-- N90&#45;&gt;N88 -->
<g id="edge4" class="edge"><title>N90&#45;&gt;N88</title>
<path fill="none" stroke="#4e9a06" stroke-width="2" d="M65.2357,-84.7733C58.867,-72.8851 50.4686,-57.2081 43.4686,-44.1413"/>
<polygon fill="#4e9a06" stroke="#4e9a06" points="39.7453,-37.1912 46.262,-42.2085 41.9569,-40.2606 43.7277,-43.5662 43.287,-43.8023 42.8462,-44.0384 41.0754,-40.7328 40.312,-45.3961 39.7453,-37.1912 39.7453,-37.1912"/>
<text text-anchor="middle" x="62" y="-58.8" font-family="FreeSans" font-size="8.00" fill="#4e9a06">own</text>
</g>
<!-- N90&#45;&gt;N89 -->
<g id="edge2" class="edge"><title>N90&#45;&gt;N89</title>
<path fill="none" stroke="#2e3436" stroke-width="2" d="M84.7643,-84.7733C91.133,-72.8851 99.5314,-57.2081 106.531,-44.1413"/>
<polygon fill="#2e3436" stroke="#2e3436" points="110.255,-37.1912 109.688,-45.3961 108.925,-40.7328 107.154,-44.0384 106.713,-43.8023 106.272,-43.5662 108.043,-40.2606 103.738,-42.2085 110.255,-37.1912 110.255,-37.1912"/>
<text text-anchor="middle" x="108" y="-58.8" font-family="FreeSans" font-size="8.00" fill="#2e3436">know</text>
</g>
</g>
</svg>
