<?xml version="1.0" encoding="UTF-8" standalone="no"?>
<!DOCTYPE svg PUBLIC "-//W3C//DTD SVG 1.1//EN"
 "http://www.w3.org/Graphics/SVG/1.1/DTD/svg11.dtd">
<!-- Generated by graphviz version 2.26.3 (20100126.1600)
 -->
<!-- Title: g Pages: 1 -->
<svg width="231pt" height="296pt"
 viewBox="0.00 0.00 231.00 296.00" xmlns="http://www.w3.org/2000/svg" xmlns:xlink="http://www.w3.org/1999/xlink">
<g id="graph1" class="graph" transform="scale(1 1) rotate(0) translate(4 292)">
<title>g</title>
<polygon fill="white" stroke="white" points="-4,5 -4,-292 228,-292 228,5 -4,5"/>
<!-- Indexes -->
<g id="node1" class="node"><title>Indexes</title>
<polygon fill="#a8e270" stroke="#a8e270" stroke-width="1.5" points="147,-288 117,-288 105,-276 105,-264 117,-252 147,-252 159,-264 159,-276 147,-288"/>
<path fill="#a8e270" stroke="#a8e270" stroke-width="1.5" d="M117,-288C111,-288 105,-282 105,-276"/>
<path fill="#a8e270" stroke="#a8e270" stroke-width="1.5" d="M105,-264C105,-258 111,-252 117,-252"/>
<path fill="#a8e270" stroke="#a8e270" stroke-width="1.5" d="M147,-252C153,-252 159,-258 159,-264"/>
<path fill="#a8e270" stroke="#a8e270" stroke-width="1.5" d="M159,-276C159,-282 153,-288 147,-288"/>
<polyline fill="none" stroke="#2e3436" stroke-width="1.5" points="147,-288 117,-288 "/>
<path fill="none" stroke="#2e3436" stroke-width="1.5" d="M117,-288C111,-288 105,-282 105,-276"/>
<polyline fill="none" stroke="#2e3436" stroke-width="1.5" points="105,-276 105,-264 "/>
<path fill="none" stroke="#2e3436" stroke-width="1.5" d="M105,-264C105,-258 111,-252 117,-252"/>
<polyline fill="none" stroke="#2e3436" stroke-width="1.5" points="117,-252 147,-252 "/>
<path fill="none" stroke="#2e3436" stroke-width="1.5" d="M147,-252C153,-252 159,-258 159,-264"/>
<polyline fill="none" stroke="#2e3436" stroke-width="1.5" points="159,-264 159,-276 "/>
<path fill="none" stroke="#2e3436" stroke-width="1.5" d="M159,-276C159,-282 153,-288 147,-288"/>
<text text-anchor="middle" x="132" y="-267" font-family="FreeSans" font-size="10.00" fill="#1c2021">Indexes</text>
</g>
<!-- Relationships -->
<g id="node2" class="node"><title>Relationships</title>
<polygon fill="#fadcad" stroke="#fadcad" stroke-width="1.5" points="62,-204 12,-204 2.36848e-14,-192 1.18424e-14,-180 12,-168 62,-168 74,-180 74,-192 62,-204"/>
<path fill="#fadcad" stroke="#fadcad" stroke-width="1.5" d="M12,-204C6,-204 2.96059e-14,-198 2.36848e-14,-192"/>
<path fill="#fadcad" stroke="#fadcad" stroke-width="1.5" d="M1.18424e-14,-180C5.92119e-15,-174 6,-168 12,-168"/>
<path fill="#fadcad" stroke="#fadcad" stroke-width="1.5" d="M62,-168C68,-168 74,-174 74,-180"/>
<path fill="#fadcad" stroke="#fadcad" stroke-width="1.5" d="M74,-192C74,-198 68,-204 62,-204"/>
<polyline fill="none" stroke="#2e3436" stroke-width="1.5" points="62,-204 12,-204 "/>
<path fill="none" stroke="#2e3436" stroke-width="1.5" d="M12,-204C6,-204 2.96059e-14,-198 2.36848e-14,-192"/>
<polyline fill="none" stroke="#2e3436" stroke-width="1.5" points="2.36848e-14,-192 1.18424e-14,-180 "/>
<path fill="none" stroke="#2e3436" stroke-width="1.5" d="M1.18424e-14,-180C5.92119e-15,-174 6,-168 12,-168"/>
<polyline fill="none" stroke="#2e3436" stroke-width="1.5" points="12,-168 62,-168 "/>
<path fill="none" stroke="#2e3436" stroke-width="1.5" d="M62,-168C68,-168 74,-174 74,-180"/>
<polyline fill="none" stroke="#2e3436" stroke-width="1.5" points="74,-180 74,-192 "/>
<path fill="none" stroke="#2e3436" stroke-width="1.5" d="M74,-192C74,-198 68,-204 62,-204"/>
<text text-anchor="middle" x="37" y="-183" font-family="FreeSans" font-size="10.00" fill="#1c2021">Relationships</text>
</g>
<!-- Indexes&#45;&gt;Relationships -->
<g id="edge10" class="edge"><title>Indexes&#45;&gt;Relationships</title>
<path fill="none" stroke="#2e3436" stroke-width="2" d="M104.915,-253.018C96.6138,-247.354 87.6574,-240.756 80,-234 71.8436,-226.804 63.6807,-218.151 56.6927,-210.186"/>
<polygon fill="#2e3436" stroke="#2e3436" points="51.5974,-204.264 59.0475,-207.748 54.4223,-206.78 56.8682,-209.623 56.4891,-209.949 56.1101,-210.275 53.6643,-207.433 53.9308,-212.15 51.5974,-204.264 51.5974,-204.264"/>
<text text-anchor="middle" x="95" y="-225" font-family="FreeSans" font-size="10.00" fill="#1c2021">map to</text>
</g>
<!-- Nodes -->
<g id="node4" class="node"><title>Nodes</title>
<polygon fill="#fadcad" stroke="#fadcad" stroke-width="1.5" points="147,-120 117,-120 105,-108 105,-96 117,-84 147,-84 159,-96 159,-108 147,-120"/>
<path fill="#fadcad" stroke="#fadcad" stroke-width="1.5" d="M117,-120C111,-120 105,-114 105,-108"/>
<path fill="#fadcad" stroke="#fadcad" stroke-width="1.5" d="M105,-96C105,-90 111,-84 117,-84"/>
<path fill="#fadcad" stroke="#fadcad" stroke-width="1.5" d="M147,-84C153,-84 159,-90 159,-96"/>
<path fill="#fadcad" stroke="#fadcad" stroke-width="1.5" d="M159,-108C159,-114 153,-120 147,-120"/>
<polyline fill="none" stroke="#2e3436" stroke-width="1.5" points="147,-120 117,-120 "/>
<path fill="none" stroke="#2e3436" stroke-width="1.5" d="M117,-120C111,-120 105,-114 105,-108"/>
<polyline fill="none" stroke="#2e3436" stroke-width="1.5" points="105,-108 105,-96 "/>
<path fill="none" stroke="#2e3436" stroke-width="1.5" d="M105,-96C105,-90 111,-84 117,-84"/>
<polyline fill="none" stroke="#2e3436" stroke-width="1.5" points="117,-84 147,-84 "/>
<path fill="none" stroke="#2e3436" stroke-width="1.5" d="M147,-84C153,-84 159,-90 159,-96"/>
<polyline fill="none" stroke="#2e3436" stroke-width="1.5" points="159,-96 159,-108 "/>
<path fill="none" stroke="#2e3436" stroke-width="1.5" d="M159,-108C159,-114 153,-120 147,-120"/>
<text text-anchor="middle" x="132" y="-99" font-family="FreeSans" font-size="10.00" fill="#1c2021">Nodes</text>
</g>
<!-- Indexes&#45;&gt;Nodes -->
<g id="edge8" class="edge"><title>Indexes&#45;&gt;Nodes</title>
<path fill="none" stroke="#2e3436" stroke-width="2" d="M132,-251.701C132,-221.705 132,-161.99 132,-127.74"/>
<polygon fill="#2e3436" stroke="#2e3436" points="132,-120.022 135.375,-127.522 132.5,-123.772 132.5,-127.522 132,-127.522 131.5,-127.522 131.5,-123.772 128.625,-127.522 132,-120.022 132,-120.022"/>
<text text-anchor="middle" x="147" y="-183" font-family="FreeSans" font-size="10.00" fill="#1c2021">map to</text>
</g>
<!-- Properties -->
<g id="node6" class="node"><title>Properties</title>
<polygon fill="#fadcad" stroke="#fadcad" stroke-width="1.5" points="195,-36 159,-36 147,-24 147,-12 159,-1.49214e-14 195,-6.39488e-15 207,-12 207,-24 195,-36"/>
<path fill="#fadcad" stroke="#fadcad" stroke-width="1.5" d="M159,-36C153,-36 147,-30 147,-24"/>
<path fill="#fadcad" stroke="#fadcad" stroke-width="1.5" d="M147,-12C147,-6 153,-1.63425e-14 159,-1.49214e-14"/>
<path fill="#fadcad" stroke="#fadcad" stroke-width="1.5" d="M195,-6.39488e-15C201,-4.9738e-15 207,-6 207,-12"/>
<path fill="#fadcad" stroke="#fadcad" stroke-width="1.5" d="M207,-24C207,-30 201,-36 195,-36"/>
<polyline fill="none" stroke="#2e3436" stroke-width="1.5" points="195,-36 159,-36 "/>
<path fill="none" stroke="#2e3436" stroke-width="1.5" d="M159,-36C153,-36 147,-30 147,-24"/>
<polyline fill="none" stroke="#2e3436" stroke-width="1.5" points="147,-24 147,-12 "/>
<path fill="none" stroke="#2e3436" stroke-width="1.5" d="M147,-12C147,-6 153,-1.63425e-14 159,-1.49214e-14"/>
<polyline fill="none" stroke="#2e3436" stroke-width="1.5" points="159,-1.49214e-14 195,-6.39488e-15 "/>
<path fill="none" stroke="#2e3436" stroke-width="1.5" d="M195,-6.39488e-15C201,-4.9738e-15 207,-6 207,-12"/>
<polyline fill="none" stroke="#2e3436" stroke-width="1.5" points="207,-12 207,-24 "/>
<path fill="none" stroke="#2e3436" stroke-width="1.5" d="M207,-24C207,-30 201,-36 195,-36"/>
<text text-anchor="middle" x="177" y="-15" font-family="FreeSans" font-size="10.00" fill="#1c2021">Properties</text>
</g>
<!-- Indexes&#45;&gt;Properties -->
<g id="edge12" class="edge"><title>Indexes&#45;&gt;Properties</title>
<path fill="none" stroke="#2e3436" stroke-width="2" d="M145.038,-251.933C153.477,-239.195 163.824,-221.373 169,-204 186.629,-144.826 181.439,-127.641 185,-66 185.308,-60.6755 185.582,-59.3015 185,-54 184.628,-50.615 184.066,-47.0826 183.408,-43.6102"/>
<polygon fill="#2e3436" stroke="#2e3436" points="181.852,-36.1847 186.693,-42.8329 183.11,-39.7524 183.88,-43.4227 183.39,-43.5253 182.901,-43.6278 182.132,-39.9576 180.087,-44.2176 181.852,-36.1847 181.852,-36.1847"/>
<text text-anchor="middle" x="202.5" y="-141" font-family="FreeSans" font-size="10.00" fill="#1c2021">map from</text>
</g>
<!-- Relationships&#45;&gt;Nodes -->
<g id="edge2" class="edge"><title>Relationships&#45;&gt;Nodes</title>
<path fill="none" stroke="#2e3436" stroke-width="2" d="M48.2187,-167.804C54.6954,-158.22 63.4404,-146.686 73,-138 80.5721,-131.119 89.6454,-124.829 98.3797,-119.498"/>
<polygon fill="#2e3436" stroke="#2e3436" points="104.962,-115.615 100.217,-122.333 101.986,-117.951 98.7566,-119.856 98.5025,-119.426 98.2485,-118.995 101.478,-117.09 96.7877,-116.519 104.962,-115.615 104.962,-115.615"/>
<text text-anchor="middle" x="91.5" y="-141" font-family="FreeSans" font-size="10.00" fill="#1c2021">organize</text>
</g>
<!-- Relationships&#45;&gt;Properties -->
<g id="edge6" class="edge"><title>Relationships&#45;&gt;Properties</title>
<path fill="none" stroke="#2e3436" stroke-width="2" d="M39.056,-167.627C42.3216,-145.702 50.4635,-108.889 70,-84 88.0754,-60.9727 116.582,-43.9577 139.627,-32.976"/>
<polygon fill="#2e3436" stroke="#2e3436" points="146.587,-29.7616 141.193,-35.9705 143.392,-31.788 139.987,-33.3605 139.778,-32.9066 139.568,-32.4527 142.972,-30.8802 138.362,-29.8426 146.587,-29.7616 146.587,-29.7616"/>
<text text-anchor="middle" x="80.5" y="-99" font-family="FreeSans" font-size="10.00" fill="#1c2021">have</text>
</g>
<!-- Nodes&#45;&gt;Properties -->
<g id="edge4" class="edge"><title>Nodes&#45;&gt;Properties</title>
<path fill="none" stroke="#2e3436" stroke-width="2" d="M141.764,-83.7733C148.133,-71.8851 156.531,-56.2081 163.531,-43.1413"/>
<polygon fill="#2e3436" stroke="#2e3436" points="167.255,-36.1912 166.688,-44.3961 165.925,-39.7328 164.154,-43.0384 163.713,-42.8023 163.272,-42.5662 165.043,-39.2606 160.738,-41.2085 167.255,-36.1912 167.255,-36.1912"/>
<text text-anchor="middle" x="167.5" y="-57" font-family="FreeSans" font-size="10.00" fill="#1c2021">have</text>
</g>
</g>
</svg>
