<?xml version="1.0" encoding="UTF-8" standalone="no"?>
<!DOCTYPE svg PUBLIC "-//W3C//DTD SVG 1.1//EN"
 "http://www.w3.org/Graphics/SVG/1.1/DTD/svg11.dtd">
<!-- Generated by graphviz version 2.26.3 (20100126.1600)
 -->
<!-- Title: g Pages: 1 -->
<svg width="262pt" height="212pt"
 viewBox="0.00 0.00 262.00 212.00" xmlns="http://www.w3.org/2000/svg" xmlns:xlink="http://www.w3.org/1999/xlink">
<g id="graph1" class="graph" transform="scale(1 1) rotate(0) translate(4 208)">
<title>g</title>
<polygon fill="white" stroke="white" points="-4,5 -4,-208 259,-208 259,5 -4,5"/>
<!-- A Node -->
<g id="node1" class="node"><title>A Node</title>
<polygon fill="#a8e270" stroke="#a8e270" stroke-width="1.5" points="147,-204 117,-204 105,-192 105,-180 117,-168 147,-168 159,-180 159,-192 147,-204"/>
<path fill="#a8e270" stroke="#a8e270" stroke-width="1.5" d="M117,-204C111,-204 105,-198 105,-192"/>
<path fill="#a8e270" stroke="#a8e270" stroke-width="1.5" d="M105,-180C105,-174 111,-168 117,-168"/>
<path fill="#a8e270" stroke="#a8e270" stroke-width="1.5" d="M147,-168C153,-168 159,-174 159,-180"/>
<path fill="#a8e270" stroke="#a8e270" stroke-width="1.5" d="M159,-192C159,-198 153,-204 147,-204"/>
<polyline fill="none" stroke="#2e3436" stroke-width="1.5" points="147,-204 117,-204 "/>
<path fill="none" stroke="#2e3436" stroke-width="1.5" d="M117,-204C111,-204 105,-198 105,-192"/>
<polyline fill="none" stroke="#2e3436" stroke-width="1.5" points="105,-192 105,-180 "/>
<path fill="none" stroke="#2e3436" stroke-width="1.5" d="M105,-180C105,-174 111,-168 117,-168"/>
<polyline fill="none" stroke="#2e3436" stroke-width="1.5" points="117,-168 147,-168 "/>
<path fill="none" stroke="#2e3436" stroke-width="1.5" d="M147,-168C153,-168 159,-174 159,-180"/>
<polyline fill="none" stroke="#2e3436" stroke-width="1.5" points="159,-180 159,-192 "/>
<path fill="none" stroke="#2e3436" stroke-width="1.5" d="M159,-192C159,-198 153,-204 147,-204"/>
<text text-anchor="middle" x="132" y="-183" font-family="FreeSans" font-size="10.00" fill="#1c2021">A Node</text>
</g>
<!-- Relationships -->
<g id="node3" class="node"><title>Relationships</title>
<polygon fill="#fadcad" stroke="#fadcad" stroke-width="1.5" points="62,-120 12,-120 2.36848e-14,-108 1.18424e-14,-96 12,-84 62,-84 74,-96 74,-108 62,-120"/>
<path fill="#fadcad" stroke="#fadcad" stroke-width="1.5" d="M12,-120C6,-120 2.96059e-14,-114 2.36848e-14,-108"/>
<path fill="#fadcad" stroke="#fadcad" stroke-width="1.5" d="M1.18424e-14,-96C5.92119e-15,-90 6,-84 12,-84"/>
<path fill="#fadcad" stroke="#fadcad" stroke-width="1.5" d="M62,-84C68,-84 74,-90 74,-96"/>
<path fill="#fadcad" stroke="#fadcad" stroke-width="1.5" d="M74,-108C74,-114 68,-120 62,-120"/>
<polyline fill="none" stroke="#2e3436" stroke-width="1.5" points="62,-120 12,-120 "/>
<path fill="none" stroke="#2e3436" stroke-width="1.5" d="M12,-120C6,-120 2.96059e-14,-114 2.36848e-14,-108"/>
<polyline fill="none" stroke="#2e3436" stroke-width="1.5" points="2.36848e-14,-108 1.18424e-14,-96 "/>
<path fill="none" stroke="#2e3436" stroke-width="1.5" d="M1.18424e-14,-96C5.92119e-15,-90 6,-84 12,-84"/>
<polyline fill="none" stroke="#2e3436" stroke-width="1.5" points="12,-84 62,-84 "/>
<path fill="none" stroke="#2e3436" stroke-width="1.5" d="M62,-84C68,-84 74,-90 74,-96"/>
<polyline fill="none" stroke="#2e3436" stroke-width="1.5" points="74,-96 74,-108 "/>
<path fill="none" stroke="#2e3436" stroke-width="1.5" d="M74,-108C74,-114 68,-120 62,-120"/>
<text text-anchor="middle" x="37" y="-99" font-family="FreeSans" font-size="10.00" fill="#1c2021">Relationships</text>
</g>
<!-- A Node&#45;&gt;Relationships -->
<g id="edge2" class="edge"><title>A Node&#45;&gt;Relationships</title>
<path fill="none" stroke="#2e3436" stroke-width="2" d="M104.822,-173.165C93.6164,-167.094 80.9541,-159.159 71,-150 63.7199,-143.301 57.0809,-134.799 51.6402,-126.817"/>
<polygon fill="#2e3436" stroke="#2e3436" points="47.3641,-120.286 54.296,-124.712 49.8365,-123.149 51.8906,-126.287 51.4723,-126.561 51.054,-126.834 48.9999,-123.697 48.6486,-128.409 47.3641,-120.286 47.3641,-120.286"/>
<text text-anchor="middle" x="90.5" y="-141" font-family="FreeSans" font-size="10.00" fill="#1c2021">can have</text>
</g>
<!-- Properties -->
<g id="node5" class="node"><title>Properties</title>
<polygon fill="#fadcad" stroke="#fadcad" stroke-width="1.5" points="111,-36 75,-36 63,-24 63,-12 75,-1.49214e-14 111,-6.39488e-15 123,-12 123,-24 111,-36"/>
<path fill="#fadcad" stroke="#fadcad" stroke-width="1.5" d="M75,-36C69,-36 63,-30 63,-24"/>
<path fill="#fadcad" stroke="#fadcad" stroke-width="1.5" d="M63,-12C63,-6 69,-1.63425e-14 75,-1.49214e-14"/>
<path fill="#fadcad" stroke="#fadcad" stroke-width="1.5" d="M111,-6.39488e-15C117,-4.9738e-15 123,-6 123,-12"/>
<path fill="#fadcad" stroke="#fadcad" stroke-width="1.5" d="M123,-24C123,-30 117,-36 111,-36"/>
<polyline fill="none" stroke="#2e3436" stroke-width="1.5" points="111,-36 75,-36 "/>
<path fill="none" stroke="#2e3436" stroke-width="1.5" d="M75,-36C69,-36 63,-30 63,-24"/>
<polyline fill="none" stroke="#2e3436" stroke-width="1.5" points="63,-24 63,-12 "/>
<path fill="none" stroke="#2e3436" stroke-width="1.5" d="M63,-12C63,-6 69,-1.63425e-14 75,-1.49214e-14"/>
<polyline fill="none" stroke="#2e3436" stroke-width="1.5" points="75,-1.49214e-14 111,-6.39488e-15 "/>
<path fill="none" stroke="#2e3436" stroke-width="1.5" d="M111,-6.39488e-15C117,-4.9738e-15 123,-6 123,-12"/>
<polyline fill="none" stroke="#2e3436" stroke-width="1.5" points="123,-12 123,-24 "/>
<path fill="none" stroke="#2e3436" stroke-width="1.5" d="M123,-24C123,-30 117,-36 111,-36"/>
<text text-anchor="middle" x="93" y="-15" font-family="FreeSans" font-size="10.00" fill="#1c2021">Properties</text>
</g>
<!-- A Node&#45;&gt;Properties -->
<g id="edge4" class="edge"><title>A Node&#45;&gt;Properties</title>
<path fill="none" stroke="#2e3436" stroke-width="2" d="M131.449,-167.582C130.205,-141.615 126.16,-93.0543 113,-54 111.748,-50.2841 110.114,-46.5081 108.32,-42.8683"/>
<polygon fill="#2e3436" stroke="#2e3436" points="104.73,-36.0882 111.223,-41.1372 106.927,-39.1684 108.682,-42.4825 108.24,-42.7165 107.798,-42.9504 106.043,-39.6363 105.257,-44.2958 104.73,-36.0882 104.73,-36.0882"/>
<text text-anchor="middle" x="146.5" y="-99" font-family="FreeSans" font-size="10.00" fill="#1c2021">can have</text>
</g>
<!-- Labels -->
<g id="node7" class="node"><title>Labels</title>
<polygon fill="#fadcad" stroke="#fadcad" stroke-width="1.5" points="242,-120 212,-120 200,-108 200,-96 212,-84 242,-84 254,-96 254,-108 242,-120"/>
<path fill="#fadcad" stroke="#fadcad" stroke-width="1.5" d="M212,-120C206,-120 200,-114 200,-108"/>
<path fill="#fadcad" stroke="#fadcad" stroke-width="1.5" d="M200,-96C200,-90 206,-84 212,-84"/>
<path fill="#fadcad" stroke="#fadcad" stroke-width="1.5" d="M242,-84C248,-84 254,-90 254,-96"/>
<path fill="#fadcad" stroke="#fadcad" stroke-width="1.5" d="M254,-108C254,-114 248,-120 242,-120"/>
<polyline fill="none" stroke="#2e3436" stroke-width="1.5" points="242,-120 212,-120 "/>
<path fill="none" stroke="#2e3436" stroke-width="1.5" d="M212,-120C206,-120 200,-114 200,-108"/>
<polyline fill="none" stroke="#2e3436" stroke-width="1.5" points="200,-108 200,-96 "/>
<path fill="none" stroke="#2e3436" stroke-width="1.5" d="M200,-96C200,-90 206,-84 212,-84"/>
<polyline fill="none" stroke="#2e3436" stroke-width="1.5" points="212,-84 242,-84 "/>
<path fill="none" stroke="#2e3436" stroke-width="1.5" d="M242,-84C248,-84 254,-90 254,-96"/>
<polyline fill="none" stroke="#2e3436" stroke-width="1.5" points="254,-96 254,-108 "/>
<path fill="none" stroke="#2e3436" stroke-width="1.5" d="M254,-108C254,-114 248,-120 242,-120"/>
<text text-anchor="middle" x="227" y="-99" font-family="FreeSans" font-size="10.00" fill="#1c2021">Labels</text>
</g>
<!-- A Node&#45;&gt;Labels -->
<g id="edge6" class="edge"><title>A Node&#45;&gt;Labels</title>
<path fill="none" stroke="#2e3436" stroke-width="2" d="M152.614,-167.773C166.681,-155.335 185.439,-138.748 200.599,-125.344"/>
<polygon fill="#2e3436" stroke="#2e3436" points="206.427,-120.191 203.044,-127.688 203.949,-123.05 201.139,-125.534 200.808,-125.159 200.477,-124.785 203.286,-122.301 198.572,-122.631 206.427,-120.191 206.427,-120.191"/>
<text text-anchor="middle" x="204.5" y="-141" font-family="FreeSans" font-size="10.00" fill="#1c2021">can have</text>
</g>
<!-- Relationships&#45;&gt;Properties -->
<g id="edge8" class="edge"><title>Relationships&#45;&gt;Properties</title>
<path fill="none" stroke="#2e3436" stroke-width="2" d="M49.1512,-83.7733C57.15,-71.7751 67.7217,-55.9174 76.4807,-42.779"/>
<polygon fill="#2e3436" stroke="#2e3436" points="80.8725,-36.1912 79.5204,-44.3037 79.2084,-39.5887 77.1283,-42.7089 76.7123,-42.4316 76.2962,-42.1542 78.3764,-39.034 73.9041,-40.5594 80.8725,-36.1912 80.8725,-36.1912"/>
<text text-anchor="middle" x="88.5" y="-57" font-family="FreeSans" font-size="10.00" fill="#1c2021">can have</text>
</g>
</g>
</svg>
