<?xml version="1.0" encoding="UTF-8" standalone="no"?>
<!DOCTYPE svg PUBLIC "-//W3C//DTD SVG 1.1//EN"
 "http://www.w3.org/Graphics/SVG/1.1/DTD/svg11.dtd">
<!-- Generated by graphviz version 2.26.3 (20100126.1600)
 -->
<!-- Title: g Pages: 1 -->
<svg width="400pt" height="404pt"
 viewBox="0.00 0.00 400.00 404.00" xmlns="http://www.w3.org/2000/svg" xmlns:xlink="http://www.w3.org/1999/xlink">
<g id="graph1" class="graph" transform="scale(1 1) rotate(0) translate(4 400)">
<title>g</title>
<polygon fill="white" stroke="white" points="-4,5 -4,-400 397,-400 397,5 -4,5"/>
<!-- Graph Database -->
<g id="node1" class="node"><title>Graph Database</title>
<polygon fill="#a8e270" stroke="#a8e270" stroke-width="1.5" points="113,-396 51,-396 39,-384 39,-372 51,-360 113,-360 125,-372 125,-384 113,-396"/>
<path fill="#a8e270" stroke="#a8e270" stroke-width="1.5" d="M51,-396C45,-396 39,-390 39,-384"/>
<path fill="#a8e270" stroke="#a8e270" stroke-width="1.5" d="M39,-372C39,-366 45,-360 51,-360"/>
<path fill="#a8e270" stroke="#a8e270" stroke-width="1.5" d="M113,-360C119,-360 125,-366 125,-372"/>
<path fill="#a8e270" stroke="#a8e270" stroke-width="1.5" d="M125,-384C125,-390 119,-396 113,-396"/>
<polyline fill="none" stroke="#2e3436" stroke-width="1.5" points="113,-396 51,-396 "/>
<path fill="none" stroke="#2e3436" stroke-width="1.5" d="M51,-396C45,-396 39,-390 39,-384"/>
<polyline fill="none" stroke="#2e3436" stroke-width="1.5" points="39,-384 39,-372 "/>
<path fill="none" stroke="#2e3436" stroke-width="1.5" d="M39,-372C39,-366 45,-360 51,-360"/>
<polyline fill="none" stroke="#2e3436" stroke-width="1.5" points="51,-360 113,-360 "/>
<path fill="none" stroke="#2e3436" stroke-width="1.5" d="M113,-360C119,-360 125,-366 125,-372"/>
<polyline fill="none" stroke="#2e3436" stroke-width="1.5" points="125,-372 125,-384 "/>
<path fill="none" stroke="#2e3436" stroke-width="1.5" d="M125,-384C125,-390 119,-396 113,-396"/>
<text text-anchor="middle" x="82" y="-375" font-family="FreeSans" font-size="10.00" fill="#1c2021">Graph Database</text>
</g>
<!-- Graph -->
<g id="node2" class="node"><title>Graph</title>
<polygon fill="#95bbe3" stroke="#95bbe3" stroke-width="1.5" points="184,-312 154,-312 142,-300 142,-288 154,-276 184,-276 196,-288 196,-300 184,-312"/>
<path fill="#95bbe3" stroke="#95bbe3" stroke-width="1.5" d="M154,-312C148,-312 142,-306 142,-300"/>
<path fill="#95bbe3" stroke="#95bbe3" stroke-width="1.5" d="M142,-288C142,-282 148,-276 154,-276"/>
<path fill="#95bbe3" stroke="#95bbe3" stroke-width="1.5" d="M184,-276C190,-276 196,-282 196,-288"/>
<path fill="#95bbe3" stroke="#95bbe3" stroke-width="1.5" d="M196,-300C196,-306 190,-312 184,-312"/>
<polyline fill="none" stroke="#2e3436" stroke-width="1.5" points="184,-312 154,-312 "/>
<path fill="none" stroke="#2e3436" stroke-width="1.5" d="M154,-312C148,-312 142,-306 142,-300"/>
<polyline fill="none" stroke="#2e3436" stroke-width="1.5" points="142,-300 142,-288 "/>
<path fill="none" stroke="#2e3436" stroke-width="1.5" d="M142,-288C142,-282 148,-276 154,-276"/>
<polyline fill="none" stroke="#2e3436" stroke-width="1.5" points="154,-276 184,-276 "/>
<path fill="none" stroke="#2e3436" stroke-width="1.5" d="M184,-276C190,-276 196,-282 196,-288"/>
<polyline fill="none" stroke="#2e3436" stroke-width="1.5" points="196,-288 196,-300 "/>
<path fill="none" stroke="#2e3436" stroke-width="1.5" d="M196,-300C196,-306 190,-312 184,-312"/>
<text text-anchor="middle" x="169" y="-291" font-family="FreeSans" font-size="10.00" fill="#1c2021">Graph</text>
</g>
<!-- Graph Database&#45;&gt;Graph -->
<g id="edge8" class="edge"><title>Graph Database&#45;&gt;Graph</title>
<path fill="none" stroke="#a40000" stroke-width="2" d="M100.878,-359.773C113.646,-347.445 130.635,-331.042 144.453,-317.701"/>
<polygon fill="#a40000" stroke="#a40000" points="150.159,-312.191 147.108,-319.829 147.809,-315.156 145.111,-317.76 144.764,-317.401 144.416,-317.041 147.114,-314.436 142.419,-314.973 150.159,-312.191 150.159,-312.191"/>
<text text-anchor="middle" x="151" y="-333" font-family="FreeSans" font-size="10.00" fill="#a40000">manages</text>
</g>
<!-- Indexes -->
<g id="node3" class="node"><title>Indexes</title>
<polygon fill="#95bbe3" stroke="#95bbe3" stroke-width="1.5" points="42,-312 12,-312 1.42109e-14,-300 7.10543e-15,-288 12,-276 42,-276 54,-288 54,-300 42,-312"/>
<path fill="#95bbe3" stroke="#95bbe3" stroke-width="1.5" d="M12,-312C6,-312 1.77636e-14,-306 1.42109e-14,-300"/>
<path fill="#95bbe3" stroke="#95bbe3" stroke-width="1.5" d="M7.10543e-15,-288C3.55271e-15,-282 6,-276 12,-276"/>
<path fill="#95bbe3" stroke="#95bbe3" stroke-width="1.5" d="M42,-276C48,-276 54,-282 54,-288"/>
<path fill="#95bbe3" stroke="#95bbe3" stroke-width="1.5" d="M54,-300C54,-306 48,-312 42,-312"/>
<polyline fill="none" stroke="#2e3436" stroke-width="1.5" points="42,-312 12,-312 "/>
<path fill="none" stroke="#2e3436" stroke-width="1.5" d="M12,-312C6,-312 1.77636e-14,-306 1.42109e-14,-300"/>
<polyline fill="none" stroke="#2e3436" stroke-width="1.5" points="1.42109e-14,-300 7.10543e-15,-288 "/>
<path fill="none" stroke="#2e3436" stroke-width="1.5" d="M7.10543e-15,-288C3.55271e-15,-282 6,-276 12,-276"/>
<polyline fill="none" stroke="#2e3436" stroke-width="1.5" points="12,-276 42,-276 "/>
<path fill="none" stroke="#2e3436" stroke-width="1.5" d="M42,-276C48,-276 54,-282 54,-288"/>
<polyline fill="none" stroke="#2e3436" stroke-width="1.5" points="54,-288 54,-300 "/>
<path fill="none" stroke="#2e3436" stroke-width="1.5" d="M54,-300C54,-306 48,-312 42,-312"/>
<text text-anchor="middle" x="27" y="-291" font-family="FreeSans" font-size="10.00" fill="#1c2021">Indexes</text>
</g>
<!-- Graph Database&#45;&gt;Indexes -->
<g id="edge14" class="edge"><title>Graph Database&#45;&gt;Indexes</title>
<path fill="none" stroke="#a40000" stroke-width="2" d="M60.9793,-359.864C55.6051,-354.501 50.1731,-348.353 46,-342 41.4979,-335.146 37.7869,-327.059 34.8766,-319.497"/>
<polygon fill="#a40000" stroke="#a40000" points="32.2335,-312.174 37.9544,-318.083 33.977,-315.532 35.2502,-319.059 34.7799,-319.229 34.3096,-319.399 33.0364,-315.871 31.6054,-320.375 32.2335,-312.174 32.2335,-312.174"/>
<text text-anchor="middle" x="66" y="-333" font-family="FreeSans" font-size="10.00" fill="#a40000">manages</text>
</g>
<!-- Relationships -->
<g id="node4" class="node"><title>Relationships</title>
<polygon fill="#fadcad" stroke="#fadcad" stroke-width="1.5" points="141,-204 91,-204 79,-192 79,-180 91,-168 141,-168 153,-180 153,-192 141,-204"/>
<path fill="#fadcad" stroke="#fadcad" stroke-width="1.5" d="M91,-204C85,-204 79,-198 79,-192"/>
<path fill="#fadcad" stroke="#fadcad" stroke-width="1.5" d="M79,-180C79,-174 85,-168 91,-168"/>
<path fill="#fadcad" stroke="#fadcad" stroke-width="1.5" d="M141,-168C147,-168 153,-174 153,-180"/>
<path fill="#fadcad" stroke="#fadcad" stroke-width="1.5" d="M153,-192C153,-198 147,-204 141,-204"/>
<polyline fill="none" stroke="#2e3436" stroke-width="1.5" points="141,-204 91,-204 "/>
<path fill="none" stroke="#2e3436" stroke-width="1.5" d="M91,-204C85,-204 79,-198 79,-192"/>
<polyline fill="none" stroke="#2e3436" stroke-width="1.5" points="79,-192 79,-180 "/>
<path fill="none" stroke="#2e3436" stroke-width="1.5" d="M79,-180C79,-174 85,-168 91,-168"/>
<polyline fill="none" stroke="#2e3436" stroke-width="1.5" points="91,-168 141,-168 "/>
<path fill="none" stroke="#2e3436" stroke-width="1.5" d="M141,-168C147,-168 153,-174 153,-180"/>
<polyline fill="none" stroke="#2e3436" stroke-width="1.5" points="153,-180 153,-192 "/>
<path fill="none" stroke="#2e3436" stroke-width="1.5" d="M153,-192C153,-198 147,-204 141,-204"/>
<text text-anchor="middle" x="116" y="-183" font-family="FreeSans" font-size="10.00" fill="#1c2021">Relationships</text>
</g>
<!-- Graph&#45;&gt;Relationships -->
<g id="edge12" class="edge"><title>Graph&#45;&gt;Relationships</title>
<path fill="none" stroke="#2e3436" stroke-width="2" d="M142.733,-275.74C137.07,-270.621 131.684,-264.622 128,-258 120.203,-243.984 117.182,-226.229 116.121,-211.857"/>
<polygon fill="#2e3436" stroke="#2e3436" points="115.715,-204.266 119.486,-211.575 116.415,-207.984 116.615,-211.729 116.116,-211.756 115.616,-211.782 115.416,-208.038 112.745,-211.936 115.715,-204.266 115.715,-204.266"/>
<text text-anchor="middle" x="159.5" y="-237" font-family="FreeSans" font-size="10.00" fill="#1c2021">records data in</text>
</g>
<!-- Nodes -->
<g id="node6" class="node"><title>Nodes</title>
<polygon fill="#fadcad" stroke="#fadcad" stroke-width="1.5" points="151,-120 121,-120 109,-108 109,-96 121,-84 151,-84 163,-96 163,-108 151,-120"/>
<path fill="#fadcad" stroke="#fadcad" stroke-width="1.5" d="M121,-120C115,-120 109,-114 109,-108"/>
<path fill="#fadcad" stroke="#fadcad" stroke-width="1.5" d="M109,-96C109,-90 115,-84 121,-84"/>
<path fill="#fadcad" stroke="#fadcad" stroke-width="1.5" d="M151,-84C157,-84 163,-90 163,-96"/>
<path fill="#fadcad" stroke="#fadcad" stroke-width="1.5" d="M163,-108C163,-114 157,-120 151,-120"/>
<polyline fill="none" stroke="#2e3436" stroke-width="1.5" points="151,-120 121,-120 "/>
<path fill="none" stroke="#2e3436" stroke-width="1.5" d="M121,-120C115,-120 109,-114 109,-108"/>
<polyline fill="none" stroke="#2e3436" stroke-width="1.5" points="109,-108 109,-96 "/>
<path fill="none" stroke="#2e3436" stroke-width="1.5" d="M109,-96C109,-90 115,-84 121,-84"/>
<polyline fill="none" stroke="#2e3436" stroke-width="1.5" points="121,-84 151,-84 "/>
<path fill="none" stroke="#2e3436" stroke-width="1.5" d="M151,-84C157,-84 163,-90 163,-96"/>
<polyline fill="none" stroke="#2e3436" stroke-width="1.5" points="163,-96 163,-108 "/>
<path fill="none" stroke="#2e3436" stroke-width="1.5" d="M163,-108C163,-114 157,-120 151,-120"/>
<text text-anchor="middle" x="136" y="-99" font-family="FreeSans" font-size="10.00" fill="#1c2021">Nodes</text>
</g>
<!-- Graph&#45;&gt;Nodes -->
<g id="edge10" class="edge"><title>Graph&#45;&gt;Nodes</title>
<path fill="none" stroke="#2e3436" stroke-width="2" d="M184.844,-275.72C188.581,-270.357 192.044,-264.245 194,-258 198.782,-242.731 196.044,-237.869 194,-222 189.071,-183.724 191.202,-171.476 172,-138 169.576,-133.774 166.526,-129.698 163.233,-125.904"/>
<polygon fill="#2e3436" stroke="#2e3436" points="157.913,-120.194 165.495,-123.381 160.835,-122.597 163.391,-125.34 163.025,-125.681 162.66,-126.022 160.103,-123.278 160.556,-127.982 157.913,-120.194 157.913,-120.194"/>
<text text-anchor="middle" x="222.5" y="-183" font-family="FreeSans" font-size="10.00" fill="#1c2021">records data in</text>
</g>
<!-- Indexes&#45;&gt;Relationships -->
<g id="edge18" class="edge"><title>Indexes&#45;&gt;Relationships</title>
<path fill="none" stroke="#2e3436" stroke-width="2" d="M39.6993,-275.753C50.2717,-260.894 65.9719,-239.576 81,-222 84.4255,-217.994 88.1855,-213.872 91.9308,-209.912"/>
<polygon fill="#2e3436" stroke="#2e3436" points="97.3671,-204.259 94.6011,-212.004 95.1282,-207.308 92.5289,-210.011 92.1685,-209.665 91.8081,-209.318 94.4074,-206.615 89.7358,-207.325 97.3671,-204.259 97.3671,-204.259"/>
<text text-anchor="middle" x="96" y="-237" font-family="FreeSans" font-size="10.00" fill="#1c2021">map to</text>
</g>
<!-- Indexes&#45;&gt;Nodes -->
<g id="edge16" class="edge"><title>Indexes&#45;&gt;Nodes</title>
<path fill="none" stroke="#2e3436" stroke-width="2" d="M23.175,-275.865C18.7331,-250.005 14.3104,-201.916 34,-168 41.9227,-154.353 75.4298,-134.112 101.907,-119.647"/>
<polygon fill="#2e3436" stroke="#2e3436" points="108.814,-115.916 103.819,-122.45 105.752,-118.138 102.452,-119.921 102.215,-119.481 101.977,-119.041 105.277,-117.259 100.611,-116.511 108.814,-115.916 108.814,-115.916"/>
<text text-anchor="middle" x="49" y="-183" font-family="FreeSans" font-size="10.00" fill="#1c2021">map to</text>
</g>
<!-- Properties -->
<g id="node8" class="node"><title>Properties</title>
<polygon fill="#fadcad" stroke="#fadcad" stroke-width="1.5" points="77,-36 41,-36 29,-24 29,-12 41,-1.49214e-14 77,-6.39488e-15 89,-12 89,-24 77,-36"/>
<path fill="#fadcad" stroke="#fadcad" stroke-width="1.5" d="M41,-36C35,-36 29,-30 29,-24"/>
<path fill="#fadcad" stroke="#fadcad" stroke-width="1.5" d="M29,-12C29,-6 35,-1.63425e-14 41,-1.49214e-14"/>
<path fill="#fadcad" stroke="#fadcad" stroke-width="1.5" d="M77,-6.39488e-15C83,-4.9738e-15 89,-6 89,-12"/>
<path fill="#fadcad" stroke="#fadcad" stroke-width="1.5" d="M89,-24C89,-30 83,-36 77,-36"/>
<polyline fill="none" stroke="#2e3436" stroke-width="1.5" points="77,-36 41,-36 "/>
<path fill="none" stroke="#2e3436" stroke-width="1.5" d="M41,-36C35,-36 29,-30 29,-24"/>
<polyline fill="none" stroke="#2e3436" stroke-width="1.5" points="29,-24 29,-12 "/>
<path fill="none" stroke="#2e3436" stroke-width="1.5" d="M29,-12C29,-6 35,-1.63425e-14 41,-1.49214e-14"/>
<polyline fill="none" stroke="#2e3436" stroke-width="1.5" points="41,-1.49214e-14 77,-6.39488e-15 "/>
<path fill="none" stroke="#2e3436" stroke-width="1.5" d="M77,-6.39488e-15C83,-4.9738e-15 89,-6 89,-12"/>
<polyline fill="none" stroke="#2e3436" stroke-width="1.5" points="89,-12 89,-24 "/>
<path fill="none" stroke="#2e3436" stroke-width="1.5" d="M89,-24C89,-30 83,-36 77,-36"/>
<text text-anchor="middle" x="59" y="-15" font-family="FreeSans" font-size="10.00" fill="#1c2021">Properties</text>
</g>
<!-- Indexes&#45;&gt;Properties -->
<g id="edge20" class="edge"><title>Indexes&#45;&gt;Properties</title>
<path fill="none" stroke="#2e3436" stroke-width="2" d="M18.6195,-275.653C16.4217,-270.092 14.3042,-263.893 13,-258 1.45562,-205.838 -5.02969,-190.273 6,-138 13.318,-103.318 31.3273,-66.4527 44.3234,-42.878"/>
<polygon fill="#2e3436" stroke="#2e3436" points="48.0104,-36.3 47.2874,-44.4926 46.613,-39.8157 44.7795,-43.0869 44.3433,-42.8424 43.9072,-42.598 45.7407,-39.3268 41.3993,-41.1923 48.0104,-36.3 48.0104,-36.3"/>
<text text-anchor="middle" x="26.5" y="-141" font-family="FreeSans" font-size="10.00" fill="#1c2021">map from</text>
</g>
<!-- Relationships&#45;&gt;Nodes -->
<g id="edge2" class="edge"><title>Relationships&#45;&gt;Nodes</title>
<path fill="none" stroke="#2e3436" stroke-width="2" d="M120.34,-167.773C123.144,-155.995 126.834,-140.498 129.927,-127.505"/>
<polygon fill="#2e3436" stroke="#2e3436" points="131.669,-120.191 133.215,-128.269 131.287,-123.955 130.418,-127.603 129.932,-127.487 129.445,-127.371 130.314,-123.723 126.648,-126.705 131.669,-120.191 131.669,-120.191"/>
<text text-anchor="middle" x="146.5" y="-141" font-family="FreeSans" font-size="10.00" fill="#1c2021">organize</text>
</g>
<!-- Relationships&#45;&gt;Properties -->
<g id="edge6" class="edge"><title>Relationships&#45;&gt;Properties</title>
<path fill="none" stroke="#2e3436" stroke-width="2" d="M101.007,-167.854C91.4007,-155.222 79.5461,-137.555 73,-120 63.7521,-95.1994 60.5186,-64.9613 59.4359,-43.8745"/>
<polygon fill="#2e3436" stroke="#2e3436" points="59.1181,-36.2713 62.8034,-43.6238 59.7743,-39.9972 59.9309,-43.7439 59.4314,-43.7648 58.9318,-43.7856 58.7752,-40.0389 56.0593,-43.9057 59.1181,-36.2713 59.1181,-36.2713"/>
<text text-anchor="middle" x="83.5" y="-99" font-family="FreeSans" font-size="10.00" fill="#1c2021">have</text>
</g>
<!-- Nodes&#45;&gt;Properties -->
<g id="edge4" class="edge"><title>Nodes&#45;&gt;Properties</title>
<path fill="none" stroke="#2e3436" stroke-width="2" d="M119.292,-83.7733C108.092,-71.5549 93.223,-55.3342 81.0537,-42.0586"/>
<polygon fill="#2e3436" stroke="#2e3436" points="75.6752,-36.1912 83.2311,-39.4393 78.5778,-38.6177 81.1118,-41.382 80.7432,-41.7199 80.3746,-42.0577 77.8407,-39.2934 78.2553,-44.0004 75.6752,-36.1912 75.6752,-36.1912"/>
<text text-anchor="middle" x="113.5" y="-57" font-family="FreeSans" font-size="10.00" fill="#1c2021">have</text>
</g>
<!-- Traversal -->
<g id="node17" class="node"><title>Traversal</title>
<polygon fill="#fadcad" stroke="#fadcad" stroke-width="1.5" points="306,-396 274,-396 262,-384 262,-372 274,-360 306,-360 318,-372 318,-384 306,-396"/>
<path fill="#fadcad" stroke="#fadcad" stroke-width="1.5" d="M274,-396C268,-396 262,-390 262,-384"/>
<path fill="#fadcad" stroke="#fadcad" stroke-width="1.5" d="M262,-372C262,-366 268,-360 274,-360"/>
<path fill="#fadcad" stroke="#fadcad" stroke-width="1.5" d="M306,-360C312,-360 318,-366 318,-372"/>
<path fill="#fadcad" stroke="#fadcad" stroke-width="1.5" d="M318,-384C318,-390 312,-396 306,-396"/>
<polyline fill="none" stroke="#2e3436" stroke-width="1.5" points="306,-396 274,-396 "/>
<path fill="none" stroke="#2e3436" stroke-width="1.5" d="M274,-396C268,-396 262,-390 262,-384"/>
<polyline fill="none" stroke="#2e3436" stroke-width="1.5" points="262,-384 262,-372 "/>
<path fill="none" stroke="#2e3436" stroke-width="1.5" d="M262,-372C262,-366 268,-360 274,-360"/>
<polyline fill="none" stroke="#2e3436" stroke-width="1.5" points="274,-360 306,-360 "/>
<path fill="none" stroke="#2e3436" stroke-width="1.5" d="M306,-360C312,-360 318,-366 318,-372"/>
<polyline fill="none" stroke="#2e3436" stroke-width="1.5" points="318,-372 318,-384 "/>
<path fill="none" stroke="#2e3436" stroke-width="1.5" d="M318,-384C318,-390 312,-396 306,-396"/>
<text text-anchor="middle" x="290" y="-375" font-family="FreeSans" font-size="10.00" fill="#1c2021">Traversal</text>
</g>
<!-- Traversal&#45;&gt;Graph -->
<g id="edge22" class="edge"><title>Traversal&#45;&gt;Graph</title>
<path fill="none" stroke="#2e3436" stroke-width="2" d="M261.829,-367.941C246.578,-361.752 227.871,-352.914 213,-342 203.849,-335.284 195.108,-326.453 187.863,-318.198"/>
<polygon fill="#2e3436" stroke="#2e3436" points="182.632,-312.043 190.06,-315.572 185.441,-314.577 187.869,-317.434 187.488,-317.758 187.107,-318.082 184.679,-315.224 184.917,-319.944 182.632,-312.043 182.632,-312.043"/>
<text text-anchor="middle" x="233.5" y="-333" font-family="FreeSans" font-size="10.00" fill="#1c2021">navigates</text>
</g>
<!-- Paths -->
<g id="node20" class="node"><title>Paths</title>
<polygon fill="#fadcad" stroke="#fadcad" stroke-width="1.5" points="312,-258 282,-258 270,-246 270,-234 282,-222 312,-222 324,-234 324,-246 312,-258"/>
<path fill="#fadcad" stroke="#fadcad" stroke-width="1.5" d="M282,-258C276,-258 270,-252 270,-246"/>
<path fill="#fadcad" stroke="#fadcad" stroke-width="1.5" d="M270,-234C270,-228 276,-222 282,-222"/>
<path fill="#fadcad" stroke="#fadcad" stroke-width="1.5" d="M312,-222C318,-222 324,-228 324,-234"/>
<path fill="#fadcad" stroke="#fadcad" stroke-width="1.5" d="M324,-246C324,-252 318,-258 312,-258"/>
<polyline fill="none" stroke="#2e3436" stroke-width="1.5" points="312,-258 282,-258 "/>
<path fill="none" stroke="#2e3436" stroke-width="1.5" d="M282,-258C276,-258 270,-252 270,-246"/>
<polyline fill="none" stroke="#2e3436" stroke-width="1.5" points="270,-246 270,-234 "/>
<path fill="none" stroke="#2e3436" stroke-width="1.5" d="M270,-234C270,-228 276,-222 282,-222"/>
<polyline fill="none" stroke="#2e3436" stroke-width="1.5" points="282,-222 312,-222 "/>
<path fill="none" stroke="#2e3436" stroke-width="1.5" d="M312,-222C318,-222 324,-228 324,-234"/>
<polyline fill="none" stroke="#2e3436" stroke-width="1.5" points="324,-234 324,-246 "/>
<path fill="none" stroke="#2e3436" stroke-width="1.5" d="M324,-246C324,-252 318,-258 312,-258"/>
<text text-anchor="middle" x="297" y="-237" font-family="FreeSans" font-size="10.00" fill="#1c2021">Paths</text>
</g>
<!-- Traversal&#45;&gt;Paths -->
<g id="edge24" class="edge"><title>Traversal&#45;&gt;Paths</title>
<path fill="none" stroke="#2e3436" stroke-width="2" d="M286.966,-359.737C286.159,-354.07 285.4,-347.791 285,-342 283.19,-315.817 287.429,-286.022 291.359,-265.425"/>
<polygon fill="#2e3436" stroke="#2e3436" points="292.837,-258.008 294.681,-266.023 292.594,-261.783 291.861,-265.461 291.371,-265.363 290.881,-265.265 291.614,-261.588 288.061,-264.703 292.837,-258.008 292.837,-258.008"/>
<text text-anchor="middle" x="304" y="-333" font-family="FreeSans" font-size="10.00" fill="#1c2021">identifies</text>
</g>
<!-- Algorithm -->
<g id="node22" class="node"><title>Algorithm</title>
<polygon fill="#fadcad" stroke="#fadcad" stroke-width="1.5" points="380,-312 346,-312 334,-300 334,-288 346,-276 380,-276 392,-288 392,-300 380,-312"/>
<path fill="#fadcad" stroke="#fadcad" stroke-width="1.5" d="M346,-312C340,-312 334,-306 334,-300"/>
<path fill="#fadcad" stroke="#fadcad" stroke-width="1.5" d="M334,-288C334,-282 340,-276 346,-276"/>
<path fill="#fadcad" stroke="#fadcad" stroke-width="1.5" d="M380,-276C386,-276 392,-282 392,-288"/>
<path fill="#fadcad" stroke="#fadcad" stroke-width="1.5" d="M392,-300C392,-306 386,-312 380,-312"/>
<polyline fill="none" stroke="#2e3436" stroke-width="1.5" points="380,-312 346,-312 "/>
<path fill="none" stroke="#2e3436" stroke-width="1.5" d="M346,-312C340,-312 334,-306 334,-300"/>
<polyline fill="none" stroke="#2e3436" stroke-width="1.5" points="334,-300 334,-288 "/>
<path fill="none" stroke="#2e3436" stroke-width="1.5" d="M334,-288C334,-282 340,-276 346,-276"/>
<polyline fill="none" stroke="#2e3436" stroke-width="1.5" points="346,-276 380,-276 "/>
<path fill="none" stroke="#2e3436" stroke-width="1.5" d="M380,-276C386,-276 392,-282 392,-288"/>
<polyline fill="none" stroke="#2e3436" stroke-width="1.5" points="392,-288 392,-300 "/>
<path fill="none" stroke="#2e3436" stroke-width="1.5" d="M392,-300C392,-306 386,-312 380,-312"/>
<text text-anchor="middle" x="363" y="-291" font-family="FreeSans" font-size="10.00" fill="#1c2021">Algorithm</text>
</g>
<!-- Traversal&#45;&gt;Algorithm -->
<g id="edge26" class="edge"><title>Traversal&#45;&gt;Algorithm</title>
<path fill="none" stroke="#2e3436" stroke-width="2" d="M312.065,-359.822C318.157,-354.366 324.578,-348.18 330,-342 336.357,-334.754 342.554,-326.25 347.83,-318.429"/>
<polygon fill="#2e3436" stroke="#2e3436" points="352.029,-312.063 350.717,-320.182 350.381,-315.469 348.317,-318.6 347.9,-318.324 347.482,-318.049 349.547,-314.918 345.082,-316.466 352.029,-312.063 352.029,-312.063"/>
<text text-anchor="middle" x="360.5" y="-333" font-family="FreeSans" font-size="10.00" fill="#1c2021">expresses</text>
</g>
<!-- Paths&#45;&gt;Nodes -->
<g id="edge28" class="edge"><title>Paths&#45;&gt;Nodes</title>
<path fill="none" stroke="#2e3436" stroke-width="2" d="M297.374,-221.904C296.843,-206.344 293.963,-183.952 283,-168 257.368,-130.704 205.434,-114.189 170.672,-107.084"/>
<polygon fill="#2e3436" stroke="#2e3436" points="163.099,-105.629 171.101,-103.73 166.875,-105.846 170.558,-106.554 170.464,-107.045 170.369,-107.536 166.687,-106.828 169.827,-110.359 163.099,-105.629 163.099,-105.629"/>
<text text-anchor="middle" x="306" y="-183" font-family="FreeSans" font-size="10.00" fill="#1c2021">order</text>
</g>
</g>
</svg>
