<?xml version="1.0" encoding="UTF-8" standalone="no"?>
<!DOCTYPE svg PUBLIC "-//W3C//DTD SVG 1.1//EN"
 "http://www.w3.org/Graphics/SVG/1.1/DTD/svg11.dtd">
<!-- Generated by graphviz version 2.26.3 (20100126.1600)
 -->
<!-- Title: g Pages: 1 -->
<svg width="145pt" height="128pt"
 viewBox="0.00 0.00 145.00 128.00" xmlns="http://www.w3.org/2000/svg" xmlns:xlink="http://www.w3.org/1999/xlink">
<g id="graph1" class="graph" transform="scale(1 1) rotate(0) translate(4 124)">
<title>g</title>
<polygon fill="white" stroke="white" points="-4,5 -4,-124 142,-124 142,5 -4,5"/>
<!-- A Label -->
<g id="node1" class="node"><title>A Label</title>
<polygon fill="#a8e270" stroke="#a8e270" stroke-width="1.5" points="83,-120 53,-120 41,-108 41,-96 53,-84 83,-84 95,-96 95,-108 83,-120"/>
<path fill="#a8e270" stroke="#a8e270" stroke-width="1.5" d="M53,-120C47,-120 41,-114 41,-108"/>
<path fill="#a8e270" stroke="#a8e270" stroke-width="1.5" d="M41,-96C41,-90 47,-84 53,-84"/>
<path fill="#a8e270" stroke="#a8e270" stroke-width="1.5" d="M83,-84C89,-84 95,-90 95,-96"/>
<path fill="#a8e270" stroke="#a8e270" stroke-width="1.5" d="M95,-108C95,-114 89,-120 83,-120"/>
<polyline fill="none" stroke="#2e3436" stroke-width="1.5" points="83,-120 53,-120 "/>
<path fill="none" stroke="#2e3436" stroke-width="1.5" d="M53,-120C47,-120 41,-114 41,-108"/>
<polyline fill="none" stroke="#2e3436" stroke-width="1.5" points="41,-108 41,-96 "/>
<path fill="none" stroke="#2e3436" stroke-width="1.5" d="M41,-96C41,-90 47,-84 53,-84"/>
<polyline fill="none" stroke="#2e3436" stroke-width="1.5" points="53,-84 83,-84 "/>
<path fill="none" stroke="#2e3436" stroke-width="1.5" d="M83,-84C89,-84 95,-90 95,-96"/>
<polyline fill="none" stroke="#2e3436" stroke-width="1.5" points="95,-96 95,-108 "/>
<path fill="none" stroke="#2e3436" stroke-width="1.5" d="M95,-108C95,-114 89,-120 83,-120"/>
<text text-anchor="middle" x="68" y="-99" font-family="FreeSans" font-size="10.00" fill="#1c2021">A Label</text>
</g>
<!-- Name -->
<g id="node3" class="node"><title>Name</title>
<polygon fill="#fadcad" stroke="#fadcad" stroke-width="1.5" points="42,-36 12,-36 1.42109e-14,-24 7.10543e-15,-12 12,-1.46056e-14 42,-6.71068e-15 54,-12 54,-24 42,-36"/>
<path fill="#fadcad" stroke="#fadcad" stroke-width="1.5" d="M12,-36C6,-36 1.77636e-14,-30 1.42109e-14,-24"/>
<path fill="#fadcad" stroke="#fadcad" stroke-width="1.5" d="M7.10543e-15,-12C3.55271e-15,-6 6,-1.61846e-14 12,-1.46056e-14"/>
<path fill="#fadcad" stroke="#fadcad" stroke-width="1.5" d="M42,-6.71068e-15C48,-5.1317e-15 54,-6 54,-12"/>
<path fill="#fadcad" stroke="#fadcad" stroke-width="1.5" d="M54,-24C54,-30 48,-36 42,-36"/>
<polyline fill="none" stroke="#2e3436" stroke-width="1.5" points="42,-36 12,-36 "/>
<path fill="none" stroke="#2e3436" stroke-width="1.5" d="M12,-36C6,-36 1.77636e-14,-30 1.42109e-14,-24"/>
<polyline fill="none" stroke="#2e3436" stroke-width="1.5" points="1.42109e-14,-24 7.10543e-15,-12 "/>
<path fill="none" stroke="#2e3436" stroke-width="1.5" d="M7.10543e-15,-12C3.55271e-15,-6 6,-1.61846e-14 12,-1.46056e-14"/>
<polyline fill="none" stroke="#2e3436" stroke-width="1.5" points="12,-1.46056e-14 42,-6.71068e-15 "/>
<path fill="none" stroke="#2e3436" stroke-width="1.5" d="M42,-6.71068e-15C48,-5.1317e-15 54,-6 54,-12"/>
<polyline fill="none" stroke="#2e3436" stroke-width="1.5" points="54,-12 54,-24 "/>
<path fill="none" stroke="#2e3436" stroke-width="1.5" d="M54,-24C54,-30 48,-36 42,-36"/>
<text text-anchor="middle" x="27" y="-15" font-family="FreeSans" font-size="10.00" fill="#1c2021">Name</text>
</g>
<!-- A Label&#45;&gt;Name -->
<g id="edge2" class="edge"><title>A Label&#45;&gt;Name</title>
<path fill="none" stroke="#2e3436" stroke-width="2" d="M59.1036,-83.7733C53.3011,-71.8851 45.6492,-56.2081 39.2714,-43.1413"/>
<polygon fill="#2e3436" stroke="#2e3436" points="35.879,-36.1912 42.2018,-41.4508 37.9733,-39.3419 39.6182,-42.7119 39.1688,-42.9312 38.7195,-43.1505 37.0746,-39.7805 36.1358,-44.4116 35.879,-36.1912 35.879,-36.1912"/>
<text text-anchor="middle" x="61.5" y="-57" font-family="FreeSans" font-size="10.00" fill="#1c2021">has a</text>
</g>
<!-- Node -->
<g id="node5" class="node"><title>Node</title>
<polygon fill="#fadcad" stroke="#fadcad" stroke-width="1.5" points="125,-36 95,-36 83,-24 83,-12 95,-1.46056e-14 125,-6.71068e-15 137,-12 137,-24 125,-36"/>
<path fill="#fadcad" stroke="#fadcad" stroke-width="1.5" d="M95,-36C89,-36 83,-30 83,-24"/>
<path fill="#fadcad" stroke="#fadcad" stroke-width="1.5" d="M83,-12C83,-6 89,-1.61846e-14 95,-1.46056e-14"/>
<path fill="#fadcad" stroke="#fadcad" stroke-width="1.5" d="M125,-6.71068e-15C131,-5.1317e-15 137,-6 137,-12"/>
<path fill="#fadcad" stroke="#fadcad" stroke-width="1.5" d="M137,-24C137,-30 131,-36 125,-36"/>
<polyline fill="none" stroke="#2e3436" stroke-width="1.5" points="125,-36 95,-36 "/>
<path fill="none" stroke="#2e3436" stroke-width="1.5" d="M95,-36C89,-36 83,-30 83,-24"/>
<polyline fill="none" stroke="#2e3436" stroke-width="1.5" points="83,-24 83,-12 "/>
<path fill="none" stroke="#2e3436" stroke-width="1.5" d="M83,-12C83,-6 89,-1.61846e-14 95,-1.46056e-14"/>
<polyline fill="none" stroke="#2e3436" stroke-width="1.5" points="95,-1.46056e-14 125,-6.71068e-15 "/>
<path fill="none" stroke="#2e3436" stroke-width="1.5" d="M125,-6.71068e-15C131,-5.1317e-15 137,-6 137,-12"/>
<polyline fill="none" stroke="#2e3436" stroke-width="1.5" points="137,-12 137,-24 "/>
<path fill="none" stroke="#2e3436" stroke-width="1.5" d="M137,-24C137,-30 131,-36 125,-36"/>
<text text-anchor="middle" x="110" y="-15" font-family="FreeSans" font-size="10.00" fill="#1c2021">Node</text>
</g>
<!-- A Label&#45;&gt;Node -->
<g id="edge4" class="edge"><title>A Label&#45;&gt;Node</title>
<path fill="none" stroke="#2e3436" stroke-width="2" d="M77.1134,-83.7733C83.0574,-71.8851 90.896,-56.2081 97.4293,-43.1413"/>
<polygon fill="#2e3436" stroke="#2e3436" points="100.904,-36.1912 100.569,-44.4088 99.6745,-39.7689 97.9975,-43.123 97.5503,-42.8994 97.103,-42.6758 98.7801,-39.3217 94.5316,-41.39 100.904,-36.1912 100.904,-36.1912"/>
<text text-anchor="middle" x="105.5" y="-57" font-family="FreeSans" font-size="10.00" fill="#1c2021">groups</text>
</g>
</g>
</svg>
