<?xml version="1.0" encoding="UTF-8" standalone="no"?>
<!DOCTYPE svg PUBLIC "-//W3C//DTD SVG 1.1//EN"
 "http://www.w3.org/Graphics/SVG/1.1/DTD/svg11.dtd">
<!-- Generated by graphviz version 2.26.3 (20100126.1600)
 -->
<!-- Title: g Pages: 1 -->
<svg width="354pt" height="320pt"
 viewBox="0.00 0.00 354.00 320.00" xmlns="http://www.w3.org/2000/svg" xmlns:xlink="http://www.w3.org/1999/xlink">
<g id="graph1" class="graph" transform="scale(1 1) rotate(0) translate(4 316)">
<title>g</title>
<polygon fill="white" stroke="white" points="-4,5 -4,-316 351,-316 351,5 -4,5"/>
<!-- Traversal -->
<g id="node1" class="node"><title>Traversal</title>
<polygon fill="#a8e270" stroke="#a8e270" stroke-width="1.5" points="260,-312 228,-312 216,-300 216,-288 228,-276 260,-276 272,-288 272,-300 260,-312"/>
<path fill="#a8e270" stroke="#a8e270" stroke-width="1.5" d="M228,-312C222,-312 216,-306 216,-300"/>
<path fill="#a8e270" stroke="#a8e270" stroke-width="1.5" d="M216,-288C216,-282 222,-276 228,-276"/>
<path fill="#a8e270" stroke="#a8e270" stroke-width="1.5" d="M260,-276C266,-276 272,-282 272,-288"/>
<path fill="#a8e270" stroke="#a8e270" stroke-width="1.5" d="M272,-300C272,-306 266,-312 260,-312"/>
<polyline fill="none" stroke="#2e3436" stroke-width="1.5" points="260,-312 228,-312 "/>
<path fill="none" stroke="#2e3436" stroke-width="1.5" d="M228,-312C222,-312 216,-306 216,-300"/>
<polyline fill="none" stroke="#2e3436" stroke-width="1.5" points="216,-300 216,-288 "/>
<path fill="none" stroke="#2e3436" stroke-width="1.5" d="M216,-288C216,-282 222,-276 228,-276"/>
<polyline fill="none" stroke="#2e3436" stroke-width="1.5" points="228,-276 260,-276 "/>
<path fill="none" stroke="#2e3436" stroke-width="1.5" d="M260,-276C266,-276 272,-282 272,-288"/>
<polyline fill="none" stroke="#2e3436" stroke-width="1.5" points="272,-288 272,-300 "/>
<path fill="none" stroke="#2e3436" stroke-width="1.5" d="M272,-300C272,-306 266,-312 260,-312"/>
<text text-anchor="middle" x="244" y="-291" font-family="FreeSans" font-size="10.00" fill="#1c2021">Traversal</text>
</g>
<!-- Graph -->
<g id="node2" class="node"><title>Graph</title>
<polygon fill="#95bbe3" stroke="#95bbe3" stroke-width="1.5" points="150,-228 120,-228 108,-216 108,-204 120,-192 150,-192 162,-204 162,-216 150,-228"/>
<path fill="#95bbe3" stroke="#95bbe3" stroke-width="1.5" d="M120,-228C114,-228 108,-222 108,-216"/>
<path fill="#95bbe3" stroke="#95bbe3" stroke-width="1.5" d="M108,-204C108,-198 114,-192 120,-192"/>
<path fill="#95bbe3" stroke="#95bbe3" stroke-width="1.5" d="M150,-192C156,-192 162,-198 162,-204"/>
<path fill="#95bbe3" stroke="#95bbe3" stroke-width="1.5" d="M162,-216C162,-222 156,-228 150,-228"/>
<polyline fill="none" stroke="#2e3436" stroke-width="1.5" points="150,-228 120,-228 "/>
<path fill="none" stroke="#2e3436" stroke-width="1.5" d="M120,-228C114,-228 108,-222 108,-216"/>
<polyline fill="none" stroke="#2e3436" stroke-width="1.5" points="108,-216 108,-204 "/>
<path fill="none" stroke="#2e3436" stroke-width="1.5" d="M108,-204C108,-198 114,-192 120,-192"/>
<polyline fill="none" stroke="#2e3436" stroke-width="1.5" points="120,-192 150,-192 "/>
<path fill="none" stroke="#2e3436" stroke-width="1.5" d="M150,-192C156,-192 162,-198 162,-204"/>
<polyline fill="none" stroke="#2e3436" stroke-width="1.5" points="162,-204 162,-216 "/>
<path fill="none" stroke="#2e3436" stroke-width="1.5" d="M162,-216C162,-222 156,-228 150,-228"/>
<text text-anchor="middle" x="135" y="-207" font-family="FreeSans" font-size="10.00" fill="#1c2021">Graph</text>
</g>
<!-- Traversal&#45;&gt;Graph -->
<g id="edge8" class="edge"><title>Traversal&#45;&gt;Graph</title>
<path fill="none" stroke="#a40000" stroke-width="2" d="M215.875,-285.096C200.273,-279.173 181.212,-270.217 167,-258 159.524,-251.573 153.066,-242.992 147.948,-234.863"/>
<polygon fill="#a40000" stroke="#a40000" points="143.972,-228.198 150.713,-232.91 146.323,-231.163 148.244,-234.383 147.815,-234.639 147.385,-234.895 145.464,-231.675 144.916,-236.368 143.972,-228.198 143.972,-228.198"/>
<text text-anchor="middle" x="187.5" y="-249" font-family="FreeSans" font-size="10.00" fill="#a40000">navigates</text>
</g>
<!-- Paths -->
<g id="node3" class="node"><title>Paths</title>
<polygon fill="#95bbe3" stroke="#95bbe3" stroke-width="1.5" points="265,-174 235,-174 223,-162 223,-150 235,-138 265,-138 277,-150 277,-162 265,-174"/>
<path fill="#95bbe3" stroke="#95bbe3" stroke-width="1.5" d="M235,-174C229,-174 223,-168 223,-162"/>
<path fill="#95bbe3" stroke="#95bbe3" stroke-width="1.5" d="M223,-150C223,-144 229,-138 235,-138"/>
<path fill="#95bbe3" stroke="#95bbe3" stroke-width="1.5" d="M265,-138C271,-138 277,-144 277,-150"/>
<path fill="#95bbe3" stroke="#95bbe3" stroke-width="1.5" d="M277,-162C277,-168 271,-174 265,-174"/>
<polyline fill="none" stroke="#2e3436" stroke-width="1.5" points="265,-174 235,-174 "/>
<path fill="none" stroke="#2e3436" stroke-width="1.5" d="M235,-174C229,-174 223,-168 223,-162"/>
<polyline fill="none" stroke="#2e3436" stroke-width="1.5" points="223,-162 223,-150 "/>
<path fill="none" stroke="#2e3436" stroke-width="1.5" d="M223,-150C223,-144 229,-138 235,-138"/>
<polyline fill="none" stroke="#2e3436" stroke-width="1.5" points="235,-138 265,-138 "/>
<path fill="none" stroke="#2e3436" stroke-width="1.5" d="M265,-138C271,-138 277,-144 277,-150"/>
<polyline fill="none" stroke="#2e3436" stroke-width="1.5" points="277,-150 277,-162 "/>
<path fill="none" stroke="#2e3436" stroke-width="1.5" d="M277,-162C277,-168 271,-174 265,-174"/>
<text text-anchor="middle" x="250" y="-153" font-family="FreeSans" font-size="10.00" fill="#1c2021">Paths</text>
</g>
<!-- Traversal&#45;&gt;Paths -->
<g id="edge10" class="edge"><title>Traversal&#45;&gt;Paths</title>
<path fill="none" stroke="#a40000" stroke-width="2" d="M240.966,-275.737C240.159,-270.07 239.4,-263.791 239,-258 237.192,-231.845 241.1,-202.046 244.748,-181.44"/>
<polygon fill="#a40000" stroke="#a40000" points="246.121,-174.02 248.075,-182.008 245.931,-177.798 245.248,-181.485 244.757,-181.394 244.265,-181.303 244.947,-177.616 241.438,-180.78 246.121,-174.02 246.121,-174.02"/>
<text text-anchor="middle" x="258" y="-249" font-family="FreeSans" font-size="10.00" fill="#a40000">identifies</text>
</g>
<!-- Algorithm -->
<g id="node4" class="node"><title>Algorithm</title>
<polygon fill="#95bbe3" stroke="#95bbe3" stroke-width="1.5" points="334,-228 300,-228 288,-216 288,-204 300,-192 334,-192 346,-204 346,-216 334,-228"/>
<path fill="#95bbe3" stroke="#95bbe3" stroke-width="1.5" d="M300,-228C294,-228 288,-222 288,-216"/>
<path fill="#95bbe3" stroke="#95bbe3" stroke-width="1.5" d="M288,-204C288,-198 294,-192 300,-192"/>
<path fill="#95bbe3" stroke="#95bbe3" stroke-width="1.5" d="M334,-192C340,-192 346,-198 346,-204"/>
<path fill="#95bbe3" stroke="#95bbe3" stroke-width="1.5" d="M346,-216C346,-222 340,-228 334,-228"/>
<polyline fill="none" stroke="#2e3436" stroke-width="1.5" points="334,-228 300,-228 "/>
<path fill="none" stroke="#2e3436" stroke-width="1.5" d="M300,-228C294,-228 288,-222 288,-216"/>
<polyline fill="none" stroke="#2e3436" stroke-width="1.5" points="288,-216 288,-204 "/>
<path fill="none" stroke="#2e3436" stroke-width="1.5" d="M288,-204C288,-198 294,-192 300,-192"/>
<polyline fill="none" stroke="#2e3436" stroke-width="1.5" points="300,-192 334,-192 "/>
<path fill="none" stroke="#2e3436" stroke-width="1.5" d="M334,-192C340,-192 346,-198 346,-204"/>
<polyline fill="none" stroke="#2e3436" stroke-width="1.5" points="346,-204 346,-216 "/>
<path fill="none" stroke="#2e3436" stroke-width="1.5" d="M346,-216C346,-222 340,-228 334,-228"/>
<text text-anchor="middle" x="317" y="-207" font-family="FreeSans" font-size="10.00" fill="#1c2021">Algorithm</text>
</g>
<!-- Traversal&#45;&gt;Algorithm -->
<g id="edge12" class="edge"><title>Traversal&#45;&gt;Algorithm</title>
<path fill="none" stroke="#a40000" stroke-width="2" d="M266.065,-275.822C272.157,-270.366 278.578,-264.18 284,-258 290.357,-250.754 296.554,-242.25 301.83,-234.429"/>
<polygon fill="#a40000" stroke="#a40000" points="306.029,-228.063 304.717,-236.182 304.381,-231.469 302.317,-234.6 301.9,-234.324 301.482,-234.049 303.547,-230.918 299.082,-232.466 306.029,-228.063 306.029,-228.063"/>
<text text-anchor="middle" x="314.5" y="-249" font-family="FreeSans" font-size="10.00" fill="#a40000">expresses</text>
</g>
<!-- Relationships -->
<g id="node5" class="node"><title>Relationships</title>
<polygon fill="#fadcad" stroke="#fadcad" stroke-width="1.5" points="62,-120 12,-120 2.36848e-14,-108 1.18424e-14,-96 12,-84 62,-84 74,-96 74,-108 62,-120"/>
<path fill="#fadcad" stroke="#fadcad" stroke-width="1.5" d="M12,-120C6,-120 2.96059e-14,-114 2.36848e-14,-108"/>
<path fill="#fadcad" stroke="#fadcad" stroke-width="1.5" d="M1.18424e-14,-96C5.92119e-15,-90 6,-84 12,-84"/>
<path fill="#fadcad" stroke="#fadcad" stroke-width="1.5" d="M62,-84C68,-84 74,-90 74,-96"/>
<path fill="#fadcad" stroke="#fadcad" stroke-width="1.5" d="M74,-108C74,-114 68,-120 62,-120"/>
<polyline fill="none" stroke="#2e3436" stroke-width="1.5" points="62,-120 12,-120 "/>
<path fill="none" stroke="#2e3436" stroke-width="1.5" d="M12,-120C6,-120 2.96059e-14,-114 2.36848e-14,-108"/>
<polyline fill="none" stroke="#2e3436" stroke-width="1.5" points="2.36848e-14,-108 1.18424e-14,-96 "/>
<path fill="none" stroke="#2e3436" stroke-width="1.5" d="M1.18424e-14,-96C5.92119e-15,-90 6,-84 12,-84"/>
<polyline fill="none" stroke="#2e3436" stroke-width="1.5" points="12,-84 62,-84 "/>
<path fill="none" stroke="#2e3436" stroke-width="1.5" d="M62,-84C68,-84 74,-90 74,-96"/>
<polyline fill="none" stroke="#2e3436" stroke-width="1.5" points="74,-96 74,-108 "/>
<path fill="none" stroke="#2e3436" stroke-width="1.5" d="M74,-108C74,-114 68,-120 62,-120"/>
<text text-anchor="middle" x="37" y="-99" font-family="FreeSans" font-size="10.00" fill="#1c2021">Relationships</text>
</g>
<!-- Graph&#45;&gt;Relationships -->
<g id="edge6" class="edge"><title>Graph&#45;&gt;Relationships</title>
<path fill="none" stroke="#2e3436" stroke-width="2" d="M107.993,-206.227C87.9616,-201.943 61.6794,-192.905 47,-174 37.0082,-161.132 34.5507,-142.933 34.5696,-128.052"/>
<polygon fill="#2e3436" stroke="#2e3436" points="34.8028,-120.181 37.9541,-127.778 35.1915,-123.944 35.0804,-127.692 34.5806,-127.678 34.0808,-127.663 34.1919,-123.914 31.2071,-127.578 34.8028,-120.181 34.8028,-120.181"/>
<text text-anchor="middle" x="78.5" y="-153" font-family="FreeSans" font-size="10.00" fill="#1c2021">records data in</text>
</g>
<!-- Nodes -->
<g id="node7" class="node"><title>Nodes</title>
<polygon fill="#fadcad" stroke="#fadcad" stroke-width="1.5" points="207,-36 177,-36 165,-24 165,-12 177,-1.46056e-14 207,-6.71068e-15 219,-12 219,-24 207,-36"/>
<path fill="#fadcad" stroke="#fadcad" stroke-width="1.5" d="M177,-36C171,-36 165,-30 165,-24"/>
<path fill="#fadcad" stroke="#fadcad" stroke-width="1.5" d="M165,-12C165,-6 171,-1.61846e-14 177,-1.46056e-14"/>
<path fill="#fadcad" stroke="#fadcad" stroke-width="1.5" d="M207,-6.71068e-15C213,-5.1317e-15 219,-6 219,-12"/>
<path fill="#fadcad" stroke="#fadcad" stroke-width="1.5" d="M219,-24C219,-30 213,-36 207,-36"/>
<polyline fill="none" stroke="#2e3436" stroke-width="1.5" points="207,-36 177,-36 "/>
<path fill="none" stroke="#2e3436" stroke-width="1.5" d="M177,-36C171,-36 165,-30 165,-24"/>
<polyline fill="none" stroke="#2e3436" stroke-width="1.5" points="165,-24 165,-12 "/>
<path fill="none" stroke="#2e3436" stroke-width="1.5" d="M165,-12C165,-6 171,-1.61846e-14 177,-1.46056e-14"/>
<polyline fill="none" stroke="#2e3436" stroke-width="1.5" points="177,-1.46056e-14 207,-6.71068e-15 "/>
<path fill="none" stroke="#2e3436" stroke-width="1.5" d="M207,-6.71068e-15C213,-5.1317e-15 219,-6 219,-12"/>
<polyline fill="none" stroke="#2e3436" stroke-width="1.5" points="219,-12 219,-24 "/>
<path fill="none" stroke="#2e3436" stroke-width="1.5" d="M219,-24C219,-30 213,-36 207,-36"/>
<text text-anchor="middle" x="192" y="-15" font-family="FreeSans" font-size="10.00" fill="#1c2021">Nodes</text>
</g>
<!-- Graph&#45;&gt;Nodes -->
<g id="edge4" class="edge"><title>Graph&#45;&gt;Nodes</title>
<path fill="none" stroke="#2e3436" stroke-width="2" d="M134.423,-191.886C134.197,-166.868 135.86,-120.674 149,-84 154.332,-69.1182 163.616,-54.2193 172.196,-42.3529"/>
<polygon fill="#2e3436" stroke="#2e3436" points="176.86,-36.0918 175.086,-44.1226 175.021,-39.3977 172.781,-42.4049 172.38,-42.1062 171.979,-41.8075 174.219,-38.8003 169.673,-40.0899 176.86,-36.0918 176.86,-36.0918"/>
<text text-anchor="middle" x="180.5" y="-99" font-family="FreeSans" font-size="10.00" fill="#1c2021">records data in</text>
</g>
<!-- Paths&#45;&gt;Nodes -->
<g id="edge14" class="edge"><title>Paths&#45;&gt;Nodes</title>
<path fill="none" stroke="#2e3436" stroke-width="2" d="M242.418,-137.959C232.214,-113.681 214.017,-70.3854 202.501,-42.9854"/>
<polygon fill="#2e3436" stroke="#2e3436" points="199.584,-36.0455 205.602,-41.652 201.498,-39.3089 202.951,-42.7659 202.49,-42.9597 202.029,-43.1534 200.576,-39.6963 199.379,-44.2674 199.584,-36.0455 199.584,-36.0455"/>
<text text-anchor="middle" x="245" y="-99" font-family="FreeSans" font-size="10.00" fill="#1c2021">order</text>
</g>
<!-- Relationships&#45;&gt;Nodes -->
<g id="edge2" class="edge"><title>Relationships&#45;&gt;Nodes</title>
<path fill="none" stroke="#2e3436" stroke-width="2" d="M46.8066,-83.733C53.0754,-73.644 62.0754,-61.644 73,-54 98.1625,-36.3935 132.114,-27.2376 157.312,-22.5774"/>
<polygon fill="#2e3436" stroke="#2e3436" points="164.832,-21.2711 158.02,-25.88 161.223,-22.4056 157.528,-23.0475 157.443,-22.5548 157.357,-22.0622 161.052,-21.4204 156.865,-19.2296 164.832,-21.2711 164.832,-21.2711"/>
<text text-anchor="middle" x="91.5" y="-57" font-family="FreeSans" font-size="10.00" fill="#1c2021">organize</text>
</g>
</g>
</svg>
