<?xml version="1.0" encoding="UTF-8" standalone="no"?>
<!DOCTYPE svg PUBLIC "-//W3C//DTD SVG 1.1//EN"
 "http://www.w3.org/Graphics/SVG/1.1/DTD/svg11.dtd">
<!-- Generated by graphviz version 2.26.3 (20100126.1600)
 -->
<!-- Title: g Pages: 1 -->
<svg width="207pt" height="358pt"
 viewBox="0.00 0.00 206.82 358.00" xmlns="http://www.w3.org/2000/svg" xmlns:xlink="http://www.w3.org/1999/xlink">
<g id="graph1" class="graph" transform="scale(1 1) rotate(0) translate(4 354)">
<title>g</title>
<polygon fill="white" stroke="white" points="-4,5 -4,-354 203.818,-354 203.818,5 -4,5"/>
<!-- A Property -->
<g id="node1" class="node"><title>A Property</title>
<polygon fill="#a8e270" stroke="#a8e270" stroke-width="1.5" points="145.613,-350 107.613,-350 95.613,-338 95.613,-326 107.613,-314 145.613,-314 157.613,-326 157.613,-338 145.613,-350"/>
<path fill="#a8e270" stroke="#a8e270" stroke-width="1.5" d="M107.613,-350C101.613,-350 95.613,-344 95.613,-338"/>
<path fill="#a8e270" stroke="#a8e270" stroke-width="1.5" d="M95.613,-326C95.613,-320 101.613,-314 107.613,-314"/>
<path fill="#a8e270" stroke="#a8e270" stroke-width="1.5" d="M145.613,-314C151.613,-314 157.613,-320 157.613,-326"/>
<path fill="#a8e270" stroke="#a8e270" stroke-width="1.5" d="M157.613,-338C157.613,-344 151.613,-350 145.613,-350"/>
<polyline fill="none" stroke="#2e3436" stroke-width="1.5" points="145.613,-350 107.613,-350 "/>
<path fill="none" stroke="#2e3436" stroke-width="1.5" d="M107.613,-350C101.613,-350 95.613,-344 95.613,-338"/>
<polyline fill="none" stroke="#2e3436" stroke-width="1.5" points="95.613,-338 95.613,-326 "/>
<path fill="none" stroke="#2e3436" stroke-width="1.5" d="M95.613,-326C95.613,-320 101.613,-314 107.613,-314"/>
<polyline fill="none" stroke="#2e3436" stroke-width="1.5" points="107.613,-314 145.613,-314 "/>
<path fill="none" stroke="#2e3436" stroke-width="1.5" d="M145.613,-314C151.613,-314 157.613,-320 157.613,-326"/>
<polyline fill="none" stroke="#2e3436" stroke-width="1.5" points="157.613,-326 157.613,-338 "/>
<path fill="none" stroke="#2e3436" stroke-width="1.5" d="M157.613,-338C157.613,-344 151.613,-350 145.613,-350"/>
<text text-anchor="middle" x="126.613" y="-329" font-family="FreeSans" font-size="10.00" fill="#1c2021">A Property</text>
</g>
<!-- Key -->
<g id="node3" class="node"><title>Key</title>
<polygon fill="#fadcad" stroke="#fadcad" stroke-width="1.5" points="180.613,-266 150.613,-266 138.613,-254 138.613,-242 150.613,-230 180.613,-230 192.613,-242 192.613,-254 180.613,-266"/>
<path fill="#fadcad" stroke="#fadcad" stroke-width="1.5" d="M150.613,-266C144.613,-266 138.613,-260 138.613,-254"/>
<path fill="#fadcad" stroke="#fadcad" stroke-width="1.5" d="M138.613,-242C138.613,-236 144.613,-230 150.613,-230"/>
<path fill="#fadcad" stroke="#fadcad" stroke-width="1.5" d="M180.613,-230C186.613,-230 192.613,-236 192.613,-242"/>
<path fill="#fadcad" stroke="#fadcad" stroke-width="1.5" d="M192.613,-254C192.613,-260 186.613,-266 180.613,-266"/>
<polyline fill="none" stroke="#2e3436" stroke-width="1.5" points="180.613,-266 150.613,-266 "/>
<path fill="none" stroke="#2e3436" stroke-width="1.5" d="M150.613,-266C144.613,-266 138.613,-260 138.613,-254"/>
<polyline fill="none" stroke="#2e3436" stroke-width="1.5" points="138.613,-254 138.613,-242 "/>
<path fill="none" stroke="#2e3436" stroke-width="1.5" d="M138.613,-242C138.613,-236 144.613,-230 150.613,-230"/>
<polyline fill="none" stroke="#2e3436" stroke-width="1.5" points="150.613,-230 180.613,-230 "/>
<path fill="none" stroke="#2e3436" stroke-width="1.5" d="M180.613,-230C186.613,-230 192.613,-236 192.613,-242"/>
<polyline fill="none" stroke="#2e3436" stroke-width="1.5" points="192.613,-242 192.613,-254 "/>
<path fill="none" stroke="#2e3436" stroke-width="1.5" d="M192.613,-254C192.613,-260 186.613,-266 180.613,-266"/>
<text text-anchor="middle" x="165.613" y="-245" font-family="FreeSans" font-size="10.00" fill="#1c2021">Key</text>
</g>
<!-- A Property&#45;&gt;Key -->
<g id="edge2" class="edge"><title>A Property&#45;&gt;Key</title>
<path fill="none" stroke="#2e3436" stroke-width="2" d="M135.075,-313.773C140.595,-301.885 147.874,-286.208 153.94,-273.141"/>
<polygon fill="#2e3436" stroke="#2e3436" points="157.167,-266.191 157.07,-274.415 156.041,-269.803 154.462,-273.204 154.009,-272.994 153.555,-272.783 155.134,-269.382 150.948,-271.572 157.167,-266.191 157.167,-266.191"/>
<text text-anchor="middle" x="159.113" y="-287" font-family="FreeSans" font-size="10.00" fill="#1c2021">has a</text>
</g>
<!-- Value -->
<g id="node7" class="node"><title>Value</title>
<polygon fill="#fadcad" stroke="#fadcad" stroke-width="1.5" points="97.613,-266 67.613,-266 55.613,-254 55.613,-242 67.613,-230 97.613,-230 109.613,-242 109.613,-254 97.613,-266"/>
<path fill="#fadcad" stroke="#fadcad" stroke-width="1.5" d="M67.613,-266C61.613,-266 55.613,-260 55.613,-254"/>
<path fill="#fadcad" stroke="#fadcad" stroke-width="1.5" d="M55.613,-242C55.613,-236 61.613,-230 67.613,-230"/>
<path fill="#fadcad" stroke="#fadcad" stroke-width="1.5" d="M97.613,-230C103.613,-230 109.613,-236 109.613,-242"/>
<path fill="#fadcad" stroke="#fadcad" stroke-width="1.5" d="M109.613,-254C109.613,-260 103.613,-266 97.613,-266"/>
<polyline fill="none" stroke="#2e3436" stroke-width="1.5" points="97.613,-266 67.613,-266 "/>
<path fill="none" stroke="#2e3436" stroke-width="1.5" d="M67.613,-266C61.613,-266 55.613,-260 55.613,-254"/>
<polyline fill="none" stroke="#2e3436" stroke-width="1.5" points="55.613,-254 55.613,-242 "/>
<path fill="none" stroke="#2e3436" stroke-width="1.5" d="M55.613,-242C55.613,-236 61.613,-230 67.613,-230"/>
<polyline fill="none" stroke="#2e3436" stroke-width="1.5" points="67.613,-230 97.613,-230 "/>
<path fill="none" stroke="#2e3436" stroke-width="1.5" d="M97.613,-230C103.613,-230 109.613,-236 109.613,-242"/>
<polyline fill="none" stroke="#2e3436" stroke-width="1.5" points="109.613,-242 109.613,-254 "/>
<path fill="none" stroke="#2e3436" stroke-width="1.5" d="M109.613,-254C109.613,-260 103.613,-266 97.613,-266"/>
<text text-anchor="middle" x="82.613" y="-245" font-family="FreeSans" font-size="10.00" fill="#1c2021">Value</text>
</g>
<!-- A Property&#45;&gt;Value -->
<g id="edge6" class="edge"><title>A Property&#45;&gt;Value</title>
<path fill="none" stroke="#2e3436" stroke-width="2" d="M117.066,-313.773C110.839,-301.885 102.627,-286.208 95.7823,-273.141"/>
<polygon fill="#2e3436" stroke="#2e3436" points="92.1417,-266.191 98.6115,-271.269 94.3247,-269.281 96.0648,-272.603 95.6219,-272.835 95.1789,-273.067 93.4389,-269.745 92.6322,-274.401 92.1417,-266.191 92.1417,-266.191"/>
<text text-anchor="middle" x="118.113" y="-287" font-family="FreeSans" font-size="10.00" fill="#1c2021">has a</text>
</g>
<!-- Primitive -->
<g id="node5" class="node"><title>Primitive</title>
<polygon fill="#fadcad" stroke="#fadcad" stroke-width="1.5" points="54.613,-1 134.613,-1 146.613,-13 146.613,-169 134.613,-181 54.613,-181 42.613,-169 42.613,-13 54.613,-1"/>
<path fill="#fadcad" stroke="#fadcad" stroke-width="1.5" d="M134.613,-1C140.613,-1 146.613,-7 146.613,-13"/>
<path fill="#fadcad" stroke="#fadcad" stroke-width="1.5" d="M146.613,-169C146.613,-175 140.613,-181 134.613,-181"/>
<path fill="#fadcad" stroke="#fadcad" stroke-width="1.5" d="M54.613,-181C48.613,-181 42.613,-175 42.613,-169"/>
<path fill="#fadcad" stroke="#fadcad" stroke-width="1.5" d="M42.613,-13C42.613,-7 48.613,-1 54.613,-1"/>
<polyline fill="none" stroke="#2e3436" stroke-width="1.5" points="54.613,-1 134.613,-1 "/>
<path fill="none" stroke="#2e3436" stroke-width="1.5" d="M134.613,-1C140.613,-1 146.613,-7 146.613,-13"/>
<polyline fill="none" stroke="#2e3436" stroke-width="1.5" points="146.613,-13 146.613,-169 "/>
<path fill="none" stroke="#2e3436" stroke-width="1.5" d="M146.613,-169C146.613,-175 140.613,-181 134.613,-181"/>
<polyline fill="none" stroke="#2e3436" stroke-width="1.5" points="134.613,-181 54.613,-181 "/>
<path fill="none" stroke="#2e3436" stroke-width="1.5" d="M54.613,-181C48.613,-181 42.613,-175 42.613,-169"/>
<polyline fill="none" stroke="#2e3436" stroke-width="1.5" points="42.613,-169 42.613,-13 "/>
<path fill="none" stroke="#2e3436" stroke-width="1.5" d="M42.613,-13C42.613,-7 48.613,-1 54.613,-1"/>
<text text-anchor="middle" x="69.613" y="-88" font-family="FreeSans" font-size="10.00" fill="#1c2021">Primitive</text>
<polyline fill="none" stroke="#2e3436" stroke-width="1.5" points="96.613,-1 96.613,-181 "/>
<text text-anchor="middle" x="121.613" y="-168" font-family="FreeSans" font-size="10.00" fill="#1c2021">boolean</text>
<polyline fill="none" stroke="#2e3436" stroke-width="1.5" points="96.613,-161 146.613,-161 "/>
<text text-anchor="middle" x="121.613" y="-148" font-family="FreeSans" font-size="10.00" fill="#1c2021">byte</text>
<polyline fill="none" stroke="#2e3436" stroke-width="1.5" points="96.613,-141 146.613,-141 "/>
<text text-anchor="middle" x="121.613" y="-128" font-family="FreeSans" font-size="10.00" fill="#1c2021">short</text>
<polyline fill="none" stroke="#2e3436" stroke-width="1.5" points="96.613,-121 146.613,-121 "/>
<text text-anchor="middle" x="121.613" y="-108" font-family="FreeSans" font-size="10.00" fill="#1c2021">int</text>
<polyline fill="none" stroke="#2e3436" stroke-width="1.5" points="96.613,-101 146.613,-101 "/>
<text text-anchor="middle" x="121.613" y="-88" font-family="FreeSans" font-size="10.00" fill="#1c2021">long</text>
<polyline fill="none" stroke="#2e3436" stroke-width="1.5" points="96.613,-81 146.613,-81 "/>
<text text-anchor="middle" x="121.613" y="-68" font-family="FreeSans" font-size="10.00" fill="#1c2021">float</text>
<polyline fill="none" stroke="#2e3436" stroke-width="1.5" points="96.613,-61 146.613,-61 "/>
<text text-anchor="middle" x="121.613" y="-48" font-family="FreeSans" font-size="10.00" fill="#1c2021">double</text>
<polyline fill="none" stroke="#2e3436" stroke-width="1.5" points="96.613,-41 146.613,-41 "/>
<text text-anchor="middle" x="121.613" y="-28" font-family="FreeSans" font-size="10.00" fill="#1c2021">char</text>
<polyline fill="none" stroke="#2e3436" stroke-width="1.5" points="96.613,-21 146.613,-21 "/>
<text text-anchor="middle" x="121.613" y="-8" font-family="FreeSans" font-size="10.00" fill="#1c2021">String</text>
</g>
<!-- Key&#45;&gt;Primitive -->
<g id="edge4" class="edge"><title>Key&#45;&gt;Primitive:String</title>
<path fill="none" stroke="#2e3436" stroke-width="2" d="M170.543,-229.646C187.708,-176.848 231.49,-21.152 154.451,-11.4725"/>
<polygon fill="#2e3436" stroke="#2e3436" points="146.613,-11 154.303,-8.08257 150.386,-10.7266 154.13,-10.9524 154.099,-11.4515 154.069,-11.9505 150.326,-11.7248 153.896,-14.8203 146.613,-11 146.613,-11"/>
<text text-anchor="middle" x="186.113" y="-203" font-family="FreeSans" font-size="10.00" fill="#1c2021">is a</text>
</g>
<!-- Value&#45;&gt;Primitive -->
<g id="edge8" class="edge"><title>Value&#45;&gt;Primitive</title>
<path fill="none" stroke="#2e3436" stroke-width="2" d="M83.9896,-229.99C84.8096,-219.261 85.922,-204.708 87.1191,-189.045"/>
<polygon fill="#2e3436" stroke="#2e3436" points="87.7127,-181.279 90.5062,-189.015 87.9254,-185.056 87.6396,-188.795 87.141,-188.757 86.6425,-188.719 86.9283,-184.98 83.7759,-188.5 87.7127,-181.279 87.7127,-181.279"/>
<text text-anchor="middle" x="104.113" y="-203" font-family="FreeSans" font-size="10.00" fill="#1c2021">can be a</text>
</g>
<!-- Value&#45;&gt;Primitive -->
<g id="edge10" class="edge"><title>Value&#45;&gt;Primitive</title>
<path fill="none" stroke="#2e3436" stroke-width="2" d="M55.1559,-243.604C28.191,-237.778 -7.65927,-225.153 1.61304,-200 9.23763,-179.317 22.7275,-159.892 37.1083,-143.332"/>
<polygon fill="#2e3436" stroke="#2e3436" points="42.4376,-137.364 39.9596,-145.206 40.3129,-140.494 37.8152,-143.291 37.4422,-142.958 37.0693,-142.625 39.567,-139.828 34.9248,-140.71 42.4376,-137.364 42.4376,-137.364"/>
<text text-anchor="middle" x="39.613" y="-203" font-family="FreeSans" font-size="10.00" fill="#1c2021">can be an array of</text>
</g>
</g>
</svg>
