<?xml version="1.0" encoding="UTF-8" standalone="no"?>
<!DOCTYPE svg PUBLIC "-//W3C//DTD SVG 1.1//EN"
 "http://www.w3.org/Graphics/SVG/1.1/DTD/svg11.dtd">
<!-- Generated by graphviz version 2.26.3 (20100126.1600)
 -->
<!-- Title: g Pages: 1 -->
<svg width="422pt" height="44pt"
 viewBox="0.00 0.00 422.00 44.00" xmlns="http://www.w3.org/2000/svg" xmlns:xlink="http://www.w3.org/1999/xlink">
<g id="graph1" class="graph" transform="scale(1 1) rotate(0) translate(4 40)">
<title>g</title>
<polygon fill="white" stroke="white" points="-4,5 -4,-40 419,-40 419,5 -4,5"/>
<!-- START -->
<g id="node1" class="node"><title>START</title>
<polygon fill="#ffffff" stroke="#ffffff" stroke-width="1.5" points="42,-36 12,-36 1.42109e-14,-24 7.10543e-15,-12 12,-1.46056e-14 42,-6.71068e-15 54,-12 54,-24 42,-36"/>
<path fill="#ffffff" stroke="#ffffff" stroke-width="1.5" d="M12,-36C6,-36 1.77636e-14,-30 1.42109e-14,-24"/>
<path fill="#ffffff" stroke="#ffffff" stroke-width="1.5" d="M7.10543e-15,-12C3.55271e-15,-6 6,-1.61846e-14 12,-1.46056e-14"/>
<path fill="#ffffff" stroke="#ffffff" stroke-width="1.5" d="M42,-6.71068e-15C48,-5.1317e-15 54,-6 54,-12"/>
<path fill="#ffffff" stroke="#ffffff" stroke-width="1.5" d="M54,-24C54,-30 48,-36 42,-36"/>
<polyline fill="none" stroke="#2e3436" stroke-width="1.5" points="42,-36 12,-36 "/>
<path fill="none" stroke="#2e3436" stroke-width="1.5" d="M12,-36C6,-36 1.77636e-14,-30 1.42109e-14,-24"/>
<polyline fill="none" stroke="#2e3436" stroke-width="1.5" points="1.42109e-14,-24 7.10543e-15,-12 "/>
<path fill="none" stroke="#2e3436" stroke-width="1.5" d="M7.10543e-15,-12C3.55271e-15,-6 6,-1.61846e-14 12,-1.46056e-14"/>
<polyline fill="none" stroke="#2e3436" stroke-width="1.5" points="12,-1.46056e-14 42,-6.71068e-15 "/>
<path fill="none" stroke="#2e3436" stroke-width="1.5" d="M42,-6.71068e-15C48,-5.1317e-15 54,-6 54,-12"/>
<polyline fill="none" stroke="#2e3436" stroke-width="1.5" points="54,-12 54,-24 "/>
<path fill="none" stroke="#2e3436" stroke-width="1.5" d="M54,-24C54,-30 48,-36 42,-36"/>
</g>
<!-- MIDDLE -->
<g id="node2" class="node"><title>MIDDLE</title>
<polygon fill="#fcee7d" stroke="#fcee7d" stroke-width="1.5" points="224,-36 194,-36 182,-24 182,-12 194,-1.46056e-14 224,-6.71068e-15 236,-12 236,-24 224,-36"/>
<path fill="#fcee7d" stroke="#fcee7d" stroke-width="1.5" d="M194,-36C188,-36 182,-30 182,-24"/>
<path fill="#fcee7d" stroke="#fcee7d" stroke-width="1.5" d="M182,-12C182,-6 188,-1.61846e-14 194,-1.46056e-14"/>
<path fill="#fcee7d" stroke="#fcee7d" stroke-width="1.5" d="M224,-6.71068e-15C230,-5.1317e-15 236,-6 236,-12"/>
<path fill="#fcee7d" stroke="#fcee7d" stroke-width="1.5" d="M236,-24C236,-30 230,-36 224,-36"/>
<polyline fill="none" stroke="#2e3436" stroke-width="1.5" points="224,-36 194,-36 "/>
<path fill="none" stroke="#2e3436" stroke-width="1.5" d="M194,-36C188,-36 182,-30 182,-24"/>
<polyline fill="none" stroke="#2e3436" stroke-width="1.5" points="182,-24 182,-12 "/>
<path fill="none" stroke="#2e3436" stroke-width="1.5" d="M182,-12C182,-6 188,-1.61846e-14 194,-1.46056e-14"/>
<polyline fill="none" stroke="#2e3436" stroke-width="1.5" points="194,-1.46056e-14 224,-6.71068e-15 "/>
<path fill="none" stroke="#2e3436" stroke-width="1.5" d="M224,-6.71068e-15C230,-5.1317e-15 236,-6 236,-12"/>
<polyline fill="none" stroke="#2e3436" stroke-width="1.5" points="236,-12 236,-24 "/>
<path fill="none" stroke="#2e3436" stroke-width="1.5" d="M236,-24C236,-30 230,-36 224,-36"/>
<text text-anchor="middle" x="209" y="-15" font-family="FreeSans" font-size="10.00" fill="#1c2021">Node</text>
</g>
<!-- START&#45;&gt;MIDDLE -->
<g id="edge4" class="edge"><title>START&#45;&gt;MIDDLE</title>
<path fill="none" stroke="#2e3436" stroke-width="2" d="M54.2472,-18C86.2377,-18 139.352,-18 174.271,-18"/>
<polygon fill="#2e3436" stroke="#2e3436" points="181.864,-18 174.364,-21.3751 178.114,-18.5 174.364,-18.5001 174.364,-18.0001 174.364,-17.5001 178.114,-17.5 174.364,-14.6251 181.864,-18 181.864,-18"/>
<text text-anchor="middle" x="118" y="-21" font-family="FreeSans" font-size="10.00" fill="#1c2021">incoming relationship</text>
</g>
<!-- END -->
<g id="node3" class="node"><title>END</title>
<polygon fill="#ffffff" stroke="#ffffff" stroke-width="1.5" points="402,-36 372,-36 360,-24 360,-12 372,-1.46056e-14 402,-6.71068e-15 414,-12 414,-24 402,-36"/>
<path fill="#ffffff" stroke="#ffffff" stroke-width="1.5" d="M372,-36C366,-36 360,-30 360,-24"/>
<path fill="#ffffff" stroke="#ffffff" stroke-width="1.5" d="M360,-12C360,-6 366,-1.61846e-14 372,-1.46056e-14"/>
<path fill="#ffffff" stroke="#ffffff" stroke-width="1.5" d="M402,-6.71068e-15C408,-5.1317e-15 414,-6 414,-12"/>
<path fill="#ffffff" stroke="#ffffff" stroke-width="1.5" d="M414,-24C414,-30 408,-36 402,-36"/>
<polyline fill="none" stroke="#2e3436" stroke-width="1.5" points="402,-36 372,-36 "/>
<path fill="none" stroke="#2e3436" stroke-width="1.5" d="M372,-36C366,-36 360,-30 360,-24"/>
<polyline fill="none" stroke="#2e3436" stroke-width="1.5" points="360,-24 360,-12 "/>
<path fill="none" stroke="#2e3436" stroke-width="1.5" d="M360,-12C360,-6 366,-1.61846e-14 372,-1.46056e-14"/>
<polyline fill="none" stroke="#2e3436" stroke-width="1.5" points="372,-1.46056e-14 402,-6.71068e-15 "/>
<path fill="none" stroke="#2e3436" stroke-width="1.5" d="M402,-6.71068e-15C408,-5.1317e-15 414,-6 414,-12"/>
<polyline fill="none" stroke="#2e3436" stroke-width="1.5" points="414,-12 414,-24 "/>
<path fill="none" stroke="#2e3436" stroke-width="1.5" d="M414,-24C414,-30 408,-36 402,-36"/>
</g>
<!-- MIDDLE&#45;&gt;END -->
<g id="edge2" class="edge"><title>MIDDLE&#45;&gt;END</title>
<path fill="none" stroke="#2e3436" stroke-width="2" d="M236.034,-18C267.007,-18 317.857,-18 351.874,-18"/>
<polygon fill="#2e3436" stroke="#2e3436" points="359.711,-18 352.211,-21.3751 355.961,-18.5 352.211,-18.5001 352.211,-18.0001 352.211,-17.5001 355.961,-17.5 352.211,-14.6251 359.711,-18 359.711,-18"/>
<text text-anchor="middle" x="298" y="-21" font-family="FreeSans" font-size="10.00" fill="#1c2021">outgoing relationship</text>
</g>
</g>
</svg>
