<?xml version="1.0" encoding="UTF-8" standalone="no"?>
<!DOCTYPE svg PUBLIC "-//W3C//DTD SVG 1.1//EN"
 "http://www.w3.org/Graphics/SVG/1.1/DTD/svg11.dtd">
<!-- Generated by graphviz version 2.26.3 (20100126.1600)
 -->
<!-- Title: g Pages: 1 -->
<svg width="247pt" height="296pt"
 viewBox="0.00 0.00 246.65 296.00" xmlns="http://www.w3.org/2000/svg" xmlns:xlink="http://www.w3.org/1999/xlink">
<g id="graph1" class="graph" transform="scale(1 1) rotate(0) translate(4 292)">
<title>g</title>
<polygon fill="white" stroke="white" points="-4,5 -4,-292 243.653,-292 243.653,5 -4,5"/>
<!-- Graph -->
<g id="node1" class="node"><title>Graph</title>
<polygon fill="#a8e270" stroke="#a8e270" stroke-width="1.5" points="69.6527,-288 39.6527,-288 27.6527,-276 27.6527,-264 39.6527,-252 69.6527,-252 81.6527,-264 81.6527,-276 69.6527,-288"/>
<path fill="#a8e270" stroke="#a8e270" stroke-width="1.5" d="M39.6527,-288C33.6527,-288 27.6527,-282 27.6527,-276"/>
<path fill="#a8e270" stroke="#a8e270" stroke-width="1.5" d="M27.6527,-264C27.6527,-258 33.6527,-252 39.6527,-252"/>
<path fill="#a8e270" stroke="#a8e270" stroke-width="1.5" d="M69.6527,-252C75.6527,-252 81.6527,-258 81.6527,-264"/>
<path fill="#a8e270" stroke="#a8e270" stroke-width="1.5" d="M81.6527,-276C81.6527,-282 75.6527,-288 69.6527,-288"/>
<polyline fill="none" stroke="#2e3436" stroke-width="1.5" points="69.6527,-288 39.6527,-288 "/>
<path fill="none" stroke="#2e3436" stroke-width="1.5" d="M39.6527,-288C33.6527,-288 27.6527,-282 27.6527,-276"/>
<polyline fill="none" stroke="#2e3436" stroke-width="1.5" points="27.6527,-276 27.6527,-264 "/>
<path fill="none" stroke="#2e3436" stroke-width="1.5" d="M27.6527,-264C27.6527,-258 33.6527,-252 39.6527,-252"/>
<polyline fill="none" stroke="#2e3436" stroke-width="1.5" points="39.6527,-252 69.6527,-252 "/>
<path fill="none" stroke="#2e3436" stroke-width="1.5" d="M69.6527,-252C75.6527,-252 81.6527,-258 81.6527,-264"/>
<polyline fill="none" stroke="#2e3436" stroke-width="1.5" points="81.6527,-264 81.6527,-276 "/>
<path fill="none" stroke="#2e3436" stroke-width="1.5" d="M81.6527,-276C81.6527,-282 75.6527,-288 69.6527,-288"/>
<text text-anchor="middle" x="54.6527" y="-267" font-family="FreeSans" font-size="10.00" fill="#1c2021">Graph</text>
</g>
<!-- Nodes -->
<g id="node3" class="node"><title>Nodes</title>
<polygon fill="#fadcad" stroke="#fadcad" stroke-width="1.5" points="111.653,-120 81.6527,-120 69.6527,-108 69.6527,-96 81.6527,-84 111.653,-84 123.653,-96 123.653,-108 111.653,-120"/>
<path fill="#fadcad" stroke="#fadcad" stroke-width="1.5" d="M81.6527,-120C75.6527,-120 69.6527,-114 69.6527,-108"/>
<path fill="#fadcad" stroke="#fadcad" stroke-width="1.5" d="M69.6527,-96C69.6527,-90 75.6527,-84 81.6527,-84"/>
<path fill="#fadcad" stroke="#fadcad" stroke-width="1.5" d="M111.653,-84C117.653,-84 123.653,-90 123.653,-96"/>
<path fill="#fadcad" stroke="#fadcad" stroke-width="1.5" d="M123.653,-108C123.653,-114 117.653,-120 111.653,-120"/>
<polyline fill="none" stroke="#2e3436" stroke-width="1.5" points="111.653,-120 81.6527,-120 "/>
<path fill="none" stroke="#2e3436" stroke-width="1.5" d="M81.6527,-120C75.6527,-120 69.6527,-114 69.6527,-108"/>
<polyline fill="none" stroke="#2e3436" stroke-width="1.5" points="69.6527,-108 69.6527,-96 "/>
<path fill="none" stroke="#2e3436" stroke-width="1.5" d="M69.6527,-96C69.6527,-90 75.6527,-84 81.6527,-84"/>
<polyline fill="none" stroke="#2e3436" stroke-width="1.5" points="81.6527,-84 111.653,-84 "/>
<path fill="none" stroke="#2e3436" stroke-width="1.5" d="M111.653,-84C117.653,-84 123.653,-90 123.653,-96"/>
<polyline fill="none" stroke="#2e3436" stroke-width="1.5" points="123.653,-96 123.653,-108 "/>
<path fill="none" stroke="#2e3436" stroke-width="1.5" d="M123.653,-108C123.653,-114 117.653,-120 111.653,-120"/>
<text text-anchor="middle" x="96.6527" y="-99" font-family="FreeSans" font-size="10.00" fill="#1c2021">Nodes</text>
</g>
<!-- Graph&#45;&gt;Nodes -->
<g id="edge2" class="edge"><title>Graph&#45;&gt;Nodes</title>
<path fill="none" stroke="#2e3436" stroke-width="2" d="M34.9151,-251.843C15.1644,-231.366 -10.2975,-197.125 4.65273,-168 16.7504,-144.433 41.6066,-127.388 62.4359,-116.53"/>
<polygon fill="#2e3436" stroke="#2e3436" points="69.3211,-113.084 64.1245,-119.459 66.1913,-115.209 62.8378,-116.888 62.6141,-116.44 62.3903,-115.993 65.7438,-114.315 61.1036,-113.422 69.3211,-113.084 69.3211,-113.084"/>
<text text-anchor="middle" x="36.1527" y="-183" font-family="FreeSans" font-size="10.00" fill="#1c2021">records data in</text>
</g>
<!-- Relationships -->
<g id="node5" class="node"><title>Relationships</title>
<polygon fill="#fadcad" stroke="#fadcad" stroke-width="1.5" points="226.653,-204 176.653,-204 164.653,-192 164.653,-180 176.653,-168 226.653,-168 238.653,-180 238.653,-192 226.653,-204"/>
<path fill="#fadcad" stroke="#fadcad" stroke-width="1.5" d="M176.653,-204C170.653,-204 164.653,-198 164.653,-192"/>
<path fill="#fadcad" stroke="#fadcad" stroke-width="1.5" d="M164.653,-180C164.653,-174 170.653,-168 176.653,-168"/>
<path fill="#fadcad" stroke="#fadcad" stroke-width="1.5" d="M226.653,-168C232.653,-168 238.653,-174 238.653,-180"/>
<path fill="#fadcad" stroke="#fadcad" stroke-width="1.5" d="M238.653,-192C238.653,-198 232.653,-204 226.653,-204"/>
<polyline fill="none" stroke="#2e3436" stroke-width="1.5" points="226.653,-204 176.653,-204 "/>
<path fill="none" stroke="#2e3436" stroke-width="1.5" d="M176.653,-204C170.653,-204 164.653,-198 164.653,-192"/>
<polyline fill="none" stroke="#2e3436" stroke-width="1.5" points="164.653,-192 164.653,-180 "/>
<path fill="none" stroke="#2e3436" stroke-width="1.5" d="M164.653,-180C164.653,-174 170.653,-168 176.653,-168"/>
<polyline fill="none" stroke="#2e3436" stroke-width="1.5" points="176.653,-168 226.653,-168 "/>
<path fill="none" stroke="#2e3436" stroke-width="1.5" d="M226.653,-168C232.653,-168 238.653,-174 238.653,-180"/>
<polyline fill="none" stroke="#2e3436" stroke-width="1.5" points="238.653,-180 238.653,-192 "/>
<path fill="none" stroke="#2e3436" stroke-width="1.5" d="M238.653,-192C238.653,-198 232.653,-204 226.653,-204"/>
<text text-anchor="middle" x="201.653" y="-183" font-family="FreeSans" font-size="10.00" fill="#1c2021">Relationships</text>
</g>
<!-- Graph&#45;&gt;Relationships -->
<g id="edge4" class="edge"><title>Graph&#45;&gt;Relationships</title>
<path fill="none" stroke="#2e3436" stroke-width="2" d="M81.9578,-254.397C104.823,-241.331 137.72,-222.533 163.242,-207.949"/>
<polygon fill="#2e3436" stroke="#2e3436" points="169.895,-204.148 165.057,-210.799 166.887,-206.442 163.631,-208.303 163.383,-207.869 163.135,-207.435 166.391,-205.574 161.708,-204.938 169.895,-204.148 169.895,-204.148"/>
<text text-anchor="middle" x="168.153" y="-225" font-family="FreeSans" font-size="10.00" fill="#1c2021">records data in</text>
</g>
<!-- Properties -->
<g id="node10" class="node"><title>Properties</title>
<polygon fill="#fadcad" stroke="#fadcad" stroke-width="1.5" points="191.653,-36 155.653,-36 143.653,-24 143.653,-12 155.653,-1.49214e-14 191.653,-6.39488e-15 203.653,-12 203.653,-24 191.653,-36"/>
<path fill="#fadcad" stroke="#fadcad" stroke-width="1.5" d="M155.653,-36C149.653,-36 143.653,-30 143.653,-24"/>
<path fill="#fadcad" stroke="#fadcad" stroke-width="1.5" d="M143.653,-12C143.653,-6 149.653,-1.63425e-14 155.653,-1.49214e-14"/>
<path fill="#fadcad" stroke="#fadcad" stroke-width="1.5" d="M191.653,-6.39488e-15C197.653,-4.9738e-15 203.653,-6 203.653,-12"/>
<path fill="#fadcad" stroke="#fadcad" stroke-width="1.5" d="M203.653,-24C203.653,-30 197.653,-36 191.653,-36"/>
<polyline fill="none" stroke="#2e3436" stroke-width="1.5" points="191.653,-36 155.653,-36 "/>
<path fill="none" stroke="#2e3436" stroke-width="1.5" d="M155.653,-36C149.653,-36 143.653,-30 143.653,-24"/>
<polyline fill="none" stroke="#2e3436" stroke-width="1.5" points="143.653,-24 143.653,-12 "/>
<path fill="none" stroke="#2e3436" stroke-width="1.5" d="M143.653,-12C143.653,-6 149.653,-1.63425e-14 155.653,-1.49214e-14"/>
<polyline fill="none" stroke="#2e3436" stroke-width="1.5" points="155.653,-1.49214e-14 191.653,-6.39488e-15 "/>
<path fill="none" stroke="#2e3436" stroke-width="1.5" d="M191.653,-6.39488e-15C197.653,-4.9738e-15 203.653,-6 203.653,-12"/>
<polyline fill="none" stroke="#2e3436" stroke-width="1.5" points="203.653,-12 203.653,-24 "/>
<path fill="none" stroke="#2e3436" stroke-width="1.5" d="M203.653,-24C203.653,-30 197.653,-36 191.653,-36"/>
<text text-anchor="middle" x="173.653" y="-15" font-family="FreeSans" font-size="10.00" fill="#1c2021">Properties</text>
</g>
<!-- Nodes&#45;&gt;Properties -->
<g id="edge10" class="edge"><title>Nodes&#45;&gt;Properties</title>
<path fill="none" stroke="#2e3436" stroke-width="2" d="M113.361,-83.7733C124.561,-71.5549 139.43,-55.3342 151.599,-42.0586"/>
<polygon fill="#2e3436" stroke="#2e3436" points="156.977,-36.1912 154.397,-44.0004 154.812,-39.2934 152.278,-42.0577 151.91,-41.7199 151.541,-41.382 154.075,-38.6177 149.422,-39.4393 156.977,-36.1912 156.977,-36.1912"/>
<text text-anchor="middle" x="150.153" y="-57" font-family="FreeSans" font-size="10.00" fill="#1c2021">have</text>
</g>
<!-- Relationships&#45;&gt;Nodes -->
<g id="edge6" class="edge"><title>Relationships&#45;&gt;Nodes</title>
<path fill="none" stroke="#2e3436" stroke-width="2" d="M177.031,-167.949C169.463,-162.291 161.154,-155.964 153.653,-150 143.589,-141.999 132.75,-132.977 123.253,-124.932"/>
<polygon fill="#2e3436" stroke="#2e3436" points="117.532,-120.067 125.432,-122.355 120.713,-122.116 123.569,-124.545 123.245,-124.926 122.922,-125.307 120.065,-122.877 121.059,-127.497 117.532,-120.067 117.532,-120.067"/>
<text text-anchor="middle" x="172.153" y="-141" font-family="FreeSans" font-size="10.00" fill="#1c2021">organize</text>
</g>
<!-- Relationships&#45;&gt;Properties -->
<g id="edge12" class="edge"><title>Relationships&#45;&gt;Properties</title>
<path fill="none" stroke="#2e3436" stroke-width="2" d="M198.603,-167.701C193.604,-137.705 183.651,-77.99 177.943,-43.7399"/>
<polygon fill="#2e3436" stroke="#2e3436" points="176.656,-36.0219 181.219,-42.865 177.766,-39.6387 178.383,-43.3377 177.889,-43.4199 177.396,-43.5021 176.78,-39.8031 174.56,-43.9747 176.656,-36.0219 176.656,-36.0219"/>
<text text-anchor="middle" x="200.153" y="-99" font-family="FreeSans" font-size="10.00" fill="#1c2021">have</text>
</g>
<!-- Labels -->
<g id="node7" class="node"><title>Labels</title>
<polygon fill="#fadcad" stroke="#fadcad" stroke-width="1.5" points="123.653,-204 93.6527,-204 81.6527,-192 81.6527,-180 93.6527,-168 123.653,-168 135.653,-180 135.653,-192 123.653,-204"/>
<path fill="#fadcad" stroke="#fadcad" stroke-width="1.5" d="M93.6527,-204C87.6527,-204 81.6527,-198 81.6527,-192"/>
<path fill="#fadcad" stroke="#fadcad" stroke-width="1.5" d="M81.6527,-180C81.6527,-174 87.6527,-168 93.6527,-168"/>
<path fill="#fadcad" stroke="#fadcad" stroke-width="1.5" d="M123.653,-168C129.653,-168 135.653,-174 135.653,-180"/>
<path fill="#fadcad" stroke="#fadcad" stroke-width="1.5" d="M135.653,-192C135.653,-198 129.653,-204 123.653,-204"/>
<polyline fill="none" stroke="#2e3436" stroke-width="1.5" points="123.653,-204 93.6527,-204 "/>
<path fill="none" stroke="#2e3436" stroke-width="1.5" d="M93.6527,-204C87.6527,-204 81.6527,-198 81.6527,-192"/>
<polyline fill="none" stroke="#2e3436" stroke-width="1.5" points="81.6527,-192 81.6527,-180 "/>
<path fill="none" stroke="#2e3436" stroke-width="1.5" d="M81.6527,-180C81.6527,-174 87.6527,-168 93.6527,-168"/>
<polyline fill="none" stroke="#2e3436" stroke-width="1.5" points="93.6527,-168 123.653,-168 "/>
<path fill="none" stroke="#2e3436" stroke-width="1.5" d="M123.653,-168C129.653,-168 135.653,-174 135.653,-180"/>
<polyline fill="none" stroke="#2e3436" stroke-width="1.5" points="135.653,-180 135.653,-192 "/>
<path fill="none" stroke="#2e3436" stroke-width="1.5" d="M135.653,-192C135.653,-198 129.653,-204 123.653,-204"/>
<text text-anchor="middle" x="108.653" y="-183" font-family="FreeSans" font-size="10.00" fill="#1c2021">Labels</text>
</g>
<!-- Labels&#45;&gt;Nodes -->
<g id="edge8" class="edge"><title>Labels&#45;&gt;Nodes</title>
<path fill="none" stroke="#2e3436" stroke-width="2" d="M100.031,-167.702C97.8263,-162.142 95.7656,-155.932 94.6527,-150 93.3201,-142.896 93.1188,-135.102 93.4356,-127.898"/>
<polygon fill="#2e3436" stroke="#2e3436" points="93.9538,-120.374 96.8055,-128.088 94.1949,-124.15 93.9372,-127.891 93.4384,-127.856 92.9396,-127.822 93.1973,-124.081 90.0714,-127.624 93.9538,-120.374 93.9538,-120.374"/>
<text text-anchor="middle" x="107.153" y="-141" font-family="FreeSans" font-size="10.00" fill="#1c2021">group</text>
</g>
</g>
</svg>
