<?xml version="1.0" encoding="UTF-8" standalone="no"?>
<!DOCTYPE svg PUBLIC "-//W3C//DTD SVG 1.1//EN"
 "http://www.w3.org/Graphics/SVG/1.1/DTD/svg11.dtd">
<!-- Generated by graphviz version 2.26.3 (20100126.1600)
 -->
<!-- Title: g Pages: 1 -->
<svg width="390pt" height="140pt"
 viewBox="0.00 0.00 390.00 140.00" xmlns="http://www.w3.org/2000/svg" xmlns:xlink="http://www.w3.org/1999/xlink">
<g id="graph1" class="graph" transform="scale(1 1) rotate(0) translate(4 136)">
<title>g</title>
<polygon fill="white" stroke="white" points="-4,5 -4,-136 387,-136 387,5 -4,5"/>
<!-- N1 -->
<g id="node1" class="node"><title>N1</title>
<polygon fill="#ffffff" stroke="#ffffff" stroke-width="1.5" points="49.5,-95 126.5,-95 138.5,-107 138.5,-119 126.5,-131 49.5,-131 37.5,-119 37.5,-107 49.5,-95"/>
<path fill="#ffffff" stroke="#ffffff" stroke-width="1.5" d="M126.5,-95C132.5,-95 138.5,-101 138.5,-107"/>
<path fill="#ffffff" stroke="#ffffff" stroke-width="1.5" d="M138.5,-119C138.5,-125 132.5,-131 126.5,-131"/>
<path fill="#ffffff" stroke="#ffffff" stroke-width="1.5" d="M49.5,-131C43.5,-131 37.5,-125 37.5,-119"/>
<path fill="#ffffff" stroke="#ffffff" stroke-width="1.5" d="M37.5,-107C37.5,-101 43.5,-95 49.5,-95"/>
<polyline fill="none" stroke="#2e3436" stroke-width="1.5" points="49.5,-95 126.5,-95 "/>
<path fill="none" stroke="#2e3436" stroke-width="1.5" d="M126.5,-95C132.5,-95 138.5,-101 138.5,-107"/>
<polyline fill="none" stroke="#2e3436" stroke-width="1.5" points="138.5,-107 138.5,-119 "/>
<path fill="none" stroke="#2e3436" stroke-width="1.5" d="M138.5,-119C138.5,-125 132.5,-131 126.5,-131"/>
<polyline fill="none" stroke="#2e3436" stroke-width="1.5" points="126.5,-131 49.5,-131 "/>
<path fill="none" stroke="#2e3436" stroke-width="1.5" d="M49.5,-131C43.5,-131 37.5,-125 37.5,-119"/>
<polyline fill="none" stroke="#2e3436" stroke-width="1.5" points="37.5,-119 37.5,-107 "/>
<path fill="none" stroke="#2e3436" stroke-width="1.5" d="M37.5,-107C37.5,-101 43.5,-95 49.5,-95"/>
<text text-anchor="start" x="45.5" y="-110.8" font-family="FreeSans" font-size="8.00" fill="#1c2021">name = &#39;Keanu Reeves&#39;</text>
</g>
<!-- N3 -->
<g id="node3" class="node"><title>N3</title>
<polygon fill="#ffffff" stroke="#ffffff" stroke-width="1.5" points="11.5,-1 66.5,-1 78.5,-13 78.5,-25 66.5,-37 11.5,-37 -0.5,-25 -0.5,-13 11.5,-1"/>
<path fill="#ffffff" stroke="#ffffff" stroke-width="1.5" d="M66.5,-1C72.5,-1 78.5,-7 78.5,-13"/>
<path fill="#ffffff" stroke="#ffffff" stroke-width="1.5" d="M78.5,-25C78.5,-31 72.5,-37 66.5,-37"/>
<path fill="#ffffff" stroke="#ffffff" stroke-width="1.5" d="M11.5,-37C5.5,-37 -0.5,-31 -0.5,-25"/>
<path fill="#ffffff" stroke="#ffffff" stroke-width="1.5" d="M-0.5,-13C-0.5,-7 5.5,-1 11.5,-1"/>
<polyline fill="none" stroke="#2e3436" stroke-width="1.5" points="11.5,-1 66.5,-1 "/>
<path fill="none" stroke="#2e3436" stroke-width="1.5" d="M66.5,-1C72.5,-1 78.5,-7 78.5,-13"/>
<polyline fill="none" stroke="#2e3436" stroke-width="1.5" points="78.5,-13 78.5,-25 "/>
<path fill="none" stroke="#2e3436" stroke-width="1.5" d="M78.5,-25C78.5,-31 72.5,-37 66.5,-37"/>
<polyline fill="none" stroke="#2e3436" stroke-width="1.5" points="66.5,-37 11.5,-37 "/>
<path fill="none" stroke="#2e3436" stroke-width="1.5" d="M11.5,-37C5.5,-37 -0.5,-31 -0.5,-25"/>
<polyline fill="none" stroke="#2e3436" stroke-width="1.5" points="-0.5,-25 -0.5,-13 "/>
<path fill="none" stroke="#2e3436" stroke-width="1.5" d="M-0.5,-13C-0.5,-7 5.5,-1 11.5,-1"/>
<text text-anchor="start" x="7.5" y="-21.8" font-family="FreeSans" font-size="8.00" fill="#1c2021">title = &#39;The Matrix&#39;</text>
<text text-anchor="start" x="7.5" y="-11.8" font-family="FreeSans" font-size="8.00" fill="#1c2021">year = 1999</text>
</g>
<!-- N1&#45;&gt;N3 -->
<g id="edge2" class="edge"><title>N1&#45;&gt;N3</title>
<path fill="none" stroke="#2e3436" stroke-width="2" d="M53.4174,-94.8312C46.806,-89.6758 40.7768,-83.4061 37,-76 32.1607,-66.5104 31.7418,-54.9307 32.8827,-44.6933"/>
<polygon fill="#2e3436" stroke="#2e3436" points="34.0118,-37.1832 36.2342,-45.1017 33.9487,-40.9659 33.3911,-44.6742 32.8967,-44.5998 32.4022,-44.5255 32.9598,-40.8172 29.5592,-44.098 34.0118,-37.1832 34.0118,-37.1832"/>
<text text-anchor="middle" x="61" y="-68.8" font-family="FreeSans" font-size="8.00" fill="#2e3436">ACTS_IN</text>
<text text-anchor="start" x="37" y="-58.8" font-family="FreeSans" font-size="8.00" fill="#2e3436">name = &#39;Neo&#39;</text>
</g>
<!-- N4 -->
<g id="node5" class="node"><title>N4</title>
<polygon fill="#ffffff" stroke="#ffffff" stroke-width="1.5" points="133,-1 225,-1 237,-13 237,-25 225,-37 133,-37 121,-25 121,-13 133,-1"/>
<path fill="#ffffff" stroke="#ffffff" stroke-width="1.5" d="M225,-1C231,-1 237,-7 237,-13"/>
<path fill="#ffffff" stroke="#ffffff" stroke-width="1.5" d="M237,-25C237,-31 231,-37 225,-37"/>
<path fill="#ffffff" stroke="#ffffff" stroke-width="1.5" d="M133,-37C127,-37 121,-31 121,-25"/>
<path fill="#ffffff" stroke="#ffffff" stroke-width="1.5" d="M121,-13C121,-7 127,-1 133,-1"/>
<polyline fill="none" stroke="#2e3436" stroke-width="1.5" points="133,-1 225,-1 "/>
<path fill="none" stroke="#2e3436" stroke-width="1.5" d="M225,-1C231,-1 237,-7 237,-13"/>
<polyline fill="none" stroke="#2e3436" stroke-width="1.5" points="237,-13 237,-25 "/>
<path fill="none" stroke="#2e3436" stroke-width="1.5" d="M237,-25C237,-31 231,-37 225,-37"/>
<polyline fill="none" stroke="#2e3436" stroke-width="1.5" points="225,-37 133,-37 "/>
<path fill="none" stroke="#2e3436" stroke-width="1.5" d="M133,-37C127,-37 121,-31 121,-25"/>
<polyline fill="none" stroke="#2e3436" stroke-width="1.5" points="121,-25 121,-13 "/>
<path fill="none" stroke="#2e3436" stroke-width="1.5" d="M121,-13C121,-7 127,-1 133,-1"/>
<text text-anchor="start" x="129" y="-21.8" font-family="FreeSans" font-size="8.00" fill="#1c2021">title = &#39;The Matrix Reloaded&#39;</text>
<text text-anchor="start" x="129" y="-11.8" font-family="FreeSans" font-size="8.00" fill="#1c2021">year = 2003</text>
</g>
<!-- N1&#45;&gt;N4 -->
<g id="edge4" class="edge"><title>N1&#45;&gt;N4</title>
<path fill="none" stroke="#2e3436" stroke-width="2" d="M102.006,-94.8988C111.227,-83.363 123.807,-68.3234 136,-56 140.58,-51.3706 145.663,-46.6642 150.684,-42.2294"/>
<polygon fill="#2e3436" stroke="#2e3436" points="156.515,-37.1689 153.063,-44.6337 154.01,-40.0045 151.178,-42.4624 150.85,-42.0848 150.523,-41.7072 153.355,-39.2492 148.638,-39.5358 156.515,-37.1689 156.515,-37.1689"/>
<text text-anchor="middle" x="160" y="-68.8" font-family="FreeSans" font-size="8.00" fill="#2e3436">ACTS_IN</text>
<text text-anchor="start" x="136" y="-58.8" font-family="FreeSans" font-size="8.00" fill="#2e3436">name = &#39;Neo&#39;</text>
</g>
<!-- N2 -->
<g id="node6" class="node"><title>N2</title>
<polygon fill="#ffffff" stroke="#ffffff" stroke-width="1.5" points="194.5,-95 275.5,-95 287.5,-107 287.5,-119 275.5,-131 194.5,-131 182.5,-119 182.5,-107 194.5,-95"/>
<path fill="#ffffff" stroke="#ffffff" stroke-width="1.5" d="M275.5,-95C281.5,-95 287.5,-101 287.5,-107"/>
<path fill="#ffffff" stroke="#ffffff" stroke-width="1.5" d="M287.5,-119C287.5,-125 281.5,-131 275.5,-131"/>
<path fill="#ffffff" stroke="#ffffff" stroke-width="1.5" d="M194.5,-131C188.5,-131 182.5,-125 182.5,-119"/>
<path fill="#ffffff" stroke="#ffffff" stroke-width="1.5" d="M182.5,-107C182.5,-101 188.5,-95 194.5,-95"/>
<polyline fill="none" stroke="#2e3436" stroke-width="1.5" points="194.5,-95 275.5,-95 "/>
<path fill="none" stroke="#2e3436" stroke-width="1.5" d="M275.5,-95C281.5,-95 287.5,-101 287.5,-107"/>
<polyline fill="none" stroke="#2e3436" stroke-width="1.5" points="287.5,-107 287.5,-119 "/>
<path fill="none" stroke="#2e3436" stroke-width="1.5" d="M287.5,-119C287.5,-125 281.5,-131 275.5,-131"/>
<polyline fill="none" stroke="#2e3436" stroke-width="1.5" points="275.5,-131 194.5,-131 "/>
<path fill="none" stroke="#2e3436" stroke-width="1.5" d="M194.5,-131C188.5,-131 182.5,-125 182.5,-119"/>
<polyline fill="none" stroke="#2e3436" stroke-width="1.5" points="182.5,-119 182.5,-107 "/>
<path fill="none" stroke="#2e3436" stroke-width="1.5" d="M182.5,-107C182.5,-101 188.5,-95 194.5,-95"/>
<text text-anchor="start" x="190.5" y="-110.8" font-family="FreeSans" font-size="8.00" fill="#1c2021">name = &#39;Monica Bellucci&#39;</text>
</g>
<!-- N2&#45;&gt;N4 -->
<g id="edge6" class="edge"><title>N2&#45;&gt;N4</title>
<path fill="none" stroke="#2e3436" stroke-width="2" d="M215.877,-94.9171C210.574,-89.223 205.142,-82.6698 201,-76 194.921,-66.2112 190.039,-54.466 186.434,-44.1876"/>
<polygon fill="#2e3436" stroke="#2e3436" points="184.035,-37.0115 189.614,-43.0547 185.698,-40.4095 186.887,-43.9661 186.413,-44.1246 185.939,-44.2831 184.75,-40.7266 183.212,-45.1946 184.035,-37.0115 184.035,-37.0115"/>
<text text-anchor="middle" x="239" y="-68.8" font-family="FreeSans" font-size="8.00" fill="#2e3436">ACTS_IN</text>
<text text-anchor="start" x="201" y="-58.8" font-family="FreeSans" font-size="8.00" fill="#2e3436">name = &#39;Persephone&#39;</text>
</g>
<!-- N5 -->
<g id="node9" class="node"><title>N5</title>
<polygon fill="#ffffff" stroke="#ffffff" stroke-width="1.5" points="291.5,-1 334.5,-1 346.5,-13 346.5,-25 334.5,-37 291.5,-37 279.5,-25 279.5,-13 291.5,-1"/>
<path fill="#ffffff" stroke="#ffffff" stroke-width="1.5" d="M334.5,-1C340.5,-1 346.5,-7 346.5,-13"/>
<path fill="#ffffff" stroke="#ffffff" stroke-width="1.5" d="M346.5,-25C346.5,-31 340.5,-37 334.5,-37"/>
<path fill="#ffffff" stroke="#ffffff" stroke-width="1.5" d="M291.5,-37C285.5,-37 279.5,-31 279.5,-25"/>
<path fill="#ffffff" stroke="#ffffff" stroke-width="1.5" d="M279.5,-13C279.5,-7 285.5,-1 291.5,-1"/>
<polyline fill="none" stroke="#2e3436" stroke-width="1.5" points="291.5,-1 334.5,-1 "/>
<path fill="none" stroke="#2e3436" stroke-width="1.5" d="M334.5,-1C340.5,-1 346.5,-7 346.5,-13"/>
<polyline fill="none" stroke="#2e3436" stroke-width="1.5" points="346.5,-13 346.5,-25 "/>
<path fill="none" stroke="#2e3436" stroke-width="1.5" d="M346.5,-25C346.5,-31 340.5,-37 334.5,-37"/>
<polyline fill="none" stroke="#2e3436" stroke-width="1.5" points="334.5,-37 291.5,-37 "/>
<path fill="none" stroke="#2e3436" stroke-width="1.5" d="M291.5,-37C285.5,-37 279.5,-31 279.5,-25"/>
<polyline fill="none" stroke="#2e3436" stroke-width="1.5" points="279.5,-25 279.5,-13 "/>
<path fill="none" stroke="#2e3436" stroke-width="1.5" d="M279.5,-13C279.5,-7 285.5,-1 291.5,-1"/>
<text text-anchor="start" x="287.5" y="-21.8" font-family="FreeSans" font-size="8.00" fill="#1c2021">title = &#39;Malèna&#39;</text>
<text text-anchor="start" x="287.5" y="-11.8" font-family="FreeSans" font-size="8.00" fill="#1c2021">year = 2000</text>
</g>
<!-- N2&#45;&gt;N5 -->
<g id="edge8" class="edge"><title>N2&#45;&gt;N5</title>
<path fill="none" stroke="#2e3436" stroke-width="2" d="M260.263,-94.878C267.124,-89.2788 274.241,-82.7861 280,-76 288.176,-66.3664 295.442,-54.4294 301.06,-43.9724"/>
<polygon fill="#2e3436" stroke="#2e3436" points="304.678,-37.0159 304.212,-45.2271 303.391,-40.5736 301.661,-43.9007 301.218,-43.67 300.774,-43.4393 302.504,-40.1123 298.223,-42.1129 304.678,-37.0159 304.678,-37.0159"/>
<text text-anchor="middle" x="337.5" y="-68.8" font-family="FreeSans" font-size="8.00" fill="#2e3436">ACTS_IN</text>
<text text-anchor="start" x="293" y="-58.8" font-family="FreeSans" font-size="8.00" fill="#2e3436">name = &#39;Malèna Scordia&#39;</text>
</g>
</g>
</svg>
