<?xml version="1.0" encoding="UTF-8" standalone="no"?>
<!DOCTYPE svg PUBLIC "-//W3C//DTD SVG 1.1//EN"
 "http://www.w3.org/Graphics/SVG/1.1/DTD/svg11.dtd">
<!-- Generated by graphviz version 2.26.3 (20100126.1600)
 -->
<!-- Title: g Pages: 1 -->
<svg width="74pt" height="130pt"
 viewBox="0.00 0.00 74.00 130.00" xmlns="http://www.w3.org/2000/svg" xmlns:xlink="http://www.w3.org/1999/xlink">
<g id="graph1" class="graph" transform="scale(1 1) rotate(0) translate(4 126)">
<title>g</title>
<polygon fill="white" stroke="white" points="-4,5 -4,-126 71,-126 71,5 -4,5"/>
<!-- N11 -->
<g id="node1" class="node"><title>N11</title>
<polygon fill="#ffffff" stroke="#ffffff" stroke-width="1.5" points="12,-1 54,-1 66,-13 66,-25 54,-37 12,-37 0,-25 0,-13 12,-1"/>
<path fill="#ffffff" stroke="#ffffff" stroke-width="1.5" d="M54,-1C60,-1 66,-7 66,-13"/>
<path fill="#ffffff" stroke="#ffffff" stroke-width="1.5" d="M66,-25C66,-31 60,-37 54,-37"/>
<path fill="#ffffff" stroke="#ffffff" stroke-width="1.5" d="M12,-37C6,-37 0,-31 0,-25"/>
<path fill="#ffffff" stroke="#ffffff" stroke-width="1.5" d="M0,-13C0,-7 6,-1 12,-1"/>
<polyline fill="none" stroke="#2e3436" stroke-width="1.5" points="12,-1 54,-1 "/>
<path fill="none" stroke="#2e3436" stroke-width="1.5" d="M54,-1C60,-1 66,-7 66,-13"/>
<polyline fill="none" stroke="#2e3436" stroke-width="1.5" points="66,-13 66,-25 "/>
<path fill="none" stroke="#2e3436" stroke-width="1.5" d="M66,-25C66,-31 60,-37 54,-37"/>
<polyline fill="none" stroke="#2e3436" stroke-width="1.5" points="54,-37 12,-37 "/>
<path fill="none" stroke="#2e3436" stroke-width="1.5" d="M12,-37C6,-37 0,-31 0,-25"/>
<polyline fill="none" stroke="#2e3436" stroke-width="1.5" points="0,-25 0,-13 "/>
<path fill="none" stroke="#2e3436" stroke-width="1.5" d="M0,-13C0,-7 6,-1 12,-1"/>
<text text-anchor="middle" x="33" y="-25.8" font-family="FreeSans" font-size="8.00" fill="#1c2021">Node[11]</text>
<polyline fill="none" stroke="#2e3436" stroke-width="1.5" points="0,-19 66,-19 "/>
<text text-anchor="start" x="8" y="-7.8" font-family="FreeSans" font-size="8.00" fill="#1c2021">name = &#39;Sara&#39;</text>
</g>
<!-- N12 -->
<g id="node2" class="node"><title>N12</title>
<polygon fill="#ffffff" stroke="#ffffff" stroke-width="1.5" points="14,-85 52,-85 64,-97 64,-109 52,-121 14,-121 2,-109 2,-97 14,-85"/>
<path fill="#ffffff" stroke="#ffffff" stroke-width="1.5" d="M52,-85C58,-85 64,-91 64,-97"/>
<path fill="#ffffff" stroke="#ffffff" stroke-width="1.5" d="M64,-109C64,-115 58,-121 52,-121"/>
<path fill="#ffffff" stroke="#ffffff" stroke-width="1.5" d="M14,-121C8,-121 2,-115 2,-109"/>
<path fill="#ffffff" stroke="#ffffff" stroke-width="1.5" d="M2,-97C2,-91 8,-85 14,-85"/>
<polyline fill="none" stroke="#2e3436" stroke-width="1.5" points="14,-85 52,-85 "/>
<path fill="none" stroke="#2e3436" stroke-width="1.5" d="M52,-85C58,-85 64,-91 64,-97"/>
<polyline fill="none" stroke="#2e3436" stroke-width="1.5" points="64,-97 64,-109 "/>
<path fill="none" stroke="#2e3436" stroke-width="1.5" d="M64,-109C64,-115 58,-121 52,-121"/>
<polyline fill="none" stroke="#2e3436" stroke-width="1.5" points="52,-121 14,-121 "/>
<path fill="none" stroke="#2e3436" stroke-width="1.5" d="M14,-121C8,-121 2,-115 2,-109"/>
<polyline fill="none" stroke="#2e3436" stroke-width="1.5" points="2,-109 2,-97 "/>
<path fill="none" stroke="#2e3436" stroke-width="1.5" d="M2,-97C2,-91 8,-85 14,-85"/>
<text text-anchor="middle" x="33" y="-109.8" font-family="FreeSans" font-size="8.00" fill="#1c2021">Node[12]</text>
<polyline fill="none" stroke="#2e3436" stroke-width="1.5" points="2,-103 64,-103 "/>
<text text-anchor="start" x="10" y="-91.8" font-family="FreeSans" font-size="8.00" fill="#1c2021">name = &#39;Joe&#39;</text>
</g>
<!-- N12&#45;&gt;N11 -->
<g id="edge2" class="edge"><title>N12&#45;&gt;N11</title>
<path fill="none" stroke="#2e3436" stroke-width="2" d="M33,-84.7733C33,-73.1053 33,-57.7874 33,-44.8699"/>
<polygon fill="#2e3436" stroke="#2e3436" points="33,-37.1912 36.3751,-44.6911 33.5,-40.9412 33.5001,-44.6912 33.0001,-44.6912 32.5001,-44.6912 32.5,-40.9412 29.6251,-44.6912 33,-37.1912 33,-37.1912"/>
<text text-anchor="middle" x="45" y="-58.8" font-family="FreeSans" font-size="8.00" fill="#2e3436">knows</text>
</g>
</g>
</svg>
