<?xml version="1.0" encoding="UTF-8" standalone="no"?>
<!DOCTYPE svg PUBLIC "-//W3C//DTD SVG 1.1//EN"
 "http://www.w3.org/Graphics/SVG/1.1/DTD/svg11.dtd">
<!-- Generated by graphviz version 2.26.3 (20100126.1600)
 -->
<!-- Title: g Pages: 1 -->
<svg width="190pt" height="410pt"
 viewBox="0.00 0.00 190.00 410.00" xmlns="http://www.w3.org/2000/svg" xmlns:xlink="http://www.w3.org/1999/xlink">
<g id="graph1" class="graph" transform="scale(1 1) rotate(0) translate(4 406)">
<title>g</title>
<polygon fill="white" stroke="white" points="-4,5 -4,-406 187,-406 187,5 -4,5"/>
<!-- N1 -->
<g id="node1" class="node"><title>N1</title>
<polygon fill="#ffffff" stroke="#ffffff" stroke-width="1.5" points="88.5,-281 129.5,-281 141.5,-293 141.5,-305 129.5,-317 88.5,-317 76.5,-305 76.5,-293 88.5,-281"/>
<path fill="#ffffff" stroke="#ffffff" stroke-width="1.5" d="M129.5,-281C135.5,-281 141.5,-287 141.5,-293"/>
<path fill="#ffffff" stroke="#ffffff" stroke-width="1.5" d="M141.5,-305C141.5,-311 135.5,-317 129.5,-317"/>
<path fill="#ffffff" stroke="#ffffff" stroke-width="1.5" d="M88.5,-317C82.5,-317 76.5,-311 76.5,-305"/>
<path fill="#ffffff" stroke="#ffffff" stroke-width="1.5" d="M76.5,-293C76.5,-287 82.5,-281 88.5,-281"/>
<polyline fill="none" stroke="#2e3436" stroke-width="1.5" points="88.5,-281 129.5,-281 "/>
<path fill="none" stroke="#2e3436" stroke-width="1.5" d="M129.5,-281C135.5,-281 141.5,-287 141.5,-293"/>
<polyline fill="none" stroke="#2e3436" stroke-width="1.5" points="141.5,-293 141.5,-305 "/>
<path fill="none" stroke="#2e3436" stroke-width="1.5" d="M141.5,-305C141.5,-311 135.5,-317 129.5,-317"/>
<polyline fill="none" stroke="#2e3436" stroke-width="1.5" points="129.5,-317 88.5,-317 "/>
<path fill="none" stroke="#2e3436" stroke-width="1.5" d="M88.5,-317C82.5,-317 76.5,-311 76.5,-305"/>
<polyline fill="none" stroke="#2e3436" stroke-width="1.5" points="76.5,-305 76.5,-293 "/>
<path fill="none" stroke="#2e3436" stroke-width="1.5" d="M76.5,-293C76.5,-287 82.5,-281 88.5,-281"/>
<text text-anchor="middle" x="109" y="-305.8" font-family="FreeSans" font-size="8.00" fill="#1c2021">Node[1]</text>
<polyline fill="none" stroke="#2e3436" stroke-width="1.5" points="76.5,-299 141.5,-299 "/>
<text text-anchor="start" x="84.5" y="-287.8" font-family="FreeSans" font-size="8.00" fill="#1c2021">name = &#39;Lars&#39;</text>
</g>
<!-- N6 -->
<g id="node3" class="node"><title>N6</title>
<polygon fill="#ffffff" stroke="#ffffff" stroke-width="1.5" points="89,-169 129,-169 141,-181 141,-193 129,-205 89,-205 77,-193 77,-181 89,-169"/>
<path fill="#ffffff" stroke="#ffffff" stroke-width="1.5" d="M129,-169C135,-169 141,-175 141,-181"/>
<path fill="#ffffff" stroke="#ffffff" stroke-width="1.5" d="M141,-193C141,-199 135,-205 129,-205"/>
<path fill="#ffffff" stroke="#ffffff" stroke-width="1.5" d="M89,-205C83,-205 77,-199 77,-193"/>
<path fill="#ffffff" stroke="#ffffff" stroke-width="1.5" d="M77,-181C77,-175 83,-169 89,-169"/>
<polyline fill="none" stroke="#2e3436" stroke-width="1.5" points="89,-169 129,-169 "/>
<path fill="none" stroke="#2e3436" stroke-width="1.5" d="M129,-169C135,-169 141,-175 141,-181"/>
<polyline fill="none" stroke="#2e3436" stroke-width="1.5" points="141,-181 141,-193 "/>
<path fill="none" stroke="#2e3436" stroke-width="1.5" d="M141,-193C141,-199 135,-205 129,-205"/>
<polyline fill="none" stroke="#2e3436" stroke-width="1.5" points="129,-205 89,-205 "/>
<path fill="none" stroke="#2e3436" stroke-width="1.5" d="M89,-205C83,-205 77,-199 77,-193"/>
<polyline fill="none" stroke="#2e3436" stroke-width="1.5" points="77,-193 77,-181 "/>
<path fill="none" stroke="#2e3436" stroke-width="1.5" d="M77,-181C77,-175 83,-169 89,-169"/>
<text text-anchor="middle" x="109" y="-193.8" font-family="FreeSans" font-size="8.00" fill="#1c2021">Node[6]</text>
<polyline fill="none" stroke="#2e3436" stroke-width="1.5" points="77,-187 141,-187 "/>
<text text-anchor="start" x="85" y="-175.8" font-family="FreeSans" font-size="8.00" fill="#1c2021">name = &#39;Dirk&#39;</text>
</g>
<!-- N1&#45;&gt;N6 -->
<g id="edge2" class="edge"><title>N1&#45;&gt;N6</title>
<path fill="none" stroke="#2e3436" stroke-width="2" d="M109,-280.505C109,-261.994 109,-233.364 109,-212.66"/>
<polygon fill="#2e3436" stroke="#2e3436" points="109,-205.15 112.375,-212.65 109.5,-208.9 109.5,-212.65 109,-212.65 108.5,-212.65 108.5,-208.9 105.625,-212.65 109,-205.15 109,-205.15"/>
<text text-anchor="middle" x="124.5" y="-240.8" font-family="FreeSans" font-size="8.00" fill="#2e3436">KNOWS</text>
</g>
<!-- N5 -->
<g id="node11" class="node"><title>N5</title>
<polygon fill="#ffffff" stroke="#ffffff" stroke-width="1.5" points="87,-85 131,-85 143,-97 143,-109 131,-121 87,-121 75,-109 75,-97 87,-85"/>
<path fill="#ffffff" stroke="#ffffff" stroke-width="1.5" d="M131,-85C137,-85 143,-91 143,-97"/>
<path fill="#ffffff" stroke="#ffffff" stroke-width="1.5" d="M143,-109C143,-115 137,-121 131,-121"/>
<path fill="#ffffff" stroke="#ffffff" stroke-width="1.5" d="M87,-121C81,-121 75,-115 75,-109"/>
<path fill="#ffffff" stroke="#ffffff" stroke-width="1.5" d="M75,-97C75,-91 81,-85 87,-85"/>
<polyline fill="none" stroke="#2e3436" stroke-width="1.5" points="87,-85 131,-85 "/>
<path fill="none" stroke="#2e3436" stroke-width="1.5" d="M131,-85C137,-85 143,-91 143,-97"/>
<polyline fill="none" stroke="#2e3436" stroke-width="1.5" points="143,-97 143,-109 "/>
<path fill="none" stroke="#2e3436" stroke-width="1.5" d="M143,-109C143,-115 137,-121 131,-121"/>
<polyline fill="none" stroke="#2e3436" stroke-width="1.5" points="131,-121 87,-121 "/>
<path fill="none" stroke="#2e3436" stroke-width="1.5" d="M87,-121C81,-121 75,-115 75,-109"/>
<polyline fill="none" stroke="#2e3436" stroke-width="1.5" points="75,-109 75,-97 "/>
<path fill="none" stroke="#2e3436" stroke-width="1.5" d="M75,-97C75,-91 81,-85 87,-85"/>
<text text-anchor="middle" x="109" y="-109.8" font-family="FreeSans" font-size="8.00" fill="#1c2021">Node[5]</text>
<polyline fill="none" stroke="#2e3436" stroke-width="1.5" points="75,-103 143,-103 "/>
<text text-anchor="start" x="83" y="-91.8" font-family="FreeSans" font-size="8.00" fill="#1c2021">name = &#39;Peter&#39;</text>
</g>
<!-- N6&#45;&gt;N5 -->
<g id="edge12" class="edge"><title>N6&#45;&gt;N5</title>
<path fill="none" stroke="#2e3436" stroke-width="2" d="M109,-168.773C109,-157.105 109,-141.787 109,-128.87"/>
<polygon fill="#2e3436" stroke="#2e3436" points="109,-121.191 112.375,-128.691 109.5,-124.941 109.5,-128.691 109,-128.691 108.5,-128.691 108.5,-124.941 105.625,-128.691 109,-121.191 109,-121.191"/>
<text text-anchor="middle" x="124.5" y="-142.8" font-family="FreeSans" font-size="8.00" fill="#2e3436">KNOWS</text>
</g>
<!-- N2 -->
<g id="node4" class="node"><title>N2</title>
<polygon fill="#ffffff" stroke="#ffffff" stroke-width="1.5" points="41,-1 83,-1 95,-13 95,-25 83,-37 41,-37 29,-25 29,-13 41,-1"/>
<path fill="#ffffff" stroke="#ffffff" stroke-width="1.5" d="M83,-1C89,-1 95,-7 95,-13"/>
<path fill="#ffffff" stroke="#ffffff" stroke-width="1.5" d="M95,-25C95,-31 89,-37 83,-37"/>
<path fill="#ffffff" stroke="#ffffff" stroke-width="1.5" d="M41,-37C35,-37 29,-31 29,-25"/>
<path fill="#ffffff" stroke="#ffffff" stroke-width="1.5" d="M29,-13C29,-7 35,-1 41,-1"/>
<polyline fill="none" stroke="#2e3436" stroke-width="1.5" points="41,-1 83,-1 "/>
<path fill="none" stroke="#2e3436" stroke-width="1.5" d="M83,-1C89,-1 95,-7 95,-13"/>
<polyline fill="none" stroke="#2e3436" stroke-width="1.5" points="95,-13 95,-25 "/>
<path fill="none" stroke="#2e3436" stroke-width="1.5" d="M95,-25C95,-31 89,-37 83,-37"/>
<polyline fill="none" stroke="#2e3436" stroke-width="1.5" points="83,-37 41,-37 "/>
<path fill="none" stroke="#2e3436" stroke-width="1.5" d="M41,-37C35,-37 29,-31 29,-25"/>
<polyline fill="none" stroke="#2e3436" stroke-width="1.5" points="29,-25 29,-13 "/>
<path fill="none" stroke="#2e3436" stroke-width="1.5" d="M29,-13C29,-7 35,-1 41,-1"/>
<text text-anchor="middle" x="62" y="-25.8" font-family="FreeSans" font-size="8.00" fill="#1c2021">Node[2]</text>
<polyline fill="none" stroke="#2e3436" stroke-width="1.5" points="29,-19 95,-19 "/>
<text text-anchor="start" x="37" y="-7.8" font-family="FreeSans" font-size="8.00" fill="#1c2021">name = &#39;Sara&#39;</text>
</g>
<!-- N3 -->
<g id="node5" class="node"><title>N3</title>
<polygon fill="#ffffff" stroke="#ffffff" stroke-width="1.5" points="135.5,-365 170.5,-365 182.5,-377 182.5,-389 170.5,-401 135.5,-401 123.5,-389 123.5,-377 135.5,-365"/>
<path fill="#ffffff" stroke="#ffffff" stroke-width="1.5" d="M170.5,-365C176.5,-365 182.5,-371 182.5,-377"/>
<path fill="#ffffff" stroke="#ffffff" stroke-width="1.5" d="M182.5,-389C182.5,-395 176.5,-401 170.5,-401"/>
<path fill="#ffffff" stroke="#ffffff" stroke-width="1.5" d="M135.5,-401C129.5,-401 123.5,-395 123.5,-389"/>
<path fill="#ffffff" stroke="#ffffff" stroke-width="1.5" d="M123.5,-377C123.5,-371 129.5,-365 135.5,-365"/>
<polyline fill="none" stroke="#2e3436" stroke-width="1.5" points="135.5,-365 170.5,-365 "/>
<path fill="none" stroke="#2e3436" stroke-width="1.5" d="M170.5,-365C176.5,-365 182.5,-371 182.5,-377"/>
<polyline fill="none" stroke="#2e3436" stroke-width="1.5" points="182.5,-377 182.5,-389 "/>
<path fill="none" stroke="#2e3436" stroke-width="1.5" d="M182.5,-389C182.5,-395 176.5,-401 170.5,-401"/>
<polyline fill="none" stroke="#2e3436" stroke-width="1.5" points="170.5,-401 135.5,-401 "/>
<path fill="none" stroke="#2e3436" stroke-width="1.5" d="M135.5,-401C129.5,-401 123.5,-395 123.5,-389"/>
<polyline fill="none" stroke="#2e3436" stroke-width="1.5" points="123.5,-389 123.5,-377 "/>
<path fill="none" stroke="#2e3436" stroke-width="1.5" d="M123.5,-377C123.5,-371 129.5,-365 135.5,-365"/>
<text text-anchor="middle" x="153" y="-389.8" font-family="FreeSans" font-size="8.00" fill="#1c2021">Node[3]</text>
<polyline fill="none" stroke="#2e3436" stroke-width="1.5" points="123.5,-383 182.5,-383 "/>
<text text-anchor="start" x="131.5" y="-371.8" font-family="FreeSans" font-size="8.00" fill="#1c2021">name = &#39;Ed&#39;</text>
</g>
<!-- N3&#45;&gt;N1 -->
<g id="edge4" class="edge"><title>N3&#45;&gt;N1</title>
<path fill="none" stroke="#2e3436" stroke-width="2" d="M143.453,-364.773C137.226,-352.885 129.014,-337.208 122.169,-324.141"/>
<polygon fill="#2e3436" stroke="#2e3436" points="118.529,-317.191 124.999,-322.269 120.712,-320.281 122.452,-323.603 122.009,-323.835 121.566,-324.067 119.826,-320.745 119.019,-325.401 118.529,-317.191 118.529,-317.191"/>
<text text-anchor="middle" x="147.5" y="-338.8" font-family="FreeSans" font-size="8.00" fill="#2e3436">KNOWS</text>
</g>
<!-- N4 -->
<g id="node7" class="node"><title>N4</title>
<polygon fill="#ffffff" stroke="#ffffff" stroke-width="1.5" points="27.5,-365 66.5,-365 78.5,-377 78.5,-389 66.5,-401 27.5,-401 15.5,-389 15.5,-377 27.5,-365"/>
<path fill="#ffffff" stroke="#ffffff" stroke-width="1.5" d="M66.5,-365C72.5,-365 78.5,-371 78.5,-377"/>
<path fill="#ffffff" stroke="#ffffff" stroke-width="1.5" d="M78.5,-389C78.5,-395 72.5,-401 66.5,-401"/>
<path fill="#ffffff" stroke="#ffffff" stroke-width="1.5" d="M27.5,-401C21.5,-401 15.5,-395 15.5,-389"/>
<path fill="#ffffff" stroke="#ffffff" stroke-width="1.5" d="M15.5,-377C15.5,-371 21.5,-365 27.5,-365"/>
<polyline fill="none" stroke="#2e3436" stroke-width="1.5" points="27.5,-365 66.5,-365 "/>
<path fill="none" stroke="#2e3436" stroke-width="1.5" d="M66.5,-365C72.5,-365 78.5,-371 78.5,-377"/>
<polyline fill="none" stroke="#2e3436" stroke-width="1.5" points="78.5,-377 78.5,-389 "/>
<path fill="none" stroke="#2e3436" stroke-width="1.5" d="M78.5,-389C78.5,-395 72.5,-401 66.5,-401"/>
<polyline fill="none" stroke="#2e3436" stroke-width="1.5" points="66.5,-401 27.5,-401 "/>
<path fill="none" stroke="#2e3436" stroke-width="1.5" d="M27.5,-401C21.5,-401 15.5,-395 15.5,-389"/>
<polyline fill="none" stroke="#2e3436" stroke-width="1.5" points="15.5,-389 15.5,-377 "/>
<path fill="none" stroke="#2e3436" stroke-width="1.5" d="M15.5,-377C15.5,-371 21.5,-365 27.5,-365"/>
<text text-anchor="middle" x="47" y="-389.8" font-family="FreeSans" font-size="8.00" fill="#1c2021">Node[4]</text>
<polyline fill="none" stroke="#2e3436" stroke-width="1.5" points="15.5,-383 78.5,-383 "/>
<text text-anchor="start" x="23.5" y="-371.8" font-family="FreeSans" font-size="8.00" fill="#1c2021">name = &#39;Lisa&#39;</text>
</g>
<!-- N4&#45;&gt;N1 -->
<g id="edge6" class="edge"><title>N4&#45;&gt;N1</title>
<path fill="none" stroke="#2e3436" stroke-width="2" d="M60.4531,-364.773C69.3901,-352.665 81.2283,-336.626 90.9771,-323.418"/>
<polygon fill="#2e3436" stroke="#2e3436" points="95.5732,-317.191 93.8347,-325.23 93.7485,-320.505 91.5215,-323.522 91.1192,-323.226 90.717,-322.929 92.9439,-319.911 88.4038,-321.221 95.5732,-317.191 95.5732,-317.191"/>
<text text-anchor="middle" x="94.5" y="-338.8" font-family="FreeSans" font-size="8.00" fill="#2e3436">KNOWS</text>
</g>
<!-- N7 -->
<g id="node10" class="node"><title>N7</title>
<polygon fill="#ffffff" stroke="#ffffff" stroke-width="1.5" points="12,-225 50,-225 62,-237 62,-249 50,-261 12,-261 0,-249 0,-237 12,-225"/>
<path fill="#ffffff" stroke="#ffffff" stroke-width="1.5" d="M50,-225C56,-225 62,-231 62,-237"/>
<path fill="#ffffff" stroke="#ffffff" stroke-width="1.5" d="M62,-249C62,-255 56,-261 50,-261"/>
<path fill="#ffffff" stroke="#ffffff" stroke-width="1.5" d="M12,-261C6,-261 0,-255 0,-249"/>
<path fill="#ffffff" stroke="#ffffff" stroke-width="1.5" d="M0,-237C0,-231 6,-225 12,-225"/>
<polyline fill="none" stroke="#2e3436" stroke-width="1.5" points="12,-225 50,-225 "/>
<path fill="none" stroke="#2e3436" stroke-width="1.5" d="M50,-225C56,-225 62,-231 62,-237"/>
<polyline fill="none" stroke="#2e3436" stroke-width="1.5" points="62,-237 62,-249 "/>
<path fill="none" stroke="#2e3436" stroke-width="1.5" d="M62,-249C62,-255 56,-261 50,-261"/>
<polyline fill="none" stroke="#2e3436" stroke-width="1.5" points="50,-261 12,-261 "/>
<path fill="none" stroke="#2e3436" stroke-width="1.5" d="M12,-261C6,-261 0,-255 0,-249"/>
<polyline fill="none" stroke="#2e3436" stroke-width="1.5" points="0,-249 0,-237 "/>
<path fill="none" stroke="#2e3436" stroke-width="1.5" d="M0,-237C0,-231 6,-225 12,-225"/>
<text text-anchor="middle" x="31" y="-249.8" font-family="FreeSans" font-size="8.00" fill="#1c2021">Node[7]</text>
<polyline fill="none" stroke="#2e3436" stroke-width="1.5" points="0,-243 62,-243 "/>
<text text-anchor="start" x="8" y="-231.8" font-family="FreeSans" font-size="8.00" fill="#1c2021">name = &#39;Joe&#39;</text>
</g>
<!-- N4&#45;&gt;N7 -->
<g id="edge8" class="edge"><title>N4&#45;&gt;N7</title>
<path fill="none" stroke="#4e9a06" stroke-width="2" d="M44.941,-364.984C42.1602,-340.652 37.1853,-297.122 33.9917,-269.178"/>
<polygon fill="#4e9a06" stroke="#4e9a06" points="33.1019,-261.391 37.3067,-268.46 34.0245,-265.06 34.4503,-268.786 33.9536,-268.843 33.4568,-268.9 33.0309,-265.174 30.6004,-269.226 33.1019,-261.391 33.1019,-261.391"/>
<text text-anchor="middle" x="54.5" y="-338.8" font-family="FreeSans" font-size="8.00" fill="#4e9a06">LIKES</text>
</g>
<!-- N7&#45;&gt;N2 -->
<g id="edge14" class="edge"><title>N7&#45;&gt;N2</title>
<path fill="none" stroke="#2e3436" stroke-width="2" d="M33.5369,-224.669C39.0343,-184.946 52.0608,-90.8187 58.4043,-44.9818"/>
<polygon fill="#2e3436" stroke="#2e3436" points="59.4716,-37.27 61.7865,-45.1619 59.4527,-41.0531 58.9386,-44.7677 58.4433,-44.6992 57.9481,-44.6306 58.4622,-40.916 55.1002,-44.2365 59.4716,-37.27 59.4716,-37.27"/>
<text text-anchor="middle" x="61.5" y="-142.8" font-family="FreeSans" font-size="8.00" fill="#2e3436">KNOWS</text>
</g>
<!-- N5&#45;&gt;N2 -->
<g id="edge10" class="edge"><title>N5&#45;&gt;N2</title>
<path fill="none" stroke="#2e3436" stroke-width="2" d="M98.8017,-84.7733C92.0884,-72.7751 83.2157,-56.9174 75.8645,-43.779"/>
<polygon fill="#2e3436" stroke="#2e3436" points="72.1784,-37.1912 78.7859,-42.0883 74.4458,-40.2196 76.2769,-43.4922 75.8406,-43.7363 75.4043,-43.9805 73.5732,-40.7079 72.8953,-45.3843 72.1784,-37.1912 72.1784,-37.1912"/>
<text text-anchor="middle" x="101.5" y="-58.8" font-family="FreeSans" font-size="8.00" fill="#2e3436">KNOWS</text>
</g>
</g>
</svg>
