<?xml version="1.0" encoding="UTF-8" standalone="no"?>
<!DOCTYPE svg PUBLIC "-//W3C//DTD SVG 1.1//EN"
 "http://www.w3.org/Graphics/SVG/1.1/DTD/svg11.dtd">
<!-- Generated by graphviz version 2.26.3 (20100126.1600)
 -->
<!-- Title: g Pages: 1 -->
<svg width="262pt" height="244pt"
 viewBox="0.00 0.00 262.00 244.00" xmlns="http://www.w3.org/2000/svg" xmlns:xlink="http://www.w3.org/1999/xlink">
<g id="graph1" class="graph" transform="scale(1 1) rotate(0) translate(4 240)">
<title>g</title>
<polygon fill="white" stroke="white" points="-4,5 -4,-240 259,-240 259,5 -4,5"/>
<!-- N0 -->
<g id="node1" class="node"><title>N0</title>
<polygon fill="#ffffff" stroke="#ffffff" stroke-width="1.5" points="12,-90 56,-90 68,-102 68,-124 56,-136 12,-136 0,-124 0,-102 12,-90"/>
<path fill="#ffffff" stroke="#ffffff" stroke-width="1.5" d="M56,-90C62,-90 68,-96 68,-102"/>
<path fill="#ffffff" stroke="#ffffff" stroke-width="1.5" d="M68,-124C68,-130 62,-136 56,-136"/>
<path fill="#ffffff" stroke="#ffffff" stroke-width="1.5" d="M12,-136C6,-136 0,-130 0,-124"/>
<path fill="#ffffff" stroke="#ffffff" stroke-width="1.5" d="M0,-102C0,-96 6,-90 12,-90"/>
<polyline fill="none" stroke="#2e3436" stroke-width="1.5" points="12,-90 56,-90 "/>
<path fill="none" stroke="#2e3436" stroke-width="1.5" d="M56,-90C62,-90 68,-96 68,-102"/>
<polyline fill="none" stroke="#2e3436" stroke-width="1.5" points="68,-102 68,-124 "/>
<path fill="none" stroke="#2e3436" stroke-width="1.5" d="M68,-124C68,-130 62,-136 56,-136"/>
<polyline fill="none" stroke="#2e3436" stroke-width="1.5" points="56,-136 12,-136 "/>
<path fill="none" stroke="#2e3436" stroke-width="1.5" d="M12,-136C6,-136 0,-130 0,-124"/>
<polyline fill="none" stroke="#2e3436" stroke-width="1.5" points="0,-124 0,-102 "/>
<path fill="none" stroke="#2e3436" stroke-width="1.5" d="M0,-102C0,-96 6,-90 12,-90"/>
<text text-anchor="middle" x="34" y="-124.8" font-family="FreeSans" font-size="8.00" fill="#1c2021">Person</text>
<polyline fill="none" stroke="#2e3436" stroke-width="1.5" points="0,-118 68,-118 "/>
<text text-anchor="start" x="8" y="-106.8" font-family="FreeSans" font-size="8.00" fill="#1c2021">name = &#39;D&#39;</text>
<text text-anchor="start" x="8" y="-96.8" font-family="FreeSans" font-size="8.00" fill="#1c2021">eyes = &#39;brown&#39;</text>
</g>
<!-- N1 -->
<g id="node2" class="node"><title>N1</title>
<polygon fill="#ffffff" stroke="#ffffff" stroke-width="1.5" points="108.5,-189 149.5,-189 161.5,-201 161.5,-223 149.5,-235 108.5,-235 96.5,-223 96.5,-201 108.5,-189"/>
<path fill="#ffffff" stroke="#ffffff" stroke-width="1.5" d="M149.5,-189C155.5,-189 161.5,-195 161.5,-201"/>
<path fill="#ffffff" stroke="#ffffff" stroke-width="1.5" d="M161.5,-223C161.5,-229 155.5,-235 149.5,-235"/>
<path fill="#ffffff" stroke="#ffffff" stroke-width="1.5" d="M108.5,-235C102.5,-235 96.5,-229 96.5,-223"/>
<path fill="#ffffff" stroke="#ffffff" stroke-width="1.5" d="M96.5,-201C96.5,-195 102.5,-189 108.5,-189"/>
<polyline fill="none" stroke="#2e3436" stroke-width="1.5" points="108.5,-189 149.5,-189 "/>
<path fill="none" stroke="#2e3436" stroke-width="1.5" d="M149.5,-189C155.5,-189 161.5,-195 161.5,-201"/>
<polyline fill="none" stroke="#2e3436" stroke-width="1.5" points="161.5,-201 161.5,-223 "/>
<path fill="none" stroke="#2e3436" stroke-width="1.5" d="M161.5,-223C161.5,-229 155.5,-235 149.5,-235"/>
<polyline fill="none" stroke="#2e3436" stroke-width="1.5" points="149.5,-235 108.5,-235 "/>
<path fill="none" stroke="#2e3436" stroke-width="1.5" d="M108.5,-235C102.5,-235 96.5,-229 96.5,-223"/>
<polyline fill="none" stroke="#2e3436" stroke-width="1.5" points="96.5,-223 96.5,-201 "/>
<path fill="none" stroke="#2e3436" stroke-width="1.5" d="M96.5,-201C96.5,-195 102.5,-189 108.5,-189"/>
<text text-anchor="middle" x="129" y="-223.8" font-family="FreeSans" font-size="8.00" fill="#1c2021">Person</text>
<polyline fill="none" stroke="#2e3436" stroke-width="1.5" points="96.5,-217 161.5,-217 "/>
<text text-anchor="start" x="104.5" y="-205.8" font-family="FreeSans" font-size="8.00" fill="#1c2021">name = &#39;A&#39;</text>
<text text-anchor="start" x="104.5" y="-195.8" font-family="FreeSans" font-size="8.00" fill="#1c2021">property = 13</text>
</g>
<!-- N1&#45;&gt;N0 -->
<g id="edge6" class="edge"><title>N1&#45;&gt;N0</title>
<path fill="none" stroke="#2e3436" stroke-width="2" d="M106.727,-188.789C93.2673,-174.763 76.001,-156.769 61.6699,-141.835"/>
<polygon fill="#2e3436" stroke="#2e3436" points="56.1337,-136.066 63.7618,-139.14 59.0909,-138.425 61.6874,-141.131 61.3266,-141.477 60.9658,-141.823 58.3694,-139.118 58.8914,-143.814 56.1337,-136.066 56.1337,-136.066"/>
<text text-anchor="middle" x="103.5" y="-162.8" font-family="FreeSans" font-size="8.00" fill="#2e3436">KNOWS</text>
</g>
<!-- N2 -->
<g id="node4" class="node"><title>N2</title>
<polygon fill="#ffffff" stroke="#ffffff" stroke-width="1.5" points="108.5,-85 149.5,-85 161.5,-97 161.5,-129 149.5,-141 108.5,-141 96.5,-129 96.5,-97 108.5,-85"/>
<path fill="#ffffff" stroke="#ffffff" stroke-width="1.5" d="M149.5,-85C155.5,-85 161.5,-91 161.5,-97"/>
<path fill="#ffffff" stroke="#ffffff" stroke-width="1.5" d="M161.5,-129C161.5,-135 155.5,-141 149.5,-141"/>
<path fill="#ffffff" stroke="#ffffff" stroke-width="1.5" d="M108.5,-141C102.5,-141 96.5,-135 96.5,-129"/>
<path fill="#ffffff" stroke="#ffffff" stroke-width="1.5" d="M96.5,-97C96.5,-91 102.5,-85 108.5,-85"/>
<polyline fill="none" stroke="#2e3436" stroke-width="1.5" points="108.5,-85 149.5,-85 "/>
<path fill="none" stroke="#2e3436" stroke-width="1.5" d="M149.5,-85C155.5,-85 161.5,-91 161.5,-97"/>
<polyline fill="none" stroke="#2e3436" stroke-width="1.5" points="161.5,-97 161.5,-129 "/>
<path fill="none" stroke="#2e3436" stroke-width="1.5" d="M161.5,-129C161.5,-135 155.5,-141 149.5,-141"/>
<polyline fill="none" stroke="#2e3436" stroke-width="1.5" points="149.5,-141 108.5,-141 "/>
<path fill="none" stroke="#2e3436" stroke-width="1.5" d="M108.5,-141C102.5,-141 96.5,-135 96.5,-129"/>
<polyline fill="none" stroke="#2e3436" stroke-width="1.5" points="96.5,-129 96.5,-97 "/>
<path fill="none" stroke="#2e3436" stroke-width="1.5" d="M96.5,-97C96.5,-91 102.5,-85 108.5,-85"/>
<text text-anchor="middle" x="129" y="-129.8" font-family="FreeSans" font-size="8.00" fill="#1c2021">Person</text>
<polyline fill="none" stroke="#2e3436" stroke-width="1.5" points="96.5,-123 161.5,-123 "/>
<text text-anchor="start" x="104.5" y="-111.8" font-family="FreeSans" font-size="8.00" fill="#1c2021">name = &#39;B&#39;</text>
<text text-anchor="start" x="104.5" y="-101.8" font-family="FreeSans" font-size="8.00" fill="#1c2021">property = 33</text>
<text text-anchor="start" x="104.5" y="-91.8" font-family="FreeSans" font-size="8.00" fill="#1c2021">eyes = &#39;blue&#39;</text>
</g>
<!-- N1&#45;&gt;N2 -->
<g id="edge2" class="edge"><title>N1&#45;&gt;N2</title>
<path fill="none" stroke="#2e3436" stroke-width="2" d="M129,-188.789C129,-176.845 129,-162.025 129,-148.666"/>
<polygon fill="#2e3436" stroke="#2e3436" points="129,-141.002 132.375,-148.502 129.5,-144.752 129.5,-148.502 129,-148.502 128.5,-148.502 128.5,-144.752 125.625,-148.502 129,-141.002 129,-141.002"/>
<text text-anchor="middle" x="144.5" y="-162.8" font-family="FreeSans" font-size="8.00" fill="#2e3436">KNOWS</text>
</g>
<!-- N3 -->
<g id="node6" class="node"><title>N3</title>
<polygon fill="#ffffff" stroke="#ffffff" stroke-width="1.5" points="201.5,-85 242.5,-85 254.5,-97 254.5,-129 242.5,-141 201.5,-141 189.5,-129 189.5,-97 201.5,-85"/>
<path fill="#ffffff" stroke="#ffffff" stroke-width="1.5" d="M242.5,-85C248.5,-85 254.5,-91 254.5,-97"/>
<path fill="#ffffff" stroke="#ffffff" stroke-width="1.5" d="M254.5,-129C254.5,-135 248.5,-141 242.5,-141"/>
<path fill="#ffffff" stroke="#ffffff" stroke-width="1.5" d="M201.5,-141C195.5,-141 189.5,-135 189.5,-129"/>
<path fill="#ffffff" stroke="#ffffff" stroke-width="1.5" d="M189.5,-97C189.5,-91 195.5,-85 201.5,-85"/>
<polyline fill="none" stroke="#2e3436" stroke-width="1.5" points="201.5,-85 242.5,-85 "/>
<path fill="none" stroke="#2e3436" stroke-width="1.5" d="M242.5,-85C248.5,-85 254.5,-91 254.5,-97"/>
<polyline fill="none" stroke="#2e3436" stroke-width="1.5" points="254.5,-97 254.5,-129 "/>
<path fill="none" stroke="#2e3436" stroke-width="1.5" d="M254.5,-129C254.5,-135 248.5,-141 242.5,-141"/>
<polyline fill="none" stroke="#2e3436" stroke-width="1.5" points="242.5,-141 201.5,-141 "/>
<path fill="none" stroke="#2e3436" stroke-width="1.5" d="M201.5,-141C195.5,-141 189.5,-135 189.5,-129"/>
<polyline fill="none" stroke="#2e3436" stroke-width="1.5" points="189.5,-129 189.5,-97 "/>
<path fill="none" stroke="#2e3436" stroke-width="1.5" d="M189.5,-97C189.5,-91 195.5,-85 201.5,-85"/>
<text text-anchor="middle" x="222" y="-129.8" font-family="FreeSans" font-size="8.00" fill="#1c2021">Person</text>
<polyline fill="none" stroke="#2e3436" stroke-width="1.5" points="189.5,-123 254.5,-123 "/>
<text text-anchor="start" x="197.5" y="-111.8" font-family="FreeSans" font-size="8.00" fill="#1c2021">name = &#39;C&#39;</text>
<text text-anchor="start" x="197.5" y="-101.8" font-family="FreeSans" font-size="8.00" fill="#1c2021">property = 44</text>
<text text-anchor="start" x="197.5" y="-91.8" font-family="FreeSans" font-size="8.00" fill="#1c2021">eyes = &#39;blue&#39;</text>
</g>
<!-- N1&#45;&gt;N3 -->
<g id="edge4" class="edge"><title>N1&#45;&gt;N3</title>
<path fill="none" stroke="#2e3436" stroke-width="2" d="M150.804,-188.789C162.549,-176.287 177.253,-160.634 190.245,-146.803"/>
<polygon fill="#2e3436" stroke="#2e3436" points="195.695,-141.002 193.02,-148.78 193.492,-144.078 190.924,-146.811 190.56,-146.469 190.195,-146.126 192.763,-143.393 188.1,-144.158 195.695,-141.002 195.695,-141.002"/>
<text text-anchor="middle" x="190.5" y="-162.8" font-family="FreeSans" font-size="8.00" fill="#2e3436">KNOWS</text>
</g>
<!-- N4 -->
<g id="node9" class="node"><title>N4</title>
<polygon fill="#ffffff" stroke="#ffffff" stroke-width="1.5" points="163.5,-1 194.5,-1 206.5,-13 206.5,-25 194.5,-37 163.5,-37 151.5,-25 151.5,-13 163.5,-1"/>
<path fill="#ffffff" stroke="#ffffff" stroke-width="1.5" d="M194.5,-1C200.5,-1 206.5,-7 206.5,-13"/>
<path fill="#ffffff" stroke="#ffffff" stroke-width="1.5" d="M206.5,-25C206.5,-31 200.5,-37 194.5,-37"/>
<path fill="#ffffff" stroke="#ffffff" stroke-width="1.5" d="M163.5,-37C157.5,-37 151.5,-31 151.5,-25"/>
<path fill="#ffffff" stroke="#ffffff" stroke-width="1.5" d="M151.5,-13C151.5,-7 157.5,-1 163.5,-1"/>
<polyline fill="none" stroke="#2e3436" stroke-width="1.5" points="163.5,-1 194.5,-1 "/>
<path fill="none" stroke="#2e3436" stroke-width="1.5" d="M194.5,-1C200.5,-1 206.5,-7 206.5,-13"/>
<polyline fill="none" stroke="#2e3436" stroke-width="1.5" points="206.5,-13 206.5,-25 "/>
<path fill="none" stroke="#2e3436" stroke-width="1.5" d="M206.5,-25C206.5,-31 200.5,-37 194.5,-37"/>
<polyline fill="none" stroke="#2e3436" stroke-width="1.5" points="194.5,-37 163.5,-37 "/>
<path fill="none" stroke="#2e3436" stroke-width="1.5" d="M163.5,-37C157.5,-37 151.5,-31 151.5,-25"/>
<polyline fill="none" stroke="#2e3436" stroke-width="1.5" points="151.5,-25 151.5,-13 "/>
<path fill="none" stroke="#2e3436" stroke-width="1.5" d="M151.5,-13C151.5,-7 157.5,-1 163.5,-1"/>
<text text-anchor="middle" x="179" y="-25.8" font-family="FreeSans" font-size="8.00" fill="#1c2021">Person</text>
<polyline fill="none" stroke="#2e3436" stroke-width="1.5" points="151.5,-19 206.5,-19 "/>
<text text-anchor="start" x="159.5" y="-7.8" font-family="FreeSans" font-size="8.00" fill="#1c2021">name = &#39;D&#39;</text>
</g>
<!-- N2&#45;&gt;N4 -->
<g id="edge8" class="edge"><title>N2&#45;&gt;N4</title>
<path fill="none" stroke="#2e3436" stroke-width="2" d="M143.055,-84.7454C147.722,-75.5341 153.004,-65.2896 158,-56 160.107,-52.0827 162.384,-47.9611 164.636,-43.9479"/>
<polygon fill="#2e3436" stroke="#2e3436" points="168.366,-37.3518 167.612,-45.5416 166.955,-40.8622 165.109,-44.1265 164.674,-43.8804 164.239,-43.6343 166.085,-40.37 161.736,-42.2192 168.366,-37.3518 168.366,-37.3518"/>
<text text-anchor="middle" x="173.5" y="-58.8" font-family="FreeSans" font-size="8.00" fill="#2e3436">KNOWS</text>
</g>
<!-- N3&#45;&gt;N4 -->
<g id="edge10" class="edge"><title>N3&#45;&gt;N4</title>
<path fill="none" stroke="#2e3436" stroke-width="2" d="M209.099,-84.7969C203.184,-71.8679 196.231,-56.6668 190.498,-44.1346"/>
<polygon fill="#2e3436" stroke="#2e3436" points="187.28,-37.1015 193.47,-42.5178 189.295,-40.3037 190.855,-43.7138 190.4,-43.9218 189.946,-44.1298 188.386,-40.7197 187.331,-45.3258 187.28,-37.1015 187.28,-37.1015"/>
<text text-anchor="middle" x="215.5" y="-58.8" font-family="FreeSans" font-size="8.00" fill="#2e3436">KNOWS</text>
</g>
</g>
</svg>
