<?xml version="1.0" encoding="UTF-8" standalone="no"?>
<!DOCTYPE svg PUBLIC "-//W3C//DTD SVG 1.1//EN"
 "http://www.w3.org/Graphics/SVG/1.1/DTD/svg11.dtd">
<!-- Generated by graphviz version 2.26.3 (20100126.1600)
 -->
<!-- Title: g Pages: 1 -->
<svg width="87pt" height="128pt"
 viewBox="0.00 0.00 87.00 128.00" xmlns="http://www.w3.org/2000/svg" xmlns:xlink="http://www.w3.org/1999/xlink">
<g id="graph1" class="graph" transform="scale(1 1) rotate(0) translate(4 124)">
<title>g</title>
<polygon fill="white" stroke="white" points="-4,5 -4,-124 84,-124 84,5 -4,5"/>
<!-- Start node -->
<g id="node1" class="node"><title>Start node</title>
<polygon fill="#ffffff" stroke="#ffffff" stroke-width="1.5" points="48,-120 12,-120 2.0132e-14,-108 1.18424e-14,-96 12,-84 48,-84 60,-96 60,-108 48,-120"/>
<path fill="#ffffff" stroke="#ffffff" stroke-width="1.5" d="M12,-120C6,-120 2.42769e-14,-114 2.0132e-14,-108"/>
<path fill="#ffffff" stroke="#ffffff" stroke-width="1.5" d="M1.18424e-14,-96C7.69755e-15,-90 6,-84 12,-84"/>
<path fill="#ffffff" stroke="#ffffff" stroke-width="1.5" d="M48,-84C54,-84 60,-90 60,-96"/>
<path fill="#ffffff" stroke="#ffffff" stroke-width="1.5" d="M60,-108C60,-114 54,-120 48,-120"/>
<polyline fill="none" stroke="#2e3436" stroke-width="1.5" points="48,-120 12,-120 "/>
<path fill="none" stroke="#2e3436" stroke-width="1.5" d="M12,-120C6,-120 2.42769e-14,-114 2.0132e-14,-108"/>
<polyline fill="none" stroke="#2e3436" stroke-width="1.5" points="2.0132e-14,-108 1.18424e-14,-96 "/>
<path fill="none" stroke="#2e3436" stroke-width="1.5" d="M1.18424e-14,-96C7.69755e-15,-90 6,-84 12,-84"/>
<polyline fill="none" stroke="#2e3436" stroke-width="1.5" points="12,-84 48,-84 "/>
<path fill="none" stroke="#2e3436" stroke-width="1.5" d="M48,-84C54,-84 60,-90 60,-96"/>
<polyline fill="none" stroke="#2e3436" stroke-width="1.5" points="60,-96 60,-108 "/>
<path fill="none" stroke="#2e3436" stroke-width="1.5" d="M60,-108C60,-114 54,-120 48,-120"/>
<text text-anchor="middle" x="30" y="-99" font-family="FreeSans" font-size="10.00" fill="#1c2021">Start node</text>
</g>
<!-- End node -->
<g id="node3" class="node"><title>End node</title>
<polygon fill="#ffffff" stroke="#ffffff" stroke-width="1.5" points="46,-36 14,-36 2,-24 2,-12 14,-1.47184e-14 46,-6.5979e-15 58,-12 58,-24 46,-36"/>
<path fill="#ffffff" stroke="#ffffff" stroke-width="1.5" d="M14,-36C8,-36 2,-30 2,-24"/>
<path fill="#ffffff" stroke="#ffffff" stroke-width="1.5" d="M2,-12C2,-6 8,-1.6241e-14 14,-1.47184e-14"/>
<path fill="#ffffff" stroke="#ffffff" stroke-width="1.5" d="M46,-6.5979e-15C52,-5.07531e-15 58,-6 58,-12"/>
<path fill="#ffffff" stroke="#ffffff" stroke-width="1.5" d="M58,-24C58,-30 52,-36 46,-36"/>
<polyline fill="none" stroke="#2e3436" stroke-width="1.5" points="46,-36 14,-36 "/>
<path fill="none" stroke="#2e3436" stroke-width="1.5" d="M14,-36C8,-36 2,-30 2,-24"/>
<polyline fill="none" stroke="#2e3436" stroke-width="1.5" points="2,-24 2,-12 "/>
<path fill="none" stroke="#2e3436" stroke-width="1.5" d="M2,-12C2,-6 8,-1.6241e-14 14,-1.47184e-14"/>
<polyline fill="none" stroke="#2e3436" stroke-width="1.5" points="14,-1.47184e-14 46,-6.5979e-15 "/>
<path fill="none" stroke="#2e3436" stroke-width="1.5" d="M46,-6.5979e-15C52,-5.07531e-15 58,-6 58,-12"/>
<polyline fill="none" stroke="#2e3436" stroke-width="1.5" points="58,-12 58,-24 "/>
<path fill="none" stroke="#2e3436" stroke-width="1.5" d="M58,-24C58,-30 52,-36 46,-36"/>
<text text-anchor="middle" x="30" y="-15" font-family="FreeSans" font-size="10.00" fill="#1c2021">End node</text>
</g>
<!-- Start node&#45;&gt;End node -->
<g id="edge2" class="edge"><title>Start node&#45;&gt;End node</title>
<path fill="none" stroke="#2e3436" stroke-width="2" d="M30,-83.7733C30,-72.1053 30,-56.7874 30,-43.8699"/>
<polygon fill="#2e3436" stroke="#2e3436" points="30,-36.1912 33.3751,-43.6911 30.5,-39.9412 30.5001,-43.6912 30.0001,-43.6912 29.5001,-43.6912 29.5,-39.9412 26.6251,-43.6912 30,-36.1912 30,-36.1912"/>
<text text-anchor="middle" x="54.5" y="-57" font-family="FreeSans" font-size="10.00" fill="#1c2021">relationship</text>
</g>
</g>
</svg>
