<?xml version="1.0" encoding="UTF-8" standalone="no"?>
<!DOCTYPE svg PUBLIC "-//W3C//DTD SVG 1.1//EN"
 "http://www.w3.org/Graphics/SVG/1.1/DTD/svg11.dtd">
<!-- Generated by graphviz version 2.26.3 (20100126.1600)
 -->
<!-- Title: g Pages: 1 -->
<svg width="314pt" height="190pt"
 viewBox="0.00 0.00 314.00 190.00" xmlns="http://www.w3.org/2000/svg" xmlns:xlink="http://www.w3.org/1999/xlink">
<g id="graph1" class="graph" transform="scale(1 1) rotate(0) translate(4 186)">
<title>g</title>
<polygon fill="white" stroke="white" points="-4,5 -4,-186 311,-186 311,5 -4,5"/>
<!-- A Relationship -->
<g id="node1" class="node"><title>A Relationship</title>
<polygon fill="#a8e270" stroke="#a8e270" stroke-width="1.5" points="144,-182 90,-182 78,-170 78,-158 90,-146 144,-146 156,-158 156,-170 144,-182"/>
<path fill="#a8e270" stroke="#a8e270" stroke-width="1.5" d="M90,-182C84,-182 78,-176 78,-170"/>
<path fill="#a8e270" stroke="#a8e270" stroke-width="1.5" d="M78,-158C78,-152 84,-146 90,-146"/>
<path fill="#a8e270" stroke="#a8e270" stroke-width="1.5" d="M144,-146C150,-146 156,-152 156,-158"/>
<path fill="#a8e270" stroke="#a8e270" stroke-width="1.5" d="M156,-170C156,-176 150,-182 144,-182"/>
<polyline fill="none" stroke="#2e3436" stroke-width="1.5" points="144,-182 90,-182 "/>
<path fill="none" stroke="#2e3436" stroke-width="1.5" d="M90,-182C84,-182 78,-176 78,-170"/>
<polyline fill="none" stroke="#2e3436" stroke-width="1.5" points="78,-170 78,-158 "/>
<path fill="none" stroke="#2e3436" stroke-width="1.5" d="M78,-158C78,-152 84,-146 90,-146"/>
<polyline fill="none" stroke="#2e3436" stroke-width="1.5" points="90,-146 144,-146 "/>
<path fill="none" stroke="#2e3436" stroke-width="1.5" d="M144,-146C150,-146 156,-152 156,-158"/>
<polyline fill="none" stroke="#2e3436" stroke-width="1.5" points="156,-158 156,-170 "/>
<path fill="none" stroke="#2e3436" stroke-width="1.5" d="M156,-170C156,-176 150,-182 144,-182"/>
<text text-anchor="middle" x="117" y="-161" font-family="FreeSans" font-size="10.00" fill="#1c2021">A Relationship</text>
</g>
<!-- Start node -->
<g id="node2" class="node"><title>Start node</title>
<polygon fill="#95bbe3" stroke="#95bbe3" stroke-width="1.5" points="48,-98 12,-98 2.0132e-14,-86 1.18424e-14,-74 12,-62 48,-62 60,-74 60,-86 48,-98"/>
<path fill="#95bbe3" stroke="#95bbe3" stroke-width="1.5" d="M12,-98C6,-98 2.42769e-14,-92 2.0132e-14,-86"/>
<path fill="#95bbe3" stroke="#95bbe3" stroke-width="1.5" d="M1.18424e-14,-74C7.69755e-15,-68 6,-62 12,-62"/>
<path fill="#95bbe3" stroke="#95bbe3" stroke-width="1.5" d="M48,-62C54,-62 60,-68 60,-74"/>
<path fill="#95bbe3" stroke="#95bbe3" stroke-width="1.5" d="M60,-86C60,-92 54,-98 48,-98"/>
<polyline fill="none" stroke="#2e3436" stroke-width="1.5" points="48,-98 12,-98 "/>
<path fill="none" stroke="#2e3436" stroke-width="1.5" d="M12,-98C6,-98 2.42769e-14,-92 2.0132e-14,-86"/>
<polyline fill="none" stroke="#2e3436" stroke-width="1.5" points="2.0132e-14,-86 1.18424e-14,-74 "/>
<path fill="none" stroke="#2e3436" stroke-width="1.5" d="M1.18424e-14,-74C7.69755e-15,-68 6,-62 12,-62"/>
<polyline fill="none" stroke="#2e3436" stroke-width="1.5" points="12,-62 48,-62 "/>
<path fill="none" stroke="#2e3436" stroke-width="1.5" d="M48,-62C54,-62 60,-68 60,-74"/>
<polyline fill="none" stroke="#2e3436" stroke-width="1.5" points="60,-74 60,-86 "/>
<path fill="none" stroke="#2e3436" stroke-width="1.5" d="M60,-86C60,-92 54,-98 48,-98"/>
<text text-anchor="middle" x="30" y="-77" font-family="FreeSans" font-size="10.00" fill="#1c2021">Start node</text>
</g>
<!-- A Relationship&#45;&gt;Start node -->
<g id="edge2" class="edge"><title>A Relationship&#45;&gt;Start node</title>
<path fill="none" stroke="#2e3436" stroke-width="2" d="M98.1223,-145.773C85.3536,-133.445 68.3645,-117.042 54.547,-103.701"/>
<polygon fill="#2e3436" stroke="#2e3436" points="48.8409,-98.1912 56.5807,-100.973 51.8859,-100.436 54.5837,-103.041 54.2364,-103.401 53.8891,-103.76 51.1913,-101.156 51.8921,-105.829 48.8409,-98.1912 48.8409,-98.1912"/>
<text text-anchor="middle" x="89.5" y="-119" font-family="FreeSans" font-size="10.00" fill="#1c2021">has a</text>
</g>
<!-- End node -->
<g id="node5" class="node"><title>End node</title>
<polygon fill="#fadcad" stroke="#fadcad" stroke-width="1.5" points="133,-98 101,-98 89,-86 89,-74 101,-62 133,-62 145,-74 145,-86 133,-98"/>
<path fill="#fadcad" stroke="#fadcad" stroke-width="1.5" d="M101,-98C95,-98 89,-92 89,-86"/>
<path fill="#fadcad" stroke="#fadcad" stroke-width="1.5" d="M89,-74C89,-68 95,-62 101,-62"/>
<path fill="#fadcad" stroke="#fadcad" stroke-width="1.5" d="M133,-62C139,-62 145,-68 145,-74"/>
<path fill="#fadcad" stroke="#fadcad" stroke-width="1.5" d="M145,-86C145,-92 139,-98 133,-98"/>
<polyline fill="none" stroke="#2e3436" stroke-width="1.5" points="133,-98 101,-98 "/>
<path fill="none" stroke="#2e3436" stroke-width="1.5" d="M101,-98C95,-98 89,-92 89,-86"/>
<polyline fill="none" stroke="#2e3436" stroke-width="1.5" points="89,-86 89,-74 "/>
<path fill="none" stroke="#2e3436" stroke-width="1.5" d="M89,-74C89,-68 95,-62 101,-62"/>
<polyline fill="none" stroke="#2e3436" stroke-width="1.5" points="101,-62 133,-62 "/>
<path fill="none" stroke="#2e3436" stroke-width="1.5" d="M133,-62C139,-62 145,-68 145,-74"/>
<polyline fill="none" stroke="#2e3436" stroke-width="1.5" points="145,-74 145,-86 "/>
<path fill="none" stroke="#2e3436" stroke-width="1.5" d="M145,-86C145,-92 139,-98 133,-98"/>
<text text-anchor="middle" x="117" y="-77" font-family="FreeSans" font-size="10.00" fill="#1c2021">End node</text>
</g>
<!-- A Relationship&#45;&gt;End node -->
<g id="edge4" class="edge"><title>A Relationship&#45;&gt;End node</title>
<path fill="none" stroke="#2e3436" stroke-width="2" d="M117,-145.773C117,-134.105 117,-118.787 117,-105.87"/>
<polygon fill="#2e3436" stroke="#2e3436" points="117,-98.1912 120.375,-105.691 117.5,-101.941 117.5,-105.691 117,-105.691 116.5,-105.691 116.5,-101.941 113.625,-105.691 117,-98.1912 117,-98.1912"/>
<text text-anchor="middle" x="128.5" y="-119" font-family="FreeSans" font-size="10.00" fill="#1c2021">has a</text>
</g>
<!-- Relationship type -->
<g id="node7" class="node"><title>Relationship type</title>
<polygon fill="#fadcad" stroke="#fadcad" stroke-width="1.5" points="250,-98 186,-98 174,-86 174,-74 186,-62 250,-62 262,-74 262,-86 250,-98"/>
<path fill="#fadcad" stroke="#fadcad" stroke-width="1.5" d="M186,-98C180,-98 174,-92 174,-86"/>
<path fill="#fadcad" stroke="#fadcad" stroke-width="1.5" d="M174,-74C174,-68 180,-62 186,-62"/>
<path fill="#fadcad" stroke="#fadcad" stroke-width="1.5" d="M250,-62C256,-62 262,-68 262,-74"/>
<path fill="#fadcad" stroke="#fadcad" stroke-width="1.5" d="M262,-86C262,-92 256,-98 250,-98"/>
<polyline fill="none" stroke="#2e3436" stroke-width="1.5" points="250,-98 186,-98 "/>
<path fill="none" stroke="#2e3436" stroke-width="1.5" d="M186,-98C180,-98 174,-92 174,-86"/>
<polyline fill="none" stroke="#2e3436" stroke-width="1.5" points="174,-86 174,-74 "/>
<path fill="none" stroke="#2e3436" stroke-width="1.5" d="M174,-74C174,-68 180,-62 186,-62"/>
<polyline fill="none" stroke="#2e3436" stroke-width="1.5" points="186,-62 250,-62 "/>
<path fill="none" stroke="#2e3436" stroke-width="1.5" d="M250,-62C256,-62 262,-68 262,-74"/>
<polyline fill="none" stroke="#2e3436" stroke-width="1.5" points="262,-74 262,-86 "/>
<path fill="none" stroke="#2e3436" stroke-width="1.5" d="M262,-86C262,-92 256,-98 250,-98"/>
<text text-anchor="middle" x="218" y="-77" font-family="FreeSans" font-size="10.00" fill="#1c2021">Relationship type</text>
</g>
<!-- A Relationship&#45;&gt;Relationship type -->
<g id="edge6" class="edge"><title>A Relationship&#45;&gt;Relationship type</title>
<path fill="none" stroke="#2e3436" stroke-width="2" d="M138.915,-145.773C154.004,-133.225 174.168,-116.454 190.359,-102.989"/>
<polygon fill="#2e3436" stroke="#2e3436" points="196.127,-98.1912 192.519,-105.582 193.564,-100.974 190.681,-103.371 190.361,-102.987 190.041,-102.603 192.924,-100.205 188.203,-100.392 196.127,-98.1912 196.127,-98.1912"/>
<text text-anchor="middle" x="184.5" y="-119" font-family="FreeSans" font-size="10.00" fill="#1c2021">has a</text>
</g>
<!-- Name -->
<g id="node8" class="node"><title>Name</title>
<text text-anchor="middle" x="218" y="-4" font-family="FreeSans" font-size="10.00" fill="#1c2021">Name</text>
</g>
<!-- Relationship type&#45;&gt;Name -->
<g id="edge8" class="edge"><title>Relationship type&#45;&gt;Name</title>
<path fill="none" stroke="#a40000" stroke-width="2" d="M218,-61.9551C218,-49.5881 218,-33.3854 218,-21.7831"/>
<polygon fill="#a40000" stroke="#a40000" points="218,-14.2685 221.375,-21.7685 218.5,-18.0185 218.5,-21.7685 218,-21.7685 217.5,-21.7685 217.5,-18.0185 214.625,-21.7685 218,-14.2685 218,-14.2685"/>
<text text-anchor="middle" x="262" y="-35" font-family="FreeSans" font-size="10.00" fill="#a40000">uniquely identified by</text>
</g>
</g>
</svg>
