<?xml version="1.0" encoding="UTF-8" standalone="no"?>
<!DOCTYPE svg PUBLIC "-//W3C//DTD SVG 1.1//EN"
 "http://www.w3.org/Graphics/SVG/1.1/DTD/svg11.dtd">
<!-- Generated by graphviz version 2.26.3 (20100126.1600)
 -->
<!-- Title: g Pages: 1 -->
<svg width="175pt" height="234pt"
 viewBox="0.00 0.00 175.00 234.00" xmlns="http://www.w3.org/2000/svg" xmlns:xlink="http://www.w3.org/1999/xlink">
<g id="graph1" class="graph" transform="scale(1 1) rotate(0) translate(4 230)">
<title>g</title>
<polygon fill="white" stroke="white" points="-4,5 -4,-230 172,-230 172,5 -4,5"/>
<!-- N0 -->
<g id="node1" class="node"><title>N0</title>
<polygon fill="#ffffff" stroke="#ffffff" stroke-width="1.5" points="12,-95 52,-95 64,-107 64,-119 52,-131 12,-131 0,-119 0,-107 12,-95"/>
<path fill="#ffffff" stroke="#ffffff" stroke-width="1.5" d="M52,-95C58,-95 64,-101 64,-107"/>
<path fill="#ffffff" stroke="#ffffff" stroke-width="1.5" d="M64,-119C64,-125 58,-131 52,-131"/>
<path fill="#ffffff" stroke="#ffffff" stroke-width="1.5" d="M12,-131C6,-131 0,-125 0,-119"/>
<path fill="#ffffff" stroke="#ffffff" stroke-width="1.5" d="M0,-107C0,-101 6,-95 12,-95"/>
<polyline fill="none" stroke="#2e3436" stroke-width="1.5" points="12,-95 52,-95 "/>
<path fill="none" stroke="#2e3436" stroke-width="1.5" d="M52,-95C58,-95 64,-101 64,-107"/>
<polyline fill="none" stroke="#2e3436" stroke-width="1.5" points="64,-107 64,-119 "/>
<path fill="none" stroke="#2e3436" stroke-width="1.5" d="M64,-119C64,-125 58,-131 52,-131"/>
<polyline fill="none" stroke="#2e3436" stroke-width="1.5" points="52,-131 12,-131 "/>
<path fill="none" stroke="#2e3436" stroke-width="1.5" d="M12,-131C6,-131 0,-125 0,-119"/>
<polyline fill="none" stroke="#2e3436" stroke-width="1.5" points="0,-119 0,-107 "/>
<path fill="none" stroke="#2e3436" stroke-width="1.5" d="M0,-107C0,-101 6,-95 12,-95"/>
<text text-anchor="start" x="8" y="-110.8" font-family="FreeSans" font-size="8.00" fill="#1c2021">name = &#39;Emil&#39;</text>
</g>
<!-- N2 -->
<g id="node3" class="node"><title>N2</title>
<polygon fill="#ffffff" stroke="#ffffff" stroke-width="1.5" points="50,-1 94,-1 106,-13 106,-25 94,-37 50,-37 38,-25 38,-13 50,-1"/>
<path fill="#ffffff" stroke="#ffffff" stroke-width="1.5" d="M94,-1C100,-1 106,-7 106,-13"/>
<path fill="#ffffff" stroke="#ffffff" stroke-width="1.5" d="M106,-25C106,-31 100,-37 94,-37"/>
<path fill="#ffffff" stroke="#ffffff" stroke-width="1.5" d="M50,-37C44,-37 38,-31 38,-25"/>
<path fill="#ffffff" stroke="#ffffff" stroke-width="1.5" d="M38,-13C38,-7 44,-1 50,-1"/>
<polyline fill="none" stroke="#2e3436" stroke-width="1.5" points="50,-1 94,-1 "/>
<path fill="none" stroke="#2e3436" stroke-width="1.5" d="M94,-1C100,-1 106,-7 106,-13"/>
<polyline fill="none" stroke="#2e3436" stroke-width="1.5" points="106,-13 106,-25 "/>
<path fill="none" stroke="#2e3436" stroke-width="1.5" d="M106,-25C106,-31 100,-37 94,-37"/>
<polyline fill="none" stroke="#2e3436" stroke-width="1.5" points="94,-37 50,-37 "/>
<path fill="none" stroke="#2e3436" stroke-width="1.5" d="M50,-37C44,-37 38,-31 38,-25"/>
<polyline fill="none" stroke="#2e3436" stroke-width="1.5" points="38,-25 38,-13 "/>
<path fill="none" stroke="#2e3436" stroke-width="1.5" d="M38,-13C38,-7 44,-1 50,-1"/>
<text text-anchor="start" x="46" y="-21.8" font-family="FreeSans" font-size="8.00" fill="#1c2021">name = &#39;Peter&#39;</text>
<text text-anchor="start" x="46" y="-11.8" font-family="FreeSans" font-size="8.00" fill="#1c2021">age = 34</text>
</g>
<!-- N0&#45;&gt;N2 -->
<g id="edge2" class="edge"><title>N0&#45;&gt;N2</title>
<path fill="none" stroke="#2e3436" stroke-width="2" d="M34.6579,-94.9716C36.778,-83.4648 40.3489,-68.4303 46,-56 47.9617,-51.685 50.4443,-47.3473 53.0929,-43.2376"/>
<polygon fill="#2e3436" stroke="#2e3436" points="57.3406,-37.0034 55.9066,-45.1018 55.6423,-40.3839 53.5307,-43.483 53.1175,-43.2014 52.7043,-42.9199 54.8159,-39.8209 50.3284,-41.301 57.3406,-37.0034 57.3406,-37.0034"/>
<text text-anchor="middle" x="61.5" y="-58.8" font-family="FreeSans" font-size="8.00" fill="#2e3436">KNOWS</text>
</g>
<!-- N1 -->
<g id="node4" class="node"><title>N1</title>
<polygon fill="#ffffff" stroke="#ffffff" stroke-width="1.5" points="106,-189 154,-189 166,-201 166,-213 154,-225 106,-225 94,-213 94,-201 106,-189"/>
<path fill="#ffffff" stroke="#ffffff" stroke-width="1.5" d="M154,-189C160,-189 166,-195 166,-201"/>
<path fill="#ffffff" stroke="#ffffff" stroke-width="1.5" d="M166,-213C166,-219 160,-225 154,-225"/>
<path fill="#ffffff" stroke="#ffffff" stroke-width="1.5" d="M106,-225C100,-225 94,-219 94,-213"/>
<path fill="#ffffff" stroke="#ffffff" stroke-width="1.5" d="M94,-201C94,-195 100,-189 106,-189"/>
<polyline fill="none" stroke="#2e3436" stroke-width="1.5" points="106,-189 154,-189 "/>
<path fill="none" stroke="#2e3436" stroke-width="1.5" d="M154,-189C160,-189 166,-195 166,-201"/>
<polyline fill="none" stroke="#2e3436" stroke-width="1.5" points="166,-201 166,-213 "/>
<path fill="none" stroke="#2e3436" stroke-width="1.5" d="M166,-213C166,-219 160,-225 154,-225"/>
<polyline fill="none" stroke="#2e3436" stroke-width="1.5" points="154,-225 106,-225 "/>
<path fill="none" stroke="#2e3436" stroke-width="1.5" d="M106,-225C100,-225 94,-219 94,-213"/>
<polyline fill="none" stroke="#2e3436" stroke-width="1.5" points="94,-213 94,-201 "/>
<path fill="none" stroke="#2e3436" stroke-width="1.5" d="M94,-201C94,-195 100,-189 106,-189"/>
<text text-anchor="start" x="102" y="-204.8" font-family="FreeSans" font-size="8.00" fill="#1c2021">name = &#39;Stefan&#39;</text>
</g>
<!-- N3 -->
<g id="node6" class="node"><title>N3</title>
<polygon fill="#ffffff" stroke="#ffffff" stroke-width="1.5" points="105,-85 155,-85 167,-97 167,-129 155,-141 105,-141 93,-129 93,-97 105,-85"/>
<path fill="#ffffff" stroke="#ffffff" stroke-width="1.5" d="M155,-85C161,-85 167,-91 167,-97"/>
<path fill="#ffffff" stroke="#ffffff" stroke-width="1.5" d="M167,-129C167,-135 161,-141 155,-141"/>
<path fill="#ffffff" stroke="#ffffff" stroke-width="1.5" d="M105,-141C99,-141 93,-135 93,-129"/>
<path fill="#ffffff" stroke="#ffffff" stroke-width="1.5" d="M93,-97C93,-91 99,-85 105,-85"/>
<polyline fill="none" stroke="#2e3436" stroke-width="1.5" points="105,-85 155,-85 "/>
<path fill="none" stroke="#2e3436" stroke-width="1.5" d="M155,-85C161,-85 167,-91 167,-97"/>
<polyline fill="none" stroke="#2e3436" stroke-width="1.5" points="167,-97 167,-129 "/>
<path fill="none" stroke="#2e3436" stroke-width="1.5" d="M167,-129C167,-135 161,-141 155,-141"/>
<polyline fill="none" stroke="#2e3436" stroke-width="1.5" points="155,-141 105,-141 "/>
<path fill="none" stroke="#2e3436" stroke-width="1.5" d="M105,-141C99,-141 93,-135 93,-129"/>
<polyline fill="none" stroke="#2e3436" stroke-width="1.5" points="93,-129 93,-97 "/>
<path fill="none" stroke="#2e3436" stroke-width="1.5" d="M93,-97C93,-91 99,-85 105,-85"/>
<text text-anchor="middle" x="130" y="-129.8" font-family="FreeSans" font-size="8.00" fill="#1c2021">Swedish</text>
<polyline fill="none" stroke="#2e3436" stroke-width="1.5" points="93,-123 167,-123 "/>
<text text-anchor="start" x="101" y="-111.8" font-family="FreeSans" font-size="8.00" fill="#1c2021">name = &#39;Andres&#39;</text>
<text text-anchor="start" x="101" y="-101.8" font-family="FreeSans" font-size="8.00" fill="#1c2021">age = 36</text>
<text text-anchor="start" x="101" y="-91.8" font-family="FreeSans" font-size="8.00" fill="#1c2021">awesome = true</text>
</g>
<!-- N1&#45;&gt;N3 -->
<g id="edge4" class="edge"><title>N1&#45;&gt;N3</title>
<path fill="none" stroke="#2e3436" stroke-width="2" d="M130,-188.876C130,-177.548 130,-162.567 130,-148.91"/>
<polygon fill="#2e3436" stroke="#2e3436" points="130,-141.06 133.375,-148.56 130.5,-144.81 130.5,-148.56 130,-148.56 129.5,-148.56 129.5,-144.81 126.625,-148.56 130,-141.06 130,-141.06"/>
<text text-anchor="middle" x="145.5" y="-162.8" font-family="FreeSans" font-size="8.00" fill="#2e3436">KNOWS</text>
</g>
<!-- N3&#45;&gt;N2 -->
<g id="edge6" class="edge"><title>N3&#45;&gt;N2</title>
<path fill="none" stroke="#2e3436" stroke-width="2" d="M112.598,-84.7969C104.546,-71.747 95.0658,-56.3824 87.2922,-43.7839"/>
<polygon fill="#2e3436" stroke="#2e3436" points="83.169,-37.1015 89.9796,-41.7121 85.5637,-40.0304 87.5329,-43.2218 87.1074,-43.4843 86.6819,-43.7469 84.7127,-40.5555 84.2351,-45.2566 83.169,-37.1015 83.169,-37.1015"/>
<text text-anchor="middle" x="116.5" y="-58.8" font-family="FreeSans" font-size="8.00" fill="#2e3436">KNOWS</text>
</g>
</g>
</svg>
