<?xml version="1.0" encoding="UTF-8" standalone="no"?>
<!DOCTYPE svg PUBLIC "-//W3C//DTD SVG 1.1//EN"
 "http://www.w3.org/Graphics/SVG/1.1/DTD/svg11.dtd">
<!-- Generated by graphviz version 2.26.3 (20100126.1600)
 -->
<!-- Title: g Pages: 1 -->
<svg width="193pt" height="298pt"
 viewBox="0.00 0.00 193.00 298.00" xmlns="http://www.w3.org/2000/svg" xmlns:xlink="http://www.w3.org/1999/xlink">
<g id="graph1" class="graph" transform="scale(1 1) rotate(0) translate(4 294)">
<title>g</title>
<polygon fill="white" stroke="white" points="-4,5 -4,-294 190,-294 190,5 -4,5"/>
<!-- N1 -->
<g id="node1" class="node"><title>N1</title>
<polygon fill="#ffffff" stroke="#ffffff" stroke-width="1.5" points="107.5,-253 152.5,-253 164.5,-265 164.5,-277 152.5,-289 107.5,-289 95.5,-277 95.5,-265 107.5,-253"/>
<path fill="#ffffff" stroke="#ffffff" stroke-width="1.5" d="M152.5,-253C158.5,-253 164.5,-259 164.5,-265"/>
<path fill="#ffffff" stroke="#ffffff" stroke-width="1.5" d="M164.5,-277C164.5,-283 158.5,-289 152.5,-289"/>
<path fill="#ffffff" stroke="#ffffff" stroke-width="1.5" d="M107.5,-289C101.5,-289 95.5,-283 95.5,-277"/>
<path fill="#ffffff" stroke="#ffffff" stroke-width="1.5" d="M95.5,-265C95.5,-259 101.5,-253 107.5,-253"/>
<polyline fill="none" stroke="#2e3436" stroke-width="1.5" points="107.5,-253 152.5,-253 "/>
<path fill="none" stroke="#2e3436" stroke-width="1.5" d="M152.5,-253C158.5,-253 164.5,-259 164.5,-265"/>
<polyline fill="none" stroke="#2e3436" stroke-width="1.5" points="164.5,-265 164.5,-277 "/>
<path fill="none" stroke="#2e3436" stroke-width="1.5" d="M164.5,-277C164.5,-283 158.5,-289 152.5,-289"/>
<polyline fill="none" stroke="#2e3436" stroke-width="1.5" points="152.5,-289 107.5,-289 "/>
<path fill="none" stroke="#2e3436" stroke-width="1.5" d="M107.5,-289C101.5,-289 95.5,-283 95.5,-277"/>
<polyline fill="none" stroke="#2e3436" stroke-width="1.5" points="95.5,-277 95.5,-265 "/>
<path fill="none" stroke="#2e3436" stroke-width="1.5" d="M95.5,-265C95.5,-259 101.5,-253 107.5,-253"/>
<text text-anchor="middle" x="130" y="-277.8" font-family="FreeSans" font-size="8.00" fill="#1c2021">Node[1]</text>
<polyline fill="none" stroke="#2e3436" stroke-width="1.5" points="95.5,-271 164.5,-271 "/>
<text text-anchor="start" x="103.5" y="-259.8" font-family="FreeSans" font-size="8.00" fill="#1c2021">name = &#39;David&#39;</text>
</g>
<!-- N3 -->
<g id="node3" class="node"><title>N3</title>
<polygon fill="#ffffff" stroke="#ffffff" stroke-width="1.5" points="36,-169 86,-169 98,-181 98,-193 86,-205 36,-205 24,-193 24,-181 36,-169"/>
<path fill="#ffffff" stroke="#ffffff" stroke-width="1.5" d="M86,-169C92,-169 98,-175 98,-181"/>
<path fill="#ffffff" stroke="#ffffff" stroke-width="1.5" d="M98,-193C98,-199 92,-205 86,-205"/>
<path fill="#ffffff" stroke="#ffffff" stroke-width="1.5" d="M36,-205C30,-205 24,-199 24,-193"/>
<path fill="#ffffff" stroke="#ffffff" stroke-width="1.5" d="M24,-181C24,-175 30,-169 36,-169"/>
<polyline fill="none" stroke="#2e3436" stroke-width="1.5" points="36,-169 86,-169 "/>
<path fill="none" stroke="#2e3436" stroke-width="1.5" d="M86,-169C92,-169 98,-175 98,-181"/>
<polyline fill="none" stroke="#2e3436" stroke-width="1.5" points="98,-181 98,-193 "/>
<path fill="none" stroke="#2e3436" stroke-width="1.5" d="M98,-193C98,-199 92,-205 86,-205"/>
<polyline fill="none" stroke="#2e3436" stroke-width="1.5" points="86,-205 36,-205 "/>
<path fill="none" stroke="#2e3436" stroke-width="1.5" d="M36,-205C30,-205 24,-199 24,-193"/>
<polyline fill="none" stroke="#2e3436" stroke-width="1.5" points="24,-193 24,-181 "/>
<path fill="none" stroke="#2e3436" stroke-width="1.5" d="M24,-181C24,-175 30,-169 36,-169"/>
<text text-anchor="middle" x="61" y="-193.8" font-family="FreeSans" font-size="8.00" fill="#1c2021">Node[3]</text>
<polyline fill="none" stroke="#2e3436" stroke-width="1.5" points="24,-187 98,-187 "/>
<text text-anchor="start" x="32" y="-175.8" font-family="FreeSans" font-size="8.00" fill="#1c2021">name = &#39;Anders&#39;</text>
</g>
<!-- N1&#45;&gt;N3 -->
<g id="edge2" class="edge"><title>N1&#45;&gt;N3</title>
<path fill="none" stroke="#2e3436" stroke-width="2" d="M115.028,-252.773C104.992,-240.555 91.6674,-224.334 80.7624,-211.059"/>
<polygon fill="#2e3436" stroke="#2e3436" points="75.9428,-205.191 83.3113,-208.844 78.7094,-207.772 81.0897,-210.669 80.7033,-210.987 80.317,-211.304 77.9367,-208.406 78.0954,-213.129 75.9428,-205.191 75.9428,-205.191"/>
<text text-anchor="middle" x="113.5" y="-226.8" font-family="FreeSans" font-size="8.00" fill="#2e3436">KNOWS</text>
</g>
<!-- N4 -->
<g id="node6" class="node"><title>N4</title>
<polygon fill="#ffffff" stroke="#ffffff" stroke-width="1.5" points="115,-85 173,-85 185,-97 185,-109 173,-121 115,-121 103,-109 103,-97 115,-85"/>
<path fill="#ffffff" stroke="#ffffff" stroke-width="1.5" d="M173,-85C179,-85 185,-91 185,-97"/>
<path fill="#ffffff" stroke="#ffffff" stroke-width="1.5" d="M185,-109C185,-115 179,-121 173,-121"/>
<path fill="#ffffff" stroke="#ffffff" stroke-width="1.5" d="M115,-121C109,-121 103,-115 103,-109"/>
<path fill="#ffffff" stroke="#ffffff" stroke-width="1.5" d="M103,-97C103,-91 109,-85 115,-85"/>
<polyline fill="none" stroke="#2e3436" stroke-width="1.5" points="115,-85 173,-85 "/>
<path fill="none" stroke="#2e3436" stroke-width="1.5" d="M173,-85C179,-85 185,-91 185,-97"/>
<polyline fill="none" stroke="#2e3436" stroke-width="1.5" points="185,-97 185,-109 "/>
<path fill="none" stroke="#2e3436" stroke-width="1.5" d="M185,-109C185,-115 179,-121 173,-121"/>
<polyline fill="none" stroke="#2e3436" stroke-width="1.5" points="173,-121 115,-121 "/>
<path fill="none" stroke="#2e3436" stroke-width="1.5" d="M115,-121C109,-121 103,-115 103,-109"/>
<polyline fill="none" stroke="#2e3436" stroke-width="1.5" points="103,-109 103,-97 "/>
<path fill="none" stroke="#2e3436" stroke-width="1.5" d="M103,-97C103,-91 109,-85 115,-85"/>
<text text-anchor="middle" x="144" y="-109.8" font-family="FreeSans" font-size="8.00" fill="#1c2021">Node[4]</text>
<polyline fill="none" stroke="#2e3436" stroke-width="1.5" points="103,-103 185,-103 "/>
<text text-anchor="start" x="111" y="-91.8" font-family="FreeSans" font-size="8.00" fill="#1c2021">name = &#39;Bossman&#39;</text>
</g>
<!-- N3&#45;&gt;N4 -->
<g id="edge4" class="edge"><title>N3&#45;&gt;N4</title>
<path fill="none" stroke="#2e3436" stroke-width="2" d="M76.5156,-168.731C84.2566,-159.854 93.8916,-149.153 103,-140 107.569,-135.408 112.583,-130.663 117.487,-126.165"/>
<polygon fill="#2e3436" stroke="#2e3436" points="123.162,-121.023 119.87,-128.56 120.719,-123.912 117.94,-126.43 117.604,-126.059 117.268,-125.689 120.047,-123.171 115.338,-123.558 123.162,-121.023 123.162,-121.023"/>
<text text-anchor="middle" x="118.5" y="-142.8" font-family="FreeSans" font-size="8.00" fill="#2e3436">KNOWS</text>
</g>
<!-- N5 -->
<g id="node8" class="node"><title>N5</title>
<polygon fill="#ffffff" stroke="#ffffff" stroke-width="1.5" points="11.5,-85 62.5,-85 74.5,-97 74.5,-109 62.5,-121 11.5,-121 -0.5,-109 -0.5,-97 11.5,-85"/>
<path fill="#ffffff" stroke="#ffffff" stroke-width="1.5" d="M62.5,-85C68.5,-85 74.5,-91 74.5,-97"/>
<path fill="#ffffff" stroke="#ffffff" stroke-width="1.5" d="M74.5,-109C74.5,-115 68.5,-121 62.5,-121"/>
<path fill="#ffffff" stroke="#ffffff" stroke-width="1.5" d="M11.5,-121C5.5,-121 -0.5,-115 -0.5,-109"/>
<path fill="#ffffff" stroke="#ffffff" stroke-width="1.5" d="M-0.5,-97C-0.5,-91 5.5,-85 11.5,-85"/>
<polyline fill="none" stroke="#2e3436" stroke-width="1.5" points="11.5,-85 62.5,-85 "/>
<path fill="none" stroke="#2e3436" stroke-width="1.5" d="M62.5,-85C68.5,-85 74.5,-91 74.5,-97"/>
<polyline fill="none" stroke="#2e3436" stroke-width="1.5" points="74.5,-97 74.5,-109 "/>
<path fill="none" stroke="#2e3436" stroke-width="1.5" d="M74.5,-109C74.5,-115 68.5,-121 62.5,-121"/>
<polyline fill="none" stroke="#2e3436" stroke-width="1.5" points="62.5,-121 11.5,-121 "/>
<path fill="none" stroke="#2e3436" stroke-width="1.5" d="M11.5,-121C5.5,-121 -0.5,-115 -0.5,-109"/>
<polyline fill="none" stroke="#2e3436" stroke-width="1.5" points="-0.5,-109 -0.5,-97 "/>
<path fill="none" stroke="#2e3436" stroke-width="1.5" d="M-0.5,-97C-0.5,-91 5.5,-85 11.5,-85"/>
<text text-anchor="middle" x="37" y="-109.8" font-family="FreeSans" font-size="8.00" fill="#1c2021">Node[5]</text>
<polyline fill="none" stroke="#2e3436" stroke-width="1.5" points="-0.5,-103 74.5,-103 "/>
<text text-anchor="start" x="7.5" y="-91.8" font-family="FreeSans" font-size="8.00" fill="#1c2021">name = &#39;Ceasar&#39;</text>
</g>
<!-- N3&#45;&gt;N5 -->
<g id="edge6" class="edge"><title>N3&#45;&gt;N5</title>
<path fill="none" stroke="#4e9a06" stroke-width="2" d="M44.7959,-168.621C40.8063,-163.018 37.083,-156.587 35,-150 32.9116,-143.396 32.4264,-136.009 32.7115,-129.082"/>
<polygon fill="#4e9a06" stroke="#4e9a06" points="33.35,-121.238 36.1053,-128.987 33.5441,-125.016 33.2398,-128.754 32.7415,-128.713 32.2431,-128.673 32.5474,-124.935 29.3776,-128.439 33.35,-121.238 33.35,-121.238"/>
<text text-anchor="middle" x="52" y="-142.8" font-family="FreeSans" font-size="8.00" fill="#4e9a06">BLOCKS</text>
</g>
<!-- N2 -->
<g id="node4" class="node"><title>N2</title>
<polygon fill="#ffffff" stroke="#ffffff" stroke-width="1.5" points="75,-1 115,-1 127,-13 127,-25 115,-37 75,-37 63,-25 63,-13 75,-1"/>
<path fill="#ffffff" stroke="#ffffff" stroke-width="1.5" d="M115,-1C121,-1 127,-7 127,-13"/>
<path fill="#ffffff" stroke="#ffffff" stroke-width="1.5" d="M127,-25C127,-31 121,-37 115,-37"/>
<path fill="#ffffff" stroke="#ffffff" stroke-width="1.5" d="M75,-37C69,-37 63,-31 63,-25"/>
<path fill="#ffffff" stroke="#ffffff" stroke-width="1.5" d="M63,-13C63,-7 69,-1 75,-1"/>
<polyline fill="none" stroke="#2e3436" stroke-width="1.5" points="75,-1 115,-1 "/>
<path fill="none" stroke="#2e3436" stroke-width="1.5" d="M115,-1C121,-1 127,-7 127,-13"/>
<polyline fill="none" stroke="#2e3436" stroke-width="1.5" points="127,-13 127,-25 "/>
<path fill="none" stroke="#2e3436" stroke-width="1.5" d="M127,-25C127,-31 121,-37 115,-37"/>
<polyline fill="none" stroke="#2e3436" stroke-width="1.5" points="115,-37 75,-37 "/>
<path fill="none" stroke="#2e3436" stroke-width="1.5" d="M75,-37C69,-37 63,-31 63,-25"/>
<polyline fill="none" stroke="#2e3436" stroke-width="1.5" points="63,-25 63,-13 "/>
<path fill="none" stroke="#2e3436" stroke-width="1.5" d="M63,-13C63,-7 69,-1 75,-1"/>
<text text-anchor="middle" x="95" y="-25.8" font-family="FreeSans" font-size="8.00" fill="#1c2021">Node[2]</text>
<polyline fill="none" stroke="#2e3436" stroke-width="1.5" points="63,-19 127,-19 "/>
<text text-anchor="start" x="71" y="-7.8" font-family="FreeSans" font-size="8.00" fill="#1c2021">name = &#39;Emil&#39;</text>
</g>
<!-- N4&#45;&gt;N1 -->
<g id="edge10" class="edge"><title>N4&#45;&gt;N1</title>
<path fill="none" stroke="#4e9a06" stroke-width="2" d="M143.46,-121.275C142.579,-146.638 140.463,-193.917 136,-234 135.59,-237.687 135.064,-241.566 134.496,-245.369"/>
<polygon fill="#4e9a06" stroke="#4e9a06" points="133.291,-252.983 131.13,-245.048 133.384,-249.201 133.97,-245.497 134.464,-245.575 134.957,-245.653 134.371,-249.357 137.797,-246.103 133.291,-252.983 133.291,-252.983"/>
<text text-anchor="middle" x="158" y="-184.8" font-family="FreeSans" font-size="8.00" fill="#4e9a06">BLOCKS</text>
</g>
<!-- N4&#45;&gt;N2 -->
<g id="edge8" class="edge"><title>N4&#45;&gt;N2</title>
<path fill="none" stroke="#2e3436" stroke-width="2" d="M133.368,-84.7733C126.369,-72.7751 117.119,-56.9174 109.454,-43.779"/>
<polygon fill="#2e3436" stroke="#2e3436" points="105.612,-37.1912 112.306,-41.9689 107.933,-40.1784 109.822,-43.4176 109.391,-43.6695 108.959,-43.9215 107.069,-40.6823 106.475,-45.3701 105.612,-37.1912 105.612,-37.1912"/>
<text text-anchor="middle" x="135.5" y="-58.8" font-family="FreeSans" font-size="8.00" fill="#2e3436">KNOWS</text>
</g>
<!-- N5&#45;&gt;N2 -->
<g id="edge12" class="edge"><title>N5&#45;&gt;N2</title>
<path fill="none" stroke="#2e3436" stroke-width="2" d="M49.5851,-84.7733C57.9456,-72.665 69.02,-56.6261 78.1399,-43.4181"/>
<polygon fill="#2e3436" stroke="#2e3436" points="82.4394,-37.1912 80.9552,-45.2806 80.7201,-40.5611 78.5894,-43.647 78.178,-43.3629 77.7665,-43.0788 79.8972,-39.993 75.4007,-41.4453 82.4394,-37.1912 82.4394,-37.1912"/>
<text text-anchor="middle" x="83.5" y="-58.8" font-family="FreeSans" font-size="8.00" fill="#2e3436">KNOWS</text>
</g>
</g>
</svg>
