<?xml version="1.0" encoding="UTF-8" standalone="no"?>
<!DOCTYPE svg PUBLIC "-//W3C//DTD SVG 1.1//EN"
 "http://www.w3.org/Graphics/SVG/1.1/DTD/svg11.dtd">
<!-- Generated by graphviz version 2.26.3 (20100126.1600)
 -->
<!-- Title: g Pages: 1 -->
<svg width="238pt" height="266pt"
 viewBox="0.00 0.00 238.00 266.00" xmlns="http://www.w3.org/2000/svg" xmlns:xlink="http://www.w3.org/1999/xlink">
<g id="graph1" class="graph" transform="scale(1 1) rotate(0) translate(4 262)">
<title>g</title>
<polygon fill="white" stroke="white" points="-4,5 -4,-262 235,-262 235,5 -4,5"/>
<!-- N0 -->
<g id="node1" class="node"><title>N0</title>
<polygon fill="#ffffff" stroke="#ffffff" stroke-width="1.5" points="160.5,-15 207.5,-15 219.5,-27 219.5,-41 207.5,-53 160.5,-53 148.5,-41 148.5,-27 160.5,-15"/>
<path fill="#ffffff" stroke="#ffffff" stroke-width="1.5" d="M207.5,-15C213.5,-15 219.5,-21 219.5,-27"/>
<path fill="#ffffff" stroke="#ffffff" stroke-width="1.5" d="M219.5,-41C219.5,-47 213.5,-53 207.5,-53"/>
<path fill="#ffffff" stroke="#ffffff" stroke-width="1.5" d="M160.5,-53C154.5,-53 148.5,-47 148.5,-41"/>
<path fill="#ffffff" stroke="#ffffff" stroke-width="1.5" d="M148.5,-27C148.5,-21 154.5,-15 160.5,-15"/>
<polyline fill="none" stroke="#2e3436" stroke-width="1.5" points="160.5,-15 207.5,-15 "/>
<path fill="none" stroke="#2e3436" stroke-width="1.5" d="M207.5,-15C213.5,-15 219.5,-21 219.5,-27"/>
<polyline fill="none" stroke="#2e3436" stroke-width="1.5" points="219.5,-27 219.5,-41 "/>
<path fill="none" stroke="#2e3436" stroke-width="1.5" d="M219.5,-41C219.5,-47 213.5,-53 207.5,-53"/>
<polyline fill="none" stroke="#2e3436" stroke-width="1.5" points="207.5,-53 160.5,-53 "/>
<path fill="none" stroke="#2e3436" stroke-width="1.5" d="M160.5,-53C154.5,-53 148.5,-47 148.5,-41"/>
<polyline fill="none" stroke="#2e3436" stroke-width="1.5" points="148.5,-41 148.5,-27 "/>
<path fill="none" stroke="#2e3436" stroke-width="1.5" d="M148.5,-27C148.5,-21 154.5,-15 160.5,-15"/>
<text text-anchor="start" x="156.5" y="-41.8" font-family="FreeSans" font-size="8.00" fill="#1c2021">name = &#39;Daniel&#39;</text>
<text text-anchor="start" x="156.5" y="-31.8" font-family="FreeSans" font-size="8.00" fill="#1c2021">age = 54</text>
<text text-anchor="start" x="156.5" y="-21.8" font-family="FreeSans" font-size="8.00" fill="#1c2021">eyes = &#39;brown&#39;</text>
</g>
<!-- N1 -->
<g id="node2" class="node"><title>N1</title>
<polygon fill="#ffffff" stroke="#ffffff" stroke-width="1.5" points="12,-1 100,-1 112,-13 112,-55 100,-67 12,-67 0,-55 0,-13 12,-1"/>
<path fill="#ffffff" stroke="#ffffff" stroke-width="1.5" d="M100,-1C106,-1 112,-7 112,-13"/>
<path fill="#ffffff" stroke="#ffffff" stroke-width="1.5" d="M112,-55C112,-61 106,-67 100,-67"/>
<path fill="#ffffff" stroke="#ffffff" stroke-width="1.5" d="M12,-67C6,-67 0,-61 0,-55"/>
<path fill="#ffffff" stroke="#ffffff" stroke-width="1.5" d="M0,-13C0,-7 6,-1 12,-1"/>
<polyline fill="none" stroke="#2e3436" stroke-width="1.5" points="12,-1 100,-1 "/>
<path fill="none" stroke="#2e3436" stroke-width="1.5" d="M100,-1C106,-1 112,-7 112,-13"/>
<polyline fill="none" stroke="#2e3436" stroke-width="1.5" points="112,-13 112,-55 "/>
<path fill="none" stroke="#2e3436" stroke-width="1.5" d="M112,-55C112,-61 106,-67 100,-67"/>
<polyline fill="none" stroke="#2e3436" stroke-width="1.5" points="100,-67 12,-67 "/>
<path fill="none" stroke="#2e3436" stroke-width="1.5" d="M12,-67C6,-67 0,-61 0,-55"/>
<polyline fill="none" stroke="#2e3436" stroke-width="1.5" points="0,-55 0,-13 "/>
<path fill="none" stroke="#2e3436" stroke-width="1.5" d="M0,-13C0,-7 6,-1 12,-1"/>
<text text-anchor="middle" x="56" y="-55.8" font-family="FreeSans" font-size="8.00" fill="#1c2021">Spouse</text>
<polyline fill="none" stroke="#2e3436" stroke-width="1.5" points="0,-49 112,-49 "/>
<text text-anchor="start" x="8" y="-37.8" font-family="FreeSans" font-size="8.00" fill="#1c2021">name = &#39;Eskil&#39;</text>
<text text-anchor="start" x="8" y="-27.8" font-family="FreeSans" font-size="8.00" fill="#1c2021">age = 41</text>
<text text-anchor="start" x="8" y="-17.8" font-family="FreeSans" font-size="8.00" fill="#1c2021">eyes = &#39;blue&#39;</text>
<text text-anchor="start" x="8" y="-7.8" font-family="FreeSans" font-size="8.00" fill="#1c2021">array = [&#39;one&#39;, &#39;two&#39;, &#39;three&#39;]</text>
</g>
<!-- N2 -->
<g id="node3" class="node"><title>N2</title>
<polygon fill="#ffffff" stroke="#ffffff" stroke-width="1.5" points="126,-201 170,-201 182,-213 182,-245 170,-257 126,-257 114,-245 114,-213 126,-201"/>
<path fill="#ffffff" stroke="#ffffff" stroke-width="1.5" d="M170,-201C176,-201 182,-207 182,-213"/>
<path fill="#ffffff" stroke="#ffffff" stroke-width="1.5" d="M182,-245C182,-251 176,-257 170,-257"/>
<path fill="#ffffff" stroke="#ffffff" stroke-width="1.5" d="M126,-257C120,-257 114,-251 114,-245"/>
<path fill="#ffffff" stroke="#ffffff" stroke-width="1.5" d="M114,-213C114,-207 120,-201 126,-201"/>
<polyline fill="none" stroke="#2e3436" stroke-width="1.5" points="126,-201 170,-201 "/>
<path fill="none" stroke="#2e3436" stroke-width="1.5" d="M170,-201C176,-201 182,-207 182,-213"/>
<polyline fill="none" stroke="#2e3436" stroke-width="1.5" points="182,-213 182,-245 "/>
<path fill="none" stroke="#2e3436" stroke-width="1.5" d="M182,-245C182,-251 176,-257 170,-257"/>
<polyline fill="none" stroke="#2e3436" stroke-width="1.5" points="170,-257 126,-257 "/>
<path fill="none" stroke="#2e3436" stroke-width="1.5" d="M126,-257C120,-257 114,-251 114,-245"/>
<polyline fill="none" stroke="#2e3436" stroke-width="1.5" points="114,-245 114,-213 "/>
<path fill="none" stroke="#2e3436" stroke-width="1.5" d="M114,-213C114,-207 120,-201 126,-201"/>
<text text-anchor="middle" x="148" y="-245.8" font-family="FreeSans" font-size="8.00" fill="#1c2021">foo, bar</text>
<polyline fill="none" stroke="#2e3436" stroke-width="1.5" points="114,-239 182,-239 "/>
<text text-anchor="start" x="122" y="-227.8" font-family="FreeSans" font-size="8.00" fill="#1c2021">name = &#39;Alice&#39;</text>
<text text-anchor="start" x="122" y="-217.8" font-family="FreeSans" font-size="8.00" fill="#1c2021">age = 38</text>
<text text-anchor="start" x="122" y="-207.8" font-family="FreeSans" font-size="8.00" fill="#1c2021">eyes = &#39;brown&#39;</text>
</g>
<!-- N3 -->
<g id="node5" class="node"><title>N3</title>
<polygon fill="#ffffff" stroke="#ffffff" stroke-width="1.5" points="76.5,-115 115.5,-115 127.5,-127 127.5,-141 115.5,-153 76.5,-153 64.5,-141 64.5,-127 76.5,-115"/>
<path fill="#ffffff" stroke="#ffffff" stroke-width="1.5" d="M115.5,-115C121.5,-115 127.5,-121 127.5,-127"/>
<path fill="#ffffff" stroke="#ffffff" stroke-width="1.5" d="M127.5,-141C127.5,-147 121.5,-153 115.5,-153"/>
<path fill="#ffffff" stroke="#ffffff" stroke-width="1.5" d="M76.5,-153C70.5,-153 64.5,-147 64.5,-141"/>
<path fill="#ffffff" stroke="#ffffff" stroke-width="1.5" d="M64.5,-127C64.5,-121 70.5,-115 76.5,-115"/>
<polyline fill="none" stroke="#2e3436" stroke-width="1.5" points="76.5,-115 115.5,-115 "/>
<path fill="none" stroke="#2e3436" stroke-width="1.5" d="M115.5,-115C121.5,-115 127.5,-121 127.5,-127"/>
<polyline fill="none" stroke="#2e3436" stroke-width="1.5" points="127.5,-127 127.5,-141 "/>
<path fill="none" stroke="#2e3436" stroke-width="1.5" d="M127.5,-141C127.5,-147 121.5,-153 115.5,-153"/>
<polyline fill="none" stroke="#2e3436" stroke-width="1.5" points="115.5,-153 76.5,-153 "/>
<path fill="none" stroke="#2e3436" stroke-width="1.5" d="M76.5,-153C70.5,-153 64.5,-147 64.5,-141"/>
<polyline fill="none" stroke="#2e3436" stroke-width="1.5" points="64.5,-141 64.5,-127 "/>
<path fill="none" stroke="#2e3436" stroke-width="1.5" d="M64.5,-127C64.5,-121 70.5,-115 76.5,-115"/>
<text text-anchor="start" x="72.5" y="-141.8" font-family="FreeSans" font-size="8.00" fill="#1c2021">name = &#39;Bob&#39;</text>
<text text-anchor="start" x="72.5" y="-131.8" font-family="FreeSans" font-size="8.00" fill="#1c2021">age = 25</text>
<text text-anchor="start" x="72.5" y="-121.8" font-family="FreeSans" font-size="8.00" fill="#1c2021">eyes = &#39;blue&#39;</text>
</g>
<!-- N2&#45;&gt;N3 -->
<g id="edge2" class="edge"><title>N2&#45;&gt;N3</title>
<path fill="none" stroke="#2e3436" stroke-width="2" d="M132.539,-200.754C125.466,-187.833 117.141,-172.623 110.225,-159.988"/>
<polygon fill="#2e3436" stroke="#2e3436" points="106.545,-153.264 113.106,-158.222 108.784,-156.313 110.584,-159.603 110.146,-159.843 109.707,-160.083 107.906,-156.794 107.185,-161.463 106.545,-153.264 106.545,-153.264"/>
<text text-anchor="middle" x="137.5" y="-174.8" font-family="FreeSans" font-size="8.00" fill="#2e3436">KNOWS</text>
</g>
<!-- N4 -->
<g id="node7" class="node"><title>N4</title>
<polygon fill="#ffffff" stroke="#ffffff" stroke-width="1.5" points="168,-115 218,-115 230,-127 230,-141 218,-153 168,-153 156,-141 156,-127 168,-115"/>
<path fill="#ffffff" stroke="#ffffff" stroke-width="1.5" d="M218,-115C224,-115 230,-121 230,-127"/>
<path fill="#ffffff" stroke="#ffffff" stroke-width="1.5" d="M230,-141C230,-147 224,-153 218,-153"/>
<path fill="#ffffff" stroke="#ffffff" stroke-width="1.5" d="M168,-153C162,-153 156,-147 156,-141"/>
<path fill="#ffffff" stroke="#ffffff" stroke-width="1.5" d="M156,-127C156,-121 162,-115 168,-115"/>
<polyline fill="none" stroke="#2e3436" stroke-width="1.5" points="168,-115 218,-115 "/>
<path fill="none" stroke="#2e3436" stroke-width="1.5" d="M218,-115C224,-115 230,-121 230,-127"/>
<polyline fill="none" stroke="#2e3436" stroke-width="1.5" points="230,-127 230,-141 "/>
<path fill="none" stroke="#2e3436" stroke-width="1.5" d="M230,-141C230,-147 224,-153 218,-153"/>
<polyline fill="none" stroke="#2e3436" stroke-width="1.5" points="218,-153 168,-153 "/>
<path fill="none" stroke="#2e3436" stroke-width="1.5" d="M168,-153C162,-153 156,-147 156,-141"/>
<polyline fill="none" stroke="#2e3436" stroke-width="1.5" points="156,-141 156,-127 "/>
<path fill="none" stroke="#2e3436" stroke-width="1.5" d="M156,-127C156,-121 162,-115 168,-115"/>
<text text-anchor="start" x="164" y="-141.8" font-family="FreeSans" font-size="8.00" fill="#1c2021">name = &#39;Charlie&#39;</text>
<text text-anchor="start" x="164" y="-131.8" font-family="FreeSans" font-size="8.00" fill="#1c2021">age = 53</text>
<text text-anchor="start" x="164" y="-121.8" font-family="FreeSans" font-size="8.00" fill="#1c2021">eyes = &#39;green&#39;</text>
</g>
<!-- N2&#45;&gt;N4 -->
<g id="edge4" class="edge"><title>N2&#45;&gt;N4</title>
<path fill="none" stroke="#2e3436" stroke-width="2" d="M161.38,-200.754C167.444,-187.952 174.572,-172.904 180.523,-160.339"/>
<polygon fill="#2e3436" stroke="#2e3436" points="183.875,-153.264 183.714,-161.487 182.721,-156.867 181.116,-160.256 180.664,-160.042 180.212,-159.828 181.818,-156.439 177.614,-158.597 183.875,-153.264 183.875,-153.264"/>
<text text-anchor="middle" x="189.5" y="-174.8" font-family="FreeSans" font-size="8.00" fill="#2e3436">KNOWS</text>
</g>
<!-- N3&#45;&gt;N0 -->
<g id="edge6" class="edge"><title>N3&#45;&gt;N0</title>
<path fill="none" stroke="#2e3436" stroke-width="2" d="M112.967,-114.719C126.967,-98.8097 146.929,-76.1259 162.128,-58.8541"/>
<polygon fill="#2e3436" stroke="#2e3436" points="167.085,-53.2218 164.664,-61.0818 164.983,-56.3673 162.505,-59.1825 162.13,-58.8522 161.755,-58.5219 164.232,-55.7067 159.596,-56.6226 167.085,-53.2218 167.085,-53.2218"/>
<text text-anchor="middle" x="152.5" y="-88.8" font-family="FreeSans" font-size="8.00" fill="#2e3436">KNOWS</text>
</g>
<!-- N3&#45;&gt;N1 -->
<g id="edge8" class="edge"><title>N3&#45;&gt;N1</title>
<path fill="none" stroke="#4e9a06" stroke-width="2" d="M67.8336,-114.601C62.2256,-109.277 57.1112,-103.011 54,-96 51.1127,-89.4939 49.8496,-82.2147 49.5644,-74.9951"/>
<polygon fill="#4e9a06" stroke="#4e9a06" points="49.6083,-67.2239 52.9408,-74.7429 50.0871,-70.9767 50.0659,-74.7266 49.5659,-74.7238 49.0659,-74.7209 49.0871,-70.971 46.1909,-74.7047 49.6083,-67.2239 49.6083,-67.2239"/>
<text text-anchor="middle" x="73" y="-88.8" font-family="FreeSans" font-size="8.00" fill="#4e9a06">MARRIED</text>
</g>
<!-- N4&#45;&gt;N0 -->
<g id="edge10" class="edge"><title>N4&#45;&gt;N0</title>
<path fill="none" stroke="#2e3436" stroke-width="2" d="M191.265,-114.719C189.895,-99.5014 187.968,-78.0856 186.442,-61.1366"/>
<polygon fill="#2e3436" stroke="#2e3436" points="185.73,-53.2218 189.764,-60.3891 186.564,-56.9119 186.9,-60.6468 186.402,-60.6916 185.904,-60.7364 185.568,-57.0015 183.041,-60.9942 185.73,-53.2218 185.73,-53.2218"/>
<text text-anchor="middle" x="204.5" y="-88.8" font-family="FreeSans" font-size="8.00" fill="#2e3436">KNOWS</text>
</g>
</g>
</svg>
