<?xml version="1.0" encoding="UTF-8" standalone="no"?>
<!DOCTYPE svg PUBLIC "-//W3C//DTD SVG 1.1//EN"
 "http://www.w3.org/Graphics/SVG/1.1/DTD/svg11.dtd">
<!-- Generated by graphviz version 2.26.3 (20100126.1600)
 -->
<!-- Title: g Pages: 1 -->
<svg width="189pt" height="150pt"
 viewBox="0.00 0.00 189.00 150.00" xmlns="http://www.w3.org/2000/svg" xmlns:xlink="http://www.w3.org/1999/xlink">
<g id="graph1" class="graph" transform="scale(1 1) rotate(0) translate(4 146)">
<title>g</title>
<polygon fill="white" stroke="white" points="-4,5 -4,-146 186,-146 186,5 -4,5"/>
<!-- N0 -->
<g id="node1" class="node"><title>N0</title>
<polygon fill="#ffffff" stroke="#ffffff" stroke-width="1.5" points="11.5,-1 60.5,-1 72.5,-13 72.5,-35 60.5,-47 11.5,-47 -0.5,-35 -0.5,-13 11.5,-1"/>
<path fill="#ffffff" stroke="#ffffff" stroke-width="1.5" d="M60.5,-1C66.5,-1 72.5,-7 72.5,-13"/>
<path fill="#ffffff" stroke="#ffffff" stroke-width="1.5" d="M72.5,-35C72.5,-41 66.5,-47 60.5,-47"/>
<path fill="#ffffff" stroke="#ffffff" stroke-width="1.5" d="M11.5,-47C5.5,-47 -0.5,-41 -0.5,-35"/>
<path fill="#ffffff" stroke="#ffffff" stroke-width="1.5" d="M-0.5,-13C-0.5,-7 5.5,-1 11.5,-1"/>
<polyline fill="none" stroke="#2e3436" stroke-width="1.5" points="11.5,-1 60.5,-1 "/>
<path fill="none" stroke="#2e3436" stroke-width="1.5" d="M60.5,-1C66.5,-1 72.5,-7 72.5,-13"/>
<polyline fill="none" stroke="#2e3436" stroke-width="1.5" points="72.5,-13 72.5,-35 "/>
<path fill="none" stroke="#2e3436" stroke-width="1.5" d="M72.5,-35C72.5,-41 66.5,-47 60.5,-47"/>
<polyline fill="none" stroke="#2e3436" stroke-width="1.5" points="60.5,-47 11.5,-47 "/>
<path fill="none" stroke="#2e3436" stroke-width="1.5" d="M11.5,-47C5.5,-47 -0.5,-41 -0.5,-35"/>
<polyline fill="none" stroke="#2e3436" stroke-width="1.5" points="-0.5,-35 -0.5,-13 "/>
<path fill="none" stroke="#2e3436" stroke-width="1.5" d="M-0.5,-13C-0.5,-7 5.5,-1 11.5,-1"/>
<text text-anchor="middle" x="36" y="-35.8" font-family="FreeSans" font-size="8.00" fill="#1c2021">Swedish</text>
<polyline fill="none" stroke="#2e3436" stroke-width="1.5" points="-0.5,-29 72.5,-29 "/>
<text text-anchor="start" x="7.5" y="-17.8" font-family="FreeSans" font-size="8.00" fill="#1c2021">name = &#39;Tobias&#39;</text>
<text text-anchor="start" x="7.5" y="-7.8" font-family="FreeSans" font-size="8.00" fill="#1c2021">age = 25</text>
</g>
<!-- N1 -->
<g id="node2" class="node"><title>N1</title>
<polygon fill="#ffffff" stroke="#ffffff" stroke-width="1.5" points="113,-1 169,-1 181,-13 181,-35 169,-47 113,-47 101,-35 101,-13 113,-1"/>
<path fill="#ffffff" stroke="#ffffff" stroke-width="1.5" d="M169,-1C175,-1 181,-7 181,-13"/>
<path fill="#ffffff" stroke="#ffffff" stroke-width="1.5" d="M181,-35C181,-41 175,-47 169,-47"/>
<path fill="#ffffff" stroke="#ffffff" stroke-width="1.5" d="M113,-47C107,-47 101,-41 101,-35"/>
<path fill="#ffffff" stroke="#ffffff" stroke-width="1.5" d="M101,-13C101,-7 107,-1 113,-1"/>
<polyline fill="none" stroke="#2e3436" stroke-width="1.5" points="113,-1 169,-1 "/>
<path fill="none" stroke="#2e3436" stroke-width="1.5" d="M169,-1C175,-1 181,-7 181,-13"/>
<polyline fill="none" stroke="#2e3436" stroke-width="1.5" points="181,-13 181,-35 "/>
<path fill="none" stroke="#2e3436" stroke-width="1.5" d="M181,-35C181,-41 175,-47 169,-47"/>
<polyline fill="none" stroke="#2e3436" stroke-width="1.5" points="169,-47 113,-47 "/>
<path fill="none" stroke="#2e3436" stroke-width="1.5" d="M113,-47C107,-47 101,-41 101,-35"/>
<polyline fill="none" stroke="#2e3436" stroke-width="1.5" points="101,-35 101,-13 "/>
<path fill="none" stroke="#2e3436" stroke-width="1.5" d="M101,-13C101,-7 107,-1 113,-1"/>
<text text-anchor="middle" x="141" y="-35.8" font-family="FreeSans" font-size="8.00" fill="#1c2021">Swedish, German</text>
<polyline fill="none" stroke="#2e3436" stroke-width="1.5" points="101,-29 181,-29 "/>
<text text-anchor="start" x="109" y="-17.8" font-family="FreeSans" font-size="8.00" fill="#1c2021">name = &#39;Peter&#39;</text>
<text text-anchor="start" x="109" y="-7.8" font-family="FreeSans" font-size="8.00" fill="#1c2021">age = 34</text>
</g>
<!-- N2 -->
<g id="node3" class="node"><title>N2</title>
<polygon fill="#ffffff" stroke="#ffffff" stroke-width="1.5" points="63,-95 113,-95 125,-107 125,-129 113,-141 63,-141 51,-129 51,-107 63,-95"/>
<path fill="#ffffff" stroke="#ffffff" stroke-width="1.5" d="M113,-95C119,-95 125,-101 125,-107"/>
<path fill="#ffffff" stroke="#ffffff" stroke-width="1.5" d="M125,-129C125,-135 119,-141 113,-141"/>
<path fill="#ffffff" stroke="#ffffff" stroke-width="1.5" d="M63,-141C57,-141 51,-135 51,-129"/>
<path fill="#ffffff" stroke="#ffffff" stroke-width="1.5" d="M51,-107C51,-101 57,-95 63,-95"/>
<polyline fill="none" stroke="#2e3436" stroke-width="1.5" points="63,-95 113,-95 "/>
<path fill="none" stroke="#2e3436" stroke-width="1.5" d="M113,-95C119,-95 125,-101 125,-107"/>
<polyline fill="none" stroke="#2e3436" stroke-width="1.5" points="125,-107 125,-129 "/>
<path fill="none" stroke="#2e3436" stroke-width="1.5" d="M125,-129C125,-135 119,-141 113,-141"/>
<polyline fill="none" stroke="#2e3436" stroke-width="1.5" points="113,-141 63,-141 "/>
<path fill="none" stroke="#2e3436" stroke-width="1.5" d="M63,-141C57,-141 51,-135 51,-129"/>
<polyline fill="none" stroke="#2e3436" stroke-width="1.5" points="51,-129 51,-107 "/>
<path fill="none" stroke="#2e3436" stroke-width="1.5" d="M51,-107C51,-101 57,-95 63,-95"/>
<text text-anchor="middle" x="88" y="-129.8" font-family="FreeSans" font-size="8.00" fill="#1c2021">Swedish</text>
<polyline fill="none" stroke="#2e3436" stroke-width="1.5" points="51,-123 125,-123 "/>
<text text-anchor="start" x="59" y="-111.8" font-family="FreeSans" font-size="8.00" fill="#1c2021">name = &#39;Andres&#39;</text>
<text text-anchor="start" x="59" y="-101.8" font-family="FreeSans" font-size="8.00" fill="#1c2021">age = 36</text>
</g>
<!-- N2&#45;&gt;N0 -->
<g id="edge2" class="edge"><title>N2&#45;&gt;N0</title>
<path fill="none" stroke="#2e3436" stroke-width="2" d="M75.1461,-94.764C68.3335,-82.449 59.8868,-67.18 52.5854,-53.9812"/>
<polygon fill="#2e3436" stroke="#2e3436" points="48.8863,-47.2944 55.47,-52.2235 51.1391,-50.3338 52.9543,-53.6152 52.5168,-53.8572 52.0793,-54.0992 50.264,-50.8179 49.5635,-55.4909 48.8863,-47.2944 48.8863,-47.2944"/>
<text text-anchor="middle" x="79.5" y="-68.8" font-family="FreeSans" font-size="8.00" fill="#2e3436">KNOWS</text>
</g>
<!-- N2&#45;&gt;N1 -->
<g id="edge4" class="edge"><title>N2&#45;&gt;N1</title>
<path fill="none" stroke="#2e3436" stroke-width="2" d="M101.101,-94.764C108.045,-82.449 116.654,-67.18 124.096,-53.9812"/>
<polygon fill="#2e3436" stroke="#2e3436" points="127.866,-47.2944 127.122,-55.4852 126.46,-50.8066 124.618,-54.0731 124.182,-53.8275 123.747,-53.582 125.589,-50.3154 121.242,-52.1699 127.866,-47.2944 127.866,-47.2944"/>
<text text-anchor="middle" x="131.5" y="-68.8" font-family="FreeSans" font-size="8.00" fill="#2e3436">KNOWS</text>
</g>
</g>
</svg>
