<?xml version="1.0" encoding="UTF-8" standalone="no"?>
<!DOCTYPE svg PUBLIC "-//W3C//DTD SVG 1.1//EN"
 "http://www.w3.org/Graphics/SVG/1.1/DTD/svg11.dtd">
<!-- Generated by graphviz version 2.26.3 (20100126.1600)
 -->
<!-- Title: g Pages: 1 -->
<svg width="504pt" height="107pt"
 viewBox="0.00 0.00 504.00 106.54" xmlns="http://www.w3.org/2000/svg" xmlns:xlink="http://www.w3.org/1999/xlink">
<g id="graph1" class="graph" transform="scale(0.710276 0.710276) rotate(0) translate(4 146)">
<title>g</title>
<polygon fill="white" stroke="white" points="-4,5 -4,-146 706.584,-146 706.584,5 -4,5"/>
<!-- N0 -->
<g id="node1" class="node"><title>N0</title>
<polygon fill="#ffffff" stroke="#ffffff" stroke-width="1.5" points="207.584,-1 269.584,-1 281.584,-13 281.584,-35 269.584,-47 207.584,-47 195.584,-35 195.584,-13 207.584,-1"/>
<path fill="#ffffff" stroke="#ffffff" stroke-width="1.5" d="M269.584,-1C275.584,-1 281.584,-7 281.584,-13"/>
<path fill="#ffffff" stroke="#ffffff" stroke-width="1.5" d="M281.584,-35C281.584,-41 275.584,-47 269.584,-47"/>
<path fill="#ffffff" stroke="#ffffff" stroke-width="1.5" d="M207.584,-47C201.584,-47 195.584,-41 195.584,-35"/>
<path fill="#ffffff" stroke="#ffffff" stroke-width="1.5" d="M195.584,-13C195.584,-7 201.584,-1 207.584,-1"/>
<polyline fill="none" stroke="#2e3436" stroke-width="1.5" points="207.584,-1 269.584,-1 "/>
<path fill="none" stroke="#2e3436" stroke-width="1.5" d="M269.584,-1C275.584,-1 281.584,-7 281.584,-13"/>
<polyline fill="none" stroke="#2e3436" stroke-width="1.5" points="281.584,-13 281.584,-35 "/>
<path fill="none" stroke="#2e3436" stroke-width="1.5" d="M281.584,-35C281.584,-41 275.584,-47 269.584,-47"/>
<polyline fill="none" stroke="#2e3436" stroke-width="1.5" points="269.584,-47 207.584,-47 "/>
<path fill="none" stroke="#2e3436" stroke-width="1.5" d="M207.584,-47C201.584,-47 195.584,-41 195.584,-35"/>
<polyline fill="none" stroke="#2e3436" stroke-width="1.5" points="195.584,-35 195.584,-13 "/>
<path fill="none" stroke="#2e3436" stroke-width="1.5" d="M195.584,-13C195.584,-7 201.584,-1 207.584,-1"/>
<text text-anchor="middle" x="238.584" y="-35.8" font-family="FreeSans" font-size="8.00" fill="#1c2021">Movie</text>
<polyline fill="none" stroke="#2e3436" stroke-width="1.5" points="195.584,-29 281.584,-29 "/>
<text text-anchor="start" x="203.584" y="-17.8" font-family="FreeSans" font-size="8.00" fill="#1c2021">title = &#39;The Matrix&#39;</text>
<text text-anchor="start" x="203.584" y="-7.8" font-family="FreeSans" font-size="8.00" fill="#1c2021">year = &#39;1999&#45;03&#45;31&#39;</text>
</g>
<!-- N1 -->
<g id="node2" class="node"><title>N1</title>
<polygon fill="#ffffff" stroke="#ffffff" stroke-width="1.5" points="35.5836,-1 127.584,-1 139.584,-13 139.584,-35 127.584,-47 35.5836,-47 23.5836,-35 23.5836,-13 35.5836,-1"/>
<path fill="#ffffff" stroke="#ffffff" stroke-width="1.5" d="M127.584,-1C133.584,-1 139.584,-7 139.584,-13"/>
<path fill="#ffffff" stroke="#ffffff" stroke-width="1.5" d="M139.584,-35C139.584,-41 133.584,-47 127.584,-47"/>
<path fill="#ffffff" stroke="#ffffff" stroke-width="1.5" d="M35.5836,-47C29.5836,-47 23.5836,-41 23.5836,-35"/>
<path fill="#ffffff" stroke="#ffffff" stroke-width="1.5" d="M23.5836,-13C23.5836,-7 29.5836,-1 35.5836,-1"/>
<polyline fill="none" stroke="#2e3436" stroke-width="1.5" points="35.5836,-1 127.584,-1 "/>
<path fill="none" stroke="#2e3436" stroke-width="1.5" d="M127.584,-1C133.584,-1 139.584,-7 139.584,-13"/>
<polyline fill="none" stroke="#2e3436" stroke-width="1.5" points="139.584,-13 139.584,-35 "/>
<path fill="none" stroke="#2e3436" stroke-width="1.5" d="M139.584,-35C139.584,-41 133.584,-47 127.584,-47"/>
<polyline fill="none" stroke="#2e3436" stroke-width="1.5" points="127.584,-47 35.5836,-47 "/>
<path fill="none" stroke="#2e3436" stroke-width="1.5" d="M35.5836,-47C29.5836,-47 23.5836,-41 23.5836,-35"/>
<polyline fill="none" stroke="#2e3436" stroke-width="1.5" points="23.5836,-35 23.5836,-13 "/>
<path fill="none" stroke="#2e3436" stroke-width="1.5" d="M23.5836,-13C23.5836,-7 29.5836,-1 35.5836,-1"/>
<text text-anchor="middle" x="81.5836" y="-35.8" font-family="FreeSans" font-size="8.00" fill="#1c2021">Movie</text>
<polyline fill="none" stroke="#2e3436" stroke-width="1.5" points="23.5836,-29 139.584,-29 "/>
<text text-anchor="start" x="31.5836" y="-17.8" font-family="FreeSans" font-size="8.00" fill="#1c2021">title = &#39;The Matrix Reloaded&#39;</text>
<text text-anchor="start" x="31.5836" y="-7.8" font-family="FreeSans" font-size="8.00" fill="#1c2021">year = &#39;2003&#45;05&#45;07&#39;</text>
</g>
<!-- N2 -->
<g id="node3" class="node"><title>N2</title>
<polygon fill="#ffffff" stroke="#ffffff" stroke-width="1.5" points="442.584,-1 540.584,-1 552.584,-13 552.584,-35 540.584,-47 442.584,-47 430.584,-35 430.584,-13 442.584,-1"/>
<path fill="#ffffff" stroke="#ffffff" stroke-width="1.5" d="M540.584,-1C546.584,-1 552.584,-7 552.584,-13"/>
<path fill="#ffffff" stroke="#ffffff" stroke-width="1.5" d="M552.584,-35C552.584,-41 546.584,-47 540.584,-47"/>
<path fill="#ffffff" stroke="#ffffff" stroke-width="1.5" d="M442.584,-47C436.584,-47 430.584,-41 430.584,-35"/>
<path fill="#ffffff" stroke="#ffffff" stroke-width="1.5" d="M430.584,-13C430.584,-7 436.584,-1 442.584,-1"/>
<polyline fill="none" stroke="#2e3436" stroke-width="1.5" points="442.584,-1 540.584,-1 "/>
<path fill="none" stroke="#2e3436" stroke-width="1.5" d="M540.584,-1C546.584,-1 552.584,-7 552.584,-13"/>
<polyline fill="none" stroke="#2e3436" stroke-width="1.5" points="552.584,-13 552.584,-35 "/>
<path fill="none" stroke="#2e3436" stroke-width="1.5" d="M552.584,-35C552.584,-41 546.584,-47 540.584,-47"/>
<polyline fill="none" stroke="#2e3436" stroke-width="1.5" points="540.584,-47 442.584,-47 "/>
<path fill="none" stroke="#2e3436" stroke-width="1.5" d="M442.584,-47C436.584,-47 430.584,-41 430.584,-35"/>
<polyline fill="none" stroke="#2e3436" stroke-width="1.5" points="430.584,-35 430.584,-13 "/>
<path fill="none" stroke="#2e3436" stroke-width="1.5" d="M430.584,-13C430.584,-7 436.584,-1 442.584,-1"/>
<text text-anchor="middle" x="491.584" y="-35.8" font-family="FreeSans" font-size="8.00" fill="#1c2021">Movie</text>
<polyline fill="none" stroke="#2e3436" stroke-width="1.5" points="430.584,-29 552.584,-29 "/>
<text text-anchor="start" x="438.584" y="-17.8" font-family="FreeSans" font-size="8.00" fill="#1c2021">title = &#39;The Matrix Revolutions&#39;</text>
<text text-anchor="start" x="438.584" y="-7.8" font-family="FreeSans" font-size="8.00" fill="#1c2021">year = &#39;2003&#45;10&#45;27&#39;</text>
</g>
<!-- N3 -->
<g id="node4" class="node"><title>N3</title>
<polygon fill="#ffffff" stroke="#ffffff" stroke-width="1.5" points="94.0836,-105 171.084,-105 183.084,-117 183.084,-129 171.084,-141 94.0836,-141 82.0836,-129 82.0836,-117 94.0836,-105"/>
<path fill="#ffffff" stroke="#ffffff" stroke-width="1.5" d="M171.084,-105C177.084,-105 183.084,-111 183.084,-117"/>
<path fill="#ffffff" stroke="#ffffff" stroke-width="1.5" d="M183.084,-129C183.084,-135 177.084,-141 171.084,-141"/>
<path fill="#ffffff" stroke="#ffffff" stroke-width="1.5" d="M94.0836,-141C88.0836,-141 82.0836,-135 82.0836,-129"/>
<path fill="#ffffff" stroke="#ffffff" stroke-width="1.5" d="M82.0836,-117C82.0836,-111 88.0836,-105 94.0836,-105"/>
<polyline fill="none" stroke="#2e3436" stroke-width="1.5" points="94.0836,-105 171.084,-105 "/>
<path fill="none" stroke="#2e3436" stroke-width="1.5" d="M171.084,-105C177.084,-105 183.084,-111 183.084,-117"/>
<polyline fill="none" stroke="#2e3436" stroke-width="1.5" points="183.084,-117 183.084,-129 "/>
<path fill="none" stroke="#2e3436" stroke-width="1.5" d="M183.084,-129C183.084,-135 177.084,-141 171.084,-141"/>
<polyline fill="none" stroke="#2e3436" stroke-width="1.5" points="171.084,-141 94.0836,-141 "/>
<path fill="none" stroke="#2e3436" stroke-width="1.5" d="M94.0836,-141C88.0836,-141 82.0836,-135 82.0836,-129"/>
<polyline fill="none" stroke="#2e3436" stroke-width="1.5" points="82.0836,-129 82.0836,-117 "/>
<path fill="none" stroke="#2e3436" stroke-width="1.5" d="M82.0836,-117C82.0836,-111 88.0836,-105 94.0836,-105"/>
<text text-anchor="middle" x="132.584" y="-129.8" font-family="FreeSans" font-size="8.00" fill="#1c2021">Actor</text>
<polyline fill="none" stroke="#2e3436" stroke-width="1.5" points="82.0836,-123 183.084,-123 "/>
<text text-anchor="start" x="90.0836" y="-111.8" font-family="FreeSans" font-size="8.00" fill="#1c2021">name = &#39;Keanu Reeves&#39;</text>
</g>
<!-- N3&#45;&gt;N0 -->
<g id="edge2" class="edge"><title>N3&#45;&gt;N0</title>
<path fill="none" stroke="#2e3436" stroke-width="2" d="M147.776,-104.804C157.774,-93.2303 171.403,-78.1842 184.584,-66 189.707,-61.2635 195.323,-56.489 200.936,-51.9434"/>
<polygon fill="#2e3436" stroke="#2e3436" points="207.001,-47.1133 203.237,-54.4256 204.379,-49.8405 201.446,-52.1766 201.134,-51.7855 200.823,-51.3943 203.756,-49.0583 199.032,-49.1453 207.001,-47.1133 207.001,-47.1133"/>
<text text-anchor="middle" x="205.084" y="-78.8" font-family="FreeSans" font-size="8.00" fill="#2e3436">ACTS_IN</text>
<text text-anchor="start" x="184.584" y="-68.8" font-family="FreeSans" font-size="8.00" fill="#2e3436">role = &#39;Neo&#39;</text>
</g>
<!-- N3&#45;&gt;N1 -->
<g id="edge4" class="edge"><title>N3&#45;&gt;N1</title>
<path fill="none" stroke="#2e3436" stroke-width="2" d="M81.8389,-114.727C50.3578,-108.442 14.1408,-98.7111 4.58361,-86 -5.25359,-72.9165 2.92667,-60.9761 17.0647,-51.1431"/>
<polygon fill="#2e3436" stroke="#2e3436" points="23.4534,-47.0608 18.9507,-53.9432 20.5627,-49.5014 17.4027,-51.5206 17.1335,-51.0992 16.8642,-50.6779 20.0242,-48.6587 15.3162,-48.2552 23.4534,-47.0608 23.4534,-47.0608"/>
<text text-anchor="middle" x="25.0836" y="-78.8" font-family="FreeSans" font-size="8.00" fill="#2e3436">ACTS_IN</text>
<text text-anchor="start" x="4.58361" y="-68.8" font-family="FreeSans" font-size="8.00" fill="#2e3436">role = &#39;Neo&#39;</text>
</g>
<!-- N3&#45;&gt;N2 -->
<g id="edge6" class="edge"><title>N3&#45;&gt;N2</title>
<path fill="none" stroke="#2e3436" stroke-width="2" d="M183.1,-107.237C187.966,-106.02 192.85,-104.912 197.584,-104 279.135,-88.2797 306.062,-115.802 383.584,-86 397.523,-80.6414 397.915,-73.9066 410.584,-66 418.936,-60.7871 428.008,-55.6296 436.957,-50.808"/>
<polygon fill="#2e3436" stroke="#2e3436" points="443.763,-47.191 438.724,-53.6911 440.686,-49.3924 437.375,-51.1524 437.14,-50.7108 436.905,-50.2693 440.217,-48.5094 435.556,-47.7306 443.763,-47.191 443.763,-47.191"/>
<text text-anchor="middle" x="431.084" y="-78.8" font-family="FreeSans" font-size="8.00" fill="#2e3436">ACTS_IN</text>
<text text-anchor="start" x="410.584" y="-68.8" font-family="FreeSans" font-size="8.00" fill="#2e3436">role = &#39;Neo&#39;</text>
</g>
<!-- N4 -->
<g id="node8" class="node"><title>N4</title>
<polygon fill="#ffffff" stroke="#ffffff" stroke-width="1.5" points="524.584,-105 622.584,-105 634.584,-117 634.584,-129 622.584,-141 524.584,-141 512.584,-129 512.584,-117 524.584,-105"/>
<path fill="#ffffff" stroke="#ffffff" stroke-width="1.5" d="M622.584,-105C628.584,-105 634.584,-111 634.584,-117"/>
<path fill="#ffffff" stroke="#ffffff" stroke-width="1.5" d="M634.584,-129C634.584,-135 628.584,-141 622.584,-141"/>
<path fill="#ffffff" stroke="#ffffff" stroke-width="1.5" d="M524.584,-141C518.584,-141 512.584,-135 512.584,-129"/>
<path fill="#ffffff" stroke="#ffffff" stroke-width="1.5" d="M512.584,-117C512.584,-111 518.584,-105 524.584,-105"/>
<polyline fill="none" stroke="#2e3436" stroke-width="1.5" points="524.584,-105 622.584,-105 "/>
<path fill="none" stroke="#2e3436" stroke-width="1.5" d="M622.584,-105C628.584,-105 634.584,-111 634.584,-117"/>
<polyline fill="none" stroke="#2e3436" stroke-width="1.5" points="634.584,-117 634.584,-129 "/>
<path fill="none" stroke="#2e3436" stroke-width="1.5" d="M634.584,-129C634.584,-135 628.584,-141 622.584,-141"/>
<polyline fill="none" stroke="#2e3436" stroke-width="1.5" points="622.584,-141 524.584,-141 "/>
<path fill="none" stroke="#2e3436" stroke-width="1.5" d="M524.584,-141C518.584,-141 512.584,-135 512.584,-129"/>
<polyline fill="none" stroke="#2e3436" stroke-width="1.5" points="512.584,-129 512.584,-117 "/>
<path fill="none" stroke="#2e3436" stroke-width="1.5" d="M512.584,-117C512.584,-111 518.584,-105 524.584,-105"/>
<text text-anchor="middle" x="573.584" y="-129.8" font-family="FreeSans" font-size="8.00" fill="#1c2021">Actor</text>
<polyline fill="none" stroke="#2e3436" stroke-width="1.5" points="512.584,-123 634.584,-123 "/>
<text text-anchor="start" x="520.584" y="-111.8" font-family="FreeSans" font-size="8.00" fill="#1c2021">name = &#39;Laurence Fishburne&#39;</text>
</g>
<!-- N4&#45;&gt;N0 -->
<g id="edge8" class="edge"><title>N4&#45;&gt;N0</title>
<path fill="none" stroke="#2e3436" stroke-width="2" d="M564.766,-104.758C557.474,-91.7461 545.845,-75.0173 530.584,-66 525.424,-62.9515 371.653,-41.9006 289.386,-30.8076"/>
<polygon fill="#2e3436" stroke="#2e3436" points="281.655,-29.7661 289.539,-27.4228 285.438,-29.7713 289.155,-30.272 289.088,-30.7675 289.021,-31.2631 285.305,-30.7623 288.637,-34.1123 281.655,-29.7661 281.655,-29.7661"/>
<text text-anchor="middle" x="582.584" y="-78.8" font-family="FreeSans" font-size="8.00" fill="#2e3436">ACTS_IN</text>
<text text-anchor="start" x="551.584" y="-68.8" font-family="FreeSans" font-size="8.00" fill="#2e3436">role = &#39;Morpheus&#39;</text>
</g>
<!-- N4&#45;&gt;N1 -->
<g id="edge10" class="edge"><title>N4&#45;&gt;N1</title>
<path fill="none" stroke="#2e3436" stroke-width="2" d="M512.4,-117.751C447.413,-111.56 349.352,-100.28 314.584,-86 300.77,-80.3262 301.322,-71.855 287.584,-66 243.624,-47.2649 228.399,-57.5814 181.584,-48 170.392,-45.7094 158.548,-43.0646 147.076,-40.3857"/>
<polygon fill="#2e3436" stroke="#2e3436" points="139.602,-38.6237 147.677,-37.0598 143.367,-38.9976 147.017,-39.8581 146.902,-40.3447 146.787,-40.8314 143.137,-39.9709 146.128,-43.6297 139.602,-38.6237 139.602,-38.6237"/>
<text text-anchor="middle" x="345.584" y="-78.8" font-family="FreeSans" font-size="8.00" fill="#2e3436">ACTS_IN</text>
<text text-anchor="start" x="314.584" y="-68.8" font-family="FreeSans" font-size="8.00" fill="#2e3436">role = &#39;Morpheus&#39;</text>
</g>
<!-- N4&#45;&gt;N2 -->
<g id="edge12" class="edge"><title>N4&#45;&gt;N2</title>
<path fill="none" stroke="#2e3436" stroke-width="2" d="M615.323,-104.827C633.133,-94.4518 647.571,-80.6216 636.584,-66 626.85,-53.0465 592.692,-42.8079 559.974,-35.6836"/>
<polygon fill="#2e3436" stroke="#2e3436" points="552.587,-34.1207 560.623,-32.3712 556.359,-34.4078 560.028,-35.1839 559.924,-35.6731 559.821,-36.1623 556.152,-35.3861 559.226,-38.975 552.587,-34.1207 552.587,-34.1207"/>
<text text-anchor="middle" x="670.584" y="-78.8" font-family="FreeSans" font-size="8.00" fill="#2e3436">ACTS_IN</text>
<text text-anchor="start" x="639.584" y="-68.8" font-family="FreeSans" font-size="8.00" fill="#2e3436">role = &#39;Morpheus&#39;</text>
</g>
<!-- N5 -->
<g id="node12" class="node"><title>N5</title>
<polygon fill="#ffffff" stroke="#ffffff" stroke-width="1.5" points="223.584,-105 313.584,-105 325.584,-117 325.584,-129 313.584,-141 223.584,-141 211.584,-129 211.584,-117 223.584,-105"/>
<path fill="#ffffff" stroke="#ffffff" stroke-width="1.5" d="M313.584,-105C319.584,-105 325.584,-111 325.584,-117"/>
<path fill="#ffffff" stroke="#ffffff" stroke-width="1.5" d="M325.584,-129C325.584,-135 319.584,-141 313.584,-141"/>
<path fill="#ffffff" stroke="#ffffff" stroke-width="1.5" d="M223.584,-141C217.584,-141 211.584,-135 211.584,-129"/>
<path fill="#ffffff" stroke="#ffffff" stroke-width="1.5" d="M211.584,-117C211.584,-111 217.584,-105 223.584,-105"/>
<polyline fill="none" stroke="#2e3436" stroke-width="1.5" points="223.584,-105 313.584,-105 "/>
<path fill="none" stroke="#2e3436" stroke-width="1.5" d="M313.584,-105C319.584,-105 325.584,-111 325.584,-117"/>
<polyline fill="none" stroke="#2e3436" stroke-width="1.5" points="325.584,-117 325.584,-129 "/>
<path fill="none" stroke="#2e3436" stroke-width="1.5" d="M325.584,-129C325.584,-135 319.584,-141 313.584,-141"/>
<polyline fill="none" stroke="#2e3436" stroke-width="1.5" points="313.584,-141 223.584,-141 "/>
<path fill="none" stroke="#2e3436" stroke-width="1.5" d="M223.584,-141C217.584,-141 211.584,-135 211.584,-129"/>
<polyline fill="none" stroke="#2e3436" stroke-width="1.5" points="211.584,-129 211.584,-117 "/>
<path fill="none" stroke="#2e3436" stroke-width="1.5" d="M211.584,-117C211.584,-111 217.584,-105 223.584,-105"/>
<text text-anchor="middle" x="268.584" y="-129.8" font-family="FreeSans" font-size="8.00" fill="#1c2021">Actor</text>
<polyline fill="none" stroke="#2e3436" stroke-width="1.5" points="211.584,-123 325.584,-123 "/>
<text text-anchor="start" x="219.584" y="-111.8" font-family="FreeSans" font-size="8.00" fill="#1c2021">name = &#39;Carrie&#45;Anne Moss&#39;</text>
</g>
<!-- N5&#45;&gt;N0 -->
<g id="edge14" class="edge"><title>N5&#45;&gt;N0</title>
<path fill="none" stroke="#2e3436" stroke-width="2" d="M248.364,-104.776C243.581,-99.2659 239.133,-92.8445 236.584,-86 232.929,-76.1885 232.339,-64.8875 233.012,-54.6433"/>
<polygon fill="#2e3436" stroke="#2e3436" points="233.744,-47.0577 236.383,-54.8471 233.882,-50.8384 233.522,-54.5711 233.024,-54.523 232.526,-54.475 232.886,-50.7424 229.665,-54.199 233.744,-47.0577 233.744,-47.0577"/>
<text text-anchor="middle" x="260.584" y="-78.8" font-family="FreeSans" font-size="8.00" fill="#2e3436">ACTS_IN</text>
<text text-anchor="start" x="236.584" y="-68.8" font-family="FreeSans" font-size="8.00" fill="#2e3436">role = &#39;Trinity&#39;</text>
</g>
<!-- N5&#45;&gt;N1 -->
<g id="edge16" class="edge"><title>N5&#45;&gt;N1</title>
<path fill="none" stroke="#2e3436" stroke-width="2" d="M211.307,-107.358C206.672,-106.188 202.055,-105.054 197.584,-104 158.729,-94.836 140.771,-110.921 109.584,-86 99.6685,-78.077 93.1438,-65.8809 88.9101,-54.3952"/>
<polygon fill="#2e3436" stroke="#2e3436" points="86.4462,-47.0021 92.0194,-53.0502 88.1063,-50.4016 89.2919,-53.9592 88.8176,-54.1173 88.3432,-54.2754 87.1576,-50.7178 85.6157,-55.1844 86.4462,-47.0021 86.4462,-47.0021"/>
<text text-anchor="middle" x="133.584" y="-78.8" font-family="FreeSans" font-size="8.00" fill="#2e3436">ACTS_IN</text>
<text text-anchor="start" x="109.584" y="-68.8" font-family="FreeSans" font-size="8.00" fill="#2e3436">role = &#39;Trinity&#39;</text>
</g>
<!-- N5&#45;&gt;N2 -->
<g id="edge18" class="edge"><title>N5&#45;&gt;N2</title>
<path fill="none" stroke="#2e3436" stroke-width="2" d="M325.599,-117.333C373.669,-111.587 437.85,-101.341 458.584,-86 469.218,-78.132 476.765,-65.7986 481.932,-54.1972"/>
<polygon fill="#2e3436" stroke="#2e3436" points="484.848,-47.1147 485.114,-55.3349 483.883,-50.7727 482.455,-54.2403 481.993,-54.0499 481.53,-53.8596 482.958,-50.392 478.872,-52.765 484.848,-47.1147 484.848,-47.1147"/>
<text text-anchor="middle" x="499.584" y="-78.8" font-family="FreeSans" font-size="8.00" fill="#2e3436">ACTS_IN</text>
<text text-anchor="start" x="475.584" y="-68.8" font-family="FreeSans" font-size="8.00" fill="#2e3436">role = &#39;Trinity&#39;</text>
</g>
</g>
</svg>
