<?xml version="1.0" encoding="UTF-8" standalone="no"?>
<!DOCTYPE svg PUBLIC "-//W3C//DTD SVG 1.1//EN"
 "http://www.w3.org/Graphics/SVG/1.1/DTD/svg11.dtd">
<!-- Generated by graphviz version 2.26.3 (20100126.1600)
 -->
<!-- Title: g Pages: 1 -->
<svg width="159pt" height="140pt"
 viewBox="0.00 0.00 159.00 140.00" xmlns="http://www.w3.org/2000/svg" xmlns:xlink="http://www.w3.org/1999/xlink">
<g id="graph1" class="graph" transform="scale(1 1) rotate(0) translate(4 136)">
<title>g</title>
<polygon fill="white" stroke="white" points="-4,5 -4,-136 156,-136 156,5 -4,5"/>
<!-- N1 -->
<g id="node1" class="node"><title>N1</title>
<polygon fill="#ffffff" stroke="#ffffff" stroke-width="1.5" points="12,-95 50,-95 62,-107 62,-119 50,-131 12,-131 0,-119 0,-107 12,-95"/>
<path fill="#ffffff" stroke="#ffffff" stroke-width="1.5" d="M50,-95C56,-95 62,-101 62,-107"/>
<path fill="#ffffff" stroke="#ffffff" stroke-width="1.5" d="M62,-119C62,-125 56,-131 50,-131"/>
<path fill="#ffffff" stroke="#ffffff" stroke-width="1.5" d="M12,-131C6,-131 0,-125 0,-119"/>
<path fill="#ffffff" stroke="#ffffff" stroke-width="1.5" d="M0,-107C0,-101 6,-95 12,-95"/>
<polyline fill="none" stroke="#2e3436" stroke-width="1.5" points="12,-95 50,-95 "/>
<path fill="none" stroke="#2e3436" stroke-width="1.5" d="M50,-95C56,-95 62,-101 62,-107"/>
<polyline fill="none" stroke="#2e3436" stroke-width="1.5" points="62,-107 62,-119 "/>
<path fill="none" stroke="#2e3436" stroke-width="1.5" d="M62,-119C62,-125 56,-131 50,-131"/>
<polyline fill="none" stroke="#2e3436" stroke-width="1.5" points="50,-131 12,-131 "/>
<path fill="none" stroke="#2e3436" stroke-width="1.5" d="M12,-131C6,-131 0,-125 0,-119"/>
<polyline fill="none" stroke="#2e3436" stroke-width="1.5" points="0,-119 0,-107 "/>
<path fill="none" stroke="#2e3436" stroke-width="1.5" d="M0,-107C0,-101 6,-95 12,-95"/>
<text text-anchor="start" x="8" y="-110.8" font-family="FreeSans" font-size="8.00" fill="#1c2021">name = &#39;you&#39;</text>
</g>
<!-- N2 -->
<g id="node3" class="node"><title>N2</title>
<polygon fill="#ffffff" stroke="#ffffff" stroke-width="1.5" points="54.5,-1 97.5,-1 109.5,-13 109.5,-25 97.5,-37 54.5,-37 42.5,-25 42.5,-13 54.5,-1"/>
<path fill="#ffffff" stroke="#ffffff" stroke-width="1.5" d="M97.5,-1C103.5,-1 109.5,-7 109.5,-13"/>
<path fill="#ffffff" stroke="#ffffff" stroke-width="1.5" d="M109.5,-25C109.5,-31 103.5,-37 97.5,-37"/>
<path fill="#ffffff" stroke="#ffffff" stroke-width="1.5" d="M54.5,-37C48.5,-37 42.5,-31 42.5,-25"/>
<path fill="#ffffff" stroke="#ffffff" stroke-width="1.5" d="M42.5,-13C42.5,-7 48.5,-1 54.5,-1"/>
<polyline fill="none" stroke="#2e3436" stroke-width="1.5" points="54.5,-1 97.5,-1 "/>
<path fill="none" stroke="#2e3436" stroke-width="1.5" d="M97.5,-1C103.5,-1 109.5,-7 109.5,-13"/>
<polyline fill="none" stroke="#2e3436" stroke-width="1.5" points="109.5,-13 109.5,-25 "/>
<path fill="none" stroke="#2e3436" stroke-width="1.5" d="M109.5,-25C109.5,-31 103.5,-37 97.5,-37"/>
<polyline fill="none" stroke="#2e3436" stroke-width="1.5" points="97.5,-37 54.5,-37 "/>
<path fill="none" stroke="#2e3436" stroke-width="1.5" d="M54.5,-37C48.5,-37 42.5,-31 42.5,-25"/>
<polyline fill="none" stroke="#2e3436" stroke-width="1.5" points="42.5,-25 42.5,-13 "/>
<path fill="none" stroke="#2e3436" stroke-width="1.5" d="M42.5,-13C42.5,-7 48.5,-1 54.5,-1"/>
<text text-anchor="start" x="50.5" y="-16.8" font-family="FreeSans" font-size="8.00" fill="#1c2021">name = &#39;meat&#39;</text>
</g>
<!-- N1&#45;&gt;N2 -->
<g id="edge2" class="edge"><title>N1&#45;&gt;N2</title>
<path fill="none" stroke="#2e3436" stroke-width="2" d="M36.536,-94.855C40.2974,-83.4371 45.7202,-68.542 52,-56 54.0204,-51.9649 56.3825,-47.8267 58.822,-43.8466"/>
<polygon fill="#2e3436" stroke="#2e3436" points="62.9539,-37.344 61.7802,-45.4842 61.3647,-40.7772 59.3536,-43.9423 58.9316,-43.6742 58.5096,-43.406 60.5207,-40.2409 56.083,-41.8641 62.9539,-37.344 62.9539,-37.344"/>
<text text-anchor="middle" x="68.5" y="-68.8" font-family="FreeSans" font-size="8.00" fill="#2e3436">ATE</text>
<text text-anchor="start" x="52" y="-58.8" font-family="FreeSans" font-size="8.00" fill="#2e3436">times = 5</text>
</g>
<!-- N3 -->
<g id="node4" class="node"><title>N3</title>
<polygon fill="#ffffff" stroke="#ffffff" stroke-width="1.5" points="103,-95 139,-95 151,-107 151,-119 139,-131 103,-131 91,-119 91,-107 103,-95"/>
<path fill="#ffffff" stroke="#ffffff" stroke-width="1.5" d="M139,-95C145,-95 151,-101 151,-107"/>
<path fill="#ffffff" stroke="#ffffff" stroke-width="1.5" d="M151,-119C151,-125 145,-131 139,-131"/>
<path fill="#ffffff" stroke="#ffffff" stroke-width="1.5" d="M103,-131C97,-131 91,-125 91,-119"/>
<path fill="#ffffff" stroke="#ffffff" stroke-width="1.5" d="M91,-107C91,-101 97,-95 103,-95"/>
<polyline fill="none" stroke="#2e3436" stroke-width="1.5" points="103,-95 139,-95 "/>
<path fill="none" stroke="#2e3436" stroke-width="1.5" d="M139,-95C145,-95 151,-101 151,-107"/>
<polyline fill="none" stroke="#2e3436" stroke-width="1.5" points="151,-107 151,-119 "/>
<path fill="none" stroke="#2e3436" stroke-width="1.5" d="M151,-119C151,-125 145,-131 139,-131"/>
<polyline fill="none" stroke="#2e3436" stroke-width="1.5" points="139,-131 103,-131 "/>
<path fill="none" stroke="#2e3436" stroke-width="1.5" d="M103,-131C97,-131 91,-125 91,-119"/>
<polyline fill="none" stroke="#2e3436" stroke-width="1.5" points="91,-119 91,-107 "/>
<path fill="none" stroke="#2e3436" stroke-width="1.5" d="M91,-107C91,-101 97,-95 103,-95"/>
<text text-anchor="start" x="99" y="-110.8" font-family="FreeSans" font-size="8.00" fill="#1c2021">name = &#39;me&#39;</text>
</g>
<!-- N3&#45;&gt;N2 -->
<g id="edge4" class="edge"><title>N3&#45;&gt;N2</title>
<path fill="none" stroke="#2e3436" stroke-width="2" d="M112.324,-94.8759C105.413,-80.4413 95.6631,-60.074 88.004,-44.075"/>
<polygon fill="#2e3436" stroke="#2e3436" points="84.6498,-37.0685 90.9325,-42.376 86.7201,-40.235 88.3393,-43.6174 87.8883,-43.8333 87.4373,-44.0492 85.8181,-40.6668 84.8442,-45.2906 84.6498,-37.0685 84.6498,-37.0685"/>
<text text-anchor="middle" x="120.5" y="-68.8" font-family="FreeSans" font-size="8.00" fill="#2e3436">ATE</text>
<text text-anchor="start" x="102" y="-58.8" font-family="FreeSans" font-size="8.00" fill="#2e3436">times = 10</text>
</g>
</g>
</svg>
