<?xml version="1.0" encoding="UTF-8" standalone="no"?>
<!DOCTYPE svg PUBLIC "-//W3C//DTD SVG 1.1//EN"
 "http://www.w3.org/Graphics/SVG/1.1/DTD/svg11.dtd">
<!-- Generated by graphviz version 2.26.3 (20100126.1600)
 -->
<!-- Title: g Pages: 1 -->
<svg width="177pt" height="150pt"
 viewBox="0.00 0.00 177.00 150.00" xmlns="http://www.w3.org/2000/svg" xmlns:xlink="http://www.w3.org/1999/xlink">
<g id="graph1" class="graph" transform="scale(1 1) rotate(0) translate(4 146)">
<title>g</title>
<polygon fill="white" stroke="white" points="-4,5 -4,-146 174,-146 174,5 -4,5"/>
<!-- N0 -->
<g id="node1" class="node"><title>N0</title>
<polygon fill="#ffffff" stroke="#ffffff" stroke-width="1.5" points="11.5,-1 60.5,-1 72.5,-13 72.5,-25 60.5,-37 11.5,-37 -0.5,-25 -0.5,-13 11.5,-1"/>
<path fill="#ffffff" stroke="#ffffff" stroke-width="1.5" d="M60.5,-1C66.5,-1 72.5,-7 72.5,-13"/>
<path fill="#ffffff" stroke="#ffffff" stroke-width="1.5" d="M72.5,-25C72.5,-31 66.5,-37 60.5,-37"/>
<path fill="#ffffff" stroke="#ffffff" stroke-width="1.5" d="M11.5,-37C5.5,-37 -0.5,-31 -0.5,-25"/>
<path fill="#ffffff" stroke="#ffffff" stroke-width="1.5" d="M-0.5,-13C-0.5,-7 5.5,-1 11.5,-1"/>
<polyline fill="none" stroke="#2e3436" stroke-width="1.5" points="11.5,-1 60.5,-1 "/>
<path fill="none" stroke="#2e3436" stroke-width="1.5" d="M60.5,-1C66.5,-1 72.5,-7 72.5,-13"/>
<polyline fill="none" stroke="#2e3436" stroke-width="1.5" points="72.5,-13 72.5,-25 "/>
<path fill="none" stroke="#2e3436" stroke-width="1.5" d="M72.5,-25C72.5,-31 66.5,-37 60.5,-37"/>
<polyline fill="none" stroke="#2e3436" stroke-width="1.5" points="60.5,-37 11.5,-37 "/>
<path fill="none" stroke="#2e3436" stroke-width="1.5" d="M11.5,-37C5.5,-37 -0.5,-31 -0.5,-25"/>
<polyline fill="none" stroke="#2e3436" stroke-width="1.5" points="-0.5,-25 -0.5,-13 "/>
<path fill="none" stroke="#2e3436" stroke-width="1.5" d="M-0.5,-13C-0.5,-7 5.5,-1 11.5,-1"/>
<text text-anchor="start" x="7.5" y="-21.8" font-family="FreeSans" font-size="8.00" fill="#1c2021">name = &#39;Tobias&#39;</text>
<text text-anchor="start" x="7.5" y="-11.8" font-family="FreeSans" font-size="8.00" fill="#1c2021">age = 25</text>
</g>
<!-- N1 -->
<g id="node2" class="node"><title>N1</title>
<polygon fill="#ffffff" stroke="#ffffff" stroke-width="1.5" points="113,-1 157,-1 169,-13 169,-25 157,-37 113,-37 101,-25 101,-13 113,-1"/>
<path fill="#ffffff" stroke="#ffffff" stroke-width="1.5" d="M157,-1C163,-1 169,-7 169,-13"/>
<path fill="#ffffff" stroke="#ffffff" stroke-width="1.5" d="M169,-25C169,-31 163,-37 157,-37"/>
<path fill="#ffffff" stroke="#ffffff" stroke-width="1.5" d="M113,-37C107,-37 101,-31 101,-25"/>
<path fill="#ffffff" stroke="#ffffff" stroke-width="1.5" d="M101,-13C101,-7 107,-1 113,-1"/>
<polyline fill="none" stroke="#2e3436" stroke-width="1.5" points="113,-1 157,-1 "/>
<path fill="none" stroke="#2e3436" stroke-width="1.5" d="M157,-1C163,-1 169,-7 169,-13"/>
<polyline fill="none" stroke="#2e3436" stroke-width="1.5" points="169,-13 169,-25 "/>
<path fill="none" stroke="#2e3436" stroke-width="1.5" d="M169,-25C169,-31 163,-37 157,-37"/>
<polyline fill="none" stroke="#2e3436" stroke-width="1.5" points="157,-37 113,-37 "/>
<path fill="none" stroke="#2e3436" stroke-width="1.5" d="M113,-37C107,-37 101,-31 101,-25"/>
<polyline fill="none" stroke="#2e3436" stroke-width="1.5" points="101,-25 101,-13 "/>
<path fill="none" stroke="#2e3436" stroke-width="1.5" d="M101,-13C101,-7 107,-1 113,-1"/>
<text text-anchor="start" x="109" y="-21.8" font-family="FreeSans" font-size="8.00" fill="#1c2021">name = &#39;Peter&#39;</text>
<text text-anchor="start" x="109" y="-11.8" font-family="FreeSans" font-size="8.00" fill="#1c2021">age = 34</text>
</g>
<!-- N2 -->
<g id="node3" class="node"><title>N2</title>
<polygon fill="#ffffff" stroke="#ffffff" stroke-width="1.5" points="60,-85 110,-85 122,-97 122,-129 110,-141 60,-141 48,-129 48,-97 60,-85"/>
<path fill="#ffffff" stroke="#ffffff" stroke-width="1.5" d="M110,-85C116,-85 122,-91 122,-97"/>
<path fill="#ffffff" stroke="#ffffff" stroke-width="1.5" d="M122,-129C122,-135 116,-141 110,-141"/>
<path fill="#ffffff" stroke="#ffffff" stroke-width="1.5" d="M60,-141C54,-141 48,-135 48,-129"/>
<path fill="#ffffff" stroke="#ffffff" stroke-width="1.5" d="M48,-97C48,-91 54,-85 60,-85"/>
<polyline fill="none" stroke="#2e3436" stroke-width="1.5" points="60,-85 110,-85 "/>
<path fill="none" stroke="#2e3436" stroke-width="1.5" d="M110,-85C116,-85 122,-91 122,-97"/>
<polyline fill="none" stroke="#2e3436" stroke-width="1.5" points="122,-97 122,-129 "/>
<path fill="none" stroke="#2e3436" stroke-width="1.5" d="M122,-129C122,-135 116,-141 110,-141"/>
<polyline fill="none" stroke="#2e3436" stroke-width="1.5" points="110,-141 60,-141 "/>
<path fill="none" stroke="#2e3436" stroke-width="1.5" d="M60,-141C54,-141 48,-135 48,-129"/>
<polyline fill="none" stroke="#2e3436" stroke-width="1.5" points="48,-129 48,-97 "/>
<path fill="none" stroke="#2e3436" stroke-width="1.5" d="M48,-97C48,-91 54,-85 60,-85"/>
<text text-anchor="middle" x="85" y="-129.8" font-family="FreeSans" font-size="8.00" fill="#1c2021">Swedish</text>
<polyline fill="none" stroke="#2e3436" stroke-width="1.5" points="48,-123 122,-123 "/>
<text text-anchor="start" x="56" y="-111.8" font-family="FreeSans" font-size="8.00" fill="#1c2021">name = &#39;Andres&#39;</text>
<text text-anchor="start" x="56" y="-101.8" font-family="FreeSans" font-size="8.00" fill="#1c2021">age = 36</text>
<text text-anchor="start" x="56" y="-91.8" font-family="FreeSans" font-size="8.00" fill="#1c2021">belt = &#39;white&#39;</text>
</g>
<!-- N2&#45;&gt;N0 -->
<g id="edge2" class="edge"><title>N2&#45;&gt;N0</title>
<path fill="none" stroke="#2e3436" stroke-width="2" d="M70.2984,-84.7969C63.4958,-71.747 55.4866,-56.3824 48.9193,-43.7839"/>
<polygon fill="#2e3436" stroke="#2e3436" points="45.4359,-37.1015 51.8956,-42.1921 47.6127,-40.1957 49.3462,-43.5211 48.9028,-43.7522 48.4594,-43.9833 46.726,-40.658 45.91,-45.3123 45.4359,-37.1015 45.4359,-37.1015"/>
<text text-anchor="middle" x="76.5" y="-58.8" font-family="FreeSans" font-size="8.00" fill="#2e3436">KNOWS</text>
</g>
<!-- N2&#45;&gt;N1 -->
<g id="edge4" class="edge"><title>N2&#45;&gt;N1</title>
<path fill="none" stroke="#2e3436" stroke-width="2" d="M100.002,-84.7969C106.943,-71.747 115.116,-56.3824 121.817,-43.7839"/>
<polygon fill="#2e3436" stroke="#2e3436" points="125.372,-37.1015 124.829,-45.3081 124.052,-40.6471 122.291,-43.9579 121.849,-43.7231 121.408,-43.4883 123.169,-40.1775 118.87,-42.1381 125.372,-37.1015 125.372,-37.1015"/>
<text text-anchor="middle" x="129.5" y="-58.8" font-family="FreeSans" font-size="8.00" fill="#2e3436">KNOWS</text>
</g>
</g>
</svg>
