<?xml version="1.0" encoding="UTF-8" standalone="no"?>
<!DOCTYPE svg PUBLIC "-//W3C//DTD SVG 1.1//EN"
 "http://www.w3.org/Graphics/SVG/1.1/DTD/svg11.dtd">
<!-- Generated by graphviz version 2.26.3 (20100126.1600)
 -->
<!-- Title: g Pages: 1 -->
<svg width="305pt" height="255pt"
 viewBox="0.00 0.00 304.64 255.40" xmlns="http://www.w3.org/2000/svg" xmlns:xlink="http://www.w3.org/1999/xlink">
<g id="graph1" class="graph" transform="scale(1 1) rotate(0) translate(4 251.402)">
<title>g</title>
<polygon fill="white" stroke="white" points="-4,5 -4,-251.402 301.642,-251.402 301.642,5 -4,5"/>
<!-- N0 -->
<g id="node1" class="node"><title>N0</title>
<polygon fill="#ffffff" stroke="#ffffff" stroke-width="1.5" points="193.482,-1.5 223.482,-1.5 235.482,-13.5 235.482,-25.5 223.482,-37.5 193.482,-37.5 181.482,-25.5 181.482,-13.5 193.482,-1.5"/>
<path fill="#ffffff" stroke="#ffffff" stroke-width="1.5" d="M223.482,-1.5C229.482,-1.5 235.482,-7.5 235.482,-13.5"/>
<path fill="#ffffff" stroke="#ffffff" stroke-width="1.5" d="M235.482,-25.5C235.482,-31.5 229.482,-37.5 223.482,-37.5"/>
<path fill="#ffffff" stroke="#ffffff" stroke-width="1.5" d="M193.482,-37.5C187.482,-37.5 181.482,-31.5 181.482,-25.5"/>
<path fill="#ffffff" stroke="#ffffff" stroke-width="1.5" d="M181.482,-13.5C181.482,-7.5 187.482,-1.5 193.482,-1.5"/>
<polyline fill="none" stroke="#2e3436" stroke-width="1.5" points="193.482,-1.5 223.482,-1.5 "/>
<path fill="none" stroke="#2e3436" stroke-width="1.5" d="M223.482,-1.5C229.482,-1.5 235.482,-7.5 235.482,-13.5"/>
<polyline fill="none" stroke="#2e3436" stroke-width="1.5" points="235.482,-13.5 235.482,-25.5 "/>
<path fill="none" stroke="#2e3436" stroke-width="1.5" d="M235.482,-25.5C235.482,-31.5 229.482,-37.5 223.482,-37.5"/>
<polyline fill="none" stroke="#2e3436" stroke-width="1.5" points="223.482,-37.5 193.482,-37.5 "/>
<path fill="none" stroke="#2e3436" stroke-width="1.5" d="M193.482,-37.5C187.482,-37.5 181.482,-31.5 181.482,-25.5"/>
<polyline fill="none" stroke="#2e3436" stroke-width="1.5" points="181.482,-25.5 181.482,-13.5 "/>
<path fill="none" stroke="#2e3436" stroke-width="1.5" d="M181.482,-13.5C181.482,-7.5 187.482,-1.5 193.482,-1.5"/>
<text text-anchor="middle" x="208.482" y="-26.3" font-family="FreeSans" font-size="8.00" fill="#1c2021">Leaf</text>
<polyline fill="none" stroke="#2e3436" stroke-width="1.5" points="181.482,-19.5 235.482,-19.5 "/>
<text text-anchor="start" x="189.482" y="-8.3" font-family="FreeSans" font-size="8.00" fill="#1c2021">count = 1</text>
</g>
<!-- N1 -->
<g id="node3" class="node"><title>N1</title>
<polygon fill="#ffffff" stroke="#ffffff" stroke-width="1.5" points="253.642,-105.701 283.642,-105.701 295.642,-117.701 295.642,-129.701 283.642,-141.701 253.642,-141.701 241.642,-129.701 241.642,-117.701 253.642,-105.701"/>
<path fill="#ffffff" stroke="#ffffff" stroke-width="1.5" d="M283.642,-105.701C289.642,-105.701 295.642,-111.701 295.642,-117.701"/>
<path fill="#ffffff" stroke="#ffffff" stroke-width="1.5" d="M295.642,-129.701C295.642,-135.701 289.642,-141.701 283.642,-141.701"/>
<path fill="#ffffff" stroke="#ffffff" stroke-width="1.5" d="M253.642,-141.701C247.642,-141.701 241.642,-135.701 241.642,-129.701"/>
<path fill="#ffffff" stroke="#ffffff" stroke-width="1.5" d="M241.642,-117.701C241.642,-111.701 247.642,-105.701 253.642,-105.701"/>
<polyline fill="none" stroke="#2e3436" stroke-width="1.5" points="253.642,-105.701 283.642,-105.701 "/>
<path fill="none" stroke="#2e3436" stroke-width="1.5" d="M283.642,-105.701C289.642,-105.701 295.642,-111.701 295.642,-117.701"/>
<polyline fill="none" stroke="#2e3436" stroke-width="1.5" points="295.642,-117.701 295.642,-129.701 "/>
<path fill="none" stroke="#2e3436" stroke-width="1.5" d="M295.642,-129.701C295.642,-135.701 289.642,-141.701 283.642,-141.701"/>
<polyline fill="none" stroke="#2e3436" stroke-width="1.5" points="283.642,-141.701 253.642,-141.701 "/>
<path fill="none" stroke="#2e3436" stroke-width="1.5" d="M253.642,-141.701C247.642,-141.701 241.642,-135.701 241.642,-129.701"/>
<polyline fill="none" stroke="#2e3436" stroke-width="1.5" points="241.642,-129.701 241.642,-117.701 "/>
<path fill="none" stroke="#2e3436" stroke-width="1.5" d="M241.642,-117.701C241.642,-111.701 247.642,-105.701 253.642,-105.701"/>
<text text-anchor="middle" x="268.642" y="-130.501" font-family="FreeSans" font-size="8.00" fill="#1c2021">Leaf</text>
<polyline fill="none" stroke="#2e3436" stroke-width="1.5" points="241.642,-123.701 295.642,-123.701 "/>
<text text-anchor="start" x="249.642" y="-112.501" font-family="FreeSans" font-size="8.00" fill="#1c2021">count = 2</text>
</g>
<!-- N0&#45;&gt;N1 -->
<g id="edge2" class="edge"><title>N0&#45;&gt;N1</title>
<path fill="none" stroke="#2e3436" stroke-width="2" d="M218.961,-37.6505C228.735,-54.5802 243.4,-79.9809 254.266,-98.801"/>
<polygon fill="#2e3436" stroke="#2e3436" points="258.081,-105.409 251.408,-100.601 255.773,-102.411 253.898,-99.1639 254.331,-98.9139 254.764,-98.6639 256.639,-101.911 257.254,-97.2264 258.081,-105.409 258.081,-105.409"/>
<text text-anchor="middle" x="241.614" y="-63.0257" font-family="FreeSans" font-size="8.00" fill="#2e3436">X</text>
</g>
<!-- N2 -->
<g id="node5" class="node"><title>N2</title>
<polygon fill="#ffffff" stroke="#ffffff" stroke-width="1.5" points="13,-105.701 43,-105.701 55,-117.701 55,-129.701 43,-141.701 13,-141.701 1,-129.701 1,-117.701 13,-105.701"/>
<path fill="#ffffff" stroke="#ffffff" stroke-width="1.5" d="M43,-105.701C49,-105.701 55,-111.701 55,-117.701"/>
<path fill="#ffffff" stroke="#ffffff" stroke-width="1.5" d="M55,-129.701C55,-135.701 49,-141.701 43,-141.701"/>
<path fill="#ffffff" stroke="#ffffff" stroke-width="1.5" d="M13,-141.701C7,-141.701 1,-135.701 1,-129.701"/>
<path fill="#ffffff" stroke="#ffffff" stroke-width="1.5" d="M1,-117.701C1,-111.701 7,-105.701 13,-105.701"/>
<polyline fill="none" stroke="#2e3436" stroke-width="1.5" points="13,-105.701 43,-105.701 "/>
<path fill="none" stroke="#2e3436" stroke-width="1.5" d="M43,-105.701C49,-105.701 55,-111.701 55,-117.701"/>
<polyline fill="none" stroke="#2e3436" stroke-width="1.5" points="55,-117.701 55,-129.701 "/>
<path fill="none" stroke="#2e3436" stroke-width="1.5" d="M55,-129.701C55,-135.701 49,-141.701 43,-141.701"/>
<polyline fill="none" stroke="#2e3436" stroke-width="1.5" points="43,-141.701 13,-141.701 "/>
<path fill="none" stroke="#2e3436" stroke-width="1.5" d="M13,-141.701C7,-141.701 1,-135.701 1,-129.701"/>
<polyline fill="none" stroke="#2e3436" stroke-width="1.5" points="1,-129.701 1,-117.701 "/>
<path fill="none" stroke="#2e3436" stroke-width="1.5" d="M1,-117.701C1,-111.701 7,-105.701 13,-105.701"/>
<text text-anchor="middle" x="28" y="-130.501" font-family="FreeSans" font-size="8.00" fill="#1c2021">Leaf</text>
<polyline fill="none" stroke="#2e3436" stroke-width="1.5" points="1,-123.701 55,-123.701 "/>
<text text-anchor="start" x="9" y="-112.501" font-family="FreeSans" font-size="8.00" fill="#1c2021">count = 3</text>
</g>
<!-- N0&#45;&gt;N2 -->
<g id="edge4" class="edge"><title>N0&#45;&gt;N2</title>
<path fill="none" stroke="#2e3436" stroke-width="2" d="M181.462,-35.1C149.564,-53.5163 96.4871,-84.1601 61.8702,-104.146"/>
<polygon fill="#2e3436" stroke="#2e3436" points="55.2046,-107.995 60.0123,-101.322 58.2022,-105.687 61.4498,-103.811 61.6999,-104.245 61.9499,-104.678 58.7023,-106.553 63.3874,-107.167 55.2046,-107.995 55.2046,-107.995"/>
<text text-anchor="middle" x="124.666" y="-73.4231" font-family="FreeSans" font-size="8.00" fill="#2e3436">X</text>
</g>
<!-- N3 -->
<g id="node7" class="node"><title>N3</title>
<polygon fill="#ffffff" stroke="#ffffff" stroke-width="1.5" points="73.1606,-209.902 103.161,-209.902 115.161,-221.902 115.161,-233.902 103.161,-245.902 73.1606,-245.902 61.1606,-233.902 61.1606,-221.902 73.1606,-209.902"/>
<path fill="#ffffff" stroke="#ffffff" stroke-width="1.5" d="M103.161,-209.902C109.161,-209.902 115.161,-215.902 115.161,-221.902"/>
<path fill="#ffffff" stroke="#ffffff" stroke-width="1.5" d="M115.161,-233.902C115.161,-239.902 109.161,-245.902 103.161,-245.902"/>
<path fill="#ffffff" stroke="#ffffff" stroke-width="1.5" d="M73.1606,-245.902C67.1606,-245.902 61.1606,-239.902 61.1606,-233.902"/>
<path fill="#ffffff" stroke="#ffffff" stroke-width="1.5" d="M61.1606,-221.902C61.1606,-215.902 67.1606,-209.902 73.1606,-209.902"/>
<polyline fill="none" stroke="#2e3436" stroke-width="1.5" points="73.1606,-209.902 103.161,-209.902 "/>
<path fill="none" stroke="#2e3436" stroke-width="1.5" d="M103.161,-209.902C109.161,-209.902 115.161,-215.902 115.161,-221.902"/>
<polyline fill="none" stroke="#2e3436" stroke-width="1.5" points="115.161,-221.902 115.161,-233.902 "/>
<path fill="none" stroke="#2e3436" stroke-width="1.5" d="M115.161,-233.902C115.161,-239.902 109.161,-245.902 103.161,-245.902"/>
<polyline fill="none" stroke="#2e3436" stroke-width="1.5" points="103.161,-245.902 73.1606,-245.902 "/>
<path fill="none" stroke="#2e3436" stroke-width="1.5" d="M73.1606,-245.902C67.1606,-245.902 61.1606,-239.902 61.1606,-233.902"/>
<polyline fill="none" stroke="#2e3436" stroke-width="1.5" points="61.1606,-233.902 61.1606,-221.902 "/>
<path fill="none" stroke="#2e3436" stroke-width="1.5" d="M61.1606,-221.902C61.1606,-215.902 67.1606,-209.902 73.1606,-209.902"/>
<text text-anchor="middle" x="88.1606" y="-234.702" font-family="FreeSans" font-size="8.00" fill="#1c2021">Leaf</text>
<polyline fill="none" stroke="#2e3436" stroke-width="1.5" points="61.1606,-227.902 115.161,-227.902 "/>
<text text-anchor="start" x="69.1606" y="-216.702" font-family="FreeSans" font-size="8.00" fill="#1c2021">count = 4</text>
</g>
<!-- N0&#45;&gt;N3 -->
<g id="edge6" class="edge"><title>N0&#45;&gt;N3</title>
<path fill="none" stroke="#2e3436" stroke-width="2" d="M198.014,-37.6298C176.459,-74.965 127.084,-160.485 102.547,-202.984"/>
<polygon fill="#2e3436" stroke="#2e3436" points="98.6893,-209.666 99.5165,-201.483 100.131,-206.168 102.006,-202.921 102.439,-203.171 102.872,-203.421 100.997,-206.668 105.362,-204.858 98.6893,-209.666 98.6893,-209.666"/>
<text text-anchor="middle" x="155.281" y="-121.107" font-family="FreeSans" font-size="8.00" fill="#2e3436">X</text>
</g>
<!-- N4 -->
<g id="node9" class="node"><title>N4</title>
<polygon fill="#ffffff" stroke="#ffffff" stroke-width="1.5" points="193.482,-209.902 223.482,-209.902 235.482,-221.902 235.482,-233.902 223.482,-245.902 193.482,-245.902 181.482,-233.902 181.482,-221.902 193.482,-209.902"/>
<path fill="#ffffff" stroke="#ffffff" stroke-width="1.5" d="M223.482,-209.902C229.482,-209.902 235.482,-215.902 235.482,-221.902"/>
<path fill="#ffffff" stroke="#ffffff" stroke-width="1.5" d="M235.482,-233.902C235.482,-239.902 229.482,-245.902 223.482,-245.902"/>
<path fill="#ffffff" stroke="#ffffff" stroke-width="1.5" d="M193.482,-245.902C187.482,-245.902 181.482,-239.902 181.482,-233.902"/>
<path fill="#ffffff" stroke="#ffffff" stroke-width="1.5" d="M181.482,-221.902C181.482,-215.902 187.482,-209.902 193.482,-209.902"/>
<polyline fill="none" stroke="#2e3436" stroke-width="1.5" points="193.482,-209.902 223.482,-209.902 "/>
<path fill="none" stroke="#2e3436" stroke-width="1.5" d="M223.482,-209.902C229.482,-209.902 235.482,-215.902 235.482,-221.902"/>
<polyline fill="none" stroke="#2e3436" stroke-width="1.5" points="235.482,-221.902 235.482,-233.902 "/>
<path fill="none" stroke="#2e3436" stroke-width="1.5" d="M235.482,-233.902C235.482,-239.902 229.482,-245.902 223.482,-245.902"/>
<polyline fill="none" stroke="#2e3436" stroke-width="1.5" points="223.482,-245.902 193.482,-245.902 "/>
<path fill="none" stroke="#2e3436" stroke-width="1.5" d="M193.482,-245.902C187.482,-245.902 181.482,-239.902 181.482,-233.902"/>
<polyline fill="none" stroke="#2e3436" stroke-width="1.5" points="181.482,-233.902 181.482,-221.902 "/>
<path fill="none" stroke="#2e3436" stroke-width="1.5" d="M181.482,-221.902C181.482,-215.902 187.482,-209.902 193.482,-209.902"/>
<text text-anchor="middle" x="208.482" y="-234.702" font-family="FreeSans" font-size="8.00" fill="#1c2021">Leaf</text>
<polyline fill="none" stroke="#2e3436" stroke-width="1.5" points="181.482,-227.902 235.482,-227.902 "/>
<text text-anchor="start" x="189.482" y="-216.702" font-family="FreeSans" font-size="8.00" fill="#1c2021">count = 5</text>
</g>
<!-- N0&#45;&gt;N4 -->
<g id="edge8" class="edge"><title>N0&#45;&gt;N4</title>
<path fill="none" stroke="#2e3436" stroke-width="2" d="M208.482,-37.6298C208.482,-74.6571 208.482,-159.077 208.482,-201.924"/>
<polygon fill="#2e3436" stroke="#2e3436" points="208.482,-209.666 205.107,-202.166 207.982,-205.916 207.982,-202.166 208.482,-202.166 208.982,-202.166 208.982,-205.916 211.857,-202.166 208.482,-209.666 208.482,-209.666"/>
<text text-anchor="middle" x="204.482" y="-117.577" font-family="FreeSans" font-size="8.00" fill="#2e3436">X</text>
</g>
<!-- N5 -->
<g id="node11" class="node"><title>N5</title>
<polygon fill="#ffffff" stroke="#ffffff" stroke-width="1.5" points="73.1606,-1.5 103.161,-1.5 115.161,-13.5 115.161,-25.5 103.161,-37.5 73.1606,-37.5 61.1606,-25.5 61.1606,-13.5 73.1606,-1.5"/>
<path fill="#ffffff" stroke="#ffffff" stroke-width="1.5" d="M103.161,-1.5C109.161,-1.5 115.161,-7.5 115.161,-13.5"/>
<path fill="#ffffff" stroke="#ffffff" stroke-width="1.5" d="M115.161,-25.5C115.161,-31.5 109.161,-37.5 103.161,-37.5"/>
<path fill="#ffffff" stroke="#ffffff" stroke-width="1.5" d="M73.1606,-37.5C67.1606,-37.5 61.1606,-31.5 61.1606,-25.5"/>
<path fill="#ffffff" stroke="#ffffff" stroke-width="1.5" d="M61.1606,-13.5C61.1606,-7.5 67.1606,-1.5 73.1606,-1.5"/>
<polyline fill="none" stroke="#2e3436" stroke-width="1.5" points="73.1606,-1.5 103.161,-1.5 "/>
<path fill="none" stroke="#2e3436" stroke-width="1.5" d="M103.161,-1.5C109.161,-1.5 115.161,-7.5 115.161,-13.5"/>
<polyline fill="none" stroke="#2e3436" stroke-width="1.5" points="115.161,-13.5 115.161,-25.5 "/>
<path fill="none" stroke="#2e3436" stroke-width="1.5" d="M115.161,-25.5C115.161,-31.5 109.161,-37.5 103.161,-37.5"/>
<polyline fill="none" stroke="#2e3436" stroke-width="1.5" points="103.161,-37.5 73.1606,-37.5 "/>
<path fill="none" stroke="#2e3436" stroke-width="1.5" d="M73.1606,-37.5C67.1606,-37.5 61.1606,-31.5 61.1606,-25.5"/>
<polyline fill="none" stroke="#2e3436" stroke-width="1.5" points="61.1606,-25.5 61.1606,-13.5 "/>
<path fill="none" stroke="#2e3436" stroke-width="1.5" d="M61.1606,-13.5C61.1606,-7.5 67.1606,-1.5 73.1606,-1.5"/>
<text text-anchor="middle" x="88.1606" y="-26.3" font-family="FreeSans" font-size="8.00" fill="#1c2021">Leaf</text>
<polyline fill="none" stroke="#2e3436" stroke-width="1.5" points="61.1606,-19.5 115.161,-19.5 "/>
<text text-anchor="start" x="69.1606" y="-8.3" font-family="FreeSans" font-size="8.00" fill="#1c2021">count = 6</text>
</g>
<!-- N0&#45;&gt;N5 -->
<g id="edge10" class="edge"><title>N0&#45;&gt;N5</title>
<path fill="none" stroke="#2e3436" stroke-width="2" d="M181.479,-19.5C164.262,-19.5 141.774,-19.5 123.189,-19.5"/>
<polygon fill="#2e3436" stroke="#2e3436" points="115.489,-19.5 122.989,-16.1249 119.239,-19 122.989,-18.9999 122.989,-19.4999 122.989,-19.9999 119.239,-20 122.989,-22.8749 115.489,-19.5 115.489,-19.5"/>
<text text-anchor="middle" x="152.334" y="-11.3" font-family="FreeSans" font-size="8.00" fill="#2e3436">X</text>
</g>
<!-- N1&#45;&gt;N2 -->
<g id="edge12" class="edge"><title>N1&#45;&gt;N2</title>
<path fill="none" stroke="#2e3436" stroke-width="2" d="M241.505,-123.701C197.609,-123.701 111.077,-123.701 62.7412,-123.701"/>
<polygon fill="#2e3436" stroke="#2e3436" points="55.0378,-123.701 62.5378,-120.326 58.7878,-123.201 62.5378,-123.201 62.5378,-123.701 62.5378,-124.201 58.7878,-124.201 62.5377,-127.076 55.0378,-123.701 55.0378,-123.701"/>
<text text-anchor="middle" x="152.123" y="-127.501" font-family="FreeSans" font-size="8.00" fill="#2e3436">X</text>
</g>
<!-- N1&#45;&gt;N3 -->
<g id="edge14" class="edge"><title>N1&#45;&gt;N3</title>
<path fill="none" stroke="#2e3436" stroke-width="2" d="M241.622,-139.301C209.724,-157.717 156.648,-188.361 122.031,-208.347"/>
<polygon fill="#2e3436" stroke="#2e3436" points="115.365,-212.196 120.173,-205.523 118.363,-209.888 121.61,-208.013 121.86,-208.446 122.11,-208.879 118.863,-210.754 123.548,-211.369 115.365,-212.196 115.365,-212.196"/>
<text text-anchor="middle" x="184.827" y="-177.624" font-family="FreeSans" font-size="8.00" fill="#2e3436">X</text>
</g>
<!-- N1&#45;&gt;N4 -->
<g id="edge16" class="edge"><title>N1&#45;&gt;N4</title>
<path fill="none" stroke="#2e3436" stroke-width="2" d="M258.163,-141.852C248.389,-158.781 233.724,-184.182 222.858,-203.002"/>
<polygon fill="#2e3436" stroke="#2e3436" points="219.043,-209.61 219.87,-201.428 220.485,-206.113 222.36,-202.865 222.793,-203.115 223.226,-203.365 221.351,-206.613 225.716,-204.803 219.043,-209.61 219.043,-209.61"/>
<text text-anchor="middle" x="235.51" y="-167.227" font-family="FreeSans" font-size="8.00" fill="#2e3436">X</text>
</g>
<!-- N1&#45;&gt;N5 -->
<g id="edge18" class="edge"><title>N1&#45;&gt;N5</title>
<path fill="none" stroke="#2e3436" stroke-width="2" d="M241.622,-108.101C209.724,-89.6849 156.648,-59.041 122.031,-39.0549"/>
<polygon fill="#2e3436" stroke="#2e3436" points="115.365,-35.2066 123.548,-36.0338 118.863,-36.6486 122.11,-38.5236 121.86,-38.9567 121.61,-39.3897 118.363,-37.5146 120.173,-41.8795 115.365,-35.2066 115.365,-35.2066"/>
<text text-anchor="middle" x="184.827" y="-65.3781" font-family="FreeSans" font-size="8.00" fill="#2e3436">X</text>
</g>
<!-- N2&#45;&gt;N3 -->
<g id="edge20" class="edge"><title>N2&#45;&gt;N3</title>
<path fill="none" stroke="#2e3436" stroke-width="2" d="M38.4792,-141.852C48.2536,-158.781 62.9187,-184.182 73.7844,-203.002"/>
<polygon fill="#2e3436" stroke="#2e3436" points="77.5996,-209.61 70.9267,-204.803 75.2916,-206.613 73.4166,-203.365 73.8496,-203.115 74.2826,-202.865 76.1576,-206.113 76.7724,-201.428 77.5996,-209.61 77.5996,-209.61"/>
<text text-anchor="middle" x="51.1318" y="-173.227" font-family="FreeSans" font-size="8.00" fill="#2e3436">X</text>
</g>
<!-- N2&#45;&gt;N4 -->
<g id="edge22" class="edge"><title>N2&#45;&gt;N4</title>
<path fill="none" stroke="#2e3436" stroke-width="2" d="M55.0199,-139.301C86.9179,-157.717 139.995,-188.361 174.612,-208.347"/>
<polygon fill="#2e3436" stroke="#2e3436" points="181.277,-212.196 173.094,-211.369 177.779,-210.754 174.532,-208.879 174.782,-208.446 175.032,-208.013 178.279,-209.888 176.469,-205.523 181.277,-212.196 181.277,-212.196"/>
<text text-anchor="middle" x="111.816" y="-177.624" font-family="FreeSans" font-size="8.00" fill="#2e3436">X</text>
</g>
<!-- N2&#45;&gt;N5 -->
<g id="edge24" class="edge"><title>N2&#45;&gt;N5</title>
<path fill="none" stroke="#2e3436" stroke-width="2" d="M38.4792,-105.551C48.2536,-88.621 62.9187,-63.2203 73.7844,-44.4002"/>
<polygon fill="#2e3436" stroke="#2e3436" points="77.5996,-37.7921 76.7724,-45.9748 76.1576,-41.2897 74.2826,-44.5373 73.8496,-44.2873 73.4166,-44.0373 75.2916,-40.7897 70.9267,-42.5998 77.5996,-37.7921 77.5996,-37.7921"/>
<text text-anchor="middle" x="51.1318" y="-69.7754" font-family="FreeSans" font-size="8.00" fill="#2e3436">X</text>
</g>
<!-- N3&#45;&gt;N4 -->
<g id="edge26" class="edge"><title>N3&#45;&gt;N4</title>
<path fill="none" stroke="#2e3436" stroke-width="2" d="M115.163,-227.902C132.381,-227.902 154.868,-227.902 173.453,-227.902"/>
<polygon fill="#2e3436" stroke="#2e3436" points="181.153,-227.902 173.653,-231.277 177.403,-228.402 173.653,-228.402 173.653,-227.902 173.653,-227.402 177.403,-227.402 173.653,-224.527 181.153,-227.902 181.153,-227.902"/>
<text text-anchor="middle" x="144.308" y="-219.702" font-family="FreeSans" font-size="8.00" fill="#2e3436">X</text>
</g>
<!-- N3&#45;&gt;N5 -->
<g id="edge28" class="edge"><title>N3&#45;&gt;N5</title>
<path fill="none" stroke="#2e3436" stroke-width="2" d="M88.1606,-209.773C88.1606,-172.745 88.1606,-88.3249 88.1606,-45.4786"/>
<polygon fill="#2e3436" stroke="#2e3436" points="88.1606,-37.7363 91.5357,-45.2362 88.6606,-41.4863 88.6607,-45.2363 88.1607,-45.2363 87.6607,-45.2363 87.6606,-41.4863 84.7857,-45.2363 88.1606,-37.7363 88.1606,-37.7363"/>
<text text-anchor="middle" x="92.1606" y="-125.426" font-family="FreeSans" font-size="8.00" fill="#2e3436">X</text>
</g>
<!-- N4&#45;&gt;N5 -->
<g id="edge30" class="edge"><title>N4&#45;&gt;N5</title>
<path fill="none" stroke="#2e3436" stroke-width="2" d="M198.014,-209.773C176.459,-172.437 127.084,-86.9176 102.547,-44.4183"/>
<polygon fill="#2e3436" stroke="#2e3436" points="98.6893,-37.7363 105.362,-42.5439 100.997,-40.7339 102.872,-43.9815 102.439,-44.2315 102.006,-44.4815 100.131,-41.2339 99.5165,-45.919 98.6893,-37.7363 98.6893,-37.7363"/>
<text text-anchor="middle" x="155.281" y="-121.895" font-family="FreeSans" font-size="8.00" fill="#2e3436">X</text>
</g>
</g>
</svg>
