<?xml version="1.0" encoding="UTF-8" standalone="no"?>
<!DOCTYPE svg PUBLIC "-//W3C//DTD SVG 1.1//EN"
 "http://www.w3.org/Graphics/SVG/1.1/DTD/svg11.dtd">
<!-- Generated by graphviz version 2.26.3 (20100126.1600)
 -->
<!-- Title: g Pages: 1 -->
<svg width="212pt" height="185pt"
 viewBox="0.00 0.00 211.68 185.30" xmlns="http://www.w3.org/2000/svg" xmlns:xlink="http://www.w3.org/1999/xlink">
<g id="graph1" class="graph" transform="scale(1 1) rotate(0) translate(4 181.303)">
<title>g</title>
<polygon fill="white" stroke="white" points="-4,5 -4,-181.303 208.682,-181.303 208.682,5 -4,5"/>
<!-- N8 -->
<g id="node1" class="node"><title>N8</title>
<polygon fill="#ffffff" stroke="#ffffff" stroke-width="1.5" points="86.8421,-70.6316 116.842,-70.6316 128.842,-82.6316 128.842,-94.6316 116.842,-106.632 86.8421,-106.632 74.8421,-94.6316 74.8421,-82.6316 86.8421,-70.6316"/>
<path fill="#ffffff" stroke="#ffffff" stroke-width="1.5" d="M116.842,-70.6316C122.842,-70.6316 128.842,-76.6316 128.842,-82.6316"/>
<path fill="#ffffff" stroke="#ffffff" stroke-width="1.5" d="M128.842,-94.6316C128.842,-100.632 122.842,-106.632 116.842,-106.632"/>
<path fill="#ffffff" stroke="#ffffff" stroke-width="1.5" d="M86.8421,-106.632C80.8421,-106.632 74.8421,-100.632 74.8421,-94.6316"/>
<path fill="#ffffff" stroke="#ffffff" stroke-width="1.5" d="M74.8421,-82.6316C74.8421,-76.6316 80.8421,-70.6316 86.8421,-70.6316"/>
<polyline fill="none" stroke="#2e3436" stroke-width="1.5" points="86.8421,-70.6316 116.842,-70.6316 "/>
<path fill="none" stroke="#2e3436" stroke-width="1.5" d="M116.842,-70.6316C122.842,-70.6316 128.842,-76.6316 128.842,-82.6316"/>
<polyline fill="none" stroke="#2e3436" stroke-width="1.5" points="128.842,-82.6316 128.842,-94.6316 "/>
<path fill="none" stroke="#2e3436" stroke-width="1.5" d="M128.842,-94.6316C128.842,-100.632 122.842,-106.632 116.842,-106.632"/>
<polyline fill="none" stroke="#2e3436" stroke-width="1.5" points="116.842,-106.632 86.8421,-106.632 "/>
<path fill="none" stroke="#2e3436" stroke-width="1.5" d="M86.8421,-106.632C80.8421,-106.632 74.8421,-100.632 74.8421,-94.6316"/>
<polyline fill="none" stroke="#2e3436" stroke-width="1.5" points="74.8421,-94.6316 74.8421,-82.6316 "/>
<path fill="none" stroke="#2e3436" stroke-width="1.5" d="M74.8421,-82.6316C74.8421,-76.6316 80.8421,-70.6316 86.8421,-70.6316"/>
<text text-anchor="middle" x="101.842" y="-95.4316" font-family="FreeSans" font-size="8.00" fill="#1c2021">Node[8]</text>
<polyline fill="none" stroke="#2e3436" stroke-width="1.5" points="74.8421,-88.6316 128.842,-88.6316 "/>
<text text-anchor="middle" x="101.842" y="-77.4316" font-family="FreeSans" font-size="8.00" fill="#1c2021"> </text>
</g>
<!-- N9 -->
<g id="node3" class="node"><title>N9</title>
<polygon fill="#ffffff" stroke="#ffffff" stroke-width="1.5" points="114.745,-1.5 144.745,-1.5 156.745,-13.5 156.745,-25.5 144.745,-37.5 114.745,-37.5 102.745,-25.5 102.745,-13.5 114.745,-1.5"/>
<path fill="#ffffff" stroke="#ffffff" stroke-width="1.5" d="M144.745,-1.5C150.745,-1.5 156.745,-7.5 156.745,-13.5"/>
<path fill="#ffffff" stroke="#ffffff" stroke-width="1.5" d="M156.745,-25.5C156.745,-31.5 150.745,-37.5 144.745,-37.5"/>
<path fill="#ffffff" stroke="#ffffff" stroke-width="1.5" d="M114.745,-37.5C108.745,-37.5 102.745,-31.5 102.745,-25.5"/>
<path fill="#ffffff" stroke="#ffffff" stroke-width="1.5" d="M102.745,-13.5C102.745,-7.5 108.745,-1.5 114.745,-1.5"/>
<polyline fill="none" stroke="#2e3436" stroke-width="1.5" points="114.745,-1.5 144.745,-1.5 "/>
<path fill="none" stroke="#2e3436" stroke-width="1.5" d="M144.745,-1.5C150.745,-1.5 156.745,-7.5 156.745,-13.5"/>
<polyline fill="none" stroke="#2e3436" stroke-width="1.5" points="156.745,-13.5 156.745,-25.5 "/>
<path fill="none" stroke="#2e3436" stroke-width="1.5" d="M156.745,-25.5C156.745,-31.5 150.745,-37.5 144.745,-37.5"/>
<polyline fill="none" stroke="#2e3436" stroke-width="1.5" points="144.745,-37.5 114.745,-37.5 "/>
<path fill="none" stroke="#2e3436" stroke-width="1.5" d="M114.745,-37.5C108.745,-37.5 102.745,-31.5 102.745,-25.5"/>
<polyline fill="none" stroke="#2e3436" stroke-width="1.5" points="102.745,-25.5 102.745,-13.5 "/>
<path fill="none" stroke="#2e3436" stroke-width="1.5" d="M102.745,-13.5C102.745,-7.5 108.745,-1.5 114.745,-1.5"/>
<text text-anchor="middle" x="129.745" y="-26.3" font-family="FreeSans" font-size="8.00" fill="#1c2021">Node[9]</text>
<polyline fill="none" stroke="#2e3436" stroke-width="1.5" points="102.745,-19.5 156.745,-19.5 "/>
<text text-anchor="start" x="110.745" y="-8.3" font-family="FreeSans" font-size="8.00" fill="#1c2021">count = 1</text>
</g>
<!-- N8&#45;&gt;N9 -->
<g id="edge2" class="edge"><title>N8&#45;&gt;N9</title>
<path fill="none" stroke="#2e3436" stroke-width="2" d="M109.173,-70.4681C112.32,-62.6709 116.053,-53.4241 119.469,-44.9613"/>
<polygon fill="#2e3436" stroke="#2e3436" points="122.366,-37.7822 122.689,-46.0003 121.426,-41.4468 120.023,-44.9242 119.559,-44.7371 119.095,-44.5499 120.499,-41.0725 116.429,-43.4738 122.366,-37.7822 122.366,-37.7822"/>
<text text-anchor="middle" x="109.321" y="-53.5147" font-family="FreeSans" font-size="8.00" fill="#2e3436">X</text>
</g>
<!-- N10 -->
<g id="node5" class="node"><title>N10</title>
<polygon fill="#ffffff" stroke="#ffffff" stroke-width="1.5" points="160.682,-60.2966 190.682,-60.2966 202.682,-72.2966 202.682,-84.2966 190.682,-96.2966 160.682,-96.2966 148.682,-84.2966 148.682,-72.2966 160.682,-60.2966"/>
<path fill="#ffffff" stroke="#ffffff" stroke-width="1.5" d="M190.682,-60.2966C196.682,-60.2966 202.682,-66.2966 202.682,-72.2966"/>
<path fill="#ffffff" stroke="#ffffff" stroke-width="1.5" d="M202.682,-84.2966C202.682,-90.2966 196.682,-96.2966 190.682,-96.2966"/>
<path fill="#ffffff" stroke="#ffffff" stroke-width="1.5" d="M160.682,-96.2966C154.682,-96.2966 148.682,-90.2966 148.682,-84.2966"/>
<path fill="#ffffff" stroke="#ffffff" stroke-width="1.5" d="M148.682,-72.2966C148.682,-66.2966 154.682,-60.2966 160.682,-60.2966"/>
<polyline fill="none" stroke="#2e3436" stroke-width="1.5" points="160.682,-60.2966 190.682,-60.2966 "/>
<path fill="none" stroke="#2e3436" stroke-width="1.5" d="M190.682,-60.2966C196.682,-60.2966 202.682,-66.2966 202.682,-72.2966"/>
<polyline fill="none" stroke="#2e3436" stroke-width="1.5" points="202.682,-72.2966 202.682,-84.2966 "/>
<path fill="none" stroke="#2e3436" stroke-width="1.5" d="M202.682,-84.2966C202.682,-90.2966 196.682,-96.2966 190.682,-96.2966"/>
<polyline fill="none" stroke="#2e3436" stroke-width="1.5" points="190.682,-96.2966 160.682,-96.2966 "/>
<path fill="none" stroke="#2e3436" stroke-width="1.5" d="M160.682,-96.2966C154.682,-96.2966 148.682,-90.2966 148.682,-84.2966"/>
<polyline fill="none" stroke="#2e3436" stroke-width="1.5" points="148.682,-84.2966 148.682,-72.2966 "/>
<path fill="none" stroke="#2e3436" stroke-width="1.5" d="M148.682,-72.2966C148.682,-66.2966 154.682,-60.2966 160.682,-60.2966"/>
<text text-anchor="middle" x="175.682" y="-85.0966" font-family="FreeSans" font-size="8.00" fill="#1c2021">Node[10]</text>
<polyline fill="none" stroke="#2e3436" stroke-width="1.5" points="148.682,-78.2966 202.682,-78.2966 "/>
<text text-anchor="start" x="156.682" y="-67.0966" font-family="FreeSans" font-size="8.00" fill="#1c2021">count = 2</text>
</g>
<!-- N8&#45;&gt;N10 -->
<g id="edge4" class="edge"><title>N8&#45;&gt;N10</title>
<path fill="none" stroke="#2e3436" stroke-width="2" d="M128.918,-84.8419C132.831,-84.2943 136.903,-83.7244 140.94,-83.1593"/>
<polygon fill="#2e3436" stroke="#2e3436" points="148.609,-82.0858 141.65,-86.468 144.965,-83.1009 141.251,-83.6207 141.182,-83.1255 141.112,-82.6304 144.826,-82.1105 140.714,-79.7831 148.609,-82.0858 148.609,-82.0858"/>
<text text-anchor="middle" x="134.929" y="-75.8006" font-family="FreeSans" font-size="8.00" fill="#2e3436">X</text>
</g>
<!-- N11 -->
<g id="node7" class="node"><title>N11</title>
<polygon fill="#ffffff" stroke="#ffffff" stroke-width="1.5" points="132.743,-129.424 162.743,-129.424 174.743,-141.424 174.743,-153.424 162.743,-165.424 132.743,-165.424 120.743,-153.424 120.743,-141.424 132.743,-129.424"/>
<path fill="#ffffff" stroke="#ffffff" stroke-width="1.5" d="M162.743,-129.424C168.743,-129.424 174.743,-135.424 174.743,-141.424"/>
<path fill="#ffffff" stroke="#ffffff" stroke-width="1.5" d="M174.743,-153.424C174.743,-159.424 168.743,-165.424 162.743,-165.424"/>
<path fill="#ffffff" stroke="#ffffff" stroke-width="1.5" d="M132.743,-165.424C126.743,-165.424 120.743,-159.424 120.743,-153.424"/>
<path fill="#ffffff" stroke="#ffffff" stroke-width="1.5" d="M120.743,-141.424C120.743,-135.424 126.743,-129.424 132.743,-129.424"/>
<polyline fill="none" stroke="#2e3436" stroke-width="1.5" points="132.743,-129.424 162.743,-129.424 "/>
<path fill="none" stroke="#2e3436" stroke-width="1.5" d="M162.743,-129.424C168.743,-129.424 174.743,-135.424 174.743,-141.424"/>
<polyline fill="none" stroke="#2e3436" stroke-width="1.5" points="174.743,-141.424 174.743,-153.424 "/>
<path fill="none" stroke="#2e3436" stroke-width="1.5" d="M174.743,-153.424C174.743,-159.424 168.743,-165.424 162.743,-165.424"/>
<polyline fill="none" stroke="#2e3436" stroke-width="1.5" points="162.743,-165.424 132.743,-165.424 "/>
<path fill="none" stroke="#2e3436" stroke-width="1.5" d="M132.743,-165.424C126.743,-165.424 120.743,-159.424 120.743,-153.424"/>
<polyline fill="none" stroke="#2e3436" stroke-width="1.5" points="120.743,-153.424 120.743,-141.424 "/>
<path fill="none" stroke="#2e3436" stroke-width="1.5" d="M120.743,-141.424C120.743,-135.424 126.743,-129.424 132.743,-129.424"/>
<text text-anchor="middle" x="147.743" y="-154.224" font-family="FreeSans" font-size="8.00" fill="#1c2021">Node[11]</text>
<polyline fill="none" stroke="#2e3436" stroke-width="1.5" points="120.743,-147.424 174.743,-147.424 "/>
<text text-anchor="start" x="128.743" y="-136.224" font-family="FreeSans" font-size="8.00" fill="#1c2021">count = 3</text>
</g>
<!-- N8&#45;&gt;N11 -->
<g id="edge6" class="edge"><title>N8&#45;&gt;N11</title>
<path fill="none" stroke="#2e3436" stroke-width="2" d="M116.114,-106.911C120.124,-112.048 124.549,-117.715 128.786,-123.142"/>
<polygon fill="#2e3436" stroke="#2e3436" points="133.638,-129.357 126.362,-125.522 130.936,-126.709 128.628,-123.753 129.022,-123.445 129.416,-123.138 131.724,-126.093 131.683,-121.368 133.638,-129.357 133.638,-129.357"/>
<text text-anchor="middle" x="117.45" y="-116.827" font-family="FreeSans" font-size="8.00" fill="#2e3436">X</text>
</g>
<!-- N12 -->
<g id="node9" class="node"><title>N12</title>
<polygon fill="#ffffff" stroke="#ffffff" stroke-width="1.5" points="58.9626,-139.803 88.9626,-139.803 100.963,-151.803 100.963,-163.803 88.9626,-175.803 58.9626,-175.803 46.9626,-163.803 46.9626,-151.803 58.9626,-139.803"/>
<path fill="#ffffff" stroke="#ffffff" stroke-width="1.5" d="M88.9626,-139.803C94.9626,-139.803 100.963,-145.803 100.963,-151.803"/>
<path fill="#ffffff" stroke="#ffffff" stroke-width="1.5" d="M100.963,-163.803C100.963,-169.803 94.9626,-175.803 88.9626,-175.803"/>
<path fill="#ffffff" stroke="#ffffff" stroke-width="1.5" d="M58.9626,-175.803C52.9626,-175.803 46.9626,-169.803 46.9626,-163.803"/>
<path fill="#ffffff" stroke="#ffffff" stroke-width="1.5" d="M46.9626,-151.803C46.9626,-145.803 52.9626,-139.803 58.9626,-139.803"/>
<polyline fill="none" stroke="#2e3436" stroke-width="1.5" points="58.9626,-139.803 88.9626,-139.803 "/>
<path fill="none" stroke="#2e3436" stroke-width="1.5" d="M88.9626,-139.803C94.9626,-139.803 100.963,-145.803 100.963,-151.803"/>
<polyline fill="none" stroke="#2e3436" stroke-width="1.5" points="100.963,-151.803 100.963,-163.803 "/>
<path fill="none" stroke="#2e3436" stroke-width="1.5" d="M100.963,-163.803C100.963,-169.803 94.9626,-175.803 88.9626,-175.803"/>
<polyline fill="none" stroke="#2e3436" stroke-width="1.5" points="88.9626,-175.803 58.9626,-175.803 "/>
<path fill="none" stroke="#2e3436" stroke-width="1.5" d="M58.9626,-175.803C52.9626,-175.803 46.9626,-169.803 46.9626,-163.803"/>
<polyline fill="none" stroke="#2e3436" stroke-width="1.5" points="46.9626,-163.803 46.9626,-151.803 "/>
<path fill="none" stroke="#2e3436" stroke-width="1.5" d="M46.9626,-151.803C46.9626,-145.803 52.9626,-139.803 58.9626,-139.803"/>
<text text-anchor="middle" x="73.9626" y="-164.603" font-family="FreeSans" font-size="8.00" fill="#1c2021">Node[12]</text>
<polyline fill="none" stroke="#2e3436" stroke-width="1.5" points="46.9626,-157.803 100.963,-157.803 "/>
<text text-anchor="start" x="54.9626" y="-146.603" font-family="FreeSans" font-size="8.00" fill="#1c2021">count = 4</text>
</g>
<!-- N8&#45;&gt;N12 -->
<g id="edge8" class="edge"><title>N8&#45;&gt;N12</title>
<path fill="none" stroke="#2e3436" stroke-width="2" d="M94.5171,-106.806C91.3727,-114.607 87.6436,-123.86 84.2307,-132.327"/>
<polygon fill="#2e3436" stroke="#2e3436" points="81.3355,-139.511 81.009,-131.293 82.2736,-135.845 83.6755,-132.367 84.1393,-132.554 84.603,-132.741 83.2011,-136.219 87.2696,-133.816 81.3355,-139.511 81.3355,-139.511"/>
<text text-anchor="middle" x="84.3739" y="-115.366" font-family="FreeSans" font-size="8.00" fill="#2e3436">X</text>
</g>
<!-- N13 -->
<g id="node11" class="node"><title>N13</title>
<polygon fill="#ffffff" stroke="#ffffff" stroke-width="1.5" points="13,-81.1311 43,-81.1311 55,-93.1311 55,-105.131 43,-117.131 13,-117.131 1,-105.131 1,-93.1311 13,-81.1311"/>
<path fill="#ffffff" stroke="#ffffff" stroke-width="1.5" d="M43,-81.1311C49,-81.1311 55,-87.1311 55,-93.1311"/>
<path fill="#ffffff" stroke="#ffffff" stroke-width="1.5" d="M55,-105.131C55,-111.131 49,-117.131 43,-117.131"/>
<path fill="#ffffff" stroke="#ffffff" stroke-width="1.5" d="M13,-117.131C7,-117.131 1,-111.131 1,-105.131"/>
<path fill="#ffffff" stroke="#ffffff" stroke-width="1.5" d="M1,-93.1311C1,-87.1311 7,-81.1311 13,-81.1311"/>
<polyline fill="none" stroke="#2e3436" stroke-width="1.5" points="13,-81.1311 43,-81.1311 "/>
<path fill="none" stroke="#2e3436" stroke-width="1.5" d="M43,-81.1311C49,-81.1311 55,-87.1311 55,-93.1311"/>
<polyline fill="none" stroke="#2e3436" stroke-width="1.5" points="55,-93.1311 55,-105.131 "/>
<path fill="none" stroke="#2e3436" stroke-width="1.5" d="M55,-105.131C55,-111.131 49,-117.131 43,-117.131"/>
<polyline fill="none" stroke="#2e3436" stroke-width="1.5" points="43,-117.131 13,-117.131 "/>
<path fill="none" stroke="#2e3436" stroke-width="1.5" d="M13,-117.131C7,-117.131 1,-111.131 1,-105.131"/>
<polyline fill="none" stroke="#2e3436" stroke-width="1.5" points="1,-105.131 1,-93.1311 "/>
<path fill="none" stroke="#2e3436" stroke-width="1.5" d="M1,-93.1311C1,-87.1311 7,-81.1311 13,-81.1311"/>
<text text-anchor="middle" x="28" y="-105.931" font-family="FreeSans" font-size="8.00" fill="#1c2021">Node[13]</text>
<polyline fill="none" stroke="#2e3436" stroke-width="1.5" points="1,-99.1311 55,-99.1311 "/>
<text text-anchor="start" x="9" y="-87.9311" font-family="FreeSans" font-size="8.00" fill="#1c2021">count = 5</text>
</g>
<!-- N8&#45;&gt;N13 -->
<g id="edge10" class="edge"><title>N8&#45;&gt;N13</title>
<path fill="none" stroke="#2e3436" stroke-width="2" d="M74.7654,-92.4816C70.8525,-93.038 66.7804,-93.617 62.7433,-94.191"/>
<polygon fill="#2e3436" stroke="#2e3436" points="55.0735,-95.2815 62.0237,-90.8843 58.7158,-94.2586 62.4284,-93.7306 62.4988,-94.2257 62.5692,-94.7207 58.8566,-95.2486 62.974,-97.5671 55.0735,-95.2815 55.0735,-95.2815"/>
<text text-anchor="middle" x="68.7543" y="-97.1363" font-family="FreeSans" font-size="8.00" fill="#2e3436">X</text>
</g>
<!-- N14 -->
<g id="node13" class="node"><title>N14</title>
<polygon fill="#ffffff" stroke="#ffffff" stroke-width="1.5" points="40.8445,-11.9482 70.8445,-11.9482 82.8445,-23.9482 82.8445,-35.9482 70.8445,-47.9482 40.8445,-47.9482 28.8445,-35.9482 28.8445,-23.9482 40.8445,-11.9482"/>
<path fill="#ffffff" stroke="#ffffff" stroke-width="1.5" d="M70.8445,-11.9482C76.8445,-11.9482 82.8445,-17.9482 82.8445,-23.9482"/>
<path fill="#ffffff" stroke="#ffffff" stroke-width="1.5" d="M82.8445,-35.9482C82.8445,-41.9482 76.8445,-47.9482 70.8445,-47.9482"/>
<path fill="#ffffff" stroke="#ffffff" stroke-width="1.5" d="M40.8445,-47.9482C34.8445,-47.9482 28.8445,-41.9482 28.8445,-35.9482"/>
<path fill="#ffffff" stroke="#ffffff" stroke-width="1.5" d="M28.8445,-23.9482C28.8445,-17.9482 34.8445,-11.9482 40.8445,-11.9482"/>
<polyline fill="none" stroke="#2e3436" stroke-width="1.5" points="40.8445,-11.9482 70.8445,-11.9482 "/>
<path fill="none" stroke="#2e3436" stroke-width="1.5" d="M70.8445,-11.9482C76.8445,-11.9482 82.8445,-17.9482 82.8445,-23.9482"/>
<polyline fill="none" stroke="#2e3436" stroke-width="1.5" points="82.8445,-23.9482 82.8445,-35.9482 "/>
<path fill="none" stroke="#2e3436" stroke-width="1.5" d="M82.8445,-35.9482C82.8445,-41.9482 76.8445,-47.9482 70.8445,-47.9482"/>
<polyline fill="none" stroke="#2e3436" stroke-width="1.5" points="70.8445,-47.9482 40.8445,-47.9482 "/>
<path fill="none" stroke="#2e3436" stroke-width="1.5" d="M40.8445,-47.9482C34.8445,-47.9482 28.8445,-41.9482 28.8445,-35.9482"/>
<polyline fill="none" stroke="#2e3436" stroke-width="1.5" points="28.8445,-35.9482 28.8445,-23.9482 "/>
<path fill="none" stroke="#2e3436" stroke-width="1.5" d="M28.8445,-23.9482C28.8445,-17.9482 34.8445,-11.9482 40.8445,-11.9482"/>
<text text-anchor="middle" x="55.8445" y="-36.7482" font-family="FreeSans" font-size="8.00" fill="#1c2021">Node[14]</text>
<polyline fill="none" stroke="#2e3436" stroke-width="1.5" points="28.8445,-29.9482 82.8445,-29.9482 "/>
<text text-anchor="start" x="36.8445" y="-18.7482" font-family="FreeSans" font-size="8.00" fill="#1c2021">count = 6</text>
</g>
<!-- N8&#45;&gt;N14 -->
<g id="edge12" class="edge"><title>N8&#45;&gt;N14</title>
<path fill="none" stroke="#2e3436" stroke-width="2" d="M87.5404,-70.3855C83.5218,-65.2587 79.0879,-59.6019 74.8417,-54.1847"/>
<polygon fill="#2e3436" stroke="#2e3436" points="69.9795,-47.9815 77.2626,-51.8022 72.6864,-50.6244 74.9998,-53.5759 74.6063,-53.8843 74.2128,-54.1928 71.8994,-51.2414 71.95,-55.9664 69.9795,-47.9815 69.9795,-47.9815"/>
<text text-anchor="middle" x="86.191" y="-56.0851" font-family="FreeSans" font-size="8.00" fill="#2e3436">X</text>
</g>
<!-- N9&#45;&gt;N10 -->
<g id="edge14" class="edge"><title>N9&#45;&gt;N10</title>
<path fill="none" stroke="#2e3436" stroke-width="2" d="M144.028,-37.7813C148.041,-42.918 152.469,-48.5857 156.71,-54.0134"/>
<polygon fill="#2e3436" stroke="#2e3436" points="161.566,-60.2286 154.289,-56.3963 158.863,-57.5813 156.554,-54.6263 156.948,-54.3185 157.342,-54.0106 159.651,-56.9657 159.608,-52.2406 161.566,-60.2286 161.566,-60.2286"/>
<text text-anchor="middle" x="145.369" y="-47.6973" font-family="FreeSans" font-size="8.00" fill="#2e3436">X</text>
</g>
<!-- N10&#45;&gt;N11 -->
<g id="edge16" class="edge"><title>N10&#45;&gt;N11</title>
<path fill="none" stroke="#2e3436" stroke-width="2" d="M168.341,-96.4589C165.19,-104.256 161.453,-113.502 158.033,-121.964"/>
<polygon fill="#2e3436" stroke="#2e3436" points="155.132,-129.143 154.813,-120.924 156.073,-125.478 157.479,-122.002 157.942,-122.189 158.406,-122.376 157,-125.853 161.071,-123.454 155.132,-129.143 155.132,-129.143"/>
<text text-anchor="middle" x="168.187" y="-109.011" font-family="FreeSans" font-size="8.00" fill="#2e3436">X</text>
</g>
<!-- N11&#45;&gt;N12 -->
<g id="edge18" class="edge"><title>N11&#45;&gt;N12</title>
<path fill="none" stroke="#2e3436" stroke-width="2" d="M120.689,-151.23C116.779,-151.78 112.711,-152.352 108.677,-152.92"/>
<polygon fill="#2e3436" stroke="#2e3436" points="101.014,-153.998 107.97,-149.611 104.657,-152.98 108.371,-152.458 108.44,-152.953 108.51,-153.448 104.797,-153.97 108.911,-156.295 101.014,-153.998 101.014,-153.998"/>
<text text-anchor="middle" x="114.683" y="-143.875" font-family="FreeSans" font-size="8.00" fill="#2e3436">X</text>
</g>
<!-- N12&#45;&gt;N13 -->
<g id="edge20" class="edge"><title>N12&#45;&gt;N13</title>
<path fill="none" stroke="#2e3436" stroke-width="2" d="M59.6717,-139.561C55.6563,-134.435 51.2257,-128.779 46.9827,-123.363"/>
<polygon fill="#2e3436" stroke="#2e3436" points="42.1242,-117.161 49.4062,-120.984 44.8304,-119.805 47.143,-122.757 46.7494,-123.065 46.3558,-123.373 44.0432,-120.421 44.0925,-125.146 42.1242,-117.161 42.1242,-117.161"/>
<text text-anchor="middle" x="48.3272" y="-133.262" font-family="FreeSans" font-size="8.00" fill="#2e3436">X</text>
</g>
<!-- N13&#45;&gt;N14 -->
<g id="edge22" class="edge"><title>N13&#45;&gt;N14</title>
<path fill="none" stroke="#2e3436" stroke-width="2" d="M35.3158,-80.9541C38.4563,-73.1511 42.1807,-63.8975 45.5893,-55.4284"/>
<polygon fill="#2e3436" stroke="#2e3436" points="48.4809,-48.244 48.8115,-56.4618 47.5446,-51.9095 46.1444,-55.3883 45.6806,-55.2016 45.2167,-55.015 46.6169,-51.5361 42.5496,-53.9415 48.4809,-48.244 48.4809,-48.244"/>
<text text-anchor="middle" x="35.4526" y="-63.9912" font-family="FreeSans" font-size="8.00" fill="#2e3436">X</text>
</g>
<!-- N14&#45;&gt;N9 -->
<g id="edge24" class="edge"><title>N14&#45;&gt;N9</title>
<path fill="none" stroke="#2e3436" stroke-width="2" d="M82.9428,-26.117C86.8588,-25.5634 90.9341,-24.9872 94.9744,-24.416"/>
<polygon fill="#2e3436" stroke="#2e3436" points="102.65,-23.3307 95.6966,-27.7225 99.0072,-24.3508 95.2941,-24.8758 95.2241,-24.3808 95.1541,-23.8857 98.8672,-23.3607 94.7516,-21.039 102.65,-23.3307 102.65,-23.3307"/>
<text text-anchor="middle" x="88.9586" y="-17.0665" font-family="FreeSans" font-size="8.00" fill="#2e3436">X</text>
</g>
</g>
</svg>
