<?xml version="1.0" encoding="UTF-8" standalone="no"?>
<!DOCTYPE svg PUBLIC "-//W3C//DTD SVG 1.1//EN"
 "http://www.w3.org/Graphics/SVG/1.1/DTD/svg11.dtd">
<!-- Generated by graphviz version 2.26.3 (20100126.1600)
 -->
<!-- Title: g Pages: 1 -->
<svg width="305pt" height="255pt"
 viewBox="0.00 0.00 304.64 255.40" xmlns="http://www.w3.org/2000/svg" xmlns:xlink="http://www.w3.org/1999/xlink">
<g id="graph1" class="graph" transform="scale(1 1) rotate(0) translate(4 251.402)">
<title>g</title>
<polygon fill="white" stroke="white" points="-4,5 -4,-251.402 301.642,-251.402 301.642,5 -4,5"/>
<!-- N9 -->
<g id="node1" class="node"><title>N9</title>
<polygon fill="#ffffff" stroke="#ffffff" stroke-width="1.5" points="193.482,-1.5 223.482,-1.5 235.482,-13.5 235.482,-25.5 223.482,-37.5 193.482,-37.5 181.482,-25.5 181.482,-13.5 193.482,-1.5"/>
<path fill="#ffffff" stroke="#ffffff" stroke-width="1.5" d="M223.482,-1.5C229.482,-1.5 235.482,-7.5 235.482,-13.5"/>
<path fill="#ffffff" stroke="#ffffff" stroke-width="1.5" d="M235.482,-25.5C235.482,-31.5 229.482,-37.5 223.482,-37.5"/>
<path fill="#ffffff" stroke="#ffffff" stroke-width="1.5" d="M193.482,-37.5C187.482,-37.5 181.482,-31.5 181.482,-25.5"/>
<path fill="#ffffff" stroke="#ffffff" stroke-width="1.5" d="M181.482,-13.5C181.482,-7.5 187.482,-1.5 193.482,-1.5"/>
<polyline fill="none" stroke="#2e3436" stroke-width="1.5" points="193.482,-1.5 223.482,-1.5 "/>
<path fill="none" stroke="#2e3436" stroke-width="1.5" d="M223.482,-1.5C229.482,-1.5 235.482,-7.5 235.482,-13.5"/>
<polyline fill="none" stroke="#2e3436" stroke-width="1.5" points="235.482,-13.5 235.482,-25.5 "/>
<path fill="none" stroke="#2e3436" stroke-width="1.5" d="M235.482,-25.5C235.482,-31.5 229.482,-37.5 223.482,-37.5"/>
<polyline fill="none" stroke="#2e3436" stroke-width="1.5" points="223.482,-37.5 193.482,-37.5 "/>
<path fill="none" stroke="#2e3436" stroke-width="1.5" d="M193.482,-37.5C187.482,-37.5 181.482,-31.5 181.482,-25.5"/>
<polyline fill="none" stroke="#2e3436" stroke-width="1.5" points="181.482,-25.5 181.482,-13.5 "/>
<path fill="none" stroke="#2e3436" stroke-width="1.5" d="M181.482,-13.5C181.482,-7.5 187.482,-1.5 193.482,-1.5"/>
<text text-anchor="middle" x="208.482" y="-26.3" font-family="FreeSans" font-size="8.00" fill="#1c2021">Node[9]</text>
<polyline fill="none" stroke="#2e3436" stroke-width="1.5" points="181.482,-19.5 235.482,-19.5 "/>
<text text-anchor="start" x="189.482" y="-8.3" font-family="FreeSans" font-size="8.00" fill="#1c2021">count = 1</text>
</g>
<!-- N14 -->
<g id="node3" class="node"><title>N14</title>
<polygon fill="#ffffff" stroke="#ffffff" stroke-width="1.5" points="253.642,-105.701 283.642,-105.701 295.642,-117.701 295.642,-129.701 283.642,-141.701 253.642,-141.701 241.642,-129.701 241.642,-117.701 253.642,-105.701"/>
<path fill="#ffffff" stroke="#ffffff" stroke-width="1.5" d="M283.642,-105.701C289.642,-105.701 295.642,-111.701 295.642,-117.701"/>
<path fill="#ffffff" stroke="#ffffff" stroke-width="1.5" d="M295.642,-129.701C295.642,-135.701 289.642,-141.701 283.642,-141.701"/>
<path fill="#ffffff" stroke="#ffffff" stroke-width="1.5" d="M253.642,-141.701C247.642,-141.701 241.642,-135.701 241.642,-129.701"/>
<path fill="#ffffff" stroke="#ffffff" stroke-width="1.5" d="M241.642,-117.701C241.642,-111.701 247.642,-105.701 253.642,-105.701"/>
<polyline fill="none" stroke="#2e3436" stroke-width="1.5" points="253.642,-105.701 283.642,-105.701 "/>
<path fill="none" stroke="#2e3436" stroke-width="1.5" d="M283.642,-105.701C289.642,-105.701 295.642,-111.701 295.642,-117.701"/>
<polyline fill="none" stroke="#2e3436" stroke-width="1.5" points="295.642,-117.701 295.642,-129.701 "/>
<path fill="none" stroke="#2e3436" stroke-width="1.5" d="M295.642,-129.701C295.642,-135.701 289.642,-141.701 283.642,-141.701"/>
<polyline fill="none" stroke="#2e3436" stroke-width="1.5" points="283.642,-141.701 253.642,-141.701 "/>
<path fill="none" stroke="#2e3436" stroke-width="1.5" d="M253.642,-141.701C247.642,-141.701 241.642,-135.701 241.642,-129.701"/>
<polyline fill="none" stroke="#2e3436" stroke-width="1.5" points="241.642,-129.701 241.642,-117.701 "/>
<path fill="none" stroke="#2e3436" stroke-width="1.5" d="M241.642,-117.701C241.642,-111.701 247.642,-105.701 253.642,-105.701"/>
<text text-anchor="middle" x="268.642" y="-130.501" font-family="FreeSans" font-size="8.00" fill="#1c2021">Node[14]</text>
<polyline fill="none" stroke="#2e3436" stroke-width="1.5" points="241.642,-123.701 295.642,-123.701 "/>
<text text-anchor="start" x="249.642" y="-112.501" font-family="FreeSans" font-size="8.00" fill="#1c2021">count = 6</text>
</g>
<!-- N9&#45;&gt;N14 -->
<g id="edge2" class="edge"><title>N9&#45;&gt;N14</title>
<path fill="none" stroke="#2e3436" stroke-width="2" d="M218.961,-37.6505C228.735,-54.5802 243.4,-79.9809 254.266,-98.801"/>
<polygon fill="#2e3436" stroke="#2e3436" points="258.081,-105.409 251.408,-100.601 255.773,-102.411 253.898,-99.1639 254.331,-98.9139 254.764,-98.6639 256.639,-101.911 257.254,-97.2264 258.081,-105.409 258.081,-105.409"/>
<text text-anchor="middle" x="241.614" y="-63.0257" font-family="FreeSans" font-size="8.00" fill="#2e3436">X</text>
</g>
<!-- N13 -->
<g id="node5" class="node"><title>N13</title>
<polygon fill="#ffffff" stroke="#ffffff" stroke-width="1.5" points="13,-105.701 43,-105.701 55,-117.701 55,-129.701 43,-141.701 13,-141.701 1,-129.701 1,-117.701 13,-105.701"/>
<path fill="#ffffff" stroke="#ffffff" stroke-width="1.5" d="M43,-105.701C49,-105.701 55,-111.701 55,-117.701"/>
<path fill="#ffffff" stroke="#ffffff" stroke-width="1.5" d="M55,-129.701C55,-135.701 49,-141.701 43,-141.701"/>
<path fill="#ffffff" stroke="#ffffff" stroke-width="1.5" d="M13,-141.701C7,-141.701 1,-135.701 1,-129.701"/>
<path fill="#ffffff" stroke="#ffffff" stroke-width="1.5" d="M1,-117.701C1,-111.701 7,-105.701 13,-105.701"/>
<polyline fill="none" stroke="#2e3436" stroke-width="1.5" points="13,-105.701 43,-105.701 "/>
<path fill="none" stroke="#2e3436" stroke-width="1.5" d="M43,-105.701C49,-105.701 55,-111.701 55,-117.701"/>
<polyline fill="none" stroke="#2e3436" stroke-width="1.5" points="55,-117.701 55,-129.701 "/>
<path fill="none" stroke="#2e3436" stroke-width="1.5" d="M55,-129.701C55,-135.701 49,-141.701 43,-141.701"/>
<polyline fill="none" stroke="#2e3436" stroke-width="1.5" points="43,-141.701 13,-141.701 "/>
<path fill="none" stroke="#2e3436" stroke-width="1.5" d="M13,-141.701C7,-141.701 1,-135.701 1,-129.701"/>
<polyline fill="none" stroke="#2e3436" stroke-width="1.5" points="1,-129.701 1,-117.701 "/>
<path fill="none" stroke="#2e3436" stroke-width="1.5" d="M1,-117.701C1,-111.701 7,-105.701 13,-105.701"/>
<text text-anchor="middle" x="28" y="-130.501" font-family="FreeSans" font-size="8.00" fill="#1c2021">Node[13]</text>
<polyline fill="none" stroke="#2e3436" stroke-width="1.5" points="1,-123.701 55,-123.701 "/>
<text text-anchor="start" x="9" y="-112.501" font-family="FreeSans" font-size="8.00" fill="#1c2021">count = 5</text>
</g>
<!-- N9&#45;&gt;N13 -->
<g id="edge4" class="edge"><title>N9&#45;&gt;N13</title>
<path fill="none" stroke="#2e3436" stroke-width="2" d="M181.462,-35.1C149.564,-53.5163 96.4871,-84.1601 61.8702,-104.146"/>
<polygon fill="#2e3436" stroke="#2e3436" points="55.2046,-107.995 60.0123,-101.322 58.2022,-105.687 61.4498,-103.811 61.6999,-104.245 61.9499,-104.678 58.7023,-106.553 63.3874,-107.167 55.2046,-107.995 55.2046,-107.995"/>
<text text-anchor="middle" x="124.666" y="-73.4231" font-family="FreeSans" font-size="8.00" fill="#2e3436">X</text>
</g>
<!-- N12 -->
<g id="node7" class="node"><title>N12</title>
<polygon fill="#ffffff" stroke="#ffffff" stroke-width="1.5" points="73.1606,-209.902 103.161,-209.902 115.161,-221.902 115.161,-233.902 103.161,-245.902 73.1606,-245.902 61.1606,-233.902 61.1606,-221.902 73.1606,-209.902"/>
<path fill="#ffffff" stroke="#ffffff" stroke-width="1.5" d="M103.161,-209.902C109.161,-209.902 115.161,-215.902 115.161,-221.902"/>
<path fill="#ffffff" stroke="#ffffff" stroke-width="1.5" d="M115.161,-233.902C115.161,-239.902 109.161,-245.902 103.161,-245.902"/>
<path fill="#ffffff" stroke="#ffffff" stroke-width="1.5" d="M73.1606,-245.902C67.1606,-245.902 61.1606,-239.902 61.1606,-233.902"/>
<path fill="#ffffff" stroke="#ffffff" stroke-width="1.5" d="M61.1606,-221.902C61.1606,-215.902 67.1606,-209.902 73.1606,-209.902"/>
<polyline fill="none" stroke="#2e3436" stroke-width="1.5" points="73.1606,-209.902 103.161,-209.902 "/>
<path fill="none" stroke="#2e3436" stroke-width="1.5" d="M103.161,-209.902C109.161,-209.902 115.161,-215.902 115.161,-221.902"/>
<polyline fill="none" stroke="#2e3436" stroke-width="1.5" points="115.161,-221.902 115.161,-233.902 "/>
<path fill="none" stroke="#2e3436" stroke-width="1.5" d="M115.161,-233.902C115.161,-239.902 109.161,-245.902 103.161,-245.902"/>
<polyline fill="none" stroke="#2e3436" stroke-width="1.5" points="103.161,-245.902 73.1606,-245.902 "/>
<path fill="none" stroke="#2e3436" stroke-width="1.5" d="M73.1606,-245.902C67.1606,-245.902 61.1606,-239.902 61.1606,-233.902"/>
<polyline fill="none" stroke="#2e3436" stroke-width="1.5" points="61.1606,-233.902 61.1606,-221.902 "/>
<path fill="none" stroke="#2e3436" stroke-width="1.5" d="M61.1606,-221.902C61.1606,-215.902 67.1606,-209.902 73.1606,-209.902"/>
<text text-anchor="middle" x="88.1606" y="-234.702" font-family="FreeSans" font-size="8.00" fill="#1c2021">Node[12]</text>
<polyline fill="none" stroke="#2e3436" stroke-width="1.5" points="61.1606,-227.902 115.161,-227.902 "/>
<text text-anchor="start" x="69.1606" y="-216.702" font-family="FreeSans" font-size="8.00" fill="#1c2021">count = 4</text>
</g>
<!-- N9&#45;&gt;N12 -->
<g id="edge6" class="edge"><title>N9&#45;&gt;N12</title>
<path fill="none" stroke="#2e3436" stroke-width="2" d="M198.014,-37.6298C176.459,-74.965 127.084,-160.485 102.547,-202.984"/>
<polygon fill="#2e3436" stroke="#2e3436" points="98.6893,-209.666 99.5165,-201.483 100.131,-206.168 102.006,-202.921 102.439,-203.171 102.872,-203.421 100.997,-206.668 105.362,-204.858 98.6893,-209.666 98.6893,-209.666"/>
<text text-anchor="middle" x="155.281" y="-121.107" font-family="FreeSans" font-size="8.00" fill="#2e3436">X</text>
</g>
<!-- N11 -->
<g id="node9" class="node"><title>N11</title>
<polygon fill="#ffffff" stroke="#ffffff" stroke-width="1.5" points="193.482,-209.902 223.482,-209.902 235.482,-221.902 235.482,-233.902 223.482,-245.902 193.482,-245.902 181.482,-233.902 181.482,-221.902 193.482,-209.902"/>
<path fill="#ffffff" stroke="#ffffff" stroke-width="1.5" d="M223.482,-209.902C229.482,-209.902 235.482,-215.902 235.482,-221.902"/>
<path fill="#ffffff" stroke="#ffffff" stroke-width="1.5" d="M235.482,-233.902C235.482,-239.902 229.482,-245.902 223.482,-245.902"/>
<path fill="#ffffff" stroke="#ffffff" stroke-width="1.5" d="M193.482,-245.902C187.482,-245.902 181.482,-239.902 181.482,-233.902"/>
<path fill="#ffffff" stroke="#ffffff" stroke-width="1.5" d="M181.482,-221.902C181.482,-215.902 187.482,-209.902 193.482,-209.902"/>
<polyline fill="none" stroke="#2e3436" stroke-width="1.5" points="193.482,-209.902 223.482,-209.902 "/>
<path fill="none" stroke="#2e3436" stroke-width="1.5" d="M223.482,-209.902C229.482,-209.902 235.482,-215.902 235.482,-221.902"/>
<polyline fill="none" stroke="#2e3436" stroke-width="1.5" points="235.482,-221.902 235.482,-233.902 "/>
<path fill="none" stroke="#2e3436" stroke-width="1.5" d="M235.482,-233.902C235.482,-239.902 229.482,-245.902 223.482,-245.902"/>
<polyline fill="none" stroke="#2e3436" stroke-width="1.5" points="223.482,-245.902 193.482,-245.902 "/>
<path fill="none" stroke="#2e3436" stroke-width="1.5" d="M193.482,-245.902C187.482,-245.902 181.482,-239.902 181.482,-233.902"/>
<polyline fill="none" stroke="#2e3436" stroke-width="1.5" points="181.482,-233.902 181.482,-221.902 "/>
<path fill="none" stroke="#2e3436" stroke-width="1.5" d="M181.482,-221.902C181.482,-215.902 187.482,-209.902 193.482,-209.902"/>
<text text-anchor="middle" x="208.482" y="-234.702" font-family="FreeSans" font-size="8.00" fill="#1c2021">Node[11]</text>
<polyline fill="none" stroke="#2e3436" stroke-width="1.5" points="181.482,-227.902 235.482,-227.902 "/>
<text text-anchor="start" x="189.482" y="-216.702" font-family="FreeSans" font-size="8.00" fill="#1c2021">count = 3</text>
</g>
<!-- N9&#45;&gt;N11 -->
<g id="edge8" class="edge"><title>N9&#45;&gt;N11</title>
<path fill="none" stroke="#2e3436" stroke-width="2" d="M208.482,-37.6298C208.482,-74.6571 208.482,-159.077 208.482,-201.924"/>
<polygon fill="#2e3436" stroke="#2e3436" points="208.482,-209.666 205.107,-202.166 207.982,-205.916 207.982,-202.166 208.482,-202.166 208.982,-202.166 208.982,-205.916 211.857,-202.166 208.482,-209.666 208.482,-209.666"/>
<text text-anchor="middle" x="204.482" y="-117.577" font-family="FreeSans" font-size="8.00" fill="#2e3436">X</text>
</g>
<!-- N10 -->
<g id="node11" class="node"><title>N10</title>
<polygon fill="#ffffff" stroke="#ffffff" stroke-width="1.5" points="73.1606,-1.5 103.161,-1.5 115.161,-13.5 115.161,-25.5 103.161,-37.5 73.1606,-37.5 61.1606,-25.5 61.1606,-13.5 73.1606,-1.5"/>
<path fill="#ffffff" stroke="#ffffff" stroke-width="1.5" d="M103.161,-1.5C109.161,-1.5 115.161,-7.5 115.161,-13.5"/>
<path fill="#ffffff" stroke="#ffffff" stroke-width="1.5" d="M115.161,-25.5C115.161,-31.5 109.161,-37.5 103.161,-37.5"/>
<path fill="#ffffff" stroke="#ffffff" stroke-width="1.5" d="M73.1606,-37.5C67.1606,-37.5 61.1606,-31.5 61.1606,-25.5"/>
<path fill="#ffffff" stroke="#ffffff" stroke-width="1.5" d="M61.1606,-13.5C61.1606,-7.5 67.1606,-1.5 73.1606,-1.5"/>
<polyline fill="none" stroke="#2e3436" stroke-width="1.5" points="73.1606,-1.5 103.161,-1.5 "/>
<path fill="none" stroke="#2e3436" stroke-width="1.5" d="M103.161,-1.5C109.161,-1.5 115.161,-7.5 115.161,-13.5"/>
<polyline fill="none" stroke="#2e3436" stroke-width="1.5" points="115.161,-13.5 115.161,-25.5 "/>
<path fill="none" stroke="#2e3436" stroke-width="1.5" d="M115.161,-25.5C115.161,-31.5 109.161,-37.5 103.161,-37.5"/>
<polyline fill="none" stroke="#2e3436" stroke-width="1.5" points="103.161,-37.5 73.1606,-37.5 "/>
<path fill="none" stroke="#2e3436" stroke-width="1.5" d="M73.1606,-37.5C67.1606,-37.5 61.1606,-31.5 61.1606,-25.5"/>
<polyline fill="none" stroke="#2e3436" stroke-width="1.5" points="61.1606,-25.5 61.1606,-13.5 "/>
<path fill="none" stroke="#2e3436" stroke-width="1.5" d="M61.1606,-13.5C61.1606,-7.5 67.1606,-1.5 73.1606,-1.5"/>
<text text-anchor="middle" x="88.1606" y="-26.3" font-family="FreeSans" font-size="8.00" fill="#1c2021">Node[10]</text>
<polyline fill="none" stroke="#2e3436" stroke-width="1.5" points="61.1606,-19.5 115.161,-19.5 "/>
<text text-anchor="start" x="69.1606" y="-8.3" font-family="FreeSans" font-size="8.00" fill="#1c2021">count = 2</text>
</g>
<!-- N9&#45;&gt;N10 -->
<g id="edge10" class="edge"><title>N9&#45;&gt;N10</title>
<path fill="none" stroke="#2e3436" stroke-width="2" d="M181.479,-19.5C164.262,-19.5 141.774,-19.5 123.189,-19.5"/>
<polygon fill="#2e3436" stroke="#2e3436" points="115.489,-19.5 122.989,-16.1249 119.239,-19 122.989,-18.9999 122.989,-19.4999 122.989,-19.9999 119.239,-20 122.989,-22.8749 115.489,-19.5 115.489,-19.5"/>
<text text-anchor="middle" x="152.334" y="-11.3" font-family="FreeSans" font-size="8.00" fill="#2e3436">X</text>
</g>
<!-- N13&#45;&gt;N14 -->
<g id="edge30" class="edge"><title>N13&#45;&gt;N14</title>
<path fill="none" stroke="#2e3436" stroke-width="2" d="M55.137,-123.701C99.0334,-123.701 185.566,-123.701 233.901,-123.701"/>
<polygon fill="#2e3436" stroke="#2e3436" points="241.604,-123.701 234.105,-127.076 237.855,-124.201 234.105,-124.201 234.104,-123.701 234.104,-123.201 237.854,-123.201 234.104,-120.326 241.604,-123.701 241.604,-123.701"/>
<text text-anchor="middle" x="144.519" y="-127.501" font-family="FreeSans" font-size="8.00" fill="#2e3436">X</text>
</g>
<!-- N12&#45;&gt;N14 -->
<g id="edge26" class="edge"><title>N12&#45;&gt;N14</title>
<path fill="none" stroke="#2e3436" stroke-width="2" d="M115.181,-212.302C147.078,-193.886 200.155,-163.242 234.772,-143.256"/>
<polygon fill="#2e3436" stroke="#2e3436" points="241.438,-139.408 236.63,-146.081 238.44,-141.716 235.192,-143.591 234.942,-143.158 234.692,-142.725 237.94,-140.85 233.255,-140.235 241.438,-139.408 241.438,-139.408"/>
<text text-anchor="middle" x="177.976" y="-181.579" font-family="FreeSans" font-size="8.00" fill="#2e3436">X</text>
</g>
<!-- N12&#45;&gt;N13 -->
<g id="edge28" class="edge"><title>N12&#45;&gt;N13</title>
<path fill="none" stroke="#2e3436" stroke-width="2" d="M77.6814,-209.752C67.907,-192.822 53.2419,-167.421 42.3761,-148.601"/>
<polygon fill="#2e3436" stroke="#2e3436" points="38.5609,-141.993 45.2338,-146.801 40.869,-144.991 42.744,-148.238 42.311,-148.488 41.878,-148.738 40.003,-145.491 39.3881,-150.176 38.5609,-141.993 38.5609,-141.993"/>
<text text-anchor="middle" x="65.0288" y="-173.977" font-family="FreeSans" font-size="8.00" fill="#2e3436">X</text>
</g>
<!-- N11&#45;&gt;N14 -->
<g id="edge20" class="edge"><title>N11&#45;&gt;N14</title>
<path fill="none" stroke="#2e3436" stroke-width="2" d="M218.961,-209.752C228.735,-192.822 243.4,-167.421 254.266,-148.601"/>
<polygon fill="#2e3436" stroke="#2e3436" points="258.081,-141.993 257.254,-150.176 256.639,-145.491 254.764,-148.738 254.331,-148.488 253.898,-148.238 255.773,-144.991 251.408,-146.801 258.081,-141.993 258.081,-141.993"/>
<text text-anchor="middle" x="231.614" y="-173.977" font-family="FreeSans" font-size="8.00" fill="#2e3436">X</text>
</g>
<!-- N11&#45;&gt;N13 -->
<g id="edge22" class="edge"><title>N11&#45;&gt;N13</title>
<path fill="none" stroke="#2e3436" stroke-width="2" d="M181.462,-212.302C149.564,-193.886 96.4871,-163.242 61.8702,-143.256"/>
<polygon fill="#2e3436" stroke="#2e3436" points="55.2046,-139.408 63.3874,-140.235 58.7023,-140.85 61.9499,-142.725 61.6999,-143.158 61.4498,-143.591 58.2022,-141.716 60.0123,-146.081 55.2046,-139.408 55.2046,-139.408"/>
<text text-anchor="middle" x="118.666" y="-181.579" font-family="FreeSans" font-size="8.00" fill="#2e3436">X</text>
</g>
<!-- N11&#45;&gt;N12 -->
<g id="edge24" class="edge"><title>N11&#45;&gt;N12</title>
<path fill="none" stroke="#2e3436" stroke-width="2" d="M181.479,-227.902C164.262,-227.902 141.774,-227.902 123.189,-227.902"/>
<polygon fill="#2e3436" stroke="#2e3436" points="115.489,-227.902 122.989,-224.527 119.239,-227.402 122.989,-227.402 122.989,-227.902 122.989,-228.402 119.239,-228.402 122.989,-231.277 115.489,-227.902 115.489,-227.902"/>
<text text-anchor="middle" x="152.334" y="-219.702" font-family="FreeSans" font-size="8.00" fill="#2e3436">X</text>
</g>
<!-- N10&#45;&gt;N14 -->
<g id="edge12" class="edge"><title>N10&#45;&gt;N14</title>
<path fill="none" stroke="#2e3436" stroke-width="2" d="M115.181,-35.1C147.078,-53.5163 200.155,-84.1601 234.772,-104.146"/>
<polygon fill="#2e3436" stroke="#2e3436" points="241.438,-107.995 233.255,-107.167 237.94,-106.553 234.692,-104.678 234.942,-104.245 235.192,-103.811 238.44,-105.687 236.63,-101.322 241.438,-107.995 241.438,-107.995"/>
<text text-anchor="middle" x="171.976" y="-73.4231" font-family="FreeSans" font-size="8.00" fill="#2e3436">X</text>
</g>
<!-- N10&#45;&gt;N13 -->
<g id="edge14" class="edge"><title>N10&#45;&gt;N13</title>
<path fill="none" stroke="#2e3436" stroke-width="2" d="M77.6814,-37.6505C67.907,-54.5802 53.2419,-79.9809 42.3761,-98.801"/>
<polygon fill="#2e3436" stroke="#2e3436" points="38.5609,-105.409 39.3881,-97.2264 40.003,-101.911 41.878,-98.6639 42.311,-98.9139 42.744,-99.1639 40.869,-102.411 45.2338,-100.601 38.5609,-105.409 38.5609,-105.409"/>
<text text-anchor="middle" x="65.0288" y="-69.0257" font-family="FreeSans" font-size="8.00" fill="#2e3436">X</text>
</g>
<!-- N10&#45;&gt;N12 -->
<g id="edge16" class="edge"><title>N10&#45;&gt;N12</title>
<path fill="none" stroke="#2e3436" stroke-width="2" d="M88.1606,-37.6298C88.1606,-74.6571 88.1606,-159.077 88.1606,-201.924"/>
<polygon fill="#2e3436" stroke="#2e3436" points="88.1606,-209.666 84.7857,-202.166 87.6606,-205.916 87.6607,-202.166 88.1607,-202.166 88.6607,-202.166 88.6606,-205.916 91.5357,-202.166 88.1606,-209.666 88.1606,-209.666"/>
<text text-anchor="middle" x="84.1606" y="-117.577" font-family="FreeSans" font-size="8.00" fill="#2e3436">X</text>
</g>
<!-- N10&#45;&gt;N11 -->
<g id="edge18" class="edge"><title>N10&#45;&gt;N11</title>
<path fill="none" stroke="#2e3436" stroke-width="2" d="M98.6278,-37.6298C120.183,-74.965 169.558,-160.485 194.095,-202.984"/>
<polygon fill="#2e3436" stroke="#2e3436" points="197.953,-209.666 191.28,-204.858 195.645,-206.668 193.77,-203.421 194.203,-203.171 194.636,-202.921 196.511,-206.168 197.126,-201.483 197.953,-209.666 197.953,-209.666"/>
<text text-anchor="middle" x="141.361" y="-121.107" font-family="FreeSans" font-size="8.00" fill="#2e3436">X</text>
</g>
</g>
</svg>
