<?xml version="1.0" encoding="UTF-8" standalone="no"?>
<!DOCTYPE svg PUBLIC "-//W3C//DTD SVG 1.1//EN"
 "http://www.w3.org/Graphics/SVG/1.1/DTD/svg11.dtd">
<!-- Generated by graphviz version 2.26.3 (20100126.1600)
 -->
<!-- Title: g Pages: 1 -->
<svg width="78pt" height="132pt"
 viewBox="0.00 0.00 77.61 132.00" xmlns="http://www.w3.org/2000/svg" xmlns:xlink="http://www.w3.org/1999/xlink">
<g id="graph1" class="graph" transform="scale(1 1) rotate(0) translate(4 128)">
<title>g</title>
<polygon fill="white" stroke="white" points="-4,5 -4,-128 74.6092,-128 74.6092,5 -4,5"/>
<!-- N0 -->
<g id="node1" class="node"><title>N0</title>
<polygon fill="#ffffff" stroke="#ffffff" stroke-width="1.5" points="14.1092,-85 57.1092,-85 69.1092,-97 69.1092,-111 57.1092,-123 14.1092,-123 2.10925,-111 2.10925,-97 14.1092,-85"/>
<path fill="#ffffff" stroke="#ffffff" stroke-width="1.5" d="M57.1092,-85C63.1092,-85 69.1092,-91 69.1092,-97"/>
<path fill="#ffffff" stroke="#ffffff" stroke-width="1.5" d="M69.1092,-111C69.1092,-117 63.1092,-123 57.1092,-123"/>
<path fill="#ffffff" stroke="#ffffff" stroke-width="1.5" d="M14.1092,-123C8.10925,-123 2.10925,-117 2.10925,-111"/>
<path fill="#ffffff" stroke="#ffffff" stroke-width="1.5" d="M2.10925,-97C2.10925,-91 8.10925,-85 14.1092,-85"/>
<polyline fill="none" stroke="#2e3436" stroke-width="1.5" points="14.1092,-85 57.1092,-85 "/>
<path fill="none" stroke="#2e3436" stroke-width="1.5" d="M57.1092,-85C63.1092,-85 69.1092,-91 69.1092,-97"/>
<polyline fill="none" stroke="#2e3436" stroke-width="1.5" points="69.1092,-97 69.1092,-111 "/>
<path fill="none" stroke="#2e3436" stroke-width="1.5" d="M69.1092,-111C69.1092,-117 63.1092,-123 57.1092,-123"/>
<polyline fill="none" stroke="#2e3436" stroke-width="1.5" points="57.1092,-123 14.1092,-123 "/>
<path fill="none" stroke="#2e3436" stroke-width="1.5" d="M14.1092,-123C8.10925,-123 2.10925,-117 2.10925,-111"/>
<polyline fill="none" stroke="#2e3436" stroke-width="1.5" points="2.10925,-111 2.10925,-97 "/>
<path fill="none" stroke="#2e3436" stroke-width="1.5" d="M2.10925,-97C2.10925,-91 8.10925,-85 14.1092,-85"/>
<text text-anchor="start" x="10.1092" y="-111.8" font-family="FreeSans" font-size="8.00" fill="#1c2021">name = &#39;A&#39;</text>
<text text-anchor="start" x="10.1092" y="-101.8" font-family="FreeSans" font-size="8.00" fill="#1c2021">happy = &#39;Yes!&#39;</text>
<text text-anchor="start" x="10.1092" y="-91.8" font-family="FreeSans" font-size="8.00" fill="#1c2021">age = 55</text>
</g>
<!-- N1 -->
<g id="node3" class="node"><title>N1</title>
<polygon fill="#ffffff" stroke="#ffffff" stroke-width="1.5" points="20.6092,-1 50.6092,-1 62.6092,-13 62.6092,-25 50.6092,-37 20.6092,-37 8.60925,-25 8.60925,-13 20.6092,-1"/>
<path fill="#ffffff" stroke="#ffffff" stroke-width="1.5" d="M50.6092,-1C56.6092,-1 62.6092,-7 62.6092,-13"/>
<path fill="#ffffff" stroke="#ffffff" stroke-width="1.5" d="M62.6092,-25C62.6092,-31 56.6092,-37 50.6092,-37"/>
<path fill="#ffffff" stroke="#ffffff" stroke-width="1.5" d="M20.6092,-37C14.6092,-37 8.60925,-31 8.60925,-25"/>
<path fill="#ffffff" stroke="#ffffff" stroke-width="1.5" d="M8.60925,-13C8.60925,-7 14.6092,-1 20.6092,-1"/>
<polyline fill="none" stroke="#2e3436" stroke-width="1.5" points="20.6092,-1 50.6092,-1 "/>
<path fill="none" stroke="#2e3436" stroke-width="1.5" d="M50.6092,-1C56.6092,-1 62.6092,-7 62.6092,-13"/>
<polyline fill="none" stroke="#2e3436" stroke-width="1.5" points="62.6092,-13 62.6092,-25 "/>
<path fill="none" stroke="#2e3436" stroke-width="1.5" d="M62.6092,-25C62.6092,-31 56.6092,-37 50.6092,-37"/>
<polyline fill="none" stroke="#2e3436" stroke-width="1.5" points="50.6092,-37 20.6092,-37 "/>
<path fill="none" stroke="#2e3436" stroke-width="1.5" d="M20.6092,-37C14.6092,-37 8.60925,-31 8.60925,-25"/>
<polyline fill="none" stroke="#2e3436" stroke-width="1.5" points="8.60925,-25 8.60925,-13 "/>
<path fill="none" stroke="#2e3436" stroke-width="1.5" d="M8.60925,-13C8.60925,-7 14.6092,-1 20.6092,-1"/>
<text text-anchor="start" x="16.6092" y="-16.8" font-family="FreeSans" font-size="8.00" fill="#1c2021">name = &#39;B&#39;</text>
</g>
<!-- N0&#45;&gt;N1 -->
<g id="edge2" class="edge"><title>N0&#45;&gt;N1</title>
<path fill="none" stroke="#2e3436" stroke-width="2" d="M13.783,-84.9961C8.83614,-79.4255 4.2632,-72.9463 1.60925,-66 -1.41786,-58.077 1.22648,-50.2803 6.1383,-43.3843"/>
<polygon fill="#2e3436" stroke="#2e3436" points="11.189,-37.3267 8.97827,-45.2484 9.17155,-40.5271 6.7701,-43.4073 6.38607,-43.0871 6.00204,-42.7669 8.40349,-39.8867 3.79387,-40.9258 11.189,-37.3267 11.189,-37.3267"/>
<text text-anchor="middle" x="17.1092" y="-58.8" font-family="FreeSans" font-size="8.00" fill="#2e3436">KNOWS</text>
</g>
<!-- N0&#45;&gt;N1 -->
<g id="edge4" class="edge"><title>N0&#45;&gt;N1</title>
<path fill="none" stroke="#4e9a06" stroke-width="2" d="M35.6092,-84.7122C35.6092,-72.8678 35.6092,-57.5538 35.6092,-44.6894"/>
<polygon fill="#4e9a06" stroke="#4e9a06" points="35.6092,-37.0491 38.9843,-44.549 36.1093,-40.7991 36.1093,-44.5491 35.6093,-44.5491 35.1093,-44.5491 35.1093,-40.7991 32.2343,-44.5491 35.6092,-37.0491 35.6092,-37.0491"/>
<text text-anchor="middle" x="52.6092" y="-58.8" font-family="FreeSans" font-size="8.00" fill="#4e9a06">BLOCKS</text>
</g>
</g>
</svg>
