<?xml version="1.0" encoding="UTF-8" standalone="no"?>
<!DOCTYPE svg PUBLIC "-//W3C//DTD SVG 1.1//EN"
 "http://www.w3.org/Graphics/SVG/1.1/DTD/svg11.dtd">
<!-- Generated by graphviz version 2.26.3 (20100126.1600)
 -->
<!-- Title: g Pages: 1 -->
<svg width="179pt" height="224pt"
 viewBox="0.00 0.00 179.00 224.00" xmlns="http://www.w3.org/2000/svg" xmlns:xlink="http://www.w3.org/1999/xlink">
<g id="graph1" class="graph" transform="scale(1 1) rotate(0) translate(4 220)">
<title>g</title>
<polygon fill="white" stroke="white" points="-4,5 -4,-220 176,-220 176,5 -4,5"/>
<!-- N1 -->
<g id="node1" class="node"><title>N1</title>
<polygon fill="#ffffff" stroke="#ffffff" stroke-width="1.5" points="11.5,-1 62.5,-1 74.5,-13 74.5,-35 62.5,-47 11.5,-47 -0.5,-35 -0.5,-13 11.5,-1"/>
<path fill="#ffffff" stroke="#ffffff" stroke-width="1.5" d="M62.5,-1C68.5,-1 74.5,-7 74.5,-13"/>
<path fill="#ffffff" stroke="#ffffff" stroke-width="1.5" d="M74.5,-35C74.5,-41 68.5,-47 62.5,-47"/>
<path fill="#ffffff" stroke="#ffffff" stroke-width="1.5" d="M11.5,-47C5.5,-47 -0.5,-41 -0.5,-35"/>
<path fill="#ffffff" stroke="#ffffff" stroke-width="1.5" d="M-0.5,-13C-0.5,-7 5.5,-1 11.5,-1"/>
<polyline fill="none" stroke="#2e3436" stroke-width="1.5" points="11.5,-1 62.5,-1 "/>
<path fill="none" stroke="#2e3436" stroke-width="1.5" d="M62.5,-1C68.5,-1 74.5,-7 74.5,-13"/>
<polyline fill="none" stroke="#2e3436" stroke-width="1.5" points="74.5,-13 74.5,-35 "/>
<path fill="none" stroke="#2e3436" stroke-width="1.5" d="M74.5,-35C74.5,-41 68.5,-47 62.5,-47"/>
<polyline fill="none" stroke="#2e3436" stroke-width="1.5" points="62.5,-47 11.5,-47 "/>
<path fill="none" stroke="#2e3436" stroke-width="1.5" d="M11.5,-47C5.5,-47 -0.5,-41 -0.5,-35"/>
<polyline fill="none" stroke="#2e3436" stroke-width="1.5" points="-0.5,-35 -0.5,-13 "/>
<path fill="none" stroke="#2e3436" stroke-width="1.5" d="M-0.5,-13C-0.5,-7 5.5,-1 11.5,-1"/>
<text text-anchor="middle" x="37" y="-35.8" font-family="FreeSans" font-size="8.00" fill="#1c2021">Node[1]</text>
<polyline fill="none" stroke="#2e3436" stroke-width="1.5" points="-0.5,-29 74.5,-29 "/>
<text text-anchor="start" x="7.5" y="-17.8" font-family="FreeSans" font-size="8.00" fill="#1c2021">title = &#39;Cypher&#39;</text>
<text text-anchor="start" x="7.5" y="-7.8" font-family="FreeSans" font-size="8.00" fill="#1c2021">name = &#39;Cypher&#39;</text>
</g>
<!-- N2 -->
<g id="node2" class="node"><title>N2</title>
<polygon fill="#ffffff" stroke="#ffffff" stroke-width="1.5" points="25.5,-179 80.5,-179 92.5,-191 92.5,-203 80.5,-215 25.5,-215 13.5,-203 13.5,-191 25.5,-179"/>
<path fill="#ffffff" stroke="#ffffff" stroke-width="1.5" d="M80.5,-179C86.5,-179 92.5,-185 92.5,-191"/>
<path fill="#ffffff" stroke="#ffffff" stroke-width="1.5" d="M92.5,-203C92.5,-209 86.5,-215 80.5,-215"/>
<path fill="#ffffff" stroke="#ffffff" stroke-width="1.5" d="M25.5,-215C19.5,-215 13.5,-209 13.5,-203"/>
<path fill="#ffffff" stroke="#ffffff" stroke-width="1.5" d="M13.5,-191C13.5,-185 19.5,-179 25.5,-179"/>
<polyline fill="none" stroke="#2e3436" stroke-width="1.5" points="25.5,-179 80.5,-179 "/>
<path fill="none" stroke="#2e3436" stroke-width="1.5" d="M80.5,-179C86.5,-179 92.5,-185 92.5,-191"/>
<polyline fill="none" stroke="#2e3436" stroke-width="1.5" points="92.5,-191 92.5,-203 "/>
<path fill="none" stroke="#2e3436" stroke-width="1.5" d="M92.5,-203C92.5,-209 86.5,-215 80.5,-215"/>
<polyline fill="none" stroke="#2e3436" stroke-width="1.5" points="80.5,-215 25.5,-215 "/>
<path fill="none" stroke="#2e3436" stroke-width="1.5" d="M25.5,-215C19.5,-215 13.5,-209 13.5,-203"/>
<polyline fill="none" stroke="#2e3436" stroke-width="1.5" points="13.5,-203 13.5,-191 "/>
<path fill="none" stroke="#2e3436" stroke-width="1.5" d="M13.5,-191C13.5,-185 19.5,-179 25.5,-179"/>
<text text-anchor="middle" x="53" y="-203.8" font-family="FreeSans" font-size="8.00" fill="#1c2021">Node[2]</text>
<polyline fill="none" stroke="#2e3436" stroke-width="1.5" points="13.5,-197 92.5,-197 "/>
<text text-anchor="start" x="21.5" y="-185.8" font-family="FreeSans" font-size="8.00" fill="#1c2021">name = &#39;Lucy Liu&#39;</text>
</g>
<!-- N2&#45;&gt;N1 -->
<g id="edge4" class="edge"><title>N2&#45;&gt;N1</title>
<path fill="none" stroke="#4e9a06" stroke-width="2" d="M43.9033,-178.757C38.0727,-166.011 31.046,-148.405 28,-132 23.2278,-106.298 26.2865,-76.683 30.0817,-54.9727"/>
<polygon fill="#4e9a06" stroke="#4e9a06" points="31.5002,-47.3537 33.4454,-55.3447 31.3053,-51.1318 30.619,-54.8185 30.1274,-54.727 29.6358,-54.6355 30.3222,-50.9488 26.8094,-54.1092 31.5002,-47.3537 31.5002,-47.3537"/>
<text text-anchor="middle" x="45.5" y="-110.8" font-family="FreeSans" font-size="8.00" fill="#4e9a06">ACTS_IN</text>
</g>
<!-- N3 -->
<g id="node4" class="node"><title>N3</title>
<polygon fill="#ffffff" stroke="#ffffff" stroke-width="1.5" points="89,-95 159,-95 171,-107 171,-119 159,-131 89,-131 77,-119 77,-107 89,-95"/>
<path fill="#ffffff" stroke="#ffffff" stroke-width="1.5" d="M159,-95C165,-95 171,-101 171,-107"/>
<path fill="#ffffff" stroke="#ffffff" stroke-width="1.5" d="M171,-119C171,-125 165,-131 159,-131"/>
<path fill="#ffffff" stroke="#ffffff" stroke-width="1.5" d="M89,-131C83,-131 77,-125 77,-119"/>
<path fill="#ffffff" stroke="#ffffff" stroke-width="1.5" d="M77,-107C77,-101 83,-95 89,-95"/>
<polyline fill="none" stroke="#2e3436" stroke-width="1.5" points="89,-95 159,-95 "/>
<path fill="none" stroke="#2e3436" stroke-width="1.5" d="M159,-95C165,-95 171,-101 171,-107"/>
<polyline fill="none" stroke="#2e3436" stroke-width="1.5" points="171,-107 171,-119 "/>
<path fill="none" stroke="#2e3436" stroke-width="1.5" d="M171,-119C171,-125 165,-131 159,-131"/>
<polyline fill="none" stroke="#2e3436" stroke-width="1.5" points="159,-131 89,-131 "/>
<path fill="none" stroke="#2e3436" stroke-width="1.5" d="M89,-131C83,-131 77,-125 77,-119"/>
<polyline fill="none" stroke="#2e3436" stroke-width="1.5" points="77,-119 77,-107 "/>
<path fill="none" stroke="#2e3436" stroke-width="1.5" d="M77,-107C77,-101 83,-95 89,-95"/>
<text text-anchor="middle" x="124" y="-119.8" font-family="FreeSans" font-size="8.00" fill="#1c2021">Node[3]</text>
<polyline fill="none" stroke="#2e3436" stroke-width="1.5" points="77,-113 171,-113 "/>
<text text-anchor="start" x="85" y="-101.8" font-family="FreeSans" font-size="8.00" fill="#1c2021">name = &#39;Kevin Bacon&#39;</text>
</g>
<!-- N2&#45;&gt;N3 -->
<g id="edge2" class="edge"><title>N2&#45;&gt;N3</title>
<path fill="none" stroke="#2e3436" stroke-width="2" d="M68.4059,-178.773C78.7333,-166.555 92.4437,-150.334 103.665,-137.059"/>
<polygon fill="#2e3436" stroke="#2e3436" points="108.624,-131.191 106.36,-139.098 106.585,-134.378 104.164,-137.242 103.783,-136.919 103.401,-136.596 105.821,-133.732 101.205,-134.74 108.624,-131.191 108.624,-131.191"/>
<text text-anchor="middle" x="105.5" y="-152.8" font-family="FreeSans" font-size="8.00" fill="#2e3436">KNOWS</text>
</g>
<!-- N3&#45;&gt;N1 -->
<g id="edge6" class="edge"><title>N3&#45;&gt;N1</title>
<path fill="none" stroke="#4e9a06" stroke-width="2" d="M106.394,-94.9895C94.4716,-82.7928 78.4687,-66.422 64.8351,-52.475"/>
<polygon fill="#4e9a06" stroke="#4e9a06" points="59.5461,-47.0644 67.2023,-50.0684 62.525,-49.3965 65.1464,-52.0781 64.7888,-52.4277 64.4313,-52.7772 61.8099,-50.0956 62.3754,-54.7869 59.5461,-47.0644 59.5461,-47.0644"/>
<text text-anchor="middle" x="102.5" y="-68.8" font-family="FreeSans" font-size="8.00" fill="#4e9a06">ACTS_IN</text>
</g>
</g>
</svg>
