<?xml version="1.0" encoding="UTF-8" standalone="no"?>
<!DOCTYPE svg PUBLIC "-//W3C//DTD SVG 1.1//EN"
 "http://www.w3.org/Graphics/SVG/1.1/DTD/svg11.dtd">
<!-- Generated by graphviz version 2.26.3 (20100126.1600)
 -->
<!-- Title: g Pages: 1 -->
<svg width="66pt" height="298pt"
 viewBox="0.00 0.00 66.00 298.00" xmlns="http://www.w3.org/2000/svg" xmlns:xlink="http://www.w3.org/1999/xlink">
<g id="graph1" class="graph" transform="scale(1 1) rotate(0) translate(4 294)">
<title>g</title>
<polygon fill="white" stroke="white" points="-4,5 -4,-294 63,-294 63,5 -4,5"/>
<!-- N0 -->
<g id="node1" class="node"><title>N0</title>
<polygon fill="#ffffff" stroke="#ffffff" stroke-width="1.5" points="11.5,-1 42.5,-1 54.5,-13 54.5,-25 42.5,-37 11.5,-37 -0.5,-25 -0.5,-13 11.5,-1"/>
<path fill="#ffffff" stroke="#ffffff" stroke-width="1.5" d="M42.5,-1C48.5,-1 54.5,-7 54.5,-13"/>
<path fill="#ffffff" stroke="#ffffff" stroke-width="1.5" d="M54.5,-25C54.5,-31 48.5,-37 42.5,-37"/>
<path fill="#ffffff" stroke="#ffffff" stroke-width="1.5" d="M11.5,-37C5.5,-37 -0.5,-31 -0.5,-25"/>
<path fill="#ffffff" stroke="#ffffff" stroke-width="1.5" d="M-0.5,-13C-0.5,-7 5.5,-1 11.5,-1"/>
<polyline fill="none" stroke="#2e3436" stroke-width="1.5" points="11.5,-1 42.5,-1 "/>
<path fill="none" stroke="#2e3436" stroke-width="1.5" d="M42.5,-1C48.5,-1 54.5,-7 54.5,-13"/>
<polyline fill="none" stroke="#2e3436" stroke-width="1.5" points="54.5,-13 54.5,-25 "/>
<path fill="none" stroke="#2e3436" stroke-width="1.5" d="M54.5,-25C54.5,-31 48.5,-37 42.5,-37"/>
<polyline fill="none" stroke="#2e3436" stroke-width="1.5" points="42.5,-37 11.5,-37 "/>
<path fill="none" stroke="#2e3436" stroke-width="1.5" d="M11.5,-37C5.5,-37 -0.5,-31 -0.5,-25"/>
<polyline fill="none" stroke="#2e3436" stroke-width="1.5" points="-0.5,-25 -0.5,-13 "/>
<path fill="none" stroke="#2e3436" stroke-width="1.5" d="M-0.5,-13C-0.5,-7 5.5,-1 11.5,-1"/>
<text text-anchor="start" x="7.5" y="-16.8" font-family="FreeSans" font-size="8.00" fill="#1c2021">name = &#39;D&#39;</text>
</g>
<!-- N1 -->
<g id="node2" class="node"><title>N1</title>
<polygon fill="#ffffff" stroke="#ffffff" stroke-width="1.5" points="12,-253 42,-253 54,-265 54,-277 42,-289 12,-289 0,-277 0,-265 12,-253"/>
<path fill="#ffffff" stroke="#ffffff" stroke-width="1.5" d="M42,-253C48,-253 54,-259 54,-265"/>
<path fill="#ffffff" stroke="#ffffff" stroke-width="1.5" d="M54,-277C54,-283 48,-289 42,-289"/>
<path fill="#ffffff" stroke="#ffffff" stroke-width="1.5" d="M12,-289C6,-289 0,-283 0,-277"/>
<path fill="#ffffff" stroke="#ffffff" stroke-width="1.5" d="M0,-265C0,-259 6,-253 12,-253"/>
<polyline fill="none" stroke="#2e3436" stroke-width="1.5" points="12,-253 42,-253 "/>
<path fill="none" stroke="#2e3436" stroke-width="1.5" d="M42,-253C48,-253 54,-259 54,-265"/>
<polyline fill="none" stroke="#2e3436" stroke-width="1.5" points="54,-265 54,-277 "/>
<path fill="none" stroke="#2e3436" stroke-width="1.5" d="M54,-277C54,-283 48,-289 42,-289"/>
<polyline fill="none" stroke="#2e3436" stroke-width="1.5" points="42,-289 12,-289 "/>
<path fill="none" stroke="#2e3436" stroke-width="1.5" d="M12,-289C6,-289 0,-283 0,-277"/>
<polyline fill="none" stroke="#2e3436" stroke-width="1.5" points="0,-277 0,-265 "/>
<path fill="none" stroke="#2e3436" stroke-width="1.5" d="M0,-265C0,-259 6,-253 12,-253"/>
<text text-anchor="start" x="8" y="-268.8" font-family="FreeSans" font-size="8.00" fill="#1c2021">name = &#39;A&#39;</text>
</g>
<!-- N2 -->
<g id="node4" class="node"><title>N2</title>
<polygon fill="#ffffff" stroke="#ffffff" stroke-width="1.5" points="12,-169 42,-169 54,-181 54,-193 42,-205 12,-205 0,-193 0,-181 12,-169"/>
<path fill="#ffffff" stroke="#ffffff" stroke-width="1.5" d="M42,-169C48,-169 54,-175 54,-181"/>
<path fill="#ffffff" stroke="#ffffff" stroke-width="1.5" d="M54,-193C54,-199 48,-205 42,-205"/>
<path fill="#ffffff" stroke="#ffffff" stroke-width="1.5" d="M12,-205C6,-205 0,-199 0,-193"/>
<path fill="#ffffff" stroke="#ffffff" stroke-width="1.5" d="M0,-181C0,-175 6,-169 12,-169"/>
<polyline fill="none" stroke="#2e3436" stroke-width="1.5" points="12,-169 42,-169 "/>
<path fill="none" stroke="#2e3436" stroke-width="1.5" d="M42,-169C48,-169 54,-175 54,-181"/>
<polyline fill="none" stroke="#2e3436" stroke-width="1.5" points="54,-181 54,-193 "/>
<path fill="none" stroke="#2e3436" stroke-width="1.5" d="M54,-193C54,-199 48,-205 42,-205"/>
<polyline fill="none" stroke="#2e3436" stroke-width="1.5" points="42,-205 12,-205 "/>
<path fill="none" stroke="#2e3436" stroke-width="1.5" d="M12,-205C6,-205 0,-199 0,-193"/>
<polyline fill="none" stroke="#2e3436" stroke-width="1.5" points="0,-193 0,-181 "/>
<path fill="none" stroke="#2e3436" stroke-width="1.5" d="M0,-181C0,-175 6,-169 12,-169"/>
<text text-anchor="start" x="8" y="-184.8" font-family="FreeSans" font-size="8.00" fill="#1c2021">name = &#39;B&#39;</text>
</g>
<!-- N1&#45;&gt;N2 -->
<g id="edge2" class="edge"><title>N1&#45;&gt;N2</title>
<path fill="none" stroke="#2e3436" stroke-width="2" d="M27,-252.773C27,-241.105 27,-225.787 27,-212.87"/>
<polygon fill="#2e3436" stroke="#2e3436" points="27,-205.191 30.3751,-212.691 27.5,-208.941 27.5001,-212.691 27.0001,-212.691 26.5001,-212.691 26.5,-208.941 23.6251,-212.691 27,-205.191 27,-205.191"/>
<text text-anchor="middle" x="42.5" y="-226.8" font-family="FreeSans" font-size="8.00" fill="#2e3436">KNOWS</text>
</g>
<!-- N3 -->
<g id="node6" class="node"><title>N3</title>
<polygon fill="#ffffff" stroke="#ffffff" stroke-width="1.5" points="11.5,-85 42.5,-85 54.5,-97 54.5,-109 42.5,-121 11.5,-121 -0.5,-109 -0.5,-97 11.5,-85"/>
<path fill="#ffffff" stroke="#ffffff" stroke-width="1.5" d="M42.5,-85C48.5,-85 54.5,-91 54.5,-97"/>
<path fill="#ffffff" stroke="#ffffff" stroke-width="1.5" d="M54.5,-109C54.5,-115 48.5,-121 42.5,-121"/>
<path fill="#ffffff" stroke="#ffffff" stroke-width="1.5" d="M11.5,-121C5.5,-121 -0.5,-115 -0.5,-109"/>
<path fill="#ffffff" stroke="#ffffff" stroke-width="1.5" d="M-0.5,-97C-0.5,-91 5.5,-85 11.5,-85"/>
<polyline fill="none" stroke="#2e3436" stroke-width="1.5" points="11.5,-85 42.5,-85 "/>
<path fill="none" stroke="#2e3436" stroke-width="1.5" d="M42.5,-85C48.5,-85 54.5,-91 54.5,-97"/>
<polyline fill="none" stroke="#2e3436" stroke-width="1.5" points="54.5,-97 54.5,-109 "/>
<path fill="none" stroke="#2e3436" stroke-width="1.5" d="M54.5,-109C54.5,-115 48.5,-121 42.5,-121"/>
<polyline fill="none" stroke="#2e3436" stroke-width="1.5" points="42.5,-121 11.5,-121 "/>
<path fill="none" stroke="#2e3436" stroke-width="1.5" d="M11.5,-121C5.5,-121 -0.5,-115 -0.5,-109"/>
<polyline fill="none" stroke="#2e3436" stroke-width="1.5" points="-0.5,-109 -0.5,-97 "/>
<path fill="none" stroke="#2e3436" stroke-width="1.5" d="M-0.5,-97C-0.5,-91 5.5,-85 11.5,-85"/>
<text text-anchor="start" x="7.5" y="-100.8" font-family="FreeSans" font-size="8.00" fill="#1c2021">name = &#39;C&#39;</text>
</g>
<!-- N2&#45;&gt;N3 -->
<g id="edge4" class="edge"><title>N2&#45;&gt;N3</title>
<path fill="none" stroke="#2e3436" stroke-width="2" d="M27,-168.773C27,-157.105 27,-141.787 27,-128.87"/>
<polygon fill="#2e3436" stroke="#2e3436" points="27,-121.191 30.3751,-128.691 27.5,-124.941 27.5001,-128.691 27.0001,-128.691 26.5001,-128.691 26.5,-124.941 23.6251,-128.691 27,-121.191 27,-121.191"/>
<text text-anchor="middle" x="42.5" y="-142.8" font-family="FreeSans" font-size="8.00" fill="#2e3436">KNOWS</text>
</g>
<!-- N3&#45;&gt;N0 -->
<g id="edge6" class="edge"><title>N3&#45;&gt;N0</title>
<path fill="none" stroke="#2e3436" stroke-width="2" d="M27,-84.7733C27,-73.1053 27,-57.7874 27,-44.8699"/>
<polygon fill="#2e3436" stroke="#2e3436" points="27,-37.1912 30.3751,-44.6911 27.5,-40.9412 27.5001,-44.6912 27.0001,-44.6912 26.5001,-44.6912 26.5,-40.9412 23.6251,-44.6912 27,-37.1912 27,-37.1912"/>
<text text-anchor="middle" x="42.5" y="-58.8" font-family="FreeSans" font-size="8.00" fill="#2e3436">KNOWS</text>
</g>
</g>
</svg>
