<?xml version="1.0" encoding="UTF-8" standalone="no"?>
<!DOCTYPE svg PUBLIC "-//W3C//DTD SVG 1.1//EN"
 "http://www.w3.org/Graphics/SVG/1.1/DTD/svg11.dtd">
<!-- Generated by graphviz version 2.26.3 (20100126.1600)
 -->
<!-- Title: g Pages: 1 -->
<svg width="69pt" height="264pt"
 viewBox="0.00 0.00 69.00 264.00" xmlns="http://www.w3.org/2000/svg" xmlns:xlink="http://www.w3.org/1999/xlink">
<g id="graph1" class="graph" transform="scale(1 1) rotate(0) translate(4 260)">
<title>g</title>
<polygon fill="white" stroke="white" points="-4,5 -4,-260 66,-260 66,5 -4,5"/>
<!-- N1 -->
<g id="node1" class="node"><title>N1</title>
<polygon fill="#ffffff" stroke="#ffffff" stroke-width="1.5" points="11.5,-199 48.5,-199 60.5,-211 60.5,-243 48.5,-255 11.5,-255 -0.5,-243 -0.5,-211 11.5,-199"/>
<path fill="#ffffff" stroke="#ffffff" stroke-width="1.5" d="M48.5,-199C54.5,-199 60.5,-205 60.5,-211"/>
<path fill="#ffffff" stroke="#ffffff" stroke-width="1.5" d="M60.5,-243C60.5,-249 54.5,-255 48.5,-255"/>
<path fill="#ffffff" stroke="#ffffff" stroke-width="1.5" d="M11.5,-255C5.5,-255 -0.5,-249 -0.5,-243"/>
<path fill="#ffffff" stroke="#ffffff" stroke-width="1.5" d="M-0.5,-211C-0.5,-205 5.5,-199 11.5,-199"/>
<polyline fill="none" stroke="#2e3436" stroke-width="1.5" points="11.5,-199 48.5,-199 "/>
<path fill="none" stroke="#2e3436" stroke-width="1.5" d="M48.5,-199C54.5,-199 60.5,-205 60.5,-211"/>
<polyline fill="none" stroke="#2e3436" stroke-width="1.5" points="60.5,-211 60.5,-243 "/>
<path fill="none" stroke="#2e3436" stroke-width="1.5" d="M60.5,-243C60.5,-249 54.5,-255 48.5,-255"/>
<polyline fill="none" stroke="#2e3436" stroke-width="1.5" points="48.5,-255 11.5,-255 "/>
<path fill="none" stroke="#2e3436" stroke-width="1.5" d="M11.5,-255C5.5,-255 -0.5,-249 -0.5,-243"/>
<polyline fill="none" stroke="#2e3436" stroke-width="1.5" points="-0.5,-243 -0.5,-211 "/>
<path fill="none" stroke="#2e3436" stroke-width="1.5" d="M-0.5,-211C-0.5,-205 5.5,-199 11.5,-199"/>
<text text-anchor="middle" x="30" y="-243.8" font-family="FreeSans" font-size="8.00" fill="#1c2021">Node[1]</text>
<polyline fill="none" stroke="#2e3436" stroke-width="1.5" points="-0.5,-237 60.5,-237 "/>
<text text-anchor="start" x="7.5" y="-225.8" font-family="FreeSans" font-size="8.00" fill="#1c2021">age = 34</text>
<text text-anchor="start" x="7.5" y="-215.8" font-family="FreeSans" font-size="8.00" fill="#1c2021">name = &#39;A&#39;</text>
<text text-anchor="start" x="7.5" y="-205.8" font-family="FreeSans" font-size="8.00" fill="#1c2021">length = 170</text>
</g>
<!-- N2 -->
<g id="node3" class="node"><title>N2</title>
<polygon fill="#ffffff" stroke="#ffffff" stroke-width="1.5" points="15,-105 45,-105 57,-117 57,-139 45,-151 15,-151 3,-139 3,-117 15,-105"/>
<path fill="#ffffff" stroke="#ffffff" stroke-width="1.5" d="M45,-105C51,-105 57,-111 57,-117"/>
<path fill="#ffffff" stroke="#ffffff" stroke-width="1.5" d="M57,-139C57,-145 51,-151 45,-151"/>
<path fill="#ffffff" stroke="#ffffff" stroke-width="1.5" d="M15,-151C9,-151 3,-145 3,-139"/>
<path fill="#ffffff" stroke="#ffffff" stroke-width="1.5" d="M3,-117C3,-111 9,-105 15,-105"/>
<polyline fill="none" stroke="#2e3436" stroke-width="1.5" points="15,-105 45,-105 "/>
<path fill="none" stroke="#2e3436" stroke-width="1.5" d="M45,-105C51,-105 57,-111 57,-117"/>
<polyline fill="none" stroke="#2e3436" stroke-width="1.5" points="57,-117 57,-139 "/>
<path fill="none" stroke="#2e3436" stroke-width="1.5" d="M57,-139C57,-145 51,-151 45,-151"/>
<polyline fill="none" stroke="#2e3436" stroke-width="1.5" points="45,-151 15,-151 "/>
<path fill="none" stroke="#2e3436" stroke-width="1.5" d="M15,-151C9,-151 3,-145 3,-139"/>
<polyline fill="none" stroke="#2e3436" stroke-width="1.5" points="3,-139 3,-117 "/>
<path fill="none" stroke="#2e3436" stroke-width="1.5" d="M3,-117C3,-111 9,-105 15,-105"/>
<text text-anchor="middle" x="30" y="-139.8" font-family="FreeSans" font-size="8.00" fill="#1c2021">Node[2]</text>
<polyline fill="none" stroke="#2e3436" stroke-width="1.5" points="3,-133 57,-133 "/>
<text text-anchor="start" x="11" y="-121.8" font-family="FreeSans" font-size="8.00" fill="#1c2021">age = 34</text>
<text text-anchor="start" x="11" y="-111.8" font-family="FreeSans" font-size="8.00" fill="#1c2021">name = &#39;B&#39;</text>
</g>
<!-- N1&#45;&gt;N2 -->
<g id="edge2" class="edge"><title>N1&#45;&gt;N2</title>
<path fill="none" stroke="#2e3436" stroke-width="2" d="M30,-198.895C30,-186.398 30,-171.647 30,-158.845"/>
<polygon fill="#2e3436" stroke="#2e3436" points="30,-151.164 33.3751,-158.664 30.5,-154.914 30.5001,-158.664 30.0001,-158.664 29.5001,-158.664 29.5,-154.914 26.6251,-158.664 30,-151.164 30,-151.164"/>
<text text-anchor="middle" x="45.5" y="-172.8" font-family="FreeSans" font-size="8.00" fill="#2e3436">KNOWS</text>
</g>
<!-- N3 -->
<g id="node5" class="node"><title>N3</title>
<polygon fill="#ffffff" stroke="#ffffff" stroke-width="1.5" points="11.5,-1 48.5,-1 60.5,-13 60.5,-45 48.5,-57 11.5,-57 -0.5,-45 -0.5,-13 11.5,-1"/>
<path fill="#ffffff" stroke="#ffffff" stroke-width="1.5" d="M48.5,-1C54.5,-1 60.5,-7 60.5,-13"/>
<path fill="#ffffff" stroke="#ffffff" stroke-width="1.5" d="M60.5,-45C60.5,-51 54.5,-57 48.5,-57"/>
<path fill="#ffffff" stroke="#ffffff" stroke-width="1.5" d="M11.5,-57C5.5,-57 -0.5,-51 -0.5,-45"/>
<path fill="#ffffff" stroke="#ffffff" stroke-width="1.5" d="M-0.5,-13C-0.5,-7 5.5,-1 11.5,-1"/>
<polyline fill="none" stroke="#2e3436" stroke-width="1.5" points="11.5,-1 48.5,-1 "/>
<path fill="none" stroke="#2e3436" stroke-width="1.5" d="M48.5,-1C54.5,-1 60.5,-7 60.5,-13"/>
<polyline fill="none" stroke="#2e3436" stroke-width="1.5" points="60.5,-13 60.5,-45 "/>
<path fill="none" stroke="#2e3436" stroke-width="1.5" d="M60.5,-45C60.5,-51 54.5,-57 48.5,-57"/>
<polyline fill="none" stroke="#2e3436" stroke-width="1.5" points="48.5,-57 11.5,-57 "/>
<path fill="none" stroke="#2e3436" stroke-width="1.5" d="M11.5,-57C5.5,-57 -0.5,-51 -0.5,-45"/>
<polyline fill="none" stroke="#2e3436" stroke-width="1.5" points="-0.5,-45 -0.5,-13 "/>
<path fill="none" stroke="#2e3436" stroke-width="1.5" d="M-0.5,-13C-0.5,-7 5.5,-1 11.5,-1"/>
<text text-anchor="middle" x="30" y="-45.8" font-family="FreeSans" font-size="8.00" fill="#1c2021">Node[3]</text>
<polyline fill="none" stroke="#2e3436" stroke-width="1.5" points="-0.5,-39 60.5,-39 "/>
<text text-anchor="start" x="7.5" y="-27.8" font-family="FreeSans" font-size="8.00" fill="#1c2021">age = 32</text>
<text text-anchor="start" x="7.5" y="-17.8" font-family="FreeSans" font-size="8.00" fill="#1c2021">name = &#39;C&#39;</text>
<text text-anchor="start" x="7.5" y="-7.8" font-family="FreeSans" font-size="8.00" fill="#1c2021">length = 185</text>
</g>
<!-- N2&#45;&gt;N3 -->
<g id="edge4" class="edge"><title>N2&#45;&gt;N3</title>
<path fill="none" stroke="#2e3436" stroke-width="2" d="M30,-104.789C30,-92.8452 30,-78.0249 30,-64.6661"/>
<polygon fill="#2e3436" stroke="#2e3436" points="30,-57.0024 33.3751,-64.5023 30.5,-60.7524 30.5001,-64.5024 30.0001,-64.5024 29.5001,-64.5024 29.5,-60.7524 26.6251,-64.5024 30,-57.0024 30,-57.0024"/>
<text text-anchor="middle" x="45.5" y="-78.8" font-family="FreeSans" font-size="8.00" fill="#2e3436">KNOWS</text>
</g>
</g>
</svg>
