<?xml version="1.0" encoding="UTF-8" standalone="no"?>
<!DOCTYPE svg PUBLIC "-//W3C//DTD SVG 1.1//EN"
 "http://www.w3.org/Graphics/SVG/1.1/DTD/svg11.dtd">
<!-- Generated by graphviz version 2.26.3 (20100126.1600)
 -->
<!-- Title: g Pages: 1 -->
<svg width="118pt" height="130pt"
 viewBox="0.00 0.00 118.00 130.00" xmlns="http://www.w3.org/2000/svg" xmlns:xlink="http://www.w3.org/1999/xlink">
<g id="graph1" class="graph" transform="scale(1 1) rotate(0) translate(4 126)">
<title>g</title>
<polygon fill="white" stroke="white" points="-4,5 -4,-126 115,-126 115,5 -4,5"/>
<!-- N0 -->
<g id="node1" class="node"><title>N0</title>
<polygon fill="#ffffff" stroke="#ffffff" stroke-width="1.5" points="21.5,-85 88.5,-85 100.5,-97 100.5,-109 88.5,-121 21.5,-121 9.5,-109 9.5,-97 21.5,-85"/>
<path fill="#ffffff" stroke="#ffffff" stroke-width="1.5" d="M88.5,-85C94.5,-85 100.5,-91 100.5,-97"/>
<path fill="#ffffff" stroke="#ffffff" stroke-width="1.5" d="M100.5,-109C100.5,-115 94.5,-121 88.5,-121"/>
<path fill="#ffffff" stroke="#ffffff" stroke-width="1.5" d="M21.5,-121C15.5,-121 9.5,-115 9.5,-109"/>
<path fill="#ffffff" stroke="#ffffff" stroke-width="1.5" d="M9.5,-97C9.5,-91 15.5,-85 21.5,-85"/>
<polyline fill="none" stroke="#2e3436" stroke-width="1.5" points="21.5,-85 88.5,-85 "/>
<path fill="none" stroke="#2e3436" stroke-width="1.5" d="M88.5,-85C94.5,-85 100.5,-91 100.5,-97"/>
<polyline fill="none" stroke="#2e3436" stroke-width="1.5" points="100.5,-97 100.5,-109 "/>
<path fill="none" stroke="#2e3436" stroke-width="1.5" d="M100.5,-109C100.5,-115 94.5,-121 88.5,-121"/>
<polyline fill="none" stroke="#2e3436" stroke-width="1.5" points="88.5,-121 21.5,-121 "/>
<path fill="none" stroke="#2e3436" stroke-width="1.5" d="M21.5,-121C15.5,-121 9.5,-115 9.5,-109"/>
<polyline fill="none" stroke="#2e3436" stroke-width="1.5" points="9.5,-109 9.5,-97 "/>
<path fill="none" stroke="#2e3436" stroke-width="1.5" d="M9.5,-97C9.5,-91 15.5,-85 21.5,-85"/>
<text text-anchor="middle" x="55" y="-109.8" font-family="FreeSans" font-size="8.00" fill="#1c2021">Actor</text>
<polyline fill="none" stroke="#2e3436" stroke-width="1.5" points="9.5,-103 100.5,-103 "/>
<text text-anchor="start" x="17.5" y="-91.8" font-family="FreeSans" font-size="8.00" fill="#1c2021">name = &#39;Tom Hanks&#39;</text>
</g>
<!-- N1 -->
<g id="node3" class="node"><title>N1</title>
<polygon fill="#ffffff" stroke="#ffffff" stroke-width="1.5" points="12,-1 98,-1 110,-13 110,-25 98,-37 12,-37 0,-25 0,-13 12,-1"/>
<path fill="#ffffff" stroke="#ffffff" stroke-width="1.5" d="M98,-1C104,-1 110,-7 110,-13"/>
<path fill="#ffffff" stroke="#ffffff" stroke-width="1.5" d="M110,-25C110,-31 104,-37 98,-37"/>
<path fill="#ffffff" stroke="#ffffff" stroke-width="1.5" d="M12,-37C6,-37 0,-31 0,-25"/>
<path fill="#ffffff" stroke="#ffffff" stroke-width="1.5" d="M0,-13C0,-7 6,-1 12,-1"/>
<polyline fill="none" stroke="#2e3436" stroke-width="1.5" points="12,-1 98,-1 "/>
<path fill="none" stroke="#2e3436" stroke-width="1.5" d="M98,-1C104,-1 110,-7 110,-13"/>
<polyline fill="none" stroke="#2e3436" stroke-width="1.5" points="110,-13 110,-25 "/>
<path fill="none" stroke="#2e3436" stroke-width="1.5" d="M110,-25C110,-31 104,-37 98,-37"/>
<polyline fill="none" stroke="#2e3436" stroke-width="1.5" points="98,-37 12,-37 "/>
<path fill="none" stroke="#2e3436" stroke-width="1.5" d="M12,-37C6,-37 0,-31 0,-25"/>
<polyline fill="none" stroke="#2e3436" stroke-width="1.5" points="0,-25 0,-13 "/>
<path fill="none" stroke="#2e3436" stroke-width="1.5" d="M0,-13C0,-7 6,-1 12,-1"/>
<text text-anchor="middle" x="55" y="-25.8" font-family="FreeSans" font-size="8.00" fill="#1c2021">Movie</text>
<polyline fill="none" stroke="#2e3436" stroke-width="1.5" points="0,-19 110,-19 "/>
<text text-anchor="start" x="8" y="-7.8" font-family="FreeSans" font-size="8.00" fill="#1c2021">title = &#39;Sleepless in Seattle&#39;</text>
</g>
<!-- N0&#45;&gt;N1 -->
<g id="edge2" class="edge"><title>N0&#45;&gt;N1</title>
<path fill="none" stroke="#2e3436" stroke-width="2" d="M55,-84.7733C55,-73.1053 55,-57.7874 55,-44.8699"/>
<polygon fill="#2e3436" stroke="#2e3436" points="55,-37.1912 58.3751,-44.6911 55.5,-40.9412 55.5001,-44.6912 55.0001,-44.6912 54.5001,-44.6912 54.5,-40.9412 51.6251,-44.6912 55,-37.1912 55,-37.1912"/>
<text text-anchor="middle" x="75.5" y="-58.8" font-family="FreeSans" font-size="8.00" fill="#2e3436">ACTED_IN</text>
</g>
</g>
</svg>
