<?xml version="1.0" encoding="UTF-8" standalone="no"?>
<!DOCTYPE svg PUBLIC "-//W3C//DTD SVG 1.1//EN"
 "http://www.w3.org/Graphics/SVG/1.1/DTD/svg11.dtd">
<!-- Generated by graphviz version 2.26.3 (20100126.1600)
 -->
<!-- Title: g Pages: 1 -->
<svg width="135pt" height="214pt"
 viewBox="0.00 0.00 135.00 214.00" xmlns="http://www.w3.org/2000/svg" xmlns:xlink="http://www.w3.org/1999/xlink">
<g id="graph1" class="graph" transform="scale(1 1) rotate(0) translate(4 210)">
<title>g</title>
<polygon fill="white" stroke="white" points="-4,5 -4,-210 132,-210 132,5 -4,5"/>
<!-- N0 -->
<g id="node1" class="node"><title>N0</title>
<polygon fill="#ffffff" stroke="#ffffff" stroke-width="1.5" points="65,-169 115,-169 127,-181 127,-193 115,-205 65,-205 53,-193 53,-181 65,-169"/>
<path fill="#ffffff" stroke="#ffffff" stroke-width="1.5" d="M115,-169C121,-169 127,-175 127,-181"/>
<path fill="#ffffff" stroke="#ffffff" stroke-width="1.5" d="M127,-193C127,-199 121,-205 115,-205"/>
<path fill="#ffffff" stroke="#ffffff" stroke-width="1.5" d="M65,-205C59,-205 53,-199 53,-193"/>
<path fill="#ffffff" stroke="#ffffff" stroke-width="1.5" d="M53,-181C53,-175 59,-169 65,-169"/>
<polyline fill="none" stroke="#2e3436" stroke-width="1.5" points="65,-169 115,-169 "/>
<path fill="none" stroke="#2e3436" stroke-width="1.5" d="M115,-169C121,-169 127,-175 127,-181"/>
<polyline fill="none" stroke="#2e3436" stroke-width="1.5" points="127,-181 127,-193 "/>
<path fill="none" stroke="#2e3436" stroke-width="1.5" d="M127,-193C127,-199 121,-205 115,-205"/>
<polyline fill="none" stroke="#2e3436" stroke-width="1.5" points="115,-205 65,-205 "/>
<path fill="none" stroke="#2e3436" stroke-width="1.5" d="M65,-205C59,-205 53,-199 53,-193"/>
<polyline fill="none" stroke="#2e3436" stroke-width="1.5" points="53,-193 53,-181 "/>
<path fill="none" stroke="#2e3436" stroke-width="1.5" d="M53,-181C53,-175 59,-169 65,-169"/>
<text text-anchor="start" x="61" y="-184.8" font-family="FreeSans" font-size="8.00" fill="#1c2021">name = &#39;ROOT&#39;</text>
</g>
<!-- N2 -->
<g id="node3" class="node"><title>N2</title>
<polygon fill="#ffffff" stroke="#ffffff" stroke-width="1.5" points="12,-85 42,-85 54,-97 54,-109 42,-121 12,-121 0,-109 0,-97 12,-85"/>
<path fill="#ffffff" stroke="#ffffff" stroke-width="1.5" d="M42,-85C48,-85 54,-91 54,-97"/>
<path fill="#ffffff" stroke="#ffffff" stroke-width="1.5" d="M54,-109C54,-115 48,-121 42,-121"/>
<path fill="#ffffff" stroke="#ffffff" stroke-width="1.5" d="M12,-121C6,-121 0,-115 0,-109"/>
<path fill="#ffffff" stroke="#ffffff" stroke-width="1.5" d="M0,-97C0,-91 6,-85 12,-85"/>
<polyline fill="none" stroke="#2e3436" stroke-width="1.5" points="12,-85 42,-85 "/>
<path fill="none" stroke="#2e3436" stroke-width="1.5" d="M42,-85C48,-85 54,-91 54,-97"/>
<polyline fill="none" stroke="#2e3436" stroke-width="1.5" points="54,-97 54,-109 "/>
<path fill="none" stroke="#2e3436" stroke-width="1.5" d="M54,-109C54,-115 48,-121 42,-121"/>
<polyline fill="none" stroke="#2e3436" stroke-width="1.5" points="42,-121 12,-121 "/>
<path fill="none" stroke="#2e3436" stroke-width="1.5" d="M12,-121C6,-121 0,-115 0,-109"/>
<polyline fill="none" stroke="#2e3436" stroke-width="1.5" points="0,-109 0,-97 "/>
<path fill="none" stroke="#2e3436" stroke-width="1.5" d="M0,-97C0,-91 6,-85 12,-85"/>
<text text-anchor="start" x="8" y="-100.8" font-family="FreeSans" font-size="8.00" fill="#1c2021">value = 10</text>
</g>
<!-- N0&#45;&gt;N2 -->
<g id="edge2" class="edge"><title>N0&#45;&gt;N2</title>
<path fill="none" stroke="#2e3436" stroke-width="2" d="M76.3299,-168.773C67.2487,-156.665 55.2196,-140.626 45.3136,-127.418"/>
<polygon fill="#2e3436" stroke="#2e3436" points="40.6434,-121.191 47.8434,-125.166 43.2934,-123.891 45.5434,-126.891 45.1434,-127.191 44.7434,-127.491 42.4934,-124.491 42.4434,-129.216 40.6434,-121.191 40.6434,-121.191"/>
<text text-anchor="middle" x="70.5" y="-142.8" font-family="FreeSans" font-size="8.00" fill="#2e3436">LINK</text>
</g>
<!-- N1 -->
<g id="node4" class="node"><title>N1</title>
<polygon fill="#ffffff" stroke="#ffffff" stroke-width="1.5" points="66,-1 96,-1 108,-13 108,-25 96,-37 66,-37 54,-25 54,-13 66,-1"/>
<path fill="#ffffff" stroke="#ffffff" stroke-width="1.5" d="M96,-1C102,-1 108,-7 108,-13"/>
<path fill="#ffffff" stroke="#ffffff" stroke-width="1.5" d="M108,-25C108,-31 102,-37 96,-37"/>
<path fill="#ffffff" stroke="#ffffff" stroke-width="1.5" d="M66,-37C60,-37 54,-31 54,-25"/>
<path fill="#ffffff" stroke="#ffffff" stroke-width="1.5" d="M54,-13C54,-7 60,-1 66,-1"/>
<polyline fill="none" stroke="#2e3436" stroke-width="1.5" points="66,-1 96,-1 "/>
<path fill="none" stroke="#2e3436" stroke-width="1.5" d="M96,-1C102,-1 108,-7 108,-13"/>
<polyline fill="none" stroke="#2e3436" stroke-width="1.5" points="108,-13 108,-25 "/>
<path fill="none" stroke="#2e3436" stroke-width="1.5" d="M108,-25C108,-31 102,-37 96,-37"/>
<polyline fill="none" stroke="#2e3436" stroke-width="1.5" points="96,-37 66,-37 "/>
<path fill="none" stroke="#2e3436" stroke-width="1.5" d="M66,-37C60,-37 54,-31 54,-25"/>
<polyline fill="none" stroke="#2e3436" stroke-width="1.5" points="54,-25 54,-13 "/>
<path fill="none" stroke="#2e3436" stroke-width="1.5" d="M54,-13C54,-7 60,-1 66,-1"/>
<text text-anchor="start" x="62" y="-16.8" font-family="FreeSans" font-size="8.00" fill="#1c2021">value = 25</text>
</g>
<!-- N2&#45;&gt;N1 -->
<g id="edge6" class="edge"><title>N2&#45;&gt;N1</title>
<path fill="none" stroke="#2e3436" stroke-width="2" d="M38.7172,-84.7733C46.4303,-72.7751 56.6245,-56.9174 65.0706,-43.779"/>
<polygon fill="#2e3436" stroke="#2e3436" points="69.3057,-37.1912 68.0889,-45.3251 67.6984,-40.616 65.6705,-43.7704 65.2499,-43.5 64.8294,-43.2296 66.8572,-40.0752 62.411,-41.675 69.3057,-37.1912 69.3057,-37.1912"/>
<text text-anchor="middle" x="65.5" y="-58.8" font-family="FreeSans" font-size="8.00" fill="#2e3436">LINK</text>
</g>
<!-- N1&#45;&gt;N0 -->
<g id="edge4" class="edge"><title>N1&#45;&gt;N0</title>
<path fill="none" stroke="#2e3436" stroke-width="2" d="M81.9655,-37.0219C83.5626,-66.8345 86.7608,-126.536 88.6041,-160.942"/>
<polygon fill="#2e3436" stroke="#2e3436" points="89.0197,-168.701 85.2482,-161.393 88.3198,-164.983 88.1191,-161.239 88.6184,-161.212 89.1177,-161.185 89.3183,-164.93 91.9886,-161.031 89.0197,-168.701 89.0197,-168.701"/>
<text text-anchor="middle" x="95.5" y="-100.8" font-family="FreeSans" font-size="8.00" fill="#2e3436">LINK</text>
</g>
</g>
</svg>
