<?xml version="1.0" encoding="UTF-8" standalone="no"?>
<!DOCTYPE svg PUBLIC "-//W3C//DTD SVG 1.1//EN"
 "http://www.w3.org/Graphics/SVG/1.1/DTD/svg11.dtd">
<!-- Generated by graphviz version 2.26.3 (20100126.1600)
 -->
<!-- Title: g Pages: 1 -->
<svg width="485pt" height="348pt"
 viewBox="0.00 0.00 485.00 348.00" xmlns="http://www.w3.org/2000/svg" xmlns:xlink="http://www.w3.org/1999/xlink">
<g id="graph1" class="graph" transform="scale(1 1) rotate(0) translate(4 344)">
<title>g</title>
<polygon fill="white" stroke="white" points="-4,5 -4,-344 482,-344 482,5 -4,5"/>
<!-- N1 -->
<g id="node1" class="node"><title>N1</title>
<polygon fill="#ffffff" stroke="#ffffff" stroke-width="1.5" points="160.5,-1 203.5,-1 215.5,-13 215.5,-25 203.5,-37 160.5,-37 148.5,-25 148.5,-13 160.5,-1"/>
<path fill="#ffffff" stroke="#ffffff" stroke-width="1.5" d="M203.5,-1C209.5,-1 215.5,-7 215.5,-13"/>
<path fill="#ffffff" stroke="#ffffff" stroke-width="1.5" d="M215.5,-25C215.5,-31 209.5,-37 203.5,-37"/>
<path fill="#ffffff" stroke="#ffffff" stroke-width="1.5" d="M160.5,-37C154.5,-37 148.5,-31 148.5,-25"/>
<path fill="#ffffff" stroke="#ffffff" stroke-width="1.5" d="M148.5,-13C148.5,-7 154.5,-1 160.5,-1"/>
<polyline fill="none" stroke="#2e3436" stroke-width="1.5" points="160.5,-1 203.5,-1 "/>
<path fill="none" stroke="#2e3436" stroke-width="1.5" d="M203.5,-1C209.5,-1 215.5,-7 215.5,-13"/>
<polyline fill="none" stroke="#2e3436" stroke-width="1.5" points="215.5,-13 215.5,-25 "/>
<path fill="none" stroke="#2e3436" stroke-width="1.5" d="M215.5,-25C215.5,-31 209.5,-37 203.5,-37"/>
<polyline fill="none" stroke="#2e3436" stroke-width="1.5" points="203.5,-37 160.5,-37 "/>
<path fill="none" stroke="#2e3436" stroke-width="1.5" d="M160.5,-37C154.5,-37 148.5,-31 148.5,-25"/>
<polyline fill="none" stroke="#2e3436" stroke-width="1.5" points="148.5,-25 148.5,-13 "/>
<path fill="none" stroke="#2e3436" stroke-width="1.5" d="M148.5,-13C148.5,-7 154.5,-1 160.5,-1"/>
<text text-anchor="start" x="156.5" y="-16.8" font-family="FreeSans" font-size="8.00" fill="#1c2021">name = &#39;CNN&#39;</text>
</g>
<!-- N2 -->
<g id="node2" class="node"><title>N2</title>
<polygon fill="#ffffff" stroke="#ffffff" stroke-width="1.5" points="320.5,-1 387.5,-1 399.5,-13 399.5,-25 387.5,-37 320.5,-37 308.5,-25 308.5,-13 320.5,-1"/>
<path fill="#ffffff" stroke="#ffffff" stroke-width="1.5" d="M387.5,-1C393.5,-1 399.5,-7 399.5,-13"/>
<path fill="#ffffff" stroke="#ffffff" stroke-width="1.5" d="M399.5,-25C399.5,-31 393.5,-37 387.5,-37"/>
<path fill="#ffffff" stroke="#ffffff" stroke-width="1.5" d="M320.5,-37C314.5,-37 308.5,-31 308.5,-25"/>
<path fill="#ffffff" stroke="#ffffff" stroke-width="1.5" d="M308.5,-13C308.5,-7 314.5,-1 320.5,-1"/>
<polyline fill="none" stroke="#2e3436" stroke-width="1.5" points="320.5,-1 387.5,-1 "/>
<path fill="none" stroke="#2e3436" stroke-width="1.5" d="M387.5,-1C393.5,-1 399.5,-7 399.5,-13"/>
<polyline fill="none" stroke="#2e3436" stroke-width="1.5" points="399.5,-13 399.5,-25 "/>
<path fill="none" stroke="#2e3436" stroke-width="1.5" d="M399.5,-25C399.5,-31 393.5,-37 387.5,-37"/>
<polyline fill="none" stroke="#2e3436" stroke-width="1.5" points="387.5,-37 320.5,-37 "/>
<path fill="none" stroke="#2e3436" stroke-width="1.5" d="M320.5,-37C314.5,-37 308.5,-31 308.5,-25"/>
<polyline fill="none" stroke="#2e3436" stroke-width="1.5" points="308.5,-25 308.5,-13 "/>
<path fill="none" stroke="#2e3436" stroke-width="1.5" d="M308.5,-13C308.5,-7 314.5,-1 320.5,-1"/>
<text text-anchor="start" x="316.5" y="-16.8" font-family="FreeSans" font-size="8.00" fill="#1c2021">name = &#39;Daily Planet&#39;</text>
</g>
<!-- N3 -->
<g id="node3" class="node"><title>N3</title>
<polygon fill="#ffffff" stroke="#ffffff" stroke-width="1.5" points="11.5,-105 100.5,-105 112.5,-117 112.5,-129 100.5,-141 11.5,-141 -0.5,-129 -0.5,-117 11.5,-105"/>
<path fill="#ffffff" stroke="#ffffff" stroke-width="1.5" d="M100.5,-105C106.5,-105 112.5,-111 112.5,-117"/>
<path fill="#ffffff" stroke="#ffffff" stroke-width="1.5" d="M112.5,-129C112.5,-135 106.5,-141 100.5,-141"/>
<path fill="#ffffff" stroke="#ffffff" stroke-width="1.5" d="M11.5,-141C5.5,-141 -0.5,-135 -0.5,-129"/>
<path fill="#ffffff" stroke="#ffffff" stroke-width="1.5" d="M-0.5,-117C-0.5,-111 5.5,-105 11.5,-105"/>
<polyline fill="none" stroke="#2e3436" stroke-width="1.5" points="11.5,-105 100.5,-105 "/>
<path fill="none" stroke="#2e3436" stroke-width="1.5" d="M100.5,-105C106.5,-105 112.5,-111 112.5,-117"/>
<polyline fill="none" stroke="#2e3436" stroke-width="1.5" points="112.5,-117 112.5,-129 "/>
<path fill="none" stroke="#2e3436" stroke-width="1.5" d="M112.5,-129C112.5,-135 106.5,-141 100.5,-141"/>
<polyline fill="none" stroke="#2e3436" stroke-width="1.5" points="100.5,-141 11.5,-141 "/>
<path fill="none" stroke="#2e3436" stroke-width="1.5" d="M11.5,-141C5.5,-141 -0.5,-135 -0.5,-129"/>
<polyline fill="none" stroke="#2e3436" stroke-width="1.5" points="-0.5,-129 -0.5,-117 "/>
<path fill="none" stroke="#2e3436" stroke-width="1.5" d="M-0.5,-117C-0.5,-111 5.5,-105 11.5,-105"/>
<text text-anchor="start" x="7.5" y="-120.8" font-family="FreeSans" font-size="8.00" fill="#1c2021">name = &#39;Anderson Cooper&#39;</text>
</g>
<!-- N3&#45;&gt;N1 -->
<g id="edge2" class="edge"><title>N3&#45;&gt;N1</title>
<path fill="none" stroke="#2e3436" stroke-width="2" d="M66.1716,-104.897C75.1354,-90.2233 89.3402,-69.7885 106,-56 116.395,-47.3962 129.128,-40.1995 141.178,-34.5091"/>
<polygon fill="#2e3436" stroke="#2e3436" points="148.172,-31.3336 142.738,-37.5076 144.964,-33.3394 141.549,-34.8899 141.343,-34.4346 141.136,-33.9794 144.55,-32.4288 139.947,-31.3616 148.172,-31.3336 148.172,-31.3336"/>
<text text-anchor="middle" x="127" y="-78.8" font-family="FreeSans" font-size="8.00" fill="#2e3436">WORKSAT</text>
<text text-anchor="start" x="106" y="-68.8" font-family="FreeSans" font-size="8.00" fill="#2e3436">weight = 2</text>
<text text-anchor="start" x="106" y="-58.8" font-family="FreeSans" font-size="8.00" fill="#2e3436">activity = 2</text>
</g>
<!-- N4 -->
<g id="node5" class="node"><title>N4</title>
<polygon fill="#ffffff" stroke="#ffffff" stroke-width="1.5" points="253.5,-105 320.5,-105 332.5,-117 332.5,-129 320.5,-141 253.5,-141 241.5,-129 241.5,-117 253.5,-105"/>
<path fill="#ffffff" stroke="#ffffff" stroke-width="1.5" d="M320.5,-105C326.5,-105 332.5,-111 332.5,-117"/>
<path fill="#ffffff" stroke="#ffffff" stroke-width="1.5" d="M332.5,-129C332.5,-135 326.5,-141 320.5,-141"/>
<path fill="#ffffff" stroke="#ffffff" stroke-width="1.5" d="M253.5,-141C247.5,-141 241.5,-135 241.5,-129"/>
<path fill="#ffffff" stroke="#ffffff" stroke-width="1.5" d="M241.5,-117C241.5,-111 247.5,-105 253.5,-105"/>
<polyline fill="none" stroke="#2e3436" stroke-width="1.5" points="253.5,-105 320.5,-105 "/>
<path fill="none" stroke="#2e3436" stroke-width="1.5" d="M320.5,-105C326.5,-105 332.5,-111 332.5,-117"/>
<polyline fill="none" stroke="#2e3436" stroke-width="1.5" points="332.5,-117 332.5,-129 "/>
<path fill="none" stroke="#2e3436" stroke-width="1.5" d="M332.5,-129C332.5,-135 326.5,-141 320.5,-141"/>
<polyline fill="none" stroke="#2e3436" stroke-width="1.5" points="320.5,-141 253.5,-141 "/>
<path fill="none" stroke="#2e3436" stroke-width="1.5" d="M253.5,-141C247.5,-141 241.5,-135 241.5,-129"/>
<polyline fill="none" stroke="#2e3436" stroke-width="1.5" points="241.5,-129 241.5,-117 "/>
<path fill="none" stroke="#2e3436" stroke-width="1.5" d="M241.5,-117C241.5,-111 247.5,-105 253.5,-105"/>
<text text-anchor="start" x="249.5" y="-120.8" font-family="FreeSans" font-size="8.00" fill="#1c2021">name = &#39;Perry White&#39;</text>
</g>
<!-- N4&#45;&gt;N1 -->
<g id="edge6" class="edge"><title>N4&#45;&gt;N1</title>
<path fill="none" stroke="#2e3436" stroke-width="2" d="M268.71,-104.885C251.352,-87.6911 225.155,-61.7437 206.099,-42.8696"/>
<polygon fill="#2e3436" stroke="#2e3436" points="200.432,-37.2568 208.136,-40.1368 203.448,-39.5405 206.113,-42.1794 205.761,-42.5347 205.409,-42.8899 202.745,-40.251 203.386,-44.9326 200.432,-37.2568 200.432,-37.2568"/>
<text text-anchor="middle" x="267" y="-78.8" font-family="FreeSans" font-size="8.00" fill="#2e3436">WORKSAT</text>
<text text-anchor="start" x="246" y="-68.8" font-family="FreeSans" font-size="8.00" fill="#2e3436">weight = 2</text>
<text text-anchor="start" x="246" y="-58.8" font-family="FreeSans" font-size="8.00" fill="#2e3436">activity = 3</text>
</g>
<!-- N4&#45;&gt;N2 -->
<g id="edge4" class="edge"><title>N4&#45;&gt;N2</title>
<path fill="none" stroke="#2e3436" stroke-width="2" d="M296.853,-104.725C304.413,-91.0481 315.332,-72.0196 326,-56 328.82,-51.7654 331.953,-47.3682 335.072,-43.1464"/>
<polygon fill="#2e3436" stroke="#2e3436" points="339.595,-37.1259 337.789,-45.1495 337.742,-40.4244 335.49,-43.4226 335.09,-43.1223 334.691,-42.8219 336.943,-39.8238 332.392,-41.095 339.595,-37.1259 339.595,-37.1259"/>
<text text-anchor="middle" x="347" y="-78.8" font-family="FreeSans" font-size="8.00" fill="#2e3436">WORKSAT</text>
<text text-anchor="start" x="326" y="-68.8" font-family="FreeSans" font-size="8.00" fill="#2e3436">weight = 2</text>
<text text-anchor="start" x="326" y="-58.8" font-family="FreeSans" font-size="8.00" fill="#2e3436">activity = 6</text>
</g>
<!-- N5 -->
<g id="node8" class="node"><title>N5</title>
<polygon fill="#ffffff" stroke="#ffffff" stroke-width="1.5" points="331.5,-209 402.5,-209 414.5,-221 414.5,-233 402.5,-245 331.5,-245 319.5,-233 319.5,-221 331.5,-209"/>
<path fill="#ffffff" stroke="#ffffff" stroke-width="1.5" d="M402.5,-209C408.5,-209 414.5,-215 414.5,-221"/>
<path fill="#ffffff" stroke="#ffffff" stroke-width="1.5" d="M414.5,-233C414.5,-239 408.5,-245 402.5,-245"/>
<path fill="#ffffff" stroke="#ffffff" stroke-width="1.5" d="M331.5,-245C325.5,-245 319.5,-239 319.5,-233"/>
<path fill="#ffffff" stroke="#ffffff" stroke-width="1.5" d="M319.5,-221C319.5,-215 325.5,-209 331.5,-209"/>
<polyline fill="none" stroke="#2e3436" stroke-width="1.5" points="331.5,-209 402.5,-209 "/>
<path fill="none" stroke="#2e3436" stroke-width="1.5" d="M402.5,-209C408.5,-209 414.5,-215 414.5,-221"/>
<polyline fill="none" stroke="#2e3436" stroke-width="1.5" points="414.5,-221 414.5,-233 "/>
<path fill="none" stroke="#2e3436" stroke-width="1.5" d="M414.5,-233C414.5,-239 408.5,-245 402.5,-245"/>
<polyline fill="none" stroke="#2e3436" stroke-width="1.5" points="402.5,-245 331.5,-245 "/>
<path fill="none" stroke="#2e3436" stroke-width="1.5" d="M331.5,-245C325.5,-245 319.5,-239 319.5,-233"/>
<polyline fill="none" stroke="#2e3436" stroke-width="1.5" points="319.5,-233 319.5,-221 "/>
<path fill="none" stroke="#2e3436" stroke-width="1.5" d="M319.5,-221C319.5,-215 325.5,-209 331.5,-209"/>
<text text-anchor="start" x="327.5" y="-224.8" font-family="FreeSans" font-size="8.00" fill="#1c2021">name = &#39;Jimmy Olsen&#39;</text>
</g>
<!-- N5&#45;&gt;N2 -->
<g id="edge10" class="edge"><title>N5&#45;&gt;N2</title>
<path fill="none" stroke="#2e3436" stroke-width="2" d="M370.222,-208.758C375.18,-177.195 382.93,-110.538 371,-56 370.153,-52.1284 368.862,-48.178 367.362,-44.3691"/>
<polygon fill="#2e3436" stroke="#2e3436" points="364.28,-37.2765 370.364,-42.8107 366.233,-40.5168 367.727,-43.9562 367.269,-44.1555 366.81,-44.3547 365.316,-40.9152 364.173,-45.5003 364.28,-37.2765 364.28,-37.2765"/>
<text text-anchor="middle" x="398.5" y="-130.8" font-family="FreeSans" font-size="8.00" fill="#2e3436">WORKSAT</text>
<text text-anchor="start" x="377" y="-120.8" font-family="FreeSans" font-size="8.00" fill="#2e3436">weight = 2</text>
<text text-anchor="start" x="377" y="-110.8" font-family="FreeSans" font-size="8.00" fill="#2e3436">activity = 10</text>
</g>
<!-- N5&#45;&gt;N4 -->
<g id="edge8" class="edge"><title>N5&#45;&gt;N4</title>
<path fill="none" stroke="#4e9a06" stroke-width="2" d="M347.961,-208.818C342.263,-203.017 336.162,-196.43 331,-190 320.318,-176.692 309.774,-160.761 301.686,-147.772"/>
<polygon fill="#4e9a06" stroke="#4e9a06" points="297.693,-141.278 304.497,-145.899 300.083,-144.211 302.048,-147.405 301.622,-147.667 301.196,-147.929 299.232,-144.734 298.747,-149.435 297.693,-141.278 297.693,-141.278"/>
<text text-anchor="middle" x="349.5" y="-177.8" font-family="FreeSans" font-size="8.00" fill="#4e9a06">KNOWS</text>
<text text-anchor="start" x="331" y="-167.8" font-family="FreeSans" font-size="8.00" fill="#4e9a06">weight = 4</text>
</g>
<!-- N6 -->
<g id="node11" class="node"><title>N6</title>
<polygon fill="#ffffff" stroke="#ffffff" stroke-width="1.5" points="170.5,-209 229.5,-209 241.5,-221 241.5,-233 229.5,-245 170.5,-245 158.5,-233 158.5,-221 170.5,-209"/>
<path fill="#ffffff" stroke="#ffffff" stroke-width="1.5" d="M229.5,-209C235.5,-209 241.5,-215 241.5,-221"/>
<path fill="#ffffff" stroke="#ffffff" stroke-width="1.5" d="M241.5,-233C241.5,-239 235.5,-245 229.5,-245"/>
<path fill="#ffffff" stroke="#ffffff" stroke-width="1.5" d="M170.5,-245C164.5,-245 158.5,-239 158.5,-233"/>
<path fill="#ffffff" stroke="#ffffff" stroke-width="1.5" d="M158.5,-221C158.5,-215 164.5,-209 170.5,-209"/>
<polyline fill="none" stroke="#2e3436" stroke-width="1.5" points="170.5,-209 229.5,-209 "/>
<path fill="none" stroke="#2e3436" stroke-width="1.5" d="M229.5,-209C235.5,-209 241.5,-215 241.5,-221"/>
<polyline fill="none" stroke="#2e3436" stroke-width="1.5" points="241.5,-221 241.5,-233 "/>
<path fill="none" stroke="#2e3436" stroke-width="1.5" d="M241.5,-233C241.5,-239 235.5,-245 229.5,-245"/>
<polyline fill="none" stroke="#2e3436" stroke-width="1.5" points="229.5,-245 170.5,-245 "/>
<path fill="none" stroke="#2e3436" stroke-width="1.5" d="M170.5,-245C164.5,-245 158.5,-239 158.5,-233"/>
<polyline fill="none" stroke="#2e3436" stroke-width="1.5" points="158.5,-233 158.5,-221 "/>
<path fill="none" stroke="#2e3436" stroke-width="1.5" d="M158.5,-221C158.5,-215 164.5,-209 170.5,-209"/>
<text text-anchor="start" x="166.5" y="-224.8" font-family="FreeSans" font-size="8.00" fill="#1c2021">name = &#39;Lois Lane&#39;</text>
</g>
<!-- N6&#45;&gt;N2 -->
<g id="edge16" class="edge"><title>N6&#45;&gt;N2</title>
<path fill="none" stroke="#2e3436" stroke-width="2" d="M193.328,-208.719C185.442,-184.378 174.621,-140.188 185,-104 191.935,-79.8176 194.764,-70.9465 215,-56 228.773,-45.8274 267.674,-35.9364 300.831,-28.9442"/>
<polygon fill="#2e3436" stroke="#2e3436" points="308.242,-27.4086 301.583,-32.2352 304.672,-28.6591 301,-29.42 300.898,-28.9304 300.797,-28.4408 304.469,-27.6799 300.213,-25.6256 308.242,-27.4086 308.242,-27.4086"/>
<text text-anchor="middle" x="206.5" y="-130.8" font-family="FreeSans" font-size="8.00" fill="#2e3436">WORKSAT</text>
<text text-anchor="start" x="185" y="-120.8" font-family="FreeSans" font-size="8.00" fill="#2e3436">weight = 2</text>
<text text-anchor="start" x="185" y="-110.8" font-family="FreeSans" font-size="8.00" fill="#2e3436">activity = 56</text>
</g>
<!-- N6&#45;&gt;N3 -->
<g id="edge14" class="edge"><title>N6&#45;&gt;N3</title>
<path fill="none" stroke="#4e9a06" stroke-width="2" d="M158.358,-214.5C142.613,-208.581 125.106,-200.475 111,-190 95.2834,-178.33 81.3385,-161.221 71.4226,-147.213"/>
<polygon fill="#4e9a06" stroke="#4e9a06" points="67.1582,-141.026 74.1934,-145.286 69.6981,-143.83 71.8263,-146.918 71.4146,-147.202 71.0029,-147.485 68.8747,-144.398 68.6357,-149.117 67.1582,-141.026 67.1582,-141.026"/>
<text text-anchor="middle" x="129.5" y="-177.8" font-family="FreeSans" font-size="8.00" fill="#4e9a06">KNOWS</text>
<text text-anchor="start" x="111" y="-167.8" font-family="FreeSans" font-size="8.00" fill="#4e9a06">weight = 4</text>
</g>
<!-- N6&#45;&gt;N4 -->
<g id="edge12" class="edge"><title>N6&#45;&gt;N4</title>
<path fill="none" stroke="#4e9a06" stroke-width="2" d="M215.154,-208.885C229.413,-191.839 250.87,-166.19 266.622,-147.359"/>
<polygon fill="#4e9a06" stroke="#4e9a06" points="271.728,-141.257 269.504,-149.175 269.705,-144.454 267.299,-147.33 266.915,-147.009 266.532,-146.689 268.938,-143.812 264.327,-144.844 271.728,-141.257 271.728,-141.257"/>
<text text-anchor="middle" x="271.5" y="-177.8" font-family="FreeSans" font-size="8.00" fill="#4e9a06">KNOWS</text>
<text text-anchor="start" x="253" y="-167.8" font-family="FreeSans" font-size="8.00" fill="#4e9a06">weight = 4</text>
</g>
<!-- N7 -->
<g id="node15" class="node"><title>N7</title>
<polygon fill="#ffffff" stroke="#ffffff" stroke-width="1.5" points="335.5,-303 398.5,-303 410.5,-315 410.5,-327 398.5,-339 335.5,-339 323.5,-327 323.5,-315 335.5,-303"/>
<path fill="#ffffff" stroke="#ffffff" stroke-width="1.5" d="M398.5,-303C404.5,-303 410.5,-309 410.5,-315"/>
<path fill="#ffffff" stroke="#ffffff" stroke-width="1.5" d="M410.5,-327C410.5,-333 404.5,-339 398.5,-339"/>
<path fill="#ffffff" stroke="#ffffff" stroke-width="1.5" d="M335.5,-339C329.5,-339 323.5,-333 323.5,-327"/>
<path fill="#ffffff" stroke="#ffffff" stroke-width="1.5" d="M323.5,-315C323.5,-309 329.5,-303 335.5,-303"/>
<polyline fill="none" stroke="#2e3436" stroke-width="1.5" points="335.5,-303 398.5,-303 "/>
<path fill="none" stroke="#2e3436" stroke-width="1.5" d="M398.5,-303C404.5,-303 410.5,-309 410.5,-315"/>
<polyline fill="none" stroke="#2e3436" stroke-width="1.5" points="410.5,-315 410.5,-327 "/>
<path fill="none" stroke="#2e3436" stroke-width="1.5" d="M410.5,-327C410.5,-333 404.5,-339 398.5,-339"/>
<polyline fill="none" stroke="#2e3436" stroke-width="1.5" points="398.5,-339 335.5,-339 "/>
<path fill="none" stroke="#2e3436" stroke-width="1.5" d="M335.5,-339C329.5,-339 323.5,-333 323.5,-327"/>
<polyline fill="none" stroke="#2e3436" stroke-width="1.5" points="323.5,-327 323.5,-315 "/>
<path fill="none" stroke="#2e3436" stroke-width="1.5" d="M323.5,-315C323.5,-309 329.5,-303 335.5,-303"/>
<text text-anchor="start" x="331.5" y="-318.8" font-family="FreeSans" font-size="8.00" fill="#1c2021">name = &#39;Clark Kent&#39;</text>
</g>
<!-- N7&#45;&gt;N2 -->
<g id="edge22" class="edge"><title>N7&#45;&gt;N2</title>
<path fill="none" stroke="#2e3436" stroke-width="2" d="M392.504,-302.713C399.072,-297.202 405.758,-290.797 411,-284 422.413,-269.202 424.9,-264.233 429,-246 434.702,-220.641 439.618,-144.274 427,-104 419.386,-79.6976 400.467,-58.0212 383.798,-42.6409"/>
<polygon fill="#2e3436" stroke="#2e3436" points="377.783,-37.2661 385.624,-39.7471 380.913,-39.3921 383.709,-41.8909 383.376,-42.2637 383.042,-42.6365 380.246,-40.1377 381.127,-44.7803 377.783,-37.2661 377.783,-37.2661"/>
<text text-anchor="middle" x="455.5" y="-182.8" font-family="FreeSans" font-size="8.00" fill="#2e3436">WORKSAT</text>
<text text-anchor="start" x="434" y="-172.8" font-family="FreeSans" font-size="8.00" fill="#2e3436">weight = 2</text>
<text text-anchor="start" x="434" y="-162.8" font-family="FreeSans" font-size="8.00" fill="#2e3436">activity = 45</text>
</g>
<!-- N7&#45;&gt;N5 -->
<g id="edge20" class="edge"><title>N7&#45;&gt;N5</title>
<path fill="none" stroke="#4e9a06" stroke-width="2" d="M367,-302.876C367,-288.701 367,-268.806 367,-252.944"/>
<polygon fill="#4e9a06" stroke="#4e9a06" points="367,-245.069 370.375,-252.568 367.5,-248.818 367.5,-252.568 367,-252.569 366.5,-252.569 366.5,-248.819 363.625,-252.569 367,-245.069 367,-245.069"/>
<text text-anchor="middle" x="385.5" y="-276.8" font-family="FreeSans" font-size="8.00" fill="#4e9a06">KNOWS</text>
<text text-anchor="start" x="367" y="-266.8" font-family="FreeSans" font-size="8.00" fill="#4e9a06">weight = 4</text>
</g>
<!-- N7&#45;&gt;N6 -->
<g id="edge18" class="edge"><title>N7&#45;&gt;N6</title>
<path fill="none" stroke="#4e9a06" stroke-width="2" d="M334.801,-302.876C307.424,-287.466 268.034,-265.295 238.898,-248.895"/>
<polygon fill="#4e9a06" stroke="#4e9a06" points="232.1,-245.069 240.292,-245.806 235.614,-246.472 238.881,-248.312 238.636,-248.747 238.391,-249.183 235.123,-247.344 236.981,-251.688 232.1,-245.069 232.1,-245.069"/>
<text text-anchor="middle" x="316.5" y="-276.8" font-family="FreeSans" font-size="8.00" fill="#4e9a06">KNOWS</text>
<text text-anchor="start" x="298" y="-266.8" font-family="FreeSans" font-size="8.00" fill="#4e9a06">weight = 4</text>
</g>
</g>
</svg>
