<?xml version="1.0" encoding="UTF-8" standalone="no"?>
<!DOCTYPE svg PUBLIC "-//W3C//DTD SVG 1.1//EN"
 "http://www.w3.org/Graphics/SVG/1.1/DTD/svg11.dtd">
<!-- Generated by graphviz version 2.26.3 (20100126.1600)
 -->
<!-- Title: g Pages: 1 -->
<svg width="504pt" height="266pt"
 viewBox="0.00 0.00 504.00 266.30" xmlns="http://www.w3.org/2000/svg" xmlns:xlink="http://www.w3.org/1999/xlink">
<g id="graph1" class="graph" transform="scale(0.789018 0.789018) rotate(0) translate(4 333.512)">
<title>g</title>
<polygon fill="white" stroke="white" points="-4,5 -4,-333.512 635.769,-333.512 635.769,5 -4,5"/>
<!-- N1 -->
<g id="node1" class="node"><title>N1</title>
<polygon fill="#ffffff" stroke="#ffffff" stroke-width="1.5" points="13,-179.808 53,-179.808 65,-191.808 65,-203.808 53,-215.808 13,-215.808 1,-203.808 1,-191.808 13,-179.808"/>
<path fill="#ffffff" stroke="#ffffff" stroke-width="1.5" d="M53,-179.808C59,-179.808 65,-185.808 65,-191.808"/>
<path fill="#ffffff" stroke="#ffffff" stroke-width="1.5" d="M65,-203.808C65,-209.808 59,-215.808 53,-215.808"/>
<path fill="#ffffff" stroke="#ffffff" stroke-width="1.5" d="M13,-215.808C7,-215.808 1,-209.808 1,-203.808"/>
<path fill="#ffffff" stroke="#ffffff" stroke-width="1.5" d="M1,-191.808C1,-185.808 7,-179.808 13,-179.808"/>
<polyline fill="none" stroke="#2e3436" stroke-width="1.5" points="13,-179.808 53,-179.808 "/>
<path fill="none" stroke="#2e3436" stroke-width="1.5" d="M53,-179.808C59,-179.808 65,-185.808 65,-191.808"/>
<polyline fill="none" stroke="#2e3436" stroke-width="1.5" points="65,-191.808 65,-203.808 "/>
<path fill="none" stroke="#2e3436" stroke-width="1.5" d="M65,-203.808C65,-209.808 59,-215.808 53,-215.808"/>
<polyline fill="none" stroke="#2e3436" stroke-width="1.5" points="53,-215.808 13,-215.808 "/>
<path fill="none" stroke="#2e3436" stroke-width="1.5" d="M13,-215.808C7,-215.808 1,-209.808 1,-203.808"/>
<polyline fill="none" stroke="#2e3436" stroke-width="1.5" points="1,-203.808 1,-191.808 "/>
<path fill="none" stroke="#2e3436" stroke-width="1.5" d="M1,-191.808C1,-185.808 7,-179.808 13,-179.808"/>
<text text-anchor="start" x="9" y="-195.608" font-family="FreeSans" font-size="8.00" fill="#1c2021">name = &#39;cats&#39;</text>
</g>
<!-- N2 -->
<g id="node2" class="node"><title>N2</title>
<polygon fill="#ffffff" stroke="#ffffff" stroke-width="1.5" points="239.991,-1.5 287.991,-1.5 299.991,-13.5 299.991,-25.5 287.991,-37.5 239.991,-37.5 227.991,-25.5 227.991,-13.5 239.991,-1.5"/>
<path fill="#ffffff" stroke="#ffffff" stroke-width="1.5" d="M287.991,-1.5C293.991,-1.5 299.991,-7.5 299.991,-13.5"/>
<path fill="#ffffff" stroke="#ffffff" stroke-width="1.5" d="M299.991,-25.5C299.991,-31.5 293.991,-37.5 287.991,-37.5"/>
<path fill="#ffffff" stroke="#ffffff" stroke-width="1.5" d="M239.991,-37.5C233.991,-37.5 227.991,-31.5 227.991,-25.5"/>
<path fill="#ffffff" stroke="#ffffff" stroke-width="1.5" d="M227.991,-13.5C227.991,-7.5 233.991,-1.5 239.991,-1.5"/>
<polyline fill="none" stroke="#2e3436" stroke-width="1.5" points="239.991,-1.5 287.991,-1.5 "/>
<path fill="none" stroke="#2e3436" stroke-width="1.5" d="M287.991,-1.5C293.991,-1.5 299.991,-7.5 299.991,-13.5"/>
<polyline fill="none" stroke="#2e3436" stroke-width="1.5" points="299.991,-13.5 299.991,-25.5 "/>
<path fill="none" stroke="#2e3436" stroke-width="1.5" d="M299.991,-25.5C299.991,-31.5 293.991,-37.5 287.991,-37.5"/>
<polyline fill="none" stroke="#2e3436" stroke-width="1.5" points="287.991,-37.5 239.991,-37.5 "/>
<path fill="none" stroke="#2e3436" stroke-width="1.5" d="M239.991,-37.5C233.991,-37.5 227.991,-31.5 227.991,-25.5"/>
<polyline fill="none" stroke="#2e3436" stroke-width="1.5" points="227.991,-25.5 227.991,-13.5 "/>
<path fill="none" stroke="#2e3436" stroke-width="1.5" d="M227.991,-13.5C227.991,-7.5 233.991,-1.5 239.991,-1.5"/>
<text text-anchor="start" x="235.991" y="-17.3" font-family="FreeSans" font-size="8.00" fill="#1c2021">name = &#39;nature&#39;</text>
</g>
<!-- N3 -->
<g id="node3" class="node"><title>N3</title>
<polygon fill="#ffffff" stroke="#ffffff" stroke-width="1.5" points="578.769,-246.717 617.769,-246.717 629.769,-258.717 629.769,-270.717 617.769,-282.717 578.769,-282.717 566.769,-270.717 566.769,-258.717 578.769,-246.717"/>
<path fill="#ffffff" stroke="#ffffff" stroke-width="1.5" d="M617.769,-246.717C623.769,-246.717 629.769,-252.717 629.769,-258.717"/>
<path fill="#ffffff" stroke="#ffffff" stroke-width="1.5" d="M629.769,-270.717C629.769,-276.717 623.769,-282.717 617.769,-282.717"/>
<path fill="#ffffff" stroke="#ffffff" stroke-width="1.5" d="M578.769,-282.717C572.769,-282.717 566.769,-276.717 566.769,-270.717"/>
<path fill="#ffffff" stroke="#ffffff" stroke-width="1.5" d="M566.769,-258.717C566.769,-252.717 572.769,-246.717 578.769,-246.717"/>
<polyline fill="none" stroke="#2e3436" stroke-width="1.5" points="578.769,-246.717 617.769,-246.717 "/>
<path fill="none" stroke="#2e3436" stroke-width="1.5" d="M617.769,-246.717C623.769,-246.717 629.769,-252.717 629.769,-258.717"/>
<polyline fill="none" stroke="#2e3436" stroke-width="1.5" points="629.769,-258.717 629.769,-270.717 "/>
<path fill="none" stroke="#2e3436" stroke-width="1.5" d="M629.769,-270.717C629.769,-276.717 623.769,-282.717 617.769,-282.717"/>
<polyline fill="none" stroke="#2e3436" stroke-width="1.5" points="617.769,-282.717 578.769,-282.717 "/>
<path fill="none" stroke="#2e3436" stroke-width="1.5" d="M578.769,-282.717C572.769,-282.717 566.769,-276.717 566.769,-270.717"/>
<polyline fill="none" stroke="#2e3436" stroke-width="1.5" points="566.769,-270.717 566.769,-258.717 "/>
<path fill="none" stroke="#2e3436" stroke-width="1.5" d="M566.769,-258.717C566.769,-252.717 572.769,-246.717 578.769,-246.717"/>
<text text-anchor="start" x="574.769" y="-262.517" font-family="FreeSans" font-size="8.00" fill="#1c2021">name = &#39;Ben&#39;</text>
</g>
<!-- N4 -->
<g id="node4" class="node"><title>N4</title>
<polygon fill="#ffffff" stroke="#ffffff" stroke-width="1.5" points="478.874,-214.612 520.874,-214.612 532.874,-226.612 532.874,-238.612 520.874,-250.612 478.874,-250.612 466.874,-238.612 466.874,-226.612 478.874,-214.612"/>
<path fill="#ffffff" stroke="#ffffff" stroke-width="1.5" d="M520.874,-214.612C526.874,-214.612 532.874,-220.612 532.874,-226.612"/>
<path fill="#ffffff" stroke="#ffffff" stroke-width="1.5" d="M532.874,-238.612C532.874,-244.612 526.874,-250.612 520.874,-250.612"/>
<path fill="#ffffff" stroke="#ffffff" stroke-width="1.5" d="M478.874,-250.612C472.874,-250.612 466.874,-244.612 466.874,-238.612"/>
<path fill="#ffffff" stroke="#ffffff" stroke-width="1.5" d="M466.874,-226.612C466.874,-220.612 472.874,-214.612 478.874,-214.612"/>
<polyline fill="none" stroke="#2e3436" stroke-width="1.5" points="478.874,-214.612 520.874,-214.612 "/>
<path fill="none" stroke="#2e3436" stroke-width="1.5" d="M520.874,-214.612C526.874,-214.612 532.874,-220.612 532.874,-226.612"/>
<polyline fill="none" stroke="#2e3436" stroke-width="1.5" points="532.874,-226.612 532.874,-238.612 "/>
<path fill="none" stroke="#2e3436" stroke-width="1.5" d="M532.874,-238.612C532.874,-244.612 526.874,-250.612 520.874,-250.612"/>
<polyline fill="none" stroke="#2e3436" stroke-width="1.5" points="520.874,-250.612 478.874,-250.612 "/>
<path fill="none" stroke="#2e3436" stroke-width="1.5" d="M478.874,-250.612C472.874,-250.612 466.874,-244.612 466.874,-238.612"/>
<polyline fill="none" stroke="#2e3436" stroke-width="1.5" points="466.874,-238.612 466.874,-226.612 "/>
<path fill="none" stroke="#2e3436" stroke-width="1.5" d="M466.874,-226.612C466.874,-220.612 472.874,-214.612 478.874,-214.612"/>
<text text-anchor="start" x="474.874" y="-230.412" font-family="FreeSans" font-size="8.00" fill="#1c2021">name = &#39;Sara&#39;</text>
</g>
<!-- N4&#45;&gt;N1 -->
<g id="edge10" class="edge"><title>N4&#45;&gt;N1</title>
<path fill="none" stroke="#4e9a06" stroke-width="2" d="M466.672,-230.137C382.869,-223.89 163.041,-207.502 72.6685,-200.765"/>
<polygon fill="#4e9a06" stroke="#4e9a06" points="65.1031,-200.201 72.8333,-197.393 68.8799,-199.982 72.6195,-200.26 72.5823,-200.759 72.5452,-201.258 68.8055,-200.979 72.3314,-204.125 65.1031,-200.201 65.1031,-200.201"/>
<text text-anchor="middle" x="269.67" y="-219.251" font-family="FreeSans" font-size="8.00" fill="#4e9a06">LIKES</text>
</g>
<!-- N4&#45;&gt;N3 -->
<g id="edge4" class="edge"><title>N4&#45;&gt;N3</title>
<path fill="none" stroke="#2e3436" stroke-width="2" d="M532.912,-243.392C541.374,-246.153 550.553,-249.148 559.283,-251.996"/>
<polygon fill="#2e3436" stroke="#2e3436" points="566.485,-254.346 558.308,-255.229 562.765,-253.659 559.2,-252.495 559.355,-252.02 559.51,-251.545 563.075,-252.708 560.402,-248.811 566.485,-254.346 566.485,-254.346"/>
<text text-anchor="middle" x="549.097" y="-235.494" font-family="FreeSans" font-size="8.00" fill="#2e3436">FOLLOWS</text>
</g>
<!-- N8 -->
<g id="node6" class="node"><title>N8</title>
<polygon fill="#ffffff" stroke="#ffffff" stroke-width="1.5" points="308.364,-88.9519 346.364,-88.9519 358.364,-100.952 358.364,-112.952 346.364,-124.952 308.364,-124.952 296.364,-112.952 296.364,-100.952 308.364,-88.9519"/>
<path fill="#ffffff" stroke="#ffffff" stroke-width="1.5" d="M346.364,-88.9519C352.364,-88.9519 358.364,-94.9519 358.364,-100.952"/>
<path fill="#ffffff" stroke="#ffffff" stroke-width="1.5" d="M358.364,-112.952C358.364,-118.952 352.364,-124.952 346.364,-124.952"/>
<path fill="#ffffff" stroke="#ffffff" stroke-width="1.5" d="M308.364,-124.952C302.364,-124.952 296.364,-118.952 296.364,-112.952"/>
<path fill="#ffffff" stroke="#ffffff" stroke-width="1.5" d="M296.364,-100.952C296.364,-94.9519 302.364,-88.9519 308.364,-88.9519"/>
<polyline fill="none" stroke="#2e3436" stroke-width="1.5" points="308.364,-88.9519 346.364,-88.9519 "/>
<path fill="none" stroke="#2e3436" stroke-width="1.5" d="M346.364,-88.9519C352.364,-88.9519 358.364,-94.9519 358.364,-100.952"/>
<polyline fill="none" stroke="#2e3436" stroke-width="1.5" points="358.364,-100.952 358.364,-112.952 "/>
<path fill="none" stroke="#2e3436" stroke-width="1.5" d="M358.364,-112.952C358.364,-118.952 352.364,-124.952 346.364,-124.952"/>
<polyline fill="none" stroke="#2e3436" stroke-width="1.5" points="346.364,-124.952 308.364,-124.952 "/>
<path fill="none" stroke="#2e3436" stroke-width="1.5" d="M308.364,-124.952C302.364,-124.952 296.364,-118.952 296.364,-112.952"/>
<polyline fill="none" stroke="#2e3436" stroke-width="1.5" points="296.364,-112.952 296.364,-100.952 "/>
<path fill="none" stroke="#2e3436" stroke-width="1.5" d="M296.364,-100.952C296.364,-94.9519 302.364,-88.9519 308.364,-88.9519"/>
<text text-anchor="start" x="304.364" y="-104.752" font-family="FreeSans" font-size="8.00" fill="#1c2021">name = &#39;Joe&#39;</text>
</g>
<!-- N4&#45;&gt;N8 -->
<g id="edge2" class="edge"><title>N4&#45;&gt;N8</title>
<path fill="none" stroke="#2e3436" stroke-width="2" d="M486.299,-214.496C460.253,-190.021 403.186,-147.718 364.927,-123.883"/>
<polygon fill="#2e3436" stroke="#2e3436" points="358.486,-119.938 366.644,-120.977 361.945,-121.47 365.143,-123.429 364.882,-123.855 364.621,-124.281 361.423,-122.323 363.119,-126.733 358.486,-119.938 358.486,-119.938"/>
<text text-anchor="middle" x="416.613" y="-178.989" font-family="FreeSans" font-size="8.00" fill="#2e3436">FOLLOWS</text>
</g>
<!-- N5 -->
<g id="node9" class="node"><title>N5</title>
<polygon fill="#ffffff" stroke="#ffffff" stroke-width="1.5" points="437.268,-89.1142 481.268,-89.1142 493.268,-101.114 493.268,-113.114 481.268,-125.114 437.268,-125.114 425.268,-113.114 425.268,-101.114 437.268,-89.1142"/>
<path fill="#ffffff" stroke="#ffffff" stroke-width="1.5" d="M481.268,-89.1142C487.268,-89.1142 493.268,-95.1142 493.268,-101.114"/>
<path fill="#ffffff" stroke="#ffffff" stroke-width="1.5" d="M493.268,-113.114C493.268,-119.114 487.268,-125.114 481.268,-125.114"/>
<path fill="#ffffff" stroke="#ffffff" stroke-width="1.5" d="M437.268,-125.114C431.268,-125.114 425.268,-119.114 425.268,-113.114"/>
<path fill="#ffffff" stroke="#ffffff" stroke-width="1.5" d="M425.268,-101.114C425.268,-95.1142 431.268,-89.1142 437.268,-89.1142"/>
<polyline fill="none" stroke="#2e3436" stroke-width="1.5" points="437.268,-89.1142 481.268,-89.1142 "/>
<path fill="none" stroke="#2e3436" stroke-width="1.5" d="M481.268,-89.1142C487.268,-89.1142 493.268,-95.1142 493.268,-101.114"/>
<polyline fill="none" stroke="#2e3436" stroke-width="1.5" points="493.268,-101.114 493.268,-113.114 "/>
<path fill="none" stroke="#2e3436" stroke-width="1.5" d="M493.268,-113.114C493.268,-119.114 487.268,-125.114 481.268,-125.114"/>
<polyline fill="none" stroke="#2e3436" stroke-width="1.5" points="481.268,-125.114 437.268,-125.114 "/>
<path fill="none" stroke="#2e3436" stroke-width="1.5" d="M437.268,-125.114C431.268,-125.114 425.268,-119.114 425.268,-113.114"/>
<polyline fill="none" stroke="#2e3436" stroke-width="1.5" points="425.268,-113.114 425.268,-101.114 "/>
<path fill="none" stroke="#2e3436" stroke-width="1.5" d="M425.268,-101.114C425.268,-95.1142 431.268,-89.1142 437.268,-89.1142"/>
<text text-anchor="start" x="433.268" y="-104.914" font-family="FreeSans" font-size="8.00" fill="#1c2021">name = &#39;bikes&#39;</text>
</g>
<!-- N4&#45;&gt;N5 -->
<g id="edge6" class="edge"><title>N4&#45;&gt;N5</title>
<path fill="none" stroke="#4e9a06" stroke-width="2" d="M493.97,-214.364C487.023,-192.894 475.442,-157.104 467.588,-132.829"/>
<polygon fill="#4e9a06" stroke="#4e9a06" points="465.18,-125.385 470.7,-131.482 466.81,-128.799 467.964,-132.367 467.488,-132.521 467.013,-132.674 465.858,-129.107 464.277,-133.56 465.18,-125.385 465.18,-125.385"/>
<text text-anchor="middle" x="493.779" y="-167.396" font-family="FreeSans" font-size="8.00" fill="#4e9a06">LIKES</text>
</g>
<!-- N7 -->
<g id="node11" class="node"><title>N7</title>
<polygon fill="#ffffff" stroke="#ffffff" stroke-width="1.5" points="372.566,-292.012 413.566,-292.012 425.566,-304.012 425.566,-316.012 413.566,-328.012 372.566,-328.012 360.566,-316.012 360.566,-304.012 372.566,-292.012"/>
<path fill="#ffffff" stroke="#ffffff" stroke-width="1.5" d="M413.566,-292.012C419.566,-292.012 425.566,-298.012 425.566,-304.012"/>
<path fill="#ffffff" stroke="#ffffff" stroke-width="1.5" d="M425.566,-316.012C425.566,-322.012 419.566,-328.012 413.566,-328.012"/>
<path fill="#ffffff" stroke="#ffffff" stroke-width="1.5" d="M372.566,-328.012C366.566,-328.012 360.566,-322.012 360.566,-316.012"/>
<path fill="#ffffff" stroke="#ffffff" stroke-width="1.5" d="M360.566,-304.012C360.566,-298.012 366.566,-292.012 372.566,-292.012"/>
<polyline fill="none" stroke="#2e3436" stroke-width="1.5" points="372.566,-292.012 413.566,-292.012 "/>
<path fill="none" stroke="#2e3436" stroke-width="1.5" d="M413.566,-292.012C419.566,-292.012 425.566,-298.012 425.566,-304.012"/>
<polyline fill="none" stroke="#2e3436" stroke-width="1.5" points="425.566,-304.012 425.566,-316.012 "/>
<path fill="none" stroke="#2e3436" stroke-width="1.5" d="M425.566,-316.012C425.566,-322.012 419.566,-328.012 413.566,-328.012"/>
<polyline fill="none" stroke="#2e3436" stroke-width="1.5" points="413.566,-328.012 372.566,-328.012 "/>
<path fill="none" stroke="#2e3436" stroke-width="1.5" d="M372.566,-328.012C366.566,-328.012 360.566,-322.012 360.566,-316.012"/>
<polyline fill="none" stroke="#2e3436" stroke-width="1.5" points="360.566,-316.012 360.566,-304.012 "/>
<path fill="none" stroke="#2e3436" stroke-width="1.5" d="M360.566,-304.012C360.566,-298.012 366.566,-292.012 372.566,-292.012"/>
<text text-anchor="start" x="368.566" y="-307.812" font-family="FreeSans" font-size="8.00" fill="#1c2021">name = &#39;cars&#39;</text>
</g>
<!-- N4&#45;&gt;N7 -->
<g id="edge8" class="edge"><title>N4&#45;&gt;N7</title>
<path fill="none" stroke="#4e9a06" stroke-width="2" d="M474.832,-250.759C459.7,-261.725 440.288,-275.793 424.175,-287.469"/>
<polygon fill="#4e9a06" stroke="#4e9a06" points="417.951,-291.979 422.044,-284.845 420.694,-289.374 423.731,-287.173 424.024,-287.578 424.317,-287.983 421.281,-290.184 426.004,-290.311 417.951,-291.979 417.951,-291.979"/>
<text text-anchor="middle" x="456.504" y="-275.914" font-family="FreeSans" font-size="8.00" fill="#4e9a06">LIKES</text>
</g>
<!-- N8&#45;&gt;N2 -->
<g id="edge26" class="edge"><title>N8&#45;&gt;N2</title>
<path fill="none" stroke="#4e9a06" stroke-width="2" d="M314.233,-88.8318C304.801,-75.8163 291.983,-58.1273 281.654,-43.8745"/>
<polygon fill="#4e9a06" stroke="#4e9a06" points="277.105,-37.5969 284.239,-41.6895 279.71,-40.34 281.911,-43.3765 281.506,-43.6699 281.101,-43.9633 278.901,-40.9268 278.773,-45.6504 277.105,-37.5969 277.105,-37.5969"/>
<text text-anchor="middle" x="308.944" y="-56.1532" font-family="FreeSans" font-size="8.00" fill="#4e9a06">LIKES</text>
</g>
<!-- N8&#45;&gt;N4 -->
<g id="edge18" class="edge"><title>N8&#45;&gt;N4</title>
<path fill="none" stroke="#2e3436" stroke-width="2" d="M340.372,-125.177C365.697,-149.488 421.66,-191.128 460.164,-215.059"/>
<polygon fill="#2e3436" stroke="#2e3436" points="466.662,-219.028 458.502,-217.999 463.201,-217.5 460,-215.545 460.261,-215.119 460.522,-214.692 463.722,-216.647 462.02,-212.238 466.662,-219.028 466.662,-219.028"/>
<text text-anchor="middle" x="391.268" y="-179.918" font-family="FreeSans" font-size="8.00" fill="#2e3436">FOLLOWS</text>
</g>
<!-- N8&#45;&gt;N5 -->
<g id="edge24" class="edge"><title>N8&#45;&gt;N5</title>
<path fill="none" stroke="#4e9a06" stroke-width="2" d="M358.623,-106.99C376.166,-107.012 398.287,-107.039 417.32,-107.063"/>
<polygon fill="#4e9a06" stroke="#4e9a06" points="424.991,-107.072 417.487,-110.438 421.24,-107.567 417.49,-107.563 417.491,-107.063 417.492,-106.563 421.242,-106.567 417.495,-103.688 424.991,-107.072 424.991,-107.072"/>
<text text-anchor="middle" x="387.972" y="-98.8265" font-family="FreeSans" font-size="8.00" fill="#4e9a06">LIKES</text>
</g>
<!-- N6 -->
<g id="node13" class="node"><title>N6</title>
<polygon fill="#ffffff" stroke="#ffffff" stroke-width="1.5" points="263.949,-214.35 308.949,-214.35 320.949,-226.35 320.949,-238.35 308.949,-250.35 263.949,-250.35 251.949,-238.35 251.949,-226.35 263.949,-214.35"/>
<path fill="#ffffff" stroke="#ffffff" stroke-width="1.5" d="M308.949,-214.35C314.949,-214.35 320.949,-220.35 320.949,-226.35"/>
<path fill="#ffffff" stroke="#ffffff" stroke-width="1.5" d="M320.949,-238.35C320.949,-244.35 314.949,-250.35 308.949,-250.35"/>
<path fill="#ffffff" stroke="#ffffff" stroke-width="1.5" d="M263.949,-250.35C257.949,-250.35 251.949,-244.35 251.949,-238.35"/>
<path fill="#ffffff" stroke="#ffffff" stroke-width="1.5" d="M251.949,-226.35C251.949,-220.35 257.949,-214.35 263.949,-214.35"/>
<polyline fill="none" stroke="#2e3436" stroke-width="1.5" points="263.949,-214.35 308.949,-214.35 "/>
<path fill="none" stroke="#2e3436" stroke-width="1.5" d="M308.949,-214.35C314.949,-214.35 320.949,-220.35 320.949,-226.35"/>
<polyline fill="none" stroke="#2e3436" stroke-width="1.5" points="320.949,-226.35 320.949,-238.35 "/>
<path fill="none" stroke="#2e3436" stroke-width="1.5" d="M320.949,-238.35C320.949,-244.35 314.949,-250.35 308.949,-250.35"/>
<polyline fill="none" stroke="#2e3436" stroke-width="1.5" points="308.949,-250.35 263.949,-250.35 "/>
<path fill="none" stroke="#2e3436" stroke-width="1.5" d="M263.949,-250.35C257.949,-250.35 251.949,-244.35 251.949,-238.35"/>
<polyline fill="none" stroke="#2e3436" stroke-width="1.5" points="251.949,-238.35 251.949,-226.35 "/>
<path fill="none" stroke="#2e3436" stroke-width="1.5" d="M251.949,-226.35C251.949,-220.35 257.949,-214.35 263.949,-214.35"/>
<text text-anchor="start" x="259.949" y="-230.15" font-family="FreeSans" font-size="8.00" fill="#1c2021">name = &#39;Maria&#39;</text>
</g>
<!-- N8&#45;&gt;N6 -->
<g id="edge22" class="edge"><title>N8&#45;&gt;N6</title>
<path fill="none" stroke="#a40000" stroke-width="2" d="M296.315,-120.989C279.056,-141.955 267.037,-180.332 269.963,-206.369"/>
<polygon fill="#a40000" stroke="#a40000" points="271.362,-214.021 266.693,-207.25 270.196,-210.422 269.521,-206.733 270.013,-206.643 270.505,-206.553 271.179,-210.242 273.333,-206.036 271.362,-214.021 271.362,-214.021"/>
<text text-anchor="middle" x="298.139" y="-165.479" font-family="FreeSans" font-size="8.00" fill="#a40000">LOVES</text>
</g>
<!-- N8&#45;&gt;N6 -->
<g id="edge20" class="edge"><title>N8&#45;&gt;N6</title>
<path fill="none" stroke="#2e3436" stroke-width="2" d="M342.785,-125.037C349.14,-147.298 340.403,-183.977 325.275,-208.405"/>
<polygon fill="#2e3436" stroke="#2e3436" points="321.073,-214.641 322.465,-206.536 322.754,-211.252 324.85,-208.142 325.264,-208.422 325.679,-208.701 323.583,-211.811 328.063,-210.308 321.073,-214.641 321.073,-214.641"/>
<text text-anchor="middle" x="352.03" y="-167.521" font-family="FreeSans" font-size="8.00" fill="#2e3436">FOLLOWS</text>
</g>
<!-- N6&#45;&gt;N8 -->
<g id="edge12" class="edge"><title>N6&#45;&gt;N8</title>
<path fill="none" stroke="#2e3436" stroke-width="2" d="M301.391,-214.314C311.958,-192.897 323.743,-157.142 328.345,-132.799"/>
<polygon fill="#2e3436" stroke="#2e3436" points="329.576,-125.33 331.686,-133.279 329.459,-129.111 328.849,-132.811 328.356,-132.73 327.863,-132.649 328.473,-128.948 325.026,-132.181 329.576,-125.33 329.576,-125.33"/>
<text text-anchor="middle" x="296.868" y="-166.357" font-family="FreeSans" font-size="8.00" fill="#2e3436">FOLLOWS</text>
</g>
<!-- N6&#45;&gt;N8 -->
<g id="edge14" class="edge"><title>N6&#45;&gt;N8</title>
<path fill="none" stroke="#a40000" stroke-width="2" d="M284.72,-214.213C287.925,-192.561 299.17,-156.343 309.82,-132.032"/>
<polygon fill="#a40000" stroke="#a40000" points="312.948,-125.206 312.892,-133.43 311.841,-128.823 310.278,-132.232 309.824,-132.024 309.369,-131.816 310.932,-128.407 306.756,-130.618 312.948,-125.206 312.948,-125.206"/>
<text text-anchor="middle" x="312.27" y="-174.923" font-family="FreeSans" font-size="8.00" fill="#a40000">LOVES</text>
</g>
<!-- N6&#45;&gt;N7 -->
<g id="edge16" class="edge"><title>N6&#45;&gt;N7</title>
<path fill="none" stroke="#4e9a06" stroke-width="2" d="M311.177,-250.362C326.274,-261.359 345.713,-275.519 361.863,-287.283"/>
<polygon fill="#4e9a06" stroke="#4e9a06" points="368.103,-291.828 360.053,-290.141 364.777,-290.025 361.746,-287.817 362.041,-287.413 362.335,-287.008 365.366,-289.216 364.028,-284.685 368.103,-291.828 368.103,-291.828"/>
<text text-anchor="middle" x="329.52" y="-275.623" font-family="FreeSans" font-size="8.00" fill="#4e9a06">LIKES</text>
</g>
</g>
</svg>
