<?xml version="1.0" encoding="UTF-8" standalone="no"?>
<!DOCTYPE svg PUBLIC "-//W3C//DTD SVG 1.1//EN"
 "http://www.w3.org/Graphics/SVG/1.1/DTD/svg11.dtd">
<!-- Generated by graphviz version 2.26.3 (20100126.1600)
 -->
<!-- Title: g Pages: 1 -->
<svg width="175pt" height="244pt"
 viewBox="0.00 0.00 175.00 244.00" xmlns="http://www.w3.org/2000/svg" xmlns:xlink="http://www.w3.org/1999/xlink">
<g id="graph1" class="graph" transform="scale(1 1) rotate(0) translate(4 240)">
<title>g</title>
<polygon fill="white" stroke="white" points="-4,5 -4,-240 172,-240 172,5 -4,5"/>
<!-- N1 -->
<g id="node1" class="node"><title>N1</title>
<polygon fill="#ffffff" stroke="#ffffff" stroke-width="1.5" points="12,-105 52,-105 64,-117 64,-129 52,-141 12,-141 0,-129 0,-117 12,-105"/>
<path fill="#ffffff" stroke="#ffffff" stroke-width="1.5" d="M52,-105C58,-105 64,-111 64,-117"/>
<path fill="#ffffff" stroke="#ffffff" stroke-width="1.5" d="M64,-129C64,-135 58,-141 52,-141"/>
<path fill="#ffffff" stroke="#ffffff" stroke-width="1.5" d="M12,-141C6,-141 0,-135 0,-129"/>
<path fill="#ffffff" stroke="#ffffff" stroke-width="1.5" d="M0,-117C0,-111 6,-105 12,-105"/>
<polyline fill="none" stroke="#2e3436" stroke-width="1.5" points="12,-105 52,-105 "/>
<path fill="none" stroke="#2e3436" stroke-width="1.5" d="M52,-105C58,-105 64,-111 64,-117"/>
<polyline fill="none" stroke="#2e3436" stroke-width="1.5" points="64,-117 64,-129 "/>
<path fill="none" stroke="#2e3436" stroke-width="1.5" d="M64,-129C64,-135 58,-141 52,-141"/>
<polyline fill="none" stroke="#2e3436" stroke-width="1.5" points="52,-141 12,-141 "/>
<path fill="none" stroke="#2e3436" stroke-width="1.5" d="M12,-141C6,-141 0,-135 0,-129"/>
<polyline fill="none" stroke="#2e3436" stroke-width="1.5" points="0,-129 0,-117 "/>
<path fill="none" stroke="#2e3436" stroke-width="1.5" d="M0,-117C0,-111 6,-105 12,-105"/>
<text text-anchor="middle" x="32" y="-129.8" font-family="FreeSans" font-size="8.00" fill="#1c2021">Node[1]</text>
<polyline fill="none" stroke="#2e3436" stroke-width="1.5" points="0,-123 64,-123 "/>
<text text-anchor="start" x="8" y="-111.8" font-family="FreeSans" font-size="8.00" fill="#1c2021">name = &#39;Emil&#39;</text>
</g>
<!-- N3 -->
<g id="node3" class="node"><title>N3</title>
<polygon fill="#ffffff" stroke="#ffffff" stroke-width="1.5" points="50,-1 94,-1 106,-13 106,-35 94,-47 50,-47 38,-35 38,-13 50,-1"/>
<path fill="#ffffff" stroke="#ffffff" stroke-width="1.5" d="M94,-1C100,-1 106,-7 106,-13"/>
<path fill="#ffffff" stroke="#ffffff" stroke-width="1.5" d="M106,-35C106,-41 100,-47 94,-47"/>
<path fill="#ffffff" stroke="#ffffff" stroke-width="1.5" d="M50,-47C44,-47 38,-41 38,-35"/>
<path fill="#ffffff" stroke="#ffffff" stroke-width="1.5" d="M38,-13C38,-7 44,-1 50,-1"/>
<polyline fill="none" stroke="#2e3436" stroke-width="1.5" points="50,-1 94,-1 "/>
<path fill="none" stroke="#2e3436" stroke-width="1.5" d="M94,-1C100,-1 106,-7 106,-13"/>
<polyline fill="none" stroke="#2e3436" stroke-width="1.5" points="106,-13 106,-35 "/>
<path fill="none" stroke="#2e3436" stroke-width="1.5" d="M106,-35C106,-41 100,-47 94,-47"/>
<polyline fill="none" stroke="#2e3436" stroke-width="1.5" points="94,-47 50,-47 "/>
<path fill="none" stroke="#2e3436" stroke-width="1.5" d="M50,-47C44,-47 38,-41 38,-35"/>
<polyline fill="none" stroke="#2e3436" stroke-width="1.5" points="38,-35 38,-13 "/>
<path fill="none" stroke="#2e3436" stroke-width="1.5" d="M38,-13C38,-7 44,-1 50,-1"/>
<text text-anchor="middle" x="72" y="-35.8" font-family="FreeSans" font-size="8.00" fill="#1c2021">Node[3]</text>
<polyline fill="none" stroke="#2e3436" stroke-width="1.5" points="38,-29 106,-29 "/>
<text text-anchor="start" x="46" y="-17.8" font-family="FreeSans" font-size="8.00" fill="#1c2021">age = 34</text>
<text text-anchor="start" x="46" y="-7.8" font-family="FreeSans" font-size="8.00" fill="#1c2021">name = &#39;Peter&#39;</text>
</g>
<!-- N1&#45;&gt;N3 -->
<g id="edge2" class="edge"><title>N1&#45;&gt;N3</title>
<path fill="none" stroke="#2e3436" stroke-width="2" d="M34.956,-104.823C37.1788,-93.3925 40.7526,-78.4956 46,-66 47.7017,-61.9477 49.7641,-57.8347 51.9746,-53.8476"/>
<polygon fill="#2e3436" stroke="#2e3436" points="55.7969,-47.2894 54.9361,-55.4687 54.3405,-50.7811 52.4522,-54.021 52.0202,-53.7692 51.5882,-53.5174 53.4765,-50.2775 49.1043,-52.0697 55.7969,-47.2894 55.7969,-47.2894"/>
<text text-anchor="middle" x="61.5" y="-68.8" font-family="FreeSans" font-size="8.00" fill="#2e3436">KNOWS</text>
</g>
<!-- N2 -->
<g id="node4" class="node"><title>N2</title>
<polygon fill="#ffffff" stroke="#ffffff" stroke-width="1.5" points="106,-199 154,-199 166,-211 166,-223 154,-235 106,-235 94,-223 94,-211 106,-199"/>
<path fill="#ffffff" stroke="#ffffff" stroke-width="1.5" d="M154,-199C160,-199 166,-205 166,-211"/>
<path fill="#ffffff" stroke="#ffffff" stroke-width="1.5" d="M166,-223C166,-229 160,-235 154,-235"/>
<path fill="#ffffff" stroke="#ffffff" stroke-width="1.5" d="M106,-235C100,-235 94,-229 94,-223"/>
<path fill="#ffffff" stroke="#ffffff" stroke-width="1.5" d="M94,-211C94,-205 100,-199 106,-199"/>
<polyline fill="none" stroke="#2e3436" stroke-width="1.5" points="106,-199 154,-199 "/>
<path fill="none" stroke="#2e3436" stroke-width="1.5" d="M154,-199C160,-199 166,-205 166,-211"/>
<polyline fill="none" stroke="#2e3436" stroke-width="1.5" points="166,-211 166,-223 "/>
<path fill="none" stroke="#2e3436" stroke-width="1.5" d="M166,-223C166,-229 160,-235 154,-235"/>
<polyline fill="none" stroke="#2e3436" stroke-width="1.5" points="154,-235 106,-235 "/>
<path fill="none" stroke="#2e3436" stroke-width="1.5" d="M106,-235C100,-235 94,-229 94,-223"/>
<polyline fill="none" stroke="#2e3436" stroke-width="1.5" points="94,-223 94,-211 "/>
<path fill="none" stroke="#2e3436" stroke-width="1.5" d="M94,-211C94,-205 100,-199 106,-199"/>
<text text-anchor="middle" x="130" y="-223.8" font-family="FreeSans" font-size="8.00" fill="#1c2021">Node[2]</text>
<polyline fill="none" stroke="#2e3436" stroke-width="1.5" points="94,-217 166,-217 "/>
<text text-anchor="start" x="102" y="-205.8" font-family="FreeSans" font-size="8.00" fill="#1c2021">name = &#39;Stefan&#39;</text>
</g>
<!-- N4 -->
<g id="node6" class="node"><title>N4</title>
<polygon fill="#ffffff" stroke="#ffffff" stroke-width="1.5" points="105,-95 155,-95 167,-107 167,-139 155,-151 105,-151 93,-139 93,-107 105,-95"/>
<path fill="#ffffff" stroke="#ffffff" stroke-width="1.5" d="M155,-95C161,-95 167,-101 167,-107"/>
<path fill="#ffffff" stroke="#ffffff" stroke-width="1.5" d="M167,-139C167,-145 161,-151 155,-151"/>
<path fill="#ffffff" stroke="#ffffff" stroke-width="1.5" d="M105,-151C99,-151 93,-145 93,-139"/>
<path fill="#ffffff" stroke="#ffffff" stroke-width="1.5" d="M93,-107C93,-101 99,-95 105,-95"/>
<polyline fill="none" stroke="#2e3436" stroke-width="1.5" points="105,-95 155,-95 "/>
<path fill="none" stroke="#2e3436" stroke-width="1.5" d="M155,-95C161,-95 167,-101 167,-107"/>
<polyline fill="none" stroke="#2e3436" stroke-width="1.5" points="167,-107 167,-139 "/>
<path fill="none" stroke="#2e3436" stroke-width="1.5" d="M167,-139C167,-145 161,-151 155,-151"/>
<polyline fill="none" stroke="#2e3436" stroke-width="1.5" points="155,-151 105,-151 "/>
<path fill="none" stroke="#2e3436" stroke-width="1.5" d="M105,-151C99,-151 93,-145 93,-139"/>
<polyline fill="none" stroke="#2e3436" stroke-width="1.5" points="93,-139 93,-107 "/>
<path fill="none" stroke="#2e3436" stroke-width="1.5" d="M93,-107C93,-101 99,-95 105,-95"/>
<text text-anchor="middle" x="130" y="-139.8" font-family="FreeSans" font-size="8.00" fill="#1c2021">Node[4]</text>
<polyline fill="none" stroke="#2e3436" stroke-width="1.5" points="93,-133 167,-133 "/>
<text text-anchor="start" x="101" y="-121.8" font-family="FreeSans" font-size="8.00" fill="#1c2021">awesome = true</text>
<text text-anchor="start" x="101" y="-111.8" font-family="FreeSans" font-size="8.00" fill="#1c2021">age = 36</text>
<text text-anchor="start" x="101" y="-101.8" font-family="FreeSans" font-size="8.00" fill="#1c2021">name = &#39;Andres&#39;</text>
</g>
<!-- N2&#45;&gt;N4 -->
<g id="edge4" class="edge"><title>N2&#45;&gt;N4</title>
<path fill="none" stroke="#2e3436" stroke-width="2" d="M130,-198.876C130,-187.548 130,-172.567 130,-158.91"/>
<polygon fill="#2e3436" stroke="#2e3436" points="130,-151.06 133.375,-158.56 130.5,-154.81 130.5,-158.56 130,-158.56 129.5,-158.56 129.5,-154.81 126.625,-158.56 130,-151.06 130,-151.06"/>
<text text-anchor="middle" x="145.5" y="-172.8" font-family="FreeSans" font-size="8.00" fill="#2e3436">KNOWS</text>
</g>
<!-- N4&#45;&gt;N3 -->
<g id="edge6" class="edge"><title>N4&#45;&gt;N3</title>
<path fill="none" stroke="#2e3436" stroke-width="2" d="M113.535,-94.8954C106.005,-82.0439 97.0805,-66.8098 89.437,-53.7632"/>
<polygon fill="#2e3436" stroke="#2e3436" points="85.571,-47.1642 92.2743,-51.9294 87.898,-50.1471 89.7936,-53.3827 89.3622,-53.6355 88.9308,-53.8882 87.0352,-50.6526 86.4502,-55.3415 85.571,-47.1642 85.571,-47.1642"/>
<text text-anchor="middle" x="116.5" y="-68.8" font-family="FreeSans" font-size="8.00" fill="#2e3436">KNOWS</text>
</g>
</g>
</svg>
