<?xml version="1.0" encoding="UTF-8" standalone="no"?>
<!DOCTYPE svg PUBLIC "-//W3C//DTD SVG 1.1//EN"
 "http://www.w3.org/Graphics/SVG/1.1/DTD/svg11.dtd">
<!-- Generated by graphviz version 2.26.3 (20100126.1600)
 -->
<!-- Title: g Pages: 1 -->
<svg width="379pt" height="410pt"
 viewBox="0.00 0.00 379.00 410.00" xmlns="http://www.w3.org/2000/svg" xmlns:xlink="http://www.w3.org/1999/xlink">
<g id="graph1" class="graph" transform="scale(1 1) rotate(0) translate(4 406)">
<title>g</title>
<polygon fill="white" stroke="white" points="-4,5 -4,-406 376,-406 376,5 -4,5"/>
<!-- N0 -->
<g id="node1" class="node"><title>N0</title>
<polygon fill="#ffffff" stroke="#ffffff" stroke-width="1.5" points="145.5,-365 184.5,-365 196.5,-377 196.5,-389 184.5,-401 145.5,-401 133.5,-389 133.5,-377 145.5,-365"/>
<path fill="#ffffff" stroke="#ffffff" stroke-width="1.5" d="M184.5,-365C190.5,-365 196.5,-371 196.5,-377"/>
<path fill="#ffffff" stroke="#ffffff" stroke-width="1.5" d="M196.5,-389C196.5,-395 190.5,-401 184.5,-401"/>
<path fill="#ffffff" stroke="#ffffff" stroke-width="1.5" d="M145.5,-401C139.5,-401 133.5,-395 133.5,-389"/>
<path fill="#ffffff" stroke="#ffffff" stroke-width="1.5" d="M133.5,-377C133.5,-371 139.5,-365 145.5,-365"/>
<polyline fill="none" stroke="#2e3436" stroke-width="1.5" points="145.5,-365 184.5,-365 "/>
<path fill="none" stroke="#2e3436" stroke-width="1.5" d="M184.5,-365C190.5,-365 196.5,-371 196.5,-377"/>
<polyline fill="none" stroke="#2e3436" stroke-width="1.5" points="196.5,-377 196.5,-389 "/>
<path fill="none" stroke="#2e3436" stroke-width="1.5" d="M196.5,-389C196.5,-395 190.5,-401 184.5,-401"/>
<polyline fill="none" stroke="#2e3436" stroke-width="1.5" points="184.5,-401 145.5,-401 "/>
<path fill="none" stroke="#2e3436" stroke-width="1.5" d="M145.5,-401C139.5,-401 133.5,-395 133.5,-389"/>
<polyline fill="none" stroke="#2e3436" stroke-width="1.5" points="133.5,-389 133.5,-377 "/>
<path fill="none" stroke="#2e3436" stroke-width="1.5" d="M133.5,-377C133.5,-371 139.5,-365 145.5,-365"/>
<text text-anchor="start" x="141.5" y="-380.8" font-family="FreeSans" font-size="8.00" fill="#1c2021">name = &#39;Bob&#39;</text>
</g>
<!-- N1 -->
<g id="node3" class="node"><title>N1</title>
<polygon fill="#ffffff" stroke="#ffffff" stroke-width="1.5" points="18,-269 80,-269 92,-281 92,-295 80,-307 18,-307 6,-295 6,-281 18,-269"/>
<path fill="#ffffff" stroke="#ffffff" stroke-width="1.5" d="M80,-269C86,-269 92,-275 92,-281"/>
<path fill="#ffffff" stroke="#ffffff" stroke-width="1.5" d="M92,-295C92,-301 86,-307 80,-307"/>
<path fill="#ffffff" stroke="#ffffff" stroke-width="1.5" d="M18,-307C12,-307 6,-301 6,-295"/>
<path fill="#ffffff" stroke="#ffffff" stroke-width="1.5" d="M6,-281C6,-275 12,-269 18,-269"/>
<polyline fill="none" stroke="#2e3436" stroke-width="1.5" points="18,-269 80,-269 "/>
<path fill="none" stroke="#2e3436" stroke-width="1.5" d="M80,-269C86,-269 92,-275 92,-281"/>
<polyline fill="none" stroke="#2e3436" stroke-width="1.5" points="92,-281 92,-295 "/>
<path fill="none" stroke="#2e3436" stroke-width="1.5" d="M92,-295C92,-301 86,-307 80,-307"/>
<polyline fill="none" stroke="#2e3436" stroke-width="1.5" points="80,-307 18,-307 "/>
<path fill="none" stroke="#2e3436" stroke-width="1.5" d="M18,-307C12,-307 6,-301 6,-295"/>
<polyline fill="none" stroke="#2e3436" stroke-width="1.5" points="6,-295 6,-281 "/>
<path fill="none" stroke="#2e3436" stroke-width="1.5" d="M6,-281C6,-275 12,-269 18,-269"/>
<text text-anchor="start" x="14" y="-295.8" font-family="FreeSans" font-size="8.00" fill="#1c2021">name = &#39;bob_s1&#39;</text>
<text text-anchor="start" x="14" y="-285.8" font-family="FreeSans" font-size="8.00" fill="#1c2021">text = &#39;bobs status1&#39;</text>
<text text-anchor="start" x="14" y="-275.8" font-family="FreeSans" font-size="8.00" fill="#1c2021">date = 1</text>
</g>
<!-- N0&#45;&gt;N1 -->
<g id="edge2" class="edge"><title>N0&#45;&gt;N1</title>
<path fill="none" stroke="#2e3436" stroke-width="2" d="M142.908,-364.908C124.56,-349.881 98.3073,-328.381 78.2219,-311.932"/>
<polygon fill="#2e3436" stroke="#2e3436" points="72.2021,-307.002 80.1429,-309.143 75.4201,-308.991 78.3213,-311.367 78.0045,-311.754 77.6877,-312.141 74.7865,-309.765 75.8661,-314.365 72.2021,-307.002 72.2021,-307.002"/>
<text text-anchor="middle" x="134.5" y="-333.8" font-family="FreeSans" font-size="8.00" fill="#2e3436">STATUS</text>
</g>
<!-- N3 -->
<g id="node5" class="node"><title>N3</title>
<polygon fill="#ffffff" stroke="#ffffff" stroke-width="1.5" points="144,-270 186,-270 198,-282 198,-294 186,-306 144,-306 132,-294 132,-282 144,-270"/>
<path fill="#ffffff" stroke="#ffffff" stroke-width="1.5" d="M186,-270C192,-270 198,-276 198,-282"/>
<path fill="#ffffff" stroke="#ffffff" stroke-width="1.5" d="M198,-294C198,-300 192,-306 186,-306"/>
<path fill="#ffffff" stroke="#ffffff" stroke-width="1.5" d="M144,-306C138,-306 132,-300 132,-294"/>
<path fill="#ffffff" stroke="#ffffff" stroke-width="1.5" d="M132,-282C132,-276 138,-270 144,-270"/>
<polyline fill="none" stroke="#2e3436" stroke-width="1.5" points="144,-270 186,-270 "/>
<path fill="none" stroke="#2e3436" stroke-width="1.5" d="M186,-270C192,-270 198,-276 198,-282"/>
<polyline fill="none" stroke="#2e3436" stroke-width="1.5" points="198,-282 198,-294 "/>
<path fill="none" stroke="#2e3436" stroke-width="1.5" d="M198,-294C198,-300 192,-306 186,-306"/>
<polyline fill="none" stroke="#2e3436" stroke-width="1.5" points="186,-306 144,-306 "/>
<path fill="none" stroke="#2e3436" stroke-width="1.5" d="M144,-306C138,-306 132,-300 132,-294"/>
<polyline fill="none" stroke="#2e3436" stroke-width="1.5" points="132,-294 132,-282 "/>
<path fill="none" stroke="#2e3436" stroke-width="1.5" d="M132,-282C132,-276 138,-270 144,-270"/>
<text text-anchor="start" x="140" y="-285.8" font-family="FreeSans" font-size="8.00" fill="#1c2021">name = &#39;Alice&#39;</text>
</g>
<!-- N0&#45;&gt;N3 -->
<g id="edge4" class="edge"><title>N0&#45;&gt;N3</title>
<path fill="none" stroke="#4e9a06" stroke-width="2" d="M165,-364.683C165,-350.226 165,-329.881 165,-313.78"/>
<polygon fill="#4e9a06" stroke="#4e9a06" points="165,-306.261 168.375,-313.761 165.5,-310.011 165.5,-313.761 165,-313.761 164.5,-313.761 164.5,-310.011 161.625,-313.761 165,-306.261 165,-306.261"/>
<text text-anchor="middle" x="207" y="-338.8" font-family="FreeSans" font-size="8.00" fill="#4e9a06">FRIEND</text>
<text text-anchor="start" x="165" y="-328.8" font-family="FreeSans" font-size="8.00" fill="#4e9a06">status = &#39;CONFIRMED&#39;</text>
</g>
<!-- N2 -->
<g id="node7" class="node"><title>N2</title>
<polygon fill="#ffffff" stroke="#ffffff" stroke-width="1.5" points="12,-173 74,-173 86,-185 86,-199 74,-211 12,-211 0,-199 0,-185 12,-173"/>
<path fill="#ffffff" stroke="#ffffff" stroke-width="1.5" d="M74,-173C80,-173 86,-179 86,-185"/>
<path fill="#ffffff" stroke="#ffffff" stroke-width="1.5" d="M86,-199C86,-205 80,-211 74,-211"/>
<path fill="#ffffff" stroke="#ffffff" stroke-width="1.5" d="M12,-211C6,-211 0,-205 0,-199"/>
<path fill="#ffffff" stroke="#ffffff" stroke-width="1.5" d="M0,-185C0,-179 6,-173 12,-173"/>
<polyline fill="none" stroke="#2e3436" stroke-width="1.5" points="12,-173 74,-173 "/>
<path fill="none" stroke="#2e3436" stroke-width="1.5" d="M74,-173C80,-173 86,-179 86,-185"/>
<polyline fill="none" stroke="#2e3436" stroke-width="1.5" points="86,-185 86,-199 "/>
<path fill="none" stroke="#2e3436" stroke-width="1.5" d="M86,-199C86,-205 80,-211 74,-211"/>
<polyline fill="none" stroke="#2e3436" stroke-width="1.5" points="74,-211 12,-211 "/>
<path fill="none" stroke="#2e3436" stroke-width="1.5" d="M12,-211C6,-211 0,-205 0,-199"/>
<polyline fill="none" stroke="#2e3436" stroke-width="1.5" points="0,-199 0,-185 "/>
<path fill="none" stroke="#2e3436" stroke-width="1.5" d="M0,-185C0,-179 6,-173 12,-173"/>
<text text-anchor="start" x="8" y="-199.8" font-family="FreeSans" font-size="8.00" fill="#1c2021">name = &#39;bob_s2&#39;</text>
<text text-anchor="start" x="8" y="-189.8" font-family="FreeSans" font-size="8.00" fill="#1c2021">text = &#39;bobs status2&#39;</text>
<text text-anchor="start" x="8" y="-179.8" font-family="FreeSans" font-size="8.00" fill="#1c2021">date = 4</text>
</g>
<!-- N1&#45;&gt;N2 -->
<g id="edge6" class="edge"><title>N1&#45;&gt;N2</title>
<path fill="none" stroke="#a40000" stroke-width="2" d="M47.7858,-268.573C46.8935,-254.296 45.6699,-234.718 44.6832,-218.932"/>
<polygon fill="#a40000" stroke="#a40000" points="44.1919,-211.071 48.0283,-218.345 44.9249,-214.782 45.1589,-218.525 44.6598,-218.556 44.1608,-218.587 43.9268,-214.844 41.2914,-218.766 44.1919,-211.071 44.1919,-211.071"/>
<text text-anchor="middle" x="58" y="-237.8" font-family="FreeSans" font-size="8.00" fill="#a40000">NEXT</text>
</g>
<!-- N4 -->
<g id="node9" class="node"><title>N4</title>
<polygon fill="#ffffff" stroke="#ffffff" stroke-width="1.5" points="127,-173 193,-173 205,-185 205,-199 193,-211 127,-211 115,-199 115,-185 127,-173"/>
<path fill="#ffffff" stroke="#ffffff" stroke-width="1.5" d="M193,-173C199,-173 205,-179 205,-185"/>
<path fill="#ffffff" stroke="#ffffff" stroke-width="1.5" d="M205,-199C205,-205 199,-211 193,-211"/>
<path fill="#ffffff" stroke="#ffffff" stroke-width="1.5" d="M127,-211C121,-211 115,-205 115,-199"/>
<path fill="#ffffff" stroke="#ffffff" stroke-width="1.5" d="M115,-185C115,-179 121,-173 127,-173"/>
<polyline fill="none" stroke="#2e3436" stroke-width="1.5" points="127,-173 193,-173 "/>
<path fill="none" stroke="#2e3436" stroke-width="1.5" d="M193,-173C199,-173 205,-179 205,-185"/>
<polyline fill="none" stroke="#2e3436" stroke-width="1.5" points="205,-185 205,-199 "/>
<path fill="none" stroke="#2e3436" stroke-width="1.5" d="M205,-199C205,-205 199,-211 193,-211"/>
<polyline fill="none" stroke="#2e3436" stroke-width="1.5" points="193,-211 127,-211 "/>
<path fill="none" stroke="#2e3436" stroke-width="1.5" d="M127,-211C121,-211 115,-205 115,-199"/>
<polyline fill="none" stroke="#2e3436" stroke-width="1.5" points="115,-199 115,-185 "/>
<path fill="none" stroke="#2e3436" stroke-width="1.5" d="M115,-185C115,-179 121,-173 127,-173"/>
<text text-anchor="start" x="123" y="-199.8" font-family="FreeSans" font-size="8.00" fill="#1c2021">name = &#39;alice_s1&#39;</text>
<text text-anchor="start" x="123" y="-189.8" font-family="FreeSans" font-size="8.00" fill="#1c2021">text = &#39;Alices status1&#39;</text>
<text text-anchor="start" x="123" y="-179.8" font-family="FreeSans" font-size="8.00" fill="#1c2021">date = 2</text>
</g>
<!-- N3&#45;&gt;N4 -->
<g id="edge8" class="edge"><title>N3&#45;&gt;N4</title>
<path fill="none" stroke="#2e3436" stroke-width="2" d="M154.307,-269.651C151.332,-263.596 148.505,-256.695 147,-250 144.673,-239.651 146.311,-228.261 149.105,-218.335"/>
<polygon fill="#2e3436" stroke="#2e3436" points="151.42,-211.071 152.358,-219.242 150.757,-214.796 149.618,-218.369 149.142,-218.217 148.666,-218.065 149.805,-214.492 145.926,-217.192 151.42,-211.071 151.42,-211.071"/>
<text text-anchor="middle" x="163.5" y="-237.8" font-family="FreeSans" font-size="8.00" fill="#2e3436">STATUS</text>
</g>
<!-- N6 -->
<g id="node11" class="node"><title>N6</title>
<polygon fill="#ffffff" stroke="#ffffff" stroke-width="1.5" points="266,-174 304,-174 316,-186 316,-198 304,-210 266,-210 254,-198 254,-186 266,-174"/>
<path fill="#ffffff" stroke="#ffffff" stroke-width="1.5" d="M304,-174C310,-174 316,-180 316,-186"/>
<path fill="#ffffff" stroke="#ffffff" stroke-width="1.5" d="M316,-198C316,-204 310,-210 304,-210"/>
<path fill="#ffffff" stroke="#ffffff" stroke-width="1.5" d="M266,-210C260,-210 254,-204 254,-198"/>
<path fill="#ffffff" stroke="#ffffff" stroke-width="1.5" d="M254,-186C254,-180 260,-174 266,-174"/>
<polyline fill="none" stroke="#2e3436" stroke-width="1.5" points="266,-174 304,-174 "/>
<path fill="none" stroke="#2e3436" stroke-width="1.5" d="M304,-174C310,-174 316,-180 316,-186"/>
<polyline fill="none" stroke="#2e3436" stroke-width="1.5" points="316,-186 316,-198 "/>
<path fill="none" stroke="#2e3436" stroke-width="1.5" d="M316,-198C316,-204 310,-210 304,-210"/>
<polyline fill="none" stroke="#2e3436" stroke-width="1.5" points="304,-210 266,-210 "/>
<path fill="none" stroke="#2e3436" stroke-width="1.5" d="M266,-210C260,-210 254,-204 254,-198"/>
<polyline fill="none" stroke="#2e3436" stroke-width="1.5" points="254,-198 254,-186 "/>
<path fill="none" stroke="#2e3436" stroke-width="1.5" d="M254,-186C254,-180 260,-174 266,-174"/>
<text text-anchor="start" x="262" y="-189.8" font-family="FreeSans" font-size="8.00" fill="#1c2021">name = &#39;Joe&#39;</text>
</g>
<!-- N3&#45;&gt;N6 -->
<g id="edge10" class="edge"><title>N3&#45;&gt;N6</title>
<path fill="none" stroke="#4e9a06" stroke-width="2" d="M177.424,-269.952C186.535,-257.635 199.757,-241.526 214,-230 223.9,-221.988 235.744,-214.867 246.896,-209.016"/>
<polygon fill="#4e9a06" stroke="#4e9a06" points="253.726,-205.541 248.572,-211.95 250.611,-207.687 247.268,-209.388 247.041,-208.942 246.815,-208.497 250.157,-206.796 245.511,-205.934 253.726,-205.541 253.726,-205.541"/>
<text text-anchor="middle" x="249" y="-242.8" font-family="FreeSans" font-size="8.00" fill="#4e9a06">FRIEND</text>
<text text-anchor="start" x="214" y="-232.8" font-family="FreeSans" font-size="8.00" fill="#4e9a06">status = &#39;PENDING&#39;</text>
</g>
<!-- N5 -->
<g id="node13" class="node"><title>N5</title>
<polygon fill="#ffffff" stroke="#ffffff" stroke-width="1.5" points="127,-87 193,-87 205,-99 205,-113 193,-125 127,-125 115,-113 115,-99 127,-87"/>
<path fill="#ffffff" stroke="#ffffff" stroke-width="1.5" d="M193,-87C199,-87 205,-93 205,-99"/>
<path fill="#ffffff" stroke="#ffffff" stroke-width="1.5" d="M205,-113C205,-119 199,-125 193,-125"/>
<path fill="#ffffff" stroke="#ffffff" stroke-width="1.5" d="M127,-125C121,-125 115,-119 115,-113"/>
<path fill="#ffffff" stroke="#ffffff" stroke-width="1.5" d="M115,-99C115,-93 121,-87 127,-87"/>
<polyline fill="none" stroke="#2e3436" stroke-width="1.5" points="127,-87 193,-87 "/>
<path fill="none" stroke="#2e3436" stroke-width="1.5" d="M193,-87C199,-87 205,-93 205,-99"/>
<polyline fill="none" stroke="#2e3436" stroke-width="1.5" points="205,-99 205,-113 "/>
<path fill="none" stroke="#2e3436" stroke-width="1.5" d="M205,-113C205,-119 199,-125 193,-125"/>
<polyline fill="none" stroke="#2e3436" stroke-width="1.5" points="193,-125 127,-125 "/>
<path fill="none" stroke="#2e3436" stroke-width="1.5" d="M127,-125C121,-125 115,-119 115,-113"/>
<polyline fill="none" stroke="#2e3436" stroke-width="1.5" points="115,-113 115,-99 "/>
<path fill="none" stroke="#2e3436" stroke-width="1.5" d="M115,-99C115,-93 121,-87 127,-87"/>
<text text-anchor="start" x="123" y="-113.8" font-family="FreeSans" font-size="8.00" fill="#1c2021">name = &#39;alice_s2&#39;</text>
<text text-anchor="start" x="123" y="-103.8" font-family="FreeSans" font-size="8.00" fill="#1c2021">text = &#39;Alices status2&#39;</text>
<text text-anchor="start" x="123" y="-93.8" font-family="FreeSans" font-size="8.00" fill="#1c2021">date = 5</text>
</g>
<!-- N4&#45;&gt;N5 -->
<g id="edge12" class="edge"><title>N4&#45;&gt;N5</title>
<path fill="none" stroke="#a40000" stroke-width="2" d="M160,-172.914C160,-161.112 160,-145.785 160,-132.779"/>
<polygon fill="#a40000" stroke="#a40000" points="160,-125.033 163.375,-132.533 160.5,-128.783 160.5,-132.533 160,-132.533 159.5,-132.533 159.5,-128.783 156.625,-132.533 160,-125.033 160,-125.033"/>
<text text-anchor="middle" x="171" y="-146.8" font-family="FreeSans" font-size="8.00" fill="#a40000">NEXT</text>
</g>
<!-- N6&#45;&gt;N0 -->
<g id="edge16" class="edge"><title>N6&#45;&gt;N0</title>
<path fill="none" stroke="#4e9a06" stroke-width="2" d="M287.248,-210.129C290.118,-241.99 291.085,-308.224 256,-346 242.392,-360.652 222.16,-369.644 204.226,-375.087"/>
<polygon fill="#4e9a06" stroke="#4e9a06" points="196.707,-377.209 203.008,-371.924 200.18,-375.709 203.789,-374.691 203.925,-375.172 204.061,-375.653 200.452,-376.672 204.842,-378.42 196.707,-377.209 196.707,-377.209"/>
<text text-anchor="middle" x="329" y="-290.8" font-family="FreeSans" font-size="8.00" fill="#4e9a06">FRIEND</text>
<text text-anchor="start" x="287" y="-280.8" font-family="FreeSans" font-size="8.00" fill="#4e9a06">status = &#39;CONFIRMED&#39;</text>
</g>
<!-- N7 -->
<g id="node15" class="node"><title>N7</title>
<polygon fill="#ffffff" stroke="#ffffff" stroke-width="1.5" points="255.5,-87 314.5,-87 326.5,-99 326.5,-113 314.5,-125 255.5,-125 243.5,-113 243.5,-99 255.5,-87"/>
<path fill="#ffffff" stroke="#ffffff" stroke-width="1.5" d="M314.5,-87C320.5,-87 326.5,-93 326.5,-99"/>
<path fill="#ffffff" stroke="#ffffff" stroke-width="1.5" d="M326.5,-113C326.5,-119 320.5,-125 314.5,-125"/>
<path fill="#ffffff" stroke="#ffffff" stroke-width="1.5" d="M255.5,-125C249.5,-125 243.5,-119 243.5,-113"/>
<path fill="#ffffff" stroke="#ffffff" stroke-width="1.5" d="M243.5,-99C243.5,-93 249.5,-87 255.5,-87"/>
<polyline fill="none" stroke="#2e3436" stroke-width="1.5" points="255.5,-87 314.5,-87 "/>
<path fill="none" stroke="#2e3436" stroke-width="1.5" d="M314.5,-87C320.5,-87 326.5,-93 326.5,-99"/>
<polyline fill="none" stroke="#2e3436" stroke-width="1.5" points="326.5,-99 326.5,-113 "/>
<path fill="none" stroke="#2e3436" stroke-width="1.5" d="M326.5,-113C326.5,-119 320.5,-125 314.5,-125"/>
<polyline fill="none" stroke="#2e3436" stroke-width="1.5" points="314.5,-125 255.5,-125 "/>
<path fill="none" stroke="#2e3436" stroke-width="1.5" d="M255.5,-125C249.5,-125 243.5,-119 243.5,-113"/>
<polyline fill="none" stroke="#2e3436" stroke-width="1.5" points="243.5,-113 243.5,-99 "/>
<path fill="none" stroke="#2e3436" stroke-width="1.5" d="M243.5,-99C243.5,-93 249.5,-87 255.5,-87"/>
<text text-anchor="start" x="251.5" y="-113.8" font-family="FreeSans" font-size="8.00" fill="#1c2021">name = &#39;joe_s1&#39;</text>
<text text-anchor="start" x="251.5" y="-103.8" font-family="FreeSans" font-size="8.00" fill="#1c2021">text = &#39;Joe status1&#39;</text>
<text text-anchor="start" x="251.5" y="-93.8" font-family="FreeSans" font-size="8.00" fill="#1c2021">date = 3</text>
</g>
<!-- N6&#45;&gt;N7 -->
<g id="edge14" class="edge"><title>N6&#45;&gt;N7</title>
<path fill="none" stroke="#2e3436" stroke-width="2" d="M285,-173.762C285,-161.809 285,-145.984 285,-132.633"/>
<polygon fill="#2e3436" stroke="#2e3436" points="285,-125.106 288.375,-132.606 285.5,-128.856 285.5,-132.606 285,-132.606 284.5,-132.606 284.5,-128.856 281.625,-132.606 285,-125.106 285,-125.106"/>
<text text-anchor="middle" x="301.5" y="-146.8" font-family="FreeSans" font-size="8.00" fill="#2e3436">STATUS</text>
</g>
<!-- N8 -->
<g id="node18" class="node"><title>N8</title>
<polygon fill="#ffffff" stroke="#ffffff" stroke-width="1.5" points="255.5,-1 314.5,-1 326.5,-13 326.5,-27 314.5,-39 255.5,-39 243.5,-27 243.5,-13 255.5,-1"/>
<path fill="#ffffff" stroke="#ffffff" stroke-width="1.5" d="M314.5,-1C320.5,-1 326.5,-7 326.5,-13"/>
<path fill="#ffffff" stroke="#ffffff" stroke-width="1.5" d="M326.5,-27C326.5,-33 320.5,-39 314.5,-39"/>
<path fill="#ffffff" stroke="#ffffff" stroke-width="1.5" d="M255.5,-39C249.5,-39 243.5,-33 243.5,-27"/>
<path fill="#ffffff" stroke="#ffffff" stroke-width="1.5" d="M243.5,-13C243.5,-7 249.5,-1 255.5,-1"/>
<polyline fill="none" stroke="#2e3436" stroke-width="1.5" points="255.5,-1 314.5,-1 "/>
<path fill="none" stroke="#2e3436" stroke-width="1.5" d="M314.5,-1C320.5,-1 326.5,-7 326.5,-13"/>
<polyline fill="none" stroke="#2e3436" stroke-width="1.5" points="326.5,-13 326.5,-27 "/>
<path fill="none" stroke="#2e3436" stroke-width="1.5" d="M326.5,-27C326.5,-33 320.5,-39 314.5,-39"/>
<polyline fill="none" stroke="#2e3436" stroke-width="1.5" points="314.5,-39 255.5,-39 "/>
<path fill="none" stroke="#2e3436" stroke-width="1.5" d="M255.5,-39C249.5,-39 243.5,-33 243.5,-27"/>
<polyline fill="none" stroke="#2e3436" stroke-width="1.5" points="243.5,-27 243.5,-13 "/>
<path fill="none" stroke="#2e3436" stroke-width="1.5" d="M243.5,-13C243.5,-7 249.5,-1 255.5,-1"/>
<text text-anchor="start" x="251.5" y="-27.8" font-family="FreeSans" font-size="8.00" fill="#1c2021">name = &#39;joe_s2&#39;</text>
<text text-anchor="start" x="251.5" y="-17.8" font-family="FreeSans" font-size="8.00" fill="#1c2021">text = &#39;Joe status2&#39;</text>
<text text-anchor="start" x="251.5" y="-7.8" font-family="FreeSans" font-size="8.00" fill="#1c2021">date = 6</text>
</g>
<!-- N7&#45;&gt;N8 -->
<g id="edge18" class="edge"><title>N7&#45;&gt;N8</title>
<path fill="none" stroke="#a40000" stroke-width="2" d="M285,-86.9138C285,-75.1117 285,-59.7853 285,-46.779"/>
<polygon fill="#a40000" stroke="#a40000" points="285,-39.0328 288.375,-46.5328 285.5,-42.7828 285.5,-46.5328 285,-46.5328 284.5,-46.5328 284.5,-42.7828 281.625,-46.5329 285,-39.0328 285,-39.0328"/>
<text text-anchor="middle" x="296" y="-60.8" font-family="FreeSans" font-size="8.00" fill="#a40000">NEXT</text>
</g>
</g>
</svg>
