<?xml version="1.0" encoding="UTF-8" standalone="no"?>
<!DOCTYPE svg PUBLIC "-//W3C//DTD SVG 1.1//EN"
 "http://www.w3.org/Graphics/SVG/1.1/DTD/svg11.dtd">
<!-- Generated by graphviz version 2.26.3 (20100126.1600)
 -->
<!-- Title: g Pages: 1 -->
<svg width="159pt" height="140pt"
 viewBox="0.00 0.00 159.00 140.00" xmlns="http://www.w3.org/2000/svg" xmlns:xlink="http://www.w3.org/1999/xlink">
<g id="graph1" class="graph" transform="scale(1 1) rotate(0) translate(4 136)">
<title>g</title>
<polygon fill="white" stroke="white" points="-4,5 -4,-136 156,-136 156,5 -4,5"/>
<!-- N0 -->
<g id="node1" class="node"><title>N0</title>
<polygon fill="#ffffff" stroke="#ffffff" stroke-width="1.5" points="12,-95 48,-95 60,-107 60,-119 48,-131 12,-131 0,-119 0,-107 12,-95"/>
<path fill="#ffffff" stroke="#ffffff" stroke-width="1.5" d="M48,-95C54,-95 60,-101 60,-107"/>
<path fill="#ffffff" stroke="#ffffff" stroke-width="1.5" d="M60,-119C60,-125 54,-131 48,-131"/>
<path fill="#ffffff" stroke="#ffffff" stroke-width="1.5" d="M12,-131C6,-131 0,-125 0,-119"/>
<path fill="#ffffff" stroke="#ffffff" stroke-width="1.5" d="M0,-107C0,-101 6,-95 12,-95"/>
<polyline fill="none" stroke="#2e3436" stroke-width="1.5" points="12,-95 48,-95 "/>
<path fill="none" stroke="#2e3436" stroke-width="1.5" d="M48,-95C54,-95 60,-101 60,-107"/>
<polyline fill="none" stroke="#2e3436" stroke-width="1.5" points="60,-107 60,-119 "/>
<path fill="none" stroke="#2e3436" stroke-width="1.5" d="M60,-119C60,-125 54,-131 48,-131"/>
<polyline fill="none" stroke="#2e3436" stroke-width="1.5" points="48,-131 12,-131 "/>
<path fill="none" stroke="#2e3436" stroke-width="1.5" d="M12,-131C6,-131 0,-125 0,-119"/>
<polyline fill="none" stroke="#2e3436" stroke-width="1.5" points="0,-119 0,-107 "/>
<path fill="none" stroke="#2e3436" stroke-width="1.5" d="M0,-107C0,-101 6,-95 12,-95"/>
<text text-anchor="start" x="8" y="-110.8" font-family="FreeSans" font-size="8.00" fill="#1c2021">name = &#39;me&#39;</text>
</g>
<!-- N1 -->
<g id="node3" class="node"><title>N1</title>
<polygon fill="#ffffff" stroke="#ffffff" stroke-width="1.5" points="53.5,-1 96.5,-1 108.5,-13 108.5,-25 96.5,-37 53.5,-37 41.5,-25 41.5,-13 53.5,-1"/>
<path fill="#ffffff" stroke="#ffffff" stroke-width="1.5" d="M96.5,-1C102.5,-1 108.5,-7 108.5,-13"/>
<path fill="#ffffff" stroke="#ffffff" stroke-width="1.5" d="M108.5,-25C108.5,-31 102.5,-37 96.5,-37"/>
<path fill="#ffffff" stroke="#ffffff" stroke-width="1.5" d="M53.5,-37C47.5,-37 41.5,-31 41.5,-25"/>
<path fill="#ffffff" stroke="#ffffff" stroke-width="1.5" d="M41.5,-13C41.5,-7 47.5,-1 53.5,-1"/>
<polyline fill="none" stroke="#2e3436" stroke-width="1.5" points="53.5,-1 96.5,-1 "/>
<path fill="none" stroke="#2e3436" stroke-width="1.5" d="M96.5,-1C102.5,-1 108.5,-7 108.5,-13"/>
<polyline fill="none" stroke="#2e3436" stroke-width="1.5" points="108.5,-13 108.5,-25 "/>
<path fill="none" stroke="#2e3436" stroke-width="1.5" d="M108.5,-25C108.5,-31 102.5,-37 96.5,-37"/>
<polyline fill="none" stroke="#2e3436" stroke-width="1.5" points="96.5,-37 53.5,-37 "/>
<path fill="none" stroke="#2e3436" stroke-width="1.5" d="M53.5,-37C47.5,-37 41.5,-31 41.5,-25"/>
<polyline fill="none" stroke="#2e3436" stroke-width="1.5" points="41.5,-25 41.5,-13 "/>
<path fill="none" stroke="#2e3436" stroke-width="1.5" d="M41.5,-13C41.5,-7 47.5,-1 53.5,-1"/>
<text text-anchor="start" x="49.5" y="-16.8" font-family="FreeSans" font-size="8.00" fill="#1c2021">name = &#39;meat&#39;</text>
</g>
<!-- N0&#45;&gt;N1 -->
<g id="edge2" class="edge"><title>N0&#45;&gt;N1</title>
<path fill="none" stroke="#2e3436" stroke-width="2" d="M33.6428,-94.9132C36.3829,-83.3831 40.7476,-68.3445 47,-56 49.1498,-51.7555 51.798,-47.5001 54.6003,-43.4647"/>
<polygon fill="#2e3436" stroke="#2e3436" points="59.081,-37.3377 57.3779,-45.3839 57.271,-40.6598 55.0573,-43.6868 54.6537,-43.3916 54.2501,-43.0964 56.4638,-40.0695 51.9295,-41.3993 59.081,-37.3377 59.081,-37.3377"/>
<text text-anchor="middle" x="65.5" y="-68.8" font-family="FreeSans" font-size="8.00" fill="#2e3436">ATE</text>
<text text-anchor="start" x="47" y="-58.8" font-family="FreeSans" font-size="8.00" fill="#2e3436">times = 10</text>
</g>
<!-- N2 -->
<g id="node4" class="node"><title>N2</title>
<polygon fill="#ffffff" stroke="#ffffff" stroke-width="1.5" points="101,-95 139,-95 151,-107 151,-119 139,-131 101,-131 89,-119 89,-107 101,-95"/>
<path fill="#ffffff" stroke="#ffffff" stroke-width="1.5" d="M139,-95C145,-95 151,-101 151,-107"/>
<path fill="#ffffff" stroke="#ffffff" stroke-width="1.5" d="M151,-119C151,-125 145,-131 139,-131"/>
<path fill="#ffffff" stroke="#ffffff" stroke-width="1.5" d="M101,-131C95,-131 89,-125 89,-119"/>
<path fill="#ffffff" stroke="#ffffff" stroke-width="1.5" d="M89,-107C89,-101 95,-95 101,-95"/>
<polyline fill="none" stroke="#2e3436" stroke-width="1.5" points="101,-95 139,-95 "/>
<path fill="none" stroke="#2e3436" stroke-width="1.5" d="M139,-95C145,-95 151,-101 151,-107"/>
<polyline fill="none" stroke="#2e3436" stroke-width="1.5" points="151,-107 151,-119 "/>
<path fill="none" stroke="#2e3436" stroke-width="1.5" d="M151,-119C151,-125 145,-131 139,-131"/>
<polyline fill="none" stroke="#2e3436" stroke-width="1.5" points="139,-131 101,-131 "/>
<path fill="none" stroke="#2e3436" stroke-width="1.5" d="M101,-131C95,-131 89,-125 89,-119"/>
<polyline fill="none" stroke="#2e3436" stroke-width="1.5" points="89,-119 89,-107 "/>
<path fill="none" stroke="#2e3436" stroke-width="1.5" d="M89,-107C89,-101 95,-95 101,-95"/>
<text text-anchor="start" x="97" y="-110.8" font-family="FreeSans" font-size="8.00" fill="#1c2021">name = &#39;you&#39;</text>
</g>
<!-- N2&#45;&gt;N1 -->
<g id="edge4" class="edge"><title>N2&#45;&gt;N1</title>
<path fill="none" stroke="#2e3436" stroke-width="2" d="M111.324,-94.8759C104.413,-80.4413 94.6631,-60.074 87.004,-44.075"/>
<polygon fill="#2e3436" stroke="#2e3436" points="83.6498,-37.0685 89.9325,-42.376 85.7201,-40.235 87.3393,-43.6174 86.8883,-43.8333 86.4373,-44.0492 84.8181,-40.6668 83.8442,-45.2906 83.6498,-37.0685 83.6498,-37.0685"/>
<text text-anchor="middle" x="117.5" y="-68.8" font-family="FreeSans" font-size="8.00" fill="#2e3436">ATE</text>
<text text-anchor="start" x="101" y="-58.8" font-family="FreeSans" font-size="8.00" fill="#2e3436">times = 5</text>
</g>
</g>
</svg>
