<?xml version="1.0" encoding="UTF-8" standalone="no"?>
<!DOCTYPE svg PUBLIC "-//W3C//DTD SVG 1.1//EN"
 "http://www.w3.org/Graphics/SVG/1.1/DTD/svg11.dtd">
<!-- Generated by graphviz version 2.26.3 (20100126.1600)
 -->
<!-- Title: g Pages: 1 -->
<svg width="365pt" height="550pt"
 viewBox="0.00 0.00 365.00 550.00" xmlns="http://www.w3.org/2000/svg" xmlns:xlink="http://www.w3.org/1999/xlink">
<g id="graph1" class="graph" transform="scale(1 1) rotate(0) translate(4 546)">
<title>g</title>
<polygon fill="white" stroke="white" points="-4,5 -4,-546 362,-546 362,5 -4,5"/>
<!-- N1 -->
<g id="node1" class="node"><title>N1</title>
<polygon fill="#ffffff" stroke="#ffffff" stroke-width="1.5" points="168.5,-421 203.5,-421 215.5,-433 215.5,-445 203.5,-457 168.5,-457 156.5,-445 156.5,-433 168.5,-421"/>
<path fill="#ffffff" stroke="#ffffff" stroke-width="1.5" d="M203.5,-421C209.5,-421 215.5,-427 215.5,-433"/>
<path fill="#ffffff" stroke="#ffffff" stroke-width="1.5" d="M215.5,-445C215.5,-451 209.5,-457 203.5,-457"/>
<path fill="#ffffff" stroke="#ffffff" stroke-width="1.5" d="M168.5,-457C162.5,-457 156.5,-451 156.5,-445"/>
<path fill="#ffffff" stroke="#ffffff" stroke-width="1.5" d="M156.5,-433C156.5,-427 162.5,-421 168.5,-421"/>
<polyline fill="none" stroke="#2e3436" stroke-width="1.5" points="168.5,-421 203.5,-421 "/>
<path fill="none" stroke="#2e3436" stroke-width="1.5" d="M203.5,-421C209.5,-421 215.5,-427 215.5,-433"/>
<polyline fill="none" stroke="#2e3436" stroke-width="1.5" points="215.5,-433 215.5,-445 "/>
<path fill="none" stroke="#2e3436" stroke-width="1.5" d="M215.5,-445C215.5,-451 209.5,-457 203.5,-457"/>
<polyline fill="none" stroke="#2e3436" stroke-width="1.5" points="203.5,-457 168.5,-457 "/>
<path fill="none" stroke="#2e3436" stroke-width="1.5" d="M168.5,-457C162.5,-457 156.5,-451 156.5,-445"/>
<polyline fill="none" stroke="#2e3436" stroke-width="1.5" points="156.5,-445 156.5,-433 "/>
<path fill="none" stroke="#2e3436" stroke-width="1.5" d="M156.5,-433C156.5,-427 162.5,-421 168.5,-421"/>
<text text-anchor="middle" x="186" y="-445.8" font-family="FreeSans" font-size="8.00" fill="#1c2021">Node[1]</text>
<polyline fill="none" stroke="#2e3436" stroke-width="1.5" points="156.5,-439 215.5,-439 "/>
<text text-anchor="start" x="164.5" y="-427.8" font-family="FreeSans" font-size="8.00" fill="#1c2021">name = &#39;Bill&#39;</text>
</g>
<!-- N3 -->
<g id="node3" class="node"><title>N3</title>
<polygon fill="#ffffff" stroke="#ffffff" stroke-width="1.5" points="30.5,-337 77.5,-337 89.5,-349 89.5,-361 77.5,-373 30.5,-373 18.5,-361 18.5,-349 30.5,-337"/>
<path fill="#ffffff" stroke="#ffffff" stroke-width="1.5" d="M77.5,-337C83.5,-337 89.5,-343 89.5,-349"/>
<path fill="#ffffff" stroke="#ffffff" stroke-width="1.5" d="M89.5,-361C89.5,-367 83.5,-373 77.5,-373"/>
<path fill="#ffffff" stroke="#ffffff" stroke-width="1.5" d="M30.5,-373C24.5,-373 18.5,-367 18.5,-361"/>
<path fill="#ffffff" stroke="#ffffff" stroke-width="1.5" d="M18.5,-349C18.5,-343 24.5,-337 30.5,-337"/>
<polyline fill="none" stroke="#2e3436" stroke-width="1.5" points="30.5,-337 77.5,-337 "/>
<path fill="none" stroke="#2e3436" stroke-width="1.5" d="M77.5,-337C83.5,-337 89.5,-343 89.5,-349"/>
<polyline fill="none" stroke="#2e3436" stroke-width="1.5" points="89.5,-349 89.5,-361 "/>
<path fill="none" stroke="#2e3436" stroke-width="1.5" d="M89.5,-361C89.5,-367 83.5,-373 77.5,-373"/>
<polyline fill="none" stroke="#2e3436" stroke-width="1.5" points="77.5,-373 30.5,-373 "/>
<path fill="none" stroke="#2e3436" stroke-width="1.5" d="M30.5,-373C24.5,-373 18.5,-367 18.5,-361"/>
<polyline fill="none" stroke="#2e3436" stroke-width="1.5" points="18.5,-361 18.5,-349 "/>
<path fill="none" stroke="#2e3436" stroke-width="1.5" d="M18.5,-349C18.5,-343 24.5,-337 30.5,-337"/>
<text text-anchor="middle" x="54" y="-361.8" font-family="FreeSans" font-size="8.00" fill="#1c2021">Node[3]</text>
<polyline fill="none" stroke="#2e3436" stroke-width="1.5" points="18.5,-355 89.5,-355 "/>
<text text-anchor="start" x="26.5" y="-343.8" font-family="FreeSans" font-size="8.00" fill="#1c2021">name = &#39;Bill_s1&#39;</text>
</g>
<!-- N1&#45;&gt;N3 -->
<g id="edge2" class="edge"><title>N1&#45;&gt;N3</title>
<path fill="none" stroke="#2e3436" stroke-width="2" d="M157.683,-420.98C137.636,-408.223 110.615,-391.028 89.1837,-377.39"/>
<polygon fill="#2e3436" stroke="#2e3436" points="82.7259,-373.28 90.8654,-374.459 86.1581,-374.872 89.3219,-376.885 89.0534,-377.307 88.785,-377.729 85.6212,-375.715 87.2414,-380.154 82.7259,-373.28 82.7259,-373.28"/>
<text text-anchor="middle" x="130.5" y="-394.8" font-family="FreeSans" font-size="8.00" fill="#2e3436">has</text>
</g>
<!-- N12 -->
<g id="node5" class="node"><title>N12</title>
<polygon fill="#ffffff" stroke="#ffffff" stroke-width="1.5" points="167,-337 205,-337 217,-349 217,-361 205,-373 167,-373 155,-361 155,-349 167,-337"/>
<path fill="#ffffff" stroke="#ffffff" stroke-width="1.5" d="M205,-337C211,-337 217,-343 217,-349"/>
<path fill="#ffffff" stroke="#ffffff" stroke-width="1.5" d="M217,-361C217,-367 211,-373 205,-373"/>
<path fill="#ffffff" stroke="#ffffff" stroke-width="1.5" d="M167,-373C161,-373 155,-367 155,-361"/>
<path fill="#ffffff" stroke="#ffffff" stroke-width="1.5" d="M155,-349C155,-343 161,-337 167,-337"/>
<polyline fill="none" stroke="#2e3436" stroke-width="1.5" points="167,-337 205,-337 "/>
<path fill="none" stroke="#2e3436" stroke-width="1.5" d="M205,-337C211,-337 217,-343 217,-349"/>
<polyline fill="none" stroke="#2e3436" stroke-width="1.5" points="217,-349 217,-361 "/>
<path fill="none" stroke="#2e3436" stroke-width="1.5" d="M217,-361C217,-367 211,-373 205,-373"/>
<polyline fill="none" stroke="#2e3436" stroke-width="1.5" points="205,-373 167,-373 "/>
<path fill="none" stroke="#2e3436" stroke-width="1.5" d="M167,-373C161,-373 155,-367 155,-361"/>
<polyline fill="none" stroke="#2e3436" stroke-width="1.5" points="155,-361 155,-349 "/>
<path fill="none" stroke="#2e3436" stroke-width="1.5" d="M155,-349C155,-343 161,-337 167,-337"/>
<text text-anchor="middle" x="186" y="-361.8" font-family="FreeSans" font-size="8.00" fill="#1c2021">Node[12]</text>
<polyline fill="none" stroke="#2e3436" stroke-width="1.5" points="155,-355 217,-355 "/>
<text text-anchor="start" x="163" y="-343.8" font-family="FreeSans" font-size="8.00" fill="#1c2021">name = &#39;Joe&#39;</text>
</g>
<!-- N1&#45;&gt;N12 -->
<g id="edge4" class="edge"><title>N1&#45;&gt;N12</title>
<path fill="none" stroke="#4e9a06" stroke-width="2" d="M186,-420.773C186,-409.105 186,-393.787 186,-380.87"/>
<polygon fill="#4e9a06" stroke="#4e9a06" points="186,-373.191 189.375,-380.691 186.5,-376.941 186.5,-380.691 186,-380.691 185.5,-380.691 185.5,-376.941 182.625,-380.691 186,-373.191 186,-373.191"/>
<text text-anchor="middle" x="208" y="-394.8" font-family="FreeSans" font-size="8.00" fill="#4e9a06">jane_knows</text>
</g>
<!-- N5 -->
<g id="node10" class="node"><title>N5</title>
<polygon fill="#ffffff" stroke="#ffffff" stroke-width="1.5" points="11.5,-253 58.5,-253 70.5,-265 70.5,-277 58.5,-289 11.5,-289 -0.5,-277 -0.5,-265 11.5,-253"/>
<path fill="#ffffff" stroke="#ffffff" stroke-width="1.5" d="M58.5,-253C64.5,-253 70.5,-259 70.5,-265"/>
<path fill="#ffffff" stroke="#ffffff" stroke-width="1.5" d="M70.5,-277C70.5,-283 64.5,-289 58.5,-289"/>
<path fill="#ffffff" stroke="#ffffff" stroke-width="1.5" d="M11.5,-289C5.5,-289 -0.5,-283 -0.5,-277"/>
<path fill="#ffffff" stroke="#ffffff" stroke-width="1.5" d="M-0.5,-265C-0.5,-259 5.5,-253 11.5,-253"/>
<polyline fill="none" stroke="#2e3436" stroke-width="1.5" points="11.5,-253 58.5,-253 "/>
<path fill="none" stroke="#2e3436" stroke-width="1.5" d="M58.5,-253C64.5,-253 70.5,-259 70.5,-265"/>
<polyline fill="none" stroke="#2e3436" stroke-width="1.5" points="70.5,-265 70.5,-277 "/>
<path fill="none" stroke="#2e3436" stroke-width="1.5" d="M70.5,-277C70.5,-283 64.5,-289 58.5,-289"/>
<polyline fill="none" stroke="#2e3436" stroke-width="1.5" points="58.5,-289 11.5,-289 "/>
<path fill="none" stroke="#2e3436" stroke-width="1.5" d="M11.5,-289C5.5,-289 -0.5,-283 -0.5,-277"/>
<polyline fill="none" stroke="#2e3436" stroke-width="1.5" points="-0.5,-277 -0.5,-265 "/>
<path fill="none" stroke="#2e3436" stroke-width="1.5" d="M-0.5,-265C-0.5,-259 5.5,-253 11.5,-253"/>
<text text-anchor="middle" x="35" y="-277.8" font-family="FreeSans" font-size="8.00" fill="#1c2021">Node[5]</text>
<polyline fill="none" stroke="#2e3436" stroke-width="1.5" points="-0.5,-271 70.5,-271 "/>
<text text-anchor="start" x="7.5" y="-259.8" font-family="FreeSans" font-size="8.00" fill="#1c2021">name = &#39;Bill_s2&#39;</text>
</g>
<!-- N3&#45;&gt;N5 -->
<g id="edge8" class="edge"><title>N3&#45;&gt;N5</title>
<path fill="none" stroke="#a40000" stroke-width="2" d="M49.8773,-336.773C47.2381,-325.105 43.7733,-309.787 40.8515,-296.87"/>
<polygon fill="#a40000" stroke="#a40000" points="39.1147,-289.191 44.0612,-295.762 40.4297,-292.738 41.2571,-296.396 40.7694,-296.506 40.2817,-296.617 39.4543,-292.959 37.4775,-297.251 39.1147,-289.191 39.1147,-289.191"/>
<text text-anchor="middle" x="54" y="-310.8" font-family="FreeSans" font-size="8.00" fill="#a40000">next</text>
</g>
<!-- N7 -->
<g id="node13" class="node"><title>N7</title>
<polygon fill="#ffffff" stroke="#ffffff" stroke-width="1.5" points="110.5,-253 161.5,-253 173.5,-265 173.5,-277 161.5,-289 110.5,-289 98.5,-277 98.5,-265 110.5,-253"/>
<path fill="#ffffff" stroke="#ffffff" stroke-width="1.5" d="M161.5,-253C167.5,-253 173.5,-259 173.5,-265"/>
<path fill="#ffffff" stroke="#ffffff" stroke-width="1.5" d="M173.5,-277C173.5,-283 167.5,-289 161.5,-289"/>
<path fill="#ffffff" stroke="#ffffff" stroke-width="1.5" d="M110.5,-289C104.5,-289 98.5,-283 98.5,-277"/>
<path fill="#ffffff" stroke="#ffffff" stroke-width="1.5" d="M98.5,-265C98.5,-259 104.5,-253 110.5,-253"/>
<polyline fill="none" stroke="#2e3436" stroke-width="1.5" points="110.5,-253 161.5,-253 "/>
<path fill="none" stroke="#2e3436" stroke-width="1.5" d="M161.5,-253C167.5,-253 173.5,-259 173.5,-265"/>
<polyline fill="none" stroke="#2e3436" stroke-width="1.5" points="173.5,-265 173.5,-277 "/>
<path fill="none" stroke="#2e3436" stroke-width="1.5" d="M173.5,-277C173.5,-283 167.5,-289 161.5,-289"/>
<polyline fill="none" stroke="#2e3436" stroke-width="1.5" points="161.5,-289 110.5,-289 "/>
<path fill="none" stroke="#2e3436" stroke-width="1.5" d="M110.5,-289C104.5,-289 98.5,-283 98.5,-277"/>
<polyline fill="none" stroke="#2e3436" stroke-width="1.5" points="98.5,-277 98.5,-265 "/>
<path fill="none" stroke="#2e3436" stroke-width="1.5" d="M98.5,-265C98.5,-259 104.5,-253 110.5,-253"/>
<text text-anchor="middle" x="136" y="-277.8" font-family="FreeSans" font-size="8.00" fill="#1c2021">Node[7]</text>
<polyline fill="none" stroke="#2e3436" stroke-width="1.5" points="98.5,-271 173.5,-271 "/>
<text text-anchor="start" x="106.5" y="-259.8" font-family="FreeSans" font-size="8.00" fill="#1c2021">name = &#39;Joe_s1&#39;</text>
</g>
<!-- N12&#45;&gt;N7 -->
<g id="edge22" class="edge"><title>N12&#45;&gt;N7</title>
<path fill="none" stroke="#2e3436" stroke-width="2" d="M175.151,-336.773C168.009,-324.775 158.57,-308.917 150.749,-295.779"/>
<polygon fill="#2e3436" stroke="#2e3436" points="146.828,-289.191 153.564,-293.91 149.176,-292.158 151.094,-295.38 150.664,-295.636 150.235,-295.892 148.317,-292.669 147.764,-297.362 146.828,-289.191 146.828,-289.191"/>
<text text-anchor="middle" x="169.5" y="-310.8" font-family="FreeSans" font-size="8.00" fill="#2e3436">has</text>
</g>
<!-- N8 -->
<g id="node16" class="node"><title>N8</title>
<polygon fill="#ffffff" stroke="#ffffff" stroke-width="1.5" points="213.5,-253 252.5,-253 264.5,-265 264.5,-277 252.5,-289 213.5,-289 201.5,-277 201.5,-265 213.5,-253"/>
<path fill="#ffffff" stroke="#ffffff" stroke-width="1.5" d="M252.5,-253C258.5,-253 264.5,-259 264.5,-265"/>
<path fill="#ffffff" stroke="#ffffff" stroke-width="1.5" d="M264.5,-277C264.5,-283 258.5,-289 252.5,-289"/>
<path fill="#ffffff" stroke="#ffffff" stroke-width="1.5" d="M213.5,-289C207.5,-289 201.5,-283 201.5,-277"/>
<path fill="#ffffff" stroke="#ffffff" stroke-width="1.5" d="M201.5,-265C201.5,-259 207.5,-253 213.5,-253"/>
<polyline fill="none" stroke="#2e3436" stroke-width="1.5" points="213.5,-253 252.5,-253 "/>
<path fill="none" stroke="#2e3436" stroke-width="1.5" d="M252.5,-253C258.5,-253 264.5,-259 264.5,-265"/>
<polyline fill="none" stroke="#2e3436" stroke-width="1.5" points="264.5,-265 264.5,-277 "/>
<path fill="none" stroke="#2e3436" stroke-width="1.5" d="M264.5,-277C264.5,-283 258.5,-289 252.5,-289"/>
<polyline fill="none" stroke="#2e3436" stroke-width="1.5" points="252.5,-289 213.5,-289 "/>
<path fill="none" stroke="#2e3436" stroke-width="1.5" d="M213.5,-289C207.5,-289 201.5,-283 201.5,-277"/>
<polyline fill="none" stroke="#2e3436" stroke-width="1.5" points="201.5,-277 201.5,-265 "/>
<path fill="none" stroke="#2e3436" stroke-width="1.5" d="M201.5,-265C201.5,-259 207.5,-253 213.5,-253"/>
<text text-anchor="middle" x="233" y="-277.8" font-family="FreeSans" font-size="8.00" fill="#1c2021">Node[8]</text>
<polyline fill="none" stroke="#2e3436" stroke-width="1.5" points="201.5,-271 264.5,-271 "/>
<text text-anchor="start" x="209.5" y="-259.8" font-family="FreeSans" font-size="8.00" fill="#1c2021">name = &#39;Bob&#39;</text>
</g>
<!-- N12&#45;&gt;N8 -->
<g id="edge24" class="edge"><title>N12&#45;&gt;N8</title>
<path fill="none" stroke="#4e9a06" stroke-width="2" d="M196.198,-336.773C202.912,-324.775 211.784,-308.917 219.136,-295.779"/>
<polygon fill="#4e9a06" stroke="#4e9a06" points="222.822,-289.191 222.105,-297.384 221.427,-292.708 219.596,-295.98 219.159,-295.736 218.723,-295.492 220.554,-292.22 216.214,-294.088 222.822,-289.191 222.822,-289.191"/>
<text text-anchor="middle" x="233" y="-310.8" font-family="FreeSans" font-size="8.00" fill="#4e9a06">jane_knows</text>
</g>
<!-- N2 -->
<g id="node6" class="node"><title>N2</title>
<polygon fill="#ffffff" stroke="#ffffff" stroke-width="1.5" points="293,-85 345,-85 357,-97 357,-109 345,-121 293,-121 281,-109 281,-97 293,-85"/>
<path fill="#ffffff" stroke="#ffffff" stroke-width="1.5" d="M345,-85C351,-85 357,-91 357,-97"/>
<path fill="#ffffff" stroke="#ffffff" stroke-width="1.5" d="M357,-109C357,-115 351,-121 345,-121"/>
<path fill="#ffffff" stroke="#ffffff" stroke-width="1.5" d="M293,-121C287,-121 281,-115 281,-109"/>
<path fill="#ffffff" stroke="#ffffff" stroke-width="1.5" d="M281,-97C281,-91 287,-85 293,-85"/>
<polyline fill="none" stroke="#2e3436" stroke-width="1.5" points="293,-85 345,-85 "/>
<path fill="none" stroke="#2e3436" stroke-width="1.5" d="M345,-85C351,-85 357,-91 357,-97"/>
<polyline fill="none" stroke="#2e3436" stroke-width="1.5" points="357,-97 357,-109 "/>
<path fill="none" stroke="#2e3436" stroke-width="1.5" d="M357,-109C357,-115 351,-121 345,-121"/>
<polyline fill="none" stroke="#2e3436" stroke-width="1.5" points="345,-121 293,-121 "/>
<path fill="none" stroke="#2e3436" stroke-width="1.5" d="M293,-121C287,-121 281,-115 281,-109"/>
<polyline fill="none" stroke="#2e3436" stroke-width="1.5" points="281,-109 281,-97 "/>
<path fill="none" stroke="#2e3436" stroke-width="1.5" d="M281,-97C281,-91 287,-85 293,-85"/>
<text text-anchor="middle" x="319" y="-109.8" font-family="FreeSans" font-size="8.00" fill="#1c2021">Node[2]</text>
<polyline fill="none" stroke="#2e3436" stroke-width="1.5" points="281,-103 357,-103 "/>
<text text-anchor="start" x="289" y="-91.8" font-family="FreeSans" font-size="8.00" fill="#1c2021">name = &#39;Ted_s1&#39;</text>
</g>
<!-- N4 -->
<g id="node8" class="node"><title>N4</title>
<polygon fill="#ffffff" stroke="#ffffff" stroke-width="1.5" points="293,-1 345,-1 357,-13 357,-25 345,-37 293,-37 281,-25 281,-13 293,-1"/>
<path fill="#ffffff" stroke="#ffffff" stroke-width="1.5" d="M345,-1C351,-1 357,-7 357,-13"/>
<path fill="#ffffff" stroke="#ffffff" stroke-width="1.5" d="M357,-25C357,-31 351,-37 345,-37"/>
<path fill="#ffffff" stroke="#ffffff" stroke-width="1.5" d="M293,-37C287,-37 281,-31 281,-25"/>
<path fill="#ffffff" stroke="#ffffff" stroke-width="1.5" d="M281,-13C281,-7 287,-1 293,-1"/>
<polyline fill="none" stroke="#2e3436" stroke-width="1.5" points="293,-1 345,-1 "/>
<path fill="none" stroke="#2e3436" stroke-width="1.5" d="M345,-1C351,-1 357,-7 357,-13"/>
<polyline fill="none" stroke="#2e3436" stroke-width="1.5" points="357,-13 357,-25 "/>
<path fill="none" stroke="#2e3436" stroke-width="1.5" d="M357,-25C357,-31 351,-37 345,-37"/>
<polyline fill="none" stroke="#2e3436" stroke-width="1.5" points="345,-37 293,-37 "/>
<path fill="none" stroke="#2e3436" stroke-width="1.5" d="M293,-37C287,-37 281,-31 281,-25"/>
<polyline fill="none" stroke="#2e3436" stroke-width="1.5" points="281,-25 281,-13 "/>
<path fill="none" stroke="#2e3436" stroke-width="1.5" d="M281,-13C281,-7 287,-1 293,-1"/>
<text text-anchor="middle" x="319" y="-25.8" font-family="FreeSans" font-size="8.00" fill="#1c2021">Node[4]</text>
<polyline fill="none" stroke="#2e3436" stroke-width="1.5" points="281,-19 357,-19 "/>
<text text-anchor="start" x="289" y="-7.8" font-family="FreeSans" font-size="8.00" fill="#1c2021">name = &#39;Ted_s2&#39;</text>
</g>
<!-- N2&#45;&gt;N4 -->
<g id="edge6" class="edge"><title>N2&#45;&gt;N4</title>
<path fill="none" stroke="#a40000" stroke-width="2" d="M319,-84.7733C319,-73.1053 319,-57.7874 319,-44.8699"/>
<polygon fill="#a40000" stroke="#a40000" points="319,-37.1912 322.375,-44.6911 319.5,-40.9412 319.5,-44.6912 319,-44.6912 318.5,-44.6912 318.5,-40.9412 315.625,-44.6912 319,-37.1912 319,-37.1912"/>
<text text-anchor="middle" x="327" y="-58.8" font-family="FreeSans" font-size="8.00" fill="#a40000">next</text>
</g>
<!-- N6 -->
<g id="node11" class="node"><title>N6</title>
<polygon fill="#ffffff" stroke="#ffffff" stroke-width="1.5" points="164.5,-505 207.5,-505 219.5,-517 219.5,-529 207.5,-541 164.5,-541 152.5,-529 152.5,-517 164.5,-505"/>
<path fill="#ffffff" stroke="#ffffff" stroke-width="1.5" d="M207.5,-505C213.5,-505 219.5,-511 219.5,-517"/>
<path fill="#ffffff" stroke="#ffffff" stroke-width="1.5" d="M219.5,-529C219.5,-535 213.5,-541 207.5,-541"/>
<path fill="#ffffff" stroke="#ffffff" stroke-width="1.5" d="M164.5,-541C158.5,-541 152.5,-535 152.5,-529"/>
<path fill="#ffffff" stroke="#ffffff" stroke-width="1.5" d="M152.5,-517C152.5,-511 158.5,-505 164.5,-505"/>
<polyline fill="none" stroke="#2e3436" stroke-width="1.5" points="164.5,-505 207.5,-505 "/>
<path fill="none" stroke="#2e3436" stroke-width="1.5" d="M207.5,-505C213.5,-505 219.5,-511 219.5,-517"/>
<polyline fill="none" stroke="#2e3436" stroke-width="1.5" points="219.5,-517 219.5,-529 "/>
<path fill="none" stroke="#2e3436" stroke-width="1.5" d="M219.5,-529C219.5,-535 213.5,-541 207.5,-541"/>
<polyline fill="none" stroke="#2e3436" stroke-width="1.5" points="207.5,-541 164.5,-541 "/>
<path fill="none" stroke="#2e3436" stroke-width="1.5" d="M164.5,-541C158.5,-541 152.5,-535 152.5,-529"/>
<polyline fill="none" stroke="#2e3436" stroke-width="1.5" points="152.5,-529 152.5,-517 "/>
<path fill="none" stroke="#2e3436" stroke-width="1.5" d="M152.5,-517C152.5,-511 158.5,-505 164.5,-505"/>
<text text-anchor="middle" x="186" y="-529.8" font-family="FreeSans" font-size="8.00" fill="#1c2021">Node[6]</text>
<polyline fill="none" stroke="#2e3436" stroke-width="1.5" points="152.5,-523 219.5,-523 "/>
<text text-anchor="start" x="160.5" y="-511.8" font-family="FreeSans" font-size="8.00" fill="#1c2021">name = &#39;Jane&#39;</text>
</g>
<!-- N6&#45;&gt;N1 -->
<g id="edge10" class="edge"><title>N6&#45;&gt;N1</title>
<path fill="none" stroke="#4e9a06" stroke-width="2" d="M186,-504.773C186,-493.105 186,-477.787 186,-464.87"/>
<polygon fill="#4e9a06" stroke="#4e9a06" points="186,-457.191 189.375,-464.691 186.5,-460.941 186.5,-464.691 186,-464.691 185.5,-464.691 185.5,-460.941 182.625,-464.691 186,-457.191 186,-457.191"/>
<text text-anchor="middle" x="208" y="-478.8" font-family="FreeSans" font-size="8.00" fill="#4e9a06">jane_knows</text>
</g>
<!-- N10 -->
<g id="node15" class="node"><title>N10</title>
<polygon fill="#ffffff" stroke="#ffffff" stroke-width="1.5" points="86.5,-169 137.5,-169 149.5,-181 149.5,-193 137.5,-205 86.5,-205 74.5,-193 74.5,-181 86.5,-169"/>
<path fill="#ffffff" stroke="#ffffff" stroke-width="1.5" d="M137.5,-169C143.5,-169 149.5,-175 149.5,-181"/>
<path fill="#ffffff" stroke="#ffffff" stroke-width="1.5" d="M149.5,-193C149.5,-199 143.5,-205 137.5,-205"/>
<path fill="#ffffff" stroke="#ffffff" stroke-width="1.5" d="M86.5,-205C80.5,-205 74.5,-199 74.5,-193"/>
<path fill="#ffffff" stroke="#ffffff" stroke-width="1.5" d="M74.5,-181C74.5,-175 80.5,-169 86.5,-169"/>
<polyline fill="none" stroke="#2e3436" stroke-width="1.5" points="86.5,-169 137.5,-169 "/>
<path fill="none" stroke="#2e3436" stroke-width="1.5" d="M137.5,-169C143.5,-169 149.5,-175 149.5,-181"/>
<polyline fill="none" stroke="#2e3436" stroke-width="1.5" points="149.5,-181 149.5,-193 "/>
<path fill="none" stroke="#2e3436" stroke-width="1.5" d="M149.5,-193C149.5,-199 143.5,-205 137.5,-205"/>
<polyline fill="none" stroke="#2e3436" stroke-width="1.5" points="137.5,-205 86.5,-205 "/>
<path fill="none" stroke="#2e3436" stroke-width="1.5" d="M86.5,-205C80.5,-205 74.5,-199 74.5,-193"/>
<polyline fill="none" stroke="#2e3436" stroke-width="1.5" points="74.5,-193 74.5,-181 "/>
<path fill="none" stroke="#2e3436" stroke-width="1.5" d="M74.5,-181C74.5,-175 80.5,-169 86.5,-169"/>
<text text-anchor="middle" x="112" y="-193.8" font-family="FreeSans" font-size="8.00" fill="#1c2021">Node[10]</text>
<polyline fill="none" stroke="#2e3436" stroke-width="1.5" points="74.5,-187 149.5,-187 "/>
<text text-anchor="start" x="82.5" y="-175.8" font-family="FreeSans" font-size="8.00" fill="#1c2021">name = &#39;Joe_s2&#39;</text>
</g>
<!-- N7&#45;&gt;N10 -->
<g id="edge12" class="edge"><title>N7&#45;&gt;N10</title>
<path fill="none" stroke="#a40000" stroke-width="2" d="M130.792,-252.773C127.427,-240.995 122.999,-225.498 119.287,-212.505"/>
<polygon fill="#a40000" stroke="#a40000" points="117.197,-205.191 122.503,-211.475 118.708,-208.66 119.739,-212.265 119.258,-212.403 118.777,-212.54 117.747,-208.934 116.013,-213.33 117.197,-205.191 117.197,-205.191"/>
<text text-anchor="middle" x="133" y="-226.8" font-family="FreeSans" font-size="8.00" fill="#a40000">next</text>
</g>
<!-- N11 -->
<g id="node18" class="node"><title>N11</title>
<polygon fill="#ffffff" stroke="#ffffff" stroke-width="1.5" points="190,-169 242,-169 254,-181 254,-193 242,-205 190,-205 178,-193 178,-181 190,-169"/>
<path fill="#ffffff" stroke="#ffffff" stroke-width="1.5" d="M242,-169C248,-169 254,-175 254,-181"/>
<path fill="#ffffff" stroke="#ffffff" stroke-width="1.5" d="M254,-193C254,-199 248,-205 242,-205"/>
<path fill="#ffffff" stroke="#ffffff" stroke-width="1.5" d="M190,-205C184,-205 178,-199 178,-193"/>
<path fill="#ffffff" stroke="#ffffff" stroke-width="1.5" d="M178,-181C178,-175 184,-169 190,-169"/>
<polyline fill="none" stroke="#2e3436" stroke-width="1.5" points="190,-169 242,-169 "/>
<path fill="none" stroke="#2e3436" stroke-width="1.5" d="M242,-169C248,-169 254,-175 254,-181"/>
<polyline fill="none" stroke="#2e3436" stroke-width="1.5" points="254,-181 254,-193 "/>
<path fill="none" stroke="#2e3436" stroke-width="1.5" d="M254,-193C254,-199 248,-205 242,-205"/>
<polyline fill="none" stroke="#2e3436" stroke-width="1.5" points="242,-205 190,-205 "/>
<path fill="none" stroke="#2e3436" stroke-width="1.5" d="M190,-205C184,-205 178,-199 178,-193"/>
<polyline fill="none" stroke="#2e3436" stroke-width="1.5" points="178,-193 178,-181 "/>
<path fill="none" stroke="#2e3436" stroke-width="1.5" d="M178,-181C178,-175 184,-169 190,-169"/>
<text text-anchor="middle" x="216" y="-193.8" font-family="FreeSans" font-size="8.00" fill="#1c2021">Node[11]</text>
<polyline fill="none" stroke="#2e3436" stroke-width="1.5" points="178,-187 254,-187 "/>
<text text-anchor="start" x="186" y="-175.8" font-family="FreeSans" font-size="8.00" fill="#1c2021">name = &#39;Bob_s1&#39;</text>
</g>
<!-- N8&#45;&gt;N11 -->
<g id="edge14" class="edge"><title>N8&#45;&gt;N11</title>
<path fill="none" stroke="#2e3436" stroke-width="2" d="M221.52,-252.851C218.454,-247.052 215.561,-240.457 214,-234 212.372,-227.267 212.043,-219.837 212.33,-212.91"/>
<polygon fill="#2e3436" stroke="#2e3436" points="212.909,-205.082 215.721,-212.811 213.131,-208.859 212.854,-212.599 212.355,-212.562 211.857,-212.525 212.133,-208.785 208.99,-212.313 212.909,-205.082 212.909,-205.082"/>
<text text-anchor="middle" x="220.5" y="-226.8" font-family="FreeSans" font-size="8.00" fill="#2e3436">has</text>
</g>
<!-- N9 -->
<g id="node20" class="node"><title>N9</title>
<polygon fill="#ffffff" stroke="#ffffff" stroke-width="1.5" points="299.5,-169 338.5,-169 350.5,-181 350.5,-193 338.5,-205 299.5,-205 287.5,-193 287.5,-181 299.5,-169"/>
<path fill="#ffffff" stroke="#ffffff" stroke-width="1.5" d="M338.5,-169C344.5,-169 350.5,-175 350.5,-181"/>
<path fill="#ffffff" stroke="#ffffff" stroke-width="1.5" d="M350.5,-193C350.5,-199 344.5,-205 338.5,-205"/>
<path fill="#ffffff" stroke="#ffffff" stroke-width="1.5" d="M299.5,-205C293.5,-205 287.5,-199 287.5,-193"/>
<path fill="#ffffff" stroke="#ffffff" stroke-width="1.5" d="M287.5,-181C287.5,-175 293.5,-169 299.5,-169"/>
<polyline fill="none" stroke="#2e3436" stroke-width="1.5" points="299.5,-169 338.5,-169 "/>
<path fill="none" stroke="#2e3436" stroke-width="1.5" d="M338.5,-169C344.5,-169 350.5,-175 350.5,-181"/>
<polyline fill="none" stroke="#2e3436" stroke-width="1.5" points="350.5,-181 350.5,-193 "/>
<path fill="none" stroke="#2e3436" stroke-width="1.5" d="M350.5,-193C350.5,-199 344.5,-205 338.5,-205"/>
<polyline fill="none" stroke="#2e3436" stroke-width="1.5" points="338.5,-205 299.5,-205 "/>
<path fill="none" stroke="#2e3436" stroke-width="1.5" d="M299.5,-205C293.5,-205 287.5,-199 287.5,-193"/>
<polyline fill="none" stroke="#2e3436" stroke-width="1.5" points="287.5,-193 287.5,-181 "/>
<path fill="none" stroke="#2e3436" stroke-width="1.5" d="M287.5,-181C287.5,-175 293.5,-169 299.5,-169"/>
<text text-anchor="middle" x="319" y="-193.8" font-family="FreeSans" font-size="8.00" fill="#1c2021">Node[9]</text>
<polyline fill="none" stroke="#2e3436" stroke-width="1.5" points="287.5,-187 350.5,-187 "/>
<text text-anchor="start" x="295.5" y="-175.8" font-family="FreeSans" font-size="8.00" fill="#1c2021">name = &#39;Ted&#39;</text>
</g>
<!-- N8&#45;&gt;N9 -->
<g id="edge16" class="edge"><title>N8&#45;&gt;N9</title>
<path fill="none" stroke="#204a87" stroke-width="2" d="M241.353,-252.686C246.195,-243.382 252.933,-232.318 261,-224 266.794,-218.027 273.73,-212.564 280.757,-207.777"/>
<polygon fill="#204a87" stroke="#204a87" points="287.207,-203.575 282.765,-210.497 284.338,-206.041 281.196,-208.088 280.923,-207.669 280.65,-207.25 283.792,-205.203 279.08,-204.841 287.207,-203.575 287.207,-203.575"/>
<text text-anchor="middle" x="282" y="-226.8" font-family="FreeSans" font-size="8.00" fill="#204a87">bob_knows</text>
</g>
<!-- N9&#45;&gt;N1 -->
<g id="edge20" class="edge"><title>N9&#45;&gt;N1</title>
<path fill="none" stroke="#204a87" stroke-width="2" d="M315.867,-205.234C308.322,-244.735 286.022,-339.669 237,-402 232.68,-407.493 227.339,-412.55 221.757,-417.044"/>
<polygon fill="#204a87" stroke="#204a87" points="215.641,-421.695 219.568,-414.469 218.323,-419.027 221.308,-416.757 221.611,-417.155 221.913,-417.553 218.929,-419.823 223.654,-419.842 215.641,-421.695 215.641,-421.695"/>
<text text-anchor="middle" x="308" y="-310.8" font-family="FreeSans" font-size="8.00" fill="#204a87">bob_knows</text>
</g>
<!-- N9&#45;&gt;N2 -->
<g id="edge18" class="edge"><title>N9&#45;&gt;N2</title>
<path fill="none" stroke="#2e3436" stroke-width="2" d="M319,-168.773C319,-157.105 319,-141.787 319,-128.87"/>
<polygon fill="#2e3436" stroke="#2e3436" points="319,-121.191 322.375,-128.691 319.5,-124.941 319.5,-128.691 319,-128.691 318.5,-128.691 318.5,-124.941 315.625,-128.691 319,-121.191 319,-121.191"/>
<text text-anchor="middle" x="325.5" y="-142.8" font-family="FreeSans" font-size="8.00" fill="#2e3436">has</text>
</g>
</g>
</svg>
