<?xml version="1.0" encoding="UTF-8" standalone="no"?>
<!DOCTYPE svg PUBLIC "-//W3C//DTD SVG 1.1//EN"
 "http://www.w3.org/Graphics/SVG/1.1/DTD/svg11.dtd">
<!-- Generated by graphviz version 2.26.3 (20100126.1600)
 -->
<!-- Title: g Pages: 1 -->
<svg width="82pt" height="214pt"
 viewBox="0.00 0.00 82.00 214.00" xmlns="http://www.w3.org/2000/svg" xmlns:xlink="http://www.w3.org/1999/xlink">
<g id="graph1" class="graph" transform="scale(1 1) rotate(0) translate(4 210)">
<title>g</title>
<polygon fill="white" stroke="white" points="-4,5 -4,-210 79,-210 79,5 -4,5"/>
<!-- N0 -->
<g id="node1" class="node"><title>N0</title>
<polygon fill="#ffffff" stroke="#ffffff" stroke-width="1.5" points="14,-169 60,-169 72,-181 72,-193 60,-205 14,-205 2,-193 2,-181 14,-169"/>
<path fill="#ffffff" stroke="#ffffff" stroke-width="1.5" d="M60,-169C66,-169 72,-175 72,-181"/>
<path fill="#ffffff" stroke="#ffffff" stroke-width="1.5" d="M72,-193C72,-199 66,-205 60,-205"/>
<path fill="#ffffff" stroke="#ffffff" stroke-width="1.5" d="M14,-205C8,-205 2,-199 2,-193"/>
<path fill="#ffffff" stroke="#ffffff" stroke-width="1.5" d="M2,-181C2,-175 8,-169 14,-169"/>
<polyline fill="none" stroke="#2e3436" stroke-width="1.5" points="14,-169 60,-169 "/>
<path fill="none" stroke="#2e3436" stroke-width="1.5" d="M60,-169C66,-169 72,-175 72,-181"/>
<polyline fill="none" stroke="#2e3436" stroke-width="1.5" points="72,-181 72,-193 "/>
<path fill="none" stroke="#2e3436" stroke-width="1.5" d="M72,-193C72,-199 66,-205 60,-205"/>
<polyline fill="none" stroke="#2e3436" stroke-width="1.5" points="60,-205 14,-205 "/>
<path fill="none" stroke="#2e3436" stroke-width="1.5" d="M14,-205C8,-205 2,-199 2,-193"/>
<polyline fill="none" stroke="#2e3436" stroke-width="1.5" points="2,-193 2,-181 "/>
<path fill="none" stroke="#2e3436" stroke-width="1.5" d="M2,-181C2,-175 8,-169 14,-169"/>
<text text-anchor="middle" x="37" y="-193.8" font-family="FreeSans" font-size="8.00" fill="#1c2021">User</text>
<polyline fill="none" stroke="#2e3436" stroke-width="1.5" points="2,-187 72,-187 "/>
<text text-anchor="start" x="10" y="-175.8" font-family="FreeSans" font-size="8.00" fill="#1c2021">name = &#39;Adam&#39;</text>
</g>
<!-- N1 -->
<g id="node3" class="node"><title>N1</title>
<polygon fill="#ffffff" stroke="#ffffff" stroke-width="1.5" points="11.5,-85 62.5,-85 74.5,-97 74.5,-109 62.5,-121 11.5,-121 -0.5,-109 -0.5,-97 11.5,-85"/>
<path fill="#ffffff" stroke="#ffffff" stroke-width="1.5" d="M62.5,-85C68.5,-85 74.5,-91 74.5,-97"/>
<path fill="#ffffff" stroke="#ffffff" stroke-width="1.5" d="M74.5,-109C74.5,-115 68.5,-121 62.5,-121"/>
<path fill="#ffffff" stroke="#ffffff" stroke-width="1.5" d="M11.5,-121C5.5,-121 -0.5,-115 -0.5,-109"/>
<path fill="#ffffff" stroke="#ffffff" stroke-width="1.5" d="M-0.5,-97C-0.5,-91 5.5,-85 11.5,-85"/>
<polyline fill="none" stroke="#2e3436" stroke-width="1.5" points="11.5,-85 62.5,-85 "/>
<path fill="none" stroke="#2e3436" stroke-width="1.5" d="M62.5,-85C68.5,-85 74.5,-91 74.5,-97"/>
<polyline fill="none" stroke="#2e3436" stroke-width="1.5" points="74.5,-97 74.5,-109 "/>
<path fill="none" stroke="#2e3436" stroke-width="1.5" d="M74.5,-109C74.5,-115 68.5,-121 62.5,-121"/>
<polyline fill="none" stroke="#2e3436" stroke-width="1.5" points="62.5,-121 11.5,-121 "/>
<path fill="none" stroke="#2e3436" stroke-width="1.5" d="M11.5,-121C5.5,-121 -0.5,-115 -0.5,-109"/>
<polyline fill="none" stroke="#2e3436" stroke-width="1.5" points="-0.5,-109 -0.5,-97 "/>
<path fill="none" stroke="#2e3436" stroke-width="1.5" d="M-0.5,-97C-0.5,-91 5.5,-85 11.5,-85"/>
<text text-anchor="middle" x="37" y="-109.8" font-family="FreeSans" font-size="8.00" fill="#1c2021">User</text>
<polyline fill="none" stroke="#2e3436" stroke-width="1.5" points="-0.5,-103 74.5,-103 "/>
<text text-anchor="start" x="7.5" y="-91.8" font-family="FreeSans" font-size="8.00" fill="#1c2021">name = &#39;Pernilla&#39;</text>
</g>
<!-- N0&#45;&gt;N1 -->
<g id="edge2" class="edge"><title>N0&#45;&gt;N1</title>
<path fill="none" stroke="#2e3436" stroke-width="2" d="M37,-168.773C37,-157.105 37,-141.787 37,-128.87"/>
<polygon fill="#2e3436" stroke="#2e3436" points="37,-121.191 40.3751,-128.691 37.5,-124.941 37.5001,-128.691 37.0001,-128.691 36.5001,-128.691 36.5,-124.941 33.6251,-128.691 37,-121.191 37,-121.191"/>
<text text-anchor="middle" x="52.5" y="-142.8" font-family="FreeSans" font-size="8.00" fill="#2e3436">FRIEND</text>
</g>
<!-- N2 -->
<g id="node5" class="node"><title>N2</title>
<polygon fill="#ffffff" stroke="#ffffff" stroke-width="1.5" points="14.5,-1 59.5,-1 71.5,-13 71.5,-25 59.5,-37 14.5,-37 2.5,-25 2.5,-13 14.5,-1"/>
<path fill="#ffffff" stroke="#ffffff" stroke-width="1.5" d="M59.5,-1C65.5,-1 71.5,-7 71.5,-13"/>
<path fill="#ffffff" stroke="#ffffff" stroke-width="1.5" d="M71.5,-25C71.5,-31 65.5,-37 59.5,-37"/>
<path fill="#ffffff" stroke="#ffffff" stroke-width="1.5" d="M14.5,-37C8.5,-37 2.5,-31 2.5,-25"/>
<path fill="#ffffff" stroke="#ffffff" stroke-width="1.5" d="M2.5,-13C2.5,-7 8.5,-1 14.5,-1"/>
<polyline fill="none" stroke="#2e3436" stroke-width="1.5" points="14.5,-1 59.5,-1 "/>
<path fill="none" stroke="#2e3436" stroke-width="1.5" d="M59.5,-1C65.5,-1 71.5,-7 71.5,-13"/>
<polyline fill="none" stroke="#2e3436" stroke-width="1.5" points="71.5,-13 71.5,-25 "/>
<path fill="none" stroke="#2e3436" stroke-width="1.5" d="M71.5,-25C71.5,-31 65.5,-37 59.5,-37"/>
<polyline fill="none" stroke="#2e3436" stroke-width="1.5" points="59.5,-37 14.5,-37 "/>
<path fill="none" stroke="#2e3436" stroke-width="1.5" d="M14.5,-37C8.5,-37 2.5,-31 2.5,-25"/>
<polyline fill="none" stroke="#2e3436" stroke-width="1.5" points="2.5,-25 2.5,-13 "/>
<path fill="none" stroke="#2e3436" stroke-width="1.5" d="M2.5,-13C2.5,-7 8.5,-1 14.5,-1"/>
<text text-anchor="middle" x="37" y="-25.8" font-family="FreeSans" font-size="8.00" fill="#1c2021">User</text>
<polyline fill="none" stroke="#2e3436" stroke-width="1.5" points="2.5,-19 71.5,-19 "/>
<text text-anchor="start" x="10.5" y="-7.8" font-family="FreeSans" font-size="8.00" fill="#1c2021">name = &#39;David&#39;</text>
</g>
<!-- N1&#45;&gt;N2 -->
<g id="edge4" class="edge"><title>N1&#45;&gt;N2</title>
<path fill="none" stroke="#2e3436" stroke-width="2" d="M37,-84.7733C37,-73.1053 37,-57.7874 37,-44.8699"/>
<polygon fill="#2e3436" stroke="#2e3436" points="37,-37.1912 40.3751,-44.6911 37.5,-40.9412 37.5001,-44.6912 37.0001,-44.6912 36.5001,-44.6912 36.5,-40.9412 33.6251,-44.6912 37,-37.1912 37,-37.1912"/>
<text text-anchor="middle" x="52.5" y="-58.8" font-family="FreeSans" font-size="8.00" fill="#2e3436">FRIEND</text>
</g>
</g>
</svg>
