<?xml version="1.0" encoding="UTF-8" standalone="no"?>
<!DOCTYPE svg PUBLIC "-//W3C//DTD SVG 1.1//EN"
 "http://www.w3.org/Graphics/SVG/1.1/DTD/svg11.dtd">
<!-- Generated by graphviz version 2.26.3 (20100126.1600)
 -->
<!-- Title: g Pages: 1 -->
<svg width="201pt" height="130pt"
 viewBox="0.00 0.00 201.00 130.00" xmlns="http://www.w3.org/2000/svg" xmlns:xlink="http://www.w3.org/1999/xlink">
<g id="graph1" class="graph" transform="scale(1 1) rotate(0) translate(4 126)">
<title>g</title>
<polygon fill="white" stroke="white" points="-4,5 -4,-126 198,-126 198,5 -4,5"/>
<!-- N0 -->
<g id="node1" class="node"><title>N0</title>
<polygon fill="#ffffff" stroke="#ffffff" stroke-width="1.5" points="66.5,-85 125.5,-85 137.5,-97 137.5,-109 125.5,-121 66.5,-121 54.5,-109 54.5,-97 66.5,-85"/>
<path fill="#ffffff" stroke="#ffffff" stroke-width="1.5" d="M125.5,-85C131.5,-85 137.5,-91 137.5,-97"/>
<path fill="#ffffff" stroke="#ffffff" stroke-width="1.5" d="M137.5,-109C137.5,-115 131.5,-121 125.5,-121"/>
<path fill="#ffffff" stroke="#ffffff" stroke-width="1.5" d="M66.5,-121C60.5,-121 54.5,-115 54.5,-109"/>
<path fill="#ffffff" stroke="#ffffff" stroke-width="1.5" d="M54.5,-97C54.5,-91 60.5,-85 66.5,-85"/>
<polyline fill="none" stroke="#2e3436" stroke-width="1.5" points="66.5,-85 125.5,-85 "/>
<path fill="none" stroke="#2e3436" stroke-width="1.5" d="M125.5,-85C131.5,-85 137.5,-91 137.5,-97"/>
<polyline fill="none" stroke="#2e3436" stroke-width="1.5" points="137.5,-97 137.5,-109 "/>
<path fill="none" stroke="#2e3436" stroke-width="1.5" d="M137.5,-109C137.5,-115 131.5,-121 125.5,-121"/>
<polyline fill="none" stroke="#2e3436" stroke-width="1.5" points="125.5,-121 66.5,-121 "/>
<path fill="none" stroke="#2e3436" stroke-width="1.5" d="M66.5,-121C60.5,-121 54.5,-115 54.5,-109"/>
<polyline fill="none" stroke="#2e3436" stroke-width="1.5" points="54.5,-109 54.5,-97 "/>
<path fill="none" stroke="#2e3436" stroke-width="1.5" d="M54.5,-97C54.5,-91 60.5,-85 66.5,-85"/>
<text text-anchor="start" x="62.5" y="-100.8" font-family="FreeSans" font-size="8.00" fill="#1c2021">Node[0]name = &#39;A&#39;</text>
</g>
<!-- N1 -->
<g id="node3" class="node"><title>N1</title>
<polygon fill="#ffffff" stroke="#ffffff" stroke-width="1.5" points="11.5,-1 70.5,-1 82.5,-13 82.5,-25 70.5,-37 11.5,-37 -0.5,-25 -0.5,-13 11.5,-1"/>
<path fill="#ffffff" stroke="#ffffff" stroke-width="1.5" d="M70.5,-1C76.5,-1 82.5,-7 82.5,-13"/>
<path fill="#ffffff" stroke="#ffffff" stroke-width="1.5" d="M82.5,-25C82.5,-31 76.5,-37 70.5,-37"/>
<path fill="#ffffff" stroke="#ffffff" stroke-width="1.5" d="M11.5,-37C5.5,-37 -0.5,-31 -0.5,-25"/>
<path fill="#ffffff" stroke="#ffffff" stroke-width="1.5" d="M-0.5,-13C-0.5,-7 5.5,-1 11.5,-1"/>
<polyline fill="none" stroke="#2e3436" stroke-width="1.5" points="11.5,-1 70.5,-1 "/>
<path fill="none" stroke="#2e3436" stroke-width="1.5" d="M70.5,-1C76.5,-1 82.5,-7 82.5,-13"/>
<polyline fill="none" stroke="#2e3436" stroke-width="1.5" points="82.5,-13 82.5,-25 "/>
<path fill="none" stroke="#2e3436" stroke-width="1.5" d="M82.5,-25C82.5,-31 76.5,-37 70.5,-37"/>
<polyline fill="none" stroke="#2e3436" stroke-width="1.5" points="70.5,-37 11.5,-37 "/>
<path fill="none" stroke="#2e3436" stroke-width="1.5" d="M11.5,-37C5.5,-37 -0.5,-31 -0.5,-25"/>
<polyline fill="none" stroke="#2e3436" stroke-width="1.5" points="-0.5,-25 -0.5,-13 "/>
<path fill="none" stroke="#2e3436" stroke-width="1.5" d="M-0.5,-13C-0.5,-7 5.5,-1 11.5,-1"/>
<text text-anchor="start" x="7.5" y="-16.8" font-family="FreeSans" font-size="8.00" fill="#1c2021">Node[1]name = &#39;B&#39;</text>
</g>
<!-- N0&#45;&gt;N1 -->
<g id="edge2" class="edge"><title>N0&#45;&gt;N1</title>
<path fill="none" stroke="#2e3436" stroke-width="2" d="M84.0658,-84.7733C76.2099,-72.7751 65.8269,-56.9174 57.2244,-43.779"/>
<polygon fill="#2e3436" stroke="#2e3436" points="52.9109,-37.1912 59.8429,-41.617 55.3834,-40.0546 57.4376,-43.1919 57.0193,-43.4658 56.601,-43.7397 54.5468,-40.6024 54.1957,-45.3146 52.9109,-37.1912 52.9109,-37.1912"/>
<text text-anchor="middle" x="86.5" y="-58.8" font-family="FreeSans" font-size="8.00" fill="#2e3436">KNOWS</text>
</g>
<!-- N2 -->
<g id="node5" class="node"><title>N2</title>
<polygon fill="#ffffff" stroke="#ffffff" stroke-width="1.5" points="122.5,-1 181.5,-1 193.5,-13 193.5,-25 181.5,-37 122.5,-37 110.5,-25 110.5,-13 122.5,-1"/>
<path fill="#ffffff" stroke="#ffffff" stroke-width="1.5" d="M181.5,-1C187.5,-1 193.5,-7 193.5,-13"/>
<path fill="#ffffff" stroke="#ffffff" stroke-width="1.5" d="M193.5,-25C193.5,-31 187.5,-37 181.5,-37"/>
<path fill="#ffffff" stroke="#ffffff" stroke-width="1.5" d="M122.5,-37C116.5,-37 110.5,-31 110.5,-25"/>
<path fill="#ffffff" stroke="#ffffff" stroke-width="1.5" d="M110.5,-13C110.5,-7 116.5,-1 122.5,-1"/>
<polyline fill="none" stroke="#2e3436" stroke-width="1.5" points="122.5,-1 181.5,-1 "/>
<path fill="none" stroke="#2e3436" stroke-width="1.5" d="M181.5,-1C187.5,-1 193.5,-7 193.5,-13"/>
<polyline fill="none" stroke="#2e3436" stroke-width="1.5" points="193.5,-13 193.5,-25 "/>
<path fill="none" stroke="#2e3436" stroke-width="1.5" d="M193.5,-25C193.5,-31 187.5,-37 181.5,-37"/>
<polyline fill="none" stroke="#2e3436" stroke-width="1.5" points="181.5,-37 122.5,-37 "/>
<path fill="none" stroke="#2e3436" stroke-width="1.5" d="M122.5,-37C116.5,-37 110.5,-31 110.5,-25"/>
<polyline fill="none" stroke="#2e3436" stroke-width="1.5" points="110.5,-25 110.5,-13 "/>
<path fill="none" stroke="#2e3436" stroke-width="1.5" d="M110.5,-13C110.5,-7 116.5,-1 122.5,-1"/>
<text text-anchor="start" x="118.5" y="-16.8" font-family="FreeSans" font-size="8.00" fill="#1c2021">Node[2]name = &#39;C&#39;</text>
</g>
<!-- N0&#45;&gt;N2 -->
<g id="edge4" class="edge"><title>N0&#45;&gt;N2</title>
<path fill="none" stroke="#2e3436" stroke-width="2" d="M108.151,-84.7733C116.15,-72.7751 126.722,-56.9174 135.481,-43.779"/>
<polygon fill="#2e3436" stroke="#2e3436" points="139.873,-37.1912 138.52,-45.3037 138.208,-40.5887 136.128,-43.7089 135.712,-43.4316 135.296,-43.1542 137.376,-40.034 132.904,-41.5594 139.873,-37.1912 139.873,-37.1912"/>
<text text-anchor="middle" x="140.5" y="-58.8" font-family="FreeSans" font-size="8.00" fill="#2e3436">KNOWS</text>
</g>
</g>
</svg>
