<?xml version="1.0" encoding="UTF-8" standalone="no"?>
<!DOCTYPE svg PUBLIC "-//W3C//DTD SVG 1.1//EN"
 "http://www.w3.org/Graphics/SVG/1.1/DTD/svg11.dtd">
<!-- Generated by graphviz version 2.26.3 (20100126.1600)
 -->
<!-- Title: g Pages: 1 -->
<svg width="451pt" height="298pt"
 viewBox="0.00 0.00 451.00 298.00" xmlns="http://www.w3.org/2000/svg" xmlns:xlink="http://www.w3.org/1999/xlink">
<g id="graph1" class="graph" transform="scale(1 1) rotate(0) translate(4 294)">
<title>g</title>
<polygon fill="white" stroke="white" points="-4,5 -4,-294 448,-294 448,5 -4,5"/>
<!-- N0 -->
<g id="node1" class="node"><title>N0</title>
<polygon fill="#ffffff" stroke="#ffffff" stroke-width="1.5" points="170.5,-253 279.5,-253 291.5,-265 291.5,-277 279.5,-289 170.5,-289 158.5,-277 158.5,-265 170.5,-253"/>
<path fill="#ffffff" stroke="#ffffff" stroke-width="1.5" d="M279.5,-253C285.5,-253 291.5,-259 291.5,-265"/>
<path fill="#ffffff" stroke="#ffffff" stroke-width="1.5" d="M291.5,-277C291.5,-283 285.5,-289 279.5,-289"/>
<path fill="#ffffff" stroke="#ffffff" stroke-width="1.5" d="M170.5,-289C164.5,-289 158.5,-283 158.5,-277"/>
<path fill="#ffffff" stroke="#ffffff" stroke-width="1.5" d="M158.5,-265C158.5,-259 164.5,-253 170.5,-253"/>
<polyline fill="none" stroke="#2e3436" stroke-width="1.5" points="170.5,-253 279.5,-253 "/>
<path fill="none" stroke="#2e3436" stroke-width="1.5" d="M279.5,-253C285.5,-253 291.5,-259 291.5,-265"/>
<polyline fill="none" stroke="#2e3436" stroke-width="1.5" points="291.5,-265 291.5,-277 "/>
<path fill="none" stroke="#2e3436" stroke-width="1.5" d="M291.5,-277C291.5,-283 285.5,-289 279.5,-289"/>
<polyline fill="none" stroke="#2e3436" stroke-width="1.5" points="279.5,-289 170.5,-289 "/>
<path fill="none" stroke="#2e3436" stroke-width="1.5" d="M170.5,-289C164.5,-289 158.5,-283 158.5,-277"/>
<polyline fill="none" stroke="#2e3436" stroke-width="1.5" points="158.5,-277 158.5,-265 "/>
<path fill="none" stroke="#2e3436" stroke-width="1.5" d="M158.5,-265C158.5,-259 164.5,-253 170.5,-253"/>
<text text-anchor="middle" x="225" y="-277.8" font-family="FreeSans" font-size="8.00" fill="#1c2021">TVShow</text>
<polyline fill="none" stroke="#2e3436" stroke-width="1.5" points="158.5,-271 291.5,-271 "/>
<text text-anchor="start" x="166.5" y="-259.8" font-family="FreeSans" font-size="8.00" fill="#1c2021">name = &#39;How I Met Your Mother&#39;</text>
</g>
<!-- N1 -->
<g id="node3" class="node"><title>N1</title>
<polygon fill="#ffffff" stroke="#ffffff" stroke-width="1.5" points="181,-169 269,-169 281,-181 281,-193 269,-205 181,-205 169,-193 169,-181 181,-169"/>
<path fill="#ffffff" stroke="#ffffff" stroke-width="1.5" d="M269,-169C275,-169 281,-175 281,-181"/>
<path fill="#ffffff" stroke="#ffffff" stroke-width="1.5" d="M281,-193C281,-199 275,-205 269,-205"/>
<path fill="#ffffff" stroke="#ffffff" stroke-width="1.5" d="M181,-205C175,-205 169,-199 169,-193"/>
<path fill="#ffffff" stroke="#ffffff" stroke-width="1.5" d="M169,-181C169,-175 175,-169 181,-169"/>
<polyline fill="none" stroke="#2e3436" stroke-width="1.5" points="181,-169 269,-169 "/>
<path fill="none" stroke="#2e3436" stroke-width="1.5" d="M269,-169C275,-169 281,-175 281,-181"/>
<polyline fill="none" stroke="#2e3436" stroke-width="1.5" points="281,-181 281,-193 "/>
<path fill="none" stroke="#2e3436" stroke-width="1.5" d="M281,-193C281,-199 275,-205 269,-205"/>
<polyline fill="none" stroke="#2e3436" stroke-width="1.5" points="269,-205 181,-205 "/>
<path fill="none" stroke="#2e3436" stroke-width="1.5" d="M181,-205C175,-205 169,-199 169,-193"/>
<polyline fill="none" stroke="#2e3436" stroke-width="1.5" points="169,-193 169,-181 "/>
<path fill="none" stroke="#2e3436" stroke-width="1.5" d="M169,-181C169,-175 175,-169 181,-169"/>
<text text-anchor="middle" x="225" y="-193.8" font-family="FreeSans" font-size="8.00" fill="#1c2021">Season</text>
<polyline fill="none" stroke="#2e3436" stroke-width="1.5" points="169,-187 281,-187 "/>
<text text-anchor="start" x="177" y="-175.8" font-family="FreeSans" font-size="8.00" fill="#1c2021">name = &#39;HIMYM Season 1&#39;</text>
</g>
<!-- N0&#45;&gt;N1 -->
<g id="edge2" class="edge"><title>N0&#45;&gt;N1</title>
<path fill="none" stroke="#2e3436" stroke-width="2" d="M225,-252.773C225,-241.105 225,-225.787 225,-212.87"/>
<polygon fill="#2e3436" stroke="#2e3436" points="225,-205.191 228.375,-212.691 225.5,-208.941 225.5,-212.691 225,-212.691 224.5,-212.691 224.5,-208.941 221.625,-212.691 225,-205.191 225,-205.191"/>
<text text-anchor="middle" x="252.5" y="-226.8" font-family="FreeSans" font-size="8.00" fill="#2e3436">HAS_SEASON</text>
</g>
<!-- N2 -->
<g id="node5" class="node"><title>N2</title>
<polygon fill="#ffffff" stroke="#ffffff" stroke-width="1.5" points="205,-85 245,-85 257,-97 257,-109 245,-121 205,-121 193,-109 193,-97 205,-85"/>
<path fill="#ffffff" stroke="#ffffff" stroke-width="1.5" d="M245,-85C251,-85 257,-91 257,-97"/>
<path fill="#ffffff" stroke="#ffffff" stroke-width="1.5" d="M257,-109C257,-115 251,-121 245,-121"/>
<path fill="#ffffff" stroke="#ffffff" stroke-width="1.5" d="M205,-121C199,-121 193,-115 193,-109"/>
<path fill="#ffffff" stroke="#ffffff" stroke-width="1.5" d="M193,-97C193,-91 199,-85 205,-85"/>
<polyline fill="none" stroke="#2e3436" stroke-width="1.5" points="205,-85 245,-85 "/>
<path fill="none" stroke="#2e3436" stroke-width="1.5" d="M245,-85C251,-85 257,-91 257,-97"/>
<polyline fill="none" stroke="#2e3436" stroke-width="1.5" points="257,-97 257,-109 "/>
<path fill="none" stroke="#2e3436" stroke-width="1.5" d="M257,-109C257,-115 251,-121 245,-121"/>
<polyline fill="none" stroke="#2e3436" stroke-width="1.5" points="245,-121 205,-121 "/>
<path fill="none" stroke="#2e3436" stroke-width="1.5" d="M205,-121C199,-121 193,-115 193,-109"/>
<polyline fill="none" stroke="#2e3436" stroke-width="1.5" points="193,-109 193,-97 "/>
<path fill="none" stroke="#2e3436" stroke-width="1.5" d="M193,-97C193,-91 199,-85 205,-85"/>
<text text-anchor="middle" x="225" y="-109.8" font-family="FreeSans" font-size="8.00" fill="#1c2021">Episode</text>
<polyline fill="none" stroke="#2e3436" stroke-width="1.5" points="193,-103 257,-103 "/>
<text text-anchor="start" x="201" y="-91.8" font-family="FreeSans" font-size="8.00" fill="#1c2021">name = &#39;Pilot&#39;</text>
</g>
<!-- N1&#45;&gt;N2 -->
<g id="edge4" class="edge"><title>N1&#45;&gt;N2</title>
<path fill="none" stroke="#4e9a06" stroke-width="2" d="M225,-168.773C225,-157.105 225,-141.787 225,-128.87"/>
<polygon fill="#4e9a06" stroke="#4e9a06" points="225,-121.191 228.375,-128.691 225.5,-124.941 225.5,-128.691 225,-128.691 224.5,-128.691 224.5,-124.941 221.625,-128.691 225,-121.191 225,-121.191"/>
<text text-anchor="middle" x="254" y="-142.8" font-family="FreeSans" font-size="8.00" fill="#4e9a06">HAS_EPISODE</text>
</g>
<!-- N3 -->
<g id="node7" class="node"><title>N3</title>
<polygon fill="#ffffff" stroke="#ffffff" stroke-width="1.5" points="96.5,-1 161.5,-1 173.5,-13 173.5,-25 161.5,-37 96.5,-37 84.5,-25 84.5,-13 96.5,-1"/>
<path fill="#ffffff" stroke="#ffffff" stroke-width="1.5" d="M161.5,-1C167.5,-1 173.5,-7 173.5,-13"/>
<path fill="#ffffff" stroke="#ffffff" stroke-width="1.5" d="M173.5,-25C173.5,-31 167.5,-37 161.5,-37"/>
<path fill="#ffffff" stroke="#ffffff" stroke-width="1.5" d="M96.5,-37C90.5,-37 84.5,-31 84.5,-25"/>
<path fill="#ffffff" stroke="#ffffff" stroke-width="1.5" d="M84.5,-13C84.5,-7 90.5,-1 96.5,-1"/>
<polyline fill="none" stroke="#2e3436" stroke-width="1.5" points="96.5,-1 161.5,-1 "/>
<path fill="none" stroke="#2e3436" stroke-width="1.5" d="M161.5,-1C167.5,-1 173.5,-7 173.5,-13"/>
<polyline fill="none" stroke="#2e3436" stroke-width="1.5" points="173.5,-13 173.5,-25 "/>
<path fill="none" stroke="#2e3436" stroke-width="1.5" d="M173.5,-25C173.5,-31 167.5,-37 161.5,-37"/>
<polyline fill="none" stroke="#2e3436" stroke-width="1.5" points="161.5,-37 96.5,-37 "/>
<path fill="none" stroke="#2e3436" stroke-width="1.5" d="M96.5,-37C90.5,-37 84.5,-31 84.5,-25"/>
<polyline fill="none" stroke="#2e3436" stroke-width="1.5" points="84.5,-25 84.5,-13 "/>
<path fill="none" stroke="#2e3436" stroke-width="1.5" d="M84.5,-13C84.5,-7 90.5,-1 96.5,-1"/>
<text text-anchor="middle" x="129" y="-25.8" font-family="FreeSans" font-size="8.00" fill="#1c2021">Character</text>
<polyline fill="none" stroke="#2e3436" stroke-width="1.5" points="84.5,-19 173.5,-19 "/>
<text text-anchor="start" x="92.5" y="-7.8" font-family="FreeSans" font-size="8.00" fill="#1c2021">name = &#39;Ted Mosby&#39;</text>
</g>
<!-- N2&#45;&gt;N3 -->
<g id="edge6" class="edge"><title>N2&#45;&gt;N3</title>
<path fill="none" stroke="#a40000" stroke-width="2" d="M192.974,-85.1598C184.139,-79.5651 174.837,-73.0042 167,-66 159.543,-59.3352 152.371,-51.1182 146.306,-43.4286"/>
<polygon fill="#a40000" stroke="#a40000" points="141.49,-37.1391 148.729,-41.0416 144.167,-39.8123 146.447,-42.7896 146.05,-43.0936 145.653,-43.3976 143.373,-40.4203 143.37,-45.1456 141.49,-37.1391 141.49,-37.1391"/>
<text text-anchor="middle" x="217" y="-58.8" font-family="FreeSans" font-size="8.00" fill="#a40000">FEATURED_CHARACTER</text>
</g>
<!-- N5 -->
<g id="node9" class="node"><title>N5</title>
<polygon fill="#ffffff" stroke="#ffffff" stroke-width="1.5" points="255,-1 431,-1 443,-13 443,-25 431,-37 255,-37 243,-25 243,-13 255,-1"/>
<path fill="#ffffff" stroke="#ffffff" stroke-width="1.5" d="M431,-1C437,-1 443,-7 443,-13"/>
<path fill="#ffffff" stroke="#ffffff" stroke-width="1.5" d="M443,-25C443,-31 437,-37 431,-37"/>
<path fill="#ffffff" stroke="#ffffff" stroke-width="1.5" d="M255,-37C249,-37 243,-31 243,-25"/>
<path fill="#ffffff" stroke="#ffffff" stroke-width="1.5" d="M243,-13C243,-7 249,-1 255,-1"/>
<polyline fill="none" stroke="#2e3436" stroke-width="1.5" points="255,-1 431,-1 "/>
<path fill="none" stroke="#2e3436" stroke-width="1.5" d="M431,-1C437,-1 443,-7 443,-13"/>
<polyline fill="none" stroke="#2e3436" stroke-width="1.5" points="443,-13 443,-25 "/>
<path fill="none" stroke="#2e3436" stroke-width="1.5" d="M443,-25C443,-31 437,-37 431,-37"/>
<polyline fill="none" stroke="#2e3436" stroke-width="1.5" points="431,-37 255,-37 "/>
<path fill="none" stroke="#2e3436" stroke-width="1.5" d="M255,-37C249,-37 243,-31 243,-25"/>
<polyline fill="none" stroke="#2e3436" stroke-width="1.5" points="243,-25 243,-13 "/>
<path fill="none" stroke="#2e3436" stroke-width="1.5" d="M243,-13C243,-7 249,-1 255,-1"/>
<text text-anchor="start" x="251" y="-21.8" font-family="FreeSans" font-size="8.00" fill="#1c2021">title = &#39;Meet Me At The Bar In 15 Minutes &amp; Suit Up&#39;</text>
<text text-anchor="start" x="251" y="-11.8" font-family="FreeSans" font-size="8.00" fill="#1c2021">content = &#39;It was awesome&#39;</text>
</g>
<!-- N2&#45;&gt;N5 -->
<g id="edge8" class="edge"><title>N2&#45;&gt;N5</title>
<path fill="none" stroke="#204a87" stroke-width="2" d="M250.314,-84.9799C268.08,-72.3331 291.974,-55.3239 311.051,-41.7431"/>
<polygon fill="#204a87" stroke="#204a87" points="317.321,-37.2801 313.168,-44.3792 314.556,-39.8622 311.501,-42.037 311.211,-41.6297 310.921,-41.2223 313.976,-39.0476 309.253,-38.8802 317.321,-37.2801 317.321,-37.2801"/>
<text text-anchor="middle" x="313.5" y="-58.8" font-family="FreeSans" font-size="8.00" fill="#204a87">HAS_REVIEW</text>
</g>
<!-- N4 -->
<g id="node10" class="node"><title>N4</title>
<polygon fill="#ffffff" stroke="#ffffff" stroke-width="1.5" points="11.5,-85 82.5,-85 94.5,-97 94.5,-109 82.5,-121 11.5,-121 -0.5,-109 -0.5,-97 11.5,-85"/>
<path fill="#ffffff" stroke="#ffffff" stroke-width="1.5" d="M82.5,-85C88.5,-85 94.5,-91 94.5,-97"/>
<path fill="#ffffff" stroke="#ffffff" stroke-width="1.5" d="M94.5,-109C94.5,-115 88.5,-121 82.5,-121"/>
<path fill="#ffffff" stroke="#ffffff" stroke-width="1.5" d="M11.5,-121C5.5,-121 -0.5,-115 -0.5,-109"/>
<path fill="#ffffff" stroke="#ffffff" stroke-width="1.5" d="M-0.5,-97C-0.5,-91 5.5,-85 11.5,-85"/>
<polyline fill="none" stroke="#2e3436" stroke-width="1.5" points="11.5,-85 82.5,-85 "/>
<path fill="none" stroke="#2e3436" stroke-width="1.5" d="M82.5,-85C88.5,-85 94.5,-91 94.5,-97"/>
<polyline fill="none" stroke="#2e3436" stroke-width="1.5" points="94.5,-97 94.5,-109 "/>
<path fill="none" stroke="#2e3436" stroke-width="1.5" d="M94.5,-109C94.5,-115 88.5,-121 82.5,-121"/>
<polyline fill="none" stroke="#2e3436" stroke-width="1.5" points="82.5,-121 11.5,-121 "/>
<path fill="none" stroke="#2e3436" stroke-width="1.5" d="M11.5,-121C5.5,-121 -0.5,-115 -0.5,-109"/>
<polyline fill="none" stroke="#2e3436" stroke-width="1.5" points="-0.5,-109 -0.5,-97 "/>
<path fill="none" stroke="#2e3436" stroke-width="1.5" d="M-0.5,-97C-0.5,-91 5.5,-85 11.5,-85"/>
<text text-anchor="middle" x="47" y="-109.8" font-family="FreeSans" font-size="8.00" fill="#1c2021">Actor</text>
<polyline fill="none" stroke="#2e3436" stroke-width="1.5" points="-0.5,-103 94.5,-103 "/>
<text text-anchor="start" x="7.5" y="-91.8" font-family="FreeSans" font-size="8.00" fill="#1c2021">name = &#39;Josh Radnor&#39;</text>
</g>
<!-- N4&#45;&gt;N3 -->
<g id="edge10" class="edge"><title>N4&#45;&gt;N3</title>
<path fill="none" stroke="#8f5902" stroke-width="2" d="M41.4556,-84.7086C39.7558,-75.4111 39.5567,-64.3456 45,-56 52.5657,-44.4004 64.6752,-36.4123 77.3715,-30.9205"/>
<polygon fill="#8f5902" stroke="#8f5902" points="84.4603,-28.1193 78.7256,-34.0145 81.1565,-29.9625 77.669,-31.3407 77.4852,-30.8757 77.3014,-30.4107 80.789,-29.0325 76.2448,-27.7369 84.4603,-28.1193 84.4603,-28.1193"/>
<text text-anchor="middle" x="89" y="-58.8" font-family="FreeSans" font-size="8.00" fill="#8f5902">PLAYED_CHARACTER</text>
</g>
<!-- N6 -->
<g id="node12" class="node"><title>N6</title>
<polygon fill="#ffffff" stroke="#ffffff" stroke-width="1.5" points="353.5,-85 426.5,-85 438.5,-97 438.5,-109 426.5,-121 353.5,-121 341.5,-109 341.5,-97 353.5,-85"/>
<path fill="#ffffff" stroke="#ffffff" stroke-width="1.5" d="M426.5,-85C432.5,-85 438.5,-91 438.5,-97"/>
<path fill="#ffffff" stroke="#ffffff" stroke-width="1.5" d="M438.5,-109C438.5,-115 432.5,-121 426.5,-121"/>
<path fill="#ffffff" stroke="#ffffff" stroke-width="1.5" d="M353.5,-121C347.5,-121 341.5,-115 341.5,-109"/>
<path fill="#ffffff" stroke="#ffffff" stroke-width="1.5" d="M341.5,-97C341.5,-91 347.5,-85 353.5,-85"/>
<polyline fill="none" stroke="#2e3436" stroke-width="1.5" points="353.5,-85 426.5,-85 "/>
<path fill="none" stroke="#2e3436" stroke-width="1.5" d="M426.5,-85C432.5,-85 438.5,-91 438.5,-97"/>
<polyline fill="none" stroke="#2e3436" stroke-width="1.5" points="438.5,-97 438.5,-109 "/>
<path fill="none" stroke="#2e3436" stroke-width="1.5" d="M438.5,-109C438.5,-115 432.5,-121 426.5,-121"/>
<polyline fill="none" stroke="#2e3436" stroke-width="1.5" points="426.5,-121 353.5,-121 "/>
<path fill="none" stroke="#2e3436" stroke-width="1.5" d="M353.5,-121C347.5,-121 341.5,-115 341.5,-109"/>
<polyline fill="none" stroke="#2e3436" stroke-width="1.5" points="341.5,-109 341.5,-97 "/>
<path fill="none" stroke="#2e3436" stroke-width="1.5" d="M341.5,-97C341.5,-91 347.5,-85 353.5,-85"/>
<text text-anchor="middle" x="390" y="-109.8" font-family="FreeSans" font-size="8.00" fill="#1c2021">User</text>
<polyline fill="none" stroke="#2e3436" stroke-width="1.5" points="341.5,-103 438.5,-103 "/>
<text text-anchor="start" x="349.5" y="-91.8" font-family="FreeSans" font-size="8.00" fill="#1c2021">name = &#39;WakenPayne&#39;</text>
</g>
<!-- N6&#45;&gt;N5 -->
<g id="edge12" class="edge"><title>N6&#45;&gt;N5</title>
<path fill="none" stroke="#5c3566" stroke-width="2" d="M379.802,-84.7733C373.088,-72.7751 364.216,-56.9174 356.864,-43.779"/>
<polygon fill="#5c3566" stroke="#5c3566" points="353.178,-37.1912 359.786,-42.0883 355.446,-40.2196 357.277,-43.4922 356.841,-43.7363 356.404,-43.9805 354.573,-40.7079 353.895,-45.3843 353.178,-37.1912 353.178,-37.1912"/>
<text text-anchor="middle" x="400.5" y="-58.8" font-family="FreeSans" font-size="8.00" fill="#5c3566">WROTE_REVIEW</text>
</g>
</g>
</svg>
