<?xml version="1.0" encoding="UTF-8" standalone="no"?>
<!DOCTYPE svg PUBLIC "-//W3C//DTD SVG 1.1//EN"
 "http://www.w3.org/Graphics/SVG/1.1/DTD/svg11.dtd">
<!-- Generated by graphviz version 2.26.3 (20100126.1600)
 -->
<!-- Title: g Pages: 1 -->
<svg width="145pt" height="130pt"
 viewBox="0.00 0.00 145.00 130.00" xmlns="http://www.w3.org/2000/svg" xmlns:xlink="http://www.w3.org/1999/xlink">
<g id="graph1" class="graph" transform="scale(1 1) rotate(0) translate(4 126)">
<title>g</title>
<polygon fill="white" stroke="white" points="-4,5 -4,-126 142,-126 142,5 -4,5"/>
<!-- N1 -->
<g id="node1" class="node"><title>N1</title>
<polygon fill="#ffffff" stroke="#ffffff" stroke-width="1.5" points="53,-85 83,-85 95,-97 95,-109 83,-121 53,-121 41,-109 41,-97 53,-85"/>
<path fill="#ffffff" stroke="#ffffff" stroke-width="1.5" d="M83,-85C89,-85 95,-91 95,-97"/>
<path fill="#ffffff" stroke="#ffffff" stroke-width="1.5" d="M95,-109C95,-115 89,-121 83,-121"/>
<path fill="#ffffff" stroke="#ffffff" stroke-width="1.5" d="M53,-121C47,-121 41,-115 41,-109"/>
<path fill="#ffffff" stroke="#ffffff" stroke-width="1.5" d="M41,-97C41,-91 47,-85 53,-85"/>
<polyline fill="none" stroke="#2e3436" stroke-width="1.5" points="53,-85 83,-85 "/>
<path fill="none" stroke="#2e3436" stroke-width="1.5" d="M83,-85C89,-85 95,-91 95,-97"/>
<polyline fill="none" stroke="#2e3436" stroke-width="1.5" points="95,-97 95,-109 "/>
<path fill="none" stroke="#2e3436" stroke-width="1.5" d="M95,-109C95,-115 89,-121 83,-121"/>
<polyline fill="none" stroke="#2e3436" stroke-width="1.5" points="83,-121 53,-121 "/>
<path fill="none" stroke="#2e3436" stroke-width="1.5" d="M53,-121C47,-121 41,-115 41,-109"/>
<polyline fill="none" stroke="#2e3436" stroke-width="1.5" points="41,-109 41,-97 "/>
<path fill="none" stroke="#2e3436" stroke-width="1.5" d="M41,-97C41,-91 47,-85 53,-85"/>
<text text-anchor="middle" x="68" y="-109.8" font-family="FreeSans" font-size="8.00" fill="#1c2021">Node[1]</text>
<polyline fill="none" stroke="#2e3436" stroke-width="1.5" points="41,-103 95,-103 "/>
<text text-anchor="start" x="49" y="-91.8" font-family="FreeSans" font-size="8.00" fill="#1c2021">name = &#39;A&#39;</text>
</g>
<!-- N2 -->
<g id="node3" class="node"><title>N2</title>
<polygon fill="#ffffff" stroke="#ffffff" stroke-width="1.5" points="12,-1 42,-1 54,-13 54,-25 42,-37 12,-37 0,-25 0,-13 12,-1"/>
<path fill="#ffffff" stroke="#ffffff" stroke-width="1.5" d="M42,-1C48,-1 54,-7 54,-13"/>
<path fill="#ffffff" stroke="#ffffff" stroke-width="1.5" d="M54,-25C54,-31 48,-37 42,-37"/>
<path fill="#ffffff" stroke="#ffffff" stroke-width="1.5" d="M12,-37C6,-37 0,-31 0,-25"/>
<path fill="#ffffff" stroke="#ffffff" stroke-width="1.5" d="M0,-13C0,-7 6,-1 12,-1"/>
<polyline fill="none" stroke="#2e3436" stroke-width="1.5" points="12,-1 42,-1 "/>
<path fill="none" stroke="#2e3436" stroke-width="1.5" d="M42,-1C48,-1 54,-7 54,-13"/>
<polyline fill="none" stroke="#2e3436" stroke-width="1.5" points="54,-13 54,-25 "/>
<path fill="none" stroke="#2e3436" stroke-width="1.5" d="M54,-25C54,-31 48,-37 42,-37"/>
<polyline fill="none" stroke="#2e3436" stroke-width="1.5" points="42,-37 12,-37 "/>
<path fill="none" stroke="#2e3436" stroke-width="1.5" d="M12,-37C6,-37 0,-31 0,-25"/>
<polyline fill="none" stroke="#2e3436" stroke-width="1.5" points="0,-25 0,-13 "/>
<path fill="none" stroke="#2e3436" stroke-width="1.5" d="M0,-13C0,-7 6,-1 12,-1"/>
<text text-anchor="middle" x="27" y="-25.8" font-family="FreeSans" font-size="8.00" fill="#1c2021">Node[2]</text>
<polyline fill="none" stroke="#2e3436" stroke-width="1.5" points="0,-19 54,-19 "/>
<text text-anchor="start" x="8" y="-7.8" font-family="FreeSans" font-size="8.00" fill="#1c2021">name = &#39;B&#39;</text>
</g>
<!-- N1&#45;&gt;N2 -->
<g id="edge2" class="edge"><title>N1&#45;&gt;N2</title>
<path fill="none" stroke="#2e3436" stroke-width="2" d="M54.2732,-84.765C50.2952,-78.9622 46.1738,-72.3872 43,-66 39.6762,-59.3109 36.7692,-51.7649 34.3778,-44.7087"/>
<polygon fill="#2e3436" stroke="#2e3436" points="31.9899,-37.3078 37.5049,-43.4091 33.6173,-40.7231 34.7688,-44.2919 34.293,-44.4454 33.8171,-44.599 32.6656,-41.0301 31.081,-45.4818 31.9899,-37.3078 31.9899,-37.3078"/>
<text text-anchor="middle" x="58.5" y="-58.8" font-family="FreeSans" font-size="8.00" fill="#2e3436">KNOWS</text>
</g>
<!-- N3 -->
<g id="node5" class="node"><title>N3</title>
<polygon fill="#ffffff" stroke="#ffffff" stroke-width="1.5" points="94.5,-1 125.5,-1 137.5,-13 137.5,-25 125.5,-37 94.5,-37 82.5,-25 82.5,-13 94.5,-1"/>
<path fill="#ffffff" stroke="#ffffff" stroke-width="1.5" d="M125.5,-1C131.5,-1 137.5,-7 137.5,-13"/>
<path fill="#ffffff" stroke="#ffffff" stroke-width="1.5" d="M137.5,-25C137.5,-31 131.5,-37 125.5,-37"/>
<path fill="#ffffff" stroke="#ffffff" stroke-width="1.5" d="M94.5,-37C88.5,-37 82.5,-31 82.5,-25"/>
<path fill="#ffffff" stroke="#ffffff" stroke-width="1.5" d="M82.5,-13C82.5,-7 88.5,-1 94.5,-1"/>
<polyline fill="none" stroke="#2e3436" stroke-width="1.5" points="94.5,-1 125.5,-1 "/>
<path fill="none" stroke="#2e3436" stroke-width="1.5" d="M125.5,-1C131.5,-1 137.5,-7 137.5,-13"/>
<polyline fill="none" stroke="#2e3436" stroke-width="1.5" points="137.5,-13 137.5,-25 "/>
<path fill="none" stroke="#2e3436" stroke-width="1.5" d="M137.5,-25C137.5,-31 131.5,-37 125.5,-37"/>
<polyline fill="none" stroke="#2e3436" stroke-width="1.5" points="125.5,-37 94.5,-37 "/>
<path fill="none" stroke="#2e3436" stroke-width="1.5" d="M94.5,-37C88.5,-37 82.5,-31 82.5,-25"/>
<polyline fill="none" stroke="#2e3436" stroke-width="1.5" points="82.5,-25 82.5,-13 "/>
<path fill="none" stroke="#2e3436" stroke-width="1.5" d="M82.5,-13C82.5,-7 88.5,-1 94.5,-1"/>
<text text-anchor="middle" x="110" y="-25.8" font-family="FreeSans" font-size="8.00" fill="#1c2021">Node[3]</text>
<polyline fill="none" stroke="#2e3436" stroke-width="1.5" points="82.5,-19 137.5,-19 "/>
<text text-anchor="start" x="90.5" y="-7.8" font-family="FreeSans" font-size="8.00" fill="#1c2021">name = &#39;C&#39;</text>
</g>
<!-- N1&#45;&gt;N3 -->
<g id="edge4" class="edge"><title>N1&#45;&gt;N3</title>
<path fill="none" stroke="#2e3436" stroke-width="2" d="M77.1134,-84.7733C83.0574,-72.8851 90.896,-57.2081 97.4293,-44.1413"/>
<polygon fill="#2e3436" stroke="#2e3436" points="100.904,-37.1912 100.569,-45.4088 99.6745,-40.7689 97.9975,-44.123 97.5503,-43.8994 97.103,-43.6758 98.7801,-40.3217 94.5316,-42.39 100.904,-37.1912 100.904,-37.1912"/>
<text text-anchor="middle" x="105.5" y="-58.8" font-family="FreeSans" font-size="8.00" fill="#2e3436">KNOWS</text>
</g>
</g>
</svg>
