<?xml version="1.0" encoding="UTF-8" standalone="no"?>
<!DOCTYPE svg PUBLIC "-//W3C//DTD SVG 1.1//EN"
 "http://www.w3.org/Graphics/SVG/1.1/DTD/svg11.dtd">
<!-- Generated by graphviz version 2.26.3 (20100126.1600)
 -->
<!-- Title: g Pages: 1 -->
<svg width="177pt" height="130pt"
 viewBox="0.00 0.00 177.00 130.00" xmlns="http://www.w3.org/2000/svg" xmlns:xlink="http://www.w3.org/1999/xlink">
<g id="graph1" class="graph" transform="scale(1 1) rotate(0) translate(4 126)">
<title>g</title>
<polygon fill="white" stroke="white" points="-4,5 -4,-126 174,-126 174,5 -4,5"/>
<!-- N0 -->
<g id="node1" class="node"><title>N0</title>
<polygon fill="#ffffff" stroke="#ffffff" stroke-width="1.5" points="11.5,-1 60.5,-1 72.5,-13 72.5,-25 60.5,-37 11.5,-37 -0.5,-25 -0.5,-13 11.5,-1"/>
<path fill="#ffffff" stroke="#ffffff" stroke-width="1.5" d="M60.5,-1C66.5,-1 72.5,-7 72.5,-13"/>
<path fill="#ffffff" stroke="#ffffff" stroke-width="1.5" d="M72.5,-25C72.5,-31 66.5,-37 60.5,-37"/>
<path fill="#ffffff" stroke="#ffffff" stroke-width="1.5" d="M11.5,-37C5.5,-37 -0.5,-31 -0.5,-25"/>
<path fill="#ffffff" stroke="#ffffff" stroke-width="1.5" d="M-0.5,-13C-0.5,-7 5.5,-1 11.5,-1"/>
<polyline fill="none" stroke="#2e3436" stroke-width="1.5" points="11.5,-1 60.5,-1 "/>
<path fill="none" stroke="#2e3436" stroke-width="1.5" d="M60.5,-1C66.5,-1 72.5,-7 72.5,-13"/>
<polyline fill="none" stroke="#2e3436" stroke-width="1.5" points="72.5,-13 72.5,-25 "/>
<path fill="none" stroke="#2e3436" stroke-width="1.5" d="M72.5,-25C72.5,-31 66.5,-37 60.5,-37"/>
<polyline fill="none" stroke="#2e3436" stroke-width="1.5" points="60.5,-37 11.5,-37 "/>
<path fill="none" stroke="#2e3436" stroke-width="1.5" d="M11.5,-37C5.5,-37 -0.5,-31 -0.5,-25"/>
<polyline fill="none" stroke="#2e3436" stroke-width="1.5" points="-0.5,-25 -0.5,-13 "/>
<path fill="none" stroke="#2e3436" stroke-width="1.5" d="M-0.5,-13C-0.5,-7 5.5,-1 11.5,-1"/>
<text text-anchor="start" x="7.5" y="-21.8" font-family="FreeSans" font-size="8.00" fill="#1c2021">name = &#39;Tobias&#39;</text>
<text text-anchor="start" x="7.5" y="-11.8" font-family="FreeSans" font-size="8.00" fill="#1c2021">age = 25</text>
</g>
<!-- N1 -->
<g id="node2" class="node"><title>N1</title>
<polygon fill="#ffffff" stroke="#ffffff" stroke-width="1.5" points="113,-1 157,-1 169,-13 169,-25 157,-37 113,-37 101,-25 101,-13 113,-1"/>
<path fill="#ffffff" stroke="#ffffff" stroke-width="1.5" d="M157,-1C163,-1 169,-7 169,-13"/>
<path fill="#ffffff" stroke="#ffffff" stroke-width="1.5" d="M169,-25C169,-31 163,-37 157,-37"/>
<path fill="#ffffff" stroke="#ffffff" stroke-width="1.5" d="M113,-37C107,-37 101,-31 101,-25"/>
<path fill="#ffffff" stroke="#ffffff" stroke-width="1.5" d="M101,-13C101,-7 107,-1 113,-1"/>
<polyline fill="none" stroke="#2e3436" stroke-width="1.5" points="113,-1 157,-1 "/>
<path fill="none" stroke="#2e3436" stroke-width="1.5" d="M157,-1C163,-1 169,-7 169,-13"/>
<polyline fill="none" stroke="#2e3436" stroke-width="1.5" points="169,-13 169,-25 "/>
<path fill="none" stroke="#2e3436" stroke-width="1.5" d="M169,-25C169,-31 163,-37 157,-37"/>
<polyline fill="none" stroke="#2e3436" stroke-width="1.5" points="157,-37 113,-37 "/>
<path fill="none" stroke="#2e3436" stroke-width="1.5" d="M113,-37C107,-37 101,-31 101,-25"/>
<polyline fill="none" stroke="#2e3436" stroke-width="1.5" points="101,-25 101,-13 "/>
<path fill="none" stroke="#2e3436" stroke-width="1.5" d="M101,-13C101,-7 107,-1 113,-1"/>
<text text-anchor="start" x="109" y="-21.8" font-family="FreeSans" font-size="8.00" fill="#1c2021">name = &#39;Peter&#39;</text>
<text text-anchor="start" x="109" y="-11.8" font-family="FreeSans" font-size="8.00" fill="#1c2021">age = 34</text>
</g>
<!-- N2 -->
<g id="node3" class="node"><title>N2</title>
<polygon fill="#ffffff" stroke="#ffffff" stroke-width="1.5" points="60,-85 110,-85 122,-97 122,-109 110,-121 60,-121 48,-109 48,-97 60,-85"/>
<path fill="#ffffff" stroke="#ffffff" stroke-width="1.5" d="M110,-85C116,-85 122,-91 122,-97"/>
<path fill="#ffffff" stroke="#ffffff" stroke-width="1.5" d="M122,-109C122,-115 116,-121 110,-121"/>
<path fill="#ffffff" stroke="#ffffff" stroke-width="1.5" d="M60,-121C54,-121 48,-115 48,-109"/>
<path fill="#ffffff" stroke="#ffffff" stroke-width="1.5" d="M48,-97C48,-91 54,-85 60,-85"/>
<polyline fill="none" stroke="#2e3436" stroke-width="1.5" points="60,-85 110,-85 "/>
<path fill="none" stroke="#2e3436" stroke-width="1.5" d="M110,-85C116,-85 122,-91 122,-97"/>
<polyline fill="none" stroke="#2e3436" stroke-width="1.5" points="122,-97 122,-109 "/>
<path fill="none" stroke="#2e3436" stroke-width="1.5" d="M122,-109C122,-115 116,-121 110,-121"/>
<polyline fill="none" stroke="#2e3436" stroke-width="1.5" points="110,-121 60,-121 "/>
<path fill="none" stroke="#2e3436" stroke-width="1.5" d="M60,-121C54,-121 48,-115 48,-109"/>
<polyline fill="none" stroke="#2e3436" stroke-width="1.5" points="48,-109 48,-97 "/>
<path fill="none" stroke="#2e3436" stroke-width="1.5" d="M48,-97C48,-91 54,-85 60,-85"/>
<text text-anchor="start" x="56" y="-105.8" font-family="FreeSans" font-size="8.00" fill="#1c2021">name = &#39;Andres&#39;</text>
<text text-anchor="start" x="56" y="-95.8" font-family="FreeSans" font-size="8.00" fill="#1c2021">age = 36</text>
</g>
<!-- N2&#45;&gt;N0 -->
<g id="edge2" class="edge"><title>N2&#45;&gt;N0</title>
<path fill="none" stroke="#2e3436" stroke-width="2" d="M74.3677,-84.7733C67.3688,-72.7751 58.1185,-56.9174 50.4544,-43.779"/>
<polygon fill="#2e3436" stroke="#2e3436" points="46.6115,-37.1912 53.3059,-41.9689 48.933,-40.1784 50.8225,-43.4176 50.3906,-43.6695 49.9587,-43.9215 48.0692,-40.6823 47.4753,-45.3701 46.6115,-37.1912 46.6115,-37.1912"/>
<text text-anchor="middle" x="77.5" y="-58.8" font-family="FreeSans" font-size="8.00" fill="#2e3436">KNOWS</text>
</g>
<!-- N2&#45;&gt;N1 -->
<g id="edge4" class="edge"><title>N2&#45;&gt;N1</title>
<path fill="none" stroke="#2e3436" stroke-width="2" d="M95.8493,-84.7733C102.991,-72.7751 112.43,-56.9174 120.251,-43.779"/>
<polygon fill="#2e3436" stroke="#2e3436" points="124.172,-37.1912 123.236,-45.3622 122.683,-40.6693 120.765,-43.8916 120.336,-43.6359 119.906,-43.3801 121.824,-40.1578 117.436,-41.9096 124.172,-37.1912 124.172,-37.1912"/>
<text text-anchor="middle" x="126.5" y="-58.8" font-family="FreeSans" font-size="8.00" fill="#2e3436">KNOWS</text>
</g>
</g>
</svg>
