<?xml version="1.0" encoding="UTF-8" standalone="no"?>
<!DOCTYPE svg PUBLIC "-//W3C//DTD SVG 1.1//EN"
 "http://www.w3.org/Graphics/SVG/1.1/DTD/svg11.dtd">
<!-- Generated by graphviz version 2.26.3 (20100126.1600)
 -->
<!-- Title: g Pages: 1 -->
<svg width="130pt" height="46pt"
 viewBox="0.00 0.00 130.00 46.00" xmlns="http://www.w3.org/2000/svg" xmlns:xlink="http://www.w3.org/1999/xlink">
<g id="graph1" class="graph" transform="scale(1 1) rotate(0) translate(4 42)">
<title>g</title>
<polygon fill="white" stroke="white" points="-4,5 -4,-42 127,-42 127,5 -4,5"/>
<!-- N0 -->
<g id="node1" class="node"><title>N0</title>
<polygon fill="#ffffff" stroke="#ffffff" stroke-width="1.5" points="12,-1 62,-1 74,-13 74,-25 62,-37 12,-37 0,-25 0,-13 12,-1"/>
<path fill="#ffffff" stroke="#ffffff" stroke-width="1.5" d="M62,-1C68,-1 74,-7 74,-13"/>
<path fill="#ffffff" stroke="#ffffff" stroke-width="1.5" d="M74,-25C74,-31 68,-37 62,-37"/>
<path fill="#ffffff" stroke="#ffffff" stroke-width="1.5" d="M12,-37C6,-37 0,-31 0,-25"/>
<path fill="#ffffff" stroke="#ffffff" stroke-width="1.5" d="M0,-13C0,-7 6,-1 12,-1"/>
<polyline fill="none" stroke="#2e3436" stroke-width="1.5" points="12,-1 62,-1 "/>
<path fill="none" stroke="#2e3436" stroke-width="1.5" d="M62,-1C68,-1 74,-7 74,-13"/>
<polyline fill="none" stroke="#2e3436" stroke-width="1.5" points="74,-13 74,-25 "/>
<path fill="none" stroke="#2e3436" stroke-width="1.5" d="M74,-25C74,-31 68,-37 62,-37"/>
<polyline fill="none" stroke="#2e3436" stroke-width="1.5" points="62,-37 12,-37 "/>
<path fill="none" stroke="#2e3436" stroke-width="1.5" d="M12,-37C6,-37 0,-31 0,-25"/>
<polyline fill="none" stroke="#2e3436" stroke-width="1.5" points="0,-25 0,-13 "/>
<path fill="none" stroke="#2e3436" stroke-width="1.5" d="M0,-13C0,-7 6,-1 12,-1"/>
<text text-anchor="start" x="8" y="-16.8" font-family="FreeSans" font-size="8.00" fill="#1c2021">name = &#39;ROOT&#39;</text>
</g>
<!-- N0&#45;&gt;N0 -->
<g id="edge2" class="edge"><title>N0&#45;&gt;N0</title>
<path fill="none" stroke="#2e3436" stroke-width="2" d="M74.3171,-25.6907C89.8408,-26.1521 103,-23.9219 103,-19 103,-14.9241 93.9756,-12.6941 82.0572,-12.3099"/>
<polygon fill="#2e3436" stroke="#2e3436" points="74.3171,-12.3093 81.8174,-8.93502 78.0671,-11.8097 81.8171,-11.81 81.8171,-12.31 81.8171,-12.81 78.0671,-12.8097 81.8168,-15.685 74.3171,-12.3093 74.3171,-12.3093"/>
<text text-anchor="middle" x="112.5" y="-16.8" font-family="FreeSans" font-size="8.00" fill="#2e3436">LINK</text>
</g>
</g>
</svg>
