<?xml version="1.0" encoding="UTF-8" standalone="no"?>
<!DOCTYPE svg PUBLIC "-//W3C//DTD SVG 1.1//EN"
 "http://www.w3.org/Graphics/SVG/1.1/DTD/svg11.dtd">
<!-- Generated by graphviz version 2.26.3 (20100126.1600)
 -->
<!-- Title: g Pages: 1 -->
<svg width="82pt" height="130pt"
 viewBox="0.00 0.00 82.00 130.00" xmlns="http://www.w3.org/2000/svg" xmlns:xlink="http://www.w3.org/1999/xlink">
<g id="graph1" class="graph" transform="scale(1 1) rotate(0) translate(4 126)">
<title>g</title>
<polygon fill="white" stroke="white" points="-4,5 -4,-126 79,-126 79,5 -4,5"/>
<!-- N0 -->
<g id="node1" class="node"><title>N0</title>
<polygon fill="#ffffff" stroke="#ffffff" stroke-width="1.5" points="12,-85 62,-85 74,-97 74,-109 62,-121 12,-121 0,-109 0,-97 12,-85"/>
<path fill="#ffffff" stroke="#ffffff" stroke-width="1.5" d="M62,-85C68,-85 74,-91 74,-97"/>
<path fill="#ffffff" stroke="#ffffff" stroke-width="1.5" d="M74,-109C74,-115 68,-121 62,-121"/>
<path fill="#ffffff" stroke="#ffffff" stroke-width="1.5" d="M12,-121C6,-121 0,-115 0,-109"/>
<path fill="#ffffff" stroke="#ffffff" stroke-width="1.5" d="M0,-97C0,-91 6,-85 12,-85"/>
<polyline fill="none" stroke="#2e3436" stroke-width="1.5" points="12,-85 62,-85 "/>
<path fill="none" stroke="#2e3436" stroke-width="1.5" d="M62,-85C68,-85 74,-91 74,-97"/>
<polyline fill="none" stroke="#2e3436" stroke-width="1.5" points="74,-97 74,-109 "/>
<path fill="none" stroke="#2e3436" stroke-width="1.5" d="M74,-109C74,-115 68,-121 62,-121"/>
<polyline fill="none" stroke="#2e3436" stroke-width="1.5" points="62,-121 12,-121 "/>
<path fill="none" stroke="#2e3436" stroke-width="1.5" d="M12,-121C6,-121 0,-115 0,-109"/>
<polyline fill="none" stroke="#2e3436" stroke-width="1.5" points="0,-109 0,-97 "/>
<path fill="none" stroke="#2e3436" stroke-width="1.5" d="M0,-97C0,-91 6,-85 12,-85"/>
<text text-anchor="start" x="8" y="-100.8" font-family="FreeSans" font-size="8.00" fill="#1c2021">name = &#39;ROOT&#39;</text>
</g>
<!-- N1 -->
<g id="node3" class="node"><title>N1</title>
<polygon fill="#ffffff" stroke="#ffffff" stroke-width="1.5" points="22,-1 52,-1 64,-13 64,-25 52,-37 22,-37 10,-25 10,-13 22,-1"/>
<path fill="#ffffff" stroke="#ffffff" stroke-width="1.5" d="M52,-1C58,-1 64,-7 64,-13"/>
<path fill="#ffffff" stroke="#ffffff" stroke-width="1.5" d="M64,-25C64,-31 58,-37 52,-37"/>
<path fill="#ffffff" stroke="#ffffff" stroke-width="1.5" d="M22,-37C16,-37 10,-31 10,-25"/>
<path fill="#ffffff" stroke="#ffffff" stroke-width="1.5" d="M10,-13C10,-7 16,-1 22,-1"/>
<polyline fill="none" stroke="#2e3436" stroke-width="1.5" points="22,-1 52,-1 "/>
<path fill="none" stroke="#2e3436" stroke-width="1.5" d="M52,-1C58,-1 64,-7 64,-13"/>
<polyline fill="none" stroke="#2e3436" stroke-width="1.5" points="64,-13 64,-25 "/>
<path fill="none" stroke="#2e3436" stroke-width="1.5" d="M64,-25C64,-31 58,-37 52,-37"/>
<polyline fill="none" stroke="#2e3436" stroke-width="1.5" points="52,-37 22,-37 "/>
<path fill="none" stroke="#2e3436" stroke-width="1.5" d="M22,-37C16,-37 10,-31 10,-25"/>
<polyline fill="none" stroke="#2e3436" stroke-width="1.5" points="10,-25 10,-13 "/>
<path fill="none" stroke="#2e3436" stroke-width="1.5" d="M10,-13C10,-7 16,-1 22,-1"/>
<text text-anchor="start" x="18" y="-16.8" font-family="FreeSans" font-size="8.00" fill="#1c2021">value = 25</text>
</g>
<!-- N0&#45;&gt;N1 -->
<g id="edge2" class="edge"><title>N0&#45;&gt;N1</title>
<path fill="none" stroke="#2e3436" stroke-width="2" d="M19.5661,-84.793C15.2699,-79.1925 11.2562,-72.7203 9,-66 6.40783,-58.279 8.69378,-50.4571 12.8807,-43.4682"/>
<polygon fill="#2e3436" stroke="#2e3436" points="17.1749,-37.3108 15.6529,-45.3932 15.4399,-40.6727 13.2948,-43.7486 12.8846,-43.4626 12.4745,-43.1766 14.6197,-40.1007 10.1163,-41.532 17.1749,-37.3108 17.1749,-37.3108"/>
<text text-anchor="middle" x="18.5" y="-58.8" font-family="FreeSans" font-size="8.00" fill="#2e3436">LINK</text>
</g>
<!-- N1&#45;&gt;N0 -->
<g id="edge4" class="edge"><title>N1&#45;&gt;N0</title>
<path fill="none" stroke="#2e3436" stroke-width="2" d="M37,-37.1912C37,-48.8517 37,-64.1683 37,-77.0907"/>
<polygon fill="#2e3436" stroke="#2e3436" points="37,-84.7733 33.6251,-77.2732 36.5,-81.0232 36.5001,-77.2732 37.0001,-77.2733 37.5001,-77.2733 37.5,-81.0233 40.3751,-77.2733 37,-84.7733 37,-84.7733"/>
<text text-anchor="middle" x="46.5" y="-58.8" font-family="FreeSans" font-size="8.00" fill="#2e3436">LINK</text>
</g>
</g>
</svg>
