<?xml version="1.0" encoding="UTF-8" standalone="no"?>
<!DOCTYPE svg PUBLIC "-//W3C//DTD SVG 1.1//EN"
 "http://www.w3.org/Graphics/SVG/1.1/DTD/svg11.dtd">
<!-- Generated by graphviz version 2.26.3 (20100126.1600)
 -->
<!-- Title: g Pages: 1 -->
<svg width="303pt" height="214pt"
 viewBox="0.00 0.00 303.00 214.00" xmlns="http://www.w3.org/2000/svg" xmlns:xlink="http://www.w3.org/1999/xlink">
<g id="graph1" class="graph" transform="scale(1 1) rotate(0) translate(4 210)">
<title>g</title>
<polygon fill="white" stroke="white" points="-4,5 -4,-210 300,-210 300,5 -4,5"/>
<!-- N0 -->
<g id="node1" class="node"><title>N0</title>
<polygon fill="#ffffff" stroke="#ffffff" stroke-width="1.5" points="82,-169 168,-169 180,-181 180,-193 168,-205 82,-205 70,-193 70,-181 82,-169"/>
<path fill="#ffffff" stroke="#ffffff" stroke-width="1.5" d="M168,-169C174,-169 180,-175 180,-181"/>
<path fill="#ffffff" stroke="#ffffff" stroke-width="1.5" d="M180,-193C180,-199 174,-205 168,-205"/>
<path fill="#ffffff" stroke="#ffffff" stroke-width="1.5" d="M82,-205C76,-205 70,-199 70,-193"/>
<path fill="#ffffff" stroke="#ffffff" stroke-width="1.5" d="M70,-181C70,-175 76,-169 82,-169"/>
<polyline fill="none" stroke="#2e3436" stroke-width="1.5" points="82,-169 168,-169 "/>
<path fill="none" stroke="#2e3436" stroke-width="1.5" d="M168,-169C174,-169 180,-175 180,-181"/>
<polyline fill="none" stroke="#2e3436" stroke-width="1.5" points="180,-181 180,-193 "/>
<path fill="none" stroke="#2e3436" stroke-width="1.5" d="M180,-193C180,-199 174,-205 168,-205"/>
<polyline fill="none" stroke="#2e3436" stroke-width="1.5" points="168,-205 82,-205 "/>
<path fill="none" stroke="#2e3436" stroke-width="1.5" d="M82,-205C76,-205 70,-199 70,-193"/>
<polyline fill="none" stroke="#2e3436" stroke-width="1.5" points="70,-193 70,-181 "/>
<path fill="none" stroke="#2e3436" stroke-width="1.5" d="M70,-181C70,-175 76,-169 82,-169"/>
<text text-anchor="middle" x="125" y="-193.8" font-family="FreeSans" font-size="8.00" fill="#1c2021">Actor</text>
<polyline fill="none" stroke="#2e3436" stroke-width="1.5" points="70,-187 180,-187 "/>
<text text-anchor="start" x="78" y="-175.8" font-family="FreeSans" font-size="8.00" fill="#1c2021">name = &#39;Anthony Hopkins&#39;</text>
</g>
<!-- N1 -->
<g id="node3" class="node"><title>N1</title>
<polygon fill="#ffffff" stroke="#ffffff" stroke-width="1.5" points="11.5,-85 82.5,-85 94.5,-97 94.5,-109 82.5,-121 11.5,-121 -0.5,-109 -0.5,-97 11.5,-85"/>
<path fill="#ffffff" stroke="#ffffff" stroke-width="1.5" d="M82.5,-85C88.5,-85 94.5,-91 94.5,-97"/>
<path fill="#ffffff" stroke="#ffffff" stroke-width="1.5" d="M94.5,-109C94.5,-115 88.5,-121 82.5,-121"/>
<path fill="#ffffff" stroke="#ffffff" stroke-width="1.5" d="M11.5,-121C5.5,-121 -0.5,-115 -0.5,-109"/>
<path fill="#ffffff" stroke="#ffffff" stroke-width="1.5" d="M-0.5,-97C-0.5,-91 5.5,-85 11.5,-85"/>
<polyline fill="none" stroke="#2e3436" stroke-width="1.5" points="11.5,-85 82.5,-85 "/>
<path fill="none" stroke="#2e3436" stroke-width="1.5" d="M82.5,-85C88.5,-85 94.5,-91 94.5,-97"/>
<polyline fill="none" stroke="#2e3436" stroke-width="1.5" points="94.5,-97 94.5,-109 "/>
<path fill="none" stroke="#2e3436" stroke-width="1.5" d="M94.5,-109C94.5,-115 88.5,-121 82.5,-121"/>
<polyline fill="none" stroke="#2e3436" stroke-width="1.5" points="82.5,-121 11.5,-121 "/>
<path fill="none" stroke="#2e3436" stroke-width="1.5" d="M11.5,-121C5.5,-121 -0.5,-115 -0.5,-109"/>
<polyline fill="none" stroke="#2e3436" stroke-width="1.5" points="-0.5,-109 -0.5,-97 "/>
<path fill="none" stroke="#2e3436" stroke-width="1.5" d="M-0.5,-97C-0.5,-91 5.5,-85 11.5,-85"/>
<text text-anchor="middle" x="47" y="-109.8" font-family="FreeSans" font-size="8.00" fill="#1c2021">Actor</text>
<polyline fill="none" stroke="#2e3436" stroke-width="1.5" points="-0.5,-103 94.5,-103 "/>
<text text-anchor="start" x="7.5" y="-91.8" font-family="FreeSans" font-size="8.00" fill="#1c2021">name = &#39;Helen Mirren&#39;</text>
</g>
<!-- N0&#45;&gt;N1 -->
<g id="edge2" class="edge"><title>N0&#45;&gt;N1</title>
<path fill="none" stroke="#2e3436" stroke-width="2" d="M108.075,-168.773C96.6274,-156.445 81.3958,-140.042 69.0076,-126.701"/>
<polygon fill="#2e3436" stroke="#2e3436" points="63.8918,-121.191 71.4684,-124.391 66.8099,-123.599 69.3616,-126.347 68.9952,-126.687 68.6288,-127.027 66.0771,-124.279 66.522,-128.984 63.8918,-121.191 63.8918,-121.191"/>
<text text-anchor="middle" x="104.5" y="-142.8" font-family="FreeSans" font-size="8.00" fill="#2e3436">KNOWS</text>
</g>
<!-- N3 -->
<g id="node5" class="node"><title>N3</title>
<polygon fill="#ffffff" stroke="#ffffff" stroke-width="1.5" points="85.5,-1 138.5,-1 150.5,-13 150.5,-25 138.5,-37 85.5,-37 73.5,-25 73.5,-13 85.5,-1"/>
<path fill="#ffffff" stroke="#ffffff" stroke-width="1.5" d="M138.5,-1C144.5,-1 150.5,-7 150.5,-13"/>
<path fill="#ffffff" stroke="#ffffff" stroke-width="1.5" d="M150.5,-25C150.5,-31 144.5,-37 138.5,-37"/>
<path fill="#ffffff" stroke="#ffffff" stroke-width="1.5" d="M85.5,-37C79.5,-37 73.5,-31 73.5,-25"/>
<path fill="#ffffff" stroke="#ffffff" stroke-width="1.5" d="M73.5,-13C73.5,-7 79.5,-1 85.5,-1"/>
<polyline fill="none" stroke="#2e3436" stroke-width="1.5" points="85.5,-1 138.5,-1 "/>
<path fill="none" stroke="#2e3436" stroke-width="1.5" d="M138.5,-1C144.5,-1 150.5,-7 150.5,-13"/>
<polyline fill="none" stroke="#2e3436" stroke-width="1.5" points="150.5,-13 150.5,-25 "/>
<path fill="none" stroke="#2e3436" stroke-width="1.5" d="M150.5,-25C150.5,-31 144.5,-37 138.5,-37"/>
<polyline fill="none" stroke="#2e3436" stroke-width="1.5" points="138.5,-37 85.5,-37 "/>
<path fill="none" stroke="#2e3436" stroke-width="1.5" d="M85.5,-37C79.5,-37 73.5,-31 73.5,-25"/>
<polyline fill="none" stroke="#2e3436" stroke-width="1.5" points="73.5,-25 73.5,-13 "/>
<path fill="none" stroke="#2e3436" stroke-width="1.5" d="M73.5,-13C73.5,-7 79.5,-1 85.5,-1"/>
<text text-anchor="middle" x="112" y="-25.8" font-family="FreeSans" font-size="8.00" fill="#1c2021">Movie</text>
<polyline fill="none" stroke="#2e3436" stroke-width="1.5" points="73.5,-19 150.5,-19 "/>
<text text-anchor="start" x="81.5" y="-7.8" font-family="FreeSans" font-size="8.00" fill="#1c2021">title = &#39;Hitchcock&#39;</text>
</g>
<!-- N0&#45;&gt;N3 -->
<g id="edge4" class="edge"><title>N0&#45;&gt;N3</title>
<path fill="none" stroke="#4e9a06" stroke-width="2" d="M126.772,-168.6C128.796,-143.091 130.995,-95.6439 124,-56 123.328,-52.1906 122.356,-48.2336 121.251,-44.3856"/>
<polygon fill="#4e9a06" stroke="#4e9a06" points="119.009,-37.1878 124.462,-43.3446 120.602,-40.6194 121.717,-44.1997 121.24,-44.3484 120.762,-44.4971 119.647,-40.9168 118.018,-45.3522 119.009,-37.1878 119.009,-37.1878"/>
<text text-anchor="middle" x="145.5" y="-100.8" font-family="FreeSans" font-size="8.00" fill="#4e9a06">ACTS_IN</text>
</g>
<!-- N1&#45;&gt;N3 -->
<g id="edge6" class="edge"><title>N1&#45;&gt;N3</title>
<path fill="none" stroke="#4e9a06" stroke-width="2" d="M61.104,-84.7733C70.4735,-72.665 82.8845,-56.6261 93.105,-43.4181"/>
<polygon fill="#4e9a06" stroke="#4e9a06" points="97.9235,-37.1912 96.0028,-45.1882 96.024,-40.4629 93.729,-43.4287 93.3336,-43.1227 92.9381,-42.8167 95.2331,-39.851 90.6644,-41.0573 97.9235,-37.1912 97.9235,-37.1912"/>
<text text-anchor="middle" x="99.5" y="-58.8" font-family="FreeSans" font-size="8.00" fill="#4e9a06">ACTS_IN</text>
</g>
<!-- N2 -->
<g id="node7" class="node"><title>N2</title>
<polygon fill="#ffffff" stroke="#ffffff" stroke-width="1.5" points="221,-169 283,-169 295,-181 295,-193 283,-205 221,-205 209,-193 209,-181 221,-169"/>
<path fill="#ffffff" stroke="#ffffff" stroke-width="1.5" d="M283,-169C289,-169 295,-175 295,-181"/>
<path fill="#ffffff" stroke="#ffffff" stroke-width="1.5" d="M295,-193C295,-199 289,-205 283,-205"/>
<path fill="#ffffff" stroke="#ffffff" stroke-width="1.5" d="M221,-205C215,-205 209,-199 209,-193"/>
<path fill="#ffffff" stroke="#ffffff" stroke-width="1.5" d="M209,-181C209,-175 215,-169 221,-169"/>
<polyline fill="none" stroke="#2e3436" stroke-width="1.5" points="221,-169 283,-169 "/>
<path fill="none" stroke="#2e3436" stroke-width="1.5" d="M283,-169C289,-169 295,-175 295,-181"/>
<polyline fill="none" stroke="#2e3436" stroke-width="1.5" points="295,-181 295,-193 "/>
<path fill="none" stroke="#2e3436" stroke-width="1.5" d="M295,-193C295,-199 289,-205 283,-205"/>
<polyline fill="none" stroke="#2e3436" stroke-width="1.5" points="283,-205 221,-205 "/>
<path fill="none" stroke="#2e3436" stroke-width="1.5" d="M221,-205C215,-205 209,-199 209,-193"/>
<polyline fill="none" stroke="#2e3436" stroke-width="1.5" points="209,-193 209,-181 "/>
<path fill="none" stroke="#2e3436" stroke-width="1.5" d="M209,-181C209,-175 215,-169 221,-169"/>
<text text-anchor="middle" x="252" y="-193.8" font-family="FreeSans" font-size="8.00" fill="#1c2021">Actor</text>
<polyline fill="none" stroke="#2e3436" stroke-width="1.5" points="209,-187 295,-187 "/>
<text text-anchor="start" x="217" y="-175.8" font-family="FreeSans" font-size="8.00" fill="#1c2021">name = &#39;Hitchcock&#39;</text>
</g>
</g>
</svg>
