<?xml version="1.0" encoding="UTF-8" standalone="no"?>
<!DOCTYPE svg PUBLIC "-//W3C//DTD SVG 1.1//EN"
 "http://www.w3.org/Graphics/SVG/1.1/DTD/svg11.dtd">
<!-- Generated by graphviz version 2.26.3 (20100126.1600)
 -->
<!-- Title: g Pages: 1 -->
<svg width="395pt" height="214pt"
 viewBox="0.00 0.00 394.82 214.00" xmlns="http://www.w3.org/2000/svg" xmlns:xlink="http://www.w3.org/1999/xlink">
<g id="graph1" class="graph" transform="scale(1 1) rotate(0) translate(4 210)">
<title>g</title>
<polygon fill="white" stroke="white" points="-4,5 -4,-210 391.82,-210 391.82,5 -4,5"/>
<!-- N0 -->
<g id="node1" class="node"><title>N0</title>
<polygon fill="#ffffff" stroke="#ffffff" stroke-width="1.5" points="221.32,-85 284.32,-85 296.32,-97 296.32,-109 284.32,-121 221.32,-121 209.32,-109 209.32,-97 221.32,-85"/>
<path fill="#ffffff" stroke="#ffffff" stroke-width="1.5" d="M284.32,-85C290.32,-85 296.32,-91 296.32,-97"/>
<path fill="#ffffff" stroke="#ffffff" stroke-width="1.5" d="M296.32,-109C296.32,-115 290.32,-121 284.32,-121"/>
<path fill="#ffffff" stroke="#ffffff" stroke-width="1.5" d="M221.32,-121C215.32,-121 209.32,-115 209.32,-109"/>
<path fill="#ffffff" stroke="#ffffff" stroke-width="1.5" d="M209.32,-97C209.32,-91 215.32,-85 221.32,-85"/>
<polyline fill="none" stroke="#2e3436" stroke-width="1.5" points="221.32,-85 284.32,-85 "/>
<path fill="none" stroke="#2e3436" stroke-width="1.5" d="M284.32,-85C290.32,-85 296.32,-91 296.32,-97"/>
<polyline fill="none" stroke="#2e3436" stroke-width="1.5" points="296.32,-97 296.32,-109 "/>
<path fill="none" stroke="#2e3436" stroke-width="1.5" d="M296.32,-109C296.32,-115 290.32,-121 284.32,-121"/>
<polyline fill="none" stroke="#2e3436" stroke-width="1.5" points="284.32,-121 221.32,-121 "/>
<path fill="none" stroke="#2e3436" stroke-width="1.5" d="M221.32,-121C215.32,-121 209.32,-115 209.32,-109"/>
<polyline fill="none" stroke="#2e3436" stroke-width="1.5" points="209.32,-109 209.32,-97 "/>
<path fill="none" stroke="#2e3436" stroke-width="1.5" d="M209.32,-97C209.32,-91 215.32,-85 221.32,-85"/>
<text text-anchor="start" x="217.32" y="-100.8" font-family="FreeSans" font-size="8.00" fill="#1c2021">Node[0]name = &#39;Bill&#39;</text>
</g>
<!-- N1 -->
<g id="node3" class="node"><title>N1</title>
<polygon fill="#ffffff" stroke="#ffffff" stroke-width="1.5" points="149.82,-1 229.82,-1 241.82,-13 241.82,-25 229.82,-37 149.82,-37 137.82,-25 137.82,-13 149.82,-1"/>
<path fill="#ffffff" stroke="#ffffff" stroke-width="1.5" d="M229.82,-1C235.82,-1 241.82,-7 241.82,-13"/>
<path fill="#ffffff" stroke="#ffffff" stroke-width="1.5" d="M241.82,-25C241.82,-31 235.82,-37 229.82,-37"/>
<path fill="#ffffff" stroke="#ffffff" stroke-width="1.5" d="M149.82,-37C143.82,-37 137.82,-31 137.82,-25"/>
<path fill="#ffffff" stroke="#ffffff" stroke-width="1.5" d="M137.82,-13C137.82,-7 143.82,-1 149.82,-1"/>
<polyline fill="none" stroke="#2e3436" stroke-width="1.5" points="149.82,-1 229.82,-1 "/>
<path fill="none" stroke="#2e3436" stroke-width="1.5" d="M229.82,-1C235.82,-1 241.82,-7 241.82,-13"/>
<polyline fill="none" stroke="#2e3436" stroke-width="1.5" points="241.82,-13 241.82,-25 "/>
<path fill="none" stroke="#2e3436" stroke-width="1.5" d="M241.82,-25C241.82,-31 235.82,-37 229.82,-37"/>
<polyline fill="none" stroke="#2e3436" stroke-width="1.5" points="229.82,-37 149.82,-37 "/>
<path fill="none" stroke="#2e3436" stroke-width="1.5" d="M149.82,-37C143.82,-37 137.82,-31 137.82,-25"/>
<polyline fill="none" stroke="#2e3436" stroke-width="1.5" points="137.82,-25 137.82,-13 "/>
<path fill="none" stroke="#2e3436" stroke-width="1.5" d="M137.82,-13C137.82,-7 143.82,-1 149.82,-1"/>
<text text-anchor="start" x="145.82" y="-16.8" font-family="FreeSans" font-size="8.00" fill="#1c2021">Node[1]name = &#39;Group1&#39;</text>
</g>
<!-- N0&#45;&gt;N1 -->
<g id="edge2" class="edge"><title>N0&#45;&gt;N1</title>
<path fill="none" stroke="#2e3436" stroke-width="2" d="M239.15,-84.7733C230.069,-72.665 218.04,-56.6261 208.134,-43.4181"/>
<polygon fill="#2e3436" stroke="#2e3436" points="203.463,-37.1912 210.664,-41.1662 206.113,-39.8912 208.364,-42.8912 207.964,-43.1912 207.564,-43.4912 205.313,-40.4912 205.264,-45.2162 203.463,-37.1912 203.463,-37.1912"/>
<text text-anchor="middle" x="256.32" y="-58.8" font-family="FreeSans" font-size="8.00" fill="#2e3436">member_of_group</text>
</g>
<!-- N2 -->
<g id="node4" class="node"><title>N2</title>
<polygon fill="#ffffff" stroke="#ffffff" stroke-width="1.5" points="100.82,-85 168.82,-85 180.82,-97 180.82,-109 168.82,-121 100.82,-121 88.8201,-109 88.8201,-97 100.82,-85"/>
<path fill="#ffffff" stroke="#ffffff" stroke-width="1.5" d="M168.82,-85C174.82,-85 180.82,-91 180.82,-97"/>
<path fill="#ffffff" stroke="#ffffff" stroke-width="1.5" d="M180.82,-109C180.82,-115 174.82,-121 168.82,-121"/>
<path fill="#ffffff" stroke="#ffffff" stroke-width="1.5" d="M100.82,-121C94.8201,-121 88.8201,-115 88.8201,-109"/>
<path fill="#ffffff" stroke="#ffffff" stroke-width="1.5" d="M88.8201,-97C88.8201,-91 94.8201,-85 100.82,-85"/>
<polyline fill="none" stroke="#2e3436" stroke-width="1.5" points="100.82,-85 168.82,-85 "/>
<path fill="none" stroke="#2e3436" stroke-width="1.5" d="M168.82,-85C174.82,-85 180.82,-91 180.82,-97"/>
<polyline fill="none" stroke="#2e3436" stroke-width="1.5" points="180.82,-97 180.82,-109 "/>
<path fill="none" stroke="#2e3436" stroke-width="1.5" d="M180.82,-109C180.82,-115 174.82,-121 168.82,-121"/>
<polyline fill="none" stroke="#2e3436" stroke-width="1.5" points="168.82,-121 100.82,-121 "/>
<path fill="none" stroke="#2e3436" stroke-width="1.5" d="M100.82,-121C94.8201,-121 88.8201,-115 88.8201,-109"/>
<polyline fill="none" stroke="#2e3436" stroke-width="1.5" points="88.8201,-109 88.8201,-97 "/>
<path fill="none" stroke="#2e3436" stroke-width="1.5" d="M88.8201,-97C88.8201,-91 94.8201,-85 100.82,-85"/>
<text text-anchor="start" x="96.8201" y="-100.8" font-family="FreeSans" font-size="8.00" fill="#1c2021">Node[2]name = &#39;Bob&#39;</text>
</g>
<!-- N2&#45;&gt;N1 -->
<g id="edge4" class="edge"><title>N2&#45;&gt;N1</title>
<path fill="none" stroke="#2e3436" stroke-width="2" d="M134.377,-84.9826C134.895,-75.76 136.724,-64.6789 141.82,-56 144.817,-50.8964 148.814,-46.2492 153.228,-42.1043"/>
<polygon fill="#2e3436" stroke="#2e3436" points="158.997,-37.1262 155.524,-44.5813 156.484,-39.9547 153.645,-42.4046 153.319,-42.0261 152.992,-41.6475 155.831,-39.1976 151.114,-39.4709 158.997,-37.1262 158.997,-37.1262"/>
<text text-anchor="middle" x="175.32" y="-58.8" font-family="FreeSans" font-size="8.00" fill="#2e3436">member_of_group</text>
</g>
<!-- N3 -->
<g id="node6" class="node"><title>N3</title>
<polygon fill="#ffffff" stroke="#ffffff" stroke-width="1.5" points="79.8201,-169 141.82,-169 153.82,-181 153.82,-193 141.82,-205 79.8201,-205 67.8201,-193 67.8201,-181 79.8201,-169"/>
<path fill="#ffffff" stroke="#ffffff" stroke-width="1.5" d="M141.82,-169C147.82,-169 153.82,-175 153.82,-181"/>
<path fill="#ffffff" stroke="#ffffff" stroke-width="1.5" d="M153.82,-193C153.82,-199 147.82,-205 141.82,-205"/>
<path fill="#ffffff" stroke="#ffffff" stroke-width="1.5" d="M79.8201,-205C73.8201,-205 67.8201,-199 67.8201,-193"/>
<path fill="#ffffff" stroke="#ffffff" stroke-width="1.5" d="M67.8201,-181C67.8201,-175 73.8201,-169 79.8201,-169"/>
<polyline fill="none" stroke="#2e3436" stroke-width="1.5" points="79.8201,-169 141.82,-169 "/>
<path fill="none" stroke="#2e3436" stroke-width="1.5" d="M141.82,-169C147.82,-169 153.82,-175 153.82,-181"/>
<polyline fill="none" stroke="#2e3436" stroke-width="1.5" points="153.82,-181 153.82,-193 "/>
<path fill="none" stroke="#2e3436" stroke-width="1.5" d="M153.82,-193C153.82,-199 147.82,-205 141.82,-205"/>
<polyline fill="none" stroke="#2e3436" stroke-width="1.5" points="141.82,-205 79.8201,-205 "/>
<path fill="none" stroke="#2e3436" stroke-width="1.5" d="M79.8201,-205C73.8201,-205 67.8201,-199 67.8201,-193"/>
<polyline fill="none" stroke="#2e3436" stroke-width="1.5" points="67.8201,-193 67.8201,-181 "/>
<path fill="none" stroke="#2e3436" stroke-width="1.5" d="M67.8201,-181C67.8201,-175 73.8201,-169 79.8201,-169"/>
<text text-anchor="start" x="75.8201" y="-184.8" font-family="FreeSans" font-size="8.00" fill="#1c2021">Node[3]name = &#39;Jill&#39;</text>
</g>
<!-- N3&#45;&gt;N0 -->
<g id="edge8" class="edge"><title>N3&#45;&gt;N0</title>
<path fill="none" stroke="#4e9a06" stroke-width="2" d="M141.283,-168.98C162.941,-156.168 192.167,-138.879 215.269,-125.213"/>
<polygon fill="#4e9a06" stroke="#4e9a06" points="221.918,-121.28 217.181,-128.004 218.945,-123.62 215.717,-125.529 215.463,-125.099 215.208,-124.668 218.436,-122.759 213.744,-122.194 221.918,-121.28 221.918,-121.28"/>
<text text-anchor="middle" x="197.82" y="-142.8" font-family="FreeSans" font-size="8.00" fill="#4e9a06">knows</text>
</g>
<!-- N3&#45;&gt;N1 -->
<g id="edge6" class="edge"><title>N3&#45;&gt;N1</title>
<path fill="none" stroke="#2e3436" stroke-width="2" d="M67.6626,-171.891C45.2225,-161.578 19.8254,-145.465 6.82009,-122 -1.36711,-107.228 -2.92068,-97.7968 6.82009,-84 21.4943,-63.2155 82.472,-44.3459 130.056,-32.3574"/>
<polygon fill="#2e3436" stroke="#2e3436" points="137.569,-30.4932 131.102,-35.5752 134.05,-31.8816 130.41,-32.7848 130.29,-32.2995 130.169,-31.8142 133.809,-30.9111 129.477,-29.0239 137.569,-30.4932 137.569,-30.4932"/>
<text text-anchor="middle" x="40.3201" y="-100.8" font-family="FreeSans" font-size="8.00" fill="#2e3436">member_of_group</text>
</g>
<!-- N4 -->
<g id="node9" class="node"><title>N4</title>
<polygon fill="#ffffff" stroke="#ffffff" stroke-width="1.5" points="277.32,-169 344.32,-169 356.32,-181 356.32,-193 344.32,-205 277.32,-205 265.32,-193 265.32,-181 277.32,-169"/>
<path fill="#ffffff" stroke="#ffffff" stroke-width="1.5" d="M344.32,-169C350.32,-169 356.32,-175 356.32,-181"/>
<path fill="#ffffff" stroke="#ffffff" stroke-width="1.5" d="M356.32,-193C356.32,-199 350.32,-205 344.32,-205"/>
<path fill="#ffffff" stroke="#ffffff" stroke-width="1.5" d="M277.32,-205C271.32,-205 265.32,-199 265.32,-193"/>
<path fill="#ffffff" stroke="#ffffff" stroke-width="1.5" d="M265.32,-181C265.32,-175 271.32,-169 277.32,-169"/>
<polyline fill="none" stroke="#2e3436" stroke-width="1.5" points="277.32,-169 344.32,-169 "/>
<path fill="none" stroke="#2e3436" stroke-width="1.5" d="M344.32,-169C350.32,-169 356.32,-175 356.32,-181"/>
<polyline fill="none" stroke="#2e3436" stroke-width="1.5" points="356.32,-181 356.32,-193 "/>
<path fill="none" stroke="#2e3436" stroke-width="1.5" d="M356.32,-193C356.32,-199 350.32,-205 344.32,-205"/>
<polyline fill="none" stroke="#2e3436" stroke-width="1.5" points="344.32,-205 277.32,-205 "/>
<path fill="none" stroke="#2e3436" stroke-width="1.5" d="M277.32,-205C271.32,-205 265.32,-199 265.32,-193"/>
<polyline fill="none" stroke="#2e3436" stroke-width="1.5" points="265.32,-193 265.32,-181 "/>
<path fill="none" stroke="#2e3436" stroke-width="1.5" d="M265.32,-181C265.32,-175 271.32,-169 277.32,-169"/>
<text text-anchor="start" x="273.32" y="-184.8" font-family="FreeSans" font-size="8.00" fill="#1c2021">Node[4]name = &#39;Joe&#39;</text>
</g>
<!-- N4&#45;&gt;N0 -->
<g id="edge12" class="edge"><title>N4&#45;&gt;N0</title>
<path fill="none" stroke="#4e9a06" stroke-width="2" d="M298.235,-168.773C289.874,-156.665 278.8,-140.626 269.68,-127.418"/>
<polygon fill="#4e9a06" stroke="#4e9a06" points="265.381,-121.191 272.419,-125.445 267.923,-123.993 270.054,-127.079 269.642,-127.363 269.231,-127.647 267.1,-124.561 266.865,-129.281 265.381,-121.191 265.381,-121.191"/>
<text text-anchor="middle" x="294.82" y="-142.8" font-family="FreeSans" font-size="8.00" fill="#4e9a06">knows</text>
</g>
<!-- N4&#45;&gt;N1 -->
<g id="edge10" class="edge"><title>N4&#45;&gt;N1</title>
<path fill="none" stroke="#2e3436" stroke-width="2" d="M315.527,-168.799C321.777,-139.89 328.631,-83.9025 296.82,-56 283.373,-44.2053 265.966,-36.1207 249.113,-30.5988"/>
<polygon fill="#2e3436" stroke="#2e3436" points="241.937,-28.3859 250.099,-27.3711 245.668,-29.0132 249.252,-30.1184 249.104,-30.5962 248.957,-31.074 245.373,-29.9688 248.11,-33.8213 241.937,-28.3859 241.937,-28.3859"/>
<text text-anchor="middle" x="353.32" y="-100.8" font-family="FreeSans" font-size="8.00" fill="#2e3436">member_of_group</text>
</g>
</g>
</svg>
