<?xml version="1.0" encoding="UTF-8" standalone="no"?>
<!DOCTYPE svg PUBLIC "-//W3C//DTD SVG 1.1//EN"
 "http://www.w3.org/Graphics/SVG/1.1/DTD/svg11.dtd">
<!-- Generated by graphviz version 2.26.3 (20100126.1600)
 -->
<!-- Title: g Pages: 1 -->
<svg width="488pt" height="348pt"
 viewBox="0.00 0.00 488.00 348.00" xmlns="http://www.w3.org/2000/svg" xmlns:xlink="http://www.w3.org/1999/xlink">
<g id="graph1" class="graph" transform="scale(1 1) rotate(0) translate(4 344)">
<title>g</title>
<polygon fill="white" stroke="white" points="-4,5 -4,-344 485,-344 485,5 -4,5"/>
<!-- N0 -->
<g id="node1" class="node"><title>N0</title>
<polygon fill="#ffffff" stroke="#ffffff" stroke-width="1.5" points="320.5,-303 383.5,-303 395.5,-315 395.5,-327 383.5,-339 320.5,-339 308.5,-327 308.5,-315 320.5,-303"/>
<path fill="#ffffff" stroke="#ffffff" stroke-width="1.5" d="M383.5,-303C389.5,-303 395.5,-309 395.5,-315"/>
<path fill="#ffffff" stroke="#ffffff" stroke-width="1.5" d="M395.5,-327C395.5,-333 389.5,-339 383.5,-339"/>
<path fill="#ffffff" stroke="#ffffff" stroke-width="1.5" d="M320.5,-339C314.5,-339 308.5,-333 308.5,-327"/>
<path fill="#ffffff" stroke="#ffffff" stroke-width="1.5" d="M308.5,-315C308.5,-309 314.5,-303 320.5,-303"/>
<polyline fill="none" stroke="#2e3436" stroke-width="1.5" points="320.5,-303 383.5,-303 "/>
<path fill="none" stroke="#2e3436" stroke-width="1.5" d="M383.5,-303C389.5,-303 395.5,-309 395.5,-315"/>
<polyline fill="none" stroke="#2e3436" stroke-width="1.5" points="395.5,-315 395.5,-327 "/>
<path fill="none" stroke="#2e3436" stroke-width="1.5" d="M395.5,-327C395.5,-333 389.5,-339 383.5,-339"/>
<polyline fill="none" stroke="#2e3436" stroke-width="1.5" points="383.5,-339 320.5,-339 "/>
<path fill="none" stroke="#2e3436" stroke-width="1.5" d="M320.5,-339C314.5,-339 308.5,-333 308.5,-327"/>
<polyline fill="none" stroke="#2e3436" stroke-width="1.5" points="308.5,-327 308.5,-315 "/>
<path fill="none" stroke="#2e3436" stroke-width="1.5" d="M308.5,-315C308.5,-309 314.5,-303 320.5,-303"/>
<text text-anchor="start" x="316.5" y="-318.8" font-family="FreeSans" font-size="8.00" fill="#1c2021">name = &#39;Clark Kent&#39;</text>
</g>
<!-- N1 -->
<g id="node3" class="node"><title>N1</title>
<polygon fill="#ffffff" stroke="#ffffff" stroke-width="1.5" points="181.5,-209 240.5,-209 252.5,-221 252.5,-233 240.5,-245 181.5,-245 169.5,-233 169.5,-221 181.5,-209"/>
<path fill="#ffffff" stroke="#ffffff" stroke-width="1.5" d="M240.5,-209C246.5,-209 252.5,-215 252.5,-221"/>
<path fill="#ffffff" stroke="#ffffff" stroke-width="1.5" d="M252.5,-233C252.5,-239 246.5,-245 240.5,-245"/>
<path fill="#ffffff" stroke="#ffffff" stroke-width="1.5" d="M181.5,-245C175.5,-245 169.5,-239 169.5,-233"/>
<path fill="#ffffff" stroke="#ffffff" stroke-width="1.5" d="M169.5,-221C169.5,-215 175.5,-209 181.5,-209"/>
<polyline fill="none" stroke="#2e3436" stroke-width="1.5" points="181.5,-209 240.5,-209 "/>
<path fill="none" stroke="#2e3436" stroke-width="1.5" d="M240.5,-209C246.5,-209 252.5,-215 252.5,-221"/>
<polyline fill="none" stroke="#2e3436" stroke-width="1.5" points="252.5,-221 252.5,-233 "/>
<path fill="none" stroke="#2e3436" stroke-width="1.5" d="M252.5,-233C252.5,-239 246.5,-245 240.5,-245"/>
<polyline fill="none" stroke="#2e3436" stroke-width="1.5" points="240.5,-245 181.5,-245 "/>
<path fill="none" stroke="#2e3436" stroke-width="1.5" d="M181.5,-245C175.5,-245 169.5,-239 169.5,-233"/>
<polyline fill="none" stroke="#2e3436" stroke-width="1.5" points="169.5,-233 169.5,-221 "/>
<path fill="none" stroke="#2e3436" stroke-width="1.5" d="M169.5,-221C169.5,-215 175.5,-209 181.5,-209"/>
<text text-anchor="start" x="177.5" y="-224.8" font-family="FreeSans" font-size="8.00" fill="#1c2021">name = &#39;Lois Lane&#39;</text>
</g>
<!-- N0&#45;&gt;N1 -->
<g id="edge2" class="edge"><title>N0&#45;&gt;N1</title>
<path fill="none" stroke="#2e3436" stroke-width="2" d="M324.814,-302.876C301.894,-287.596 269.002,-265.668 244.467,-249.311"/>
<polygon fill="#2e3436" stroke="#2e3436" points="238.103,-245.069 246.215,-246.421 241.5,-246.733 244.621,-248.813 244.343,-249.229 244.066,-249.645 240.946,-247.565 242.471,-252.037 238.103,-245.069 238.103,-245.069"/>
<text text-anchor="middle" x="312.5" y="-276.8" font-family="FreeSans" font-size="8.00" fill="#2e3436">KNOWS</text>
<text text-anchor="start" x="294" y="-266.8" font-family="FreeSans" font-size="8.00" fill="#2e3436">weight = 4</text>
</g>
<!-- N2 -->
<g id="node5" class="node"><title>N2</title>
<polygon fill="#ffffff" stroke="#ffffff" stroke-width="1.5" points="316.5,-209 387.5,-209 399.5,-221 399.5,-233 387.5,-245 316.5,-245 304.5,-233 304.5,-221 316.5,-209"/>
<path fill="#ffffff" stroke="#ffffff" stroke-width="1.5" d="M387.5,-209C393.5,-209 399.5,-215 399.5,-221"/>
<path fill="#ffffff" stroke="#ffffff" stroke-width="1.5" d="M399.5,-233C399.5,-239 393.5,-245 387.5,-245"/>
<path fill="#ffffff" stroke="#ffffff" stroke-width="1.5" d="M316.5,-245C310.5,-245 304.5,-239 304.5,-233"/>
<path fill="#ffffff" stroke="#ffffff" stroke-width="1.5" d="M304.5,-221C304.5,-215 310.5,-209 316.5,-209"/>
<polyline fill="none" stroke="#2e3436" stroke-width="1.5" points="316.5,-209 387.5,-209 "/>
<path fill="none" stroke="#2e3436" stroke-width="1.5" d="M387.5,-209C393.5,-209 399.5,-215 399.5,-221"/>
<polyline fill="none" stroke="#2e3436" stroke-width="1.5" points="399.5,-221 399.5,-233 "/>
<path fill="none" stroke="#2e3436" stroke-width="1.5" d="M399.5,-233C399.5,-239 393.5,-245 387.5,-245"/>
<polyline fill="none" stroke="#2e3436" stroke-width="1.5" points="387.5,-245 316.5,-245 "/>
<path fill="none" stroke="#2e3436" stroke-width="1.5" d="M316.5,-245C310.5,-245 304.5,-239 304.5,-233"/>
<polyline fill="none" stroke="#2e3436" stroke-width="1.5" points="304.5,-233 304.5,-221 "/>
<path fill="none" stroke="#2e3436" stroke-width="1.5" d="M304.5,-221C304.5,-215 310.5,-209 316.5,-209"/>
<text text-anchor="start" x="312.5" y="-224.8" font-family="FreeSans" font-size="8.00" fill="#1c2021">name = &#39;Jimmy Olsen&#39;</text>
</g>
<!-- N0&#45;&gt;N2 -->
<g id="edge4" class="edge"><title>N0&#45;&gt;N2</title>
<path fill="none" stroke="#2e3436" stroke-width="2" d="M352,-302.876C352,-288.701 352,-268.806 352,-252.944"/>
<polygon fill="#2e3436" stroke="#2e3436" points="352,-245.069 355.375,-252.568 352.5,-248.818 352.5,-252.568 352,-252.569 351.5,-252.569 351.5,-248.819 348.625,-252.569 352,-245.069 352,-245.069"/>
<text text-anchor="middle" x="370.5" y="-276.8" font-family="FreeSans" font-size="8.00" fill="#2e3436">KNOWS</text>
<text text-anchor="start" x="352" y="-266.8" font-family="FreeSans" font-size="8.00" fill="#2e3436">weight = 4</text>
</g>
<!-- N5 -->
<g id="node7" class="node"><title>N5</title>
<polygon fill="#ffffff" stroke="#ffffff" stroke-width="1.5" points="322.5,-1 389.5,-1 401.5,-13 401.5,-25 389.5,-37 322.5,-37 310.5,-25 310.5,-13 322.5,-1"/>
<path fill="#ffffff" stroke="#ffffff" stroke-width="1.5" d="M389.5,-1C395.5,-1 401.5,-7 401.5,-13"/>
<path fill="#ffffff" stroke="#ffffff" stroke-width="1.5" d="M401.5,-25C401.5,-31 395.5,-37 389.5,-37"/>
<path fill="#ffffff" stroke="#ffffff" stroke-width="1.5" d="M322.5,-37C316.5,-37 310.5,-31 310.5,-25"/>
<path fill="#ffffff" stroke="#ffffff" stroke-width="1.5" d="M310.5,-13C310.5,-7 316.5,-1 322.5,-1"/>
<polyline fill="none" stroke="#2e3436" stroke-width="1.5" points="322.5,-1 389.5,-1 "/>
<path fill="none" stroke="#2e3436" stroke-width="1.5" d="M389.5,-1C395.5,-1 401.5,-7 401.5,-13"/>
<polyline fill="none" stroke="#2e3436" stroke-width="1.5" points="401.5,-13 401.5,-25 "/>
<path fill="none" stroke="#2e3436" stroke-width="1.5" d="M401.5,-25C401.5,-31 395.5,-37 389.5,-37"/>
<polyline fill="none" stroke="#2e3436" stroke-width="1.5" points="389.5,-37 322.5,-37 "/>
<path fill="none" stroke="#2e3436" stroke-width="1.5" d="M322.5,-37C316.5,-37 310.5,-31 310.5,-25"/>
<polyline fill="none" stroke="#2e3436" stroke-width="1.5" points="310.5,-25 310.5,-13 "/>
<path fill="none" stroke="#2e3436" stroke-width="1.5" d="M310.5,-13C310.5,-7 316.5,-1 322.5,-1"/>
<text text-anchor="start" x="318.5" y="-16.8" font-family="FreeSans" font-size="8.00" fill="#1c2021">name = &#39;Daily Planet&#39;</text>
</g>
<!-- N0&#45;&gt;N5 -->
<g id="edge6" class="edge"><title>N0&#45;&gt;N5</title>
<path fill="none" stroke="#4e9a06" stroke-width="2" d="M377.504,-302.713C384.072,-297.202 390.758,-290.797 396,-284 436.044,-232.082 429.178,-207.211 436,-142 437.757,-125.203 441.446,-119.987 436,-104 427.314,-78.5033 417.527,-75.5521 399,-56 394.521,-51.2728 389.486,-46.5191 384.483,-42.0679"/>
<polygon fill="#4e9a06" stroke="#4e9a06" points="378.658,-37.0013 386.532,-39.3772 381.816,-39.0852 384.645,-41.5464 384.317,-41.9236 383.989,-42.3009 381.159,-39.8397 382.102,-44.4701 378.658,-37.0013 378.658,-37.0013"/>
<text text-anchor="middle" x="457" y="-182.8" font-family="FreeSans" font-size="8.00" fill="#4e9a06">WORKS_AT</text>
<text text-anchor="start" x="434" y="-172.8" font-family="FreeSans" font-size="8.00" fill="#4e9a06">weight = 2</text>
<text text-anchor="start" x="434" y="-162.8" font-family="FreeSans" font-size="8.00" fill="#4e9a06">activity = 45</text>
</g>
<!-- N1&#45;&gt;N5 -->
<g id="edge12" class="edge"><title>N1&#45;&gt;N5</title>
<path fill="none" stroke="#4e9a06" stroke-width="2" d="M203.425,-208.822C196.799,-191.874 187.676,-165.716 184,-142 177.729,-101.544 183.546,-79.5981 217,-56 242.088,-38.3034 275.137,-29.0707 302.715,-24.2539"/>
<polygon fill="#4e9a06" stroke="#4e9a06" points="310.337,-23.009 303.479,-27.5489 306.716,-24.107 303.015,-24.7115 302.935,-24.218 302.854,-23.7246 306.555,-23.1201 302.391,-20.8871 310.337,-23.009 310.337,-23.009"/>
<text text-anchor="middle" x="207" y="-130.8" font-family="FreeSans" font-size="8.00" fill="#4e9a06">WORKS_AT</text>
<text text-anchor="start" x="184" y="-120.8" font-family="FreeSans" font-size="8.00" fill="#4e9a06">weight = 2</text>
<text text-anchor="start" x="184" y="-110.8" font-family="FreeSans" font-size="8.00" fill="#4e9a06">activity = 56</text>
</g>
<!-- N3 -->
<g id="node9" class="node"><title>N3</title>
<polygon fill="#ffffff" stroke="#ffffff" stroke-width="1.5" points="256.5,-105 323.5,-105 335.5,-117 335.5,-129 323.5,-141 256.5,-141 244.5,-129 244.5,-117 256.5,-105"/>
<path fill="#ffffff" stroke="#ffffff" stroke-width="1.5" d="M323.5,-105C329.5,-105 335.5,-111 335.5,-117"/>
<path fill="#ffffff" stroke="#ffffff" stroke-width="1.5" d="M335.5,-129C335.5,-135 329.5,-141 323.5,-141"/>
<path fill="#ffffff" stroke="#ffffff" stroke-width="1.5" d="M256.5,-141C250.5,-141 244.5,-135 244.5,-129"/>
<path fill="#ffffff" stroke="#ffffff" stroke-width="1.5" d="M244.5,-117C244.5,-111 250.5,-105 256.5,-105"/>
<polyline fill="none" stroke="#2e3436" stroke-width="1.5" points="256.5,-105 323.5,-105 "/>
<path fill="none" stroke="#2e3436" stroke-width="1.5" d="M323.5,-105C329.5,-105 335.5,-111 335.5,-117"/>
<polyline fill="none" stroke="#2e3436" stroke-width="1.5" points="335.5,-117 335.5,-129 "/>
<path fill="none" stroke="#2e3436" stroke-width="1.5" d="M335.5,-129C335.5,-135 329.5,-141 323.5,-141"/>
<polyline fill="none" stroke="#2e3436" stroke-width="1.5" points="323.5,-141 256.5,-141 "/>
<path fill="none" stroke="#2e3436" stroke-width="1.5" d="M256.5,-141C250.5,-141 244.5,-135 244.5,-129"/>
<polyline fill="none" stroke="#2e3436" stroke-width="1.5" points="244.5,-129 244.5,-117 "/>
<path fill="none" stroke="#2e3436" stroke-width="1.5" d="M244.5,-117C244.5,-111 250.5,-105 256.5,-105"/>
<text text-anchor="start" x="252.5" y="-120.8" font-family="FreeSans" font-size="8.00" fill="#1c2021">name = &#39;Perry White&#39;</text>
</g>
<!-- N1&#45;&gt;N3 -->
<g id="edge8" class="edge"><title>N1&#45;&gt;N3</title>
<path fill="none" stroke="#2e3436" stroke-width="2" d="M224.761,-208.885C237.709,-191.839 257.192,-166.19 271.496,-147.359"/>
<polygon fill="#2e3436" stroke="#2e3436" points="276.132,-141.257 274.283,-149.271 274.262,-144.545 271.993,-147.532 271.595,-147.229 271.197,-146.927 273.465,-143.94 268.908,-145.188 276.132,-141.257 276.132,-141.257"/>
<text text-anchor="middle" x="278.5" y="-177.8" font-family="FreeSans" font-size="8.00" fill="#2e3436">KNOWS</text>
<text text-anchor="start" x="260" y="-167.8" font-family="FreeSans" font-size="8.00" fill="#2e3436">weight = 4</text>
</g>
<!-- N4 -->
<g id="node11" class="node"><title>N4</title>
<polygon fill="#ffffff" stroke="#ffffff" stroke-width="1.5" points="11.5,-105 100.5,-105 112.5,-117 112.5,-129 100.5,-141 11.5,-141 -0.5,-129 -0.5,-117 11.5,-105"/>
<path fill="#ffffff" stroke="#ffffff" stroke-width="1.5" d="M100.5,-105C106.5,-105 112.5,-111 112.5,-117"/>
<path fill="#ffffff" stroke="#ffffff" stroke-width="1.5" d="M112.5,-129C112.5,-135 106.5,-141 100.5,-141"/>
<path fill="#ffffff" stroke="#ffffff" stroke-width="1.5" d="M11.5,-141C5.5,-141 -0.5,-135 -0.5,-129"/>
<path fill="#ffffff" stroke="#ffffff" stroke-width="1.5" d="M-0.5,-117C-0.5,-111 5.5,-105 11.5,-105"/>
<polyline fill="none" stroke="#2e3436" stroke-width="1.5" points="11.5,-105 100.5,-105 "/>
<path fill="none" stroke="#2e3436" stroke-width="1.5" d="M100.5,-105C106.5,-105 112.5,-111 112.5,-117"/>
<polyline fill="none" stroke="#2e3436" stroke-width="1.5" points="112.5,-117 112.5,-129 "/>
<path fill="none" stroke="#2e3436" stroke-width="1.5" d="M112.5,-129C112.5,-135 106.5,-141 100.5,-141"/>
<polyline fill="none" stroke="#2e3436" stroke-width="1.5" points="100.5,-141 11.5,-141 "/>
<path fill="none" stroke="#2e3436" stroke-width="1.5" d="M11.5,-141C5.5,-141 -0.5,-135 -0.5,-129"/>
<polyline fill="none" stroke="#2e3436" stroke-width="1.5" points="-0.5,-129 -0.5,-117 "/>
<path fill="none" stroke="#2e3436" stroke-width="1.5" d="M-0.5,-117C-0.5,-111 5.5,-105 11.5,-105"/>
<text text-anchor="start" x="7.5" y="-120.8" font-family="FreeSans" font-size="8.00" fill="#1c2021">name = &#39;Anderson Cooper&#39;</text>
</g>
<!-- N1&#45;&gt;N4 -->
<g id="edge10" class="edge"><title>N1&#45;&gt;N4</title>
<path fill="none" stroke="#2e3436" stroke-width="2" d="M169.189,-216.931C150.28,-211.071 128.339,-202.35 111,-190 95.0554,-178.643 81.1142,-161.529 71.257,-147.441"/>
<polygon fill="#2e3436" stroke="#2e3436" points="67.023,-141.212 74.0306,-145.518 69.5447,-144.033 71.6529,-147.134 71.2394,-147.415 70.8259,-147.696 68.7177,-144.595 68.4483,-149.312 67.023,-141.212 67.023,-141.212"/>
<text text-anchor="middle" x="129.5" y="-177.8" font-family="FreeSans" font-size="8.00" fill="#2e3436">KNOWS</text>
<text text-anchor="start" x="111" y="-167.8" font-family="FreeSans" font-size="8.00" fill="#2e3436">weight = 4</text>
</g>
<!-- N2&#45;&gt;N5 -->
<g id="edge16" class="edge"><title>N2&#45;&gt;N5</title>
<path fill="none" stroke="#4e9a06" stroke-width="2" d="M364.002,-208.9C367.226,-203.102 370.29,-196.497 372,-190 387.162,-132.4 387.369,-114.042 374,-56 373.101,-52.0974 371.733,-48.1296 370.143,-44.3124"/>
<polygon fill="#4e9a06" stroke="#4e9a06" points="366.881,-37.214 373.08,-42.619 368.901,-40.4124 370.467,-43.8197 370.013,-44.0286 369.559,-44.2374 367.992,-40.8301 366.946,-45.4381 366.881,-37.214 366.881,-37.214"/>
<text text-anchor="middle" x="406" y="-130.8" font-family="FreeSans" font-size="8.00" fill="#4e9a06">WORKS_AT</text>
<text text-anchor="start" x="383" y="-120.8" font-family="FreeSans" font-size="8.00" fill="#4e9a06">weight = 2</text>
<text text-anchor="start" x="383" y="-110.8" font-family="FreeSans" font-size="8.00" fill="#4e9a06">activity = 10</text>
</g>
<!-- N2&#45;&gt;N3 -->
<g id="edge14" class="edge"><title>N2&#45;&gt;N3</title>
<path fill="none" stroke="#2e3436" stroke-width="2" d="M341.2,-208.885C331.127,-191.988 316.014,-166.636 304.816,-147.852"/>
<polygon fill="#2e3436" stroke="#2e3436" points="300.884,-141.257 307.623,-145.971 303.234,-144.222 305.154,-147.443 304.724,-147.699 304.295,-147.955 302.375,-144.734 301.825,-149.427 300.884,-141.257 300.884,-141.257"/>
<text text-anchor="middle" x="346.5" y="-177.8" font-family="FreeSans" font-size="8.00" fill="#2e3436">KNOWS</text>
<text text-anchor="start" x="328" y="-167.8" font-family="FreeSans" font-size="8.00" fill="#2e3436">weight = 4</text>
</g>
<!-- N3&#45;&gt;N5 -->
<g id="edge18" class="edge"><title>N3&#45;&gt;N5</title>
<path fill="none" stroke="#4e9a06" stroke-width="2" d="M298.204,-104.769C304.734,-90.9448 314.496,-71.7093 325,-56 327.879,-51.694 331.176,-47.3102 334.519,-43.1374"/>
<polygon fill="#4e9a06" stroke="#4e9a06" points="339.41,-37.2081 337.241,-45.1416 337.409,-40.4193 335.023,-43.3122 334.638,-42.9941 334.252,-42.676 336.638,-39.783 332.034,-40.8466 339.41,-37.2081 339.41,-37.2081"/>
<text text-anchor="middle" x="348" y="-78.8" font-family="FreeSans" font-size="8.00" fill="#4e9a06">WORKS_AT</text>
<text text-anchor="start" x="325" y="-68.8" font-family="FreeSans" font-size="8.00" fill="#4e9a06">weight = 2</text>
<text text-anchor="start" x="325" y="-58.8" font-family="FreeSans" font-size="8.00" fill="#4e9a06">activity = 6</text>
</g>
<!-- N6 -->
<g id="node17" class="node"><title>N6</title>
<polygon fill="#ffffff" stroke="#ffffff" stroke-width="1.5" points="161.5,-1 204.5,-1 216.5,-13 216.5,-25 204.5,-37 161.5,-37 149.5,-25 149.5,-13 161.5,-1"/>
<path fill="#ffffff" stroke="#ffffff" stroke-width="1.5" d="M204.5,-1C210.5,-1 216.5,-7 216.5,-13"/>
<path fill="#ffffff" stroke="#ffffff" stroke-width="1.5" d="M216.5,-25C216.5,-31 210.5,-37 204.5,-37"/>
<path fill="#ffffff" stroke="#ffffff" stroke-width="1.5" d="M161.5,-37C155.5,-37 149.5,-31 149.5,-25"/>
<path fill="#ffffff" stroke="#ffffff" stroke-width="1.5" d="M149.5,-13C149.5,-7 155.5,-1 161.5,-1"/>
<polyline fill="none" stroke="#2e3436" stroke-width="1.5" points="161.5,-1 204.5,-1 "/>
<path fill="none" stroke="#2e3436" stroke-width="1.5" d="M204.5,-1C210.5,-1 216.5,-7 216.5,-13"/>
<polyline fill="none" stroke="#2e3436" stroke-width="1.5" points="216.5,-13 216.5,-25 "/>
<path fill="none" stroke="#2e3436" stroke-width="1.5" d="M216.5,-25C216.5,-31 210.5,-37 204.5,-37"/>
<polyline fill="none" stroke="#2e3436" stroke-width="1.5" points="204.5,-37 161.5,-37 "/>
<path fill="none" stroke="#2e3436" stroke-width="1.5" d="M161.5,-37C155.5,-37 149.5,-31 149.5,-25"/>
<polyline fill="none" stroke="#2e3436" stroke-width="1.5" points="149.5,-25 149.5,-13 "/>
<path fill="none" stroke="#2e3436" stroke-width="1.5" d="M149.5,-13C149.5,-7 155.5,-1 161.5,-1"/>
<text text-anchor="start" x="157.5" y="-16.8" font-family="FreeSans" font-size="8.00" fill="#1c2021">name = &#39;CNN&#39;</text>
</g>
<!-- N3&#45;&gt;N6 -->
<g id="edge20" class="edge"><title>N3&#45;&gt;N6</title>
<path fill="none" stroke="#4e9a06" stroke-width="2" d="M271.362,-104.885C253.673,-87.6911 226.977,-61.7437 207.558,-42.8696"/>
<polygon fill="#4e9a06" stroke="#4e9a06" points="201.783,-37.2568 209.514,-40.064 204.821,-39.5119 207.51,-42.1256 207.162,-42.4842 206.813,-42.8427 204.124,-40.229 204.809,-44.9044 201.783,-37.2568 201.783,-37.2568"/>
<text text-anchor="middle" x="273" y="-78.8" font-family="FreeSans" font-size="8.00" fill="#4e9a06">WORKS_AT</text>
<text text-anchor="start" x="250" y="-68.8" font-family="FreeSans" font-size="8.00" fill="#4e9a06">weight = 2</text>
<text text-anchor="start" x="250" y="-58.8" font-family="FreeSans" font-size="8.00" fill="#4e9a06">activity = 3</text>
</g>
<!-- N4&#45;&gt;N6 -->
<g id="edge22" class="edge"><title>N4&#45;&gt;N6</title>
<path fill="none" stroke="#4e9a06" stroke-width="2" d="M64.9551,-104.758C72.9622,-90.0026 85.9045,-69.5245 102,-56 113.692,-46.1755 128.421,-38.4239 142.103,-32.6082"/>
<polygon fill="#4e9a06" stroke="#4e9a06" points="149.14,-29.7428 143.467,-35.697 145.856,-31.62 142.383,-33.0342 142.194,-32.5712 142.006,-32.1081 145.479,-30.6939 140.921,-29.4453 149.14,-29.7428 149.14,-29.7428"/>
<text text-anchor="middle" x="125" y="-78.8" font-family="FreeSans" font-size="8.00" fill="#4e9a06">WORKS_AT</text>
<text text-anchor="start" x="102" y="-68.8" font-family="FreeSans" font-size="8.00" fill="#4e9a06">weight = 2</text>
<text text-anchor="start" x="102" y="-58.8" font-family="FreeSans" font-size="8.00" fill="#4e9a06">activity = 2</text>
</g>
</g>
</svg>
