<?xml version="1.0" encoding="UTF-8" standalone="no"?>
<!DOCTYPE svg PUBLIC "-//W3C//DTD SVG 1.1//EN"
 "http://www.w3.org/Graphics/SVG/1.1/DTD/svg11.dtd">
<!-- Generated by graphviz version 2.26.3 (20100126.1600)
 -->
<!-- Title: g Pages: 1 -->
<svg width="431pt" height="130pt"
 viewBox="0.00 0.00 431.00 130.00" xmlns="http://www.w3.org/2000/svg" xmlns:xlink="http://www.w3.org/1999/xlink">
<g id="graph1" class="graph" transform="scale(1 1) rotate(0) translate(4 126)">
<title>g</title>
<polygon fill="white" stroke="white" points="-4,5 -4,-126 428,-126 428,5 -4,5"/>
<!-- N0 -->
<g id="node1" class="node"><title>N0</title>
<polygon fill="#ffffff" stroke="#ffffff" stroke-width="1.5" points="23,-1 93,-1 105,-13 105,-25 93,-37 23,-37 11,-25 11,-13 23,-1"/>
<path fill="#ffffff" stroke="#ffffff" stroke-width="1.5" d="M93,-1C99,-1 105,-7 105,-13"/>
<path fill="#ffffff" stroke="#ffffff" stroke-width="1.5" d="M105,-25C105,-31 99,-37 93,-37"/>
<path fill="#ffffff" stroke="#ffffff" stroke-width="1.5" d="M23,-37C17,-37 11,-31 11,-25"/>
<path fill="#ffffff" stroke="#ffffff" stroke-width="1.5" d="M11,-13C11,-7 17,-1 23,-1"/>
<polyline fill="none" stroke="#2e3436" stroke-width="1.5" points="23,-1 93,-1 "/>
<path fill="none" stroke="#2e3436" stroke-width="1.5" d="M93,-1C99,-1 105,-7 105,-13"/>
<polyline fill="none" stroke="#2e3436" stroke-width="1.5" points="105,-13 105,-25 "/>
<path fill="none" stroke="#2e3436" stroke-width="1.5" d="M105,-25C105,-31 99,-37 93,-37"/>
<polyline fill="none" stroke="#2e3436" stroke-width="1.5" points="93,-37 23,-37 "/>
<path fill="none" stroke="#2e3436" stroke-width="1.5" d="M23,-37C17,-37 11,-31 11,-25"/>
<polyline fill="none" stroke="#2e3436" stroke-width="1.5" points="11,-25 11,-13 "/>
<path fill="none" stroke="#2e3436" stroke-width="1.5" d="M11,-13C11,-7 17,-1 23,-1"/>
<text text-anchor="start" x="19" y="-16.8" font-family="FreeSans" font-size="8.00" fill="#1c2021">Node[0]name = &#39;Pet1&#39;</text>
</g>
<!-- N1 -->
<g id="node2" class="node"><title>N1</title>
<polygon fill="#ffffff" stroke="#ffffff" stroke-width="1.5" points="279,-1 349,-1 361,-13 361,-25 349,-37 279,-37 267,-25 267,-13 279,-1"/>
<path fill="#ffffff" stroke="#ffffff" stroke-width="1.5" d="M349,-1C355,-1 361,-7 361,-13"/>
<path fill="#ffffff" stroke="#ffffff" stroke-width="1.5" d="M361,-25C361,-31 355,-37 349,-37"/>
<path fill="#ffffff" stroke="#ffffff" stroke-width="1.5" d="M279,-37C273,-37 267,-31 267,-25"/>
<path fill="#ffffff" stroke="#ffffff" stroke-width="1.5" d="M267,-13C267,-7 273,-1 279,-1"/>
<polyline fill="none" stroke="#2e3436" stroke-width="1.5" points="279,-1 349,-1 "/>
<path fill="none" stroke="#2e3436" stroke-width="1.5" d="M349,-1C355,-1 361,-7 361,-13"/>
<polyline fill="none" stroke="#2e3436" stroke-width="1.5" points="361,-13 361,-25 "/>
<path fill="none" stroke="#2e3436" stroke-width="1.5" d="M361,-25C361,-31 355,-37 349,-37"/>
<polyline fill="none" stroke="#2e3436" stroke-width="1.5" points="349,-37 279,-37 "/>
<path fill="none" stroke="#2e3436" stroke-width="1.5" d="M279,-37C273,-37 267,-31 267,-25"/>
<polyline fill="none" stroke="#2e3436" stroke-width="1.5" points="267,-25 267,-13 "/>
<path fill="none" stroke="#2e3436" stroke-width="1.5" d="M267,-13C267,-7 273,-1 279,-1"/>
<text text-anchor="start" x="275" y="-16.8" font-family="FreeSans" font-size="8.00" fill="#1c2021">Node[1]name = &#39;Pet2&#39;</text>
</g>
<!-- N2 -->
<g id="node3" class="node"><title>N2</title>
<polygon fill="#ffffff" stroke="#ffffff" stroke-width="1.5" points="178,-85 248,-85 260,-97 260,-109 248,-121 178,-121 166,-109 166,-97 178,-85"/>
<path fill="#ffffff" stroke="#ffffff" stroke-width="1.5" d="M248,-85C254,-85 260,-91 260,-97"/>
<path fill="#ffffff" stroke="#ffffff" stroke-width="1.5" d="M260,-109C260,-115 254,-121 248,-121"/>
<path fill="#ffffff" stroke="#ffffff" stroke-width="1.5" d="M178,-121C172,-121 166,-115 166,-109"/>
<path fill="#ffffff" stroke="#ffffff" stroke-width="1.5" d="M166,-97C166,-91 172,-85 178,-85"/>
<polyline fill="none" stroke="#2e3436" stroke-width="1.5" points="178,-85 248,-85 "/>
<path fill="none" stroke="#2e3436" stroke-width="1.5" d="M248,-85C254,-85 260,-91 260,-97"/>
<polyline fill="none" stroke="#2e3436" stroke-width="1.5" points="260,-97 260,-109 "/>
<path fill="none" stroke="#2e3436" stroke-width="1.5" d="M260,-109C260,-115 254,-121 248,-121"/>
<polyline fill="none" stroke="#2e3436" stroke-width="1.5" points="248,-121 178,-121 "/>
<path fill="none" stroke="#2e3436" stroke-width="1.5" d="M178,-121C172,-121 166,-115 166,-109"/>
<polyline fill="none" stroke="#2e3436" stroke-width="1.5" points="166,-109 166,-97 "/>
<path fill="none" stroke="#2e3436" stroke-width="1.5" d="M166,-97C166,-91 172,-85 178,-85"/>
<text text-anchor="start" x="174" y="-100.8" font-family="FreeSans" font-size="8.00" fill="#1c2021">Node[2]name = &#39;Pet0&#39;</text>
</g>
<!-- N2&#45;&gt;N0 -->
<g id="edge2" class="edge"><title>N2&#45;&gt;N0</title>
<path fill="none" stroke="#2e3436" stroke-width="2" d="M179.749,-84.9799C155.823,-72.0139 123.437,-54.4625 98.0814,-40.7215"/>
<polygon fill="#2e3436" stroke="#2e3436" points="91.4635,-37.135 99.6655,-37.7413 94.9987,-38.4822 98.2957,-40.269 98.0574,-40.7086 97.8192,-41.1482 94.5222,-39.3614 96.4493,-43.6759 91.4635,-37.135 91.4635,-37.135"/>
<text text-anchor="middle" x="161.5" y="-58.8" font-family="FreeSans" font-size="8.00" fill="#2e3436">descendant</text>
</g>
<!-- N2&#45;&gt;N1 -->
<g id="edge4" class="edge"><title>N2&#45;&gt;N1</title>
<path fill="none" stroke="#2e3436" stroke-width="2" d="M234.915,-84.7733C250.004,-72.2247 270.168,-55.4545 286.359,-41.9888"/>
<polygon fill="#2e3436" stroke="#2e3436" points="292.127,-37.1912 288.519,-44.5818 289.564,-39.9735 286.681,-42.3714 286.361,-41.987 286.041,-41.6026 288.924,-39.2047 284.203,-39.3921 292.127,-37.1912 292.127,-37.1912"/>
<text text-anchor="middle" x="287.5" y="-58.8" font-family="FreeSans" font-size="8.00" fill="#2e3436">descendant</text>
</g>
<!-- N3 -->
<g id="node7" class="node"><title>N3</title>
<polygon fill="#ffffff" stroke="#ffffff" stroke-width="1.5" points="153,-1 223,-1 235,-13 235,-25 223,-37 153,-37 141,-25 141,-13 153,-1"/>
<path fill="#ffffff" stroke="#ffffff" stroke-width="1.5" d="M223,-1C229,-1 235,-7 235,-13"/>
<path fill="#ffffff" stroke="#ffffff" stroke-width="1.5" d="M235,-25C235,-31 229,-37 223,-37"/>
<path fill="#ffffff" stroke="#ffffff" stroke-width="1.5" d="M153,-37C147,-37 141,-31 141,-25"/>
<path fill="#ffffff" stroke="#ffffff" stroke-width="1.5" d="M141,-13C141,-7 147,-1 153,-1"/>
<polyline fill="none" stroke="#2e3436" stroke-width="1.5" points="153,-1 223,-1 "/>
<path fill="none" stroke="#2e3436" stroke-width="1.5" d="M223,-1C229,-1 235,-7 235,-13"/>
<polyline fill="none" stroke="#2e3436" stroke-width="1.5" points="235,-13 235,-25 "/>
<path fill="none" stroke="#2e3436" stroke-width="1.5" d="M235,-25C235,-31 229,-37 223,-37"/>
<polyline fill="none" stroke="#2e3436" stroke-width="1.5" points="223,-37 153,-37 "/>
<path fill="none" stroke="#2e3436" stroke-width="1.5" d="M153,-37C147,-37 141,-31 141,-25"/>
<polyline fill="none" stroke="#2e3436" stroke-width="1.5" points="141,-25 141,-13 "/>
<path fill="none" stroke="#2e3436" stroke-width="1.5" d="M141,-13C141,-7 147,-1 153,-1"/>
<text text-anchor="start" x="149" y="-16.8" font-family="FreeSans" font-size="8.00" fill="#1c2021">Node[3]name = &#39;Pet3&#39;</text>
</g>
<!-- N2&#45;&gt;N3 -->
<g id="edge6" class="edge"><title>N2&#45;&gt;N3</title>
<path fill="none" stroke="#2e3436" stroke-width="2" d="M207.575,-84.7733C204.07,-72.9952 199.458,-57.4981 195.591,-44.5049"/>
<polygon fill="#2e3436" stroke="#2e3436" points="193.414,-37.1912 198.788,-43.4168 194.963,-40.6427 196.033,-44.2369 195.554,-44.3796 195.074,-44.5222 194.005,-40.928 192.319,-45.3423 193.414,-37.1912 193.414,-37.1912"/>
<text text-anchor="middle" x="222.5" y="-58.8" font-family="FreeSans" font-size="8.00" fill="#2e3436">descendant</text>
</g>
<!-- N4 -->
<g id="node8" class="node"><title>N4</title>
<polygon fill="#ffffff" stroke="#ffffff" stroke-width="1.5" points="11.5,-85 100.5,-85 112.5,-97 112.5,-109 100.5,-121 11.5,-121 -0.5,-109 -0.5,-97 11.5,-85"/>
<path fill="#ffffff" stroke="#ffffff" stroke-width="1.5" d="M100.5,-85C106.5,-85 112.5,-91 112.5,-97"/>
<path fill="#ffffff" stroke="#ffffff" stroke-width="1.5" d="M112.5,-109C112.5,-115 106.5,-121 100.5,-121"/>
<path fill="#ffffff" stroke="#ffffff" stroke-width="1.5" d="M11.5,-121C5.5,-121 -0.5,-115 -0.5,-109"/>
<path fill="#ffffff" stroke="#ffffff" stroke-width="1.5" d="M-0.5,-97C-0.5,-91 5.5,-85 11.5,-85"/>
<polyline fill="none" stroke="#2e3436" stroke-width="1.5" points="11.5,-85 100.5,-85 "/>
<path fill="none" stroke="#2e3436" stroke-width="1.5" d="M100.5,-85C106.5,-85 112.5,-91 112.5,-97"/>
<polyline fill="none" stroke="#2e3436" stroke-width="1.5" points="112.5,-97 112.5,-109 "/>
<path fill="none" stroke="#2e3436" stroke-width="1.5" d="M112.5,-109C112.5,-115 106.5,-121 100.5,-121"/>
<polyline fill="none" stroke="#2e3436" stroke-width="1.5" points="100.5,-121 11.5,-121 "/>
<path fill="none" stroke="#2e3436" stroke-width="1.5" d="M11.5,-121C5.5,-121 -0.5,-115 -0.5,-109"/>
<polyline fill="none" stroke="#2e3436" stroke-width="1.5" points="-0.5,-109 -0.5,-97 "/>
<path fill="none" stroke="#2e3436" stroke-width="1.5" d="M-0.5,-97C-0.5,-91 5.5,-85 11.5,-85"/>
<text text-anchor="start" x="7.5" y="-100.8" font-family="FreeSans" font-size="8.00" fill="#1c2021">Node[4]name = &#39;Principal1&#39;</text>
</g>
<!-- N4&#45;&gt;N0 -->
<g id="edge8" class="edge"><title>N4&#45;&gt;N0</title>
<path fill="none" stroke="#4e9a06" stroke-width="2" d="M36.0151,-84.634C29.3611,-76.2759 24.4459,-66.0265 28,-56 29.5956,-51.4986 31.998,-47.1452 34.7619,-43.1022"/>
<polygon fill="#4e9a06" stroke="#4e9a06" points="39.339,-37.0275 37.5212,-45.0485 37.4816,-40.3234 35.225,-43.3184 34.8257,-43.0176 34.4263,-42.7167 36.683,-39.7216 32.1301,-40.9866 39.339,-37.0275 39.339,-37.0275"/>
<text text-anchor="middle" x="37.5" y="-58.8" font-family="FreeSans" font-size="8.00" fill="#4e9a06">owns</text>
</g>
<!-- N4&#45;&gt;N3 -->
<g id="edge10" class="edge"><title>N4&#45;&gt;N3</title>
<path fill="none" stroke="#4e9a06" stroke-width="2" d="M61.9458,-84.8041C65.9547,-75.072 72.1493,-63.5681 81,-56 89.4892,-48.7411 111.53,-40.6349 133.417,-33.8644"/>
<polygon fill="#4e9a06" stroke="#4e9a06" points="140.813,-31.6227 134.615,-37.028 137.37,-33.1889 133.781,-34.2766 133.636,-33.7981 133.491,-33.3196 137.08,-32.2319 132.657,-30.5681 140.813,-31.6227 140.813,-31.6227"/>
<text text-anchor="middle" x="90.5" y="-58.8" font-family="FreeSans" font-size="8.00" fill="#4e9a06">owns</text>
</g>
<!-- N5 -->
<g id="node11" class="node"><title>N5</title>
<polygon fill="#ffffff" stroke="#ffffff" stroke-width="1.5" points="322.5,-85 411.5,-85 423.5,-97 423.5,-109 411.5,-121 322.5,-121 310.5,-109 310.5,-97 322.5,-85"/>
<path fill="#ffffff" stroke="#ffffff" stroke-width="1.5" d="M411.5,-85C417.5,-85 423.5,-91 423.5,-97"/>
<path fill="#ffffff" stroke="#ffffff" stroke-width="1.5" d="M423.5,-109C423.5,-115 417.5,-121 411.5,-121"/>
<path fill="#ffffff" stroke="#ffffff" stroke-width="1.5" d="M322.5,-121C316.5,-121 310.5,-115 310.5,-109"/>
<path fill="#ffffff" stroke="#ffffff" stroke-width="1.5" d="M310.5,-97C310.5,-91 316.5,-85 322.5,-85"/>
<polyline fill="none" stroke="#2e3436" stroke-width="1.5" points="322.5,-85 411.5,-85 "/>
<path fill="none" stroke="#2e3436" stroke-width="1.5" d="M411.5,-85C417.5,-85 423.5,-91 423.5,-97"/>
<polyline fill="none" stroke="#2e3436" stroke-width="1.5" points="423.5,-97 423.5,-109 "/>
<path fill="none" stroke="#2e3436" stroke-width="1.5" d="M423.5,-109C423.5,-115 417.5,-121 411.5,-121"/>
<polyline fill="none" stroke="#2e3436" stroke-width="1.5" points="411.5,-121 322.5,-121 "/>
<path fill="none" stroke="#2e3436" stroke-width="1.5" d="M322.5,-121C316.5,-121 310.5,-115 310.5,-109"/>
<polyline fill="none" stroke="#2e3436" stroke-width="1.5" points="310.5,-109 310.5,-97 "/>
<path fill="none" stroke="#2e3436" stroke-width="1.5" d="M310.5,-97C310.5,-91 316.5,-85 322.5,-85"/>
<text text-anchor="start" x="318.5" y="-100.8" font-family="FreeSans" font-size="8.00" fill="#1c2021">Node[5]name = &#39;Principal2&#39;</text>
</g>
<!-- N5&#45;&gt;N1 -->
<g id="edge12" class="edge"><title>N5&#45;&gt;N1</title>
<path fill="none" stroke="#4e9a06" stroke-width="2" d="M355.5,-84.7733C347.93,-72.7751 337.924,-56.9174 329.634,-43.779"/>
<polygon fill="#4e9a06" stroke="#4e9a06" points="325.478,-37.1912 332.334,-41.7332 327.902,-40.0959 329.903,-43.2673 329.48,-43.5342 329.057,-43.801 327.056,-40.6295 326.626,-45.3351 325.478,-37.1912 325.478,-37.1912"/>
<text text-anchor="middle" x="351.5" y="-58.8" font-family="FreeSans" font-size="8.00" fill="#4e9a06">owns</text>
</g>
</g>
</svg>
