<?xml version="1.0" encoding="UTF-8" standalone="no"?>
<!DOCTYPE svg PUBLIC "-//W3C//DTD SVG 1.1//EN"
 "http://www.w3.org/Graphics/SVG/1.1/DTD/svg11.dtd">
<!-- Generated by graphviz version 2.26.3 (20100126.1600)
 -->
<!-- Title: g Pages: 1 -->
<svg width="402pt" height="130pt"
 viewBox="0.00 0.00 402.00 130.00" xmlns="http://www.w3.org/2000/svg" xmlns:xlink="http://www.w3.org/1999/xlink">
<g id="graph1" class="graph" transform="scale(1 1) rotate(0) translate(4 126)">
<title>g</title>
<polygon fill="white" stroke="white" points="-4,5 -4,-126 399,-126 399,5 -4,5"/>
<!-- N1 -->
<g id="node1" class="node"><title>N1</title>
<polygon fill="#ffffff" stroke="#ffffff" stroke-width="1.5" points="30.5,-1 71.5,-1 83.5,-13 83.5,-25 71.5,-37 30.5,-37 18.5,-25 18.5,-13 30.5,-1"/>
<path fill="#ffffff" stroke="#ffffff" stroke-width="1.5" d="M71.5,-1C77.5,-1 83.5,-7 83.5,-13"/>
<path fill="#ffffff" stroke="#ffffff" stroke-width="1.5" d="M83.5,-25C83.5,-31 77.5,-37 71.5,-37"/>
<path fill="#ffffff" stroke="#ffffff" stroke-width="1.5" d="M30.5,-37C24.5,-37 18.5,-31 18.5,-25"/>
<path fill="#ffffff" stroke="#ffffff" stroke-width="1.5" d="M18.5,-13C18.5,-7 24.5,-1 30.5,-1"/>
<polyline fill="none" stroke="#2e3436" stroke-width="1.5" points="30.5,-1 71.5,-1 "/>
<path fill="none" stroke="#2e3436" stroke-width="1.5" d="M71.5,-1C77.5,-1 83.5,-7 83.5,-13"/>
<polyline fill="none" stroke="#2e3436" stroke-width="1.5" points="83.5,-13 83.5,-25 "/>
<path fill="none" stroke="#2e3436" stroke-width="1.5" d="M83.5,-25C83.5,-31 77.5,-37 71.5,-37"/>
<polyline fill="none" stroke="#2e3436" stroke-width="1.5" points="71.5,-37 30.5,-37 "/>
<path fill="none" stroke="#2e3436" stroke-width="1.5" d="M30.5,-37C24.5,-37 18.5,-31 18.5,-25"/>
<polyline fill="none" stroke="#2e3436" stroke-width="1.5" points="18.5,-25 18.5,-13 "/>
<path fill="none" stroke="#2e3436" stroke-width="1.5" d="M18.5,-13C18.5,-7 24.5,-1 30.5,-1"/>
<text text-anchor="middle" x="51" y="-25.8" font-family="FreeSans" font-size="8.00" fill="#1c2021">Node[1]</text>
<polyline fill="none" stroke="#2e3436" stroke-width="1.5" points="18.5,-19 83.5,-19 "/>
<text text-anchor="start" x="26.5" y="-7.8" font-family="FreeSans" font-size="8.00" fill="#1c2021">name = &#39;Pet1&#39;</text>
</g>
<!-- N2 -->
<g id="node2" class="node"><title>N2</title>
<polygon fill="#ffffff" stroke="#ffffff" stroke-width="1.5" points="271.5,-1 312.5,-1 324.5,-13 324.5,-25 312.5,-37 271.5,-37 259.5,-25 259.5,-13 271.5,-1"/>
<path fill="#ffffff" stroke="#ffffff" stroke-width="1.5" d="M312.5,-1C318.5,-1 324.5,-7 324.5,-13"/>
<path fill="#ffffff" stroke="#ffffff" stroke-width="1.5" d="M324.5,-25C324.5,-31 318.5,-37 312.5,-37"/>
<path fill="#ffffff" stroke="#ffffff" stroke-width="1.5" d="M271.5,-37C265.5,-37 259.5,-31 259.5,-25"/>
<path fill="#ffffff" stroke="#ffffff" stroke-width="1.5" d="M259.5,-13C259.5,-7 265.5,-1 271.5,-1"/>
<polyline fill="none" stroke="#2e3436" stroke-width="1.5" points="271.5,-1 312.5,-1 "/>
<path fill="none" stroke="#2e3436" stroke-width="1.5" d="M312.5,-1C318.5,-1 324.5,-7 324.5,-13"/>
<polyline fill="none" stroke="#2e3436" stroke-width="1.5" points="324.5,-13 324.5,-25 "/>
<path fill="none" stroke="#2e3436" stroke-width="1.5" d="M324.5,-25C324.5,-31 318.5,-37 312.5,-37"/>
<polyline fill="none" stroke="#2e3436" stroke-width="1.5" points="312.5,-37 271.5,-37 "/>
<path fill="none" stroke="#2e3436" stroke-width="1.5" d="M271.5,-37C265.5,-37 259.5,-31 259.5,-25"/>
<polyline fill="none" stroke="#2e3436" stroke-width="1.5" points="259.5,-25 259.5,-13 "/>
<path fill="none" stroke="#2e3436" stroke-width="1.5" d="M259.5,-13C259.5,-7 265.5,-1 271.5,-1"/>
<text text-anchor="middle" x="292" y="-25.8" font-family="FreeSans" font-size="8.00" fill="#1c2021">Node[2]</text>
<polyline fill="none" stroke="#2e3436" stroke-width="1.5" points="259.5,-19 324.5,-19 "/>
<text text-anchor="start" x="267.5" y="-7.8" font-family="FreeSans" font-size="8.00" fill="#1c2021">name = &#39;Pet2&#39;</text>
</g>
<!-- N3 -->
<g id="node3" class="node"><title>N3</title>
<polygon fill="#ffffff" stroke="#ffffff" stroke-width="1.5" points="177.5,-85 218.5,-85 230.5,-97 230.5,-109 218.5,-121 177.5,-121 165.5,-109 165.5,-97 177.5,-85"/>
<path fill="#ffffff" stroke="#ffffff" stroke-width="1.5" d="M218.5,-85C224.5,-85 230.5,-91 230.5,-97"/>
<path fill="#ffffff" stroke="#ffffff" stroke-width="1.5" d="M230.5,-109C230.5,-115 224.5,-121 218.5,-121"/>
<path fill="#ffffff" stroke="#ffffff" stroke-width="1.5" d="M177.5,-121C171.5,-121 165.5,-115 165.5,-109"/>
<path fill="#ffffff" stroke="#ffffff" stroke-width="1.5" d="M165.5,-97C165.5,-91 171.5,-85 177.5,-85"/>
<polyline fill="none" stroke="#2e3436" stroke-width="1.5" points="177.5,-85 218.5,-85 "/>
<path fill="none" stroke="#2e3436" stroke-width="1.5" d="M218.5,-85C224.5,-85 230.5,-91 230.5,-97"/>
<polyline fill="none" stroke="#2e3436" stroke-width="1.5" points="230.5,-97 230.5,-109 "/>
<path fill="none" stroke="#2e3436" stroke-width="1.5" d="M230.5,-109C230.5,-115 224.5,-121 218.5,-121"/>
<polyline fill="none" stroke="#2e3436" stroke-width="1.5" points="218.5,-121 177.5,-121 "/>
<path fill="none" stroke="#2e3436" stroke-width="1.5" d="M177.5,-121C171.5,-121 165.5,-115 165.5,-109"/>
<polyline fill="none" stroke="#2e3436" stroke-width="1.5" points="165.5,-109 165.5,-97 "/>
<path fill="none" stroke="#2e3436" stroke-width="1.5" d="M165.5,-97C165.5,-91 171.5,-85 177.5,-85"/>
<text text-anchor="middle" x="198" y="-109.8" font-family="FreeSans" font-size="8.00" fill="#1c2021">Node[3]</text>
<polyline fill="none" stroke="#2e3436" stroke-width="1.5" points="165.5,-103 230.5,-103 "/>
<text text-anchor="start" x="173.5" y="-91.8" font-family="FreeSans" font-size="8.00" fill="#1c2021">name = &#39;Pet0&#39;</text>
</g>
<!-- N3&#45;&gt;N1 -->
<g id="edge2" class="edge"><title>N3&#45;&gt;N1</title>
<path fill="none" stroke="#2e3436" stroke-width="2" d="M166.465,-84.9799C143.871,-72.0691 113.321,-54.6118 89.32,-40.8971"/>
<polygon fill="#2e3436" stroke="#2e3436" points="82.7363,-37.135 90.9226,-37.9258 86.2403,-38.5615 89.4962,-40.422 89.2482,-40.8561 89.0001,-41.2903 85.7442,-39.4297 87.5737,-43.7865 82.7363,-37.135 82.7363,-37.135"/>
<text text-anchor="middle" x="149.5" y="-58.8" font-family="FreeSans" font-size="8.00" fill="#2e3436">descendant</text>
</g>
<!-- N3&#45;&gt;N2 -->
<g id="edge4" class="edge"><title>N3&#45;&gt;N2</title>
<path fill="none" stroke="#2e3436" stroke-width="2" d="M218.554,-84.9857C225.393,-78.9671 233.039,-72.2111 240,-66 248.558,-58.3638 257.862,-49.9798 266.204,-42.4336"/>
<polygon fill="#2e3436" stroke="#2e3436" points="271.804,-37.3626 268.51,-44.8985 269.36,-40.2503 266.58,-42.7674 266.245,-42.3967 265.909,-42.0261 268.689,-39.5091 263.979,-39.895 271.804,-37.3626 271.804,-37.3626"/>
<text text-anchor="middle" x="270.5" y="-58.8" font-family="FreeSans" font-size="8.00" fill="#2e3436">descendant</text>
</g>
<!-- N4 -->
<g id="node7" class="node"><title>N4</title>
<polygon fill="#ffffff" stroke="#ffffff" stroke-width="1.5" points="160.5,-1 201.5,-1 213.5,-13 213.5,-25 201.5,-37 160.5,-37 148.5,-25 148.5,-13 160.5,-1"/>
<path fill="#ffffff" stroke="#ffffff" stroke-width="1.5" d="M201.5,-1C207.5,-1 213.5,-7 213.5,-13"/>
<path fill="#ffffff" stroke="#ffffff" stroke-width="1.5" d="M213.5,-25C213.5,-31 207.5,-37 201.5,-37"/>
<path fill="#ffffff" stroke="#ffffff" stroke-width="1.5" d="M160.5,-37C154.5,-37 148.5,-31 148.5,-25"/>
<path fill="#ffffff" stroke="#ffffff" stroke-width="1.5" d="M148.5,-13C148.5,-7 154.5,-1 160.5,-1"/>
<polyline fill="none" stroke="#2e3436" stroke-width="1.5" points="160.5,-1 201.5,-1 "/>
<path fill="none" stroke="#2e3436" stroke-width="1.5" d="M201.5,-1C207.5,-1 213.5,-7 213.5,-13"/>
<polyline fill="none" stroke="#2e3436" stroke-width="1.5" points="213.5,-13 213.5,-25 "/>
<path fill="none" stroke="#2e3436" stroke-width="1.5" d="M213.5,-25C213.5,-31 207.5,-37 201.5,-37"/>
<polyline fill="none" stroke="#2e3436" stroke-width="1.5" points="201.5,-37 160.5,-37 "/>
<path fill="none" stroke="#2e3436" stroke-width="1.5" d="M160.5,-37C154.5,-37 148.5,-31 148.5,-25"/>
<polyline fill="none" stroke="#2e3436" stroke-width="1.5" points="148.5,-25 148.5,-13 "/>
<path fill="none" stroke="#2e3436" stroke-width="1.5" d="M148.5,-13C148.5,-7 154.5,-1 160.5,-1"/>
<text text-anchor="middle" x="181" y="-25.8" font-family="FreeSans" font-size="8.00" fill="#1c2021">Node[4]</text>
<polyline fill="none" stroke="#2e3436" stroke-width="1.5" points="148.5,-19 213.5,-19 "/>
<text text-anchor="start" x="156.5" y="-7.8" font-family="FreeSans" font-size="8.00" fill="#1c2021">name = &#39;Pet3&#39;</text>
</g>
<!-- N3&#45;&gt;N4 -->
<g id="edge6" class="edge"><title>N3&#45;&gt;N4</title>
<path fill="none" stroke="#2e3436" stroke-width="2" d="M194.311,-84.7733C191.95,-73.1053 188.85,-57.7874 186.236,-44.8699"/>
<polygon fill="#2e3436" stroke="#2e3436" points="184.682,-37.1912 189.477,-43.8727 185.915,-40.7675 186.659,-44.443 186.169,-44.5421 185.679,-44.6413 184.935,-40.9658 182.861,-45.2116 184.682,-37.1912 184.682,-37.1912"/>
<text text-anchor="middle" x="211.5" y="-58.8" font-family="FreeSans" font-size="8.00" fill="#2e3436">descendant</text>
</g>
<!-- N5 -->
<g id="node8" class="node"><title>N5</title>
<polygon fill="#ffffff" stroke="#ffffff" stroke-width="1.5" points="12,-85 72,-85 84,-97 84,-109 72,-121 12,-121 0,-109 0,-97 12,-85"/>
<path fill="#ffffff" stroke="#ffffff" stroke-width="1.5" d="M72,-85C78,-85 84,-91 84,-97"/>
<path fill="#ffffff" stroke="#ffffff" stroke-width="1.5" d="M84,-109C84,-115 78,-121 72,-121"/>
<path fill="#ffffff" stroke="#ffffff" stroke-width="1.5" d="M12,-121C6,-121 0,-115 0,-109"/>
<path fill="#ffffff" stroke="#ffffff" stroke-width="1.5" d="M0,-97C0,-91 6,-85 12,-85"/>
<polyline fill="none" stroke="#2e3436" stroke-width="1.5" points="12,-85 72,-85 "/>
<path fill="none" stroke="#2e3436" stroke-width="1.5" d="M72,-85C78,-85 84,-91 84,-97"/>
<polyline fill="none" stroke="#2e3436" stroke-width="1.5" points="84,-97 84,-109 "/>
<path fill="none" stroke="#2e3436" stroke-width="1.5" d="M84,-109C84,-115 78,-121 72,-121"/>
<polyline fill="none" stroke="#2e3436" stroke-width="1.5" points="72,-121 12,-121 "/>
<path fill="none" stroke="#2e3436" stroke-width="1.5" d="M12,-121C6,-121 0,-115 0,-109"/>
<polyline fill="none" stroke="#2e3436" stroke-width="1.5" points="0,-109 0,-97 "/>
<path fill="none" stroke="#2e3436" stroke-width="1.5" d="M0,-97C0,-91 6,-85 12,-85"/>
<text text-anchor="middle" x="42" y="-109.8" font-family="FreeSans" font-size="8.00" fill="#1c2021">Node[5]</text>
<polyline fill="none" stroke="#2e3436" stroke-width="1.5" points="0,-103 84,-103 "/>
<text text-anchor="start" x="8" y="-91.8" font-family="FreeSans" font-size="8.00" fill="#1c2021">name = &#39;Principal1&#39;</text>
</g>
<!-- N5&#45;&gt;N1 -->
<g id="edge8" class="edge"><title>N5&#45;&gt;N1</title>
<path fill="none" stroke="#4e9a06" stroke-width="2" d="M21.2076,-84.955C14.0359,-76.4919 8.74993,-66.0702 13,-56 15.0207,-51.2122 17.9973,-46.7372 21.4101,-42.6697"/>
<polygon fill="#4e9a06" stroke="#4e9a06" points="26.6619,-37.013 24.0323,-44.8057 24.4768,-40.1013 21.9254,-42.8495 21.5589,-42.5093 21.1925,-42.1691 23.744,-39.4209 19.0856,-40.213 26.6619,-37.013 26.6619,-37.013"/>
<text text-anchor="middle" x="22.5" y="-58.8" font-family="FreeSans" font-size="8.00" fill="#4e9a06">owns</text>
</g>
<!-- N5&#45;&gt;N4 -->
<g id="edge10" class="edge"><title>N5&#45;&gt;N4</title>
<path fill="none" stroke="#4e9a06" stroke-width="2" d="M47.4793,-84.7365C51.2564,-74.9833 57.2077,-63.4808 66,-56 77.5108,-46.2063 112.509,-35.713 140.901,-28.4119"/>
<polygon fill="#4e9a06" stroke="#4e9a06" points="148.333,-26.5338 141.888,-31.6436 144.819,-27.9374 141.184,-28.8562 141.061,-28.3715 140.939,-27.8867 144.574,-26.9679 140.234,-25.0993 148.333,-26.5338 148.333,-26.5338"/>
<text text-anchor="middle" x="75.5" y="-58.8" font-family="FreeSans" font-size="8.00" fill="#4e9a06">owns</text>
</g>
<!-- N6 -->
<g id="node11" class="node"><title>N6</title>
<polygon fill="#ffffff" stroke="#ffffff" stroke-width="1.5" points="322,-85 382,-85 394,-97 394,-109 382,-121 322,-121 310,-109 310,-97 322,-85"/>
<path fill="#ffffff" stroke="#ffffff" stroke-width="1.5" d="M382,-85C388,-85 394,-91 394,-97"/>
<path fill="#ffffff" stroke="#ffffff" stroke-width="1.5" d="M394,-109C394,-115 388,-121 382,-121"/>
<path fill="#ffffff" stroke="#ffffff" stroke-width="1.5" d="M322,-121C316,-121 310,-115 310,-109"/>
<path fill="#ffffff" stroke="#ffffff" stroke-width="1.5" d="M310,-97C310,-91 316,-85 322,-85"/>
<polyline fill="none" stroke="#2e3436" stroke-width="1.5" points="322,-85 382,-85 "/>
<path fill="none" stroke="#2e3436" stroke-width="1.5" d="M382,-85C388,-85 394,-91 394,-97"/>
<polyline fill="none" stroke="#2e3436" stroke-width="1.5" points="394,-97 394,-109 "/>
<path fill="none" stroke="#2e3436" stroke-width="1.5" d="M394,-109C394,-115 388,-121 382,-121"/>
<polyline fill="none" stroke="#2e3436" stroke-width="1.5" points="382,-121 322,-121 "/>
<path fill="none" stroke="#2e3436" stroke-width="1.5" d="M322,-121C316,-121 310,-115 310,-109"/>
<polyline fill="none" stroke="#2e3436" stroke-width="1.5" points="310,-109 310,-97 "/>
<path fill="none" stroke="#2e3436" stroke-width="1.5" d="M310,-97C310,-91 316,-85 322,-85"/>
<text text-anchor="middle" x="352" y="-109.8" font-family="FreeSans" font-size="8.00" fill="#1c2021">Node[6]</text>
<polyline fill="none" stroke="#2e3436" stroke-width="1.5" points="310,-103 394,-103 "/>
<text text-anchor="start" x="318" y="-91.8" font-family="FreeSans" font-size="8.00" fill="#1c2021">name = &#39;Principal2&#39;</text>
</g>
<!-- N6&#45;&gt;N2 -->
<g id="edge12" class="edge"><title>N6&#45;&gt;N2</title>
<path fill="none" stroke="#4e9a06" stroke-width="2" d="M339.226,-84.6426C333.139,-75.936 325.732,-65.4042 319,-56 316.014,-51.8294 312.819,-47.4116 309.71,-43.1359"/>
<polygon fill="#4e9a06" stroke="#4e9a06" points="305.25,-37.0186 312.395,-41.0905 307.863,-39.7541 310.072,-42.7843 309.668,-43.0788 309.264,-43.3734 307.055,-40.3433 306.941,-45.0672 305.25,-37.0186 305.25,-37.0186"/>
<text text-anchor="middle" x="334.5" y="-58.8" font-family="FreeSans" font-size="8.00" fill="#4e9a06">owns</text>
</g>
</g>
</svg>
