<?xml version="1.0" encoding="UTF-8" standalone="no"?>
<!DOCTYPE svg PUBLIC "-//W3C//DTD SVG 1.1//EN"
 "http://www.w3.org/Graphics/SVG/1.1/DTD/svg11.dtd">
<!-- Generated by graphviz version 2.26.3 (20100126.1600)
 -->
<!-- Title: g Pages: 1 -->
<svg width="233pt" height="214pt"
 viewBox="0.00 0.00 233.00 214.00" xmlns="http://www.w3.org/2000/svg" xmlns:xlink="http://www.w3.org/1999/xlink">
<g id="graph1" class="graph" transform="scale(1 1) rotate(0) translate(4 210)">
<title>g</title>
<polygon fill="white" stroke="white" points="-4,5 -4,-210 230,-210 230,5 -4,5"/>
<!-- N0 -->
<g id="node1" class="node"><title>N0</title>
<polygon fill="#ffffff" stroke="#ffffff" stroke-width="1.5" points="15.5,-85 86.5,-85 98.5,-97 98.5,-109 86.5,-121 15.5,-121 3.5,-109 3.5,-97 15.5,-85"/>
<path fill="#ffffff" stroke="#ffffff" stroke-width="1.5" d="M86.5,-85C92.5,-85 98.5,-91 98.5,-97"/>
<path fill="#ffffff" stroke="#ffffff" stroke-width="1.5" d="M98.5,-109C98.5,-115 92.5,-121 86.5,-121"/>
<path fill="#ffffff" stroke="#ffffff" stroke-width="1.5" d="M15.5,-121C9.5,-121 3.5,-115 3.5,-109"/>
<path fill="#ffffff" stroke="#ffffff" stroke-width="1.5" d="M3.5,-97C3.5,-91 9.5,-85 15.5,-85"/>
<polyline fill="none" stroke="#2e3436" stroke-width="1.5" points="15.5,-85 86.5,-85 "/>
<path fill="none" stroke="#2e3436" stroke-width="1.5" d="M86.5,-85C92.5,-85 98.5,-91 98.5,-97"/>
<polyline fill="none" stroke="#2e3436" stroke-width="1.5" points="98.5,-97 98.5,-109 "/>
<path fill="none" stroke="#2e3436" stroke-width="1.5" d="M98.5,-109C98.5,-115 92.5,-121 86.5,-121"/>
<polyline fill="none" stroke="#2e3436" stroke-width="1.5" points="86.5,-121 15.5,-121 "/>
<path fill="none" stroke="#2e3436" stroke-width="1.5" d="M15.5,-121C9.5,-121 3.5,-115 3.5,-109"/>
<polyline fill="none" stroke="#2e3436" stroke-width="1.5" points="3.5,-109 3.5,-97 "/>
<path fill="none" stroke="#2e3436" stroke-width="1.5" d="M3.5,-97C3.5,-91 9.5,-85 15.5,-85"/>
<text text-anchor="start" x="11.5" y="-100.8" font-family="FreeSans" font-size="8.00" fill="#1c2021">Node[0]name = &#39;Sara&#39;</text>
</g>
<!-- N1 -->
<g id="node3" class="node"><title>N1</title>
<polygon fill="#ffffff" stroke="#ffffff" stroke-width="1.5" points="12,-1 86,-1 98,-13 98,-25 86,-37 12,-37 0,-25 0,-13 12,-1"/>
<path fill="#ffffff" stroke="#ffffff" stroke-width="1.5" d="M86,-1C92,-1 98,-7 98,-13"/>
<path fill="#ffffff" stroke="#ffffff" stroke-width="1.5" d="M98,-25C98,-31 92,-37 86,-37"/>
<path fill="#ffffff" stroke="#ffffff" stroke-width="1.5" d="M12,-37C6,-37 0,-31 0,-25"/>
<path fill="#ffffff" stroke="#ffffff" stroke-width="1.5" d="M0,-13C0,-7 6,-1 12,-1"/>
<polyline fill="none" stroke="#2e3436" stroke-width="1.5" points="12,-1 86,-1 "/>
<path fill="none" stroke="#2e3436" stroke-width="1.5" d="M86,-1C92,-1 98,-7 98,-13"/>
<polyline fill="none" stroke="#2e3436" stroke-width="1.5" points="98,-13 98,-25 "/>
<path fill="none" stroke="#2e3436" stroke-width="1.5" d="M98,-25C98,-31 92,-37 86,-37"/>
<polyline fill="none" stroke="#2e3436" stroke-width="1.5" points="86,-37 12,-37 "/>
<path fill="none" stroke="#2e3436" stroke-width="1.5" d="M12,-37C6,-37 0,-31 0,-25"/>
<polyline fill="none" stroke="#2e3436" stroke-width="1.5" points="0,-25 0,-13 "/>
<path fill="none" stroke="#2e3436" stroke-width="1.5" d="M0,-13C0,-7 6,-1 12,-1"/>
<text text-anchor="start" x="8" y="-16.8" font-family="FreeSans" font-size="8.00" fill="#1c2021">Node[1]name = &#39;Maria&#39;</text>
</g>
<!-- N0&#45;&gt;N1 -->
<g id="edge2" class="edge"><title>N0&#45;&gt;N1</title>
<path fill="none" stroke="#2e3436" stroke-width="2" d="M50.566,-84.7733C50.2882,-73.1053 49.9235,-57.7874 49.6159,-44.8699"/>
<polygon fill="#2e3436" stroke="#2e3436" points="49.4331,-37.1912 52.9858,-44.6087 50.0223,-40.9282 50.1116,-44.6771 49.6117,-44.6891 49.1119,-44.701 49.0226,-40.952 46.2377,-44.7694 49.4331,-37.1912 49.4331,-37.1912"/>
<text text-anchor="middle" x="61.5" y="-58.8" font-family="FreeSans" font-size="8.00" fill="#2e3436">friend</text>
</g>
<!-- N2 -->
<g id="node4" class="node"><title>N2</title>
<polygon fill="#ffffff" stroke="#ffffff" stroke-width="1.5" points="139,-1 213,-1 225,-13 225,-25 213,-37 139,-37 127,-25 127,-13 139,-1"/>
<path fill="#ffffff" stroke="#ffffff" stroke-width="1.5" d="M213,-1C219,-1 225,-7 225,-13"/>
<path fill="#ffffff" stroke="#ffffff" stroke-width="1.5" d="M225,-25C225,-31 219,-37 213,-37"/>
<path fill="#ffffff" stroke="#ffffff" stroke-width="1.5" d="M139,-37C133,-37 127,-31 127,-25"/>
<path fill="#ffffff" stroke="#ffffff" stroke-width="1.5" d="M127,-13C127,-7 133,-1 139,-1"/>
<polyline fill="none" stroke="#2e3436" stroke-width="1.5" points="139,-1 213,-1 "/>
<path fill="none" stroke="#2e3436" stroke-width="1.5" d="M213,-1C219,-1 225,-7 225,-13"/>
<polyline fill="none" stroke="#2e3436" stroke-width="1.5" points="225,-13 225,-25 "/>
<path fill="none" stroke="#2e3436" stroke-width="1.5" d="M225,-25C225,-31 219,-37 213,-37"/>
<polyline fill="none" stroke="#2e3436" stroke-width="1.5" points="213,-37 139,-37 "/>
<path fill="none" stroke="#2e3436" stroke-width="1.5" d="M139,-37C133,-37 127,-31 127,-25"/>
<polyline fill="none" stroke="#2e3436" stroke-width="1.5" points="127,-25 127,-13 "/>
<path fill="none" stroke="#2e3436" stroke-width="1.5" d="M127,-13C127,-7 133,-1 139,-1"/>
<text text-anchor="start" x="135" y="-16.8" font-family="FreeSans" font-size="8.00" fill="#1c2021">Node[2]name = &#39;Steve&#39;</text>
</g>
<!-- N3 -->
<g id="node5" class="node"><title>N3</title>
<polygon fill="#ffffff" stroke="#ffffff" stroke-width="1.5" points="85.5,-169 156.5,-169 168.5,-181 168.5,-193 156.5,-205 85.5,-205 73.5,-193 73.5,-181 85.5,-169"/>
<path fill="#ffffff" stroke="#ffffff" stroke-width="1.5" d="M156.5,-169C162.5,-169 168.5,-175 168.5,-181"/>
<path fill="#ffffff" stroke="#ffffff" stroke-width="1.5" d="M168.5,-193C168.5,-199 162.5,-205 156.5,-205"/>
<path fill="#ffffff" stroke="#ffffff" stroke-width="1.5" d="M85.5,-205C79.5,-205 73.5,-199 73.5,-193"/>
<path fill="#ffffff" stroke="#ffffff" stroke-width="1.5" d="M73.5,-181C73.5,-175 79.5,-169 85.5,-169"/>
<polyline fill="none" stroke="#2e3436" stroke-width="1.5" points="85.5,-169 156.5,-169 "/>
<path fill="none" stroke="#2e3436" stroke-width="1.5" d="M156.5,-169C162.5,-169 168.5,-175 168.5,-181"/>
<polyline fill="none" stroke="#2e3436" stroke-width="1.5" points="168.5,-181 168.5,-193 "/>
<path fill="none" stroke="#2e3436" stroke-width="1.5" d="M168.5,-193C168.5,-199 162.5,-205 156.5,-205"/>
<polyline fill="none" stroke="#2e3436" stroke-width="1.5" points="156.5,-205 85.5,-205 "/>
<path fill="none" stroke="#2e3436" stroke-width="1.5" d="M85.5,-205C79.5,-205 73.5,-199 73.5,-193"/>
<polyline fill="none" stroke="#2e3436" stroke-width="1.5" points="73.5,-193 73.5,-181 "/>
<path fill="none" stroke="#2e3436" stroke-width="1.5" d="M73.5,-181C73.5,-175 79.5,-169 85.5,-169"/>
<text text-anchor="start" x="81.5" y="-184.8" font-family="FreeSans" font-size="8.00" fill="#1c2021">Node[3]name = &#39;John&#39;</text>
</g>
<!-- N3&#45;&gt;N0 -->
<g id="edge4" class="edge"><title>N3&#45;&gt;N0</title>
<path fill="none" stroke="#2e3436" stroke-width="2" d="M105.811,-168.773C95.6291,-156.555 82.1118,-140.334 71.0488,-127.059"/>
<polygon fill="#2e3436" stroke="#2e3436" points="66.1593,-121.191 73.5535,-124.792 68.9441,-123.752 71.3448,-126.633 70.9607,-126.953 70.5766,-127.273 68.1759,-124.392 68.368,-129.113 66.1593,-121.191 66.1593,-121.191"/>
<text text-anchor="middle" x="99.5" y="-142.8" font-family="FreeSans" font-size="8.00" fill="#2e3436">friend</text>
</g>
<!-- N4 -->
<g id="node8" class="node"><title>N4</title>
<polygon fill="#ffffff" stroke="#ffffff" stroke-width="1.5" points="141.5,-85 208.5,-85 220.5,-97 220.5,-109 208.5,-121 141.5,-121 129.5,-109 129.5,-97 141.5,-85"/>
<path fill="#ffffff" stroke="#ffffff" stroke-width="1.5" d="M208.5,-85C214.5,-85 220.5,-91 220.5,-97"/>
<path fill="#ffffff" stroke="#ffffff" stroke-width="1.5" d="M220.5,-109C220.5,-115 214.5,-121 208.5,-121"/>
<path fill="#ffffff" stroke="#ffffff" stroke-width="1.5" d="M141.5,-121C135.5,-121 129.5,-115 129.5,-109"/>
<path fill="#ffffff" stroke="#ffffff" stroke-width="1.5" d="M129.5,-97C129.5,-91 135.5,-85 141.5,-85"/>
<polyline fill="none" stroke="#2e3436" stroke-width="1.5" points="141.5,-85 208.5,-85 "/>
<path fill="none" stroke="#2e3436" stroke-width="1.5" d="M208.5,-85C214.5,-85 220.5,-91 220.5,-97"/>
<polyline fill="none" stroke="#2e3436" stroke-width="1.5" points="220.5,-97 220.5,-109 "/>
<path fill="none" stroke="#2e3436" stroke-width="1.5" d="M220.5,-109C220.5,-115 214.5,-121 208.5,-121"/>
<polyline fill="none" stroke="#2e3436" stroke-width="1.5" points="208.5,-121 141.5,-121 "/>
<path fill="none" stroke="#2e3436" stroke-width="1.5" d="M141.5,-121C135.5,-121 129.5,-115 129.5,-109"/>
<polyline fill="none" stroke="#2e3436" stroke-width="1.5" points="129.5,-109 129.5,-97 "/>
<path fill="none" stroke="#2e3436" stroke-width="1.5" d="M129.5,-97C129.5,-91 135.5,-85 141.5,-85"/>
<text text-anchor="start" x="137.5" y="-100.8" font-family="FreeSans" font-size="8.00" fill="#1c2021">Node[4]name = &#39;Joe&#39;</text>
</g>
<!-- N3&#45;&gt;N4 -->
<g id="edge6" class="edge"><title>N3&#45;&gt;N4</title>
<path fill="none" stroke="#2e3436" stroke-width="2" d="M132.717,-168.773C140.43,-156.775 150.625,-140.917 159.071,-127.779"/>
<polygon fill="#2e3436" stroke="#2e3436" points="163.306,-121.191 162.089,-129.325 161.698,-124.616 159.671,-127.77 159.25,-127.5 158.829,-127.23 160.857,-124.075 156.411,-125.675 163.306,-121.191 163.306,-121.191"/>
<text text-anchor="middle" x="159.5" y="-142.8" font-family="FreeSans" font-size="8.00" fill="#2e3436">friend</text>
</g>
<!-- N4&#45;&gt;N2 -->
<g id="edge8" class="edge"><title>N4&#45;&gt;N2</title>
<path fill="none" stroke="#2e3436" stroke-width="2" d="M175.217,-84.7733C175.356,-73.1053 175.538,-57.7874 175.692,-44.8699"/>
<polygon fill="#2e3436" stroke="#2e3436" points="175.783,-37.1912 179.069,-44.7309 176.239,-40.9469 176.194,-44.6966 175.694,-44.6906 175.194,-44.6847 175.239,-40.935 172.319,-44.6504 175.783,-37.1912 175.783,-37.1912"/>
<text text-anchor="middle" x="185.5" y="-58.8" font-family="FreeSans" font-size="8.00" fill="#2e3436">friend</text>
</g>
</g>
</svg>
