<?xml version="1.0" encoding="UTF-8" standalone="no"?>
<!DOCTYPE svg PUBLIC "-//W3C//DTD SVG 1.1//EN"
 "http://www.w3.org/Graphics/SVG/1.1/DTD/svg11.dtd">
<!-- Generated by graphviz version 2.26.3 (20100126.1600)
 -->
<!-- Title: g Pages: 1 -->
<svg width="316pt" height="130pt"
 viewBox="0.00 0.00 316.00 130.00" xmlns="http://www.w3.org/2000/svg" xmlns:xlink="http://www.w3.org/1999/xlink">
<g id="graph1" class="graph" transform="scale(1 1) rotate(0) translate(4 126)">
<title>g</title>
<polygon fill="white" stroke="white" points="-4,5 -4,-126 313,-126 313,5 -4,5"/>
<!-- N99 -->
<g id="node1" class="node"><title>N99</title>
<polygon fill="#ffffff" stroke="#ffffff" stroke-width="1.5" points="12,-1 88,-1 100,-13 100,-25 88,-37 12,-37 0,-25 0,-13 12,-1"/>
<path fill="#ffffff" stroke="#ffffff" stroke-width="1.5" d="M88,-1C94,-1 100,-7 100,-13"/>
<path fill="#ffffff" stroke="#ffffff" stroke-width="1.5" d="M100,-25C100,-31 94,-37 88,-37"/>
<path fill="#ffffff" stroke="#ffffff" stroke-width="1.5" d="M12,-37C6,-37 0,-31 0,-25"/>
<path fill="#ffffff" stroke="#ffffff" stroke-width="1.5" d="M0,-13C0,-7 6,-1 12,-1"/>
<polyline fill="none" stroke="#2e3436" stroke-width="1.5" points="12,-1 88,-1 "/>
<path fill="none" stroke="#2e3436" stroke-width="1.5" d="M88,-1C94,-1 100,-7 100,-13"/>
<polyline fill="none" stroke="#2e3436" stroke-width="1.5" points="100,-13 100,-25 "/>
<path fill="none" stroke="#2e3436" stroke-width="1.5" d="M100,-25C100,-31 94,-37 88,-37"/>
<polyline fill="none" stroke="#2e3436" stroke-width="1.5" points="88,-37 12,-37 "/>
<path fill="none" stroke="#2e3436" stroke-width="1.5" d="M12,-37C6,-37 0,-31 0,-25"/>
<polyline fill="none" stroke="#2e3436" stroke-width="1.5" points="0,-25 0,-13 "/>
<path fill="none" stroke="#2e3436" stroke-width="1.5" d="M0,-13C0,-7 6,-1 12,-1"/>
<text text-anchor="start" x="8" y="-16.8" font-family="FreeSans" font-size="8.00" fill="#1c2021">Node[99]name = &#39;John&#39;</text>
</g>
<!-- N100 -->
<g id="node2" class="node"><title>N100</title>
<polygon fill="#ffffff" stroke="#ffffff" stroke-width="1.5" points="21.5,-85 78.5,-85 90.5,-97 90.5,-109 78.5,-121 21.5,-121 9.5,-109 9.5,-97 21.5,-85"/>
<path fill="#ffffff" stroke="#ffffff" stroke-width="1.5" d="M78.5,-85C84.5,-85 90.5,-91 90.5,-97"/>
<path fill="#ffffff" stroke="#ffffff" stroke-width="1.5" d="M90.5,-109C90.5,-115 84.5,-121 78.5,-121"/>
<path fill="#ffffff" stroke="#ffffff" stroke-width="1.5" d="M21.5,-121C15.5,-121 9.5,-115 9.5,-109"/>
<path fill="#ffffff" stroke="#ffffff" stroke-width="1.5" d="M9.5,-97C9.5,-91 15.5,-85 21.5,-85"/>
<polyline fill="none" stroke="#2e3436" stroke-width="1.5" points="21.5,-85 78.5,-85 "/>
<path fill="none" stroke="#2e3436" stroke-width="1.5" d="M78.5,-85C84.5,-85 90.5,-91 90.5,-97"/>
<polyline fill="none" stroke="#2e3436" stroke-width="1.5" points="90.5,-97 90.5,-109 "/>
<path fill="none" stroke="#2e3436" stroke-width="1.5" d="M90.5,-109C90.5,-115 84.5,-121 78.5,-121"/>
<polyline fill="none" stroke="#2e3436" stroke-width="1.5" points="78.5,-121 21.5,-121 "/>
<path fill="none" stroke="#2e3436" stroke-width="1.5" d="M21.5,-121C15.5,-121 9.5,-115 9.5,-109"/>
<polyline fill="none" stroke="#2e3436" stroke-width="1.5" points="9.5,-109 9.5,-97 "/>
<path fill="none" stroke="#2e3436" stroke-width="1.5" d="M9.5,-97C9.5,-91 15.5,-85 21.5,-85"/>
<text text-anchor="start" x="17.5" y="-100.8" font-family="FreeSans" font-size="8.00" fill="#1c2021">Node[100]age = 1</text>
</g>
<!-- N100&#45;&gt;N99 -->
<g id="edge2" class="edge"><title>N100&#45;&gt;N99</title>
<path fill="none" stroke="#2e3436" stroke-width="2" d="M50,-84.7733C50,-73.1053 50,-57.7874 50,-44.8699"/>
<polygon fill="#2e3436" stroke="#2e3436" points="50,-37.1912 53.3751,-44.6911 50.5,-40.9412 50.5001,-44.6912 50.0001,-44.6912 49.5001,-44.6912 49.5,-40.9412 46.6251,-44.6912 50,-37.1912 50,-37.1912"/>
<text text-anchor="middle" x="62" y="-58.8" font-family="FreeSans" font-size="8.00" fill="#2e3436">knows</text>
</g>
<!-- N101 -->
<g id="node4" class="node"><title>N101</title>
<polygon fill="#ffffff" stroke="#ffffff" stroke-width="1.5" points="130.5,-85 187.5,-85 199.5,-97 199.5,-109 187.5,-121 130.5,-121 118.5,-109 118.5,-97 130.5,-85"/>
<path fill="#ffffff" stroke="#ffffff" stroke-width="1.5" d="M187.5,-85C193.5,-85 199.5,-91 199.5,-97"/>
<path fill="#ffffff" stroke="#ffffff" stroke-width="1.5" d="M199.5,-109C199.5,-115 193.5,-121 187.5,-121"/>
<path fill="#ffffff" stroke="#ffffff" stroke-width="1.5" d="M130.5,-121C124.5,-121 118.5,-115 118.5,-109"/>
<path fill="#ffffff" stroke="#ffffff" stroke-width="1.5" d="M118.5,-97C118.5,-91 124.5,-85 130.5,-85"/>
<polyline fill="none" stroke="#2e3436" stroke-width="1.5" points="130.5,-85 187.5,-85 "/>
<path fill="none" stroke="#2e3436" stroke-width="1.5" d="M187.5,-85C193.5,-85 199.5,-91 199.5,-97"/>
<polyline fill="none" stroke="#2e3436" stroke-width="1.5" points="199.5,-97 199.5,-109 "/>
<path fill="none" stroke="#2e3436" stroke-width="1.5" d="M199.5,-109C199.5,-115 193.5,-121 187.5,-121"/>
<polyline fill="none" stroke="#2e3436" stroke-width="1.5" points="187.5,-121 130.5,-121 "/>
<path fill="none" stroke="#2e3436" stroke-width="1.5" d="M130.5,-121C124.5,-121 118.5,-115 118.5,-109"/>
<polyline fill="none" stroke="#2e3436" stroke-width="1.5" points="118.5,-109 118.5,-97 "/>
<path fill="none" stroke="#2e3436" stroke-width="1.5" d="M118.5,-97C118.5,-91 124.5,-85 130.5,-85"/>
<text text-anchor="start" x="126.5" y="-100.8" font-family="FreeSans" font-size="8.00" fill="#1c2021">Node[101]age = 1</text>
</g>
<!-- N102 -->
<g id="node5" class="node"><title>N102</title>
<polygon fill="#ffffff" stroke="#ffffff" stroke-width="1.5" points="239.5,-85 296.5,-85 308.5,-97 308.5,-109 296.5,-121 239.5,-121 227.5,-109 227.5,-97 239.5,-85"/>
<path fill="#ffffff" stroke="#ffffff" stroke-width="1.5" d="M296.5,-85C302.5,-85 308.5,-91 308.5,-97"/>
<path fill="#ffffff" stroke="#ffffff" stroke-width="1.5" d="M308.5,-109C308.5,-115 302.5,-121 296.5,-121"/>
<path fill="#ffffff" stroke="#ffffff" stroke-width="1.5" d="M239.5,-121C233.5,-121 227.5,-115 227.5,-109"/>
<path fill="#ffffff" stroke="#ffffff" stroke-width="1.5" d="M227.5,-97C227.5,-91 233.5,-85 239.5,-85"/>
<polyline fill="none" stroke="#2e3436" stroke-width="1.5" points="239.5,-85 296.5,-85 "/>
<path fill="none" stroke="#2e3436" stroke-width="1.5" d="M296.5,-85C302.5,-85 308.5,-91 308.5,-97"/>
<polyline fill="none" stroke="#2e3436" stroke-width="1.5" points="308.5,-97 308.5,-109 "/>
<path fill="none" stroke="#2e3436" stroke-width="1.5" d="M308.5,-109C308.5,-115 302.5,-121 296.5,-121"/>
<polyline fill="none" stroke="#2e3436" stroke-width="1.5" points="296.5,-121 239.5,-121 "/>
<path fill="none" stroke="#2e3436" stroke-width="1.5" d="M239.5,-121C233.5,-121 227.5,-115 227.5,-109"/>
<polyline fill="none" stroke="#2e3436" stroke-width="1.5" points="227.5,-109 227.5,-97 "/>
<path fill="none" stroke="#2e3436" stroke-width="1.5" d="M227.5,-97C227.5,-91 233.5,-85 239.5,-85"/>
<text text-anchor="start" x="235.5" y="-100.8" font-family="FreeSans" font-size="8.00" fill="#1c2021">Node[102]age = 1</text>
</g>
</g>
</svg>
