<?xml version="1.0" encoding="UTF-8" standalone="no"?>
<!DOCTYPE svg PUBLIC "-//W3C//DTD SVG 1.1//EN"
 "http://www.w3.org/Graphics/SVG/1.1/DTD/svg11.dtd">
<!-- Generated by graphviz version 2.26.3 (20100126.1600)
 -->
<!-- Title: g Pages: 1 -->
<svg width="100pt" height="130pt"
 viewBox="0.00 0.00 100.00 130.00" xmlns="http://www.w3.org/2000/svg" xmlns:xlink="http://www.w3.org/1999/xlink">
<g id="graph1" class="graph" transform="scale(1 1) rotate(0) translate(4 126)">
<title>g</title>
<polygon fill="white" stroke="white" points="-4,5 -4,-126 97,-126 97,5 -4,5"/>
<!-- N41 -->
<g id="node1" class="node"><title>N41</title>
<polygon fill="#ffffff" stroke="#ffffff" stroke-width="1.5" points="16,-85 76,-85 88,-97 88,-109 76,-121 16,-121 4,-109 4,-97 16,-85"/>
<path fill="#ffffff" stroke="#ffffff" stroke-width="1.5" d="M76,-85C82,-85 88,-91 88,-97"/>
<path fill="#ffffff" stroke="#ffffff" stroke-width="1.5" d="M88,-109C88,-115 82,-121 76,-121"/>
<path fill="#ffffff" stroke="#ffffff" stroke-width="1.5" d="M16,-121C10,-121 4,-115 4,-109"/>
<path fill="#ffffff" stroke="#ffffff" stroke-width="1.5" d="M4,-97C4,-91 10,-85 16,-85"/>
<polyline fill="none" stroke="#2e3436" stroke-width="1.5" points="16,-85 76,-85 "/>
<path fill="none" stroke="#2e3436" stroke-width="1.5" d="M76,-85C82,-85 88,-91 88,-97"/>
<polyline fill="none" stroke="#2e3436" stroke-width="1.5" points="88,-97 88,-109 "/>
<path fill="none" stroke="#2e3436" stroke-width="1.5" d="M88,-109C88,-115 82,-121 76,-121"/>
<polyline fill="none" stroke="#2e3436" stroke-width="1.5" points="76,-121 16,-121 "/>
<path fill="none" stroke="#2e3436" stroke-width="1.5" d="M16,-121C10,-121 4,-115 4,-109"/>
<polyline fill="none" stroke="#2e3436" stroke-width="1.5" points="4,-109 4,-97 "/>
<path fill="none" stroke="#2e3436" stroke-width="1.5" d="M4,-97C4,-91 10,-85 16,-85"/>
<text text-anchor="start" x="12" y="-100.8" font-family="FreeSans" font-size="8.00" fill="#1c2021">Node[41]age = &#39;18&#39;</text>
</g>
<!-- N42 -->
<g id="node3" class="node"><title>N42</title>
<polygon fill="#ffffff" stroke="#ffffff" stroke-width="1.5" points="11.5,-1 80.5,-1 92.5,-13 92.5,-25 80.5,-37 11.5,-37 -0.5,-25 -0.5,-13 11.5,-1"/>
<path fill="#ffffff" stroke="#ffffff" stroke-width="1.5" d="M80.5,-1C86.5,-1 92.5,-7 92.5,-13"/>
<path fill="#ffffff" stroke="#ffffff" stroke-width="1.5" d="M92.5,-25C92.5,-31 86.5,-37 80.5,-37"/>
<path fill="#ffffff" stroke="#ffffff" stroke-width="1.5" d="M11.5,-37C5.5,-37 -0.5,-31 -0.5,-25"/>
<path fill="#ffffff" stroke="#ffffff" stroke-width="1.5" d="M-0.5,-13C-0.5,-7 5.5,-1 11.5,-1"/>
<polyline fill="none" stroke="#2e3436" stroke-width="1.5" points="11.5,-1 80.5,-1 "/>
<path fill="none" stroke="#2e3436" stroke-width="1.5" d="M80.5,-1C86.5,-1 92.5,-7 92.5,-13"/>
<polyline fill="none" stroke="#2e3436" stroke-width="1.5" points="92.5,-13 92.5,-25 "/>
<path fill="none" stroke="#2e3436" stroke-width="1.5" d="M92.5,-25C92.5,-31 86.5,-37 80.5,-37"/>
<polyline fill="none" stroke="#2e3436" stroke-width="1.5" points="80.5,-37 11.5,-37 "/>
<path fill="none" stroke="#2e3436" stroke-width="1.5" d="M11.5,-37C5.5,-37 -0.5,-31 -0.5,-25"/>
<polyline fill="none" stroke="#2e3436" stroke-width="1.5" points="-0.5,-25 -0.5,-13 "/>
<path fill="none" stroke="#2e3436" stroke-width="1.5" d="M-0.5,-13C-0.5,-7 5.5,-1 11.5,-1"/>
<text text-anchor="start" x="7.5" y="-16.8" font-family="FreeSans" font-size="8.00" fill="#1c2021">Node[42]name = &#39;joe&#39;</text>
</g>
<!-- N41&#45;&gt;N42 -->
<g id="edge2" class="edge"><title>N41&#45;&gt;N42</title>
<path fill="none" stroke="#2e3436" stroke-width="2" d="M46,-84.7733C46,-73.1053 46,-57.7874 46,-44.8699"/>
<polygon fill="#2e3436" stroke="#2e3436" points="46,-37.1912 49.3751,-44.6911 46.5,-40.9412 46.5001,-44.6912 46.0001,-44.6912 45.5001,-44.6912 45.5,-40.9412 42.6251,-44.6912 46,-37.1912 46,-37.1912"/>
<text text-anchor="middle" x="58" y="-58.8" font-family="FreeSans" font-size="8.00" fill="#2e3436">knows</text>
</g>
</g>
</svg>
