<?xml version="1.0" encoding="UTF-8" standalone="no"?>
<!DOCTYPE svg PUBLIC "-//W3C//DTD SVG 1.1//EN"
 "http://www.w3.org/Graphics/SVG/1.1/DTD/svg11.dtd">
<!-- Generated by graphviz version 2.26.3 (20100126.1600)
 -->
<!-- Title: g Pages: 1 -->
<svg width="102pt" height="130pt"
 viewBox="0.00 0.00 102.00 130.00" xmlns="http://www.w3.org/2000/svg" xmlns:xlink="http://www.w3.org/1999/xlink">
<g id="graph1" class="graph" transform="scale(1 1) rotate(0) translate(4 126)">
<title>g</title>
<polygon fill="white" stroke="white" points="-4,5 -4,-126 99,-126 99,5 -4,5"/>
<!-- N53 -->
<g id="node1" class="node"><title>N53</title>
<polygon fill="#ffffff" stroke="#ffffff" stroke-width="1.5" points="11.5,-1 82.5,-1 94.5,-13 94.5,-25 82.5,-37 11.5,-37 -0.5,-25 -0.5,-13 11.5,-1"/>
<path fill="#ffffff" stroke="#ffffff" stroke-width="1.5" d="M82.5,-1C88.5,-1 94.5,-7 94.5,-13"/>
<path fill="#ffffff" stroke="#ffffff" stroke-width="1.5" d="M94.5,-25C94.5,-31 88.5,-37 82.5,-37"/>
<path fill="#ffffff" stroke="#ffffff" stroke-width="1.5" d="M11.5,-37C5.5,-37 -0.5,-31 -0.5,-25"/>
<path fill="#ffffff" stroke="#ffffff" stroke-width="1.5" d="M-0.5,-13C-0.5,-7 5.5,-1 11.5,-1"/>
<polyline fill="none" stroke="#2e3436" stroke-width="1.5" points="11.5,-1 82.5,-1 "/>
<path fill="none" stroke="#2e3436" stroke-width="1.5" d="M82.5,-1C88.5,-1 94.5,-7 94.5,-13"/>
<polyline fill="none" stroke="#2e3436" stroke-width="1.5" points="94.5,-13 94.5,-25 "/>
<path fill="none" stroke="#2e3436" stroke-width="1.5" d="M94.5,-25C94.5,-31 88.5,-37 82.5,-37"/>
<polyline fill="none" stroke="#2e3436" stroke-width="1.5" points="82.5,-37 11.5,-37 "/>
<path fill="none" stroke="#2e3436" stroke-width="1.5" d="M11.5,-37C5.5,-37 -0.5,-31 -0.5,-25"/>
<polyline fill="none" stroke="#2e3436" stroke-width="1.5" points="-0.5,-25 -0.5,-13 "/>
<path fill="none" stroke="#2e3436" stroke-width="1.5" d="M-0.5,-13C-0.5,-7 5.5,-1 11.5,-1"/>
<text text-anchor="start" x="7.5" y="-16.8" font-family="FreeSans" font-size="8.00" fill="#1c2021">Node[53]name = &#39;you&#39;</text>
</g>
<!-- N54 -->
<g id="node2" class="node"><title>N54</title>
<polygon fill="#ffffff" stroke="#ffffff" stroke-width="1.5" points="17,-85 77,-85 89,-97 89,-109 77,-121 17,-121 5,-109 5,-97 17,-85"/>
<path fill="#ffffff" stroke="#ffffff" stroke-width="1.5" d="M77,-85C83,-85 89,-91 89,-97"/>
<path fill="#ffffff" stroke="#ffffff" stroke-width="1.5" d="M89,-109C89,-115 83,-121 77,-121"/>
<path fill="#ffffff" stroke="#ffffff" stroke-width="1.5" d="M17,-121C11,-121 5,-115 5,-109"/>
<path fill="#ffffff" stroke="#ffffff" stroke-width="1.5" d="M5,-97C5,-91 11,-85 17,-85"/>
<polyline fill="none" stroke="#2e3436" stroke-width="1.5" points="17,-85 77,-85 "/>
<path fill="none" stroke="#2e3436" stroke-width="1.5" d="M77,-85C83,-85 89,-91 89,-97"/>
<polyline fill="none" stroke="#2e3436" stroke-width="1.5" points="89,-97 89,-109 "/>
<path fill="none" stroke="#2e3436" stroke-width="1.5" d="M89,-109C89,-115 83,-121 77,-121"/>
<polyline fill="none" stroke="#2e3436" stroke-width="1.5" points="77,-121 17,-121 "/>
<path fill="none" stroke="#2e3436" stroke-width="1.5" d="M17,-121C11,-121 5,-115 5,-109"/>
<polyline fill="none" stroke="#2e3436" stroke-width="1.5" points="5,-109 5,-97 "/>
<path fill="none" stroke="#2e3436" stroke-width="1.5" d="M5,-97C5,-91 11,-85 17,-85"/>
<text text-anchor="start" x="13" y="-100.8" font-family="FreeSans" font-size="8.00" fill="#1c2021">Node[54]name = &#39;I&#39;</text>
</g>
<!-- N54&#45;&gt;N53 -->
<g id="edge2" class="edge"><title>N54&#45;&gt;N53</title>
<path fill="none" stroke="#2e3436" stroke-width="2" d="M47,-84.7733C47,-73.1053 47,-57.7874 47,-44.8699"/>
<polygon fill="#2e3436" stroke="#2e3436" points="47,-37.1912 50.3751,-44.6911 47.5,-40.9412 47.5001,-44.6912 47.0001,-44.6912 46.5001,-44.6912 46.5,-40.9412 43.6251,-44.6912 47,-37.1912 47,-37.1912"/>
<text text-anchor="middle" x="57" y="-58.8" font-family="FreeSans" font-size="8.00" fill="#2e3436">know</text>
</g>
</g>
</svg>
