<?xml version="1.0" encoding="UTF-8" standalone="no"?>
<!DOCTYPE svg PUBLIC "-//W3C//DTD SVG 1.1//EN"
 "http://www.w3.org/Graphics/SVG/1.1/DTD/svg11.dtd">
<!-- Generated by graphviz version 2.26.3 (20100126.1600)
 -->
<!-- Title: g Pages: 1 -->
<svg width="280pt" height="382pt"
 viewBox="0.00 0.00 280.00 382.00" xmlns="http://www.w3.org/2000/svg" xmlns:xlink="http://www.w3.org/1999/xlink">
<g id="graph1" class="graph" transform="scale(1 1) rotate(0) translate(4 378)">
<title>g</title>
<polygon fill="white" stroke="white" points="-4,5 -4,-378 277,-378 277,5 -4,5"/>
<!-- N94 -->
<g id="node1" class="node"><title>N94</title>
<polygon fill="#ffffff" stroke="#ffffff" stroke-width="1.5" points="144.5,-1 219.5,-1 231.5,-13 231.5,-25 219.5,-37 144.5,-37 132.5,-25 132.5,-13 144.5,-1"/>
<path fill="#ffffff" stroke="#ffffff" stroke-width="1.5" d="M219.5,-1C225.5,-1 231.5,-7 231.5,-13"/>
<path fill="#ffffff" stroke="#ffffff" stroke-width="1.5" d="M231.5,-25C231.5,-31 225.5,-37 219.5,-37"/>
<path fill="#ffffff" stroke="#ffffff" stroke-width="1.5" d="M144.5,-37C138.5,-37 132.5,-31 132.5,-25"/>
<path fill="#ffffff" stroke="#ffffff" stroke-width="1.5" d="M132.5,-13C132.5,-7 138.5,-1 144.5,-1"/>
<polyline fill="none" stroke="#2e3436" stroke-width="1.5" points="144.5,-1 219.5,-1 "/>
<path fill="none" stroke="#2e3436" stroke-width="1.5" d="M219.5,-1C225.5,-1 231.5,-7 231.5,-13"/>
<polyline fill="none" stroke="#2e3436" stroke-width="1.5" points="231.5,-13 231.5,-25 "/>
<path fill="none" stroke="#2e3436" stroke-width="1.5" d="M231.5,-25C231.5,-31 225.5,-37 219.5,-37"/>
<polyline fill="none" stroke="#2e3436" stroke-width="1.5" points="219.5,-37 144.5,-37 "/>
<path fill="none" stroke="#2e3436" stroke-width="1.5" d="M144.5,-37C138.5,-37 132.5,-31 132.5,-25"/>
<polyline fill="none" stroke="#2e3436" stroke-width="1.5" points="132.5,-25 132.5,-13 "/>
<path fill="none" stroke="#2e3436" stroke-width="1.5" d="M132.5,-13C132.5,-7 138.5,-1 144.5,-1"/>
<text text-anchor="start" x="140.5" y="-16.8" font-family="FreeSans" font-size="8.00" fill="#1c2021">Node[94]name = &#39;Sara&#39;</text>
</g>
<!-- N95 -->
<g id="node2" class="node"><title>N95</title>
<polygon fill="#ffffff" stroke="#ffffff" stroke-width="1.5" points="39,-253 119,-253 131,-265 131,-277 119,-289 39,-289 27,-277 27,-265 39,-253"/>
<path fill="#ffffff" stroke="#ffffff" stroke-width="1.5" d="M119,-253C125,-253 131,-259 131,-265"/>
<path fill="#ffffff" stroke="#ffffff" stroke-width="1.5" d="M131,-277C131,-283 125,-289 119,-289"/>
<path fill="#ffffff" stroke="#ffffff" stroke-width="1.5" d="M39,-289C33,-289 27,-283 27,-277"/>
<path fill="#ffffff" stroke="#ffffff" stroke-width="1.5" d="M27,-265C27,-259 33,-253 39,-253"/>
<polyline fill="none" stroke="#2e3436" stroke-width="1.5" points="39,-253 119,-253 "/>
<path fill="none" stroke="#2e3436" stroke-width="1.5" d="M119,-253C125,-253 131,-259 131,-265"/>
<polyline fill="none" stroke="#2e3436" stroke-width="1.5" points="131,-265 131,-277 "/>
<path fill="none" stroke="#2e3436" stroke-width="1.5" d="M131,-277C131,-283 125,-289 119,-289"/>
<polyline fill="none" stroke="#2e3436" stroke-width="1.5" points="119,-289 39,-289 "/>
<path fill="none" stroke="#2e3436" stroke-width="1.5" d="M39,-289C33,-289 27,-283 27,-277"/>
<polyline fill="none" stroke="#2e3436" stroke-width="1.5" points="27,-277 27,-265 "/>
<path fill="none" stroke="#2e3436" stroke-width="1.5" d="M27,-265C27,-259 33,-253 39,-253"/>
<text text-anchor="start" x="35" y="-268.8" font-family="FreeSans" font-size="8.00" fill="#1c2021">Node[95]name = &#39;Johan&#39;</text>
</g>
<!-- N96 -->
<g id="node4" class="node"><title>N96</title>
<polygon fill="#ffffff" stroke="#ffffff" stroke-width="1.5" points="42.5,-169 115.5,-169 127.5,-181 127.5,-193 115.5,-205 42.5,-205 30.5,-193 30.5,-181 42.5,-169"/>
<path fill="#ffffff" stroke="#ffffff" stroke-width="1.5" d="M115.5,-169C121.5,-169 127.5,-175 127.5,-181"/>
<path fill="#ffffff" stroke="#ffffff" stroke-width="1.5" d="M127.5,-193C127.5,-199 121.5,-205 115.5,-205"/>
<path fill="#ffffff" stroke="#ffffff" stroke-width="1.5" d="M42.5,-205C36.5,-205 30.5,-199 30.5,-193"/>
<path fill="#ffffff" stroke="#ffffff" stroke-width="1.5" d="M30.5,-181C30.5,-175 36.5,-169 42.5,-169"/>
<polyline fill="none" stroke="#2e3436" stroke-width="1.5" points="42.5,-169 115.5,-169 "/>
<path fill="none" stroke="#2e3436" stroke-width="1.5" d="M115.5,-169C121.5,-169 127.5,-175 127.5,-181"/>
<polyline fill="none" stroke="#2e3436" stroke-width="1.5" points="127.5,-181 127.5,-193 "/>
<path fill="none" stroke="#2e3436" stroke-width="1.5" d="M127.5,-193C127.5,-199 121.5,-205 115.5,-205"/>
<polyline fill="none" stroke="#2e3436" stroke-width="1.5" points="115.5,-205 42.5,-205 "/>
<path fill="none" stroke="#2e3436" stroke-width="1.5" d="M42.5,-205C36.5,-205 30.5,-199 30.5,-193"/>
<polyline fill="none" stroke="#2e3436" stroke-width="1.5" points="30.5,-193 30.5,-181 "/>
<path fill="none" stroke="#2e3436" stroke-width="1.5" d="M30.5,-181C30.5,-175 36.5,-169 42.5,-169"/>
<text text-anchor="start" x="38.5" y="-184.8" font-family="FreeSans" font-size="8.00" fill="#1c2021">Node[96]name = &#39;Emil&#39;</text>
</g>
<!-- N95&#45;&gt;N96 -->
<g id="edge2" class="edge"><title>N95&#45;&gt;N96</title>
<path fill="none" stroke="#2e3436" stroke-width="2" d="M79,-252.773C79,-241.105 79,-225.787 79,-212.87"/>
<polygon fill="#2e3436" stroke="#2e3436" points="79,-205.191 82.3751,-212.691 79.5,-208.941 79.5001,-212.691 79.0001,-212.691 78.5001,-212.691 78.5,-208.941 75.6251,-212.691 79,-205.191 79,-205.191"/>
<text text-anchor="middle" x="91" y="-226.8" font-family="FreeSans" font-size="8.00" fill="#2e3436">knows</text>
</g>
<!-- N99 -->
<g id="node6" class="node"><title>N99</title>
<polygon fill="#ffffff" stroke="#ffffff" stroke-width="1.5" points="11.5,-85 88.5,-85 100.5,-97 100.5,-109 88.5,-121 11.5,-121 -0.5,-109 -0.5,-97 11.5,-85"/>
<path fill="#ffffff" stroke="#ffffff" stroke-width="1.5" d="M88.5,-85C94.5,-85 100.5,-91 100.5,-97"/>
<path fill="#ffffff" stroke="#ffffff" stroke-width="1.5" d="M100.5,-109C100.5,-115 94.5,-121 88.5,-121"/>
<path fill="#ffffff" stroke="#ffffff" stroke-width="1.5" d="M11.5,-121C5.5,-121 -0.5,-115 -0.5,-109"/>
<path fill="#ffffff" stroke="#ffffff" stroke-width="1.5" d="M-0.5,-97C-0.5,-91 5.5,-85 11.5,-85"/>
<polyline fill="none" stroke="#2e3436" stroke-width="1.5" points="11.5,-85 88.5,-85 "/>
<path fill="none" stroke="#2e3436" stroke-width="1.5" d="M88.5,-85C94.5,-85 100.5,-91 100.5,-97"/>
<polyline fill="none" stroke="#2e3436" stroke-width="1.5" points="100.5,-97 100.5,-109 "/>
<path fill="none" stroke="#2e3436" stroke-width="1.5" d="M100.5,-109C100.5,-115 94.5,-121 88.5,-121"/>
<polyline fill="none" stroke="#2e3436" stroke-width="1.5" points="88.5,-121 11.5,-121 "/>
<path fill="none" stroke="#2e3436" stroke-width="1.5" d="M11.5,-121C5.5,-121 -0.5,-115 -0.5,-109"/>
<polyline fill="none" stroke="#2e3436" stroke-width="1.5" points="-0.5,-109 -0.5,-97 "/>
<path fill="none" stroke="#2e3436" stroke-width="1.5" d="M-0.5,-97C-0.5,-91 5.5,-85 11.5,-85"/>
<text text-anchor="start" x="7.5" y="-100.8" font-family="FreeSans" font-size="8.00" fill="#1c2021">Node[99]name = &#39;Peter&#39;</text>
</g>
<!-- N96&#45;&gt;N99 -->
<g id="edge4" class="edge"><title>N96&#45;&gt;N99</title>
<path fill="none" stroke="#2e3436" stroke-width="2" d="M72.7074,-168.773C68.6412,-156.995 63.291,-141.498 58.8053,-128.505"/>
<polygon fill="#2e3436" stroke="#2e3436" points="56.2803,-121.191 61.9181,-127.179 57.9767,-124.573 59.2005,-128.117 58.7279,-128.281 58.2553,-128.444 57.0315,-124.899 55.5377,-129.382 56.2803,-121.191 56.2803,-121.191"/>
<text text-anchor="middle" x="78" y="-142.8" font-family="FreeSans" font-size="8.00" fill="#2e3436">knows</text>
</g>
<!-- N98 -->
<g id="node8" class="node"><title>N98</title>
<polygon fill="#ffffff" stroke="#ffffff" stroke-width="1.5" points="141,-85 223,-85 235,-97 235,-109 223,-121 141,-121 129,-109 129,-97 141,-85"/>
<path fill="#ffffff" stroke="#ffffff" stroke-width="1.5" d="M223,-85C229,-85 235,-91 235,-97"/>
<path fill="#ffffff" stroke="#ffffff" stroke-width="1.5" d="M235,-109C235,-115 229,-121 223,-121"/>
<path fill="#ffffff" stroke="#ffffff" stroke-width="1.5" d="M141,-121C135,-121 129,-115 129,-109"/>
<path fill="#ffffff" stroke="#ffffff" stroke-width="1.5" d="M129,-97C129,-91 135,-85 141,-85"/>
<polyline fill="none" stroke="#2e3436" stroke-width="1.5" points="141,-85 223,-85 "/>
<path fill="none" stroke="#2e3436" stroke-width="1.5" d="M223,-85C229,-85 235,-91 235,-97"/>
<polyline fill="none" stroke="#2e3436" stroke-width="1.5" points="235,-97 235,-109 "/>
<path fill="none" stroke="#2e3436" stroke-width="1.5" d="M235,-109C235,-115 229,-121 223,-121"/>
<polyline fill="none" stroke="#2e3436" stroke-width="1.5" points="223,-121 141,-121 "/>
<path fill="none" stroke="#2e3436" stroke-width="1.5" d="M141,-121C135,-121 129,-115 129,-109"/>
<polyline fill="none" stroke="#2e3436" stroke-width="1.5" points="129,-109 129,-97 "/>
<path fill="none" stroke="#2e3436" stroke-width="1.5" d="M129,-97C129,-91 135,-85 141,-85"/>
<text text-anchor="start" x="137" y="-100.8" font-family="FreeSans" font-size="8.00" fill="#1c2021">Node[98]name = &#39;Tobias&#39;</text>
</g>
<!-- N96&#45;&gt;N98 -->
<g id="edge6" class="edge"><title>N96&#45;&gt;N98</title>
<path fill="none" stroke="#2e3436" stroke-width="2" d="M101.096,-168.98C116.469,-156.443 137.098,-139.619 153.677,-126.098"/>
<polygon fill="#2e3436" stroke="#2e3436" points="159.585,-121.28 155.906,-128.636 156.995,-124.038 154.089,-126.408 153.773,-126.02 153.457,-125.633 156.363,-123.263 151.64,-123.405 159.585,-121.28 159.585,-121.28"/>
<text text-anchor="middle" x="146" y="-142.8" font-family="FreeSans" font-size="8.00" fill="#2e3436">knows</text>
</g>
<!-- N98&#45;&gt;N94 -->
<g id="edge12" class="edge"><title>N98&#45;&gt;N94</title>
<path fill="none" stroke="#4e9a06" stroke-width="2" d="M182,-84.7733C182,-73.1053 182,-57.7874 182,-44.8699"/>
<polygon fill="#4e9a06" stroke="#4e9a06" points="182,-37.1912 185.375,-44.6911 182.5,-40.9412 182.5,-44.6912 182,-44.6912 181.5,-44.6912 181.5,-40.9412 178.625,-44.6912 182,-37.1912 182,-37.1912"/>
<text text-anchor="middle" x="191.5" y="-58.8" font-family="FreeSans" font-size="8.00" fill="#4e9a06">loves</text>
</g>
<!-- N97 -->
<g id="node9" class="node"><title>N97</title>
<polygon fill="#ffffff" stroke="#ffffff" stroke-width="1.5" points="129.5,-337 204.5,-337 216.5,-349 216.5,-361 204.5,-373 129.5,-373 117.5,-361 117.5,-349 129.5,-337"/>
<path fill="#ffffff" stroke="#ffffff" stroke-width="1.5" d="M204.5,-337C210.5,-337 216.5,-343 216.5,-349"/>
<path fill="#ffffff" stroke="#ffffff" stroke-width="1.5" d="M216.5,-361C216.5,-367 210.5,-373 204.5,-373"/>
<path fill="#ffffff" stroke="#ffffff" stroke-width="1.5" d="M129.5,-373C123.5,-373 117.5,-367 117.5,-361"/>
<path fill="#ffffff" stroke="#ffffff" stroke-width="1.5" d="M117.5,-349C117.5,-343 123.5,-337 129.5,-337"/>
<polyline fill="none" stroke="#2e3436" stroke-width="1.5" points="129.5,-337 204.5,-337 "/>
<path fill="none" stroke="#2e3436" stroke-width="1.5" d="M204.5,-337C210.5,-337 216.5,-343 216.5,-349"/>
<polyline fill="none" stroke="#2e3436" stroke-width="1.5" points="216.5,-349 216.5,-361 "/>
<path fill="none" stroke="#2e3436" stroke-width="1.5" d="M216.5,-361C216.5,-367 210.5,-373 204.5,-373"/>
<polyline fill="none" stroke="#2e3436" stroke-width="1.5" points="204.5,-373 129.5,-373 "/>
<path fill="none" stroke="#2e3436" stroke-width="1.5" d="M129.5,-373C123.5,-373 117.5,-367 117.5,-361"/>
<polyline fill="none" stroke="#2e3436" stroke-width="1.5" points="117.5,-361 117.5,-349 "/>
<path fill="none" stroke="#2e3436" stroke-width="1.5" d="M117.5,-349C117.5,-343 123.5,-337 129.5,-337"/>
<text text-anchor="start" x="125.5" y="-352.8" font-family="FreeSans" font-size="8.00" fill="#1c2021">Node[97]name = &#39;Root&#39;</text>
</g>
<!-- N97&#45;&gt;N95 -->
<g id="edge10" class="edge"><title>N97&#45;&gt;N95</title>
<path fill="none" stroke="#2e3436" stroke-width="2" d="M147.905,-336.773C134.99,-324.445 117.806,-308.042 103.829,-294.701"/>
<polygon fill="#2e3436" stroke="#2e3436" points="98.0574,-289.191 105.813,-291.928 101.115,-291.419 103.828,-294.008 103.483,-294.37 103.137,-294.731 100.425,-292.142 101.152,-296.811 98.0574,-289.191 98.0574,-289.191"/>
<text text-anchor="middle" x="138" y="-310.8" font-family="FreeSans" font-size="8.00" fill="#2e3436">knows</text>
</g>
<!-- N100 -->
<g id="node11" class="node"><title>N100</title>
<polygon fill="#ffffff" stroke="#ffffff" stroke-width="1.5" points="172,-253 260,-253 272,-265 272,-277 260,-289 172,-289 160,-277 160,-265 172,-253"/>
<path fill="#ffffff" stroke="#ffffff" stroke-width="1.5" d="M260,-253C266,-253 272,-259 272,-265"/>
<path fill="#ffffff" stroke="#ffffff" stroke-width="1.5" d="M272,-277C272,-283 266,-289 260,-289"/>
<path fill="#ffffff" stroke="#ffffff" stroke-width="1.5" d="M172,-289C166,-289 160,-283 160,-277"/>
<path fill="#ffffff" stroke="#ffffff" stroke-width="1.5" d="M160,-265C160,-259 166,-253 172,-253"/>
<polyline fill="none" stroke="#2e3436" stroke-width="1.5" points="172,-253 260,-253 "/>
<path fill="none" stroke="#2e3436" stroke-width="1.5" d="M260,-253C266,-253 272,-259 272,-265"/>
<polyline fill="none" stroke="#2e3436" stroke-width="1.5" points="272,-265 272,-277 "/>
<path fill="none" stroke="#2e3436" stroke-width="1.5" d="M272,-277C272,-283 266,-289 260,-289"/>
<polyline fill="none" stroke="#2e3436" stroke-width="1.5" points="260,-289 172,-289 "/>
<path fill="none" stroke="#2e3436" stroke-width="1.5" d="M172,-289C166,-289 160,-283 160,-277"/>
<polyline fill="none" stroke="#2e3436" stroke-width="1.5" points="160,-277 160,-265 "/>
<path fill="none" stroke="#2e3436" stroke-width="1.5" d="M160,-265C160,-259 166,-253 172,-253"/>
<text text-anchor="start" x="168" y="-268.8" font-family="FreeSans" font-size="8.00" fill="#1c2021">Node[100]name = &#39;Mattias&#39;</text>
</g>
<!-- N97&#45;&gt;N100 -->
<g id="edge8" class="edge"><title>N97&#45;&gt;N100</title>
<path fill="none" stroke="#2e3436" stroke-width="2" d="M177.632,-336.773C184.631,-324.775 193.881,-308.917 201.546,-295.779"/>
<polygon fill="#2e3436" stroke="#2e3436" points="205.388,-289.191 204.525,-297.37 203.931,-292.682 202.041,-295.921 201.609,-295.67 201.178,-295.418 203.067,-292.178 198.694,-293.969 205.388,-289.191 205.388,-289.191"/>
<text text-anchor="middle" x="205" y="-310.8" font-family="FreeSans" font-size="8.00" fill="#2e3436">knows</text>
</g>
</g>
</svg>
