<?xml version="1.0" encoding="UTF-8" standalone="no"?>
<!DOCTYPE svg PUBLIC "-//W3C//DTD SVG 1.1//EN"
 "http://www.w3.org/Graphics/SVG/1.1/DTD/svg11.dtd">
<!-- Generated by graphviz version 2.26.3 (20100126.1600)
 -->
<!-- Title: g Pages: 1 -->
<svg width="179pt" height="46pt"
 viewBox="0.00 0.00 179.00 46.00" xmlns="http://www.w3.org/2000/svg" xmlns:xlink="http://www.w3.org/1999/xlink">
<g id="graph1" class="graph" transform="scale(1 1) rotate(0) translate(4 42)">
<title>g</title>
<polygon fill="white" stroke="white" points="-4,5 -4,-42 176,-42 176,5 -4,5"/>
<!-- N5 -->
<g id="node1" class="node"><title>N5</title>
<polygon fill="#ffffff" stroke="#ffffff" stroke-width="1.5" points="12,-1 56,-1 68,-13 68,-25 56,-37 12,-37 0,-25 0,-13 12,-1"/>
<path fill="#ffffff" stroke="#ffffff" stroke-width="1.5" d="M56,-1C62,-1 68,-7 68,-13"/>
<path fill="#ffffff" stroke="#ffffff" stroke-width="1.5" d="M68,-25C68,-31 62,-37 56,-37"/>
<path fill="#ffffff" stroke="#ffffff" stroke-width="1.5" d="M12,-37C6,-37 0,-31 0,-25"/>
<path fill="#ffffff" stroke="#ffffff" stroke-width="1.5" d="M0,-13C0,-7 6,-1 12,-1"/>
<polyline fill="none" stroke="#2e3436" stroke-width="1.5" points="12,-1 56,-1 "/>
<path fill="none" stroke="#2e3436" stroke-width="1.5" d="M56,-1C62,-1 68,-7 68,-13"/>
<polyline fill="none" stroke="#2e3436" stroke-width="1.5" points="68,-13 68,-25 "/>
<path fill="none" stroke="#2e3436" stroke-width="1.5" d="M68,-25C68,-31 62,-37 56,-37"/>
<polyline fill="none" stroke="#2e3436" stroke-width="1.5" points="56,-37 12,-37 "/>
<path fill="none" stroke="#2e3436" stroke-width="1.5" d="M12,-37C6,-37 0,-31 0,-25"/>
<polyline fill="none" stroke="#2e3436" stroke-width="1.5" points="0,-25 0,-13 "/>
<path fill="none" stroke="#2e3436" stroke-width="1.5" d="M0,-13C0,-7 6,-1 12,-1"/>
<text text-anchor="middle" x="34" y="-25.8" font-family="FreeSans" font-size="8.00" fill="#1c2021">Node[5]</text>
<polyline fill="none" stroke="#2e3436" stroke-width="1.5" points="0,-19 68,-19 "/>
<text text-anchor="start" x="8" y="-7.8" font-family="FreeSans" font-size="8.00" fill="#1c2021">name = &#39;Juliet&#39;</text>
</g>
<!-- N6 -->
<g id="node2" class="node"><title>N6</title>
<polygon fill="#ffffff" stroke="#ffffff" stroke-width="1.5" points="108.5,-1 159.5,-1 171.5,-13 171.5,-25 159.5,-37 108.5,-37 96.5,-25 96.5,-13 108.5,-1"/>
<path fill="#ffffff" stroke="#ffffff" stroke-width="1.5" d="M159.5,-1C165.5,-1 171.5,-7 171.5,-13"/>
<path fill="#ffffff" stroke="#ffffff" stroke-width="1.5" d="M171.5,-25C171.5,-31 165.5,-37 159.5,-37"/>
<path fill="#ffffff" stroke="#ffffff" stroke-width="1.5" d="M108.5,-37C102.5,-37 96.5,-31 96.5,-25"/>
<path fill="#ffffff" stroke="#ffffff" stroke-width="1.5" d="M96.5,-13C96.5,-7 102.5,-1 108.5,-1"/>
<polyline fill="none" stroke="#2e3436" stroke-width="1.5" points="108.5,-1 159.5,-1 "/>
<path fill="none" stroke="#2e3436" stroke-width="1.5" d="M159.5,-1C165.5,-1 171.5,-7 171.5,-13"/>
<polyline fill="none" stroke="#2e3436" stroke-width="1.5" points="171.5,-13 171.5,-25 "/>
<path fill="none" stroke="#2e3436" stroke-width="1.5" d="M171.5,-25C171.5,-31 165.5,-37 159.5,-37"/>
<polyline fill="none" stroke="#2e3436" stroke-width="1.5" points="159.5,-37 108.5,-37 "/>
<path fill="none" stroke="#2e3436" stroke-width="1.5" d="M108.5,-37C102.5,-37 96.5,-31 96.5,-25"/>
<polyline fill="none" stroke="#2e3436" stroke-width="1.5" points="96.5,-25 96.5,-13 "/>
<path fill="none" stroke="#2e3436" stroke-width="1.5" d="M96.5,-13C96.5,-7 102.5,-1 108.5,-1"/>
<text text-anchor="middle" x="134" y="-25.8" font-family="FreeSans" font-size="8.00" fill="#1c2021">Node[6]</text>
<polyline fill="none" stroke="#2e3436" stroke-width="1.5" points="96.5,-19 171.5,-19 "/>
<text text-anchor="start" x="104.5" y="-7.8" font-family="FreeSans" font-size="8.00" fill="#1c2021">name = &#39;Romeo&#39;</text>
</g>
</g>
</svg>
