<?xml version="1.0" encoding="UTF-8" standalone="no"?>
<!DOCTYPE svg PUBLIC "-//W3C//DTD SVG 1.1//EN"
 "http://www.w3.org/Graphics/SVG/1.1/DTD/svg11.dtd">
<!-- Generated by graphviz version 2.26.3 (20100126.1600)
 -->
<!-- Title: g Pages: 1 -->
<svg width="318pt" height="130pt"
 viewBox="0.00 0.00 318.00 130.00" xmlns="http://www.w3.org/2000/svg" xmlns:xlink="http://www.w3.org/1999/xlink">
<g id="graph1" class="graph" transform="scale(1 1) rotate(0) translate(4 126)">
<title>g</title>
<polygon fill="white" stroke="white" points="-4,5 -4,-126 315,-126 315,5 -4,5"/>
<!-- N227 -->
<g id="node1" class="node"><title>N227</title>
<polygon fill="#ffffff" stroke="#ffffff" stroke-width="1.5" points="12,-1 92,-1 104,-13 104,-25 92,-37 12,-37 0,-25 0,-13 12,-1"/>
<path fill="#ffffff" stroke="#ffffff" stroke-width="1.5" d="M92,-1C98,-1 104,-7 104,-13"/>
<path fill="#ffffff" stroke="#ffffff" stroke-width="1.5" d="M104,-25C104,-31 98,-37 92,-37"/>
<path fill="#ffffff" stroke="#ffffff" stroke-width="1.5" d="M12,-37C6,-37 0,-31 0,-25"/>
<path fill="#ffffff" stroke="#ffffff" stroke-width="1.5" d="M0,-13C0,-7 6,-1 12,-1"/>
<polyline fill="none" stroke="#2e3436" stroke-width="1.5" points="12,-1 92,-1 "/>
<path fill="none" stroke="#2e3436" stroke-width="1.5" d="M92,-1C98,-1 104,-7 104,-13"/>
<polyline fill="none" stroke="#2e3436" stroke-width="1.5" points="104,-13 104,-25 "/>
<path fill="none" stroke="#2e3436" stroke-width="1.5" d="M104,-25C104,-31 98,-37 92,-37"/>
<polyline fill="none" stroke="#2e3436" stroke-width="1.5" points="92,-37 12,-37 "/>
<path fill="none" stroke="#2e3436" stroke-width="1.5" d="M12,-37C6,-37 0,-31 0,-25"/>
<polyline fill="none" stroke="#2e3436" stroke-width="1.5" points="0,-25 0,-13 "/>
<path fill="none" stroke="#2e3436" stroke-width="1.5" d="M0,-13C0,-7 6,-1 12,-1"/>
<text text-anchor="start" x="8" y="-16.8" font-family="FreeSans" font-size="8.00" fill="#1c2021">Node[227]name = &#39;John&#39;</text>
</g>
<!-- N228 -->
<g id="node2" class="node"><title>N228</title>
<polygon fill="#ffffff" stroke="#ffffff" stroke-width="1.5" points="23.5,-85 80.5,-85 92.5,-97 92.5,-109 80.5,-121 23.5,-121 11.5,-109 11.5,-97 23.5,-85"/>
<path fill="#ffffff" stroke="#ffffff" stroke-width="1.5" d="M80.5,-85C86.5,-85 92.5,-91 92.5,-97"/>
<path fill="#ffffff" stroke="#ffffff" stroke-width="1.5" d="M92.5,-109C92.5,-115 86.5,-121 80.5,-121"/>
<path fill="#ffffff" stroke="#ffffff" stroke-width="1.5" d="M23.5,-121C17.5,-121 11.5,-115 11.5,-109"/>
<path fill="#ffffff" stroke="#ffffff" stroke-width="1.5" d="M11.5,-97C11.5,-91 17.5,-85 23.5,-85"/>
<polyline fill="none" stroke="#2e3436" stroke-width="1.5" points="23.5,-85 80.5,-85 "/>
<path fill="none" stroke="#2e3436" stroke-width="1.5" d="M80.5,-85C86.5,-85 92.5,-91 92.5,-97"/>
<polyline fill="none" stroke="#2e3436" stroke-width="1.5" points="92.5,-97 92.5,-109 "/>
<path fill="none" stroke="#2e3436" stroke-width="1.5" d="M92.5,-109C92.5,-115 86.5,-121 80.5,-121"/>
<polyline fill="none" stroke="#2e3436" stroke-width="1.5" points="80.5,-121 23.5,-121 "/>
<path fill="none" stroke="#2e3436" stroke-width="1.5" d="M23.5,-121C17.5,-121 11.5,-115 11.5,-109"/>
<polyline fill="none" stroke="#2e3436" stroke-width="1.5" points="11.5,-109 11.5,-97 "/>
<path fill="none" stroke="#2e3436" stroke-width="1.5" d="M11.5,-97C11.5,-91 17.5,-85 23.5,-85"/>
<text text-anchor="start" x="19.5" y="-100.8" font-family="FreeSans" font-size="8.00" fill="#1c2021">Node[228]age = 1</text>
</g>
<!-- N228&#45;&gt;N227 -->
<g id="edge2" class="edge"><title>N228&#45;&gt;N227</title>
<path fill="none" stroke="#2e3436" stroke-width="2" d="M52,-84.7733C52,-73.1053 52,-57.7874 52,-44.8699"/>
<polygon fill="#2e3436" stroke="#2e3436" points="52,-37.1912 55.3751,-44.6911 52.5,-40.9412 52.5001,-44.6912 52.0001,-44.6912 51.5001,-44.6912 51.5,-40.9412 48.6251,-44.6912 52,-37.1912 52,-37.1912"/>
<text text-anchor="middle" x="64" y="-58.8" font-family="FreeSans" font-size="8.00" fill="#2e3436">knows</text>
</g>
<!-- N229 -->
<g id="node4" class="node"><title>N229</title>
<polygon fill="#ffffff" stroke="#ffffff" stroke-width="1.5" points="132.5,-85 189.5,-85 201.5,-97 201.5,-109 189.5,-121 132.5,-121 120.5,-109 120.5,-97 132.5,-85"/>
<path fill="#ffffff" stroke="#ffffff" stroke-width="1.5" d="M189.5,-85C195.5,-85 201.5,-91 201.5,-97"/>
<path fill="#ffffff" stroke="#ffffff" stroke-width="1.5" d="M201.5,-109C201.5,-115 195.5,-121 189.5,-121"/>
<path fill="#ffffff" stroke="#ffffff" stroke-width="1.5" d="M132.5,-121C126.5,-121 120.5,-115 120.5,-109"/>
<path fill="#ffffff" stroke="#ffffff" stroke-width="1.5" d="M120.5,-97C120.5,-91 126.5,-85 132.5,-85"/>
<polyline fill="none" stroke="#2e3436" stroke-width="1.5" points="132.5,-85 189.5,-85 "/>
<path fill="none" stroke="#2e3436" stroke-width="1.5" d="M189.5,-85C195.5,-85 201.5,-91 201.5,-97"/>
<polyline fill="none" stroke="#2e3436" stroke-width="1.5" points="201.5,-97 201.5,-109 "/>
<path fill="none" stroke="#2e3436" stroke-width="1.5" d="M201.5,-109C201.5,-115 195.5,-121 189.5,-121"/>
<polyline fill="none" stroke="#2e3436" stroke-width="1.5" points="189.5,-121 132.5,-121 "/>
<path fill="none" stroke="#2e3436" stroke-width="1.5" d="M132.5,-121C126.5,-121 120.5,-115 120.5,-109"/>
<polyline fill="none" stroke="#2e3436" stroke-width="1.5" points="120.5,-109 120.5,-97 "/>
<path fill="none" stroke="#2e3436" stroke-width="1.5" d="M120.5,-97C120.5,-91 126.5,-85 132.5,-85"/>
<text text-anchor="start" x="128.5" y="-100.8" font-family="FreeSans" font-size="8.00" fill="#1c2021">Node[229]age = 1</text>
</g>
<!-- N230 -->
<g id="node5" class="node"><title>N230</title>
<polygon fill="#ffffff" stroke="#ffffff" stroke-width="1.5" points="241.5,-85 298.5,-85 310.5,-97 310.5,-109 298.5,-121 241.5,-121 229.5,-109 229.5,-97 241.5,-85"/>
<path fill="#ffffff" stroke="#ffffff" stroke-width="1.5" d="M298.5,-85C304.5,-85 310.5,-91 310.5,-97"/>
<path fill="#ffffff" stroke="#ffffff" stroke-width="1.5" d="M310.5,-109C310.5,-115 304.5,-121 298.5,-121"/>
<path fill="#ffffff" stroke="#ffffff" stroke-width="1.5" d="M241.5,-121C235.5,-121 229.5,-115 229.5,-109"/>
<path fill="#ffffff" stroke="#ffffff" stroke-width="1.5" d="M229.5,-97C229.5,-91 235.5,-85 241.5,-85"/>
<polyline fill="none" stroke="#2e3436" stroke-width="1.5" points="241.5,-85 298.5,-85 "/>
<path fill="none" stroke="#2e3436" stroke-width="1.5" d="M298.5,-85C304.5,-85 310.5,-91 310.5,-97"/>
<polyline fill="none" stroke="#2e3436" stroke-width="1.5" points="310.5,-97 310.5,-109 "/>
<path fill="none" stroke="#2e3436" stroke-width="1.5" d="M310.5,-109C310.5,-115 304.5,-121 298.5,-121"/>
<polyline fill="none" stroke="#2e3436" stroke-width="1.5" points="298.5,-121 241.5,-121 "/>
<path fill="none" stroke="#2e3436" stroke-width="1.5" d="M241.5,-121C235.5,-121 229.5,-115 229.5,-109"/>
<polyline fill="none" stroke="#2e3436" stroke-width="1.5" points="229.5,-109 229.5,-97 "/>
<path fill="none" stroke="#2e3436" stroke-width="1.5" d="M229.5,-97C229.5,-91 235.5,-85 241.5,-85"/>
<text text-anchor="start" x="237.5" y="-100.8" font-family="FreeSans" font-size="8.00" fill="#1c2021">Node[230]age = 1</text>
</g>
</g>
</svg>
