<?xml version="1.0" encoding="UTF-8" standalone="no"?>
<!DOCTYPE svg PUBLIC "-//W3C//DTD SVG 1.1//EN"
 "http://www.w3.org/Graphics/SVG/1.1/DTD/svg11.dtd">
<!-- Generated by graphviz version 2.26.3 (20100126.1600)
 -->
<!-- Title: g Pages: 1 -->
<svg width="430pt" height="46pt"
 viewBox="0.00 0.00 430.00 46.00" xmlns="http://www.w3.org/2000/svg" xmlns:xlink="http://www.w3.org/1999/xlink">
<g id="graph1" class="graph" transform="scale(1 1) rotate(0) translate(4 42)">
<title>g</title>
<polygon fill="white" stroke="white" points="-4,5 -4,-42 427,-42 427,5 -4,5"/>
<!-- N45 -->
<g id="node1" class="node"><title>N45</title>
<polygon fill="#ffffff" stroke="#ffffff" stroke-width="1.5" points="11.5,-1 100.5,-1 112.5,-13 112.5,-25 100.5,-37 11.5,-37 -0.5,-25 -0.5,-13 11.5,-1"/>
<path fill="#ffffff" stroke="#ffffff" stroke-width="1.5" d="M100.5,-1C106.5,-1 112.5,-7 112.5,-13"/>
<path fill="#ffffff" stroke="#ffffff" stroke-width="1.5" d="M112.5,-25C112.5,-31 106.5,-37 100.5,-37"/>
<path fill="#ffffff" stroke="#ffffff" stroke-width="1.5" d="M11.5,-37C5.5,-37 -0.5,-31 -0.5,-25"/>
<path fill="#ffffff" stroke="#ffffff" stroke-width="1.5" d="M-0.5,-13C-0.5,-7 5.5,-1 11.5,-1"/>
<polyline fill="none" stroke="#2e3436" stroke-width="1.5" points="11.5,-1 100.5,-1 "/>
<path fill="none" stroke="#2e3436" stroke-width="1.5" d="M100.5,-1C106.5,-1 112.5,-7 112.5,-13"/>
<polyline fill="none" stroke="#2e3436" stroke-width="1.5" points="112.5,-13 112.5,-25 "/>
<path fill="none" stroke="#2e3436" stroke-width="1.5" d="M112.5,-25C112.5,-31 106.5,-37 100.5,-37"/>
<polyline fill="none" stroke="#2e3436" stroke-width="1.5" points="100.5,-37 11.5,-37 "/>
<path fill="none" stroke="#2e3436" stroke-width="1.5" d="M11.5,-37C5.5,-37 -0.5,-31 -0.5,-25"/>
<polyline fill="none" stroke="#2e3436" stroke-width="1.5" points="-0.5,-25 -0.5,-13 "/>
<path fill="none" stroke="#2e3436" stroke-width="1.5" d="M-0.5,-13C-0.5,-7 5.5,-1 11.5,-1"/>
<text text-anchor="middle" x="56" y="-25.8" font-family="FreeSans" font-size="8.00" fill="#1c2021">Node[45]: Person, Director</text>
<polyline fill="none" stroke="#2e3436" stroke-width="1.5" points="-0.5,-19 112.5,-19 "/>
<text text-anchor="start" x="7.5" y="-7.8" font-family="FreeSans" font-size="8.00" fill="#1c2021">name = &#39;Steven Spielberg&#39;</text>
</g>
<!-- N46 -->
<g id="node2" class="node"><title>N46</title>
<polygon fill="#ffffff" stroke="#ffffff" stroke-width="1.5" points="152.5,-1 265.5,-1 277.5,-13 277.5,-25 265.5,-37 152.5,-37 140.5,-25 140.5,-13 152.5,-1"/>
<path fill="#ffffff" stroke="#ffffff" stroke-width="1.5" d="M265.5,-1C271.5,-1 277.5,-7 277.5,-13"/>
<path fill="#ffffff" stroke="#ffffff" stroke-width="1.5" d="M277.5,-25C277.5,-31 271.5,-37 265.5,-37"/>
<path fill="#ffffff" stroke="#ffffff" stroke-width="1.5" d="M152.5,-37C146.5,-37 140.5,-31 140.5,-25"/>
<path fill="#ffffff" stroke="#ffffff" stroke-width="1.5" d="M140.5,-13C140.5,-7 146.5,-1 152.5,-1"/>
<polyline fill="none" stroke="#2e3436" stroke-width="1.5" points="152.5,-1 265.5,-1 "/>
<path fill="none" stroke="#2e3436" stroke-width="1.5" d="M265.5,-1C271.5,-1 277.5,-7 277.5,-13"/>
<polyline fill="none" stroke="#2e3436" stroke-width="1.5" points="277.5,-13 277.5,-25 "/>
<path fill="none" stroke="#2e3436" stroke-width="1.5" d="M277.5,-25C277.5,-31 271.5,-37 265.5,-37"/>
<polyline fill="none" stroke="#2e3436" stroke-width="1.5" points="265.5,-37 152.5,-37 "/>
<path fill="none" stroke="#2e3436" stroke-width="1.5" d="M152.5,-37C146.5,-37 140.5,-31 140.5,-25"/>
<polyline fill="none" stroke="#2e3436" stroke-width="1.5" points="140.5,-25 140.5,-13 "/>
<path fill="none" stroke="#2e3436" stroke-width="1.5" d="M140.5,-13C140.5,-7 146.5,-1 152.5,-1"/>
<text text-anchor="middle" x="209" y="-25.8" font-family="FreeSans" font-size="8.00" fill="#1c2021">Node[46]: Person, Actor, Director</text>
<polyline fill="none" stroke="#2e3436" stroke-width="1.5" points="140.5,-19 277.5,-19 "/>
<text text-anchor="start" x="148.5" y="-7.8" font-family="FreeSans" font-size="8.00" fill="#1c2021">name = &#39;Clint Eastwood&#39;</text>
</g>
<!-- N47 -->
<g id="node3" class="node"><title>N47</title>
<polygon fill="#ffffff" stroke="#ffffff" stroke-width="1.5" points="318,-1 410,-1 422,-13 422,-25 410,-37 318,-37 306,-25 306,-13 318,-1"/>
<path fill="#ffffff" stroke="#ffffff" stroke-width="1.5" d="M410,-1C416,-1 422,-7 422,-13"/>
<path fill="#ffffff" stroke="#ffffff" stroke-width="1.5" d="M422,-25C422,-31 416,-37 410,-37"/>
<path fill="#ffffff" stroke="#ffffff" stroke-width="1.5" d="M318,-37C312,-37 306,-31 306,-25"/>
<path fill="#ffffff" stroke="#ffffff" stroke-width="1.5" d="M306,-13C306,-7 312,-1 318,-1"/>
<polyline fill="none" stroke="#2e3436" stroke-width="1.5" points="318,-1 410,-1 "/>
<path fill="none" stroke="#2e3436" stroke-width="1.5" d="M410,-1C416,-1 422,-7 422,-13"/>
<polyline fill="none" stroke="#2e3436" stroke-width="1.5" points="422,-13 422,-25 "/>
<path fill="none" stroke="#2e3436" stroke-width="1.5" d="M422,-25C422,-31 416,-37 410,-37"/>
<polyline fill="none" stroke="#2e3436" stroke-width="1.5" points="410,-37 318,-37 "/>
<path fill="none" stroke="#2e3436" stroke-width="1.5" d="M318,-37C312,-37 306,-31 306,-25"/>
<polyline fill="none" stroke="#2e3436" stroke-width="1.5" points="306,-25 306,-13 "/>
<path fill="none" stroke="#2e3436" stroke-width="1.5" d="M306,-13C306,-7 312,-1 318,-1"/>
<text text-anchor="middle" x="364" y="-25.8" font-family="FreeSans" font-size="8.00" fill="#1c2021">Node[47]: Person, Actor</text>
<polyline fill="none" stroke="#2e3436" stroke-width="1.5" points="306,-19 422,-19 "/>
<text text-anchor="start" x="314" y="-7.8" font-family="FreeSans" font-size="8.00" fill="#1c2021">name = &#39;Donald Sutherland&#39;</text>
</g>
</g>
</svg>
