<?xml version="1.0" encoding="UTF-8" standalone="no"?>
<!DOCTYPE svg PUBLIC "-//W3C//DTD SVG 1.1//EN"
 "http://www.w3.org/Graphics/SVG/1.1/DTD/svg11.dtd">
<!-- Generated by graphviz version 2.26.3 (20100126.1600)
 -->
<!-- Title: g Pages: 1 -->
<svg width="233pt" height="130pt"
 viewBox="0.00 0.00 233.00 130.00" xmlns="http://www.w3.org/2000/svg" xmlns:xlink="http://www.w3.org/1999/xlink">
<g id="graph1" class="graph" transform="scale(1 1) rotate(0) translate(4 126)">
<title>g</title>
<polygon fill="white" stroke="white" points="-4,5 -4,-126 230,-126 230,5 -4,5"/>
<!-- N160 -->
<g id="node1" class="node"><title>N160</title>
<polygon fill="#ffffff" stroke="#ffffff" stroke-width="1.5" points="11.5,-1 86.5,-1 98.5,-13 98.5,-25 86.5,-37 11.5,-37 -0.5,-25 -0.5,-13 11.5,-1"/>
<path fill="#ffffff" stroke="#ffffff" stroke-width="1.5" d="M86.5,-1C92.5,-1 98.5,-7 98.5,-13"/>
<path fill="#ffffff" stroke="#ffffff" stroke-width="1.5" d="M98.5,-25C98.5,-31 92.5,-37 86.5,-37"/>
<path fill="#ffffff" stroke="#ffffff" stroke-width="1.5" d="M11.5,-37C5.5,-37 -0.5,-31 -0.5,-25"/>
<path fill="#ffffff" stroke="#ffffff" stroke-width="1.5" d="M-0.5,-13C-0.5,-7 5.5,-1 11.5,-1"/>
<polyline fill="none" stroke="#2e3436" stroke-width="1.5" points="11.5,-1 86.5,-1 "/>
<path fill="none" stroke="#2e3436" stroke-width="1.5" d="M86.5,-1C92.5,-1 98.5,-7 98.5,-13"/>
<polyline fill="none" stroke="#2e3436" stroke-width="1.5" points="98.5,-13 98.5,-25 "/>
<path fill="none" stroke="#2e3436" stroke-width="1.5" d="M98.5,-25C98.5,-31 92.5,-37 86.5,-37"/>
<polyline fill="none" stroke="#2e3436" stroke-width="1.5" points="86.5,-37 11.5,-37 "/>
<path fill="none" stroke="#2e3436" stroke-width="1.5" d="M11.5,-37C5.5,-37 -0.5,-31 -0.5,-25"/>
<polyline fill="none" stroke="#2e3436" stroke-width="1.5" points="-0.5,-25 -0.5,-13 "/>
<path fill="none" stroke="#2e3436" stroke-width="1.5" d="M-0.5,-13C-0.5,-7 5.5,-1 11.5,-1"/>
<text text-anchor="start" x="7.5" y="-16.8" font-family="FreeSans" font-size="8.00" fill="#1c2021">Node[160]name = &#39;you&#39;</text>
</g>
<!-- N161 -->
<g id="node2" class="node"><title>N161</title>
<polygon fill="#ffffff" stroke="#ffffff" stroke-width="1.5" points="138.5,-1 213.5,-1 225.5,-13 225.5,-25 213.5,-37 138.5,-37 126.5,-25 126.5,-13 138.5,-1"/>
<path fill="#ffffff" stroke="#ffffff" stroke-width="1.5" d="M213.5,-1C219.5,-1 225.5,-7 225.5,-13"/>
<path fill="#ffffff" stroke="#ffffff" stroke-width="1.5" d="M225.5,-25C225.5,-31 219.5,-37 213.5,-37"/>
<path fill="#ffffff" stroke="#ffffff" stroke-width="1.5" d="M138.5,-37C132.5,-37 126.5,-31 126.5,-25"/>
<path fill="#ffffff" stroke="#ffffff" stroke-width="1.5" d="M126.5,-13C126.5,-7 132.5,-1 138.5,-1"/>
<polyline fill="none" stroke="#2e3436" stroke-width="1.5" points="138.5,-1 213.5,-1 "/>
<path fill="none" stroke="#2e3436" stroke-width="1.5" d="M213.5,-1C219.5,-1 225.5,-7 225.5,-13"/>
<polyline fill="none" stroke="#2e3436" stroke-width="1.5" points="225.5,-13 225.5,-25 "/>
<path fill="none" stroke="#2e3436" stroke-width="1.5" d="M225.5,-25C225.5,-31 219.5,-37 213.5,-37"/>
<polyline fill="none" stroke="#2e3436" stroke-width="1.5" points="213.5,-37 138.5,-37 "/>
<path fill="none" stroke="#2e3436" stroke-width="1.5" d="M138.5,-37C132.5,-37 126.5,-31 126.5,-25"/>
<polyline fill="none" stroke="#2e3436" stroke-width="1.5" points="126.5,-25 126.5,-13 "/>
<path fill="none" stroke="#2e3436" stroke-width="1.5" d="M126.5,-13C126.5,-7 132.5,-1 138.5,-1"/>
<text text-anchor="start" x="134.5" y="-21.8" font-family="FreeSans" font-size="8.00" fill="#1c2021">Node[161]name = &#39;him&#39;</text>
<text text-anchor="start" x="134.5" y="-11.8" font-family="FreeSans" font-size="8.00" fill="#1c2021">age = 25</text>
</g>
<!-- N162 -->
<g id="node3" class="node"><title>N162</title>
<polygon fill="#ffffff" stroke="#ffffff" stroke-width="1.5" points="79.5,-85 144.5,-85 156.5,-97 156.5,-109 144.5,-121 79.5,-121 67.5,-109 67.5,-97 79.5,-85"/>
<path fill="#ffffff" stroke="#ffffff" stroke-width="1.5" d="M144.5,-85C150.5,-85 156.5,-91 156.5,-97"/>
<path fill="#ffffff" stroke="#ffffff" stroke-width="1.5" d="M156.5,-109C156.5,-115 150.5,-121 144.5,-121"/>
<path fill="#ffffff" stroke="#ffffff" stroke-width="1.5" d="M79.5,-121C73.5,-121 67.5,-115 67.5,-109"/>
<path fill="#ffffff" stroke="#ffffff" stroke-width="1.5" d="M67.5,-97C67.5,-91 73.5,-85 79.5,-85"/>
<polyline fill="none" stroke="#2e3436" stroke-width="1.5" points="79.5,-85 144.5,-85 "/>
<path fill="none" stroke="#2e3436" stroke-width="1.5" d="M144.5,-85C150.5,-85 156.5,-91 156.5,-97"/>
<polyline fill="none" stroke="#2e3436" stroke-width="1.5" points="156.5,-97 156.5,-109 "/>
<path fill="none" stroke="#2e3436" stroke-width="1.5" d="M156.5,-109C156.5,-115 150.5,-121 144.5,-121"/>
<polyline fill="none" stroke="#2e3436" stroke-width="1.5" points="144.5,-121 79.5,-121 "/>
<path fill="none" stroke="#2e3436" stroke-width="1.5" d="M79.5,-121C73.5,-121 67.5,-115 67.5,-109"/>
<polyline fill="none" stroke="#2e3436" stroke-width="1.5" points="67.5,-109 67.5,-97 "/>
<path fill="none" stroke="#2e3436" stroke-width="1.5" d="M67.5,-97C67.5,-91 73.5,-85 79.5,-85"/>
<text text-anchor="start" x="75.5" y="-100.8" font-family="FreeSans" font-size="8.00" fill="#1c2021">Node[162]name = &#39;I&#39;</text>
</g>
<!-- N162&#45;&gt;N160 -->
<g id="edge4" class="edge"><title>N162&#45;&gt;N160</title>
<path fill="none" stroke="#2e3436" stroke-width="2" d="M98.3299,-84.7733C89.2487,-72.665 77.2196,-56.6261 67.3136,-43.4181"/>
<polygon fill="#2e3436" stroke="#2e3436" points="62.6434,-37.1912 69.8434,-41.1662 65.2934,-39.8912 67.5434,-42.8912 67.1434,-43.1912 66.7434,-43.4912 64.4934,-40.4912 64.4434,-45.2162 62.6434,-37.1912 62.6434,-37.1912"/>
<text text-anchor="middle" x="93" y="-58.8" font-family="FreeSans" font-size="8.00" fill="#2e3436">know</text>
</g>
<!-- N162&#45;&gt;N161 -->
<g id="edge2" class="edge"><title>N162&#45;&gt;N161</title>
<path fill="none" stroke="#2e3436" stroke-width="2" d="M125.887,-84.7733C135.112,-72.665 147.332,-56.6261 157.396,-43.4181"/>
<polygon fill="#2e3436" stroke="#2e3436" points="162.14,-37.1912 160.279,-45.2023 160.265,-40.4771 157.992,-43.46 157.595,-43.1569 157.197,-42.8539 159.47,-39.871 154.91,-41.1115 162.14,-37.1912 162.14,-37.1912"/>
<text text-anchor="middle" x="155" y="-58.8" font-family="FreeSans" font-size="8.00" fill="#2e3436">know</text>
</g>
</g>
</svg>
