<?xml version="1.0" encoding="UTF-8" standalone="no"?>
<!DOCTYPE svg PUBLIC "-//W3C//DTD SVG 1.1//EN"
 "http://www.w3.org/Graphics/SVG/1.1/DTD/svg11.dtd">
<!-- Generated by graphviz version 2.26.3 (20100126.1600)
 -->
<!-- Title: g Pages: 1 -->
<svg width="398pt" height="46pt"
 viewBox="0.00 0.00 398.00 46.00" xmlns="http://www.w3.org/2000/svg" xmlns:xlink="http://www.w3.org/1999/xlink">
<g id="graph1" class="graph" transform="scale(1 1) rotate(0) translate(4 42)">
<title>g</title>
<polygon fill="white" stroke="white" points="-4,5 -4,-42 395,-42 395,5 -4,5"/>
<!-- N49 -->
<g id="node1" class="node"><title>N49</title>
<polygon fill="#ffffff" stroke="#ffffff" stroke-width="1.5" points="12,-1 98,-1 110,-13 110,-25 98,-37 12,-37 0,-25 0,-13 12,-1"/>
<path fill="#ffffff" stroke="#ffffff" stroke-width="1.5" d="M98,-1C104,-1 110,-7 110,-13"/>
<path fill="#ffffff" stroke="#ffffff" stroke-width="1.5" d="M110,-25C110,-31 104,-37 98,-37"/>
<path fill="#ffffff" stroke="#ffffff" stroke-width="1.5" d="M12,-37C6,-37 0,-31 0,-25"/>
<path fill="#ffffff" stroke="#ffffff" stroke-width="1.5" d="M0,-13C0,-7 6,-1 12,-1"/>
<polyline fill="none" stroke="#2e3436" stroke-width="1.5" points="12,-1 98,-1 "/>
<path fill="none" stroke="#2e3436" stroke-width="1.5" d="M98,-1C104,-1 110,-7 110,-13"/>
<polyline fill="none" stroke="#2e3436" stroke-width="1.5" points="110,-13 110,-25 "/>
<path fill="none" stroke="#2e3436" stroke-width="1.5" d="M110,-25C110,-31 104,-37 98,-37"/>
<polyline fill="none" stroke="#2e3436" stroke-width="1.5" points="98,-37 12,-37 "/>
<path fill="none" stroke="#2e3436" stroke-width="1.5" d="M12,-37C6,-37 0,-31 0,-25"/>
<polyline fill="none" stroke="#2e3436" stroke-width="1.5" points="0,-25 0,-13 "/>
<path fill="none" stroke="#2e3436" stroke-width="1.5" d="M0,-13C0,-7 6,-1 12,-1"/>
<text text-anchor="middle" x="55" y="-25.8" font-family="FreeSans" font-size="8.00" fill="#1c2021">Node[49]: Director</text>
<polyline fill="none" stroke="#2e3436" stroke-width="1.5" points="0,-19 110,-19 "/>
<text text-anchor="start" x="8" y="-7.8" font-family="FreeSans" font-size="8.00" fill="#1c2021">name = &#39;Steven Spielberg&#39;</text>
</g>
<!-- N50 -->
<g id="node2" class="node"><title>N50</title>
<polygon fill="#ffffff" stroke="#ffffff" stroke-width="1.5" points="150.5,-1 233.5,-1 245.5,-13 245.5,-25 233.5,-37 150.5,-37 138.5,-25 138.5,-13 150.5,-1"/>
<path fill="#ffffff" stroke="#ffffff" stroke-width="1.5" d="M233.5,-1C239.5,-1 245.5,-7 245.5,-13"/>
<path fill="#ffffff" stroke="#ffffff" stroke-width="1.5" d="M245.5,-25C245.5,-31 239.5,-37 233.5,-37"/>
<path fill="#ffffff" stroke="#ffffff" stroke-width="1.5" d="M150.5,-37C144.5,-37 138.5,-31 138.5,-25"/>
<path fill="#ffffff" stroke="#ffffff" stroke-width="1.5" d="M138.5,-13C138.5,-7 144.5,-1 150.5,-1"/>
<polyline fill="none" stroke="#2e3436" stroke-width="1.5" points="150.5,-1 233.5,-1 "/>
<path fill="none" stroke="#2e3436" stroke-width="1.5" d="M233.5,-1C239.5,-1 245.5,-7 245.5,-13"/>
<polyline fill="none" stroke="#2e3436" stroke-width="1.5" points="245.5,-13 245.5,-25 "/>
<path fill="none" stroke="#2e3436" stroke-width="1.5" d="M245.5,-25C245.5,-31 239.5,-37 233.5,-37"/>
<polyline fill="none" stroke="#2e3436" stroke-width="1.5" points="233.5,-37 150.5,-37 "/>
<path fill="none" stroke="#2e3436" stroke-width="1.5" d="M150.5,-37C144.5,-37 138.5,-31 138.5,-25"/>
<polyline fill="none" stroke="#2e3436" stroke-width="1.5" points="138.5,-25 138.5,-13 "/>
<path fill="none" stroke="#2e3436" stroke-width="1.5" d="M138.5,-13C138.5,-7 144.5,-1 150.5,-1"/>
<text text-anchor="middle" x="192" y="-25.8" font-family="FreeSans" font-size="8.00" fill="#1c2021">Node[50]: Actor, Director</text>
<polyline fill="none" stroke="#2e3436" stroke-width="1.5" points="138.5,-19 245.5,-19 "/>
<text text-anchor="start" x="146.5" y="-7.8" font-family="FreeSans" font-size="8.00" fill="#1c2021">name = &#39;Clint Eastwood&#39;</text>
</g>
<!-- N51 -->
<g id="node3" class="node"><title>N51</title>
<polygon fill="#ffffff" stroke="#ffffff" stroke-width="1.5" points="286,-1 378,-1 390,-13 390,-25 378,-37 286,-37 274,-25 274,-13 286,-1"/>
<path fill="#ffffff" stroke="#ffffff" stroke-width="1.5" d="M378,-1C384,-1 390,-7 390,-13"/>
<path fill="#ffffff" stroke="#ffffff" stroke-width="1.5" d="M390,-25C390,-31 384,-37 378,-37"/>
<path fill="#ffffff" stroke="#ffffff" stroke-width="1.5" d="M286,-37C280,-37 274,-31 274,-25"/>
<path fill="#ffffff" stroke="#ffffff" stroke-width="1.5" d="M274,-13C274,-7 280,-1 286,-1"/>
<polyline fill="none" stroke="#2e3436" stroke-width="1.5" points="286,-1 378,-1 "/>
<path fill="none" stroke="#2e3436" stroke-width="1.5" d="M378,-1C384,-1 390,-7 390,-13"/>
<polyline fill="none" stroke="#2e3436" stroke-width="1.5" points="390,-13 390,-25 "/>
<path fill="none" stroke="#2e3436" stroke-width="1.5" d="M390,-25C390,-31 384,-37 378,-37"/>
<polyline fill="none" stroke="#2e3436" stroke-width="1.5" points="378,-37 286,-37 "/>
<path fill="none" stroke="#2e3436" stroke-width="1.5" d="M286,-37C280,-37 274,-31 274,-25"/>
<polyline fill="none" stroke="#2e3436" stroke-width="1.5" points="274,-25 274,-13 "/>
<path fill="none" stroke="#2e3436" stroke-width="1.5" d="M274,-13C274,-7 280,-1 286,-1"/>
<text text-anchor="middle" x="332" y="-25.8" font-family="FreeSans" font-size="8.00" fill="#1c2021">Node[51]: Actor</text>
<polyline fill="none" stroke="#2e3436" stroke-width="1.5" points="274,-19 390,-19 "/>
<text text-anchor="start" x="282" y="-7.8" font-family="FreeSans" font-size="8.00" fill="#1c2021">name = &#39;Donald Sutherland&#39;</text>
</g>
</g>
</svg>
