<?xml version="1.0" encoding="UTF-8" standalone="no"?>
<!DOCTYPE svg PUBLIC "-//W3C//DTD SVG 1.1//EN"
 "http://www.w3.org/Graphics/SVG/1.1/DTD/svg11.dtd">
<!-- Generated by graphviz version 2.26.3 (20100126.1600)
 -->
<!-- Title: g Pages: 1 -->
<svg width="102pt" height="130pt"
 viewBox="0.00 0.00 102.00 130.00" xmlns="http://www.w3.org/2000/svg" xmlns:xlink="http://www.w3.org/1999/xlink">
<g id="graph1" class="graph" transform="scale(1 1) rotate(0) translate(4 126)">
<title>g</title>
<polygon fill="white" stroke="white" points="-4,5 -4,-126 99,-126 99,5 -4,5"/>
<!-- N9 -->
<g id="node1" class="node"><title>N9</title>
<polygon fill="#ffffff" stroke="#ffffff" stroke-width="1.5" points="11.5,-1 82.5,-1 94.5,-13 94.5,-25 82.5,-37 11.5,-37 -0.5,-25 -0.5,-13 11.5,-1"/>
<path fill="#ffffff" stroke="#ffffff" stroke-width="1.5" d="M82.5,-1C88.5,-1 94.5,-7 94.5,-13"/>
<path fill="#ffffff" stroke="#ffffff" stroke-width="1.5" d="M94.5,-25C94.5,-31 88.5,-37 82.5,-37"/>
<path fill="#ffffff" stroke="#ffffff" stroke-width="1.5" d="M11.5,-37C5.5,-37 -0.5,-31 -0.5,-25"/>
<path fill="#ffffff" stroke="#ffffff" stroke-width="1.5" d="M-0.5,-13C-0.5,-7 5.5,-1 11.5,-1"/>
<polyline fill="none" stroke="#2e3436" stroke-width="1.5" points="11.5,-1 82.5,-1 "/>
<path fill="none" stroke="#2e3436" stroke-width="1.5" d="M82.5,-1C88.5,-1 94.5,-7 94.5,-13"/>
<polyline fill="none" stroke="#2e3436" stroke-width="1.5" points="94.5,-13 94.5,-25 "/>
<path fill="none" stroke="#2e3436" stroke-width="1.5" d="M94.5,-25C94.5,-31 88.5,-37 82.5,-37"/>
<polyline fill="none" stroke="#2e3436" stroke-width="1.5" points="82.5,-37 11.5,-37 "/>
<path fill="none" stroke="#2e3436" stroke-width="1.5" d="M11.5,-37C5.5,-37 -0.5,-31 -0.5,-25"/>
<polyline fill="none" stroke="#2e3436" stroke-width="1.5" points="-0.5,-25 -0.5,-13 "/>
<path fill="none" stroke="#2e3436" stroke-width="1.5" d="M-0.5,-13C-0.5,-7 5.5,-1 11.5,-1"/>
<text text-anchor="start" x="7.5" y="-16.8" font-family="FreeSans" font-size="8.00" fill="#1c2021">Node[9]name = &#39;Sara&#39;</text>
</g>
<!-- N10 -->
<g id="node2" class="node"><title>N10</title>
<polygon fill="#ffffff" stroke="#ffffff" stroke-width="1.5" points="11.5,-85 82.5,-85 94.5,-97 94.5,-109 82.5,-121 11.5,-121 -0.5,-109 -0.5,-97 11.5,-85"/>
<path fill="#ffffff" stroke="#ffffff" stroke-width="1.5" d="M82.5,-85C88.5,-85 94.5,-91 94.5,-97"/>
<path fill="#ffffff" stroke="#ffffff" stroke-width="1.5" d="M94.5,-109C94.5,-115 88.5,-121 82.5,-121"/>
<path fill="#ffffff" stroke="#ffffff" stroke-width="1.5" d="M11.5,-121C5.5,-121 -0.5,-115 -0.5,-109"/>
<path fill="#ffffff" stroke="#ffffff" stroke-width="1.5" d="M-0.5,-97C-0.5,-91 5.5,-85 11.5,-85"/>
<polyline fill="none" stroke="#2e3436" stroke-width="1.5" points="11.5,-85 82.5,-85 "/>
<path fill="none" stroke="#2e3436" stroke-width="1.5" d="M82.5,-85C88.5,-85 94.5,-91 94.5,-97"/>
<polyline fill="none" stroke="#2e3436" stroke-width="1.5" points="94.5,-97 94.5,-109 "/>
<path fill="none" stroke="#2e3436" stroke-width="1.5" d="M94.5,-109C94.5,-115 88.5,-121 82.5,-121"/>
<polyline fill="none" stroke="#2e3436" stroke-width="1.5" points="82.5,-121 11.5,-121 "/>
<path fill="none" stroke="#2e3436" stroke-width="1.5" d="M11.5,-121C5.5,-121 -0.5,-115 -0.5,-109"/>
<polyline fill="none" stroke="#2e3436" stroke-width="1.5" points="-0.5,-109 -0.5,-97 "/>
<path fill="none" stroke="#2e3436" stroke-width="1.5" d="M-0.5,-97C-0.5,-91 5.5,-85 11.5,-85"/>
<text text-anchor="start" x="7.5" y="-100.8" font-family="FreeSans" font-size="8.00" fill="#1c2021">Node[10]name = &#39;Joe&#39;</text>
</g>
<!-- N10&#45;&gt;N9 -->
<g id="edge2" class="edge"><title>N10&#45;&gt;N9</title>
<path fill="none" stroke="#2e3436" stroke-width="2" d="M27.4025,-84.6819C22.7689,-79.1713 18.4624,-72.7733 16,-66 13.1361,-58.1226 15.669,-50.249 20.3045,-43.2607"/>
<polygon fill="#2e3436" stroke="#2e3436" points="25.0583,-37.1169 23.1379,-45.114 23.1589,-40.3887 20.8641,-43.3546 20.4686,-43.0486 20.0732,-42.7426 22.368,-39.7768 17.7993,-40.9832 25.0583,-37.1169 25.0583,-37.1169"/>
<text text-anchor="middle" x="28" y="-58.8" font-family="FreeSans" font-size="8.00" fill="#2e3436">knows</text>
</g>
<!-- N10&#45;&gt;N9 -->
<g id="edge4" class="edge"><title>N10&#45;&gt;N9</title>
<path fill="none" stroke="#4e9a06" stroke-width="2" d="M47,-84.7733C47,-73.1053 47,-57.7874 47,-44.8699"/>
<polygon fill="#4e9a06" stroke="#4e9a06" points="47,-37.1912 50.3751,-44.6911 47.5,-40.9412 47.5001,-44.6912 47.0001,-44.6912 46.5001,-44.6912 46.5,-40.9412 43.6251,-44.6912 47,-37.1912 47,-37.1912"/>
<text text-anchor="middle" x="61" y="-58.8" font-family="FreeSans" font-size="8.00" fill="#4e9a06">LOVES</text>
</g>
</g>
</svg>
