<?xml version="1.0" encoding="UTF-8" standalone="no"?>
<!DOCTYPE svg PUBLIC "-//W3C//DTD SVG 1.1//EN"
 "http://www.w3.org/Graphics/SVG/1.1/DTD/svg11.dtd">
<!-- Generated by graphviz version 2.26.3 (20100126.1600)
 -->
<!-- Title: g Pages: 1 -->
<svg width="286pt" height="346pt"
 viewBox="0.00 0.00 286.00 346.00" xmlns="http://www.w3.org/2000/svg" xmlns:xlink="http://www.w3.org/1999/xlink">
<g id="graph1" class="graph" transform="scale(1 1) rotate(0) translate(4 342)">
<title>g</title>
<polygon fill="white" stroke="white" points="-4,5 -4,-342 283,-342 283,5 -4,5"/>
<!-- N7 -->
<g id="node1" class="node"><title>N7</title>
<polygon fill="#ffffff" stroke="#ffffff" stroke-width="1.5" points="12,-151 68,-151 80,-163 80,-175 68,-187 12,-187 0,-175 0,-163 12,-151"/>
<path fill="#ffffff" stroke="#ffffff" stroke-width="1.5" d="M68,-151C74,-151 80,-157 80,-163"/>
<path fill="#ffffff" stroke="#ffffff" stroke-width="1.5" d="M80,-175C80,-181 74,-187 68,-187"/>
<path fill="#ffffff" stroke="#ffffff" stroke-width="1.5" d="M12,-187C6,-187 0,-181 0,-175"/>
<path fill="#ffffff" stroke="#ffffff" stroke-width="1.5" d="M0,-163C0,-157 6,-151 12,-151"/>
<polyline fill="none" stroke="#2e3436" stroke-width="1.5" points="12,-151 68,-151 "/>
<path fill="none" stroke="#2e3436" stroke-width="1.5" d="M68,-151C74,-151 80,-157 80,-163"/>
<polyline fill="none" stroke="#2e3436" stroke-width="1.5" points="80,-163 80,-175 "/>
<path fill="none" stroke="#2e3436" stroke-width="1.5" d="M80,-175C80,-181 74,-187 68,-187"/>
<polyline fill="none" stroke="#2e3436" stroke-width="1.5" points="68,-187 12,-187 "/>
<path fill="none" stroke="#2e3436" stroke-width="1.5" d="M12,-187C6,-187 0,-181 0,-175"/>
<polyline fill="none" stroke="#2e3436" stroke-width="1.5" points="0,-175 0,-163 "/>
<path fill="none" stroke="#2e3436" stroke-width="1.5" d="M0,-163C0,-157 6,-151 12,-151"/>
<text text-anchor="start" x="8" y="-166.8" font-family="FreeSans" font-size="8.00" fill="#1c2021">Node[7]name = &#39;f&#39;</text>
</g>
<!-- N9 -->
<g id="node3" class="node"><title>N9</title>
<polygon fill="#ffffff" stroke="#ffffff" stroke-width="1.5" points="102,-1 160,-1 172,-13 172,-25 160,-37 102,-37 90,-25 90,-13 102,-1"/>
<path fill="#ffffff" stroke="#ffffff" stroke-width="1.5" d="M160,-1C166,-1 172,-7 172,-13"/>
<path fill="#ffffff" stroke="#ffffff" stroke-width="1.5" d="M172,-25C172,-31 166,-37 160,-37"/>
<path fill="#ffffff" stroke="#ffffff" stroke-width="1.5" d="M102,-37C96,-37 90,-31 90,-25"/>
<path fill="#ffffff" stroke="#ffffff" stroke-width="1.5" d="M90,-13C90,-7 96,-1 102,-1"/>
<polyline fill="none" stroke="#2e3436" stroke-width="1.5" points="102,-1 160,-1 "/>
<path fill="none" stroke="#2e3436" stroke-width="1.5" d="M160,-1C166,-1 172,-7 172,-13"/>
<polyline fill="none" stroke="#2e3436" stroke-width="1.5" points="172,-13 172,-25 "/>
<path fill="none" stroke="#2e3436" stroke-width="1.5" d="M172,-25C172,-31 166,-37 160,-37"/>
<polyline fill="none" stroke="#2e3436" stroke-width="1.5" points="160,-37 102,-37 "/>
<path fill="none" stroke="#2e3436" stroke-width="1.5" d="M102,-37C96,-37 90,-31 90,-25"/>
<polyline fill="none" stroke="#2e3436" stroke-width="1.5" points="90,-25 90,-13 "/>
<path fill="none" stroke="#2e3436" stroke-width="1.5" d="M90,-13C90,-7 96,-1 102,-1"/>
<text text-anchor="start" x="98" y="-16.8" font-family="FreeSans" font-size="8.00" fill="#1c2021">Node[9]name = &#39;e&#39;</text>
</g>
<!-- N7&#45;&gt;N9 -->
<g id="edge2" class="edge"><title>N7&#45;&gt;N9</title>
<path fill="none" stroke="#2e3436" stroke-width="2" d="M50.9767,-150.906C67.2375,-124.103 97.7694,-73.7758 116.057,-43.6318"/>
<polygon fill="#2e3436" stroke="#2e3436" points="119.984,-37.1577 118.98,-45.3205 118.467,-40.6232 116.522,-43.8293 116.094,-43.5699 115.667,-43.3106 117.612,-40.1045 113.209,-41.8194 119.984,-37.1577 119.984,-37.1577"/>
<text text-anchor="middle" x="104" y="-115.8" font-family="FreeSans" font-size="8.00" fill="#2e3436">to</text>
<text text-anchor="start" x="86" y="-105.8" font-family="FreeSans" font-size="8.00" fill="#2e3436">cost = 1.0</text>
</g>
<!-- N8 -->
<g id="node4" class="node"><title>N8</title>
<polygon fill="#ffffff" stroke="#ffffff" stroke-width="1.5" points="208,-95 266,-95 278,-107 278,-119 266,-131 208,-131 196,-119 196,-107 208,-95"/>
<path fill="#ffffff" stroke="#ffffff" stroke-width="1.5" d="M266,-95C272,-95 278,-101 278,-107"/>
<path fill="#ffffff" stroke="#ffffff" stroke-width="1.5" d="M278,-119C278,-125 272,-131 266,-131"/>
<path fill="#ffffff" stroke="#ffffff" stroke-width="1.5" d="M208,-131C202,-131 196,-125 196,-119"/>
<path fill="#ffffff" stroke="#ffffff" stroke-width="1.5" d="M196,-107C196,-101 202,-95 208,-95"/>
<polyline fill="none" stroke="#2e3436" stroke-width="1.5" points="208,-95 266,-95 "/>
<path fill="none" stroke="#2e3436" stroke-width="1.5" d="M266,-95C272,-95 278,-101 278,-107"/>
<polyline fill="none" stroke="#2e3436" stroke-width="1.5" points="278,-107 278,-119 "/>
<path fill="none" stroke="#2e3436" stroke-width="1.5" d="M278,-119C278,-125 272,-131 266,-131"/>
<polyline fill="none" stroke="#2e3436" stroke-width="1.5" points="266,-131 208,-131 "/>
<path fill="none" stroke="#2e3436" stroke-width="1.5" d="M208,-131C202,-131 196,-125 196,-119"/>
<polyline fill="none" stroke="#2e3436" stroke-width="1.5" points="196,-119 196,-107 "/>
<path fill="none" stroke="#2e3436" stroke-width="1.5" d="M196,-107C196,-101 202,-95 208,-95"/>
<text text-anchor="start" x="204" y="-110.8" font-family="FreeSans" font-size="8.00" fill="#1c2021">Node[8]name = &#39;d&#39;</text>
</g>
<!-- N8&#45;&gt;N9 -->
<g id="edge4" class="edge"><title>N8&#45;&gt;N9</title>
<path fill="none" stroke="#2e3436" stroke-width="2" d="M216.562,-94.8759C199.698,-79.9211 175.653,-58.5983 157.345,-42.3629"/>
<polygon fill="#2e3436" stroke="#2e3436" points="151.375,-37.0685 159.226,-39.5195 154.513,-39.1825 157.318,-41.6706 156.987,-42.0447 156.655,-42.4188 153.849,-39.9307 154.747,-44.5698 151.375,-37.0685 151.375,-37.0685"/>
<text text-anchor="middle" x="211" y="-68.8" font-family="FreeSans" font-size="8.00" fill="#2e3436">to</text>
<text text-anchor="start" x="193" y="-58.8" font-family="FreeSans" font-size="8.00" fill="#2e3436">cost = 0.5</text>
</g>
<!-- N10 -->
<g id="node6" class="node"><title>N10</title>
<polygon fill="#ffffff" stroke="#ffffff" stroke-width="1.5" points="100,-151 162,-151 174,-163 174,-175 162,-187 100,-187 88,-175 88,-163 100,-151"/>
<path fill="#ffffff" stroke="#ffffff" stroke-width="1.5" d="M162,-151C168,-151 174,-157 174,-163"/>
<path fill="#ffffff" stroke="#ffffff" stroke-width="1.5" d="M174,-175C174,-181 168,-187 162,-187"/>
<path fill="#ffffff" stroke="#ffffff" stroke-width="1.5" d="M100,-187C94,-187 88,-181 88,-175"/>
<path fill="#ffffff" stroke="#ffffff" stroke-width="1.5" d="M88,-163C88,-157 94,-151 100,-151"/>
<polyline fill="none" stroke="#2e3436" stroke-width="1.5" points="100,-151 162,-151 "/>
<path fill="none" stroke="#2e3436" stroke-width="1.5" d="M162,-151C168,-151 174,-157 174,-163"/>
<polyline fill="none" stroke="#2e3436" stroke-width="1.5" points="174,-163 174,-175 "/>
<path fill="none" stroke="#2e3436" stroke-width="1.5" d="M174,-175C174,-181 168,-187 162,-187"/>
<polyline fill="none" stroke="#2e3436" stroke-width="1.5" points="162,-187 100,-187 "/>
<path fill="none" stroke="#2e3436" stroke-width="1.5" d="M100,-187C94,-187 88,-181 88,-175"/>
<polyline fill="none" stroke="#2e3436" stroke-width="1.5" points="88,-175 88,-163 "/>
<path fill="none" stroke="#2e3436" stroke-width="1.5" d="M88,-163C88,-157 94,-151 100,-151"/>
<text text-anchor="start" x="96" y="-166.8" font-family="FreeSans" font-size="8.00" fill="#1c2021">Node[10]name = &#39;b&#39;</text>
</g>
<!-- N10&#45;&gt;N9 -->
<g id="edge6" class="edge"><title>N10&#45;&gt;N9</title>
<path fill="none" stroke="#2e3436" stroke-width="2" d="M131,-150.906C131,-124.441 131,-75.0408 131,-44.7812"/>
<polygon fill="#2e3436" stroke="#2e3436" points="131,-37.1577 134.375,-44.6576 131.5,-40.9077 131.5,-44.6577 131,-44.6577 130.5,-44.6577 130.5,-40.9077 127.625,-44.6577 131,-37.1577 131,-37.1577"/>
<text text-anchor="middle" x="149" y="-115.8" font-family="FreeSans" font-size="8.00" fill="#2e3436">to</text>
<text text-anchor="start" x="131" y="-105.8" font-family="FreeSans" font-size="8.00" fill="#2e3436">cost = 0.5</text>
</g>
<!-- N11 -->
<g id="node8" class="node"><title>N11</title>
<polygon fill="#ffffff" stroke="#ffffff" stroke-width="1.5" points="192,-207 254,-207 266,-219 266,-231 254,-243 192,-243 180,-231 180,-219 192,-207"/>
<path fill="#ffffff" stroke="#ffffff" stroke-width="1.5" d="M254,-207C260,-207 266,-213 266,-219"/>
<path fill="#ffffff" stroke="#ffffff" stroke-width="1.5" d="M266,-231C266,-237 260,-243 254,-243"/>
<path fill="#ffffff" stroke="#ffffff" stroke-width="1.5" d="M192,-243C186,-243 180,-237 180,-231"/>
<path fill="#ffffff" stroke="#ffffff" stroke-width="1.5" d="M180,-219C180,-213 186,-207 192,-207"/>
<polyline fill="none" stroke="#2e3436" stroke-width="1.5" points="192,-207 254,-207 "/>
<path fill="none" stroke="#2e3436" stroke-width="1.5" d="M254,-207C260,-207 266,-213 266,-219"/>
<polyline fill="none" stroke="#2e3436" stroke-width="1.5" points="266,-219 266,-231 "/>
<path fill="none" stroke="#2e3436" stroke-width="1.5" d="M266,-231C266,-237 260,-243 254,-243"/>
<polyline fill="none" stroke="#2e3436" stroke-width="1.5" points="254,-243 192,-243 "/>
<path fill="none" stroke="#2e3436" stroke-width="1.5" d="M192,-243C186,-243 180,-237 180,-231"/>
<polyline fill="none" stroke="#2e3436" stroke-width="1.5" points="180,-231 180,-219 "/>
<path fill="none" stroke="#2e3436" stroke-width="1.5" d="M180,-219C180,-213 186,-207 192,-207"/>
<text text-anchor="start" x="188" y="-222.8" font-family="FreeSans" font-size="8.00" fill="#1c2021">Node[11]name = &#39;c&#39;</text>
</g>
<!-- N11&#45;&gt;N8 -->
<g id="edge8" class="edge"><title>N11&#45;&gt;N8</title>
<path fill="none" stroke="#2e3436" stroke-width="2" d="M225.312,-206.505C227.626,-187.994 231.204,-159.364 233.793,-138.66"/>
<polygon fill="#2e3436" stroke="#2e3436" points="234.731,-131.15 237.15,-139.011 234.762,-134.933 234.297,-138.654 233.801,-138.592 233.305,-138.53 233.77,-134.809 230.452,-138.174 234.731,-131.15 234.731,-131.15"/>
<text text-anchor="middle" x="250" y="-171.8" font-family="FreeSans" font-size="8.00" fill="#2e3436">to</text>
<text text-anchor="start" x="232" y="-161.8" font-family="FreeSans" font-size="8.00" fill="#2e3436">cost = 0.5</text>
</g>
<!-- N12 -->
<g id="node10" class="node"><title>N12</title>
<polygon fill="#ffffff" stroke="#ffffff" stroke-width="1.5" points="100,-301 162,-301 174,-313 174,-325 162,-337 100,-337 88,-325 88,-313 100,-301"/>
<path fill="#ffffff" stroke="#ffffff" stroke-width="1.5" d="M162,-301C168,-301 174,-307 174,-313"/>
<path fill="#ffffff" stroke="#ffffff" stroke-width="1.5" d="M174,-325C174,-331 168,-337 162,-337"/>
<path fill="#ffffff" stroke="#ffffff" stroke-width="1.5" d="M100,-337C94,-337 88,-331 88,-325"/>
<path fill="#ffffff" stroke="#ffffff" stroke-width="1.5" d="M88,-313C88,-307 94,-301 100,-301"/>
<polyline fill="none" stroke="#2e3436" stroke-width="1.5" points="100,-301 162,-301 "/>
<path fill="none" stroke="#2e3436" stroke-width="1.5" d="M162,-301C168,-301 174,-307 174,-313"/>
<polyline fill="none" stroke="#2e3436" stroke-width="1.5" points="174,-313 174,-325 "/>
<path fill="none" stroke="#2e3436" stroke-width="1.5" d="M174,-325C174,-331 168,-337 162,-337"/>
<polyline fill="none" stroke="#2e3436" stroke-width="1.5" points="162,-337 100,-337 "/>
<path fill="none" stroke="#2e3436" stroke-width="1.5" d="M100,-337C94,-337 88,-331 88,-325"/>
<polyline fill="none" stroke="#2e3436" stroke-width="1.5" points="88,-325 88,-313 "/>
<path fill="none" stroke="#2e3436" stroke-width="1.5" d="M88,-313C88,-307 94,-301 100,-301"/>
<text text-anchor="start" x="96" y="-316.8" font-family="FreeSans" font-size="8.00" fill="#1c2021">Node[12]name = &#39;a&#39;</text>
</g>
<!-- N12&#45;&gt;N7 -->
<g id="edge14" class="edge"><title>N12&#45;&gt;N7</title>
<path fill="none" stroke="#2e3436" stroke-width="2" d="M105.908,-300.769C99.4887,-295.259 92.9965,-288.839 88,-282 68.2577,-254.978 54.6765,-218.597 47.1251,-194.501"/>
<polygon fill="#2e3436" stroke="#2e3436" points="44.8851,-187.137 50.2967,-193.33 46.4548,-190.579 47.5461,-194.167 47.0678,-194.312 46.5894,-194.458 45.4981,-190.87 43.8388,-195.294 44.8851,-187.137 44.8851,-187.137"/>
<text text-anchor="middle" x="106" y="-274.8" font-family="FreeSans" font-size="8.00" fill="#2e3436">to</text>
<text text-anchor="start" x="88" y="-264.8" font-family="FreeSans" font-size="8.00" fill="#2e3436">cost = 0.5</text>
</g>
<!-- N12&#45;&gt;N10 -->
<g id="edge10" class="edge"><title>N12&#45;&gt;N10</title>
<path fill="none" stroke="#2e3436" stroke-width="2" d="M131,-300.906C131,-274.441 131,-225.041 131,-194.781"/>
<polygon fill="#2e3436" stroke="#2e3436" points="131,-187.158 134.375,-194.658 131.5,-190.908 131.5,-194.658 131,-194.658 130.5,-194.658 130.5,-190.908 127.625,-194.658 131,-187.158 131,-187.158"/>
<text text-anchor="middle" x="149" y="-274.8" font-family="FreeSans" font-size="8.00" fill="#2e3436">to</text>
<text text-anchor="start" x="131" y="-264.8" font-family="FreeSans" font-size="8.00" fill="#2e3436">cost = 1.5</text>
</g>
<!-- N12&#45;&gt;N11 -->
<g id="edge12" class="edge"><title>N12&#45;&gt;N11</title>
<path fill="none" stroke="#2e3436" stroke-width="2" d="M153.445,-300.791C160.24,-294.989 167.595,-288.408 174,-282 184.334,-271.661 195.006,-259.457 203.742,-248.999"/>
<polygon fill="#2e3436" stroke="#2e3436" points="208.644,-243.071 206.465,-251.002 206.64,-246.279 204.25,-249.169 203.864,-248.851 203.479,-248.532 205.869,-245.642 201.264,-246.7 208.644,-243.071 208.644,-243.071"/>
<text text-anchor="middle" x="210" y="-274.8" font-family="FreeSans" font-size="8.00" fill="#2e3436">to</text>
<text text-anchor="start" x="192" y="-264.8" font-family="FreeSans" font-size="8.00" fill="#2e3436">cost = 0.5</text>
</g>
</g>
</svg>
