<?xml version="1.0" encoding="UTF-8" standalone="no"?>
<!DOCTYPE svg PUBLIC "-//W3C//DTD SVG 1.1//EN"
 "http://www.w3.org/Graphics/SVG/1.1/DTD/svg11.dtd">
<!-- Generated by graphviz version 2.26.3 (20100126.1600)
 -->
<!-- Title: g Pages: 1 -->
<svg width="155pt" height="130pt"
 viewBox="0.00 0.00 155.00 130.00" xmlns="http://www.w3.org/2000/svg" xmlns:xlink="http://www.w3.org/1999/xlink">
<g id="graph1" class="graph" transform="scale(1 1) rotate(0) translate(4 126)">
<title>g</title>
<polygon fill="white" stroke="white" points="-4,5 -4,-126 152,-126 152,5 -4,5"/>
<!-- N0 -->
<g id="node1" class="node"><title>N0</title>
<polygon fill="#ffffff" stroke="#ffffff" stroke-width="1.5" points="12,-85 42,-85 54,-97 54,-109 42,-121 12,-121 0,-109 0,-97 12,-85"/>
<path fill="#ffffff" stroke="#ffffff" stroke-width="1.5" d="M42,-85C48,-85 54,-91 54,-97"/>
<path fill="#ffffff" stroke="#ffffff" stroke-width="1.5" d="M54,-109C54,-115 48,-121 42,-121"/>
<path fill="#ffffff" stroke="#ffffff" stroke-width="1.5" d="M12,-121C6,-121 0,-115 0,-109"/>
<path fill="#ffffff" stroke="#ffffff" stroke-width="1.5" d="M0,-97C0,-91 6,-85 12,-85"/>
<polyline fill="none" stroke="#2e3436" stroke-width="1.5" points="12,-85 42,-85 "/>
<path fill="none" stroke="#2e3436" stroke-width="1.5" d="M42,-85C48,-85 54,-91 54,-97"/>
<polyline fill="none" stroke="#2e3436" stroke-width="1.5" points="54,-97 54,-109 "/>
<path fill="none" stroke="#2e3436" stroke-width="1.5" d="M54,-109C54,-115 48,-121 42,-121"/>
<polyline fill="none" stroke="#2e3436" stroke-width="1.5" points="42,-121 12,-121 "/>
<path fill="none" stroke="#2e3436" stroke-width="1.5" d="M12,-121C6,-121 0,-115 0,-109"/>
<polyline fill="none" stroke="#2e3436" stroke-width="1.5" points="0,-109 0,-97 "/>
<path fill="none" stroke="#2e3436" stroke-width="1.5" d="M0,-97C0,-91 6,-85 12,-85"/>
<text text-anchor="middle" x="27" y="-109.8" font-family="FreeSans" font-size="8.00" fill="#1c2021">Node[0]</text>
<polyline fill="none" stroke="#2e3436" stroke-width="1.5" points="0,-103 54,-103 "/>
<text text-anchor="middle" x="27" y="-91.8" font-family="FreeSans" font-size="8.00" fill="#1c2021"> </text>
</g>
<!-- N1 -->
<g id="node2" class="node"><title>N1</title>
<polygon fill="#ffffff" stroke="#ffffff" stroke-width="1.5" points="93,-1 135,-1 147,-13 147,-25 135,-37 93,-37 81,-25 81,-13 93,-1"/>
<path fill="#ffffff" stroke="#ffffff" stroke-width="1.5" d="M135,-1C141,-1 147,-7 147,-13"/>
<path fill="#ffffff" stroke="#ffffff" stroke-width="1.5" d="M147,-25C147,-31 141,-37 135,-37"/>
<path fill="#ffffff" stroke="#ffffff" stroke-width="1.5" d="M93,-37C87,-37 81,-31 81,-25"/>
<path fill="#ffffff" stroke="#ffffff" stroke-width="1.5" d="M81,-13C81,-7 87,-1 93,-1"/>
<polyline fill="none" stroke="#2e3436" stroke-width="1.5" points="93,-1 135,-1 "/>
<path fill="none" stroke="#2e3436" stroke-width="1.5" d="M135,-1C141,-1 147,-7 147,-13"/>
<polyline fill="none" stroke="#2e3436" stroke-width="1.5" points="147,-13 147,-25 "/>
<path fill="none" stroke="#2e3436" stroke-width="1.5" d="M147,-25C147,-31 141,-37 135,-37"/>
<polyline fill="none" stroke="#2e3436" stroke-width="1.5" points="135,-37 93,-37 "/>
<path fill="none" stroke="#2e3436" stroke-width="1.5" d="M93,-37C87,-37 81,-31 81,-25"/>
<polyline fill="none" stroke="#2e3436" stroke-width="1.5" points="81,-25 81,-13 "/>
<path fill="none" stroke="#2e3436" stroke-width="1.5" d="M81,-13C81,-7 87,-1 93,-1"/>
<text text-anchor="middle" x="114" y="-25.8" font-family="FreeSans" font-size="8.00" fill="#1c2021">Node[1]</text>
<polyline fill="none" stroke="#2e3436" stroke-width="1.5" points="81,-19 147,-19 "/>
<text text-anchor="start" x="89" y="-7.8" font-family="FreeSans" font-size="8.00" fill="#1c2021">name = &#39;Sara&#39;</text>
</g>
<!-- N2 -->
<g id="node3" class="node"><title>N2</title>
<polygon fill="#ffffff" stroke="#ffffff" stroke-width="1.5" points="95,-85 133,-85 145,-97 145,-109 133,-121 95,-121 83,-109 83,-97 95,-85"/>
<path fill="#ffffff" stroke="#ffffff" stroke-width="1.5" d="M133,-85C139,-85 145,-91 145,-97"/>
<path fill="#ffffff" stroke="#ffffff" stroke-width="1.5" d="M145,-109C145,-115 139,-121 133,-121"/>
<path fill="#ffffff" stroke="#ffffff" stroke-width="1.5" d="M95,-121C89,-121 83,-115 83,-109"/>
<path fill="#ffffff" stroke="#ffffff" stroke-width="1.5" d="M83,-97C83,-91 89,-85 95,-85"/>
<polyline fill="none" stroke="#2e3436" stroke-width="1.5" points="95,-85 133,-85 "/>
<path fill="none" stroke="#2e3436" stroke-width="1.5" d="M133,-85C139,-85 145,-91 145,-97"/>
<polyline fill="none" stroke="#2e3436" stroke-width="1.5" points="145,-97 145,-109 "/>
<path fill="none" stroke="#2e3436" stroke-width="1.5" d="M145,-109C145,-115 139,-121 133,-121"/>
<polyline fill="none" stroke="#2e3436" stroke-width="1.5" points="133,-121 95,-121 "/>
<path fill="none" stroke="#2e3436" stroke-width="1.5" d="M95,-121C89,-121 83,-115 83,-109"/>
<polyline fill="none" stroke="#2e3436" stroke-width="1.5" points="83,-109 83,-97 "/>
<path fill="none" stroke="#2e3436" stroke-width="1.5" d="M83,-97C83,-91 89,-85 95,-85"/>
<text text-anchor="middle" x="114" y="-109.8" font-family="FreeSans" font-size="8.00" fill="#1c2021">Node[2]</text>
<polyline fill="none" stroke="#2e3436" stroke-width="1.5" points="83,-103 145,-103 "/>
<text text-anchor="start" x="91" y="-91.8" font-family="FreeSans" font-size="8.00" fill="#1c2021">name = &#39;Joe&#39;</text>
</g>
<!-- N2&#45;&gt;N1 -->
<g id="edge2" class="edge"><title>N2&#45;&gt;N1</title>
<path fill="none" stroke="#2e3436" stroke-width="2" d="M94.4025,-84.6819C89.7689,-79.1713 85.4624,-72.7733 83,-66 80.1361,-58.1226 82.669,-50.249 87.3045,-43.2607"/>
<polygon fill="#2e3436" stroke="#2e3436" points="92.0583,-37.1169 90.1379,-45.114 90.1589,-40.3887 87.8641,-43.3546 87.4686,-43.0486 87.0732,-42.7426 89.368,-39.7768 84.7993,-40.9832 92.0583,-37.1169 92.0583,-37.1169"/>
<text text-anchor="middle" x="95" y="-58.8" font-family="FreeSans" font-size="8.00" fill="#2e3436">knows</text>
</g>
<!-- N2&#45;&gt;N1 -->
<g id="edge4" class="edge"><title>N2&#45;&gt;N1</title>
<path fill="none" stroke="#4e9a06" stroke-width="2" d="M114,-84.7733C114,-73.1053 114,-57.7874 114,-44.8699"/>
<polygon fill="#4e9a06" stroke="#4e9a06" points="114,-37.1912 117.375,-44.6911 114.5,-40.9412 114.5,-44.6912 114,-44.6912 113.5,-44.6912 113.5,-40.9412 110.625,-44.6912 114,-37.1912 114,-37.1912"/>
<text text-anchor="middle" x="128" y="-58.8" font-family="FreeSans" font-size="8.00" fill="#4e9a06">LOVES</text>
</g>
</g>
</svg>
