<?xml version="1.0" encoding="UTF-8" standalone="no"?>
<!DOCTYPE svg PUBLIC "-//W3C//DTD SVG 1.1//EN"
 "http://www.w3.org/Graphics/SVG/1.1/DTD/svg11.dtd">
<!-- Generated by graphviz version 2.26.3 (20100126.1600)
 -->
<!-- Title: g Pages: 1 -->
<svg width="301pt" height="346pt"
 viewBox="0.00 0.00 301.00 346.00" xmlns="http://www.w3.org/2000/svg" xmlns:xlink="http://www.w3.org/1999/xlink">
<g id="graph1" class="graph" transform="scale(1 1) rotate(0) translate(4 342)">
<title>g</title>
<polygon fill="white" stroke="white" points="-4,5 -4,-342 298,-342 298,5 -4,5"/>
<!-- N202 -->
<g id="node1" class="node"><title>N202</title>
<polygon fill="#ffffff" stroke="#ffffff" stroke-width="1.5" points="11.5,-151 76.5,-151 88.5,-163 88.5,-175 76.5,-187 11.5,-187 -0.5,-175 -0.5,-163 11.5,-151"/>
<path fill="#ffffff" stroke="#ffffff" stroke-width="1.5" d="M76.5,-151C82.5,-151 88.5,-157 88.5,-163"/>
<path fill="#ffffff" stroke="#ffffff" stroke-width="1.5" d="M88.5,-175C88.5,-181 82.5,-187 76.5,-187"/>
<path fill="#ffffff" stroke="#ffffff" stroke-width="1.5" d="M11.5,-187C5.5,-187 -0.5,-181 -0.5,-175"/>
<path fill="#ffffff" stroke="#ffffff" stroke-width="1.5" d="M-0.5,-163C-0.5,-157 5.5,-151 11.5,-151"/>
<polyline fill="none" stroke="#2e3436" stroke-width="1.5" points="11.5,-151 76.5,-151 "/>
<path fill="none" stroke="#2e3436" stroke-width="1.5" d="M76.5,-151C82.5,-151 88.5,-157 88.5,-163"/>
<polyline fill="none" stroke="#2e3436" stroke-width="1.5" points="88.5,-163 88.5,-175 "/>
<path fill="none" stroke="#2e3436" stroke-width="1.5" d="M88.5,-175C88.5,-181 82.5,-187 76.5,-187"/>
<polyline fill="none" stroke="#2e3436" stroke-width="1.5" points="76.5,-187 11.5,-187 "/>
<path fill="none" stroke="#2e3436" stroke-width="1.5" d="M11.5,-187C5.5,-187 -0.5,-181 -0.5,-175"/>
<polyline fill="none" stroke="#2e3436" stroke-width="1.5" points="-0.5,-175 -0.5,-163 "/>
<path fill="none" stroke="#2e3436" stroke-width="1.5" d="M-0.5,-163C-0.5,-157 5.5,-151 11.5,-151"/>
<text text-anchor="start" x="7.5" y="-166.8" font-family="FreeSans" font-size="8.00" fill="#1c2021">Node[202]name = &#39;f&#39;</text>
</g>
<!-- N204 -->
<g id="node3" class="node"><title>N204</title>
<polygon fill="#ffffff" stroke="#ffffff" stroke-width="1.5" points="104.5,-1 171.5,-1 183.5,-13 183.5,-25 171.5,-37 104.5,-37 92.5,-25 92.5,-13 104.5,-1"/>
<path fill="#ffffff" stroke="#ffffff" stroke-width="1.5" d="M171.5,-1C177.5,-1 183.5,-7 183.5,-13"/>
<path fill="#ffffff" stroke="#ffffff" stroke-width="1.5" d="M183.5,-25C183.5,-31 177.5,-37 171.5,-37"/>
<path fill="#ffffff" stroke="#ffffff" stroke-width="1.5" d="M104.5,-37C98.5,-37 92.5,-31 92.5,-25"/>
<path fill="#ffffff" stroke="#ffffff" stroke-width="1.5" d="M92.5,-13C92.5,-7 98.5,-1 104.5,-1"/>
<polyline fill="none" stroke="#2e3436" stroke-width="1.5" points="104.5,-1 171.5,-1 "/>
<path fill="none" stroke="#2e3436" stroke-width="1.5" d="M171.5,-1C177.5,-1 183.5,-7 183.5,-13"/>
<polyline fill="none" stroke="#2e3436" stroke-width="1.5" points="183.5,-13 183.5,-25 "/>
<path fill="none" stroke="#2e3436" stroke-width="1.5" d="M183.5,-25C183.5,-31 177.5,-37 171.5,-37"/>
<polyline fill="none" stroke="#2e3436" stroke-width="1.5" points="171.5,-37 104.5,-37 "/>
<path fill="none" stroke="#2e3436" stroke-width="1.5" d="M104.5,-37C98.5,-37 92.5,-31 92.5,-25"/>
<polyline fill="none" stroke="#2e3436" stroke-width="1.5" points="92.5,-25 92.5,-13 "/>
<path fill="none" stroke="#2e3436" stroke-width="1.5" d="M92.5,-13C92.5,-7 98.5,-1 104.5,-1"/>
<text text-anchor="start" x="100.5" y="-16.8" font-family="FreeSans" font-size="8.00" fill="#1c2021">Node[204]name = &#39;e&#39;</text>
</g>
<!-- N202&#45;&gt;N204 -->
<g id="edge2" class="edge"><title>N202&#45;&gt;N204</title>
<path fill="none" stroke="#2e3436" stroke-width="2" d="M55.3386,-150.906C72.1355,-124.103 103.674,-73.7758 122.564,-43.6318"/>
<polygon fill="#2e3436" stroke="#2e3436" points="126.621,-37.1577 125.498,-45.3051 125.054,-40.6008 123.062,-43.7784 122.639,-43.5129 122.215,-43.2474 124.206,-40.0698 119.779,-41.7207 126.621,-37.1577 126.621,-37.1577"/>
<text text-anchor="middle" x="109" y="-115.8" font-family="FreeSans" font-size="8.00" fill="#2e3436">to</text>
<text text-anchor="start" x="91" y="-105.8" font-family="FreeSans" font-size="8.00" fill="#2e3436">cost = 1.2</text>
</g>
<!-- N203 -->
<g id="node4" class="node"><title>N203</title>
<polygon fill="#ffffff" stroke="#ffffff" stroke-width="1.5" points="214.5,-95 281.5,-95 293.5,-107 293.5,-119 281.5,-131 214.5,-131 202.5,-119 202.5,-107 214.5,-95"/>
<path fill="#ffffff" stroke="#ffffff" stroke-width="1.5" d="M281.5,-95C287.5,-95 293.5,-101 293.5,-107"/>
<path fill="#ffffff" stroke="#ffffff" stroke-width="1.5" d="M293.5,-119C293.5,-125 287.5,-131 281.5,-131"/>
<path fill="#ffffff" stroke="#ffffff" stroke-width="1.5" d="M214.5,-131C208.5,-131 202.5,-125 202.5,-119"/>
<path fill="#ffffff" stroke="#ffffff" stroke-width="1.5" d="M202.5,-107C202.5,-101 208.5,-95 214.5,-95"/>
<polyline fill="none" stroke="#2e3436" stroke-width="1.5" points="214.5,-95 281.5,-95 "/>
<path fill="none" stroke="#2e3436" stroke-width="1.5" d="M281.5,-95C287.5,-95 293.5,-101 293.5,-107"/>
<polyline fill="none" stroke="#2e3436" stroke-width="1.5" points="293.5,-107 293.5,-119 "/>
<path fill="none" stroke="#2e3436" stroke-width="1.5" d="M293.5,-119C293.5,-125 287.5,-131 281.5,-131"/>
<polyline fill="none" stroke="#2e3436" stroke-width="1.5" points="281.5,-131 214.5,-131 "/>
<path fill="none" stroke="#2e3436" stroke-width="1.5" d="M214.5,-131C208.5,-131 202.5,-125 202.5,-119"/>
<polyline fill="none" stroke="#2e3436" stroke-width="1.5" points="202.5,-119 202.5,-107 "/>
<path fill="none" stroke="#2e3436" stroke-width="1.5" d="M202.5,-107C202.5,-101 208.5,-95 214.5,-95"/>
<text text-anchor="start" x="210.5" y="-110.8" font-family="FreeSans" font-size="8.00" fill="#1c2021">Node[203]name = &#39;d&#39;</text>
</g>
<!-- N203&#45;&gt;N204 -->
<g id="edge4" class="edge"><title>N203&#45;&gt;N204</title>
<path fill="none" stroke="#2e3436" stroke-width="2" d="M226.791,-94.8759C209.291,-79.9211 184.338,-58.5983 165.34,-42.3629"/>
<polygon fill="#2e3436" stroke="#2e3436" points="159.144,-37.0685 167.038,-39.3751 162.32,-39.1246 165.171,-41.5608 164.846,-41.9409 164.521,-42.321 161.67,-39.8848 162.653,-44.5067 159.144,-37.0685 159.144,-37.0685"/>
<text text-anchor="middle" x="220" y="-68.8" font-family="FreeSans" font-size="8.00" fill="#2e3436">to</text>
<text text-anchor="start" x="202" y="-58.8" font-family="FreeSans" font-size="8.00" fill="#2e3436">cost = 0.5</text>
</g>
<!-- N205 -->
<g id="node6" class="node"><title>N205</title>
<polygon fill="#ffffff" stroke="#ffffff" stroke-width="1.5" points="104.5,-151 171.5,-151 183.5,-163 183.5,-175 171.5,-187 104.5,-187 92.5,-175 92.5,-163 104.5,-151"/>
<path fill="#ffffff" stroke="#ffffff" stroke-width="1.5" d="M171.5,-151C177.5,-151 183.5,-157 183.5,-163"/>
<path fill="#ffffff" stroke="#ffffff" stroke-width="1.5" d="M183.5,-175C183.5,-181 177.5,-187 171.5,-187"/>
<path fill="#ffffff" stroke="#ffffff" stroke-width="1.5" d="M104.5,-187C98.5,-187 92.5,-181 92.5,-175"/>
<path fill="#ffffff" stroke="#ffffff" stroke-width="1.5" d="M92.5,-163C92.5,-157 98.5,-151 104.5,-151"/>
<polyline fill="none" stroke="#2e3436" stroke-width="1.5" points="104.5,-151 171.5,-151 "/>
<path fill="none" stroke="#2e3436" stroke-width="1.5" d="M171.5,-151C177.5,-151 183.5,-157 183.5,-163"/>
<polyline fill="none" stroke="#2e3436" stroke-width="1.5" points="183.5,-163 183.5,-175 "/>
<path fill="none" stroke="#2e3436" stroke-width="1.5" d="M183.5,-175C183.5,-181 177.5,-187 171.5,-187"/>
<polyline fill="none" stroke="#2e3436" stroke-width="1.5" points="171.5,-187 104.5,-187 "/>
<path fill="none" stroke="#2e3436" stroke-width="1.5" d="M104.5,-187C98.5,-187 92.5,-181 92.5,-175"/>
<polyline fill="none" stroke="#2e3436" stroke-width="1.5" points="92.5,-175 92.5,-163 "/>
<path fill="none" stroke="#2e3436" stroke-width="1.5" d="M92.5,-163C92.5,-157 98.5,-151 104.5,-151"/>
<text text-anchor="start" x="100.5" y="-166.8" font-family="FreeSans" font-size="8.00" fill="#1c2021">Node[205]name = &#39;b&#39;</text>
</g>
<!-- N205&#45;&gt;N204 -->
<g id="edge6" class="edge"><title>N205&#45;&gt;N204</title>
<path fill="none" stroke="#2e3436" stroke-width="2" d="M138,-150.906C138,-124.441 138,-75.0408 138,-44.7812"/>
<polygon fill="#2e3436" stroke="#2e3436" points="138,-37.1577 141.375,-44.6576 138.5,-40.9077 138.5,-44.6577 138,-44.6577 137.5,-44.6577 137.5,-40.9077 134.625,-44.6577 138,-37.1577 138,-37.1577"/>
<text text-anchor="middle" x="156" y="-115.8" font-family="FreeSans" font-size="8.00" fill="#2e3436">to</text>
<text text-anchor="start" x="138" y="-105.8" font-family="FreeSans" font-size="8.00" fill="#2e3436">cost = 0.5</text>
</g>
<!-- N206 -->
<g id="node8" class="node"><title>N206</title>
<polygon fill="#ffffff" stroke="#ffffff" stroke-width="1.5" points="198.5,-207 265.5,-207 277.5,-219 277.5,-231 265.5,-243 198.5,-243 186.5,-231 186.5,-219 198.5,-207"/>
<path fill="#ffffff" stroke="#ffffff" stroke-width="1.5" d="M265.5,-207C271.5,-207 277.5,-213 277.5,-219"/>
<path fill="#ffffff" stroke="#ffffff" stroke-width="1.5" d="M277.5,-231C277.5,-237 271.5,-243 265.5,-243"/>
<path fill="#ffffff" stroke="#ffffff" stroke-width="1.5" d="M198.5,-243C192.5,-243 186.5,-237 186.5,-231"/>
<path fill="#ffffff" stroke="#ffffff" stroke-width="1.5" d="M186.5,-219C186.5,-213 192.5,-207 198.5,-207"/>
<polyline fill="none" stroke="#2e3436" stroke-width="1.5" points="198.5,-207 265.5,-207 "/>
<path fill="none" stroke="#2e3436" stroke-width="1.5" d="M265.5,-207C271.5,-207 277.5,-213 277.5,-219"/>
<polyline fill="none" stroke="#2e3436" stroke-width="1.5" points="277.5,-219 277.5,-231 "/>
<path fill="none" stroke="#2e3436" stroke-width="1.5" d="M277.5,-231C277.5,-237 271.5,-243 265.5,-243"/>
<polyline fill="none" stroke="#2e3436" stroke-width="1.5" points="265.5,-243 198.5,-243 "/>
<path fill="none" stroke="#2e3436" stroke-width="1.5" d="M198.5,-243C192.5,-243 186.5,-237 186.5,-231"/>
<polyline fill="none" stroke="#2e3436" stroke-width="1.5" points="186.5,-231 186.5,-219 "/>
<path fill="none" stroke="#2e3436" stroke-width="1.5" d="M186.5,-219C186.5,-213 192.5,-207 198.5,-207"/>
<text text-anchor="start" x="194.5" y="-222.8" font-family="FreeSans" font-size="8.00" fill="#1c2021">Node[206]name = &#39;c&#39;</text>
</g>
<!-- N206&#45;&gt;N203 -->
<g id="edge8" class="edge"><title>N206&#45;&gt;N203</title>
<path fill="none" stroke="#2e3436" stroke-width="2" d="M234.642,-206.505C237.287,-187.994 241.377,-159.364 244.334,-138.66"/>
<polygon fill="#2e3436" stroke="#2e3436" points="245.407,-131.15 247.687,-139.052 245.372,-134.933 244.841,-138.646 244.346,-138.575 243.851,-138.504 244.382,-134.792 241.005,-138.098 245.407,-131.15 245.407,-131.15"/>
<text text-anchor="middle" x="260" y="-171.8" font-family="FreeSans" font-size="8.00" fill="#2e3436">to</text>
<text text-anchor="start" x="242" y="-161.8" font-family="FreeSans" font-size="8.00" fill="#2e3436">cost = 0.5</text>
</g>
<!-- N207 -->
<g id="node10" class="node"><title>N207</title>
<polygon fill="#ffffff" stroke="#ffffff" stroke-width="1.5" points="104.5,-301 171.5,-301 183.5,-313 183.5,-325 171.5,-337 104.5,-337 92.5,-325 92.5,-313 104.5,-301"/>
<path fill="#ffffff" stroke="#ffffff" stroke-width="1.5" d="M171.5,-301C177.5,-301 183.5,-307 183.5,-313"/>
<path fill="#ffffff" stroke="#ffffff" stroke-width="1.5" d="M183.5,-325C183.5,-331 177.5,-337 171.5,-337"/>
<path fill="#ffffff" stroke="#ffffff" stroke-width="1.5" d="M104.5,-337C98.5,-337 92.5,-331 92.5,-325"/>
<path fill="#ffffff" stroke="#ffffff" stroke-width="1.5" d="M92.5,-313C92.5,-307 98.5,-301 104.5,-301"/>
<polyline fill="none" stroke="#2e3436" stroke-width="1.5" points="104.5,-301 171.5,-301 "/>
<path fill="none" stroke="#2e3436" stroke-width="1.5" d="M171.5,-301C177.5,-301 183.5,-307 183.5,-313"/>
<polyline fill="none" stroke="#2e3436" stroke-width="1.5" points="183.5,-313 183.5,-325 "/>
<path fill="none" stroke="#2e3436" stroke-width="1.5" d="M183.5,-325C183.5,-331 177.5,-337 171.5,-337"/>
<polyline fill="none" stroke="#2e3436" stroke-width="1.5" points="171.5,-337 104.5,-337 "/>
<path fill="none" stroke="#2e3436" stroke-width="1.5" d="M104.5,-337C98.5,-337 92.5,-331 92.5,-325"/>
<polyline fill="none" stroke="#2e3436" stroke-width="1.5" points="92.5,-325 92.5,-313 "/>
<path fill="none" stroke="#2e3436" stroke-width="1.5" d="M92.5,-313C92.5,-307 98.5,-301 104.5,-301"/>
<text text-anchor="start" x="100.5" y="-316.8" font-family="FreeSans" font-size="8.00" fill="#1c2021">Node[207]name = &#39;a&#39;</text>
</g>
<!-- N207&#45;&gt;N202 -->
<g id="edge14" class="edge"><title>N207&#45;&gt;N202</title>
<path fill="none" stroke="#2e3436" stroke-width="2" d="M113.008,-300.695C106.589,-295.184 100.072,-288.783 95,-282 74.7615,-254.937 60.1643,-218.565 51.9014,-194.482"/>
<polygon fill="#2e3436" stroke="#2e3436" points="49.4421,-187.123 55.0201,-193.166 51.1048,-190.521 52.2933,-194.077 51.8191,-194.236 51.3449,-194.394 50.1564,-190.838 48.6181,-195.306 49.4421,-187.123 49.4421,-187.123"/>
<text text-anchor="middle" x="113" y="-274.8" font-family="FreeSans" font-size="8.00" fill="#2e3436">to</text>
<text text-anchor="start" x="95" y="-264.8" font-family="FreeSans" font-size="8.00" fill="#2e3436">cost = 0.5</text>
</g>
<!-- N207&#45;&gt;N205 -->
<g id="edge10" class="edge"><title>N207&#45;&gt;N205</title>
<path fill="none" stroke="#2e3436" stroke-width="2" d="M138,-300.906C138,-274.441 138,-225.041 138,-194.781"/>
<polygon fill="#2e3436" stroke="#2e3436" points="138,-187.158 141.375,-194.658 138.5,-190.908 138.5,-194.658 138,-194.658 137.5,-194.658 137.5,-190.908 134.625,-194.658 138,-187.158 138,-187.158"/>
<text text-anchor="middle" x="156" y="-274.8" font-family="FreeSans" font-size="8.00" fill="#2e3436">to</text>
<text text-anchor="start" x="138" y="-264.8" font-family="FreeSans" font-size="8.00" fill="#2e3436">cost = 1.5</text>
</g>
<!-- N207&#45;&gt;N206 -->
<g id="edge12" class="edge"><title>N207&#45;&gt;N206</title>
<path fill="none" stroke="#2e3436" stroke-width="2" d="M160.367,-300.712C167.159,-294.907 174.531,-288.345 181,-282 191.619,-271.585 202.71,-259.371 211.826,-248.926"/>
<polygon fill="#2e3436" stroke="#2e3436" points="216.947,-243.008 214.591,-250.888 214.871,-246.171 212.417,-249.007 212.039,-248.68 211.661,-248.353 214.115,-245.517 209.487,-246.472 216.947,-243.008 216.947,-243.008"/>
<text text-anchor="middle" x="217" y="-274.8" font-family="FreeSans" font-size="8.00" fill="#2e3436">to</text>
<text text-anchor="start" x="199" y="-264.8" font-family="FreeSans" font-size="8.00" fill="#2e3436">cost = 0.5</text>
</g>
</g>
</svg>
