<?xml version="1.0" encoding="UTF-8" standalone="no"?>
<!DOCTYPE svg PUBLIC "-//W3C//DTD SVG 1.1//EN"
 "http://www.w3.org/Graphics/SVG/1.1/DTD/svg11.dtd">
<!-- Generated by graphviz version 2.26.3 (20100126.1600)
 -->
<!-- Title: g Pages: 1 -->
<svg width="106pt" height="130pt"
 viewBox="0.00 0.00 106.00 130.00" xmlns="http://www.w3.org/2000/svg" xmlns:xlink="http://www.w3.org/1999/xlink">
<g id="graph1" class="graph" transform="scale(1 1) rotate(0) translate(4 126)">
<title>g</title>
<polygon fill="white" stroke="white" points="-4,5 -4,-126 103,-126 103,5 -4,5"/>
<!-- N196 -->
<g id="node1" class="node"><title>N196</title>
<polygon fill="#ffffff" stroke="#ffffff" stroke-width="1.5" points="11.5,-1 86.5,-1 98.5,-13 98.5,-25 86.5,-37 11.5,-37 -0.5,-25 -0.5,-13 11.5,-1"/>
<path fill="#ffffff" stroke="#ffffff" stroke-width="1.5" d="M86.5,-1C92.5,-1 98.5,-7 98.5,-13"/>
<path fill="#ffffff" stroke="#ffffff" stroke-width="1.5" d="M98.5,-25C98.5,-31 92.5,-37 86.5,-37"/>
<path fill="#ffffff" stroke="#ffffff" stroke-width="1.5" d="M11.5,-37C5.5,-37 -0.5,-31 -0.5,-25"/>
<path fill="#ffffff" stroke="#ffffff" stroke-width="1.5" d="M-0.5,-13C-0.5,-7 5.5,-1 11.5,-1"/>
<polyline fill="none" stroke="#2e3436" stroke-width="1.5" points="11.5,-1 86.5,-1 "/>
<path fill="none" stroke="#2e3436" stroke-width="1.5" d="M86.5,-1C92.5,-1 98.5,-7 98.5,-13"/>
<polyline fill="none" stroke="#2e3436" stroke-width="1.5" points="98.5,-13 98.5,-25 "/>
<path fill="none" stroke="#2e3436" stroke-width="1.5" d="M98.5,-25C98.5,-31 92.5,-37 86.5,-37"/>
<polyline fill="none" stroke="#2e3436" stroke-width="1.5" points="86.5,-37 11.5,-37 "/>
<path fill="none" stroke="#2e3436" stroke-width="1.5" d="M11.5,-37C5.5,-37 -0.5,-31 -0.5,-25"/>
<polyline fill="none" stroke="#2e3436" stroke-width="1.5" points="-0.5,-25 -0.5,-13 "/>
<path fill="none" stroke="#2e3436" stroke-width="1.5" d="M-0.5,-13C-0.5,-7 5.5,-1 11.5,-1"/>
<text text-anchor="start" x="7.5" y="-16.8" font-family="FreeSans" font-size="8.00" fill="#1c2021">Node[196]name = &#39;you&#39;</text>
</g>
<!-- N197 -->
<g id="node2" class="node"><title>N197</title>
<polygon fill="#ffffff" stroke="#ffffff" stroke-width="1.5" points="16.5,-85 81.5,-85 93.5,-97 93.5,-109 81.5,-121 16.5,-121 4.5,-109 4.5,-97 16.5,-85"/>
<path fill="#ffffff" stroke="#ffffff" stroke-width="1.5" d="M81.5,-85C87.5,-85 93.5,-91 93.5,-97"/>
<path fill="#ffffff" stroke="#ffffff" stroke-width="1.5" d="M93.5,-109C93.5,-115 87.5,-121 81.5,-121"/>
<path fill="#ffffff" stroke="#ffffff" stroke-width="1.5" d="M16.5,-121C10.5,-121 4.5,-115 4.5,-109"/>
<path fill="#ffffff" stroke="#ffffff" stroke-width="1.5" d="M4.5,-97C4.5,-91 10.5,-85 16.5,-85"/>
<polyline fill="none" stroke="#2e3436" stroke-width="1.5" points="16.5,-85 81.5,-85 "/>
<path fill="none" stroke="#2e3436" stroke-width="1.5" d="M81.5,-85C87.5,-85 93.5,-91 93.5,-97"/>
<polyline fill="none" stroke="#2e3436" stroke-width="1.5" points="93.5,-97 93.5,-109 "/>
<path fill="none" stroke="#2e3436" stroke-width="1.5" d="M93.5,-109C93.5,-115 87.5,-121 81.5,-121"/>
<polyline fill="none" stroke="#2e3436" stroke-width="1.5" points="81.5,-121 16.5,-121 "/>
<path fill="none" stroke="#2e3436" stroke-width="1.5" d="M16.5,-121C10.5,-121 4.5,-115 4.5,-109"/>
<polyline fill="none" stroke="#2e3436" stroke-width="1.5" points="4.5,-109 4.5,-97 "/>
<path fill="none" stroke="#2e3436" stroke-width="1.5" d="M4.5,-97C4.5,-91 10.5,-85 16.5,-85"/>
<text text-anchor="start" x="12.5" y="-100.8" font-family="FreeSans" font-size="8.00" fill="#1c2021">Node[197]name = &#39;I&#39;</text>
</g>
<!-- N197&#45;&gt;N196 -->
<g id="edge2" class="edge"><title>N197&#45;&gt;N196</title>
<path fill="none" stroke="#2e3436" stroke-width="2" d="M49,-84.7733C49,-73.1053 49,-57.7874 49,-44.8699"/>
<polygon fill="#2e3436" stroke="#2e3436" points="49,-37.1912 52.3751,-44.6911 49.5,-40.9412 49.5001,-44.6912 49.0001,-44.6912 48.5001,-44.6912 48.5,-40.9412 45.6251,-44.6912 49,-37.1912 49,-37.1912"/>
<text text-anchor="middle" x="59" y="-58.8" font-family="FreeSans" font-size="8.00" fill="#2e3436">know</text>
</g>
</g>
</svg>
