<?xml version="1.0" encoding="UTF-8" standalone="no"?>
<!DOCTYPE svg PUBLIC "-//W3C//DTD SVG 1.1//EN"
 "http://www.w3.org/Graphics/SVG/1.1/DTD/svg11.dtd">
<!-- Generated by graphviz version 2.26.3 (20100126.1600)
 -->
<!-- Title: g Pages: 1 -->
<svg width="120pt" height="46pt"
 viewBox="0.00 0.00 120.00 46.00" xmlns="http://www.w3.org/2000/svg" xmlns:xlink="http://www.w3.org/1999/xlink">
<g id="graph1" class="graph" transform="scale(1 1) rotate(0) translate(4 42)">
<title>g</title>
<polygon fill="white" stroke="white" points="-4,5 -4,-42 117,-42 117,5 -4,5"/>
<!-- N121 -->
<g id="node1" class="node"><title>N121</title>
<polygon fill="#ffffff" stroke="#ffffff" stroke-width="1.5" points="12,-1 100,-1 112,-13 112,-25 100,-37 12,-37 0,-25 0,-13 12,-1"/>
<path fill="#ffffff" stroke="#ffffff" stroke-width="1.5" d="M100,-1C106,-1 112,-7 112,-13"/>
<path fill="#ffffff" stroke="#ffffff" stroke-width="1.5" d="M112,-25C112,-31 106,-37 100,-37"/>
<path fill="#ffffff" stroke="#ffffff" stroke-width="1.5" d="M12,-37C6,-37 0,-31 0,-25"/>
<path fill="#ffffff" stroke="#ffffff" stroke-width="1.5" d="M0,-13C0,-7 6,-1 12,-1"/>
<polyline fill="none" stroke="#2e3436" stroke-width="1.5" points="12,-1 100,-1 "/>
<path fill="none" stroke="#2e3436" stroke-width="1.5" d="M100,-1C106,-1 112,-7 112,-13"/>
<polyline fill="none" stroke="#2e3436" stroke-width="1.5" points="112,-13 112,-25 "/>
<path fill="none" stroke="#2e3436" stroke-width="1.5" d="M112,-25C112,-31 106,-37 100,-37"/>
<polyline fill="none" stroke="#2e3436" stroke-width="1.5" points="100,-37 12,-37 "/>
<path fill="none" stroke="#2e3436" stroke-width="1.5" d="M12,-37C6,-37 0,-31 0,-25"/>
<polyline fill="none" stroke="#2e3436" stroke-width="1.5" points="0,-25 0,-13 "/>
<path fill="none" stroke="#2e3436" stroke-width="1.5" d="M0,-13C0,-7 6,-1 12,-1"/>
<text text-anchor="middle" x="56" y="-25.8" font-family="FreeSans" font-size="8.00" fill="#1c2021">Node[121]: Actor, Director</text>
<polyline fill="none" stroke="#2e3436" stroke-width="1.5" points="0,-19 112,-19 "/>
<text text-anchor="start" x="8" y="-7.8" font-family="FreeSans" font-size="8.00" fill="#1c2021">name = &#39;Clint Eastwood&#39;</text>
</g>
</g>
</svg>
