<?xml version="1.0" encoding="UTF-8" standalone="no"?>
<!DOCTYPE svg PUBLIC "-//W3C//DTD SVG 1.1//EN"
 "http://www.w3.org/Graphics/SVG/1.1/DTD/svg11.dtd">
<!-- Generated by graphviz version 2.26.3 (20100126.1600)
 -->
<!-- Title: g Pages: 1 -->
<svg width="404pt" height="46pt"
 viewBox="0.00 0.00 404.00 46.00" xmlns="http://www.w3.org/2000/svg" xmlns:xlink="http://www.w3.org/1999/xlink">
<g id="graph1" class="graph" transform="scale(1 1) rotate(0) translate(4 42)">
<title>g</title>
<polygon fill="white" stroke="white" points="-4,5 -4,-42 401,-42 401,5 -4,5"/>
<!-- N112 -->
<g id="node1" class="node"><title>N112</title>
<polygon fill="#ffffff" stroke="#ffffff" stroke-width="1.5" points="12,-1 98,-1 110,-13 110,-25 98,-37 12,-37 0,-25 0,-13 12,-1"/>
<path fill="#ffffff" stroke="#ffffff" stroke-width="1.5" d="M98,-1C104,-1 110,-7 110,-13"/>
<path fill="#ffffff" stroke="#ffffff" stroke-width="1.5" d="M110,-25C110,-31 104,-37 98,-37"/>
<path fill="#ffffff" stroke="#ffffff" stroke-width="1.5" d="M12,-37C6,-37 0,-31 0,-25"/>
<path fill="#ffffff" stroke="#ffffff" stroke-width="1.5" d="M0,-13C0,-7 6,-1 12,-1"/>
<polyline fill="none" stroke="#2e3436" stroke-width="1.5" points="12,-1 98,-1 "/>
<path fill="none" stroke="#2e3436" stroke-width="1.5" d="M98,-1C104,-1 110,-7 110,-13"/>
<polyline fill="none" stroke="#2e3436" stroke-width="1.5" points="110,-13 110,-25 "/>
<path fill="none" stroke="#2e3436" stroke-width="1.5" d="M110,-25C110,-31 104,-37 98,-37"/>
<polyline fill="none" stroke="#2e3436" stroke-width="1.5" points="98,-37 12,-37 "/>
<path fill="none" stroke="#2e3436" stroke-width="1.5" d="M12,-37C6,-37 0,-31 0,-25"/>
<polyline fill="none" stroke="#2e3436" stroke-width="1.5" points="0,-25 0,-13 "/>
<path fill="none" stroke="#2e3436" stroke-width="1.5" d="M0,-13C0,-7 6,-1 12,-1"/>
<text text-anchor="middle" x="55" y="-25.8" font-family="FreeSans" font-size="8.00" fill="#1c2021">Node[112]: Director</text>
<polyline fill="none" stroke="#2e3436" stroke-width="1.5" points="0,-19 110,-19 "/>
<text text-anchor="start" x="8" y="-7.8" font-family="FreeSans" font-size="8.00" fill="#1c2021">name = &#39;Steven Spielberg&#39;</text>
</g>
<!-- N113 -->
<g id="node2" class="node"><title>N113</title>
<polygon fill="#ffffff" stroke="#ffffff" stroke-width="1.5" points="151,-1 239,-1 251,-13 251,-25 239,-37 151,-37 139,-25 139,-13 151,-1"/>
<path fill="#ffffff" stroke="#ffffff" stroke-width="1.5" d="M239,-1C245,-1 251,-7 251,-13"/>
<path fill="#ffffff" stroke="#ffffff" stroke-width="1.5" d="M251,-25C251,-31 245,-37 239,-37"/>
<path fill="#ffffff" stroke="#ffffff" stroke-width="1.5" d="M151,-37C145,-37 139,-31 139,-25"/>
<path fill="#ffffff" stroke="#ffffff" stroke-width="1.5" d="M139,-13C139,-7 145,-1 151,-1"/>
<polyline fill="none" stroke="#2e3436" stroke-width="1.5" points="151,-1 239,-1 "/>
<path fill="none" stroke="#2e3436" stroke-width="1.5" d="M239,-1C245,-1 251,-7 251,-13"/>
<polyline fill="none" stroke="#2e3436" stroke-width="1.5" points="251,-13 251,-25 "/>
<path fill="none" stroke="#2e3436" stroke-width="1.5" d="M251,-25C251,-31 245,-37 239,-37"/>
<polyline fill="none" stroke="#2e3436" stroke-width="1.5" points="239,-37 151,-37 "/>
<path fill="none" stroke="#2e3436" stroke-width="1.5" d="M151,-37C145,-37 139,-31 139,-25"/>
<polyline fill="none" stroke="#2e3436" stroke-width="1.5" points="139,-25 139,-13 "/>
<path fill="none" stroke="#2e3436" stroke-width="1.5" d="M139,-13C139,-7 145,-1 151,-1"/>
<text text-anchor="middle" x="195" y="-25.8" font-family="FreeSans" font-size="8.00" fill="#1c2021">Node[113]: Director, Actor</text>
<polyline fill="none" stroke="#2e3436" stroke-width="1.5" points="139,-19 251,-19 "/>
<text text-anchor="start" x="147" y="-7.8" font-family="FreeSans" font-size="8.00" fill="#1c2021">name = &#39;Clint Eastwood&#39;</text>
</g>
<!-- N114 -->
<g id="node3" class="node"><title>N114</title>
<polygon fill="#ffffff" stroke="#ffffff" stroke-width="1.5" points="292,-1 384,-1 396,-13 396,-25 384,-37 292,-37 280,-25 280,-13 292,-1"/>
<path fill="#ffffff" stroke="#ffffff" stroke-width="1.5" d="M384,-1C390,-1 396,-7 396,-13"/>
<path fill="#ffffff" stroke="#ffffff" stroke-width="1.5" d="M396,-25C396,-31 390,-37 384,-37"/>
<path fill="#ffffff" stroke="#ffffff" stroke-width="1.5" d="M292,-37C286,-37 280,-31 280,-25"/>
<path fill="#ffffff" stroke="#ffffff" stroke-width="1.5" d="M280,-13C280,-7 286,-1 292,-1"/>
<polyline fill="none" stroke="#2e3436" stroke-width="1.5" points="292,-1 384,-1 "/>
<path fill="none" stroke="#2e3436" stroke-width="1.5" d="M384,-1C390,-1 396,-7 396,-13"/>
<polyline fill="none" stroke="#2e3436" stroke-width="1.5" points="396,-13 396,-25 "/>
<path fill="none" stroke="#2e3436" stroke-width="1.5" d="M396,-25C396,-31 390,-37 384,-37"/>
<polyline fill="none" stroke="#2e3436" stroke-width="1.5" points="384,-37 292,-37 "/>
<path fill="none" stroke="#2e3436" stroke-width="1.5" d="M292,-37C286,-37 280,-31 280,-25"/>
<polyline fill="none" stroke="#2e3436" stroke-width="1.5" points="280,-25 280,-13 "/>
<path fill="none" stroke="#2e3436" stroke-width="1.5" d="M280,-13C280,-7 286,-1 292,-1"/>
<text text-anchor="middle" x="338" y="-25.8" font-family="FreeSans" font-size="8.00" fill="#1c2021">Node[114]: Actor</text>
<polyline fill="none" stroke="#2e3436" stroke-width="1.5" points="280,-19 396,-19 "/>
<text text-anchor="start" x="288" y="-7.8" font-family="FreeSans" font-size="8.00" fill="#1c2021">name = &#39;Donald Sutherland&#39;</text>
</g>
</g>
</svg>
