<?xml version="1.0" encoding="UTF-8" standalone="no"?>
<!DOCTYPE svg PUBLIC "-//W3C//DTD SVG 1.1//EN"
 "http://www.w3.org/Graphics/SVG/1.1/DTD/svg11.dtd">
<!-- Generated by graphviz version 2.26.3 (20100126.1600)
 -->
<!-- Title: g Pages: 1 -->
<svg width="112pt" height="46pt"
 viewBox="0.00 0.00 112.00 46.00" xmlns="http://www.w3.org/2000/svg" xmlns:xlink="http://www.w3.org/1999/xlink">
<g id="graph1" class="graph" transform="scale(1 1) rotate(0) translate(4 42)">
<title>g</title>
<polygon fill="white" stroke="white" points="-4,5 -4,-42 109,-42 109,5 -4,5"/>
<!-- N48 -->
<g id="node1" class="node"><title>N48</title>
<polygon fill="#ffffff" stroke="#ffffff" stroke-width="1.5" points="12,-1 92,-1 104,-13 104,-25 92,-37 12,-37 0,-25 0,-13 12,-1"/>
<path fill="#ffffff" stroke="#ffffff" stroke-width="1.5" d="M92,-1C98,-1 104,-7 104,-13"/>
<path fill="#ffffff" stroke="#ffffff" stroke-width="1.5" d="M104,-25C104,-31 98,-37 92,-37"/>
<path fill="#ffffff" stroke="#ffffff" stroke-width="1.5" d="M12,-37C6,-37 0,-31 0,-25"/>
<path fill="#ffffff" stroke="#ffffff" stroke-width="1.5" d="M0,-13C0,-7 6,-1 12,-1"/>
<polyline fill="none" stroke="#2e3436" stroke-width="1.5" points="12,-1 92,-1 "/>
<path fill="none" stroke="#2e3436" stroke-width="1.5" d="M92,-1C98,-1 104,-7 104,-13"/>
<polyline fill="none" stroke="#2e3436" stroke-width="1.5" points="104,-13 104,-25 "/>
<path fill="none" stroke="#2e3436" stroke-width="1.5" d="M104,-25C104,-31 98,-37 92,-37"/>
<polyline fill="none" stroke="#2e3436" stroke-width="1.5" points="92,-37 12,-37 "/>
<path fill="none" stroke="#2e3436" stroke-width="1.5" d="M12,-37C6,-37 0,-31 0,-25"/>
<polyline fill="none" stroke="#2e3436" stroke-width="1.5" points="0,-25 0,-13 "/>
<path fill="none" stroke="#2e3436" stroke-width="1.5" d="M0,-13C0,-7 6,-1 12,-1"/>
<text text-anchor="middle" x="52" y="-25.8" font-family="FreeSans" font-size="8.00" fill="#1c2021">Node[48]: Person, Actor</text>
<polyline fill="none" stroke="#2e3436" stroke-width="1.5" points="0,-19 104,-19 "/>
<text text-anchor="start" x="8" y="-7.8" font-family="FreeSans" font-size="8.00" fill="#1c2021">name = &#39;Clint Eastwood&#39;</text>
</g>
</g>
</svg>
