<?xml version="1.0" encoding="UTF-8" standalone="no"?>
<!DOCTYPE svg PUBLIC "-//W3C//DTD SVG 1.1//EN"
 "http://www.w3.org/Graphics/SVG/1.1/DTD/svg11.dtd">
<!-- Generated by graphviz version 2.26.3 (20100126.1600)
 -->
<!-- Title: g Pages: 1 -->
<svg width="359pt" height="382pt"
 viewBox="0.00 0.00 359.00 382.00" xmlns="http://www.w3.org/2000/svg" xmlns:xlink="http://www.w3.org/1999/xlink">
<g id="graph1" class="graph" transform="scale(1 1) rotate(0) translate(4 378)">
<title>g</title>
<polygon fill="white" stroke="white" points="-4,5 -4,-378 356,-378 356,5 -4,5"/>
<!-- N13 -->
<g id="node1" class="node"><title>N13</title>
<polygon fill="#ffffff" stroke="#ffffff" stroke-width="1.5" points="252,-85 312,-85 324,-97 324,-109 312,-121 252,-121 240,-109 240,-97 252,-85"/>
<path fill="#ffffff" stroke="#ffffff" stroke-width="1.5" d="M312,-85C318,-85 324,-91 324,-97"/>
<path fill="#ffffff" stroke="#ffffff" stroke-width="1.5" d="M324,-109C324,-115 318,-121 312,-121"/>
<path fill="#ffffff" stroke="#ffffff" stroke-width="1.5" d="M252,-121C246,-121 240,-115 240,-109"/>
<path fill="#ffffff" stroke="#ffffff" stroke-width="1.5" d="M240,-97C240,-91 246,-85 252,-85"/>
<polyline fill="none" stroke="#2e3436" stroke-width="1.5" points="252,-85 312,-85 "/>
<path fill="none" stroke="#2e3436" stroke-width="1.5" d="M312,-85C318,-85 324,-91 324,-97"/>
<polyline fill="none" stroke="#2e3436" stroke-width="1.5" points="324,-97 324,-109 "/>
<path fill="none" stroke="#2e3436" stroke-width="1.5" d="M324,-109C324,-115 318,-121 312,-121"/>
<polyline fill="none" stroke="#2e3436" stroke-width="1.5" points="312,-121 252,-121 "/>
<path fill="none" stroke="#2e3436" stroke-width="1.5" d="M252,-121C246,-121 240,-115 240,-109"/>
<polyline fill="none" stroke="#2e3436" stroke-width="1.5" points="240,-109 240,-97 "/>
<path fill="none" stroke="#2e3436" stroke-width="1.5" d="M240,-97C240,-91 246,-85 252,-85"/>
<text text-anchor="start" x="248" y="-100.8" font-family="FreeSans" font-size="8.00" fill="#1c2021">Node[13]name = &#39;f&#39;</text>
</g>
<!-- N14 -->
<g id="node3" class="node"><title>N14</title>
<polygon fill="#ffffff" stroke="#ffffff" stroke-width="1.5" points="138,-1 200,-1 212,-13 212,-25 200,-37 138,-37 126,-25 126,-13 138,-1"/>
<path fill="#ffffff" stroke="#ffffff" stroke-width="1.5" d="M200,-1C206,-1 212,-7 212,-13"/>
<path fill="#ffffff" stroke="#ffffff" stroke-width="1.5" d="M212,-25C212,-31 206,-37 200,-37"/>
<path fill="#ffffff" stroke="#ffffff" stroke-width="1.5" d="M138,-37C132,-37 126,-31 126,-25"/>
<path fill="#ffffff" stroke="#ffffff" stroke-width="1.5" d="M126,-13C126,-7 132,-1 138,-1"/>
<polyline fill="none" stroke="#2e3436" stroke-width="1.5" points="138,-1 200,-1 "/>
<path fill="none" stroke="#2e3436" stroke-width="1.5" d="M200,-1C206,-1 212,-7 212,-13"/>
<polyline fill="none" stroke="#2e3436" stroke-width="1.5" points="212,-13 212,-25 "/>
<path fill="none" stroke="#2e3436" stroke-width="1.5" d="M212,-25C212,-31 206,-37 200,-37"/>
<polyline fill="none" stroke="#2e3436" stroke-width="1.5" points="200,-37 138,-37 "/>
<path fill="none" stroke="#2e3436" stroke-width="1.5" d="M138,-37C132,-37 126,-31 126,-25"/>
<polyline fill="none" stroke="#2e3436" stroke-width="1.5" points="126,-25 126,-13 "/>
<path fill="none" stroke="#2e3436" stroke-width="1.5" d="M126,-13C126,-7 132,-1 138,-1"/>
<text text-anchor="start" x="134" y="-16.8" font-family="FreeSans" font-size="8.00" fill="#1c2021">Node[14]name = &#39;g&#39;</text>
</g>
<!-- N13&#45;&gt;N14 -->
<g id="edge2" class="edge"><title>N13&#45;&gt;N14</title>
<path fill="none" stroke="#2e3436" stroke-width="2" d="M257.759,-84.9799C240.894,-72.4431 218.262,-55.6194 200.073,-42.0982"/>
<polygon fill="#2e3436" stroke="#2e3436" points="193.591,-37.2801 201.624,-39.046 196.899,-39.1161 199.909,-41.3533 199.61,-41.7546 199.312,-42.1559 196.302,-39.9186 197.597,-44.4632 193.591,-37.2801 193.591,-37.2801"/>
<text text-anchor="middle" x="231.5" y="-58.8" font-family="FreeSans" font-size="8.00" fill="#2e3436">to</text>
</g>
<!-- N15 -->
<g id="node4" class="node"><title>N15</title>
<polygon fill="#ffffff" stroke="#ffffff" stroke-width="1.5" points="77,-169 139,-169 151,-181 151,-193 139,-205 77,-205 65,-193 65,-181 77,-169"/>
<path fill="#ffffff" stroke="#ffffff" stroke-width="1.5" d="M139,-169C145,-169 151,-175 151,-181"/>
<path fill="#ffffff" stroke="#ffffff" stroke-width="1.5" d="M151,-193C151,-199 145,-205 139,-205"/>
<path fill="#ffffff" stroke="#ffffff" stroke-width="1.5" d="M77,-205C71,-205 65,-199 65,-193"/>
<path fill="#ffffff" stroke="#ffffff" stroke-width="1.5" d="M65,-181C65,-175 71,-169 77,-169"/>
<polyline fill="none" stroke="#2e3436" stroke-width="1.5" points="77,-169 139,-169 "/>
<path fill="none" stroke="#2e3436" stroke-width="1.5" d="M139,-169C145,-169 151,-175 151,-181"/>
<polyline fill="none" stroke="#2e3436" stroke-width="1.5" points="151,-181 151,-193 "/>
<path fill="none" stroke="#2e3436" stroke-width="1.5" d="M151,-193C151,-199 145,-205 139,-205"/>
<polyline fill="none" stroke="#2e3436" stroke-width="1.5" points="139,-205 77,-205 "/>
<path fill="none" stroke="#2e3436" stroke-width="1.5" d="M77,-205C71,-205 65,-199 65,-193"/>
<polyline fill="none" stroke="#2e3436" stroke-width="1.5" points="65,-193 65,-181 "/>
<path fill="none" stroke="#2e3436" stroke-width="1.5" d="M65,-181C65,-175 71,-169 77,-169"/>
<text text-anchor="start" x="73" y="-184.8" font-family="FreeSans" font-size="8.00" fill="#1c2021">Node[15]name = &#39;d&#39;</text>
</g>
<!-- N15&#45;&gt;N14 -->
<g id="edge6" class="edge"><title>N15&#45;&gt;N14</title>
<path fill="none" stroke="#2e3436" stroke-width="2" d="M114.644,-168.701C125.582,-138.578 147.401,-78.4856 159.811,-44.3077"/>
<polygon fill="#2e3436" stroke="#2e3436" points="162.456,-37.0219 163.069,-45.2235 161.646,-40.7174 160.367,-44.2422 159.897,-44.0716 159.427,-43.9009 160.706,-40.3761 156.724,-42.9197 162.456,-37.0219 162.456,-37.0219"/>
<text text-anchor="middle" x="148.5" y="-100.8" font-family="FreeSans" font-size="8.00" fill="#2e3436">to</text>
</g>
<!-- N16 -->
<g id="node6" class="node"><title>N16</title>
<polygon fill="#ffffff" stroke="#ffffff" stroke-width="1.5" points="12,-85 74,-85 86,-97 86,-109 74,-121 12,-121 0,-109 0,-97 12,-85"/>
<path fill="#ffffff" stroke="#ffffff" stroke-width="1.5" d="M74,-85C80,-85 86,-91 86,-97"/>
<path fill="#ffffff" stroke="#ffffff" stroke-width="1.5" d="M86,-109C86,-115 80,-121 74,-121"/>
<path fill="#ffffff" stroke="#ffffff" stroke-width="1.5" d="M12,-121C6,-121 0,-115 0,-109"/>
<path fill="#ffffff" stroke="#ffffff" stroke-width="1.5" d="M0,-97C0,-91 6,-85 12,-85"/>
<polyline fill="none" stroke="#2e3436" stroke-width="1.5" points="12,-85 74,-85 "/>
<path fill="none" stroke="#2e3436" stroke-width="1.5" d="M74,-85C80,-85 86,-91 86,-97"/>
<polyline fill="none" stroke="#2e3436" stroke-width="1.5" points="86,-97 86,-109 "/>
<path fill="none" stroke="#2e3436" stroke-width="1.5" d="M86,-109C86,-115 80,-121 74,-121"/>
<polyline fill="none" stroke="#2e3436" stroke-width="1.5" points="74,-121 12,-121 "/>
<path fill="none" stroke="#2e3436" stroke-width="1.5" d="M12,-121C6,-121 0,-115 0,-109"/>
<polyline fill="none" stroke="#2e3436" stroke-width="1.5" points="0,-109 0,-97 "/>
<path fill="none" stroke="#2e3436" stroke-width="1.5" d="M0,-97C0,-91 6,-85 12,-85"/>
<text text-anchor="start" x="8" y="-100.8" font-family="FreeSans" font-size="8.00" fill="#1c2021">Node[16]name = &#39;e&#39;</text>
</g>
<!-- N15&#45;&gt;N16 -->
<g id="edge4" class="edge"><title>N15&#45;&gt;N16</title>
<path fill="none" stroke="#2e3436" stroke-width="2" d="M93.896,-168.773C84.5265,-156.665 72.1155,-140.626 61.895,-127.418"/>
<polygon fill="#2e3436" stroke="#2e3436" points="57.0765,-121.191 64.3356,-125.057 59.7669,-123.851 62.0619,-126.817 61.6664,-127.123 61.271,-127.429 58.976,-124.463 58.9972,-129.188 57.0765,-121.191 57.0765,-121.191"/>
<text text-anchor="middle" x="81.5" y="-142.8" font-family="FreeSans" font-size="8.00" fill="#2e3436">to</text>
</g>
<!-- N16&#45;&gt;N14 -->
<g id="edge8" class="edge"><title>N16&#45;&gt;N14</title>
<path fill="none" stroke="#2e3436" stroke-width="2" d="M70.0302,-84.9799C89.0828,-72.2781 114.736,-55.1759 135.151,-41.5662"/>
<polygon fill="#2e3436" stroke="#2e3436" points="141.58,-37.2801 137.212,-44.2486 138.737,-39.7763 135.617,-41.8565 135.339,-41.4404 135.062,-41.0244 138.182,-38.9443 133.467,-38.6323 141.58,-37.2801 141.58,-37.2801"/>
<text text-anchor="middle" x="113.5" y="-58.8" font-family="FreeSans" font-size="8.00" fill="#2e3436">to</text>
</g>
<!-- N17 -->
<g id="node9" class="node"><title>N17</title>
<polygon fill="#ffffff" stroke="#ffffff" stroke-width="1.5" points="251,-169 313,-169 325,-181 325,-193 313,-205 251,-205 239,-193 239,-181 251,-169"/>
<path fill="#ffffff" stroke="#ffffff" stroke-width="1.5" d="M313,-169C319,-169 325,-175 325,-181"/>
<path fill="#ffffff" stroke="#ffffff" stroke-width="1.5" d="M325,-193C325,-199 319,-205 313,-205"/>
<path fill="#ffffff" stroke="#ffffff" stroke-width="1.5" d="M251,-205C245,-205 239,-199 239,-193"/>
<path fill="#ffffff" stroke="#ffffff" stroke-width="1.5" d="M239,-181C239,-175 245,-169 251,-169"/>
<polyline fill="none" stroke="#2e3436" stroke-width="1.5" points="251,-169 313,-169 "/>
<path fill="none" stroke="#2e3436" stroke-width="1.5" d="M313,-169C319,-169 325,-175 325,-181"/>
<polyline fill="none" stroke="#2e3436" stroke-width="1.5" points="325,-181 325,-193 "/>
<path fill="none" stroke="#2e3436" stroke-width="1.5" d="M325,-193C325,-199 319,-205 313,-205"/>
<polyline fill="none" stroke="#2e3436" stroke-width="1.5" points="313,-205 251,-205 "/>
<path fill="none" stroke="#2e3436" stroke-width="1.5" d="M251,-205C245,-205 239,-199 239,-193"/>
<polyline fill="none" stroke="#2e3436" stroke-width="1.5" points="239,-193 239,-181 "/>
<path fill="none" stroke="#2e3436" stroke-width="1.5" d="M239,-181C239,-175 245,-169 251,-169"/>
<text text-anchor="start" x="247" y="-184.8" font-family="FreeSans" font-size="8.00" fill="#1c2021">Node[17]name = &#39;b&#39;</text>
</g>
<!-- N17&#45;&gt;N13 -->
<g id="edge10" class="edge"><title>N17&#45;&gt;N13</title>
<path fill="none" stroke="#2e3436" stroke-width="2" d="M282,-168.773C282,-157.105 282,-141.787 282,-128.87"/>
<polygon fill="#2e3436" stroke="#2e3436" points="282,-121.191 285.375,-128.691 282.5,-124.941 282.5,-128.691 282,-128.691 281.5,-128.691 281.5,-124.941 278.625,-128.691 282,-121.191 282,-121.191"/>
<text text-anchor="middle" x="285.5" y="-142.8" font-family="FreeSans" font-size="8.00" fill="#2e3436">to</text>
</g>
<!-- N18 -->
<g id="node11" class="node"><title>N18</title>
<polygon fill="#ffffff" stroke="#ffffff" stroke-width="1.5" points="209,-253 271,-253 283,-265 283,-277 271,-289 209,-289 197,-277 197,-265 209,-253"/>
<path fill="#ffffff" stroke="#ffffff" stroke-width="1.5" d="M271,-253C277,-253 283,-259 283,-265"/>
<path fill="#ffffff" stroke="#ffffff" stroke-width="1.5" d="M283,-277C283,-283 277,-289 271,-289"/>
<path fill="#ffffff" stroke="#ffffff" stroke-width="1.5" d="M209,-289C203,-289 197,-283 197,-277"/>
<path fill="#ffffff" stroke="#ffffff" stroke-width="1.5" d="M197,-265C197,-259 203,-253 209,-253"/>
<polyline fill="none" stroke="#2e3436" stroke-width="1.5" points="209,-253 271,-253 "/>
<path fill="none" stroke="#2e3436" stroke-width="1.5" d="M271,-253C277,-253 283,-259 283,-265"/>
<polyline fill="none" stroke="#2e3436" stroke-width="1.5" points="283,-265 283,-277 "/>
<path fill="none" stroke="#2e3436" stroke-width="1.5" d="M283,-277C283,-283 277,-289 271,-289"/>
<polyline fill="none" stroke="#2e3436" stroke-width="1.5" points="271,-289 209,-289 "/>
<path fill="none" stroke="#2e3436" stroke-width="1.5" d="M209,-289C203,-289 197,-283 197,-277"/>
<polyline fill="none" stroke="#2e3436" stroke-width="1.5" points="197,-277 197,-265 "/>
<path fill="none" stroke="#2e3436" stroke-width="1.5" d="M197,-265C197,-259 203,-253 209,-253"/>
<text text-anchor="start" x="205" y="-268.8" font-family="FreeSans" font-size="8.00" fill="#1c2021">Node[18]name = &#39;c&#39;</text>
</g>
<!-- N18&#45;&gt;N13 -->
<g id="edge14" class="edge"><title>N18&#45;&gt;N13</title>
<path fill="none" stroke="#2e3436" stroke-width="2" d="M283.091,-254.723C304.292,-244.265 327.852,-228.385 340,-206 354.916,-178.514 331.524,-147.255 310.145,-126.454"/>
<polygon fill="#2e3436" stroke="#2e3436" points="304.49,-121.138 312.266,-123.816 307.565,-123.342 310.297,-125.911 309.955,-126.275 309.612,-126.64 306.88,-124.071 307.643,-128.734 304.49,-121.138 304.49,-121.138"/>
<text text-anchor="middle" x="347.5" y="-184.8" font-family="FreeSans" font-size="8.00" fill="#2e3436">to</text>
</g>
<!-- N18&#45;&gt;N14 -->
<g id="edge16" class="edge"><title>N18&#45;&gt;N14</title>
<path fill="none" stroke="#2e3436" stroke-width="2" d="M234.894,-252.877C222.464,-208.759 190.6,-95.6642 176.226,-44.6461"/>
<polygon fill="#2e3436" stroke="#2e3436" points="174.155,-37.2976 179.438,-43.6013 175.654,-40.7715 176.671,-44.381 176.189,-44.5166 175.708,-44.6522 174.691,-41.0427 172.941,-45.4318 174.155,-37.2976 174.155,-37.2976"/>
<text text-anchor="middle" x="208.5" y="-142.8" font-family="FreeSans" font-size="8.00" fill="#2e3436">to</text>
</g>
<!-- N18&#45;&gt;N17 -->
<g id="edge12" class="edge"><title>N18&#45;&gt;N17</title>
<path fill="none" stroke="#2e3436" stroke-width="2" d="M249.113,-252.773C255.057,-240.885 262.896,-225.208 269.429,-212.141"/>
<polygon fill="#2e3436" stroke="#2e3436" points="272.904,-205.191 272.569,-213.409 271.675,-208.769 269.997,-212.123 269.55,-211.899 269.103,-211.676 270.78,-208.322 266.532,-210.39 272.904,-205.191 272.904,-205.191"/>
<text text-anchor="middle" x="265.5" y="-226.8" font-family="FreeSans" font-size="8.00" fill="#2e3436">to</text>
</g>
<!-- N19 -->
<g id="node15" class="node"><title>N19</title>
<polygon fill="#ffffff" stroke="#ffffff" stroke-width="1.5" points="144,-337 206,-337 218,-349 218,-361 206,-373 144,-373 132,-361 132,-349 144,-337"/>
<path fill="#ffffff" stroke="#ffffff" stroke-width="1.5" d="M206,-337C212,-337 218,-343 218,-349"/>
<path fill="#ffffff" stroke="#ffffff" stroke-width="1.5" d="M218,-361C218,-367 212,-373 206,-373"/>
<path fill="#ffffff" stroke="#ffffff" stroke-width="1.5" d="M144,-373C138,-373 132,-367 132,-361"/>
<path fill="#ffffff" stroke="#ffffff" stroke-width="1.5" d="M132,-349C132,-343 138,-337 144,-337"/>
<polyline fill="none" stroke="#2e3436" stroke-width="1.5" points="144,-337 206,-337 "/>
<path fill="none" stroke="#2e3436" stroke-width="1.5" d="M206,-337C212,-337 218,-343 218,-349"/>
<polyline fill="none" stroke="#2e3436" stroke-width="1.5" points="218,-349 218,-361 "/>
<path fill="none" stroke="#2e3436" stroke-width="1.5" d="M218,-361C218,-367 212,-373 206,-373"/>
<polyline fill="none" stroke="#2e3436" stroke-width="1.5" points="206,-373 144,-373 "/>
<path fill="none" stroke="#2e3436" stroke-width="1.5" d="M144,-373C138,-373 132,-367 132,-361"/>
<polyline fill="none" stroke="#2e3436" stroke-width="1.5" points="132,-361 132,-349 "/>
<path fill="none" stroke="#2e3436" stroke-width="1.5" d="M132,-349C132,-343 138,-337 144,-337"/>
<text text-anchor="start" x="140" y="-352.8" font-family="FreeSans" font-size="8.00" fill="#1c2021">Node[19]name = &#39;a&#39;</text>
</g>
<!-- N19&#45;&gt;N15 -->
<g id="edge20" class="edge"><title>N19&#45;&gt;N15</title>
<path fill="none" stroke="#2e3436" stroke-width="2" d="M167.702,-336.701C155.689,-306.578 131.723,-246.486 118.093,-212.308"/>
<polygon fill="#2e3436" stroke="#2e3436" points="115.187,-205.022 121.101,-210.738 117.041,-208.32 118.43,-211.803 117.966,-211.988 117.501,-212.174 116.112,-208.69 114.831,-213.239 115.187,-205.022 115.187,-205.022"/>
<text text-anchor="middle" x="152.5" y="-268.8" font-family="FreeSans" font-size="8.00" fill="#2e3436">to</text>
</g>
<!-- N19&#45;&gt;N18 -->
<g id="edge18" class="edge"><title>N19&#45;&gt;N18</title>
<path fill="none" stroke="#2e3436" stroke-width="2" d="M189.104,-336.773C198.474,-324.665 210.885,-308.626 221.105,-295.418"/>
<polygon fill="#2e3436" stroke="#2e3436" points="225.923,-289.191 224.003,-297.188 224.024,-292.463 221.729,-295.429 221.334,-295.123 220.938,-294.817 223.233,-291.851 218.664,-293.057 225.923,-289.191 225.923,-289.191"/>
<text text-anchor="middle" x="212.5" y="-310.8" font-family="FreeSans" font-size="8.00" fill="#2e3436">to</text>
</g>
</g>
</svg>
