<?xml version="1.0" encoding="UTF-8" standalone="no"?>
<!DOCTYPE svg PUBLIC "-//W3C//DTD SVG 1.1//EN"
 "http://www.w3.org/Graphics/SVG/1.1/DTD/svg11.dtd">
<!-- Generated by graphviz version 2.26.3 (20100126.1600)
 -->
<!-- Title: g Pages: 1 -->
<svg width="442pt" height="46pt"
 viewBox="0.00 0.00 442.00 46.00" xmlns="http://www.w3.org/2000/svg" xmlns:xlink="http://www.w3.org/1999/xlink">
<g id="graph1" class="graph" transform="scale(1 1) rotate(0) translate(4 42)">
<title>g</title>
<polygon fill="white" stroke="white" points="-4,5 -4,-42 439,-42 439,5 -4,5"/>
<!-- N108 -->
<g id="node1" class="node"><title>N108</title>
<polygon fill="#ffffff" stroke="#ffffff" stroke-width="1.5" points="12,-1 106,-1 118,-13 118,-25 106,-37 12,-37 0,-25 0,-13 12,-1"/>
<path fill="#ffffff" stroke="#ffffff" stroke-width="1.5" d="M106,-1C112,-1 118,-7 118,-13"/>
<path fill="#ffffff" stroke="#ffffff" stroke-width="1.5" d="M118,-25C118,-31 112,-37 106,-37"/>
<path fill="#ffffff" stroke="#ffffff" stroke-width="1.5" d="M12,-37C6,-37 0,-31 0,-25"/>
<path fill="#ffffff" stroke="#ffffff" stroke-width="1.5" d="M0,-13C0,-7 6,-1 12,-1"/>
<polyline fill="none" stroke="#2e3436" stroke-width="1.5" points="12,-1 106,-1 "/>
<path fill="none" stroke="#2e3436" stroke-width="1.5" d="M106,-1C112,-1 118,-7 118,-13"/>
<polyline fill="none" stroke="#2e3436" stroke-width="1.5" points="118,-13 118,-25 "/>
<path fill="none" stroke="#2e3436" stroke-width="1.5" d="M118,-25C118,-31 112,-37 106,-37"/>
<polyline fill="none" stroke="#2e3436" stroke-width="1.5" points="106,-37 12,-37 "/>
<path fill="none" stroke="#2e3436" stroke-width="1.5" d="M12,-37C6,-37 0,-31 0,-25"/>
<polyline fill="none" stroke="#2e3436" stroke-width="1.5" points="0,-25 0,-13 "/>
<path fill="none" stroke="#2e3436" stroke-width="1.5" d="M0,-13C0,-7 6,-1 12,-1"/>
<text text-anchor="middle" x="59" y="-25.8" font-family="FreeSans" font-size="8.00" fill="#1c2021">Node[108]: Person, Director</text>
<polyline fill="none" stroke="#2e3436" stroke-width="1.5" points="0,-19 118,-19 "/>
<text text-anchor="start" x="8" y="-7.8" font-family="FreeSans" font-size="8.00" fill="#1c2021">name = &#39;Steven Spielberg&#39;</text>
</g>
<!-- N109 -->
<g id="node2" class="node"><title>N109</title>
<polygon fill="#ffffff" stroke="#ffffff" stroke-width="1.5" points="159,-1 277,-1 289,-13 289,-25 277,-37 159,-37 147,-25 147,-13 159,-1"/>
<path fill="#ffffff" stroke="#ffffff" stroke-width="1.5" d="M277,-1C283,-1 289,-7 289,-13"/>
<path fill="#ffffff" stroke="#ffffff" stroke-width="1.5" d="M289,-25C289,-31 283,-37 277,-37"/>
<path fill="#ffffff" stroke="#ffffff" stroke-width="1.5" d="M159,-37C153,-37 147,-31 147,-25"/>
<path fill="#ffffff" stroke="#ffffff" stroke-width="1.5" d="M147,-13C147,-7 153,-1 159,-1"/>
<polyline fill="none" stroke="#2e3436" stroke-width="1.5" points="159,-1 277,-1 "/>
<path fill="none" stroke="#2e3436" stroke-width="1.5" d="M277,-1C283,-1 289,-7 289,-13"/>
<polyline fill="none" stroke="#2e3436" stroke-width="1.5" points="289,-13 289,-25 "/>
<path fill="none" stroke="#2e3436" stroke-width="1.5" d="M289,-25C289,-31 283,-37 277,-37"/>
<polyline fill="none" stroke="#2e3436" stroke-width="1.5" points="277,-37 159,-37 "/>
<path fill="none" stroke="#2e3436" stroke-width="1.5" d="M159,-37C153,-37 147,-31 147,-25"/>
<polyline fill="none" stroke="#2e3436" stroke-width="1.5" points="147,-25 147,-13 "/>
<path fill="none" stroke="#2e3436" stroke-width="1.5" d="M147,-13C147,-7 153,-1 159,-1"/>
<text text-anchor="middle" x="218" y="-25.8" font-family="FreeSans" font-size="8.00" fill="#1c2021">Node[109]: Person, Director, Actor</text>
<polyline fill="none" stroke="#2e3436" stroke-width="1.5" points="147,-19 289,-19 "/>
<text text-anchor="start" x="155" y="-7.8" font-family="FreeSans" font-size="8.00" fill="#1c2021">name = &#39;Clint Eastwood&#39;</text>
</g>
<!-- N110 -->
<g id="node3" class="node"><title>N110</title>
<polygon fill="#ffffff" stroke="#ffffff" stroke-width="1.5" points="330,-1 422,-1 434,-13 434,-25 422,-37 330,-37 318,-25 318,-13 330,-1"/>
<path fill="#ffffff" stroke="#ffffff" stroke-width="1.5" d="M422,-1C428,-1 434,-7 434,-13"/>
<path fill="#ffffff" stroke="#ffffff" stroke-width="1.5" d="M434,-25C434,-31 428,-37 422,-37"/>
<path fill="#ffffff" stroke="#ffffff" stroke-width="1.5" d="M330,-37C324,-37 318,-31 318,-25"/>
<path fill="#ffffff" stroke="#ffffff" stroke-width="1.5" d="M318,-13C318,-7 324,-1 330,-1"/>
<polyline fill="none" stroke="#2e3436" stroke-width="1.5" points="330,-1 422,-1 "/>
<path fill="none" stroke="#2e3436" stroke-width="1.5" d="M422,-1C428,-1 434,-7 434,-13"/>
<polyline fill="none" stroke="#2e3436" stroke-width="1.5" points="434,-13 434,-25 "/>
<path fill="none" stroke="#2e3436" stroke-width="1.5" d="M434,-25C434,-31 428,-37 422,-37"/>
<polyline fill="none" stroke="#2e3436" stroke-width="1.5" points="422,-37 330,-37 "/>
<path fill="none" stroke="#2e3436" stroke-width="1.5" d="M330,-37C324,-37 318,-31 318,-25"/>
<polyline fill="none" stroke="#2e3436" stroke-width="1.5" points="318,-25 318,-13 "/>
<path fill="none" stroke="#2e3436" stroke-width="1.5" d="M318,-13C318,-7 324,-1 330,-1"/>
<text text-anchor="middle" x="376" y="-25.8" font-family="FreeSans" font-size="8.00" fill="#1c2021">Node[110]: Person, Actor</text>
<polyline fill="none" stroke="#2e3436" stroke-width="1.5" points="318,-19 434,-19 "/>
<text text-anchor="start" x="326" y="-7.8" font-family="FreeSans" font-size="8.00" fill="#1c2021">name = &#39;Donald Sutherland&#39;</text>
</g>
</g>
</svg>
