<?xml version="1.0" encoding="UTF-8" standalone="no"?>
<!DOCTYPE svg PUBLIC "-//W3C//DTD SVG 1.1//EN"
 "http://www.w3.org/Graphics/SVG/1.1/DTD/svg11.dtd">
<!-- Generated by graphviz version 2.26.3 (20100126.1600)
 -->
<!-- Title: g Pages: 1 -->
<svg width="100pt" height="130pt"
 viewBox="0.00 0.00 100.00 130.00" xmlns="http://www.w3.org/2000/svg" xmlns:xlink="http://www.w3.org/1999/xlink">
<g id="graph1" class="graph" transform="scale(1 1) rotate(0) translate(4 126)">
<title>g</title>
<polygon fill="white" stroke="white" points="-4,5 -4,-126 97,-126 97,5 -4,5"/>
<!-- N9 -->
<g id="node1" class="node"><title>N9</title>
<polygon fill="#ffffff" stroke="#ffffff" stroke-width="1.5" points="18,-85 74,-85 86,-97 86,-109 74,-121 18,-121 6,-109 6,-97 18,-85"/>
<path fill="#ffffff" stroke="#ffffff" stroke-width="1.5" d="M74,-85C80,-85 86,-91 86,-97"/>
<path fill="#ffffff" stroke="#ffffff" stroke-width="1.5" d="M86,-109C86,-115 80,-121 74,-121"/>
<path fill="#ffffff" stroke="#ffffff" stroke-width="1.5" d="M18,-121C12,-121 6,-115 6,-109"/>
<path fill="#ffffff" stroke="#ffffff" stroke-width="1.5" d="M6,-97C6,-91 12,-85 18,-85"/>
<polyline fill="none" stroke="#2e3436" stroke-width="1.5" points="18,-85 74,-85 "/>
<path fill="none" stroke="#2e3436" stroke-width="1.5" d="M74,-85C80,-85 86,-91 86,-97"/>
<polyline fill="none" stroke="#2e3436" stroke-width="1.5" points="86,-97 86,-109 "/>
<path fill="none" stroke="#2e3436" stroke-width="1.5" d="M86,-109C86,-115 80,-121 74,-121"/>
<polyline fill="none" stroke="#2e3436" stroke-width="1.5" points="74,-121 18,-121 "/>
<path fill="none" stroke="#2e3436" stroke-width="1.5" d="M18,-121C12,-121 6,-115 6,-109"/>
<polyline fill="none" stroke="#2e3436" stroke-width="1.5" points="6,-109 6,-97 "/>
<path fill="none" stroke="#2e3436" stroke-width="1.5" d="M6,-97C6,-91 12,-85 18,-85"/>
<text text-anchor="start" x="14" y="-100.8" font-family="FreeSans" font-size="8.00" fill="#1c2021">Node[9]age = &#39;18&#39;</text>
</g>
<!-- N10 -->
<g id="node3" class="node"><title>N10</title>
<polygon fill="#ffffff" stroke="#ffffff" stroke-width="1.5" points="11.5,-1 80.5,-1 92.5,-13 92.5,-25 80.5,-37 11.5,-37 -0.5,-25 -0.5,-13 11.5,-1"/>
<path fill="#ffffff" stroke="#ffffff" stroke-width="1.5" d="M80.5,-1C86.5,-1 92.5,-7 92.5,-13"/>
<path fill="#ffffff" stroke="#ffffff" stroke-width="1.5" d="M92.5,-25C92.5,-31 86.5,-37 80.5,-37"/>
<path fill="#ffffff" stroke="#ffffff" stroke-width="1.5" d="M11.5,-37C5.5,-37 -0.5,-31 -0.5,-25"/>
<path fill="#ffffff" stroke="#ffffff" stroke-width="1.5" d="M-0.5,-13C-0.5,-7 5.5,-1 11.5,-1"/>
<polyline fill="none" stroke="#2e3436" stroke-width="1.5" points="11.5,-1 80.5,-1 "/>
<path fill="none" stroke="#2e3436" stroke-width="1.5" d="M80.5,-1C86.5,-1 92.5,-7 92.5,-13"/>
<polyline fill="none" stroke="#2e3436" stroke-width="1.5" points="92.5,-13 92.5,-25 "/>
<path fill="none" stroke="#2e3436" stroke-width="1.5" d="M92.5,-25C92.5,-31 86.5,-37 80.5,-37"/>
<polyline fill="none" stroke="#2e3436" stroke-width="1.5" points="80.5,-37 11.5,-37 "/>
<path fill="none" stroke="#2e3436" stroke-width="1.5" d="M11.5,-37C5.5,-37 -0.5,-31 -0.5,-25"/>
<polyline fill="none" stroke="#2e3436" stroke-width="1.5" points="-0.5,-25 -0.5,-13 "/>
<path fill="none" stroke="#2e3436" stroke-width="1.5" d="M-0.5,-13C-0.5,-7 5.5,-1 11.5,-1"/>
<text text-anchor="start" x="7.5" y="-16.8" font-family="FreeSans" font-size="8.00" fill="#1c2021">Node[10]name = &#39;joe&#39;</text>
</g>
<!-- N9&#45;&gt;N10 -->
<g id="edge2" class="edge"><title>N9&#45;&gt;N10</title>
<path fill="none" stroke="#2e3436" stroke-width="2" d="M46,-84.7733C46,-73.1053 46,-57.7874 46,-44.8699"/>
<polygon fill="#2e3436" stroke="#2e3436" points="46,-37.1912 49.3751,-44.6911 46.5,-40.9412 46.5001,-44.6912 46.0001,-44.6912 45.5001,-44.6912 45.5,-40.9412 42.6251,-44.6912 46,-37.1912 46,-37.1912"/>
<text text-anchor="middle" x="58" y="-58.8" font-family="FreeSans" font-size="8.00" fill="#2e3436">knows</text>
</g>
</g>
</svg>
