<?xml version="1.0" encoding="UTF-8" standalone="no"?>
<!DOCTYPE svg PUBLIC "-//W3C//DTD SVG 1.1//EN"
 "http://www.w3.org/Graphics/SVG/1.1/DTD/svg11.dtd">
<!-- Generated by graphviz version 2.26.3 (20100126.1600)
 -->
<!-- Title: g Pages: 1 -->
<svg width="112pt" height="130pt"
 viewBox="0.00 0.00 112.00 130.00" xmlns="http://www.w3.org/2000/svg" xmlns:xlink="http://www.w3.org/1999/xlink">
<g id="graph1" class="graph" transform="scale(1 1) rotate(0) translate(4 126)">
<title>g</title>
<polygon fill="white" stroke="white" points="-4,5 -4,-126 109,-126 109,5 -4,5"/>
<!-- N0 -->
<g id="node1" class="node"><title>N0</title>
<polygon fill="#ffffff" stroke="#ffffff" stroke-width="1.5" points="16,-1 88,-1 100,-13 100,-25 88,-37 16,-37 4,-25 4,-13 16,-1"/>
<path fill="#ffffff" stroke="#ffffff" stroke-width="1.5" d="M88,-1C94,-1 100,-7 100,-13"/>
<path fill="#ffffff" stroke="#ffffff" stroke-width="1.5" d="M100,-25C100,-31 94,-37 88,-37"/>
<path fill="#ffffff" stroke="#ffffff" stroke-width="1.5" d="M16,-37C10,-37 4,-31 4,-25"/>
<path fill="#ffffff" stroke="#ffffff" stroke-width="1.5" d="M4,-13C4,-7 10,-1 16,-1"/>
<polyline fill="none" stroke="#2e3436" stroke-width="1.5" points="16,-1 88,-1 "/>
<path fill="none" stroke="#2e3436" stroke-width="1.5" d="M88,-1C94,-1 100,-7 100,-13"/>
<polyline fill="none" stroke="#2e3436" stroke-width="1.5" points="100,-13 100,-25 "/>
<path fill="none" stroke="#2e3436" stroke-width="1.5" d="M100,-25C100,-31 94,-37 88,-37"/>
<polyline fill="none" stroke="#2e3436" stroke-width="1.5" points="88,-37 16,-37 "/>
<path fill="none" stroke="#2e3436" stroke-width="1.5" d="M16,-37C10,-37 4,-31 4,-25"/>
<polyline fill="none" stroke="#2e3436" stroke-width="1.5" points="4,-25 4,-13 "/>
<path fill="none" stroke="#2e3436" stroke-width="1.5" d="M4,-13C4,-7 10,-1 16,-1"/>
<text text-anchor="start" x="12" y="-16.8" font-family="FreeSans" font-size="8.00" fill="#1c2021">Node[0]name = &#39;Juliet&#39;</text>
</g>
<!-- N1 -->
<g id="node2" class="node"><title>N1</title>
<polygon fill="#ffffff" stroke="#ffffff" stroke-width="1.5" points="12,-85 92,-85 104,-97 104,-109 92,-121 12,-121 0,-109 0,-97 12,-85"/>
<path fill="#ffffff" stroke="#ffffff" stroke-width="1.5" d="M92,-85C98,-85 104,-91 104,-97"/>
<path fill="#ffffff" stroke="#ffffff" stroke-width="1.5" d="M104,-109C104,-115 98,-121 92,-121"/>
<path fill="#ffffff" stroke="#ffffff" stroke-width="1.5" d="M12,-121C6,-121 0,-115 0,-109"/>
<path fill="#ffffff" stroke="#ffffff" stroke-width="1.5" d="M0,-97C0,-91 6,-85 12,-85"/>
<polyline fill="none" stroke="#2e3436" stroke-width="1.5" points="12,-85 92,-85 "/>
<path fill="none" stroke="#2e3436" stroke-width="1.5" d="M92,-85C98,-85 104,-91 104,-97"/>
<polyline fill="none" stroke="#2e3436" stroke-width="1.5" points="104,-97 104,-109 "/>
<path fill="none" stroke="#2e3436" stroke-width="1.5" d="M104,-109C104,-115 98,-121 92,-121"/>
<polyline fill="none" stroke="#2e3436" stroke-width="1.5" points="92,-121 12,-121 "/>
<path fill="none" stroke="#2e3436" stroke-width="1.5" d="M12,-121C6,-121 0,-115 0,-109"/>
<polyline fill="none" stroke="#2e3436" stroke-width="1.5" points="0,-109 0,-97 "/>
<path fill="none" stroke="#2e3436" stroke-width="1.5" d="M0,-97C0,-91 6,-85 12,-85"/>
<text text-anchor="start" x="8" y="-100.8" font-family="FreeSans" font-size="8.00" fill="#1c2021">Node[1]name = &#39;Romeo&#39;</text>
</g>
<!-- N1&#45;&gt;N0 -->
<g id="edge2" class="edge"><title>N1&#45;&gt;N0</title>
<path fill="none" stroke="#2e3436" stroke-width="2" d="M52,-84.7733C52,-73.1053 52,-57.7874 52,-44.8699"/>
<polygon fill="#2e3436" stroke="#2e3436" points="52,-37.1912 55.3751,-44.6911 52.5,-40.9412 52.5001,-44.6912 52.0001,-44.6912 51.5001,-44.6912 51.5,-40.9412 48.6251,-44.6912 52,-37.1912 52,-37.1912"/>
<text text-anchor="middle" x="66" y="-58.8" font-family="FreeSans" font-size="8.00" fill="#2e3436">LOVES</text>
</g>
</g>
</svg>
