<?xml version="1.0" encoding="UTF-8" standalone="no"?>
<!DOCTYPE svg PUBLIC "-//W3C//DTD SVG 1.1//EN"
 "http://www.w3.org/Graphics/SVG/1.1/DTD/svg11.dtd">
<!-- Generated by graphviz version 2.26.3 (20100126.1600)
 -->
<!-- Title: g Pages: 1 -->
<svg width="116pt" height="150pt"
 viewBox="0.00 0.00 116.00 150.00" xmlns="http://www.w3.org/2000/svg" xmlns:xlink="http://www.w3.org/1999/xlink">
<g id="graph1" class="graph" transform="scale(1 1) rotate(0) translate(4 146)">
<title>g</title>
<polygon fill="white" stroke="white" points="-4,5 -4,-146 113,-146 113,5 -4,5"/>
<!-- N10 -->
<g id="node1" class="node"><title>N10</title>
<polygon fill="#ffffff" stroke="#ffffff" stroke-width="1.5" points="15.5,-1 92.5,-1 104.5,-13 104.5,-25 92.5,-37 15.5,-37 3.5,-25 3.5,-13 15.5,-1"/>
<path fill="#ffffff" stroke="#ffffff" stroke-width="1.5" d="M92.5,-1C98.5,-1 104.5,-7 104.5,-13"/>
<path fill="#ffffff" stroke="#ffffff" stroke-width="1.5" d="M104.5,-25C104.5,-31 98.5,-37 92.5,-37"/>
<path fill="#ffffff" stroke="#ffffff" stroke-width="1.5" d="M15.5,-37C9.5,-37 3.5,-31 3.5,-25"/>
<path fill="#ffffff" stroke="#ffffff" stroke-width="1.5" d="M3.5,-13C3.5,-7 9.5,-1 15.5,-1"/>
<polyline fill="none" stroke="#2e3436" stroke-width="1.5" points="15.5,-1 92.5,-1 "/>
<path fill="none" stroke="#2e3436" stroke-width="1.5" d="M92.5,-1C98.5,-1 104.5,-7 104.5,-13"/>
<polyline fill="none" stroke="#2e3436" stroke-width="1.5" points="104.5,-13 104.5,-25 "/>
<path fill="none" stroke="#2e3436" stroke-width="1.5" d="M104.5,-25C104.5,-31 98.5,-37 92.5,-37"/>
<polyline fill="none" stroke="#2e3436" stroke-width="1.5" points="92.5,-37 15.5,-37 "/>
<path fill="none" stroke="#2e3436" stroke-width="1.5" d="M15.5,-37C9.5,-37 3.5,-31 3.5,-25"/>
<polyline fill="none" stroke="#2e3436" stroke-width="1.5" points="3.5,-25 3.5,-13 "/>
<path fill="none" stroke="#2e3436" stroke-width="1.5" d="M3.5,-13C3.5,-7 9.5,-1 15.5,-1"/>
<text text-anchor="start" x="11.5" y="-16.8" font-family="FreeSans" font-size="8.00" fill="#1c2021">Node[10]name = &#39;Juliet&#39;</text>
</g>
<!-- N11 -->
<g id="node2" class="node"><title>N11</title>
<polygon fill="#ffffff" stroke="#ffffff" stroke-width="1.5" points="12,-105 96,-105 108,-117 108,-129 96,-141 12,-141 0,-129 0,-117 12,-105"/>
<path fill="#ffffff" stroke="#ffffff" stroke-width="1.5" d="M96,-105C102,-105 108,-111 108,-117"/>
<path fill="#ffffff" stroke="#ffffff" stroke-width="1.5" d="M108,-129C108,-135 102,-141 96,-141"/>
<path fill="#ffffff" stroke="#ffffff" stroke-width="1.5" d="M12,-141C6,-141 0,-135 0,-129"/>
<path fill="#ffffff" stroke="#ffffff" stroke-width="1.5" d="M0,-117C0,-111 6,-105 12,-105"/>
<polyline fill="none" stroke="#2e3436" stroke-width="1.5" points="12,-105 96,-105 "/>
<path fill="none" stroke="#2e3436" stroke-width="1.5" d="M96,-105C102,-105 108,-111 108,-117"/>
<polyline fill="none" stroke="#2e3436" stroke-width="1.5" points="108,-117 108,-129 "/>
<path fill="none" stroke="#2e3436" stroke-width="1.5" d="M108,-129C108,-135 102,-141 96,-141"/>
<polyline fill="none" stroke="#2e3436" stroke-width="1.5" points="96,-141 12,-141 "/>
<path fill="none" stroke="#2e3436" stroke-width="1.5" d="M12,-141C6,-141 0,-135 0,-129"/>
<polyline fill="none" stroke="#2e3436" stroke-width="1.5" points="0,-129 0,-117 "/>
<path fill="none" stroke="#2e3436" stroke-width="1.5" d="M0,-117C0,-111 6,-105 12,-105"/>
<text text-anchor="start" x="8" y="-120.8" font-family="FreeSans" font-size="8.00" fill="#1c2021">Node[11]name = &#39;Romeo&#39;</text>
</g>
<!-- N11&#45;&gt;N10 -->
<g id="edge2" class="edge"><title>N11&#45;&gt;N10</title>
<path fill="none" stroke="#2e3436" stroke-width="2" d="M54,-104.885C54,-88.284 54,-63.5228 54,-44.8467"/>
<polygon fill="#2e3436" stroke="#2e3436" points="54,-37.2568 57.3751,-44.7567 54.5,-41.0068 54.5001,-44.7568 54.0001,-44.7568 53.5001,-44.7568 53.5,-41.0068 50.6251,-44.7568 54,-37.2568 54,-37.2568"/>
<text text-anchor="middle" x="78.5" y="-78.8" font-family="FreeSans" font-size="8.00" fill="#2e3436">LOVES</text>
<text text-anchor="start" x="54" y="-68.8" font-family="FreeSans" font-size="8.00" fill="#2e3436">cost = &#39;high&#39;</text>
<text text-anchor="start" x="54" y="-58.8" font-family="FreeSans" font-size="8.00" fill="#2e3436">since = &#39;1day&#39;</text>
</g>
</g>
</svg>
