<?xml version="1.0" encoding="UTF-8" standalone="no"?>
<!DOCTYPE svg PUBLIC "-//W3C//DTD SVG 1.1//EN"
 "http://www.w3.org/Graphics/SVG/1.1/DTD/svg11.dtd">
<!-- Generated by graphviz version 2.26.3 (20100126.1600)
 -->
<!-- Title: g Pages: 1 -->
<svg width="165pt" height="130pt"
 viewBox="0.00 0.00 165.00 130.00" xmlns="http://www.w3.org/2000/svg" xmlns:xlink="http://www.w3.org/1999/xlink">
<g id="graph1" class="graph" transform="scale(1 1) rotate(0) translate(4 126)">
<title>g</title>
<polygon fill="white" stroke="white" points="-4,5 -4,-126 162,-126 162,5 -4,5"/>
<!-- N0 -->
<g id="node1" class="node"><title>N0</title>
<polygon fill="#ffffff" stroke="#ffffff" stroke-width="1.5" points="12,-85 42,-85 54,-97 54,-109 42,-121 12,-121 0,-109 0,-97 12,-85"/>
<path fill="#ffffff" stroke="#ffffff" stroke-width="1.5" d="M42,-85C48,-85 54,-91 54,-97"/>
<path fill="#ffffff" stroke="#ffffff" stroke-width="1.5" d="M54,-109C54,-115 48,-121 42,-121"/>
<path fill="#ffffff" stroke="#ffffff" stroke-width="1.5" d="M12,-121C6,-121 0,-115 0,-109"/>
<path fill="#ffffff" stroke="#ffffff" stroke-width="1.5" d="M0,-97C0,-91 6,-85 12,-85"/>
<polyline fill="none" stroke="#2e3436" stroke-width="1.5" points="12,-85 42,-85 "/>
<path fill="none" stroke="#2e3436" stroke-width="1.5" d="M42,-85C48,-85 54,-91 54,-97"/>
<polyline fill="none" stroke="#2e3436" stroke-width="1.5" points="54,-97 54,-109 "/>
<path fill="none" stroke="#2e3436" stroke-width="1.5" d="M54,-109C54,-115 48,-121 42,-121"/>
<polyline fill="none" stroke="#2e3436" stroke-width="1.5" points="42,-121 12,-121 "/>
<path fill="none" stroke="#2e3436" stroke-width="1.5" d="M12,-121C6,-121 0,-115 0,-109"/>
<polyline fill="none" stroke="#2e3436" stroke-width="1.5" points="0,-109 0,-97 "/>
<path fill="none" stroke="#2e3436" stroke-width="1.5" d="M0,-97C0,-91 6,-85 12,-85"/>
<text text-anchor="middle" x="27" y="-109.8" font-family="FreeSans" font-size="8.00" fill="#1c2021">Node[0]</text>
<polyline fill="none" stroke="#2e3436" stroke-width="1.5" points="0,-103 54,-103 "/>
<text text-anchor="middle" x="27" y="-91.8" font-family="FreeSans" font-size="8.00" fill="#1c2021"> </text>
</g>
<!-- N1 -->
<g id="node2" class="node"><title>N1</title>
<polygon fill="#ffffff" stroke="#ffffff" stroke-width="1.5" points="98,-1 142,-1 154,-13 154,-25 142,-37 98,-37 86,-25 86,-13 98,-1"/>
<path fill="#ffffff" stroke="#ffffff" stroke-width="1.5" d="M142,-1C148,-1 154,-7 154,-13"/>
<path fill="#ffffff" stroke="#ffffff" stroke-width="1.5" d="M154,-25C154,-31 148,-37 142,-37"/>
<path fill="#ffffff" stroke="#ffffff" stroke-width="1.5" d="M98,-37C92,-37 86,-31 86,-25"/>
<path fill="#ffffff" stroke="#ffffff" stroke-width="1.5" d="M86,-13C86,-7 92,-1 98,-1"/>
<polyline fill="none" stroke="#2e3436" stroke-width="1.5" points="98,-1 142,-1 "/>
<path fill="none" stroke="#2e3436" stroke-width="1.5" d="M142,-1C148,-1 154,-7 154,-13"/>
<polyline fill="none" stroke="#2e3436" stroke-width="1.5" points="154,-13 154,-25 "/>
<path fill="none" stroke="#2e3436" stroke-width="1.5" d="M154,-25C154,-31 148,-37 142,-37"/>
<polyline fill="none" stroke="#2e3436" stroke-width="1.5" points="142,-37 98,-37 "/>
<path fill="none" stroke="#2e3436" stroke-width="1.5" d="M98,-37C92,-37 86,-31 86,-25"/>
<polyline fill="none" stroke="#2e3436" stroke-width="1.5" points="86,-25 86,-13 "/>
<path fill="none" stroke="#2e3436" stroke-width="1.5" d="M86,-13C86,-7 92,-1 98,-1"/>
<text text-anchor="middle" x="120" y="-25.8" font-family="FreeSans" font-size="8.00" fill="#1c2021">Node[1]</text>
<polyline fill="none" stroke="#2e3436" stroke-width="1.5" points="86,-19 154,-19 "/>
<text text-anchor="start" x="94" y="-7.8" font-family="FreeSans" font-size="8.00" fill="#1c2021">name = &#39;Juliet&#39;</text>
</g>
<!-- N2 -->
<g id="node3" class="node"><title>N2</title>
<polygon fill="#ffffff" stroke="#ffffff" stroke-width="1.5" points="94.5,-85 145.5,-85 157.5,-97 157.5,-109 145.5,-121 94.5,-121 82.5,-109 82.5,-97 94.5,-85"/>
<path fill="#ffffff" stroke="#ffffff" stroke-width="1.5" d="M145.5,-85C151.5,-85 157.5,-91 157.5,-97"/>
<path fill="#ffffff" stroke="#ffffff" stroke-width="1.5" d="M157.5,-109C157.5,-115 151.5,-121 145.5,-121"/>
<path fill="#ffffff" stroke="#ffffff" stroke-width="1.5" d="M94.5,-121C88.5,-121 82.5,-115 82.5,-109"/>
<path fill="#ffffff" stroke="#ffffff" stroke-width="1.5" d="M82.5,-97C82.5,-91 88.5,-85 94.5,-85"/>
<polyline fill="none" stroke="#2e3436" stroke-width="1.5" points="94.5,-85 145.5,-85 "/>
<path fill="none" stroke="#2e3436" stroke-width="1.5" d="M145.5,-85C151.5,-85 157.5,-91 157.5,-97"/>
<polyline fill="none" stroke="#2e3436" stroke-width="1.5" points="157.5,-97 157.5,-109 "/>
<path fill="none" stroke="#2e3436" stroke-width="1.5" d="M157.5,-109C157.5,-115 151.5,-121 145.5,-121"/>
<polyline fill="none" stroke="#2e3436" stroke-width="1.5" points="145.5,-121 94.5,-121 "/>
<path fill="none" stroke="#2e3436" stroke-width="1.5" d="M94.5,-121C88.5,-121 82.5,-115 82.5,-109"/>
<polyline fill="none" stroke="#2e3436" stroke-width="1.5" points="82.5,-109 82.5,-97 "/>
<path fill="none" stroke="#2e3436" stroke-width="1.5" d="M82.5,-97C82.5,-91 88.5,-85 94.5,-85"/>
<text text-anchor="middle" x="120" y="-109.8" font-family="FreeSans" font-size="8.00" fill="#1c2021">Node[2]</text>
<polyline fill="none" stroke="#2e3436" stroke-width="1.5" points="82.5,-103 157.5,-103 "/>
<text text-anchor="start" x="90.5" y="-91.8" font-family="FreeSans" font-size="8.00" fill="#1c2021">name = &#39;Romeo&#39;</text>
</g>
<!-- N2&#45;&gt;N1 -->
<g id="edge2" class="edge"><title>N2&#45;&gt;N1</title>
<path fill="none" stroke="#2e3436" stroke-width="2" d="M120,-84.7733C120,-73.1053 120,-57.7874 120,-44.8699"/>
<polygon fill="#2e3436" stroke="#2e3436" points="120,-37.1912 123.375,-44.6911 120.5,-40.9412 120.5,-44.6912 120,-44.6912 119.5,-44.6912 119.5,-40.9412 116.625,-44.6912 120,-37.1912 120,-37.1912"/>
<text text-anchor="middle" x="134" y="-58.8" font-family="FreeSans" font-size="8.00" fill="#2e3436">LOVES</text>
</g>
</g>
</svg>
