<?xml version="1.0" encoding="UTF-8" standalone="no"?>
<!DOCTYPE svg PUBLIC "-//W3C//DTD SVG 1.1//EN"
 "http://www.w3.org/Graphics/SVG/1.1/DTD/svg11.dtd">
<!-- Generated by graphviz version 2.26.3 (20100126.1600)
 -->
<!-- Title: g Pages: 1 -->
<svg width="120pt" height="150pt"
 viewBox="0.00 0.00 120.00 150.00" xmlns="http://www.w3.org/2000/svg" xmlns:xlink="http://www.w3.org/1999/xlink">
<g id="graph1" class="graph" transform="scale(1 1) rotate(0) translate(4 146)">
<title>g</title>
<polygon fill="white" stroke="white" points="-4,5 -4,-146 117,-146 117,5 -4,5"/>
<!-- N186 -->
<g id="node1" class="node"><title>N186</title>
<polygon fill="#ffffff" stroke="#ffffff" stroke-width="1.5" points="15.5,-1 96.5,-1 108.5,-13 108.5,-25 96.5,-37 15.5,-37 3.5,-25 3.5,-13 15.5,-1"/>
<path fill="#ffffff" stroke="#ffffff" stroke-width="1.5" d="M96.5,-1C102.5,-1 108.5,-7 108.5,-13"/>
<path fill="#ffffff" stroke="#ffffff" stroke-width="1.5" d="M108.5,-25C108.5,-31 102.5,-37 96.5,-37"/>
<path fill="#ffffff" stroke="#ffffff" stroke-width="1.5" d="M15.5,-37C9.5,-37 3.5,-31 3.5,-25"/>
<path fill="#ffffff" stroke="#ffffff" stroke-width="1.5" d="M3.5,-13C3.5,-7 9.5,-1 15.5,-1"/>
<polyline fill="none" stroke="#2e3436" stroke-width="1.5" points="15.5,-1 96.5,-1 "/>
<path fill="none" stroke="#2e3436" stroke-width="1.5" d="M96.5,-1C102.5,-1 108.5,-7 108.5,-13"/>
<polyline fill="none" stroke="#2e3436" stroke-width="1.5" points="108.5,-13 108.5,-25 "/>
<path fill="none" stroke="#2e3436" stroke-width="1.5" d="M108.5,-25C108.5,-31 102.5,-37 96.5,-37"/>
<polyline fill="none" stroke="#2e3436" stroke-width="1.5" points="96.5,-37 15.5,-37 "/>
<path fill="none" stroke="#2e3436" stroke-width="1.5" d="M15.5,-37C9.5,-37 3.5,-31 3.5,-25"/>
<polyline fill="none" stroke="#2e3436" stroke-width="1.5" points="3.5,-25 3.5,-13 "/>
<path fill="none" stroke="#2e3436" stroke-width="1.5" d="M3.5,-13C3.5,-7 9.5,-1 15.5,-1"/>
<text text-anchor="start" x="11.5" y="-16.8" font-family="FreeSans" font-size="8.00" fill="#1c2021">Node[186]name = &#39;Juliet&#39;</text>
</g>
<!-- N187 -->
<g id="node2" class="node"><title>N187</title>
<polygon fill="#ffffff" stroke="#ffffff" stroke-width="1.5" points="11.5,-105 100.5,-105 112.5,-117 112.5,-129 100.5,-141 11.5,-141 -0.5,-129 -0.5,-117 11.5,-105"/>
<path fill="#ffffff" stroke="#ffffff" stroke-width="1.5" d="M100.5,-105C106.5,-105 112.5,-111 112.5,-117"/>
<path fill="#ffffff" stroke="#ffffff" stroke-width="1.5" d="M112.5,-129C112.5,-135 106.5,-141 100.5,-141"/>
<path fill="#ffffff" stroke="#ffffff" stroke-width="1.5" d="M11.5,-141C5.5,-141 -0.5,-135 -0.5,-129"/>
<path fill="#ffffff" stroke="#ffffff" stroke-width="1.5" d="M-0.5,-117C-0.5,-111 5.5,-105 11.5,-105"/>
<polyline fill="none" stroke="#2e3436" stroke-width="1.5" points="11.5,-105 100.5,-105 "/>
<path fill="none" stroke="#2e3436" stroke-width="1.5" d="M100.5,-105C106.5,-105 112.5,-111 112.5,-117"/>
<polyline fill="none" stroke="#2e3436" stroke-width="1.5" points="112.5,-117 112.5,-129 "/>
<path fill="none" stroke="#2e3436" stroke-width="1.5" d="M112.5,-129C112.5,-135 106.5,-141 100.5,-141"/>
<polyline fill="none" stroke="#2e3436" stroke-width="1.5" points="100.5,-141 11.5,-141 "/>
<path fill="none" stroke="#2e3436" stroke-width="1.5" d="M11.5,-141C5.5,-141 -0.5,-135 -0.5,-129"/>
<polyline fill="none" stroke="#2e3436" stroke-width="1.5" points="-0.5,-129 -0.5,-117 "/>
<path fill="none" stroke="#2e3436" stroke-width="1.5" d="M-0.5,-117C-0.5,-111 5.5,-105 11.5,-105"/>
<text text-anchor="start" x="7.5" y="-120.8" font-family="FreeSans" font-size="8.00" fill="#1c2021">Node[187]name = &#39;Romeo&#39;</text>
</g>
<!-- N187&#45;&gt;N186 -->
<g id="edge2" class="edge"><title>N187&#45;&gt;N186</title>
<path fill="none" stroke="#2e3436" stroke-width="2" d="M56,-104.885C56,-88.284 56,-63.5228 56,-44.8467"/>
<polygon fill="#2e3436" stroke="#2e3436" points="56,-37.2568 59.3751,-44.7567 56.5,-41.0068 56.5001,-44.7568 56.0001,-44.7568 55.5001,-44.7568 55.5,-41.0068 52.6251,-44.7568 56,-37.2568 56,-37.2568"/>
<text text-anchor="middle" x="80.5" y="-78.8" font-family="FreeSans" font-size="8.00" fill="#2e3436">LOVES</text>
<text text-anchor="start" x="56" y="-68.8" font-family="FreeSans" font-size="8.00" fill="#2e3436">cost = &#39;high&#39;</text>
<text text-anchor="start" x="56" y="-58.8" font-family="FreeSans" font-size="8.00" fill="#2e3436">since = &#39;1day&#39;</text>
</g>
</g>
</svg>
