<?xml version="1.0" encoding="UTF-8" standalone="no"?>
<!DOCTYPE svg PUBLIC "-//W3C//DTD SVG 1.1//EN"
 "http://www.w3.org/Graphics/SVG/1.1/DTD/svg11.dtd">
<!-- Generated by graphviz version 2.26.3 (20100126.1600)
 -->
<!-- Title: g Pages: 1 -->
<svg width="367pt" height="382pt"
 viewBox="0.00 0.00 367.00 382.00" xmlns="http://www.w3.org/2000/svg" xmlns:xlink="http://www.w3.org/1999/xlink">
<g id="graph1" class="graph" transform="scale(1 1) rotate(0) translate(4 378)">
<title>g</title>
<polygon fill="white" stroke="white" points="-4,5 -4,-378 364,-378 364,5 -4,5"/>
<!-- N149 -->
<g id="node1" class="node"><title>N149</title>
<polygon fill="#ffffff" stroke="#ffffff" stroke-width="1.5" points="255.5,-85 320.5,-85 332.5,-97 332.5,-109 320.5,-121 255.5,-121 243.5,-109 243.5,-97 255.5,-85"/>
<path fill="#ffffff" stroke="#ffffff" stroke-width="1.5" d="M320.5,-85C326.5,-85 332.5,-91 332.5,-97"/>
<path fill="#ffffff" stroke="#ffffff" stroke-width="1.5" d="M332.5,-109C332.5,-115 326.5,-121 320.5,-121"/>
<path fill="#ffffff" stroke="#ffffff" stroke-width="1.5" d="M255.5,-121C249.5,-121 243.5,-115 243.5,-109"/>
<path fill="#ffffff" stroke="#ffffff" stroke-width="1.5" d="M243.5,-97C243.5,-91 249.5,-85 255.5,-85"/>
<polyline fill="none" stroke="#2e3436" stroke-width="1.5" points="255.5,-85 320.5,-85 "/>
<path fill="none" stroke="#2e3436" stroke-width="1.5" d="M320.5,-85C326.5,-85 332.5,-91 332.5,-97"/>
<polyline fill="none" stroke="#2e3436" stroke-width="1.5" points="332.5,-97 332.5,-109 "/>
<path fill="none" stroke="#2e3436" stroke-width="1.5" d="M332.5,-109C332.5,-115 326.5,-121 320.5,-121"/>
<polyline fill="none" stroke="#2e3436" stroke-width="1.5" points="320.5,-121 255.5,-121 "/>
<path fill="none" stroke="#2e3436" stroke-width="1.5" d="M255.5,-121C249.5,-121 243.5,-115 243.5,-109"/>
<polyline fill="none" stroke="#2e3436" stroke-width="1.5" points="243.5,-109 243.5,-97 "/>
<path fill="none" stroke="#2e3436" stroke-width="1.5" d="M243.5,-97C243.5,-91 249.5,-85 255.5,-85"/>
<text text-anchor="start" x="251.5" y="-100.8" font-family="FreeSans" font-size="8.00" fill="#1c2021">Node[149]name = &#39;f&#39;</text>
</g>
<!-- N150 -->
<g id="node3" class="node"><title>N150</title>
<polygon fill="#ffffff" stroke="#ffffff" stroke-width="1.5" points="139.5,-1 206.5,-1 218.5,-13 218.5,-25 206.5,-37 139.5,-37 127.5,-25 127.5,-13 139.5,-1"/>
<path fill="#ffffff" stroke="#ffffff" stroke-width="1.5" d="M206.5,-1C212.5,-1 218.5,-7 218.5,-13"/>
<path fill="#ffffff" stroke="#ffffff" stroke-width="1.5" d="M218.5,-25C218.5,-31 212.5,-37 206.5,-37"/>
<path fill="#ffffff" stroke="#ffffff" stroke-width="1.5" d="M139.5,-37C133.5,-37 127.5,-31 127.5,-25"/>
<path fill="#ffffff" stroke="#ffffff" stroke-width="1.5" d="M127.5,-13C127.5,-7 133.5,-1 139.5,-1"/>
<polyline fill="none" stroke="#2e3436" stroke-width="1.5" points="139.5,-1 206.5,-1 "/>
<path fill="none" stroke="#2e3436" stroke-width="1.5" d="M206.5,-1C212.5,-1 218.5,-7 218.5,-13"/>
<polyline fill="none" stroke="#2e3436" stroke-width="1.5" points="218.5,-13 218.5,-25 "/>
<path fill="none" stroke="#2e3436" stroke-width="1.5" d="M218.5,-25C218.5,-31 212.5,-37 206.5,-37"/>
<polyline fill="none" stroke="#2e3436" stroke-width="1.5" points="206.5,-37 139.5,-37 "/>
<path fill="none" stroke="#2e3436" stroke-width="1.5" d="M139.5,-37C133.5,-37 127.5,-31 127.5,-25"/>
<polyline fill="none" stroke="#2e3436" stroke-width="1.5" points="127.5,-25 127.5,-13 "/>
<path fill="none" stroke="#2e3436" stroke-width="1.5" d="M127.5,-13C127.5,-7 133.5,-1 139.5,-1"/>
<text text-anchor="start" x="135.5" y="-16.8" font-family="FreeSans" font-size="8.00" fill="#1c2021">Node[150]name = &#39;g&#39;</text>
</g>
<!-- N149&#45;&gt;N150 -->
<g id="edge2" class="edge"><title>N149&#45;&gt;N150</title>
<path fill="none" stroke="#2e3436" stroke-width="2" d="M263.33,-84.9799C246.016,-72.3331 222.729,-55.3239 204.136,-41.7431"/>
<polygon fill="#2e3436" stroke="#2e3436" points="198.026,-37.2801 206.074,-38.9786 201.35,-39.0883 204.378,-41.3002 204.083,-41.704 203.788,-42.1078 200.76,-39.8958 202.092,-44.4294 198.026,-37.2801 198.026,-37.2801"/>
<text text-anchor="middle" x="236.5" y="-58.8" font-family="FreeSans" font-size="8.00" fill="#2e3436">to</text>
</g>
<!-- N151 -->
<g id="node4" class="node"><title>N151</title>
<polygon fill="#ffffff" stroke="#ffffff" stroke-width="1.5" points="76.5,-169 143.5,-169 155.5,-181 155.5,-193 143.5,-205 76.5,-205 64.5,-193 64.5,-181 76.5,-169"/>
<path fill="#ffffff" stroke="#ffffff" stroke-width="1.5" d="M143.5,-169C149.5,-169 155.5,-175 155.5,-181"/>
<path fill="#ffffff" stroke="#ffffff" stroke-width="1.5" d="M155.5,-193C155.5,-199 149.5,-205 143.5,-205"/>
<path fill="#ffffff" stroke="#ffffff" stroke-width="1.5" d="M76.5,-205C70.5,-205 64.5,-199 64.5,-193"/>
<path fill="#ffffff" stroke="#ffffff" stroke-width="1.5" d="M64.5,-181C64.5,-175 70.5,-169 76.5,-169"/>
<polyline fill="none" stroke="#2e3436" stroke-width="1.5" points="76.5,-169 143.5,-169 "/>
<path fill="none" stroke="#2e3436" stroke-width="1.5" d="M143.5,-169C149.5,-169 155.5,-175 155.5,-181"/>
<polyline fill="none" stroke="#2e3436" stroke-width="1.5" points="155.5,-181 155.5,-193 "/>
<path fill="none" stroke="#2e3436" stroke-width="1.5" d="M155.5,-193C155.5,-199 149.5,-205 143.5,-205"/>
<polyline fill="none" stroke="#2e3436" stroke-width="1.5" points="143.5,-205 76.5,-205 "/>
<path fill="none" stroke="#2e3436" stroke-width="1.5" d="M76.5,-205C70.5,-205 64.5,-199 64.5,-193"/>
<polyline fill="none" stroke="#2e3436" stroke-width="1.5" points="64.5,-193 64.5,-181 "/>
<path fill="none" stroke="#2e3436" stroke-width="1.5" d="M64.5,-181C64.5,-175 70.5,-169 76.5,-169"/>
<text text-anchor="start" x="72.5" y="-184.8" font-family="FreeSans" font-size="8.00" fill="#1c2021">Node[151]name = &#39;d&#39;</text>
</g>
<!-- N151&#45;&gt;N150 -->
<g id="edge6" class="edge"><title>N151&#45;&gt;N150</title>
<path fill="none" stroke="#2e3436" stroke-width="2" d="M116.862,-168.701C128.158,-138.578 150.693,-78.4856 163.51,-44.3077"/>
<polygon fill="#2e3436" stroke="#2e3436" points="166.242,-37.0219 166.768,-45.2295 165.393,-40.7087 164.076,-44.22 163.608,-44.0444 163.14,-43.8688 164.457,-40.3576 160.448,-42.8593 166.242,-37.0219 166.242,-37.0219"/>
<text text-anchor="middle" x="151.5" y="-100.8" font-family="FreeSans" font-size="8.00" fill="#2e3436">to</text>
</g>
<!-- N152 -->
<g id="node6" class="node"><title>N152</title>
<polygon fill="#ffffff" stroke="#ffffff" stroke-width="1.5" points="11.5,-85 78.5,-85 90.5,-97 90.5,-109 78.5,-121 11.5,-121 -0.5,-109 -0.5,-97 11.5,-85"/>
<path fill="#ffffff" stroke="#ffffff" stroke-width="1.5" d="M78.5,-85C84.5,-85 90.5,-91 90.5,-97"/>
<path fill="#ffffff" stroke="#ffffff" stroke-width="1.5" d="M90.5,-109C90.5,-115 84.5,-121 78.5,-121"/>
<path fill="#ffffff" stroke="#ffffff" stroke-width="1.5" d="M11.5,-121C5.5,-121 -0.5,-115 -0.5,-109"/>
<path fill="#ffffff" stroke="#ffffff" stroke-width="1.5" d="M-0.5,-97C-0.5,-91 5.5,-85 11.5,-85"/>
<polyline fill="none" stroke="#2e3436" stroke-width="1.5" points="11.5,-85 78.5,-85 "/>
<path fill="none" stroke="#2e3436" stroke-width="1.5" d="M78.5,-85C84.5,-85 90.5,-91 90.5,-97"/>
<polyline fill="none" stroke="#2e3436" stroke-width="1.5" points="90.5,-97 90.5,-109 "/>
<path fill="none" stroke="#2e3436" stroke-width="1.5" d="M90.5,-109C90.5,-115 84.5,-121 78.5,-121"/>
<polyline fill="none" stroke="#2e3436" stroke-width="1.5" points="78.5,-121 11.5,-121 "/>
<path fill="none" stroke="#2e3436" stroke-width="1.5" d="M11.5,-121C5.5,-121 -0.5,-115 -0.5,-109"/>
<polyline fill="none" stroke="#2e3436" stroke-width="1.5" points="-0.5,-109 -0.5,-97 "/>
<path fill="none" stroke="#2e3436" stroke-width="1.5" d="M-0.5,-97C-0.5,-91 5.5,-85 11.5,-85"/>
<text text-anchor="start" x="7.5" y="-100.8" font-family="FreeSans" font-size="8.00" fill="#1c2021">Node[152]name = &#39;e&#39;</text>
</g>
<!-- N151&#45;&gt;N152 -->
<g id="edge4" class="edge"><title>N151&#45;&gt;N152</title>
<path fill="none" stroke="#2e3436" stroke-width="2" d="M95.896,-168.773C86.5265,-156.665 74.1155,-140.626 63.895,-127.418"/>
<polygon fill="#2e3436" stroke="#2e3436" points="59.0765,-121.191 66.3356,-125.057 61.7669,-123.851 64.0619,-126.817 63.6664,-127.123 63.271,-127.429 60.976,-124.463 60.9972,-129.188 59.0765,-121.191 59.0765,-121.191"/>
<text text-anchor="middle" x="83.5" y="-142.8" font-family="FreeSans" font-size="8.00" fill="#2e3436">to</text>
</g>
<!-- N152&#45;&gt;N150 -->
<g id="edge8" class="edge"><title>N152&#45;&gt;N150</title>
<path fill="none" stroke="#2e3436" stroke-width="2" d="M72.4592,-84.9799C91.8143,-72.2781 117.875,-55.1759 138.613,-41.5662"/>
<polygon fill="#2e3436" stroke="#2e3436" points="145.145,-37.2801 140.726,-44.2168 142.284,-39.7557 139.148,-41.8131 138.874,-41.3951 138.6,-40.9771 141.735,-38.9196 137.022,-38.5734 145.145,-37.2801 145.145,-37.2801"/>
<text text-anchor="middle" x="116.5" y="-58.8" font-family="FreeSans" font-size="8.00" fill="#2e3436">to</text>
</g>
<!-- N153 -->
<g id="node9" class="node"><title>N153</title>
<polygon fill="#ffffff" stroke="#ffffff" stroke-width="1.5" points="254.5,-169 321.5,-169 333.5,-181 333.5,-193 321.5,-205 254.5,-205 242.5,-193 242.5,-181 254.5,-169"/>
<path fill="#ffffff" stroke="#ffffff" stroke-width="1.5" d="M321.5,-169C327.5,-169 333.5,-175 333.5,-181"/>
<path fill="#ffffff" stroke="#ffffff" stroke-width="1.5" d="M333.5,-193C333.5,-199 327.5,-205 321.5,-205"/>
<path fill="#ffffff" stroke="#ffffff" stroke-width="1.5" d="M254.5,-205C248.5,-205 242.5,-199 242.5,-193"/>
<path fill="#ffffff" stroke="#ffffff" stroke-width="1.5" d="M242.5,-181C242.5,-175 248.5,-169 254.5,-169"/>
<polyline fill="none" stroke="#2e3436" stroke-width="1.5" points="254.5,-169 321.5,-169 "/>
<path fill="none" stroke="#2e3436" stroke-width="1.5" d="M321.5,-169C327.5,-169 333.5,-175 333.5,-181"/>
<polyline fill="none" stroke="#2e3436" stroke-width="1.5" points="333.5,-181 333.5,-193 "/>
<path fill="none" stroke="#2e3436" stroke-width="1.5" d="M333.5,-193C333.5,-199 327.5,-205 321.5,-205"/>
<polyline fill="none" stroke="#2e3436" stroke-width="1.5" points="321.5,-205 254.5,-205 "/>
<path fill="none" stroke="#2e3436" stroke-width="1.5" d="M254.5,-205C248.5,-205 242.5,-199 242.5,-193"/>
<polyline fill="none" stroke="#2e3436" stroke-width="1.5" points="242.5,-193 242.5,-181 "/>
<path fill="none" stroke="#2e3436" stroke-width="1.5" d="M242.5,-181C242.5,-175 248.5,-169 254.5,-169"/>
<text text-anchor="start" x="250.5" y="-184.8" font-family="FreeSans" font-size="8.00" fill="#1c2021">Node[153]name = &#39;b&#39;</text>
</g>
<!-- N153&#45;&gt;N149 -->
<g id="edge10" class="edge"><title>N153&#45;&gt;N149</title>
<path fill="none" stroke="#2e3436" stroke-width="2" d="M288,-168.773C288,-157.105 288,-141.787 288,-128.87"/>
<polygon fill="#2e3436" stroke="#2e3436" points="288,-121.191 291.375,-128.691 288.5,-124.941 288.5,-128.691 288,-128.691 287.5,-128.691 287.5,-124.941 284.625,-128.691 288,-121.191 288,-121.191"/>
<text text-anchor="middle" x="291.5" y="-142.8" font-family="FreeSans" font-size="8.00" fill="#2e3436">to</text>
</g>
<!-- N154 -->
<g id="node11" class="node"><title>N154</title>
<polygon fill="#ffffff" stroke="#ffffff" stroke-width="1.5" points="211.5,-253 278.5,-253 290.5,-265 290.5,-277 278.5,-289 211.5,-289 199.5,-277 199.5,-265 211.5,-253"/>
<path fill="#ffffff" stroke="#ffffff" stroke-width="1.5" d="M278.5,-253C284.5,-253 290.5,-259 290.5,-265"/>
<path fill="#ffffff" stroke="#ffffff" stroke-width="1.5" d="M290.5,-277C290.5,-283 284.5,-289 278.5,-289"/>
<path fill="#ffffff" stroke="#ffffff" stroke-width="1.5" d="M211.5,-289C205.5,-289 199.5,-283 199.5,-277"/>
<path fill="#ffffff" stroke="#ffffff" stroke-width="1.5" d="M199.5,-265C199.5,-259 205.5,-253 211.5,-253"/>
<polyline fill="none" stroke="#2e3436" stroke-width="1.5" points="211.5,-253 278.5,-253 "/>
<path fill="none" stroke="#2e3436" stroke-width="1.5" d="M278.5,-253C284.5,-253 290.5,-259 290.5,-265"/>
<polyline fill="none" stroke="#2e3436" stroke-width="1.5" points="290.5,-265 290.5,-277 "/>
<path fill="none" stroke="#2e3436" stroke-width="1.5" d="M290.5,-277C290.5,-283 284.5,-289 278.5,-289"/>
<polyline fill="none" stroke="#2e3436" stroke-width="1.5" points="278.5,-289 211.5,-289 "/>
<path fill="none" stroke="#2e3436" stroke-width="1.5" d="M211.5,-289C205.5,-289 199.5,-283 199.5,-277"/>
<polyline fill="none" stroke="#2e3436" stroke-width="1.5" points="199.5,-277 199.5,-265 "/>
<path fill="none" stroke="#2e3436" stroke-width="1.5" d="M199.5,-265C199.5,-259 205.5,-253 211.5,-253"/>
<text text-anchor="start" x="207.5" y="-268.8" font-family="FreeSans" font-size="8.00" fill="#1c2021">Node[154]name = &#39;c&#39;</text>
</g>
<!-- N154&#45;&gt;N149 -->
<g id="edge14" class="edge"><title>N154&#45;&gt;N149</title>
<path fill="none" stroke="#2e3436" stroke-width="2" d="M290.681,-254.4C312.155,-244.021 335.697,-228.312 348,-206 363.227,-178.385 339.068,-147.151 317.015,-126.39"/>
<polygon fill="#2e3436" stroke="#2e3436" points="311.184,-121.086 319.003,-123.636 314.294,-123.239 317.068,-125.762 316.732,-126.132 316.395,-126.502 313.621,-123.979 314.461,-128.629 311.184,-121.086 311.184,-121.086"/>
<text text-anchor="middle" x="355.5" y="-184.8" font-family="FreeSans" font-size="8.00" fill="#2e3436">to</text>
</g>
<!-- N154&#45;&gt;N150 -->
<g id="edge16" class="edge"><title>N154&#45;&gt;N150</title>
<path fill="none" stroke="#2e3436" stroke-width="2" d="M239.822,-252.877C227.217,-208.759 194.904,-95.6642 180.327,-44.6461"/>
<polygon fill="#2e3436" stroke="#2e3436" points="178.228,-37.2976 183.534,-43.5818 179.739,-40.766 180.769,-44.3717 180.288,-44.509 179.808,-44.6464 178.777,-41.0407 177.043,-45.4363 178.228,-37.2976 178.228,-37.2976"/>
<text text-anchor="middle" x="212.5" y="-142.8" font-family="FreeSans" font-size="8.00" fill="#2e3436">to</text>
</g>
<!-- N154&#45;&gt;N153 -->
<g id="edge12" class="edge"><title>N154&#45;&gt;N153</title>
<path fill="none" stroke="#2e3436" stroke-width="2" d="M254.33,-252.773C260.416,-240.885 268.441,-225.208 275.13,-212.141"/>
<polygon fill="#2e3436" stroke="#2e3436" points="278.688,-205.191 278.275,-213.405 277.424,-208.757 275.715,-212.095 275.27,-211.867 274.825,-211.639 276.534,-208.301 272.266,-210.329 278.688,-205.191 278.688,-205.191"/>
<text text-anchor="middle" x="270.5" y="-226.8" font-family="FreeSans" font-size="8.00" fill="#2e3436">to</text>
</g>
<!-- N155 -->
<g id="node15" class="node"><title>N155</title>
<polygon fill="#ffffff" stroke="#ffffff" stroke-width="1.5" points="145.5,-337 212.5,-337 224.5,-349 224.5,-361 212.5,-373 145.5,-373 133.5,-361 133.5,-349 145.5,-337"/>
<path fill="#ffffff" stroke="#ffffff" stroke-width="1.5" d="M212.5,-337C218.5,-337 224.5,-343 224.5,-349"/>
<path fill="#ffffff" stroke="#ffffff" stroke-width="1.5" d="M224.5,-361C224.5,-367 218.5,-373 212.5,-373"/>
<path fill="#ffffff" stroke="#ffffff" stroke-width="1.5" d="M145.5,-373C139.5,-373 133.5,-367 133.5,-361"/>
<path fill="#ffffff" stroke="#ffffff" stroke-width="1.5" d="M133.5,-349C133.5,-343 139.5,-337 145.5,-337"/>
<polyline fill="none" stroke="#2e3436" stroke-width="1.5" points="145.5,-337 212.5,-337 "/>
<path fill="none" stroke="#2e3436" stroke-width="1.5" d="M212.5,-337C218.5,-337 224.5,-343 224.5,-349"/>
<polyline fill="none" stroke="#2e3436" stroke-width="1.5" points="224.5,-349 224.5,-361 "/>
<path fill="none" stroke="#2e3436" stroke-width="1.5" d="M224.5,-361C224.5,-367 218.5,-373 212.5,-373"/>
<polyline fill="none" stroke="#2e3436" stroke-width="1.5" points="212.5,-373 145.5,-373 "/>
<path fill="none" stroke="#2e3436" stroke-width="1.5" d="M145.5,-373C139.5,-373 133.5,-367 133.5,-361"/>
<polyline fill="none" stroke="#2e3436" stroke-width="1.5" points="133.5,-361 133.5,-349 "/>
<path fill="none" stroke="#2e3436" stroke-width="1.5" d="M133.5,-349C133.5,-343 139.5,-337 145.5,-337"/>
<text text-anchor="start" x="141.5" y="-352.8" font-family="FreeSans" font-size="8.00" fill="#1c2021">Node[155]name = &#39;a&#39;</text>
</g>
<!-- N155&#45;&gt;N151 -->
<g id="edge20" class="edge"><title>N155&#45;&gt;N151</title>
<path fill="none" stroke="#2e3436" stroke-width="2" d="M171.484,-336.701C159.112,-306.578 134.432,-246.486 120.394,-212.308"/>
<polygon fill="#2e3436" stroke="#2e3436" points="117.402,-205.022 123.373,-210.677 119.289,-208.301 120.714,-211.77 120.251,-211.96 119.789,-212.15 118.364,-208.681 117.129,-213.242 117.402,-205.022 117.402,-205.022"/>
<text text-anchor="middle" x="155.5" y="-268.8" font-family="FreeSans" font-size="8.00" fill="#2e3436">to</text>
</g>
<!-- N155&#45;&gt;N154 -->
<g id="edge18" class="edge"><title>N155&#45;&gt;N154</title>
<path fill="none" stroke="#2e3436" stroke-width="2" d="M193.321,-336.773C202.835,-324.665 215.437,-308.626 225.814,-295.418"/>
<polygon fill="#2e3436" stroke="#2e3436" points="230.707,-289.191 228.727,-297.174 228.783,-292.449 226.466,-295.397 226.073,-295.089 225.68,-294.78 227.997,-291.831 223.419,-293.003 230.707,-289.191 230.707,-289.191"/>
<text text-anchor="middle" x="216.5" y="-310.8" font-family="FreeSans" font-size="8.00" fill="#2e3436">to</text>
</g>
</g>
</svg>
