<?xml version="1.0" encoding="UTF-8" standalone="no"?>
<!DOCTYPE svg PUBLIC "-//W3C//DTD SVG 1.1//EN"
 "http://www.w3.org/Graphics/SVG/1.1/DTD/svg11.dtd">
<!-- Generated by graphviz version 2.26.3 (20100126.1600)
 -->
<!-- Title: g Pages: 1 -->
<svg width="362pt" height="46pt"
 viewBox="0.00 0.00 362.00 46.00" xmlns="http://www.w3.org/2000/svg" xmlns:xlink="http://www.w3.org/1999/xlink">
<g id="graph1" class="graph" transform="scale(1 1) rotate(0) translate(4 42)">
<title>g</title>
<polygon fill="white" stroke="white" points="-4,5 -4,-42 359,-42 359,5 -4,5"/>
<!-- N115 -->
<g id="node1" class="node"><title>N115</title>
<polygon fill="#ffffff" stroke="#ffffff" stroke-width="1.5" points="12,-1 98,-1 110,-13 110,-25 98,-37 12,-37 0,-25 0,-13 12,-1"/>
<path fill="#ffffff" stroke="#ffffff" stroke-width="1.5" d="M98,-1C104,-1 110,-7 110,-13"/>
<path fill="#ffffff" stroke="#ffffff" stroke-width="1.5" d="M110,-25C110,-31 104,-37 98,-37"/>
<path fill="#ffffff" stroke="#ffffff" stroke-width="1.5" d="M12,-37C6,-37 0,-31 0,-25"/>
<path fill="#ffffff" stroke="#ffffff" stroke-width="1.5" d="M0,-13C0,-7 6,-1 12,-1"/>
<polyline fill="none" stroke="#2e3436" stroke-width="1.5" points="12,-1 98,-1 "/>
<path fill="none" stroke="#2e3436" stroke-width="1.5" d="M98,-1C104,-1 110,-7 110,-13"/>
<polyline fill="none" stroke="#2e3436" stroke-width="1.5" points="110,-13 110,-25 "/>
<path fill="none" stroke="#2e3436" stroke-width="1.5" d="M110,-25C110,-31 104,-37 98,-37"/>
<polyline fill="none" stroke="#2e3436" stroke-width="1.5" points="98,-37 12,-37 "/>
<path fill="none" stroke="#2e3436" stroke-width="1.5" d="M12,-37C6,-37 0,-31 0,-25"/>
<polyline fill="none" stroke="#2e3436" stroke-width="1.5" points="0,-25 0,-13 "/>
<path fill="none" stroke="#2e3436" stroke-width="1.5" d="M0,-13C0,-7 6,-1 12,-1"/>
<text text-anchor="middle" x="55" y="-25.8" font-family="FreeSans" font-size="8.00" fill="#1c2021">Node[115]: Person</text>
<polyline fill="none" stroke="#2e3436" stroke-width="1.5" points="0,-19 110,-19 "/>
<text text-anchor="start" x="8" y="-7.8" font-family="FreeSans" font-size="8.00" fill="#1c2021">name = &#39;Steven Spielberg&#39;</text>
</g>
<!-- N116 -->
<g id="node2" class="node"><title>N116</title>
<polygon fill="#ffffff" stroke="#ffffff" stroke-width="1.5" points="151,-1 229,-1 241,-13 241,-25 229,-37 151,-37 139,-25 139,-13 151,-1"/>
<path fill="#ffffff" stroke="#ffffff" stroke-width="1.5" d="M229,-1C235,-1 241,-7 241,-13"/>
<path fill="#ffffff" stroke="#ffffff" stroke-width="1.5" d="M241,-25C241,-31 235,-37 229,-37"/>
<path fill="#ffffff" stroke="#ffffff" stroke-width="1.5" d="M151,-37C145,-37 139,-31 139,-25"/>
<path fill="#ffffff" stroke="#ffffff" stroke-width="1.5" d="M139,-13C139,-7 145,-1 151,-1"/>
<polyline fill="none" stroke="#2e3436" stroke-width="1.5" points="151,-1 229,-1 "/>
<path fill="none" stroke="#2e3436" stroke-width="1.5" d="M229,-1C235,-1 241,-7 241,-13"/>
<polyline fill="none" stroke="#2e3436" stroke-width="1.5" points="241,-13 241,-25 "/>
<path fill="none" stroke="#2e3436" stroke-width="1.5" d="M241,-25C241,-31 235,-37 229,-37"/>
<polyline fill="none" stroke="#2e3436" stroke-width="1.5" points="229,-37 151,-37 "/>
<path fill="none" stroke="#2e3436" stroke-width="1.5" d="M151,-37C145,-37 139,-31 139,-25"/>
<polyline fill="none" stroke="#2e3436" stroke-width="1.5" points="139,-25 139,-13 "/>
<path fill="none" stroke="#2e3436" stroke-width="1.5" d="M139,-13C139,-7 145,-1 151,-1"/>
<text text-anchor="middle" x="190" y="-25.8" font-family="FreeSans" font-size="8.00" fill="#1c2021">Node[116]: Person</text>
<polyline fill="none" stroke="#2e3436" stroke-width="1.5" points="139,-19 241,-19 "/>
<text text-anchor="start" x="147" y="-7.8" font-family="FreeSans" font-size="8.00" fill="#1c2021">name = &#39;Clint Eastwood&#39;</text>
</g>
<!-- N117 -->
<g id="node3" class="node"><title>N117</title>
<polygon fill="#ffffff" stroke="#ffffff" stroke-width="1.5" points="282,-1 342,-1 354,-13 354,-25 342,-37 282,-37 270,-25 270,-13 282,-1"/>
<path fill="#ffffff" stroke="#ffffff" stroke-width="1.5" d="M342,-1C348,-1 354,-7 354,-13"/>
<path fill="#ffffff" stroke="#ffffff" stroke-width="1.5" d="M354,-25C354,-31 348,-37 342,-37"/>
<path fill="#ffffff" stroke="#ffffff" stroke-width="1.5" d="M282,-37C276,-37 270,-31 270,-25"/>
<path fill="#ffffff" stroke="#ffffff" stroke-width="1.5" d="M270,-13C270,-7 276,-1 282,-1"/>
<polyline fill="none" stroke="#2e3436" stroke-width="1.5" points="282,-1 342,-1 "/>
<path fill="none" stroke="#2e3436" stroke-width="1.5" d="M342,-1C348,-1 354,-7 354,-13"/>
<polyline fill="none" stroke="#2e3436" stroke-width="1.5" points="354,-13 354,-25 "/>
<path fill="none" stroke="#2e3436" stroke-width="1.5" d="M354,-25C354,-31 348,-37 342,-37"/>
<polyline fill="none" stroke="#2e3436" stroke-width="1.5" points="342,-37 282,-37 "/>
<path fill="none" stroke="#2e3436" stroke-width="1.5" d="M282,-37C276,-37 270,-31 270,-25"/>
<polyline fill="none" stroke="#2e3436" stroke-width="1.5" points="270,-25 270,-13 "/>
<path fill="none" stroke="#2e3436" stroke-width="1.5" d="M270,-13C270,-7 276,-1 282,-1"/>
<text text-anchor="middle" x="312" y="-25.8" font-family="FreeSans" font-size="8.00" fill="#1c2021">Node[117]: Person</text>
<polyline fill="none" stroke="#2e3436" stroke-width="1.5" points="270,-19 354,-19 "/>
<text text-anchor="middle" x="312" y="-7.8" font-family="FreeSans" font-size="8.00" fill="#1c2021"> </text>
</g>
</g>
</svg>
