<?xml version="1.0" encoding="UTF-8" standalone="no"?>
<!DOCTYPE svg PUBLIC "-//W3C//DTD SVG 1.1//EN"
 "http://www.w3.org/Graphics/SVG/1.1/DTD/svg11.dtd">
<!-- Generated by graphviz version 2.26.3 (20100126.1600)
 -->
<!-- Title: g Pages: 1 -->
<svg width="293pt" height="346pt"
 viewBox="0.00 0.00 293.00 346.00" xmlns="http://www.w3.org/2000/svg" xmlns:xlink="http://www.w3.org/1999/xlink">
<g id="graph1" class="graph" transform="scale(1 1) rotate(0) translate(4 342)">
<title>g</title>
<polygon fill="white" stroke="white" points="-4,5 -4,-342 290,-342 290,5 -4,5"/>
<!-- N27 -->
<g id="node1" class="node"><title>N27</title>
<polygon fill="#ffffff" stroke="#ffffff" stroke-width="1.5" points="12,-151 72,-151 84,-163 84,-175 72,-187 12,-187 0,-175 0,-163 12,-151"/>
<path fill="#ffffff" stroke="#ffffff" stroke-width="1.5" d="M72,-151C78,-151 84,-157 84,-163"/>
<path fill="#ffffff" stroke="#ffffff" stroke-width="1.5" d="M84,-175C84,-181 78,-187 72,-187"/>
<path fill="#ffffff" stroke="#ffffff" stroke-width="1.5" d="M12,-187C6,-187 0,-181 0,-175"/>
<path fill="#ffffff" stroke="#ffffff" stroke-width="1.5" d="M0,-163C0,-157 6,-151 12,-151"/>
<polyline fill="none" stroke="#2e3436" stroke-width="1.5" points="12,-151 72,-151 "/>
<path fill="none" stroke="#2e3436" stroke-width="1.5" d="M72,-151C78,-151 84,-157 84,-163"/>
<polyline fill="none" stroke="#2e3436" stroke-width="1.5" points="84,-163 84,-175 "/>
<path fill="none" stroke="#2e3436" stroke-width="1.5" d="M84,-175C84,-181 78,-187 72,-187"/>
<polyline fill="none" stroke="#2e3436" stroke-width="1.5" points="72,-187 12,-187 "/>
<path fill="none" stroke="#2e3436" stroke-width="1.5" d="M12,-187C6,-187 0,-181 0,-175"/>
<polyline fill="none" stroke="#2e3436" stroke-width="1.5" points="0,-175 0,-163 "/>
<path fill="none" stroke="#2e3436" stroke-width="1.5" d="M0,-163C0,-157 6,-151 12,-151"/>
<text text-anchor="start" x="8" y="-166.8" font-family="FreeSans" font-size="8.00" fill="#1c2021">Node[27]name = &#39;f&#39;</text>
</g>
<!-- N29 -->
<g id="node3" class="node"><title>N29</title>
<polygon fill="#ffffff" stroke="#ffffff" stroke-width="1.5" points="103,-1 165,-1 177,-13 177,-25 165,-37 103,-37 91,-25 91,-13 103,-1"/>
<path fill="#ffffff" stroke="#ffffff" stroke-width="1.5" d="M165,-1C171,-1 177,-7 177,-13"/>
<path fill="#ffffff" stroke="#ffffff" stroke-width="1.5" d="M177,-25C177,-31 171,-37 165,-37"/>
<path fill="#ffffff" stroke="#ffffff" stroke-width="1.5" d="M103,-37C97,-37 91,-31 91,-25"/>
<path fill="#ffffff" stroke="#ffffff" stroke-width="1.5" d="M91,-13C91,-7 97,-1 103,-1"/>
<polyline fill="none" stroke="#2e3436" stroke-width="1.5" points="103,-1 165,-1 "/>
<path fill="none" stroke="#2e3436" stroke-width="1.5" d="M165,-1C171,-1 177,-7 177,-13"/>
<polyline fill="none" stroke="#2e3436" stroke-width="1.5" points="177,-13 177,-25 "/>
<path fill="none" stroke="#2e3436" stroke-width="1.5" d="M177,-25C177,-31 171,-37 165,-37"/>
<polyline fill="none" stroke="#2e3436" stroke-width="1.5" points="165,-37 103,-37 "/>
<path fill="none" stroke="#2e3436" stroke-width="1.5" d="M103,-37C97,-37 91,-31 91,-25"/>
<polyline fill="none" stroke="#2e3436" stroke-width="1.5" points="91,-25 91,-13 "/>
<path fill="none" stroke="#2e3436" stroke-width="1.5" d="M91,-13C91,-7 97,-1 103,-1"/>
<text text-anchor="start" x="99" y="-16.8" font-family="FreeSans" font-size="8.00" fill="#1c2021">Node[29]name = &#39;e&#39;</text>
</g>
<!-- N27&#45;&gt;N29 -->
<g id="edge2" class="edge"><title>N27&#45;&gt;N29</title>
<path fill="none" stroke="#2e3436" stroke-width="2" d="M53.0973,-150.906C69.5368,-124.103 100.404,-73.7758 118.892,-43.6318"/>
<polygon fill="#2e3436" stroke="#2e3436" points="122.863,-37.1577 121.819,-45.3155 121.329,-40.6157 119.368,-43.8124 118.942,-43.551 118.516,-43.2896 120.476,-40.0929 116.065,-41.7864 122.863,-37.1577 122.863,-37.1577"/>
<text text-anchor="middle" x="106" y="-115.8" font-family="FreeSans" font-size="8.00" fill="#2e3436">to</text>
<text text-anchor="start" x="88" y="-105.8" font-family="FreeSans" font-size="8.00" fill="#2e3436">cost = 1.2</text>
</g>
<!-- N28 -->
<g id="node4" class="node"><title>N28</title>
<polygon fill="#ffffff" stroke="#ffffff" stroke-width="1.5" points="211,-95 273,-95 285,-107 285,-119 273,-131 211,-131 199,-119 199,-107 211,-95"/>
<path fill="#ffffff" stroke="#ffffff" stroke-width="1.5" d="M273,-95C279,-95 285,-101 285,-107"/>
<path fill="#ffffff" stroke="#ffffff" stroke-width="1.5" d="M285,-119C285,-125 279,-131 273,-131"/>
<path fill="#ffffff" stroke="#ffffff" stroke-width="1.5" d="M211,-131C205,-131 199,-125 199,-119"/>
<path fill="#ffffff" stroke="#ffffff" stroke-width="1.5" d="M199,-107C199,-101 205,-95 211,-95"/>
<polyline fill="none" stroke="#2e3436" stroke-width="1.5" points="211,-95 273,-95 "/>
<path fill="none" stroke="#2e3436" stroke-width="1.5" d="M273,-95C279,-95 285,-101 285,-107"/>
<polyline fill="none" stroke="#2e3436" stroke-width="1.5" points="285,-107 285,-119 "/>
<path fill="none" stroke="#2e3436" stroke-width="1.5" d="M285,-119C285,-125 279,-131 273,-131"/>
<polyline fill="none" stroke="#2e3436" stroke-width="1.5" points="273,-131 211,-131 "/>
<path fill="none" stroke="#2e3436" stroke-width="1.5" d="M211,-131C205,-131 199,-125 199,-119"/>
<polyline fill="none" stroke="#2e3436" stroke-width="1.5" points="199,-119 199,-107 "/>
<path fill="none" stroke="#2e3436" stroke-width="1.5" d="M199,-107C199,-101 205,-95 211,-95"/>
<text text-anchor="start" x="207" y="-110.8" font-family="FreeSans" font-size="8.00" fill="#1c2021">Node[28]name = &#39;d&#39;</text>
</g>
<!-- N28&#45;&gt;N29 -->
<g id="edge4" class="edge"><title>N28&#45;&gt;N29</title>
<path fill="none" stroke="#2e3436" stroke-width="2" d="M221.177,-94.8759C203.994,-79.9211 179.496,-58.5983 160.842,-42.3629"/>
<polygon fill="#2e3436" stroke="#2e3436" points="154.76,-37.0685 162.633,-39.4467 157.916,-39.1533 160.745,-41.6153 160.417,-41.9925 160.089,-42.3696 157.26,-39.9076 158.201,-44.5383 154.76,-37.0685 154.76,-37.0685"/>
<text text-anchor="middle" x="215" y="-68.8" font-family="FreeSans" font-size="8.00" fill="#2e3436">to</text>
<text text-anchor="start" x="197" y="-58.8" font-family="FreeSans" font-size="8.00" fill="#2e3436">cost = 0.5</text>
</g>
<!-- N30 -->
<g id="node6" class="node"><title>N30</title>
<polygon fill="#ffffff" stroke="#ffffff" stroke-width="1.5" points="103,-151 165,-151 177,-163 177,-175 165,-187 103,-187 91,-175 91,-163 103,-151"/>
<path fill="#ffffff" stroke="#ffffff" stroke-width="1.5" d="M165,-151C171,-151 177,-157 177,-163"/>
<path fill="#ffffff" stroke="#ffffff" stroke-width="1.5" d="M177,-175C177,-181 171,-187 165,-187"/>
<path fill="#ffffff" stroke="#ffffff" stroke-width="1.5" d="M103,-187C97,-187 91,-181 91,-175"/>
<path fill="#ffffff" stroke="#ffffff" stroke-width="1.5" d="M91,-163C91,-157 97,-151 103,-151"/>
<polyline fill="none" stroke="#2e3436" stroke-width="1.5" points="103,-151 165,-151 "/>
<path fill="none" stroke="#2e3436" stroke-width="1.5" d="M165,-151C171,-151 177,-157 177,-163"/>
<polyline fill="none" stroke="#2e3436" stroke-width="1.5" points="177,-163 177,-175 "/>
<path fill="none" stroke="#2e3436" stroke-width="1.5" d="M177,-175C177,-181 171,-187 165,-187"/>
<polyline fill="none" stroke="#2e3436" stroke-width="1.5" points="165,-187 103,-187 "/>
<path fill="none" stroke="#2e3436" stroke-width="1.5" d="M103,-187C97,-187 91,-181 91,-175"/>
<polyline fill="none" stroke="#2e3436" stroke-width="1.5" points="91,-175 91,-163 "/>
<path fill="none" stroke="#2e3436" stroke-width="1.5" d="M91,-163C91,-157 97,-151 103,-151"/>
<text text-anchor="start" x="99" y="-166.8" font-family="FreeSans" font-size="8.00" fill="#1c2021">Node[30]name = &#39;b&#39;</text>
</g>
<!-- N30&#45;&gt;N29 -->
<g id="edge6" class="edge"><title>N30&#45;&gt;N29</title>
<path fill="none" stroke="#2e3436" stroke-width="2" d="M134,-150.906C134,-124.441 134,-75.0408 134,-44.7812"/>
<polygon fill="#2e3436" stroke="#2e3436" points="134,-37.1577 137.375,-44.6576 134.5,-40.9077 134.5,-44.6577 134,-44.6577 133.5,-44.6577 133.5,-40.9077 130.625,-44.6577 134,-37.1577 134,-37.1577"/>
<text text-anchor="middle" x="152" y="-115.8" font-family="FreeSans" font-size="8.00" fill="#2e3436">to</text>
<text text-anchor="start" x="134" y="-105.8" font-family="FreeSans" font-size="8.00" fill="#2e3436">cost = 0.5</text>
</g>
<!-- N31 -->
<g id="node8" class="node"><title>N31</title>
<polygon fill="#ffffff" stroke="#ffffff" stroke-width="1.5" points="195,-207 257,-207 269,-219 269,-231 257,-243 195,-243 183,-231 183,-219 195,-207"/>
<path fill="#ffffff" stroke="#ffffff" stroke-width="1.5" d="M257,-207C263,-207 269,-213 269,-219"/>
<path fill="#ffffff" stroke="#ffffff" stroke-width="1.5" d="M269,-231C269,-237 263,-243 257,-243"/>
<path fill="#ffffff" stroke="#ffffff" stroke-width="1.5" d="M195,-243C189,-243 183,-237 183,-231"/>
<path fill="#ffffff" stroke="#ffffff" stroke-width="1.5" d="M183,-219C183,-213 189,-207 195,-207"/>
<polyline fill="none" stroke="#2e3436" stroke-width="1.5" points="195,-207 257,-207 "/>
<path fill="none" stroke="#2e3436" stroke-width="1.5" d="M257,-207C263,-207 269,-213 269,-219"/>
<polyline fill="none" stroke="#2e3436" stroke-width="1.5" points="269,-219 269,-231 "/>
<path fill="none" stroke="#2e3436" stroke-width="1.5" d="M269,-231C269,-237 263,-243 257,-243"/>
<polyline fill="none" stroke="#2e3436" stroke-width="1.5" points="257,-243 195,-243 "/>
<path fill="none" stroke="#2e3436" stroke-width="1.5" d="M195,-243C189,-243 183,-237 183,-231"/>
<polyline fill="none" stroke="#2e3436" stroke-width="1.5" points="183,-231 183,-219 "/>
<path fill="none" stroke="#2e3436" stroke-width="1.5" d="M183,-219C183,-213 189,-207 195,-207"/>
<text text-anchor="start" x="191" y="-222.8" font-family="FreeSans" font-size="8.00" fill="#1c2021">Node[31]name = &#39;c&#39;</text>
</g>
<!-- N31&#45;&gt;N28 -->
<g id="edge8" class="edge"><title>N31&#45;&gt;N28</title>
<path fill="none" stroke="#2e3436" stroke-width="2" d="M228.642,-206.505C231.287,-187.994 235.377,-159.364 238.334,-138.66"/>
<polygon fill="#2e3436" stroke="#2e3436" points="239.407,-131.15 241.687,-139.052 239.372,-134.933 238.841,-138.646 238.346,-138.575 237.851,-138.504 238.382,-134.792 235.005,-138.098 239.407,-131.15 239.407,-131.15"/>
<text text-anchor="middle" x="254" y="-171.8" font-family="FreeSans" font-size="8.00" fill="#2e3436">to</text>
<text text-anchor="start" x="236" y="-161.8" font-family="FreeSans" font-size="8.00" fill="#2e3436">cost = 0.5</text>
</g>
<!-- N32 -->
<g id="node10" class="node"><title>N32</title>
<polygon fill="#ffffff" stroke="#ffffff" stroke-width="1.5" points="103,-301 165,-301 177,-313 177,-325 165,-337 103,-337 91,-325 91,-313 103,-301"/>
<path fill="#ffffff" stroke="#ffffff" stroke-width="1.5" d="M165,-301C171,-301 177,-307 177,-313"/>
<path fill="#ffffff" stroke="#ffffff" stroke-width="1.5" d="M177,-325C177,-331 171,-337 165,-337"/>
<path fill="#ffffff" stroke="#ffffff" stroke-width="1.5" d="M103,-337C97,-337 91,-331 91,-325"/>
<path fill="#ffffff" stroke="#ffffff" stroke-width="1.5" d="M91,-313C91,-307 97,-301 103,-301"/>
<polyline fill="none" stroke="#2e3436" stroke-width="1.5" points="103,-301 165,-301 "/>
<path fill="none" stroke="#2e3436" stroke-width="1.5" d="M165,-301C171,-301 177,-307 177,-313"/>
<polyline fill="none" stroke="#2e3436" stroke-width="1.5" points="177,-313 177,-325 "/>
<path fill="none" stroke="#2e3436" stroke-width="1.5" d="M177,-325C177,-331 171,-337 165,-337"/>
<polyline fill="none" stroke="#2e3436" stroke-width="1.5" points="165,-337 103,-337 "/>
<path fill="none" stroke="#2e3436" stroke-width="1.5" d="M103,-337C97,-337 91,-331 91,-325"/>
<polyline fill="none" stroke="#2e3436" stroke-width="1.5" points="91,-325 91,-313 "/>
<path fill="none" stroke="#2e3436" stroke-width="1.5" d="M91,-313C91,-307 97,-301 103,-301"/>
<text text-anchor="start" x="99" y="-316.8" font-family="FreeSans" font-size="8.00" fill="#1c2021">Node[32]name = &#39;a&#39;</text>
</g>
<!-- N32&#45;&gt;N27 -->
<g id="edge14" class="edge"><title>N32&#45;&gt;N27</title>
<path fill="none" stroke="#2e3436" stroke-width="2" d="M108.942,-300.744C102.523,-295.234 96.022,-288.82 91,-282 71.0931,-254.965 57.1731,-218.587 49.3843,-194.495"/>
<polygon fill="#2e3436" stroke="#2e3436" points="47.0711,-187.132 52.5389,-193.276 48.6721,-190.56 49.7961,-194.138 49.3191,-194.288 48.8421,-194.437 47.7181,-190.86 46.0992,-195.299 47.0711,-187.132 47.0711,-187.132"/>
<text text-anchor="middle" x="109" y="-274.8" font-family="FreeSans" font-size="8.00" fill="#2e3436">to</text>
<text text-anchor="start" x="91" y="-264.8" font-family="FreeSans" font-size="8.00" fill="#2e3436">cost = 0.5</text>
</g>
<!-- N32&#45;&gt;N30 -->
<g id="edge10" class="edge"><title>N32&#45;&gt;N30</title>
<path fill="none" stroke="#2e3436" stroke-width="2" d="M134,-300.906C134,-274.441 134,-225.041 134,-194.781"/>
<polygon fill="#2e3436" stroke="#2e3436" points="134,-187.158 137.375,-194.658 134.5,-190.908 134.5,-194.658 134,-194.658 133.5,-194.658 133.5,-190.908 130.625,-194.658 134,-187.158 134,-187.158"/>
<text text-anchor="middle" x="152" y="-274.8" font-family="FreeSans" font-size="8.00" fill="#2e3436">to</text>
<text text-anchor="start" x="134" y="-264.8" font-family="FreeSans" font-size="8.00" fill="#2e3436">cost = 1.5</text>
</g>
<!-- N32&#45;&gt;N31 -->
<g id="edge12" class="edge"><title>N32&#45;&gt;N31</title>
<path fill="none" stroke="#2e3436" stroke-width="2" d="M156.445,-300.791C163.24,-294.989 170.595,-288.408 177,-282 187.334,-271.661 198.006,-259.457 206.742,-248.999"/>
<polygon fill="#2e3436" stroke="#2e3436" points="211.644,-243.071 209.465,-251.002 209.64,-246.279 207.25,-249.169 206.864,-248.851 206.479,-248.532 208.869,-245.642 204.264,-246.7 211.644,-243.071 211.644,-243.071"/>
<text text-anchor="middle" x="213" y="-274.8" font-family="FreeSans" font-size="8.00" fill="#2e3436">to</text>
<text text-anchor="start" x="195" y="-264.8" font-family="FreeSans" font-size="8.00" fill="#2e3436">cost = 0.5</text>
</g>
</g>
</svg>
