<?xml version="1.0" encoding="UTF-8" standalone="no"?>
<!DOCTYPE svg PUBLIC "-//W3C//DTD SVG 1.1//EN"
 "http://www.w3.org/Graphics/SVG/1.1/DTD/svg11.dtd">
<!-- Generated by graphviz version 2.26.3 (20100126.1600)
 -->
<!-- Title: g Pages: 1 -->
<svg width="116pt" height="140pt"
 viewBox="0.00 0.00 116.00 140.00" xmlns="http://www.w3.org/2000/svg" xmlns:xlink="http://www.w3.org/1999/xlink">
<g id="graph1" class="graph" transform="scale(1 1) rotate(0) translate(4 136)">
<title>g</title>
<polygon fill="white" stroke="white" points="-4,5 -4,-136 113,-136 113,5 -4,5"/>
<!-- N12 -->
<g id="node1" class="node"><title>N12</title>
<polygon fill="#ffffff" stroke="#ffffff" stroke-width="1.5" points="15.5,-1 92.5,-1 104.5,-13 104.5,-25 92.5,-37 15.5,-37 3.5,-25 3.5,-13 15.5,-1"/>
<path fill="#ffffff" stroke="#ffffff" stroke-width="1.5" d="M92.5,-1C98.5,-1 104.5,-7 104.5,-13"/>
<path fill="#ffffff" stroke="#ffffff" stroke-width="1.5" d="M104.5,-25C104.5,-31 98.5,-37 92.5,-37"/>
<path fill="#ffffff" stroke="#ffffff" stroke-width="1.5" d="M15.5,-37C9.5,-37 3.5,-31 3.5,-25"/>
<path fill="#ffffff" stroke="#ffffff" stroke-width="1.5" d="M3.5,-13C3.5,-7 9.5,-1 15.5,-1"/>
<polyline fill="none" stroke="#2e3436" stroke-width="1.5" points="15.5,-1 92.5,-1 "/>
<path fill="none" stroke="#2e3436" stroke-width="1.5" d="M92.5,-1C98.5,-1 104.5,-7 104.5,-13"/>
<polyline fill="none" stroke="#2e3436" stroke-width="1.5" points="104.5,-13 104.5,-25 "/>
<path fill="none" stroke="#2e3436" stroke-width="1.5" d="M104.5,-25C104.5,-31 98.5,-37 92.5,-37"/>
<polyline fill="none" stroke="#2e3436" stroke-width="1.5" points="92.5,-37 15.5,-37 "/>
<path fill="none" stroke="#2e3436" stroke-width="1.5" d="M15.5,-37C9.5,-37 3.5,-31 3.5,-25"/>
<polyline fill="none" stroke="#2e3436" stroke-width="1.5" points="3.5,-25 3.5,-13 "/>
<path fill="none" stroke="#2e3436" stroke-width="1.5" d="M3.5,-13C3.5,-7 9.5,-1 15.5,-1"/>
<text text-anchor="start" x="11.5" y="-16.8" font-family="FreeSans" font-size="8.00" fill="#1c2021">Node[12]name = &#39;Juliet&#39;</text>
</g>
<!-- N13 -->
<g id="node2" class="node"><title>N13</title>
<polygon fill="#ffffff" stroke="#ffffff" stroke-width="1.5" points="12,-95 96,-95 108,-107 108,-119 96,-131 12,-131 0,-119 0,-107 12,-95"/>
<path fill="#ffffff" stroke="#ffffff" stroke-width="1.5" d="M96,-95C102,-95 108,-101 108,-107"/>
<path fill="#ffffff" stroke="#ffffff" stroke-width="1.5" d="M108,-119C108,-125 102,-131 96,-131"/>
<path fill="#ffffff" stroke="#ffffff" stroke-width="1.5" d="M12,-131C6,-131 0,-125 0,-119"/>
<path fill="#ffffff" stroke="#ffffff" stroke-width="1.5" d="M0,-107C0,-101 6,-95 12,-95"/>
<polyline fill="none" stroke="#2e3436" stroke-width="1.5" points="12,-95 96,-95 "/>
<path fill="none" stroke="#2e3436" stroke-width="1.5" d="M96,-95C102,-95 108,-101 108,-107"/>
<polyline fill="none" stroke="#2e3436" stroke-width="1.5" points="108,-107 108,-119 "/>
<path fill="none" stroke="#2e3436" stroke-width="1.5" d="M108,-119C108,-125 102,-131 96,-131"/>
<polyline fill="none" stroke="#2e3436" stroke-width="1.5" points="96,-131 12,-131 "/>
<path fill="none" stroke="#2e3436" stroke-width="1.5" d="M12,-131C6,-131 0,-125 0,-119"/>
<polyline fill="none" stroke="#2e3436" stroke-width="1.5" points="0,-119 0,-107 "/>
<path fill="none" stroke="#2e3436" stroke-width="1.5" d="M0,-107C0,-101 6,-95 12,-95"/>
<text text-anchor="start" x="8" y="-110.8" font-family="FreeSans" font-size="8.00" fill="#1c2021">Node[13]name = &#39;Romeo&#39;</text>
</g>
<!-- N13&#45;&gt;N12 -->
<g id="edge2" class="edge"><title>N13&#45;&gt;N12</title>
<path fill="none" stroke="#2e3436" stroke-width="2" d="M54,-94.8759C54,-80.7014 54,-60.806 54,-44.944"/>
<polygon fill="#2e3436" stroke="#2e3436" points="54,-37.0685 57.3751,-44.5685 54.5,-40.8185 54.5001,-44.5685 54.0001,-44.5685 53.5001,-44.5685 53.5,-40.8185 50.6251,-44.5685 54,-37.0685 54,-37.0685"/>
<text text-anchor="middle" x="75.5" y="-68.8" font-family="FreeSans" font-size="8.00" fill="#2e3436">LOVES</text>
<text text-anchor="start" x="54" y="-58.8" font-family="FreeSans" font-size="8.00" fill="#2e3436">cost = &#39;high&#39;</text>
</g>
</g>
</svg>
