<?xml version="1.0" encoding="UTF-8" standalone="no"?>
<!DOCTYPE svg PUBLIC "-//W3C//DTD SVG 1.1//EN"
 "http://www.w3.org/Graphics/SVG/1.1/DTD/svg11.dtd">
<!-- Generated by graphviz version 2.26.3 (20100126.1600)
 -->
<!-- Title: g Pages: 1 -->
<svg width="306pt" height="130pt"
 viewBox="0.00 0.00 306.00 130.00" xmlns="http://www.w3.org/2000/svg" xmlns:xlink="http://www.w3.org/1999/xlink">
<g id="graph1" class="graph" transform="scale(1 1) rotate(0) translate(4 126)">
<title>g</title>
<polygon fill="white" stroke="white" points="-4,5 -4,-126 303,-126 303,5 -4,5"/>
<!-- N90 -->
<g id="node1" class="node"><title>N90</title>
<polygon fill="#ffffff" stroke="#ffffff" stroke-width="1.5" points="12,-1 88,-1 100,-13 100,-25 88,-37 12,-37 0,-25 0,-13 12,-1"/>
<path fill="#ffffff" stroke="#ffffff" stroke-width="1.5" d="M88,-1C94,-1 100,-7 100,-13"/>
<path fill="#ffffff" stroke="#ffffff" stroke-width="1.5" d="M100,-25C100,-31 94,-37 88,-37"/>
<path fill="#ffffff" stroke="#ffffff" stroke-width="1.5" d="M12,-37C6,-37 0,-31 0,-25"/>
<path fill="#ffffff" stroke="#ffffff" stroke-width="1.5" d="M0,-13C0,-7 6,-1 12,-1"/>
<polyline fill="none" stroke="#2e3436" stroke-width="1.5" points="12,-1 88,-1 "/>
<path fill="none" stroke="#2e3436" stroke-width="1.5" d="M88,-1C94,-1 100,-7 100,-13"/>
<polyline fill="none" stroke="#2e3436" stroke-width="1.5" points="100,-13 100,-25 "/>
<path fill="none" stroke="#2e3436" stroke-width="1.5" d="M100,-25C100,-31 94,-37 88,-37"/>
<polyline fill="none" stroke="#2e3436" stroke-width="1.5" points="88,-37 12,-37 "/>
<path fill="none" stroke="#2e3436" stroke-width="1.5" d="M12,-37C6,-37 0,-31 0,-25"/>
<polyline fill="none" stroke="#2e3436" stroke-width="1.5" points="0,-25 0,-13 "/>
<path fill="none" stroke="#2e3436" stroke-width="1.5" d="M0,-13C0,-7 6,-1 12,-1"/>
<text text-anchor="start" x="8" y="-16.8" font-family="FreeSans" font-size="8.00" fill="#1c2021">Node[90]name = &#39;John&#39;</text>
</g>
<!-- N91 -->
<g id="node2" class="node"><title>N91</title>
<polygon fill="#ffffff" stroke="#ffffff" stroke-width="1.5" points="23.5,-85 76.5,-85 88.5,-97 88.5,-109 76.5,-121 23.5,-121 11.5,-109 11.5,-97 23.5,-85"/>
<path fill="#ffffff" stroke="#ffffff" stroke-width="1.5" d="M76.5,-85C82.5,-85 88.5,-91 88.5,-97"/>
<path fill="#ffffff" stroke="#ffffff" stroke-width="1.5" d="M88.5,-109C88.5,-115 82.5,-121 76.5,-121"/>
<path fill="#ffffff" stroke="#ffffff" stroke-width="1.5" d="M23.5,-121C17.5,-121 11.5,-115 11.5,-109"/>
<path fill="#ffffff" stroke="#ffffff" stroke-width="1.5" d="M11.5,-97C11.5,-91 17.5,-85 23.5,-85"/>
<polyline fill="none" stroke="#2e3436" stroke-width="1.5" points="23.5,-85 76.5,-85 "/>
<path fill="none" stroke="#2e3436" stroke-width="1.5" d="M76.5,-85C82.5,-85 88.5,-91 88.5,-97"/>
<polyline fill="none" stroke="#2e3436" stroke-width="1.5" points="88.5,-97 88.5,-109 "/>
<path fill="none" stroke="#2e3436" stroke-width="1.5" d="M88.5,-109C88.5,-115 82.5,-121 76.5,-121"/>
<polyline fill="none" stroke="#2e3436" stroke-width="1.5" points="76.5,-121 23.5,-121 "/>
<path fill="none" stroke="#2e3436" stroke-width="1.5" d="M23.5,-121C17.5,-121 11.5,-115 11.5,-109"/>
<polyline fill="none" stroke="#2e3436" stroke-width="1.5" points="11.5,-109 11.5,-97 "/>
<path fill="none" stroke="#2e3436" stroke-width="1.5" d="M11.5,-97C11.5,-91 17.5,-85 23.5,-85"/>
<text text-anchor="start" x="19.5" y="-100.8" font-family="FreeSans" font-size="8.00" fill="#1c2021">Node[91]age = 1</text>
</g>
<!-- N91&#45;&gt;N90 -->
<g id="edge2" class="edge"><title>N91&#45;&gt;N90</title>
<path fill="none" stroke="#2e3436" stroke-width="2" d="M50,-84.7733C50,-73.1053 50,-57.7874 50,-44.8699"/>
<polygon fill="#2e3436" stroke="#2e3436" points="50,-37.1912 53.3751,-44.6911 50.5,-40.9412 50.5001,-44.6912 50.0001,-44.6912 49.5001,-44.6912 49.5,-40.9412 46.6251,-44.6912 50,-37.1912 50,-37.1912"/>
<text text-anchor="middle" x="62" y="-58.8" font-family="FreeSans" font-size="8.00" fill="#2e3436">knows</text>
</g>
<!-- N92 -->
<g id="node4" class="node"><title>N92</title>
<polygon fill="#ffffff" stroke="#ffffff" stroke-width="1.5" points="128.5,-85 181.5,-85 193.5,-97 193.5,-109 181.5,-121 128.5,-121 116.5,-109 116.5,-97 128.5,-85"/>
<path fill="#ffffff" stroke="#ffffff" stroke-width="1.5" d="M181.5,-85C187.5,-85 193.5,-91 193.5,-97"/>
<path fill="#ffffff" stroke="#ffffff" stroke-width="1.5" d="M193.5,-109C193.5,-115 187.5,-121 181.5,-121"/>
<path fill="#ffffff" stroke="#ffffff" stroke-width="1.5" d="M128.5,-121C122.5,-121 116.5,-115 116.5,-109"/>
<path fill="#ffffff" stroke="#ffffff" stroke-width="1.5" d="M116.5,-97C116.5,-91 122.5,-85 128.5,-85"/>
<polyline fill="none" stroke="#2e3436" stroke-width="1.5" points="128.5,-85 181.5,-85 "/>
<path fill="none" stroke="#2e3436" stroke-width="1.5" d="M181.5,-85C187.5,-85 193.5,-91 193.5,-97"/>
<polyline fill="none" stroke="#2e3436" stroke-width="1.5" points="193.5,-97 193.5,-109 "/>
<path fill="none" stroke="#2e3436" stroke-width="1.5" d="M193.5,-109C193.5,-115 187.5,-121 181.5,-121"/>
<polyline fill="none" stroke="#2e3436" stroke-width="1.5" points="181.5,-121 128.5,-121 "/>
<path fill="none" stroke="#2e3436" stroke-width="1.5" d="M128.5,-121C122.5,-121 116.5,-115 116.5,-109"/>
<polyline fill="none" stroke="#2e3436" stroke-width="1.5" points="116.5,-109 116.5,-97 "/>
<path fill="none" stroke="#2e3436" stroke-width="1.5" d="M116.5,-97C116.5,-91 122.5,-85 128.5,-85"/>
<text text-anchor="start" x="124.5" y="-100.8" font-family="FreeSans" font-size="8.00" fill="#1c2021">Node[92]age = 1</text>
</g>
<!-- N93 -->
<g id="node5" class="node"><title>N93</title>
<polygon fill="#ffffff" stroke="#ffffff" stroke-width="1.5" points="233.5,-85 286.5,-85 298.5,-97 298.5,-109 286.5,-121 233.5,-121 221.5,-109 221.5,-97 233.5,-85"/>
<path fill="#ffffff" stroke="#ffffff" stroke-width="1.5" d="M286.5,-85C292.5,-85 298.5,-91 298.5,-97"/>
<path fill="#ffffff" stroke="#ffffff" stroke-width="1.5" d="M298.5,-109C298.5,-115 292.5,-121 286.5,-121"/>
<path fill="#ffffff" stroke="#ffffff" stroke-width="1.5" d="M233.5,-121C227.5,-121 221.5,-115 221.5,-109"/>
<path fill="#ffffff" stroke="#ffffff" stroke-width="1.5" d="M221.5,-97C221.5,-91 227.5,-85 233.5,-85"/>
<polyline fill="none" stroke="#2e3436" stroke-width="1.5" points="233.5,-85 286.5,-85 "/>
<path fill="none" stroke="#2e3436" stroke-width="1.5" d="M286.5,-85C292.5,-85 298.5,-91 298.5,-97"/>
<polyline fill="none" stroke="#2e3436" stroke-width="1.5" points="298.5,-97 298.5,-109 "/>
<path fill="none" stroke="#2e3436" stroke-width="1.5" d="M298.5,-109C298.5,-115 292.5,-121 286.5,-121"/>
<polyline fill="none" stroke="#2e3436" stroke-width="1.5" points="286.5,-121 233.5,-121 "/>
<path fill="none" stroke="#2e3436" stroke-width="1.5" d="M233.5,-121C227.5,-121 221.5,-115 221.5,-109"/>
<polyline fill="none" stroke="#2e3436" stroke-width="1.5" points="221.5,-109 221.5,-97 "/>
<path fill="none" stroke="#2e3436" stroke-width="1.5" d="M221.5,-97C221.5,-91 227.5,-85 233.5,-85"/>
<text text-anchor="start" x="229.5" y="-100.8" font-family="FreeSans" font-size="8.00" fill="#1c2021">Node[93]age = 1</text>
</g>
</g>
</svg>
