<?xml version="1.0" encoding="UTF-8" standalone="no"?>
<!DOCTYPE svg PUBLIC "-//W3C//DTD SVG 1.1//EN"
 "http://www.w3.org/Graphics/SVG/1.1/DTD/svg11.dtd">
<!-- Generated by graphviz version 2.26.3 (20100126.1600)
 -->
<!-- Title: g Pages: 1 -->
<svg width="237pt" height="46pt"
 viewBox="0.00 0.00 237.00 46.00" xmlns="http://www.w3.org/2000/svg" xmlns:xlink="http://www.w3.org/1999/xlink">
<g id="graph1" class="graph" transform="scale(1 1) rotate(0) translate(4 42)">
<title>g</title>
<polygon fill="white" stroke="white" points="-4,5 -4,-42 234,-42 234,5 -4,5"/>
<!-- N4 -->
<g id="node1" class="node"><title>N4</title>
<polygon fill="#ffffff" stroke="#ffffff" stroke-width="1.5" points="12,-1 84,-1 96,-13 96,-25 84,-37 12,-37 0,-25 0,-13 12,-1"/>
<path fill="#ffffff" stroke="#ffffff" stroke-width="1.5" d="M84,-1C90,-1 96,-7 96,-13"/>
<path fill="#ffffff" stroke="#ffffff" stroke-width="1.5" d="M96,-25C96,-31 90,-37 84,-37"/>
<path fill="#ffffff" stroke="#ffffff" stroke-width="1.5" d="M12,-37C6,-37 0,-31 0,-25"/>
<path fill="#ffffff" stroke="#ffffff" stroke-width="1.5" d="M0,-13C0,-7 6,-1 12,-1"/>
<polyline fill="none" stroke="#2e3436" stroke-width="1.5" points="12,-1 84,-1 "/>
<path fill="none" stroke="#2e3436" stroke-width="1.5" d="M84,-1C90,-1 96,-7 96,-13"/>
<polyline fill="none" stroke="#2e3436" stroke-width="1.5" points="96,-13 96,-25 "/>
<path fill="none" stroke="#2e3436" stroke-width="1.5" d="M96,-25C96,-31 90,-37 84,-37"/>
<polyline fill="none" stroke="#2e3436" stroke-width="1.5" points="84,-37 12,-37 "/>
<path fill="none" stroke="#2e3436" stroke-width="1.5" d="M12,-37C6,-37 0,-31 0,-25"/>
<polyline fill="none" stroke="#2e3436" stroke-width="1.5" points="0,-25 0,-13 "/>
<path fill="none" stroke="#2e3436" stroke-width="1.5" d="M0,-13C0,-7 6,-1 12,-1"/>
<text text-anchor="start" x="8" y="-16.8" font-family="FreeSans" font-size="8.00" fill="#1c2021">Node[4]name = &#39;Juliet&#39;</text>
</g>
<!-- N5 -->
<g id="node2" class="node"><title>N5</title>
<polygon fill="#ffffff" stroke="#ffffff" stroke-width="1.5" points="137,-1 217,-1 229,-13 229,-25 217,-37 137,-37 125,-25 125,-13 137,-1"/>
<path fill="#ffffff" stroke="#ffffff" stroke-width="1.5" d="M217,-1C223,-1 229,-7 229,-13"/>
<path fill="#ffffff" stroke="#ffffff" stroke-width="1.5" d="M229,-25C229,-31 223,-37 217,-37"/>
<path fill="#ffffff" stroke="#ffffff" stroke-width="1.5" d="M137,-37C131,-37 125,-31 125,-25"/>
<path fill="#ffffff" stroke="#ffffff" stroke-width="1.5" d="M125,-13C125,-7 131,-1 137,-1"/>
<polyline fill="none" stroke="#2e3436" stroke-width="1.5" points="137,-1 217,-1 "/>
<path fill="none" stroke="#2e3436" stroke-width="1.5" d="M217,-1C223,-1 229,-7 229,-13"/>
<polyline fill="none" stroke="#2e3436" stroke-width="1.5" points="229,-13 229,-25 "/>
<path fill="none" stroke="#2e3436" stroke-width="1.5" d="M229,-25C229,-31 223,-37 217,-37"/>
<polyline fill="none" stroke="#2e3436" stroke-width="1.5" points="217,-37 137,-37 "/>
<path fill="none" stroke="#2e3436" stroke-width="1.5" d="M137,-37C131,-37 125,-31 125,-25"/>
<polyline fill="none" stroke="#2e3436" stroke-width="1.5" points="125,-25 125,-13 "/>
<path fill="none" stroke="#2e3436" stroke-width="1.5" d="M125,-13C125,-7 131,-1 137,-1"/>
<text text-anchor="start" x="133" y="-16.8" font-family="FreeSans" font-size="8.00" fill="#1c2021">Node[5]name = &#39;Romeo&#39;</text>
</g>
</g>
</svg>
