<?xml version="1.0" encoding="UTF-8" standalone="no"?>
<!DOCTYPE svg PUBLIC "-//W3C//DTD SVG 1.1//EN"
 "http://www.w3.org/Graphics/SVG/1.1/DTD/svg11.dtd">
<!-- Generated by graphviz version 2.26.3 (20100126.1600)
 -->
<!-- Title: g Pages: 1 -->
<svg width="120pt" height="130pt"
 viewBox="0.00 0.00 120.00 130.00" xmlns="http://www.w3.org/2000/svg" xmlns:xlink="http://www.w3.org/1999/xlink">
<g id="graph1" class="graph" transform="scale(1 1) rotate(0) translate(4 126)">
<title>g</title>
<polygon fill="white" stroke="white" points="-4,5 -4,-126 117,-126 117,5 -4,5"/>
<!-- N182 -->
<g id="node1" class="node"><title>N182</title>
<polygon fill="#ffffff" stroke="#ffffff" stroke-width="1.5" points="15.5,-1 96.5,-1 108.5,-13 108.5,-25 96.5,-37 15.5,-37 3.5,-25 3.5,-13 15.5,-1"/>
<path fill="#ffffff" stroke="#ffffff" stroke-width="1.5" d="M96.5,-1C102.5,-1 108.5,-7 108.5,-13"/>
<path fill="#ffffff" stroke="#ffffff" stroke-width="1.5" d="M108.5,-25C108.5,-31 102.5,-37 96.5,-37"/>
<path fill="#ffffff" stroke="#ffffff" stroke-width="1.5" d="M15.5,-37C9.5,-37 3.5,-31 3.5,-25"/>
<path fill="#ffffff" stroke="#ffffff" stroke-width="1.5" d="M3.5,-13C3.5,-7 9.5,-1 15.5,-1"/>
<polyline fill="none" stroke="#2e3436" stroke-width="1.5" points="15.5,-1 96.5,-1 "/>
<path fill="none" stroke="#2e3436" stroke-width="1.5" d="M96.5,-1C102.5,-1 108.5,-7 108.5,-13"/>
<polyline fill="none" stroke="#2e3436" stroke-width="1.5" points="108.5,-13 108.5,-25 "/>
<path fill="none" stroke="#2e3436" stroke-width="1.5" d="M108.5,-25C108.5,-31 102.5,-37 96.5,-37"/>
<polyline fill="none" stroke="#2e3436" stroke-width="1.5" points="96.5,-37 15.5,-37 "/>
<path fill="none" stroke="#2e3436" stroke-width="1.5" d="M15.5,-37C9.5,-37 3.5,-31 3.5,-25"/>
<polyline fill="none" stroke="#2e3436" stroke-width="1.5" points="3.5,-25 3.5,-13 "/>
<path fill="none" stroke="#2e3436" stroke-width="1.5" d="M3.5,-13C3.5,-7 9.5,-1 15.5,-1"/>
<text text-anchor="start" x="11.5" y="-16.8" font-family="FreeSans" font-size="8.00" fill="#1c2021">Node[182]name = &#39;Juliet&#39;</text>
</g>
<!-- N183 -->
<g id="node2" class="node"><title>N183</title>
<polygon fill="#ffffff" stroke="#ffffff" stroke-width="1.5" points="11.5,-85 100.5,-85 112.5,-97 112.5,-109 100.5,-121 11.5,-121 -0.5,-109 -0.5,-97 11.5,-85"/>
<path fill="#ffffff" stroke="#ffffff" stroke-width="1.5" d="M100.5,-85C106.5,-85 112.5,-91 112.5,-97"/>
<path fill="#ffffff" stroke="#ffffff" stroke-width="1.5" d="M112.5,-109C112.5,-115 106.5,-121 100.5,-121"/>
<path fill="#ffffff" stroke="#ffffff" stroke-width="1.5" d="M11.5,-121C5.5,-121 -0.5,-115 -0.5,-109"/>
<path fill="#ffffff" stroke="#ffffff" stroke-width="1.5" d="M-0.5,-97C-0.5,-91 5.5,-85 11.5,-85"/>
<polyline fill="none" stroke="#2e3436" stroke-width="1.5" points="11.5,-85 100.5,-85 "/>
<path fill="none" stroke="#2e3436" stroke-width="1.5" d="M100.5,-85C106.5,-85 112.5,-91 112.5,-97"/>
<polyline fill="none" stroke="#2e3436" stroke-width="1.5" points="112.5,-97 112.5,-109 "/>
<path fill="none" stroke="#2e3436" stroke-width="1.5" d="M112.5,-109C112.5,-115 106.5,-121 100.5,-121"/>
<polyline fill="none" stroke="#2e3436" stroke-width="1.5" points="100.5,-121 11.5,-121 "/>
<path fill="none" stroke="#2e3436" stroke-width="1.5" d="M11.5,-121C5.5,-121 -0.5,-115 -0.5,-109"/>
<polyline fill="none" stroke="#2e3436" stroke-width="1.5" points="-0.5,-109 -0.5,-97 "/>
<path fill="none" stroke="#2e3436" stroke-width="1.5" d="M-0.5,-97C-0.5,-91 5.5,-85 11.5,-85"/>
<text text-anchor="start" x="7.5" y="-100.8" font-family="FreeSans" font-size="8.00" fill="#1c2021">Node[183]name = &#39;Romeo&#39;</text>
</g>
<!-- N183&#45;&gt;N182 -->
<g id="edge2" class="edge"><title>N183&#45;&gt;N182</title>
<path fill="none" stroke="#2e3436" stroke-width="2" d="M56,-84.7733C56,-73.1053 56,-57.7874 56,-44.8699"/>
<polygon fill="#2e3436" stroke="#2e3436" points="56,-37.1912 59.3751,-44.6911 56.5,-40.9412 56.5001,-44.6912 56.0001,-44.6912 55.5001,-44.6912 55.5,-40.9412 52.6251,-44.6912 56,-37.1912 56,-37.1912"/>
<text text-anchor="middle" x="70" y="-58.8" font-family="FreeSans" font-size="8.00" fill="#2e3436">LOVES</text>
</g>
</g>
</svg>
