<?xml version="1.0" encoding="UTF-8" standalone="no"?>
<!DOCTYPE svg PUBLIC "-//W3C//DTD SVG 1.1//EN"
 "http://www.w3.org/Graphics/SVG/1.1/DTD/svg11.dtd">
<!-- Generated by graphviz version 2.26.3 (20100126.1600)
 -->
<!-- Title: g Pages: 1 -->
<svg width="288pt" height="46pt"
 viewBox="0.00 0.00 288.00 46.00" xmlns="http://www.w3.org/2000/svg" xmlns:xlink="http://www.w3.org/1999/xlink">
<g id="graph1" class="graph" transform="scale(1 1) rotate(0) translate(4 42)">
<title>g</title>
<polygon fill="white" stroke="white" points="-4,5 -4,-42 285,-42 285,5 -4,5"/>
<!-- N119 -->
<g id="node1" class="node"><title>N119</title>
<polygon fill="#ffffff" stroke="#ffffff" stroke-width="1.5" points="12,-1 68,-1 80,-13 80,-25 68,-37 12,-37 0,-25 0,-13 12,-1"/>
<path fill="#ffffff" stroke="#ffffff" stroke-width="1.5" d="M68,-1C74,-1 80,-7 80,-13"/>
<path fill="#ffffff" stroke="#ffffff" stroke-width="1.5" d="M80,-25C80,-31 74,-37 68,-37"/>
<path fill="#ffffff" stroke="#ffffff" stroke-width="1.5" d="M12,-37C6,-37 0,-31 0,-25"/>
<path fill="#ffffff" stroke="#ffffff" stroke-width="1.5" d="M0,-13C0,-7 6,-1 12,-1"/>
<polyline fill="none" stroke="#2e3436" stroke-width="1.5" points="12,-1 68,-1 "/>
<path fill="none" stroke="#2e3436" stroke-width="1.5" d="M68,-1C74,-1 80,-7 80,-13"/>
<polyline fill="none" stroke="#2e3436" stroke-width="1.5" points="80,-13 80,-25 "/>
<path fill="none" stroke="#2e3436" stroke-width="1.5" d="M80,-25C80,-31 74,-37 68,-37"/>
<polyline fill="none" stroke="#2e3436" stroke-width="1.5" points="68,-37 12,-37 "/>
<path fill="none" stroke="#2e3436" stroke-width="1.5" d="M12,-37C6,-37 0,-31 0,-25"/>
<polyline fill="none" stroke="#2e3436" stroke-width="1.5" points="0,-25 0,-13 "/>
<path fill="none" stroke="#2e3436" stroke-width="1.5" d="M0,-13C0,-7 6,-1 12,-1"/>
<text text-anchor="middle" x="40" y="-25.8" font-family="FreeSans" font-size="8.00" fill="#1c2021">Node[119]</text>
<polyline fill="none" stroke="#2e3436" stroke-width="1.5" points="0,-19 80,-19 "/>
<text text-anchor="start" x="8" y="-7.8" font-family="FreeSans" font-size="8.00" fill="#1c2021">name = &#39;bob ross&#39;</text>
</g>
<!-- N120 -->
<g id="node2" class="node"><title>N120</title>
<polygon fill="#ffffff" stroke="#ffffff" stroke-width="1.5" points="120.5,-1 185.5,-1 197.5,-13 197.5,-25 185.5,-37 120.5,-37 108.5,-25 108.5,-13 120.5,-1"/>
<path fill="#ffffff" stroke="#ffffff" stroke-width="1.5" d="M185.5,-1C191.5,-1 197.5,-7 197.5,-13"/>
<path fill="#ffffff" stroke="#ffffff" stroke-width="1.5" d="M197.5,-25C197.5,-31 191.5,-37 185.5,-37"/>
<path fill="#ffffff" stroke="#ffffff" stroke-width="1.5" d="M120.5,-37C114.5,-37 108.5,-31 108.5,-25"/>
<path fill="#ffffff" stroke="#ffffff" stroke-width="1.5" d="M108.5,-13C108.5,-7 114.5,-1 120.5,-1"/>
<polyline fill="none" stroke="#2e3436" stroke-width="1.5" points="120.5,-1 185.5,-1 "/>
<path fill="none" stroke="#2e3436" stroke-width="1.5" d="M185.5,-1C191.5,-1 197.5,-7 197.5,-13"/>
<polyline fill="none" stroke="#2e3436" stroke-width="1.5" points="197.5,-13 197.5,-25 "/>
<path fill="none" stroke="#2e3436" stroke-width="1.5" d="M197.5,-25C197.5,-31 191.5,-37 185.5,-37"/>
<polyline fill="none" stroke="#2e3436" stroke-width="1.5" points="185.5,-37 120.5,-37 "/>
<path fill="none" stroke="#2e3436" stroke-width="1.5" d="M120.5,-37C114.5,-37 108.5,-31 108.5,-25"/>
<polyline fill="none" stroke="#2e3436" stroke-width="1.5" points="108.5,-25 108.5,-13 "/>
<path fill="none" stroke="#2e3436" stroke-width="1.5" d="M108.5,-13C108.5,-7 114.5,-1 120.5,-1"/>
<text text-anchor="middle" x="153" y="-25.8" font-family="FreeSans" font-size="8.00" fill="#1c2021">Node[120]</text>
<polyline fill="none" stroke="#2e3436" stroke-width="1.5" points="108.5,-19 197.5,-19 "/>
<text text-anchor="start" x="116.5" y="-7.8" font-family="FreeSans" font-size="8.00" fill="#1c2021">name = &#39;cat stevens&#39;</text>
</g>
<!-- N121 -->
<g id="node3" class="node"><title>N121</title>
<polygon fill="#ffffff" stroke="#ffffff" stroke-width="1.5" points="238,-1 268,-1 280,-13 280,-25 268,-37 238,-37 226,-25 226,-13 238,-1"/>
<path fill="#ffffff" stroke="#ffffff" stroke-width="1.5" d="M268,-1C274,-1 280,-7 280,-13"/>
<path fill="#ffffff" stroke="#ffffff" stroke-width="1.5" d="M280,-25C280,-31 274,-37 268,-37"/>
<path fill="#ffffff" stroke="#ffffff" stroke-width="1.5" d="M238,-37C232,-37 226,-31 226,-25"/>
<path fill="#ffffff" stroke="#ffffff" stroke-width="1.5" d="M226,-13C226,-7 232,-1 238,-1"/>
<polyline fill="none" stroke="#2e3436" stroke-width="1.5" points="238,-1 268,-1 "/>
<path fill="none" stroke="#2e3436" stroke-width="1.5" d="M268,-1C274,-1 280,-7 280,-13"/>
<polyline fill="none" stroke="#2e3436" stroke-width="1.5" points="280,-13 280,-25 "/>
<path fill="none" stroke="#2e3436" stroke-width="1.5" d="M280,-25C280,-31 274,-37 268,-37"/>
<polyline fill="none" stroke="#2e3436" stroke-width="1.5" points="268,-37 238,-37 "/>
<path fill="none" stroke="#2e3436" stroke-width="1.5" d="M238,-37C232,-37 226,-31 226,-25"/>
<polyline fill="none" stroke="#2e3436" stroke-width="1.5" points="226,-25 226,-13 "/>
<path fill="none" stroke="#2e3436" stroke-width="1.5" d="M226,-13C226,-7 232,-1 238,-1"/>
<text text-anchor="middle" x="253" y="-25.8" font-family="FreeSans" font-size="8.00" fill="#1c2021">Node[121]</text>
<polyline fill="none" stroke="#2e3436" stroke-width="1.5" points="226,-19 280,-19 "/>
<text text-anchor="middle" x="253" y="-7.8" font-family="FreeSans" font-size="8.00" fill="#1c2021"> </text>
</g>
</g>
</svg>
