<?xml version="1.0" encoding="UTF-8" standalone="no"?>
<!DOCTYPE svg PUBLIC "-//W3C//DTD SVG 1.1//EN"
 "http://www.w3.org/Graphics/SVG/1.1/DTD/svg11.dtd">
<!-- Generated by graphviz version 2.26.3 (20100126.1600)
 -->
<!-- Title: g Pages: 1 -->
<svg width="104pt" height="140pt"
 viewBox="0.00 0.00 104.00 140.00" xmlns="http://www.w3.org/2000/svg" xmlns:xlink="http://www.w3.org/1999/xlink">
<g id="graph1" class="graph" transform="scale(1 1) rotate(0) translate(4 136)">
<title>g</title>
<polygon fill="white" stroke="white" points="-4,5 -4,-136 101,-136 101,5 -4,5"/>
<!-- N83 -->
<g id="node1" class="node"><title>N83</title>
<polygon fill="#ffffff" stroke="#ffffff" stroke-width="1.5" points="11.5,-95 82.5,-95 94.5,-107 94.5,-119 82.5,-131 11.5,-131 -0.5,-119 -0.5,-107 11.5,-95"/>
<path fill="#ffffff" stroke="#ffffff" stroke-width="1.5" d="M82.5,-95C88.5,-95 94.5,-101 94.5,-107"/>
<path fill="#ffffff" stroke="#ffffff" stroke-width="1.5" d="M94.5,-119C94.5,-125 88.5,-131 82.5,-131"/>
<path fill="#ffffff" stroke="#ffffff" stroke-width="1.5" d="M11.5,-131C5.5,-131 -0.5,-125 -0.5,-119"/>
<path fill="#ffffff" stroke="#ffffff" stroke-width="1.5" d="M-0.5,-107C-0.5,-101 5.5,-95 11.5,-95"/>
<polyline fill="none" stroke="#2e3436" stroke-width="1.5" points="11.5,-95 82.5,-95 "/>
<path fill="none" stroke="#2e3436" stroke-width="1.5" d="M82.5,-95C88.5,-95 94.5,-101 94.5,-107"/>
<polyline fill="none" stroke="#2e3436" stroke-width="1.5" points="94.5,-107 94.5,-119 "/>
<path fill="none" stroke="#2e3436" stroke-width="1.5" d="M94.5,-119C94.5,-125 88.5,-131 82.5,-131"/>
<polyline fill="none" stroke="#2e3436" stroke-width="1.5" points="82.5,-131 11.5,-131 "/>
<path fill="none" stroke="#2e3436" stroke-width="1.5" d="M11.5,-131C5.5,-131 -0.5,-125 -0.5,-119"/>
<polyline fill="none" stroke="#2e3436" stroke-width="1.5" points="-0.5,-119 -0.5,-107 "/>
<path fill="none" stroke="#2e3436" stroke-width="1.5" d="M-0.5,-107C-0.5,-101 5.5,-95 11.5,-95"/>
<text text-anchor="start" x="7.5" y="-110.8" font-family="FreeSans" font-size="8.00" fill="#1c2021">Node[83]name = &#39;bob&#39;</text>
</g>
<!-- N84 -->
<g id="node3" class="node"><title>N84</title>
<polygon fill="#ffffff" stroke="#ffffff" stroke-width="1.5" points="18.5,-1 75.5,-1 87.5,-13 87.5,-25 75.5,-37 18.5,-37 6.5,-25 6.5,-13 18.5,-1"/>
<path fill="#ffffff" stroke="#ffffff" stroke-width="1.5" d="M75.5,-1C81.5,-1 87.5,-7 87.5,-13"/>
<path fill="#ffffff" stroke="#ffffff" stroke-width="1.5" d="M87.5,-25C87.5,-31 81.5,-37 75.5,-37"/>
<path fill="#ffffff" stroke="#ffffff" stroke-width="1.5" d="M18.5,-37C12.5,-37 6.5,-31 6.5,-25"/>
<path fill="#ffffff" stroke="#ffffff" stroke-width="1.5" d="M6.5,-13C6.5,-7 12.5,-1 18.5,-1"/>
<polyline fill="none" stroke="#2e3436" stroke-width="1.5" points="18.5,-1 75.5,-1 "/>
<path fill="none" stroke="#2e3436" stroke-width="1.5" d="M75.5,-1C81.5,-1 87.5,-7 87.5,-13"/>
<polyline fill="none" stroke="#2e3436" stroke-width="1.5" points="87.5,-13 87.5,-25 "/>
<path fill="none" stroke="#2e3436" stroke-width="1.5" d="M87.5,-25C87.5,-31 81.5,-37 75.5,-37"/>
<polyline fill="none" stroke="#2e3436" stroke-width="1.5" points="75.5,-37 18.5,-37 "/>
<path fill="none" stroke="#2e3436" stroke-width="1.5" d="M18.5,-37C12.5,-37 6.5,-31 6.5,-25"/>
<polyline fill="none" stroke="#2e3436" stroke-width="1.5" points="6.5,-25 6.5,-13 "/>
<path fill="none" stroke="#2e3436" stroke-width="1.5" d="M6.5,-13C6.5,-7 12.5,-1 18.5,-1"/>
<text text-anchor="start" x="14.5" y="-16.8" font-family="FreeSans" font-size="8.00" fill="#1c2021">Node[84]age = 12</text>
</g>
<!-- N83&#45;&gt;N84 -->
<g id="edge2" class="edge"><title>N83&#45;&gt;N84</title>
<path fill="none" stroke="#2e3436" stroke-width="2" d="M47,-94.8759C47,-80.7014 47,-60.806 47,-44.944"/>
<polygon fill="#2e3436" stroke="#2e3436" points="47,-37.0685 50.3751,-44.5685 47.5,-40.8185 47.5001,-44.5685 47.0001,-44.5685 46.5001,-44.5685 46.5,-40.8185 43.6251,-44.5685 47,-37.0685 47,-37.0685"/>
<text text-anchor="middle" x="71.5" y="-68.8" font-family="FreeSans" font-size="8.00" fill="#2e3436">KNOWS</text>
<text text-anchor="start" x="47" y="-58.8" font-family="FreeSans" font-size="8.00" fill="#2e3436">since = &#39;2010&#39;</text>
</g>
</g>
</svg>
