<?xml version="1.0" encoding="UTF-8" standalone="no"?>
<!DOCTYPE svg PUBLIC "-//W3C//DTD SVG 1.1//EN"
 "http://www.w3.org/Graphics/SVG/1.1/DTD/svg11.dtd">
<!-- Generated by graphviz version 2.26.3 (20100126.1600)
 -->
<!-- Title: g Pages: 1 -->
<svg width="70pt" height="130pt"
 viewBox="0.00 0.00 70.00 130.00" xmlns="http://www.w3.org/2000/svg" xmlns:xlink="http://www.w3.org/1999/xlink">
<g id="graph1" class="graph" transform="scale(1 1) rotate(0) translate(4 126)">
<title>g</title>
<polygon fill="white" stroke="white" points="-4,5 -4,-126 67,-126 67,5 -4,5"/>
<!-- N15 -->
<g id="node1" class="node"><title>N15</title>
<polygon fill="#ffffff" stroke="#ffffff" stroke-width="1.5" points="12,-1 50,-1 62,-13 62,-25 50,-37 12,-37 0,-25 0,-13 12,-1"/>
<path fill="#ffffff" stroke="#ffffff" stroke-width="1.5" d="M50,-1C56,-1 62,-7 62,-13"/>
<path fill="#ffffff" stroke="#ffffff" stroke-width="1.5" d="M62,-25C62,-31 56,-37 50,-37"/>
<path fill="#ffffff" stroke="#ffffff" stroke-width="1.5" d="M12,-37C6,-37 0,-31 0,-25"/>
<path fill="#ffffff" stroke="#ffffff" stroke-width="1.5" d="M0,-13C0,-7 6,-1 12,-1"/>
<polyline fill="none" stroke="#2e3436" stroke-width="1.5" points="12,-1 50,-1 "/>
<path fill="none" stroke="#2e3436" stroke-width="1.5" d="M50,-1C56,-1 62,-7 62,-13"/>
<polyline fill="none" stroke="#2e3436" stroke-width="1.5" points="62,-13 62,-25 "/>
<path fill="none" stroke="#2e3436" stroke-width="1.5" d="M62,-25C62,-31 56,-37 50,-37"/>
<polyline fill="none" stroke="#2e3436" stroke-width="1.5" points="50,-37 12,-37 "/>
<path fill="none" stroke="#2e3436" stroke-width="1.5" d="M12,-37C6,-37 0,-31 0,-25"/>
<polyline fill="none" stroke="#2e3436" stroke-width="1.5" points="0,-25 0,-13 "/>
<path fill="none" stroke="#2e3436" stroke-width="1.5" d="M0,-13C0,-7 6,-1 12,-1"/>
<text text-anchor="middle" x="31" y="-25.8" font-family="FreeSans" font-size="8.00" fill="#1c2021">Node[15]</text>
<polyline fill="none" stroke="#2e3436" stroke-width="1.5" points="0,-19 62,-19 "/>
<text text-anchor="start" x="8" y="-7.8" font-family="FreeSans" font-size="8.00" fill="#1c2021">name = &#39;you&#39;</text>
</g>
<!-- N16 -->
<g id="node2" class="node"><title>N16</title>
<polygon fill="#ffffff" stroke="#ffffff" stroke-width="1.5" points="16,-85 46,-85 58,-97 58,-109 46,-121 16,-121 4,-109 4,-97 16,-85"/>
<path fill="#ffffff" stroke="#ffffff" stroke-width="1.5" d="M46,-85C52,-85 58,-91 58,-97"/>
<path fill="#ffffff" stroke="#ffffff" stroke-width="1.5" d="M58,-109C58,-115 52,-121 46,-121"/>
<path fill="#ffffff" stroke="#ffffff" stroke-width="1.5" d="M16,-121C10,-121 4,-115 4,-109"/>
<path fill="#ffffff" stroke="#ffffff" stroke-width="1.5" d="M4,-97C4,-91 10,-85 16,-85"/>
<polyline fill="none" stroke="#2e3436" stroke-width="1.5" points="16,-85 46,-85 "/>
<path fill="none" stroke="#2e3436" stroke-width="1.5" d="M46,-85C52,-85 58,-91 58,-97"/>
<polyline fill="none" stroke="#2e3436" stroke-width="1.5" points="58,-97 58,-109 "/>
<path fill="none" stroke="#2e3436" stroke-width="1.5" d="M58,-109C58,-115 52,-121 46,-121"/>
<polyline fill="none" stroke="#2e3436" stroke-width="1.5" points="46,-121 16,-121 "/>
<path fill="none" stroke="#2e3436" stroke-width="1.5" d="M16,-121C10,-121 4,-115 4,-109"/>
<polyline fill="none" stroke="#2e3436" stroke-width="1.5" points="4,-109 4,-97 "/>
<path fill="none" stroke="#2e3436" stroke-width="1.5" d="M4,-97C4,-91 10,-85 16,-85"/>
<text text-anchor="middle" x="31" y="-109.8" font-family="FreeSans" font-size="8.00" fill="#1c2021">Node[16]</text>
<polyline fill="none" stroke="#2e3436" stroke-width="1.5" points="4,-103 58,-103 "/>
<text text-anchor="start" x="12" y="-91.8" font-family="FreeSans" font-size="8.00" fill="#1c2021">name = &#39;I&#39;</text>
</g>
<!-- N16&#45;&gt;N15 -->
<g id="edge2" class="edge"><title>N16&#45;&gt;N15</title>
<path fill="none" stroke="#2e3436" stroke-width="2" d="M31,-84.7733C31,-73.1053 31,-57.7874 31,-44.8699"/>
<polygon fill="#2e3436" stroke="#2e3436" points="31,-37.1912 34.3751,-44.6911 31.5,-40.9412 31.5001,-44.6912 31.0001,-44.6912 30.5001,-44.6912 30.5,-40.9412 27.6251,-44.6912 31,-37.1912 31,-37.1912"/>
<text text-anchor="middle" x="41" y="-58.8" font-family="FreeSans" font-size="8.00" fill="#2e3436">know</text>
</g>
</g>
</svg>
