<?xml version="1.0" encoding="UTF-8" standalone="no"?>
<!DOCTYPE svg PUBLIC "-//W3C//DTD SVG 1.1//EN"
 "http://www.w3.org/Graphics/SVG/1.1/DTD/svg11.dtd">
<!-- Generated by graphviz version 2.26.3 (20100126.1600)
 -->
<!-- Title: g Pages: 1 -->
<svg width="281pt" height="346pt"
 viewBox="0.00 0.00 281.00 346.00" xmlns="http://www.w3.org/2000/svg" xmlns:xlink="http://www.w3.org/1999/xlink">
<g id="graph1" class="graph" transform="scale(1 1) rotate(0) translate(4 342)">
<title>g</title>
<polygon fill="white" stroke="white" points="-4,5 -4,-342 278,-342 278,5 -4,5"/>
<!-- N33 -->
<g id="node1" class="node"><title>N33</title>
<polygon fill="#ffffff" stroke="#ffffff" stroke-width="1.5" points="12,-151 72,-151 84,-163 84,-175 72,-187 12,-187 0,-175 0,-163 12,-151"/>
<path fill="#ffffff" stroke="#ffffff" stroke-width="1.5" d="M72,-151C78,-151 84,-157 84,-163"/>
<path fill="#ffffff" stroke="#ffffff" stroke-width="1.5" d="M84,-175C84,-181 78,-187 72,-187"/>
<path fill="#ffffff" stroke="#ffffff" stroke-width="1.5" d="M12,-187C6,-187 0,-181 0,-175"/>
<path fill="#ffffff" stroke="#ffffff" stroke-width="1.5" d="M0,-163C0,-157 6,-151 12,-151"/>
<polyline fill="none" stroke="#2e3436" stroke-width="1.5" points="12,-151 72,-151 "/>
<path fill="none" stroke="#2e3436" stroke-width="1.5" d="M72,-151C78,-151 84,-157 84,-163"/>
<polyline fill="none" stroke="#2e3436" stroke-width="1.5" points="84,-163 84,-175 "/>
<path fill="none" stroke="#2e3436" stroke-width="1.5" d="M84,-175C84,-181 78,-187 72,-187"/>
<polyline fill="none" stroke="#2e3436" stroke-width="1.5" points="72,-187 12,-187 "/>
<path fill="none" stroke="#2e3436" stroke-width="1.5" d="M12,-187C6,-187 0,-181 0,-175"/>
<polyline fill="none" stroke="#2e3436" stroke-width="1.5" points="0,-175 0,-163 "/>
<path fill="none" stroke="#2e3436" stroke-width="1.5" d="M0,-163C0,-157 6,-151 12,-151"/>
<text text-anchor="start" x="8" y="-166.8" font-family="FreeSans" font-size="8.00" fill="#1c2021">Node[33]name = &#39;f&#39;</text>
</g>
<!-- N35 -->
<g id="node3" class="node"><title>N35</title>
<polygon fill="#ffffff" stroke="#ffffff" stroke-width="1.5" points="98,-1 160,-1 172,-13 172,-25 160,-37 98,-37 86,-25 86,-13 98,-1"/>
<path fill="#ffffff" stroke="#ffffff" stroke-width="1.5" d="M160,-1C166,-1 172,-7 172,-13"/>
<path fill="#ffffff" stroke="#ffffff" stroke-width="1.5" d="M172,-25C172,-31 166,-37 160,-37"/>
<path fill="#ffffff" stroke="#ffffff" stroke-width="1.5" d="M98,-37C92,-37 86,-31 86,-25"/>
<path fill="#ffffff" stroke="#ffffff" stroke-width="1.5" d="M86,-13C86,-7 92,-1 98,-1"/>
<polyline fill="none" stroke="#2e3436" stroke-width="1.5" points="98,-1 160,-1 "/>
<path fill="none" stroke="#2e3436" stroke-width="1.5" d="M160,-1C166,-1 172,-7 172,-13"/>
<polyline fill="none" stroke="#2e3436" stroke-width="1.5" points="172,-13 172,-25 "/>
<path fill="none" stroke="#2e3436" stroke-width="1.5" d="M172,-25C172,-31 166,-37 160,-37"/>
<polyline fill="none" stroke="#2e3436" stroke-width="1.5" points="160,-37 98,-37 "/>
<path fill="none" stroke="#2e3436" stroke-width="1.5" d="M98,-37C92,-37 86,-31 86,-25"/>
<polyline fill="none" stroke="#2e3436" stroke-width="1.5" points="86,-25 86,-13 "/>
<path fill="none" stroke="#2e3436" stroke-width="1.5" d="M86,-13C86,-7 92,-1 98,-1"/>
<text text-anchor="start" x="94" y="-16.8" font-family="FreeSans" font-size="8.00" fill="#1c2021">Node[35]name = &#39;e&#39;</text>
</g>
<!-- N33&#45;&gt;N35 -->
<g id="edge2" class="edge"><title>N33&#45;&gt;N35</title>
<path fill="none" stroke="#2e3436" stroke-width="2" d="M52.4942,-150.906C67.975,-124.216 96.985,-74.1983 114.493,-44.0128"/>
<polygon fill="#2e3436" stroke="#2e3436" points="118.469,-37.1577 117.625,-45.3387 117.02,-40.6524 115.138,-43.8963 114.706,-43.6454 114.273,-43.3946 116.155,-40.1507 111.786,-41.9521 118.469,-37.1577 118.469,-37.1577"/>
<text text-anchor="middle" x="100.5" y="-115.8" font-family="FreeSans" font-size="8.00" fill="#2e3436">to</text>
<text text-anchor="start" x="86" y="-105.8" font-family="FreeSans" font-size="8.00" fill="#2e3436">cost = 1</text>
</g>
<!-- N34 -->
<g id="node4" class="node"><title>N34</title>
<polygon fill="#ffffff" stroke="#ffffff" stroke-width="1.5" points="199,-95 261,-95 273,-107 273,-119 261,-131 199,-131 187,-119 187,-107 199,-95"/>
<path fill="#ffffff" stroke="#ffffff" stroke-width="1.5" d="M261,-95C267,-95 273,-101 273,-107"/>
<path fill="#ffffff" stroke="#ffffff" stroke-width="1.5" d="M273,-119C273,-125 267,-131 261,-131"/>
<path fill="#ffffff" stroke="#ffffff" stroke-width="1.5" d="M199,-131C193,-131 187,-125 187,-119"/>
<path fill="#ffffff" stroke="#ffffff" stroke-width="1.5" d="M187,-107C187,-101 193,-95 199,-95"/>
<polyline fill="none" stroke="#2e3436" stroke-width="1.5" points="199,-95 261,-95 "/>
<path fill="none" stroke="#2e3436" stroke-width="1.5" d="M261,-95C267,-95 273,-101 273,-107"/>
<polyline fill="none" stroke="#2e3436" stroke-width="1.5" points="273,-107 273,-119 "/>
<path fill="none" stroke="#2e3436" stroke-width="1.5" d="M273,-119C273,-125 267,-131 261,-131"/>
<polyline fill="none" stroke="#2e3436" stroke-width="1.5" points="261,-131 199,-131 "/>
<path fill="none" stroke="#2e3436" stroke-width="1.5" d="M199,-131C193,-131 187,-125 187,-119"/>
<polyline fill="none" stroke="#2e3436" stroke-width="1.5" points="187,-119 187,-107 "/>
<path fill="none" stroke="#2e3436" stroke-width="1.5" d="M187,-107C187,-101 193,-95 199,-95"/>
<text text-anchor="start" x="195" y="-110.8" font-family="FreeSans" font-size="8.00" fill="#1c2021">Node[34]name = &#39;d&#39;</text>
</g>
<!-- N34&#45;&gt;N35 -->
<g id="edge4" class="edge"><title>N34&#45;&gt;N35</title>
<path fill="none" stroke="#2e3436" stroke-width="2" d="M210.526,-94.8759C194.458,-79.9211 171.547,-58.5983 154.103,-42.3629"/>
<polygon fill="#2e3436" stroke="#2e3436" points="148.414,-37.0685 156.204,-39.7076 151.5,-39.2573 154.245,-41.8122 153.904,-42.1782 153.564,-42.5442 150.818,-39.9893 151.605,-44.6487 148.414,-37.0685 148.414,-37.0685"/>
<text text-anchor="middle" x="202.5" y="-68.8" font-family="FreeSans" font-size="8.00" fill="#2e3436">to</text>
<text text-anchor="start" x="188" y="-58.8" font-family="FreeSans" font-size="8.00" fill="#2e3436">cost = 1</text>
</g>
<!-- N36 -->
<g id="node6" class="node"><title>N36</title>
<polygon fill="#ffffff" stroke="#ffffff" stroke-width="1.5" points="101,-151 163,-151 175,-163 175,-175 163,-187 101,-187 89,-175 89,-163 101,-151"/>
<path fill="#ffffff" stroke="#ffffff" stroke-width="1.5" d="M163,-151C169,-151 175,-157 175,-163"/>
<path fill="#ffffff" stroke="#ffffff" stroke-width="1.5" d="M175,-175C175,-181 169,-187 163,-187"/>
<path fill="#ffffff" stroke="#ffffff" stroke-width="1.5" d="M101,-187C95,-187 89,-181 89,-175"/>
<path fill="#ffffff" stroke="#ffffff" stroke-width="1.5" d="M89,-163C89,-157 95,-151 101,-151"/>
<polyline fill="none" stroke="#2e3436" stroke-width="1.5" points="101,-151 163,-151 "/>
<path fill="none" stroke="#2e3436" stroke-width="1.5" d="M163,-151C169,-151 175,-157 175,-163"/>
<polyline fill="none" stroke="#2e3436" stroke-width="1.5" points="175,-163 175,-175 "/>
<path fill="none" stroke="#2e3436" stroke-width="1.5" d="M175,-175C175,-181 169,-187 163,-187"/>
<polyline fill="none" stroke="#2e3436" stroke-width="1.5" points="163,-187 101,-187 "/>
<path fill="none" stroke="#2e3436" stroke-width="1.5" d="M101,-187C95,-187 89,-181 89,-175"/>
<polyline fill="none" stroke="#2e3436" stroke-width="1.5" points="89,-175 89,-163 "/>
<path fill="none" stroke="#2e3436" stroke-width="1.5" d="M89,-163C89,-157 95,-151 101,-151"/>
<text text-anchor="start" x="97" y="-166.8" font-family="FreeSans" font-size="8.00" fill="#1c2021">Node[36]name = &#39;b&#39;</text>
</g>
<!-- N36&#45;&gt;N35 -->
<g id="edge6" class="edge"><title>N36&#45;&gt;N35</title>
<path fill="none" stroke="#2e3436" stroke-width="2" d="M131.638,-150.906C131.109,-124.441 130.121,-75.0408 129.516,-44.7812"/>
<polygon fill="#2e3436" stroke="#2e3436" points="129.363,-37.1577 132.888,-44.5886 129.938,-40.8969 130.013,-44.6462 129.513,-44.6562 129.013,-44.6662 128.938,-40.9169 126.139,-44.7237 129.363,-37.1577 129.363,-37.1577"/>
<text text-anchor="middle" x="145.5" y="-115.8" font-family="FreeSans" font-size="8.00" fill="#2e3436">to</text>
<text text-anchor="start" x="131" y="-105.8" font-family="FreeSans" font-size="8.00" fill="#2e3436">cost = 1</text>
</g>
<!-- N37 -->
<g id="node8" class="node"><title>N37</title>
<polygon fill="#ffffff" stroke="#ffffff" stroke-width="1.5" points="191,-207 253,-207 265,-219 265,-231 253,-243 191,-243 179,-231 179,-219 191,-207"/>
<path fill="#ffffff" stroke="#ffffff" stroke-width="1.5" d="M253,-207C259,-207 265,-213 265,-219"/>
<path fill="#ffffff" stroke="#ffffff" stroke-width="1.5" d="M265,-231C265,-237 259,-243 253,-243"/>
<path fill="#ffffff" stroke="#ffffff" stroke-width="1.5" d="M191,-243C185,-243 179,-237 179,-231"/>
<path fill="#ffffff" stroke="#ffffff" stroke-width="1.5" d="M179,-219C179,-213 185,-207 191,-207"/>
<polyline fill="none" stroke="#2e3436" stroke-width="1.5" points="191,-207 253,-207 "/>
<path fill="none" stroke="#2e3436" stroke-width="1.5" d="M253,-207C259,-207 265,-213 265,-219"/>
<polyline fill="none" stroke="#2e3436" stroke-width="1.5" points="265,-219 265,-231 "/>
<path fill="none" stroke="#2e3436" stroke-width="1.5" d="M265,-231C265,-237 259,-243 253,-243"/>
<polyline fill="none" stroke="#2e3436" stroke-width="1.5" points="253,-243 191,-243 "/>
<path fill="none" stroke="#2e3436" stroke-width="1.5" d="M191,-243C185,-243 179,-237 179,-231"/>
<polyline fill="none" stroke="#2e3436" stroke-width="1.5" points="179,-231 179,-219 "/>
<path fill="none" stroke="#2e3436" stroke-width="1.5" d="M179,-219C179,-213 185,-207 191,-207"/>
<text text-anchor="start" x="187" y="-222.8" font-family="FreeSans" font-size="8.00" fill="#1c2021">Node[37]name = &#39;c&#39;</text>
</g>
<!-- N37&#45;&gt;N34 -->
<g id="edge8" class="edge"><title>N37&#45;&gt;N34</title>
<path fill="none" stroke="#2e3436" stroke-width="2" d="M223.321,-206.505C224.643,-187.994 226.688,-159.364 228.167,-138.66"/>
<polygon fill="#2e3436" stroke="#2e3436" points="228.704,-131.15 231.536,-138.872 228.935,-134.926 228.668,-138.667 228.169,-138.631 227.67,-138.596 227.938,-134.855 224.803,-138.391 228.704,-131.15 228.704,-131.15"/>
<text text-anchor="middle" x="241.5" y="-171.8" font-family="FreeSans" font-size="8.00" fill="#2e3436">to</text>
<text text-anchor="start" x="227" y="-161.8" font-family="FreeSans" font-size="8.00" fill="#2e3436">cost = 1</text>
</g>
<!-- N38 -->
<g id="node10" class="node"><title>N38</title>
<polygon fill="#ffffff" stroke="#ffffff" stroke-width="1.5" points="101,-301 163,-301 175,-313 175,-325 163,-337 101,-337 89,-325 89,-313 101,-301"/>
<path fill="#ffffff" stroke="#ffffff" stroke-width="1.5" d="M163,-301C169,-301 175,-307 175,-313"/>
<path fill="#ffffff" stroke="#ffffff" stroke-width="1.5" d="M175,-325C175,-331 169,-337 163,-337"/>
<path fill="#ffffff" stroke="#ffffff" stroke-width="1.5" d="M101,-337C95,-337 89,-331 89,-325"/>
<path fill="#ffffff" stroke="#ffffff" stroke-width="1.5" d="M89,-313C89,-307 95,-301 101,-301"/>
<polyline fill="none" stroke="#2e3436" stroke-width="1.5" points="101,-301 163,-301 "/>
<path fill="none" stroke="#2e3436" stroke-width="1.5" d="M163,-301C169,-301 175,-307 175,-313"/>
<polyline fill="none" stroke="#2e3436" stroke-width="1.5" points="175,-313 175,-325 "/>
<path fill="none" stroke="#2e3436" stroke-width="1.5" d="M175,-325C175,-331 169,-337 163,-337"/>
<polyline fill="none" stroke="#2e3436" stroke-width="1.5" points="163,-337 101,-337 "/>
<path fill="none" stroke="#2e3436" stroke-width="1.5" d="M101,-337C95,-337 89,-331 89,-325"/>
<polyline fill="none" stroke="#2e3436" stroke-width="1.5" points="89,-325 89,-313 "/>
<path fill="none" stroke="#2e3436" stroke-width="1.5" d="M89,-313C89,-307 95,-301 101,-301"/>
<text text-anchor="start" x="97" y="-316.8" font-family="FreeSans" font-size="8.00" fill="#1c2021">Node[38]name = &#39;a&#39;</text>
</g>
<!-- N38&#45;&gt;N33 -->
<g id="edge14" class="edge"><title>N38&#45;&gt;N33</title>
<path fill="none" stroke="#2e3436" stroke-width="2" d="M112.038,-300.851C106.431,-295.155 100.613,-288.617 96,-282 76.5906,-254.155 60.773,-218.251 51.384,-194.471"/>
<polygon fill="#2e3436" stroke="#2e3436" points="48.5651,-187.201 54.4234,-192.974 50.3871,-190.517 51.7429,-194.013 51.2767,-194.194 50.8106,-194.375 49.4547,-190.878 48.13,-195.414 48.5651,-187.201 48.5651,-187.201"/>
<text text-anchor="middle" x="110.5" y="-274.8" font-family="FreeSans" font-size="8.00" fill="#2e3436">to</text>
<text text-anchor="start" x="96" y="-264.8" font-family="FreeSans" font-size="8.00" fill="#2e3436">cost = 1</text>
</g>
<!-- N38&#45;&gt;N36 -->
<g id="edge10" class="edge"><title>N38&#45;&gt;N36</title>
<path fill="none" stroke="#2e3436" stroke-width="2" d="M132,-300.906C132,-274.441 132,-225.041 132,-194.781"/>
<polygon fill="#2e3436" stroke="#2e3436" points="132,-187.158 135.375,-194.658 132.5,-190.908 132.5,-194.658 132,-194.658 131.5,-194.658 131.5,-190.908 128.625,-194.658 132,-187.158 132,-187.158"/>
<text text-anchor="middle" x="146.5" y="-274.8" font-family="FreeSans" font-size="8.00" fill="#2e3436">to</text>
<text text-anchor="start" x="132" y="-264.8" font-family="FreeSans" font-size="8.00" fill="#2e3436">cost = 1</text>
</g>
<!-- N38&#45;&gt;N37 -->
<g id="edge12" class="edge"><title>N38&#45;&gt;N37</title>
<path fill="none" stroke="#2e3436" stroke-width="2" d="M149.626,-300.98C155.489,-294.961 162.041,-288.206 168,-282 178.515,-271.048 190.101,-258.837 199.837,-248.535"/>
<polygon fill="#2e3436" stroke="#2e3436" points="205.037,-243.029 202.341,-250.799 202.825,-246.098 200.251,-248.825 199.887,-248.482 199.524,-248.138 202.098,-245.412 197.433,-246.165 205.037,-243.029 205.037,-243.029"/>
<text text-anchor="middle" x="199.5" y="-274.8" font-family="FreeSans" font-size="8.00" fill="#2e3436">to</text>
<text text-anchor="start" x="185" y="-264.8" font-family="FreeSans" font-size="8.00" fill="#2e3436">cost = 1</text>
</g>
</g>
</svg>
