<?xml version="1.0" encoding="UTF-8" standalone="no"?>
<!DOCTYPE svg PUBLIC "-//W3C//DTD SVG 1.1//EN"
 "http://www.w3.org/Graphics/SVG/1.1/DTD/svg11.dtd">
<!-- Generated by graphviz version 2.26.3 (20100126.1600)
 -->
<!-- Title: g Pages: 1 -->
<svg width="68pt" height="130pt"
 viewBox="0.00 0.00 68.00 130.00" xmlns="http://www.w3.org/2000/svg" xmlns:xlink="http://www.w3.org/1999/xlink">
<g id="graph1" class="graph" transform="scale(1 1) rotate(0) translate(4 126)">
<title>g</title>
<polygon fill="white" stroke="white" points="-4,5 -4,-126 65,-126 65,5 -4,5"/>
<!-- N42 -->
<g id="node1" class="node"><title>N42</title>
<polygon fill="#ffffff" stroke="#ffffff" stroke-width="1.5" points="15,-85 45,-85 57,-97 57,-109 45,-121 15,-121 3,-109 3,-97 15,-85"/>
<path fill="#ffffff" stroke="#ffffff" stroke-width="1.5" d="M45,-85C51,-85 57,-91 57,-97"/>
<path fill="#ffffff" stroke="#ffffff" stroke-width="1.5" d="M57,-109C57,-115 51,-121 45,-121"/>
<path fill="#ffffff" stroke="#ffffff" stroke-width="1.5" d="M15,-121C9,-121 3,-115 3,-109"/>
<path fill="#ffffff" stroke="#ffffff" stroke-width="1.5" d="M3,-97C3,-91 9,-85 15,-85"/>
<polyline fill="none" stroke="#2e3436" stroke-width="1.5" points="15,-85 45,-85 "/>
<path fill="none" stroke="#2e3436" stroke-width="1.5" d="M45,-85C51,-85 57,-91 57,-97"/>
<polyline fill="none" stroke="#2e3436" stroke-width="1.5" points="57,-97 57,-109 "/>
<path fill="none" stroke="#2e3436" stroke-width="1.5" d="M57,-109C57,-115 51,-121 45,-121"/>
<polyline fill="none" stroke="#2e3436" stroke-width="1.5" points="45,-121 15,-121 "/>
<path fill="none" stroke="#2e3436" stroke-width="1.5" d="M15,-121C9,-121 3,-115 3,-109"/>
<polyline fill="none" stroke="#2e3436" stroke-width="1.5" points="3,-109 3,-97 "/>
<path fill="none" stroke="#2e3436" stroke-width="1.5" d="M3,-97C3,-91 9,-85 15,-85"/>
<text text-anchor="middle" x="30" y="-109.8" font-family="FreeSans" font-size="8.00" fill="#1c2021">Node[42]</text>
<polyline fill="none" stroke="#2e3436" stroke-width="1.5" points="3,-103 57,-103 "/>
<text text-anchor="start" x="11" y="-91.8" font-family="FreeSans" font-size="8.00" fill="#1c2021">age = &#39;18&#39;</text>
</g>
<!-- N43 -->
<g id="node3" class="node"><title>N43</title>
<polygon fill="#ffffff" stroke="#ffffff" stroke-width="1.5" points="12,-1 48,-1 60,-13 60,-25 48,-37 12,-37 0,-25 0,-13 12,-1"/>
<path fill="#ffffff" stroke="#ffffff" stroke-width="1.5" d="M48,-1C54,-1 60,-7 60,-13"/>
<path fill="#ffffff" stroke="#ffffff" stroke-width="1.5" d="M60,-25C60,-31 54,-37 48,-37"/>
<path fill="#ffffff" stroke="#ffffff" stroke-width="1.5" d="M12,-37C6,-37 0,-31 0,-25"/>
<path fill="#ffffff" stroke="#ffffff" stroke-width="1.5" d="M0,-13C0,-7 6,-1 12,-1"/>
<polyline fill="none" stroke="#2e3436" stroke-width="1.5" points="12,-1 48,-1 "/>
<path fill="none" stroke="#2e3436" stroke-width="1.5" d="M48,-1C54,-1 60,-7 60,-13"/>
<polyline fill="none" stroke="#2e3436" stroke-width="1.5" points="60,-13 60,-25 "/>
<path fill="none" stroke="#2e3436" stroke-width="1.5" d="M60,-25C60,-31 54,-37 48,-37"/>
<polyline fill="none" stroke="#2e3436" stroke-width="1.5" points="48,-37 12,-37 "/>
<path fill="none" stroke="#2e3436" stroke-width="1.5" d="M12,-37C6,-37 0,-31 0,-25"/>
<polyline fill="none" stroke="#2e3436" stroke-width="1.5" points="0,-25 0,-13 "/>
<path fill="none" stroke="#2e3436" stroke-width="1.5" d="M0,-13C0,-7 6,-1 12,-1"/>
<text text-anchor="middle" x="30" y="-25.8" font-family="FreeSans" font-size="8.00" fill="#1c2021">Node[43]</text>
<polyline fill="none" stroke="#2e3436" stroke-width="1.5" points="0,-19 60,-19 "/>
<text text-anchor="start" x="8" y="-7.8" font-family="FreeSans" font-size="8.00" fill="#1c2021">name = &#39;joe&#39;</text>
</g>
<!-- N42&#45;&gt;N43 -->
<g id="edge2" class="edge"><title>N42&#45;&gt;N43</title>
<path fill="none" stroke="#2e3436" stroke-width="2" d="M30,-84.7733C30,-73.1053 30,-57.7874 30,-44.8699"/>
<polygon fill="#2e3436" stroke="#2e3436" points="30,-37.1912 33.3751,-44.6911 30.5,-40.9412 30.5001,-44.6912 30.0001,-44.6912 29.5001,-44.6912 29.5,-40.9412 26.6251,-44.6912 30,-37.1912 30,-37.1912"/>
<text text-anchor="middle" x="42" y="-58.8" font-family="FreeSans" font-size="8.00" fill="#2e3436">knows</text>
</g>
</g>
</svg>
