<?xml version="1.0" encoding="UTF-8" standalone="no"?>
<!DOCTYPE svg PUBLIC "-//W3C//DTD SVG 1.1//EN"
 "http://www.w3.org/Graphics/SVG/1.1/DTD/svg11.dtd">
<!-- Generated by graphviz version 2.26.3 (20100126.1600)
 -->
<!-- Title: g Pages: 1 -->
<svg width="419pt" height="648pt"
 viewBox="0.00 0.00 418.81 648.00" xmlns="http://www.w3.org/2000/svg" xmlns:xlink="http://www.w3.org/1999/xlink">
<g id="graph1" class="graph" transform="scale(0.920455 0.920455) rotate(0) translate(4 700)">
<title>g</title>
<polygon fill="white" stroke="white" points="-4,5 -4,-700 452,-700 452,5 -4,5"/>
<!-- N24 -->
<g id="node1" class="node"><title>N24</title>
<polygon fill="#ffffff" stroke="#ffffff" stroke-width="1.5" points="12,-95 42,-95 54,-107 54,-119 42,-131 12,-131 0,-119 0,-107 12,-95"/>
<path fill="#ffffff" stroke="#ffffff" stroke-width="1.5" d="M42,-95C48,-95 54,-101 54,-107"/>
<path fill="#ffffff" stroke="#ffffff" stroke-width="1.5" d="M54,-119C54,-125 48,-131 42,-131"/>
<path fill="#ffffff" stroke="#ffffff" stroke-width="1.5" d="M12,-131C6,-131 0,-125 0,-119"/>
<path fill="#ffffff" stroke="#ffffff" stroke-width="1.5" d="M0,-107C0,-101 6,-95 12,-95"/>
<polyline fill="none" stroke="#2e3436" stroke-width="1.5" points="12,-95 42,-95 "/>
<path fill="none" stroke="#2e3436" stroke-width="1.5" d="M42,-95C48,-95 54,-101 54,-107"/>
<polyline fill="none" stroke="#2e3436" stroke-width="1.5" points="54,-107 54,-119 "/>
<path fill="none" stroke="#2e3436" stroke-width="1.5" d="M54,-119C54,-125 48,-131 42,-131"/>
<polyline fill="none" stroke="#2e3436" stroke-width="1.5" points="42,-131 12,-131 "/>
<path fill="none" stroke="#2e3436" stroke-width="1.5" d="M12,-131C6,-131 0,-125 0,-119"/>
<polyline fill="none" stroke="#2e3436" stroke-width="1.5" points="0,-119 0,-107 "/>
<path fill="none" stroke="#2e3436" stroke-width="1.5" d="M0,-107C0,-101 6,-95 12,-95"/>
<text text-anchor="middle" x="27" y="-119.8" font-family="FreeSans" font-size="8.00" fill="#1c2021">Node[24]</text>
<polyline fill="none" stroke="#2e3436" stroke-width="1.5" points="0,-113 54,-113 "/>
<text text-anchor="start" x="8" y="-101.8" font-family="FreeSans" font-size="8.00" fill="#1c2021">name = &#39;f&#39;</text>
</g>
<!-- N25 -->
<g id="node2" class="node"><title>N25</title>
<polygon fill="#ffffff" stroke="#ffffff" stroke-width="1.5" points="124,-283 154,-283 166,-295 166,-307 154,-319 124,-319 112,-307 112,-295 124,-283"/>
<path fill="#ffffff" stroke="#ffffff" stroke-width="1.5" d="M154,-283C160,-283 166,-289 166,-295"/>
<path fill="#ffffff" stroke="#ffffff" stroke-width="1.5" d="M166,-307C166,-313 160,-319 154,-319"/>
<path fill="#ffffff" stroke="#ffffff" stroke-width="1.5" d="M124,-319C118,-319 112,-313 112,-307"/>
<path fill="#ffffff" stroke="#ffffff" stroke-width="1.5" d="M112,-295C112,-289 118,-283 124,-283"/>
<polyline fill="none" stroke="#2e3436" stroke-width="1.5" points="124,-283 154,-283 "/>
<path fill="none" stroke="#2e3436" stroke-width="1.5" d="M154,-283C160,-283 166,-289 166,-295"/>
<polyline fill="none" stroke="#2e3436" stroke-width="1.5" points="166,-295 166,-307 "/>
<path fill="none" stroke="#2e3436" stroke-width="1.5" d="M166,-307C166,-313 160,-319 154,-319"/>
<polyline fill="none" stroke="#2e3436" stroke-width="1.5" points="154,-319 124,-319 "/>
<path fill="none" stroke="#2e3436" stroke-width="1.5" d="M124,-319C118,-319 112,-313 112,-307"/>
<polyline fill="none" stroke="#2e3436" stroke-width="1.5" points="112,-307 112,-295 "/>
<path fill="none" stroke="#2e3436" stroke-width="1.5" d="M112,-295C112,-289 118,-283 124,-283"/>
<text text-anchor="middle" x="139" y="-307.8" font-family="FreeSans" font-size="8.00" fill="#1c2021">Node[25]</text>
<polyline fill="none" stroke="#2e3436" stroke-width="1.5" points="112,-301 166,-301 "/>
<text text-anchor="start" x="120" y="-289.8" font-family="FreeSans" font-size="8.00" fill="#1c2021">name = &#39;d&#39;</text>
</g>
<!-- N32 -->
<g id="node4" class="node"><title>N32</title>
<polygon fill="#ffffff" stroke="#ffffff" stroke-width="1.5" points="228,-95 258,-95 270,-107 270,-119 258,-131 228,-131 216,-119 216,-107 228,-95"/>
<path fill="#ffffff" stroke="#ffffff" stroke-width="1.5" d="M258,-95C264,-95 270,-101 270,-107"/>
<path fill="#ffffff" stroke="#ffffff" stroke-width="1.5" d="M270,-119C270,-125 264,-131 258,-131"/>
<path fill="#ffffff" stroke="#ffffff" stroke-width="1.5" d="M228,-131C222,-131 216,-125 216,-119"/>
<path fill="#ffffff" stroke="#ffffff" stroke-width="1.5" d="M216,-107C216,-101 222,-95 228,-95"/>
<polyline fill="none" stroke="#2e3436" stroke-width="1.5" points="228,-95 258,-95 "/>
<path fill="none" stroke="#2e3436" stroke-width="1.5" d="M258,-95C264,-95 270,-101 270,-107"/>
<polyline fill="none" stroke="#2e3436" stroke-width="1.5" points="270,-107 270,-119 "/>
<path fill="none" stroke="#2e3436" stroke-width="1.5" d="M270,-119C270,-125 264,-131 258,-131"/>
<polyline fill="none" stroke="#2e3436" stroke-width="1.5" points="258,-131 228,-131 "/>
<path fill="none" stroke="#2e3436" stroke-width="1.5" d="M228,-131C222,-131 216,-125 216,-119"/>
<polyline fill="none" stroke="#2e3436" stroke-width="1.5" points="216,-119 216,-107 "/>
<path fill="none" stroke="#2e3436" stroke-width="1.5" d="M216,-107C216,-101 222,-95 228,-95"/>
<text text-anchor="middle" x="243" y="-119.8" font-family="FreeSans" font-size="8.00" fill="#1c2021">Node[32]</text>
<polyline fill="none" stroke="#2e3436" stroke-width="1.5" points="216,-113 270,-113 "/>
<text text-anchor="start" x="224" y="-101.8" font-family="FreeSans" font-size="8.00" fill="#1c2021">name = &#39;x&#39;</text>
</g>
<!-- N25&#45;&gt;N32 -->
<g id="edge2" class="edge"><title>N25&#45;&gt;N32</title>
<path fill="none" stroke="#2e3436" stroke-width="2" d="M140.003,-282.614C141.827,-259.59 146.917,-219.36 161,-188 171.066,-165.585 191.411,-146.91 209.317,-133.802"/>
<polygon fill="#2e3436" stroke="#2e3436" points="215.78,-129.228 211.608,-136.315 213.008,-131.802 209.947,-133.969 209.658,-133.56 209.369,-133.152 212.43,-130.986 207.709,-130.806 215.78,-129.228 215.78,-129.228"/>
<text text-anchor="middle" x="175.5" y="-209.8" font-family="FreeSans" font-size="8.00" fill="#2e3436">to</text>
<text text-anchor="start" x="161" y="-199.8" font-family="FreeSans" font-size="8.00" fill="#2e3436">cost = 1</text>
</g>
<!-- N26 -->
<g id="node6" class="node"><title>N26</title>
<polygon fill="#ffffff" stroke="#ffffff" stroke-width="1.5" points="39,-189 69,-189 81,-201 81,-213 69,-225 39,-225 27,-213 27,-201 39,-189"/>
<path fill="#ffffff" stroke="#ffffff" stroke-width="1.5" d="M69,-189C75,-189 81,-195 81,-201"/>
<path fill="#ffffff" stroke="#ffffff" stroke-width="1.5" d="M81,-213C81,-219 75,-225 69,-225"/>
<path fill="#ffffff" stroke="#ffffff" stroke-width="1.5" d="M39,-225C33,-225 27,-219 27,-213"/>
<path fill="#ffffff" stroke="#ffffff" stroke-width="1.5" d="M27,-201C27,-195 33,-189 39,-189"/>
<polyline fill="none" stroke="#2e3436" stroke-width="1.5" points="39,-189 69,-189 "/>
<path fill="none" stroke="#2e3436" stroke-width="1.5" d="M69,-189C75,-189 81,-195 81,-201"/>
<polyline fill="none" stroke="#2e3436" stroke-width="1.5" points="81,-201 81,-213 "/>
<path fill="none" stroke="#2e3436" stroke-width="1.5" d="M81,-213C81,-219 75,-225 69,-225"/>
<polyline fill="none" stroke="#2e3436" stroke-width="1.5" points="69,-225 39,-225 "/>
<path fill="none" stroke="#2e3436" stroke-width="1.5" d="M39,-225C33,-225 27,-219 27,-213"/>
<polyline fill="none" stroke="#2e3436" stroke-width="1.5" points="27,-213 27,-201 "/>
<path fill="none" stroke="#2e3436" stroke-width="1.5" d="M27,-201C27,-195 33,-189 39,-189"/>
<text text-anchor="middle" x="54" y="-213.8" font-family="FreeSans" font-size="8.00" fill="#1c2021">Node[26]</text>
<polyline fill="none" stroke="#2e3436" stroke-width="1.5" points="27,-207 81,-207 "/>
<text text-anchor="start" x="35" y="-195.8" font-family="FreeSans" font-size="8.00" fill="#1c2021">name = &#39;e&#39;</text>
</g>
<!-- N25&#45;&gt;N26 -->
<g id="edge4" class="edge"><title>N25&#45;&gt;N26</title>
<path fill="none" stroke="#2e3436" stroke-width="2" d="M111.913,-284.42C103.656,-278.595 94.9372,-271.59 88,-264 79.3273,-254.511 71.7565,-242.468 65.9743,-231.898"/>
<polygon fill="#2e3436" stroke="#2e3436" points="62.4392,-225.207 68.9269,-230.262 64.6331,-228.289 66.3848,-231.605 65.9427,-231.838 65.5006,-232.072 63.7489,-228.756 62.9586,-233.415 62.4392,-225.207 62.4392,-225.207"/>
<text text-anchor="middle" x="102.5" y="-256.8" font-family="FreeSans" font-size="8.00" fill="#2e3436">to</text>
<text text-anchor="start" x="88" y="-246.8" font-family="FreeSans" font-size="8.00" fill="#2e3436">cost = 1</text>
</g>
<!-- N31 -->
<g id="node21" class="node"><title>N31</title>
<polygon fill="#ffffff" stroke="#ffffff" stroke-width="1.5" points="228,-1 258,-1 270,-13 270,-25 258,-37 228,-37 216,-25 216,-13 228,-1"/>
<path fill="#ffffff" stroke="#ffffff" stroke-width="1.5" d="M258,-1C264,-1 270,-7 270,-13"/>
<path fill="#ffffff" stroke="#ffffff" stroke-width="1.5" d="M270,-25C270,-31 264,-37 258,-37"/>
<path fill="#ffffff" stroke="#ffffff" stroke-width="1.5" d="M228,-37C222,-37 216,-31 216,-25"/>
<path fill="#ffffff" stroke="#ffffff" stroke-width="1.5" d="M216,-13C216,-7 222,-1 228,-1"/>
<polyline fill="none" stroke="#2e3436" stroke-width="1.5" points="228,-1 258,-1 "/>
<path fill="none" stroke="#2e3436" stroke-width="1.5" d="M258,-1C264,-1 270,-7 270,-13"/>
<polyline fill="none" stroke="#2e3436" stroke-width="1.5" points="270,-13 270,-25 "/>
<path fill="none" stroke="#2e3436" stroke-width="1.5" d="M270,-25C270,-31 264,-37 258,-37"/>
<polyline fill="none" stroke="#2e3436" stroke-width="1.5" points="258,-37 228,-37 "/>
<path fill="none" stroke="#2e3436" stroke-width="1.5" d="M228,-37C222,-37 216,-31 216,-25"/>
<polyline fill="none" stroke="#2e3436" stroke-width="1.5" points="216,-25 216,-13 "/>
<path fill="none" stroke="#2e3436" stroke-width="1.5" d="M216,-13C216,-7 222,-1 228,-1"/>
<text text-anchor="middle" x="243" y="-25.8" font-family="FreeSans" font-size="8.00" fill="#1c2021">Node[31]</text>
<polyline fill="none" stroke="#2e3436" stroke-width="1.5" points="216,-19 270,-19 "/>
<text text-anchor="start" x="224" y="-7.8" font-family="FreeSans" font-size="8.00" fill="#1c2021">name = &#39;y&#39;</text>
</g>
<!-- N32&#45;&gt;N31 -->
<g id="edge26" class="edge"><title>N32&#45;&gt;N31</title>
<path fill="none" stroke="#2e3436" stroke-width="2" d="M243,-94.8759C243,-80.7014 243,-60.806 243,-44.944"/>
<polygon fill="#2e3436" stroke="#2e3436" points="243,-37.0685 246.375,-44.5685 243.5,-40.8185 243.5,-44.5685 243,-44.5685 242.5,-44.5685 242.5,-40.8185 239.625,-44.5685 243,-37.0685 243,-37.0685"/>
<text text-anchor="middle" x="257.5" y="-68.8" font-family="FreeSans" font-size="8.00" fill="#2e3436">to</text>
<text text-anchor="start" x="243" y="-58.8" font-family="FreeSans" font-size="8.00" fill="#2e3436">cost = 1</text>
</g>
<!-- N26&#45;&gt;N24 -->
<g id="edge8" class="edge"><title>N26&#45;&gt;N24</title>
<path fill="none" stroke="#2e3436" stroke-width="2" d="M35.9522,-188.882C31.5027,-183.283 27.3435,-176.789 25,-170 21.6092,-160.177 21.3346,-148.829 22.1911,-138.857"/>
<polygon fill="#2e3436" stroke="#2e3436" points="23.0825,-131.21 25.5663,-139.05 23.1449,-134.992 22.7106,-138.717 22.214,-138.659 21.7174,-138.601 22.1516,-134.876 18.8617,-138.268 23.0825,-131.21 23.0825,-131.21"/>
<text text-anchor="middle" x="39.5" y="-162.8" font-family="FreeSans" font-size="8.00" fill="#2e3436">to</text>
<text text-anchor="start" x="25" y="-152.8" font-family="FreeSans" font-size="8.00" fill="#2e3436">cost = 1</text>
</g>
<!-- N26&#45;&gt;N32 -->
<g id="edge6" class="edge"><title>N26&#45;&gt;N32</title>
<path fill="none" stroke="#2e3436" stroke-width="2" d="M60.3777,-188.92C65.7953,-176.166 74.8142,-159.688 88,-150 106.864,-136.141 168.514,-124.437 208.144,-118.095"/>
<polygon fill="#2e3436" stroke="#2e3436" points="215.757,-116.899 208.872,-121.397 212.13,-117.975 208.426,-118.557 208.348,-118.063 208.271,-117.569 211.975,-116.987 207.824,-114.729 215.757,-116.899 215.757,-116.899"/>
<text text-anchor="middle" x="102.5" y="-162.8" font-family="FreeSans" font-size="8.00" fill="#2e3436">to</text>
<text text-anchor="start" x="88" y="-152.8" font-family="FreeSans" font-size="8.00" fill="#2e3436">cost = 1</text>
</g>
<!-- N27 -->
<g id="node9" class="node"><title>N27</title>
<polygon fill="#ffffff" stroke="#ffffff" stroke-width="1.5" points="330,-471 360,-471 372,-483 372,-495 360,-507 330,-507 318,-495 318,-483 330,-471"/>
<path fill="#ffffff" stroke="#ffffff" stroke-width="1.5" d="M360,-471C366,-471 372,-477 372,-483"/>
<path fill="#ffffff" stroke="#ffffff" stroke-width="1.5" d="M372,-495C372,-501 366,-507 360,-507"/>
<path fill="#ffffff" stroke="#ffffff" stroke-width="1.5" d="M330,-507C324,-507 318,-501 318,-495"/>
<path fill="#ffffff" stroke="#ffffff" stroke-width="1.5" d="M318,-483C318,-477 324,-471 330,-471"/>
<polyline fill="none" stroke="#2e3436" stroke-width="1.5" points="330,-471 360,-471 "/>
<path fill="none" stroke="#2e3436" stroke-width="1.5" d="M360,-471C366,-471 372,-477 372,-483"/>
<polyline fill="none" stroke="#2e3436" stroke-width="1.5" points="372,-483 372,-495 "/>
<path fill="none" stroke="#2e3436" stroke-width="1.5" d="M372,-495C372,-501 366,-507 360,-507"/>
<polyline fill="none" stroke="#2e3436" stroke-width="1.5" points="360,-507 330,-507 "/>
<path fill="none" stroke="#2e3436" stroke-width="1.5" d="M330,-507C324,-507 318,-501 318,-495"/>
<polyline fill="none" stroke="#2e3436" stroke-width="1.5" points="318,-495 318,-483 "/>
<path fill="none" stroke="#2e3436" stroke-width="1.5" d="M318,-483C318,-477 324,-471 330,-471"/>
<text text-anchor="middle" x="345" y="-495.8" font-family="FreeSans" font-size="8.00" fill="#1c2021">Node[27]</text>
<polyline fill="none" stroke="#2e3436" stroke-width="1.5" points="318,-489 372,-489 "/>
<text text-anchor="start" x="326" y="-477.8" font-family="FreeSans" font-size="8.00" fill="#1c2021">name = &#39;b&#39;</text>
</g>
<!-- N27&#45;&gt;N32 -->
<g id="edge10" class="edge"><title>N27&#45;&gt;N32</title>
<path fill="none" stroke="#2e3436" stroke-width="2" d="M345,-470.98C345,-452.057 345,-421.438 345,-395 345,-395 345,-395 345,-207 345,-169.212 306.676,-142.431 277.01,-127.361"/>
<polygon fill="#2e3436" stroke="#2e3436" points="270.066,-123.963 278.286,-124.228 273.654,-125.162 277.023,-126.811 276.803,-127.26 276.583,-127.709 273.215,-126.061 275.319,-130.291 270.066,-123.963 270.066,-123.963"/>
<text text-anchor="middle" x="359.5" y="-303.8" font-family="FreeSans" font-size="8.00" fill="#2e3436">to</text>
<text text-anchor="start" x="345" y="-293.8" font-family="FreeSans" font-size="8.00" fill="#2e3436">cost = 1</text>
</g>
<!-- N28 -->
<g id="node12" class="node"><title>N28</title>
<polygon fill="#ffffff" stroke="#ffffff" stroke-width="1.5" points="228,-377 258,-377 270,-389 270,-401 258,-413 228,-413 216,-401 216,-389 228,-377"/>
<path fill="#ffffff" stroke="#ffffff" stroke-width="1.5" d="M258,-377C264,-377 270,-383 270,-389"/>
<path fill="#ffffff" stroke="#ffffff" stroke-width="1.5" d="M270,-401C270,-407 264,-413 258,-413"/>
<path fill="#ffffff" stroke="#ffffff" stroke-width="1.5" d="M228,-413C222,-413 216,-407 216,-401"/>
<path fill="#ffffff" stroke="#ffffff" stroke-width="1.5" d="M216,-389C216,-383 222,-377 228,-377"/>
<polyline fill="none" stroke="#2e3436" stroke-width="1.5" points="228,-377 258,-377 "/>
<path fill="none" stroke="#2e3436" stroke-width="1.5" d="M258,-377C264,-377 270,-383 270,-389"/>
<polyline fill="none" stroke="#2e3436" stroke-width="1.5" points="270,-389 270,-401 "/>
<path fill="none" stroke="#2e3436" stroke-width="1.5" d="M270,-401C270,-407 264,-413 258,-413"/>
<polyline fill="none" stroke="#2e3436" stroke-width="1.5" points="258,-413 228,-413 "/>
<path fill="none" stroke="#2e3436" stroke-width="1.5" d="M228,-413C222,-413 216,-407 216,-401"/>
<polyline fill="none" stroke="#2e3436" stroke-width="1.5" points="216,-401 216,-389 "/>
<path fill="none" stroke="#2e3436" stroke-width="1.5" d="M216,-389C216,-383 222,-377 228,-377"/>
<text text-anchor="middle" x="243" y="-401.8" font-family="FreeSans" font-size="8.00" fill="#1c2021">Node[28]</text>
<polyline fill="none" stroke="#2e3436" stroke-width="1.5" points="216,-395 270,-395 "/>
<text text-anchor="start" x="224" y="-383.8" font-family="FreeSans" font-size="8.00" fill="#1c2021">name = &#39;c&#39;</text>
</g>
<!-- N27&#45;&gt;N28 -->
<g id="edge12" class="edge"><title>N27&#45;&gt;N28</title>
<path fill="none" stroke="#2e3436" stroke-width="2" d="M317.96,-471.014C309.97,-465.273 301.389,-458.67 294,-452 282.876,-441.959 271.649,-429.694 262.571,-419.117"/>
<polygon fill="#2e3436" stroke="#2e3436" points="257.492,-413.114 264.913,-416.66 260.296,-415.654 262.718,-418.517 262.336,-418.84 261.955,-419.163 259.532,-416.3 259.76,-421.02 257.492,-413.114 257.492,-413.114"/>
<text text-anchor="middle" x="308.5" y="-444.8" font-family="FreeSans" font-size="8.00" fill="#2e3436">to</text>
<text text-anchor="start" x="294" y="-434.8" font-family="FreeSans" font-size="8.00" fill="#2e3436">cost = 1</text>
</g>
<!-- N28&#45;&gt;N25 -->
<g id="edge18" class="edge"><title>N28&#45;&gt;N25</title>
<path fill="none" stroke="#2e3436" stroke-width="2" d="M215.835,-388.796C197.833,-383.407 174.876,-373.897 160,-358 151.94,-349.387 146.915,-337.419 143.81,-326.672"/>
<polygon fill="#2e3436" stroke="#2e3436" points="141.873,-319.128 147.007,-325.553 143.29,-322.636 144.223,-326.268 143.738,-326.392 143.254,-326.517 142.322,-322.885 140.469,-327.232 141.873,-319.128 141.873,-319.128"/>
<text text-anchor="middle" x="174.5" y="-350.8" font-family="FreeSans" font-size="8.00" fill="#2e3436">to</text>
<text text-anchor="start" x="160" y="-340.8" font-family="FreeSans" font-size="8.00" fill="#2e3436">cost = 1</text>
</g>
<!-- N28&#45;&gt;N32 -->
<g id="edge14" class="edge"><title>N28&#45;&gt;N32</title>
<path fill="none" stroke="#2e3436" stroke-width="2" d="M236.648,-376.635C228.343,-351.556 214.237,-305.021 209,-264 203.291,-219.277 219.67,-168.316 231.636,-138.503"/>
<polygon fill="#2e3436" stroke="#2e3436" points="234.567,-131.396 234.828,-139.617 233.6,-135.054 232.17,-138.52 231.708,-138.33 231.245,-138.139 232.675,-134.672 228.588,-137.043 234.567,-131.396 234.567,-131.396"/>
<text text-anchor="middle" x="223.5" y="-256.8" font-family="FreeSans" font-size="8.00" fill="#2e3436">to</text>
<text text-anchor="start" x="209" y="-246.8" font-family="FreeSans" font-size="8.00" fill="#2e3436">cost = 1</text>
</g>
<!-- N28&#45;&gt;N32 -->
<g id="edge16" class="edge"><title>N28&#45;&gt;N32</title>
<path fill="none" stroke="#2e3436" stroke-width="2" d="M247.173,-376.653C248.33,-370.732 249.426,-364.118 250,-358 250.83,-349.15 250.095,-346.888 250,-338 249.111,-254.43 250.268,-233.465 246,-150 245.812,-146.331 245.56,-142.462 245.28,-138.663"/>
<polygon fill="#2e3436" stroke="#2e3436" points="244.681,-131.052 248.634,-138.264 245.473,-134.751 245.768,-138.49 245.269,-138.529 244.771,-138.568 244.477,-134.83 241.905,-138.794 244.681,-131.052 244.681,-131.052"/>
<text text-anchor="middle" x="264.5" y="-256.8" font-family="FreeSans" font-size="8.00" fill="#2e3436">to</text>
<text text-anchor="start" x="250" y="-246.8" font-family="FreeSans" font-size="8.00" fill="#2e3436">cost = 1</text>
</g>
<!-- N29 -->
<g id="node16" class="node"><title>N29</title>
<polygon fill="#ffffff" stroke="#ffffff" stroke-width="1.5" points="372.5,-659 413.5,-659 425.5,-671 425.5,-683 413.5,-695 372.5,-695 360.5,-683 360.5,-671 372.5,-659"/>
<path fill="#ffffff" stroke="#ffffff" stroke-width="1.5" d="M413.5,-659C419.5,-659 425.5,-665 425.5,-671"/>
<path fill="#ffffff" stroke="#ffffff" stroke-width="1.5" d="M425.5,-683C425.5,-689 419.5,-695 413.5,-695"/>
<path fill="#ffffff" stroke="#ffffff" stroke-width="1.5" d="M372.5,-695C366.5,-695 360.5,-689 360.5,-683"/>
<path fill="#ffffff" stroke="#ffffff" stroke-width="1.5" d="M360.5,-671C360.5,-665 366.5,-659 372.5,-659"/>
<polyline fill="none" stroke="#2e3436" stroke-width="1.5" points="372.5,-659 413.5,-659 "/>
<path fill="none" stroke="#2e3436" stroke-width="1.5" d="M413.5,-659C419.5,-659 425.5,-665 425.5,-671"/>
<polyline fill="none" stroke="#2e3436" stroke-width="1.5" points="425.5,-671 425.5,-683 "/>
<path fill="none" stroke="#2e3436" stroke-width="1.5" d="M425.5,-683C425.5,-689 419.5,-695 413.5,-695"/>
<polyline fill="none" stroke="#2e3436" stroke-width="1.5" points="413.5,-695 372.5,-695 "/>
<path fill="none" stroke="#2e3436" stroke-width="1.5" d="M372.5,-695C366.5,-695 360.5,-689 360.5,-683"/>
<polyline fill="none" stroke="#2e3436" stroke-width="1.5" points="360.5,-683 360.5,-671 "/>
<path fill="none" stroke="#2e3436" stroke-width="1.5" d="M360.5,-671C360.5,-665 366.5,-659 372.5,-659"/>
<text text-anchor="middle" x="393" y="-683.8" font-family="FreeSans" font-size="8.00" fill="#1c2021">Node[29]</text>
<polyline fill="none" stroke="#2e3436" stroke-width="1.5" points="360.5,-677 425.5,-677 "/>
<text text-anchor="start" x="368.5" y="-665.8" font-family="FreeSans" font-size="8.00" fill="#1c2021">name = &#39;start&#39;</text>
</g>
<!-- N30 -->
<g id="node18" class="node"><title>N30</title>
<polygon fill="#ffffff" stroke="#ffffff" stroke-width="1.5" points="378,-565 408,-565 420,-577 420,-589 408,-601 378,-601 366,-589 366,-577 378,-565"/>
<path fill="#ffffff" stroke="#ffffff" stroke-width="1.5" d="M408,-565C414,-565 420,-571 420,-577"/>
<path fill="#ffffff" stroke="#ffffff" stroke-width="1.5" d="M420,-589C420,-595 414,-601 408,-601"/>
<path fill="#ffffff" stroke="#ffffff" stroke-width="1.5" d="M378,-601C372,-601 366,-595 366,-589"/>
<path fill="#ffffff" stroke="#ffffff" stroke-width="1.5" d="M366,-577C366,-571 372,-565 378,-565"/>
<polyline fill="none" stroke="#2e3436" stroke-width="1.5" points="378,-565 408,-565 "/>
<path fill="none" stroke="#2e3436" stroke-width="1.5" d="M408,-565C414,-565 420,-571 420,-577"/>
<polyline fill="none" stroke="#2e3436" stroke-width="1.5" points="420,-577 420,-589 "/>
<path fill="none" stroke="#2e3436" stroke-width="1.5" d="M420,-589C420,-595 414,-601 408,-601"/>
<polyline fill="none" stroke="#2e3436" stroke-width="1.5" points="408,-601 378,-601 "/>
<path fill="none" stroke="#2e3436" stroke-width="1.5" d="M378,-601C372,-601 366,-595 366,-589"/>
<polyline fill="none" stroke="#2e3436" stroke-width="1.5" points="366,-589 366,-577 "/>
<path fill="none" stroke="#2e3436" stroke-width="1.5" d="M366,-577C366,-571 372,-565 378,-565"/>
<text text-anchor="middle" x="393" y="-589.8" font-family="FreeSans" font-size="8.00" fill="#1c2021">Node[30]</text>
<polyline fill="none" stroke="#2e3436" stroke-width="1.5" points="366,-583 420,-583 "/>
<text text-anchor="start" x="374" y="-571.8" font-family="FreeSans" font-size="8.00" fill="#1c2021">name = &#39;a&#39;</text>
</g>
<!-- N29&#45;&gt;N30 -->
<g id="edge20" class="edge"><title>N29&#45;&gt;N30</title>
<path fill="none" stroke="#2e3436" stroke-width="2" d="M393,-658.876C393,-644.701 393,-624.806 393,-608.944"/>
<polygon fill="#2e3436" stroke="#2e3436" points="393,-601.069 396.375,-608.568 393.5,-604.818 393.5,-608.568 393,-608.569 392.5,-608.569 392.5,-604.819 389.625,-608.569 393,-601.069 393,-601.069"/>
<text text-anchor="middle" x="407.5" y="-632.8" font-family="FreeSans" font-size="8.00" fill="#2e3436">to</text>
<text text-anchor="start" x="393" y="-622.8" font-family="FreeSans" font-size="8.00" fill="#2e3436">cost = 1</text>
</g>
<!-- N30&#45;&gt;N32 -->
<g id="edge22" class="edge"><title>N30&#45;&gt;N32</title>
<path fill="none" stroke="#2e3436" stroke-width="2" d="M400.91,-564.656C408.234,-545.983 418,-516.019 418,-489 418,-489 418,-489 418,-207 418,-144.017 328.941,-123.058 277.888,-116.218"/>
<polygon fill="#2e3436" stroke="#2e3436" points="270.344,-115.272 278.205,-112.856 274.127,-115.242 277.848,-115.709 277.786,-116.205 277.723,-116.701 274.002,-116.235 277.366,-119.554 270.344,-115.272 270.344,-115.272"/>
<text text-anchor="middle" x="432.5" y="-350.8" font-family="FreeSans" font-size="8.00" fill="#2e3436">to</text>
<text text-anchor="start" x="418" y="-340.8" font-family="FreeSans" font-size="8.00" fill="#2e3436">cost = 1</text>
</g>
<!-- N30&#45;&gt;N27 -->
<g id="edge24" class="edge"><title>N30&#45;&gt;N27</title>
<path fill="none" stroke="#2e3436" stroke-width="2" d="M378.849,-564.746C374.717,-558.942 370.402,-552.372 367,-546 361.705,-536.083 357.023,-524.608 353.355,-514.564"/>
<polygon fill="#2e3436" stroke="#2e3436" points="350.754,-507.212 356.437,-513.157 352.476,-510.581 353.727,-514.116 353.255,-514.283 352.784,-514.45 351.533,-510.914 350.074,-515.409 350.754,-507.212 350.754,-507.212"/>
<text text-anchor="middle" x="381.5" y="-538.8" font-family="FreeSans" font-size="8.00" fill="#2e3436">to</text>
<text text-anchor="start" x="367" y="-528.8" font-family="FreeSans" font-size="8.00" fill="#2e3436">cost = 1</text>
</g>
</g>
</svg>
