<?xml version="1.0" encoding="UTF-8" standalone="no"?>
<!DOCTYPE svg PUBLIC "-//W3C//DTD SVG 1.1//EN"
 "http://www.w3.org/Graphics/SVG/1.1/DTD/svg11.dtd">
<!-- Generated by graphviz version 2.26.3 (20100126.1600)
 -->
<!-- Title: g Pages: 1 -->
<svg width="287pt" height="346pt"
 viewBox="0.00 0.00 287.00 346.00" xmlns="http://www.w3.org/2000/svg" xmlns:xlink="http://www.w3.org/1999/xlink">
<g id="graph1" class="graph" transform="scale(1 1) rotate(0) translate(4 342)">
<title>g</title>
<polygon fill="white" stroke="white" points="-4,5 -4,-342 284,-342 284,5 -4,5"/>
<!-- N208 -->
<g id="node1" class="node"><title>N208</title>
<polygon fill="#ffffff" stroke="#ffffff" stroke-width="1.5" points="11.5,-151 76.5,-151 88.5,-163 88.5,-175 76.5,-187 11.5,-187 -0.5,-175 -0.5,-163 11.5,-151"/>
<path fill="#ffffff" stroke="#ffffff" stroke-width="1.5" d="M76.5,-151C82.5,-151 88.5,-157 88.5,-163"/>
<path fill="#ffffff" stroke="#ffffff" stroke-width="1.5" d="M88.5,-175C88.5,-181 82.5,-187 76.5,-187"/>
<path fill="#ffffff" stroke="#ffffff" stroke-width="1.5" d="M11.5,-187C5.5,-187 -0.5,-181 -0.5,-175"/>
<path fill="#ffffff" stroke="#ffffff" stroke-width="1.5" d="M-0.5,-163C-0.5,-157 5.5,-151 11.5,-151"/>
<polyline fill="none" stroke="#2e3436" stroke-width="1.5" points="11.5,-151 76.5,-151 "/>
<path fill="none" stroke="#2e3436" stroke-width="1.5" d="M76.5,-151C82.5,-151 88.5,-157 88.5,-163"/>
<polyline fill="none" stroke="#2e3436" stroke-width="1.5" points="88.5,-163 88.5,-175 "/>
<path fill="none" stroke="#2e3436" stroke-width="1.5" d="M88.5,-175C88.5,-181 82.5,-187 76.5,-187"/>
<polyline fill="none" stroke="#2e3436" stroke-width="1.5" points="76.5,-187 11.5,-187 "/>
<path fill="none" stroke="#2e3436" stroke-width="1.5" d="M11.5,-187C5.5,-187 -0.5,-181 -0.5,-175"/>
<polyline fill="none" stroke="#2e3436" stroke-width="1.5" points="-0.5,-175 -0.5,-163 "/>
<path fill="none" stroke="#2e3436" stroke-width="1.5" d="M-0.5,-163C-0.5,-157 5.5,-151 11.5,-151"/>
<text text-anchor="start" x="7.5" y="-166.8" font-family="FreeSans" font-size="8.00" fill="#1c2021">Node[208]name = &#39;f&#39;</text>
</g>
<!-- N210 -->
<g id="node3" class="node"><title>N210</title>
<polygon fill="#ffffff" stroke="#ffffff" stroke-width="1.5" points="97.5,-1 164.5,-1 176.5,-13 176.5,-25 164.5,-37 97.5,-37 85.5,-25 85.5,-13 97.5,-1"/>
<path fill="#ffffff" stroke="#ffffff" stroke-width="1.5" d="M164.5,-1C170.5,-1 176.5,-7 176.5,-13"/>
<path fill="#ffffff" stroke="#ffffff" stroke-width="1.5" d="M176.5,-25C176.5,-31 170.5,-37 164.5,-37"/>
<path fill="#ffffff" stroke="#ffffff" stroke-width="1.5" d="M97.5,-37C91.5,-37 85.5,-31 85.5,-25"/>
<path fill="#ffffff" stroke="#ffffff" stroke-width="1.5" d="M85.5,-13C85.5,-7 91.5,-1 97.5,-1"/>
<polyline fill="none" stroke="#2e3436" stroke-width="1.5" points="97.5,-1 164.5,-1 "/>
<path fill="none" stroke="#2e3436" stroke-width="1.5" d="M164.5,-1C170.5,-1 176.5,-7 176.5,-13"/>
<polyline fill="none" stroke="#2e3436" stroke-width="1.5" points="176.5,-13 176.5,-25 "/>
<path fill="none" stroke="#2e3436" stroke-width="1.5" d="M176.5,-25C176.5,-31 170.5,-37 164.5,-37"/>
<polyline fill="none" stroke="#2e3436" stroke-width="1.5" points="164.5,-37 97.5,-37 "/>
<path fill="none" stroke="#2e3436" stroke-width="1.5" d="M97.5,-37C91.5,-37 85.5,-31 85.5,-25"/>
<polyline fill="none" stroke="#2e3436" stroke-width="1.5" points="85.5,-25 85.5,-13 "/>
<path fill="none" stroke="#2e3436" stroke-width="1.5" d="M85.5,-13C85.5,-7 91.5,-1 97.5,-1"/>
<text text-anchor="start" x="93.5" y="-16.8" font-family="FreeSans" font-size="8.00" fill="#1c2021">Node[210]name = &#39;e&#39;</text>
</g>
<!-- N208&#45;&gt;N210 -->
<g id="edge2" class="edge"><title>N208&#45;&gt;N210</title>
<path fill="none" stroke="#2e3436" stroke-width="2" d="M54.4942,-150.906C69.975,-124.216 98.985,-74.1983 116.493,-44.0128"/>
<polygon fill="#2e3436" stroke="#2e3436" points="120.469,-37.1577 119.625,-45.3387 119.02,-40.6524 117.138,-43.8963 116.706,-43.6454 116.273,-43.3946 118.155,-40.1507 113.786,-41.9521 120.469,-37.1577 120.469,-37.1577"/>
<text text-anchor="middle" x="102.5" y="-115.8" font-family="FreeSans" font-size="8.00" fill="#2e3436">to</text>
<text text-anchor="start" x="88" y="-105.8" font-family="FreeSans" font-size="8.00" fill="#2e3436">cost = 1</text>
</g>
<!-- N209 -->
<g id="node4" class="node"><title>N209</title>
<polygon fill="#ffffff" stroke="#ffffff" stroke-width="1.5" points="200.5,-95 267.5,-95 279.5,-107 279.5,-119 267.5,-131 200.5,-131 188.5,-119 188.5,-107 200.5,-95"/>
<path fill="#ffffff" stroke="#ffffff" stroke-width="1.5" d="M267.5,-95C273.5,-95 279.5,-101 279.5,-107"/>
<path fill="#ffffff" stroke="#ffffff" stroke-width="1.5" d="M279.5,-119C279.5,-125 273.5,-131 267.5,-131"/>
<path fill="#ffffff" stroke="#ffffff" stroke-width="1.5" d="M200.5,-131C194.5,-131 188.5,-125 188.5,-119"/>
<path fill="#ffffff" stroke="#ffffff" stroke-width="1.5" d="M188.5,-107C188.5,-101 194.5,-95 200.5,-95"/>
<polyline fill="none" stroke="#2e3436" stroke-width="1.5" points="200.5,-95 267.5,-95 "/>
<path fill="none" stroke="#2e3436" stroke-width="1.5" d="M267.5,-95C273.5,-95 279.5,-101 279.5,-107"/>
<polyline fill="none" stroke="#2e3436" stroke-width="1.5" points="279.5,-107 279.5,-119 "/>
<path fill="none" stroke="#2e3436" stroke-width="1.5" d="M279.5,-119C279.5,-125 273.5,-131 267.5,-131"/>
<polyline fill="none" stroke="#2e3436" stroke-width="1.5" points="267.5,-131 200.5,-131 "/>
<path fill="none" stroke="#2e3436" stroke-width="1.5" d="M200.5,-131C194.5,-131 188.5,-125 188.5,-119"/>
<polyline fill="none" stroke="#2e3436" stroke-width="1.5" points="188.5,-119 188.5,-107 "/>
<path fill="none" stroke="#2e3436" stroke-width="1.5" d="M188.5,-107C188.5,-101 194.5,-95 200.5,-95"/>
<text text-anchor="start" x="196.5" y="-110.8" font-family="FreeSans" font-size="8.00" fill="#1c2021">Node[209]name = &#39;d&#39;</text>
</g>
<!-- N209&#45;&gt;N210 -->
<g id="edge4" class="edge"><title>N209&#45;&gt;N210</title>
<path fill="none" stroke="#2e3436" stroke-width="2" d="M214.141,-94.8759C197.754,-79.9211 174.39,-58.5983 156.6,-42.3629"/>
<polygon fill="#2e3436" stroke="#2e3436" points="150.798,-37.0685 158.613,-39.6314 153.905,-39.2271 156.675,-41.755 156.338,-42.1243 156.001,-42.4936 153.231,-39.9657 154.063,-44.6172 150.798,-37.0685 150.798,-37.0685"/>
<text text-anchor="middle" x="205.5" y="-68.8" font-family="FreeSans" font-size="8.00" fill="#2e3436">to</text>
<text text-anchor="start" x="191" y="-58.8" font-family="FreeSans" font-size="8.00" fill="#2e3436">cost = 1</text>
</g>
<!-- N211 -->
<g id="node6" class="node"><title>N211</title>
<polygon fill="#ffffff" stroke="#ffffff" stroke-width="1.5" points="104.5,-151 171.5,-151 183.5,-163 183.5,-175 171.5,-187 104.5,-187 92.5,-175 92.5,-163 104.5,-151"/>
<path fill="#ffffff" stroke="#ffffff" stroke-width="1.5" d="M171.5,-151C177.5,-151 183.5,-157 183.5,-163"/>
<path fill="#ffffff" stroke="#ffffff" stroke-width="1.5" d="M183.5,-175C183.5,-181 177.5,-187 171.5,-187"/>
<path fill="#ffffff" stroke="#ffffff" stroke-width="1.5" d="M104.5,-187C98.5,-187 92.5,-181 92.5,-175"/>
<path fill="#ffffff" stroke="#ffffff" stroke-width="1.5" d="M92.5,-163C92.5,-157 98.5,-151 104.5,-151"/>
<polyline fill="none" stroke="#2e3436" stroke-width="1.5" points="104.5,-151 171.5,-151 "/>
<path fill="none" stroke="#2e3436" stroke-width="1.5" d="M171.5,-151C177.5,-151 183.5,-157 183.5,-163"/>
<polyline fill="none" stroke="#2e3436" stroke-width="1.5" points="183.5,-163 183.5,-175 "/>
<path fill="none" stroke="#2e3436" stroke-width="1.5" d="M183.5,-175C183.5,-181 177.5,-187 171.5,-187"/>
<polyline fill="none" stroke="#2e3436" stroke-width="1.5" points="171.5,-187 104.5,-187 "/>
<path fill="none" stroke="#2e3436" stroke-width="1.5" d="M104.5,-187C98.5,-187 92.5,-181 92.5,-175"/>
<polyline fill="none" stroke="#2e3436" stroke-width="1.5" points="92.5,-175 92.5,-163 "/>
<path fill="none" stroke="#2e3436" stroke-width="1.5" d="M92.5,-163C92.5,-157 98.5,-151 104.5,-151"/>
<text text-anchor="start" x="100.5" y="-166.8" font-family="FreeSans" font-size="8.00" fill="#1c2021">Node[211]name = &#39;b&#39;</text>
</g>
<!-- N211&#45;&gt;N210 -->
<g id="edge6" class="edge"><title>N211&#45;&gt;N210</title>
<path fill="none" stroke="#2e3436" stroke-width="2" d="M137.156,-150.906C135.921,-124.441 133.615,-75.0408 132.203,-44.7812"/>
<polygon fill="#2e3436" stroke="#2e3436" points="131.847,-37.1577 135.568,-44.4921 132.522,-40.8803 132.697,-44.6262 132.197,-44.6495 131.698,-44.6728 131.523,-40.9269 128.826,-44.8069 131.847,-37.1577 131.847,-37.1577"/>
<text text-anchor="middle" x="150.5" y="-115.8" font-family="FreeSans" font-size="8.00" fill="#2e3436">to</text>
<text text-anchor="start" x="136" y="-105.8" font-family="FreeSans" font-size="8.00" fill="#2e3436">cost = 1</text>
</g>
<!-- N212 -->
<g id="node8" class="node"><title>N212</title>
<polygon fill="#ffffff" stroke="#ffffff" stroke-width="1.5" points="195.5,-207 262.5,-207 274.5,-219 274.5,-231 262.5,-243 195.5,-243 183.5,-231 183.5,-219 195.5,-207"/>
<path fill="#ffffff" stroke="#ffffff" stroke-width="1.5" d="M262.5,-207C268.5,-207 274.5,-213 274.5,-219"/>
<path fill="#ffffff" stroke="#ffffff" stroke-width="1.5" d="M274.5,-231C274.5,-237 268.5,-243 262.5,-243"/>
<path fill="#ffffff" stroke="#ffffff" stroke-width="1.5" d="M195.5,-243C189.5,-243 183.5,-237 183.5,-231"/>
<path fill="#ffffff" stroke="#ffffff" stroke-width="1.5" d="M183.5,-219C183.5,-213 189.5,-207 195.5,-207"/>
<polyline fill="none" stroke="#2e3436" stroke-width="1.5" points="195.5,-207 262.5,-207 "/>
<path fill="none" stroke="#2e3436" stroke-width="1.5" d="M262.5,-207C268.5,-207 274.5,-213 274.5,-219"/>
<polyline fill="none" stroke="#2e3436" stroke-width="1.5" points="274.5,-219 274.5,-231 "/>
<path fill="none" stroke="#2e3436" stroke-width="1.5" d="M274.5,-231C274.5,-237 268.5,-243 262.5,-243"/>
<polyline fill="none" stroke="#2e3436" stroke-width="1.5" points="262.5,-243 195.5,-243 "/>
<path fill="none" stroke="#2e3436" stroke-width="1.5" d="M195.5,-243C189.5,-243 183.5,-237 183.5,-231"/>
<polyline fill="none" stroke="#2e3436" stroke-width="1.5" points="183.5,-231 183.5,-219 "/>
<path fill="none" stroke="#2e3436" stroke-width="1.5" d="M183.5,-219C183.5,-213 189.5,-207 195.5,-207"/>
<text text-anchor="start" x="191.5" y="-222.8" font-family="FreeSans" font-size="8.00" fill="#1c2021">Node[212]name = &#39;c&#39;</text>
</g>
<!-- N212&#45;&gt;N209 -->
<g id="edge8" class="edge"><title>N212&#45;&gt;N209</title>
<path fill="none" stroke="#2e3436" stroke-width="2" d="M229.826,-206.505C230.652,-187.994 231.93,-159.364 232.854,-138.66"/>
<polygon fill="#2e3436" stroke="#2e3436" points="233.19,-131.15 236.227,-138.793 233.522,-134.919 233.355,-138.665 232.855,-138.643 232.356,-138.621 232.523,-134.874 229.483,-138.492 233.19,-131.15 233.19,-131.15"/>
<text text-anchor="middle" x="246.5" y="-171.8" font-family="FreeSans" font-size="8.00" fill="#2e3436">to</text>
<text text-anchor="start" x="232" y="-161.8" font-family="FreeSans" font-size="8.00" fill="#2e3436">cost = 1</text>
</g>
<!-- N213 -->
<g id="node10" class="node"><title>N213</title>
<polygon fill="#ffffff" stroke="#ffffff" stroke-width="1.5" points="104.5,-301 171.5,-301 183.5,-313 183.5,-325 171.5,-337 104.5,-337 92.5,-325 92.5,-313 104.5,-301"/>
<path fill="#ffffff" stroke="#ffffff" stroke-width="1.5" d="M171.5,-301C177.5,-301 183.5,-307 183.5,-313"/>
<path fill="#ffffff" stroke="#ffffff" stroke-width="1.5" d="M183.5,-325C183.5,-331 177.5,-337 171.5,-337"/>
<path fill="#ffffff" stroke="#ffffff" stroke-width="1.5" d="M104.5,-337C98.5,-337 92.5,-331 92.5,-325"/>
<path fill="#ffffff" stroke="#ffffff" stroke-width="1.5" d="M92.5,-313C92.5,-307 98.5,-301 104.5,-301"/>
<polyline fill="none" stroke="#2e3436" stroke-width="1.5" points="104.5,-301 171.5,-301 "/>
<path fill="none" stroke="#2e3436" stroke-width="1.5" d="M171.5,-301C177.5,-301 183.5,-307 183.5,-313"/>
<polyline fill="none" stroke="#2e3436" stroke-width="1.5" points="183.5,-313 183.5,-325 "/>
<path fill="none" stroke="#2e3436" stroke-width="1.5" d="M183.5,-325C183.5,-331 177.5,-337 171.5,-337"/>
<polyline fill="none" stroke="#2e3436" stroke-width="1.5" points="171.5,-337 104.5,-337 "/>
<path fill="none" stroke="#2e3436" stroke-width="1.5" d="M104.5,-337C98.5,-337 92.5,-331 92.5,-325"/>
<polyline fill="none" stroke="#2e3436" stroke-width="1.5" points="92.5,-325 92.5,-313 "/>
<path fill="none" stroke="#2e3436" stroke-width="1.5" d="M92.5,-313C92.5,-307 98.5,-301 104.5,-301"/>
<text text-anchor="start" x="100.5" y="-316.8" font-family="FreeSans" font-size="8.00" fill="#1c2021">Node[213]name = &#39;a&#39;</text>
</g>
<!-- N213&#45;&gt;N208 -->
<g id="edge14" class="edge"><title>N213&#45;&gt;N208</title>
<path fill="none" stroke="#2e3436" stroke-width="2" d="M118.156,-300.767C112.553,-295.069 106.706,-288.551 102,-282 81.8292,-253.922 64.6108,-217.853 54.2939,-194.112"/>
<polygon fill="#2e3436" stroke="#2e3436" points="51.3181,-187.162 57.3729,-192.728 53.2539,-190.412 54.73,-193.86 54.2704,-194.057 53.8108,-194.253 52.3346,-190.806 51.1679,-195.385 51.3181,-187.162 51.3181,-187.162"/>
<text text-anchor="middle" x="116.5" y="-274.8" font-family="FreeSans" font-size="8.00" fill="#2e3436">to</text>
<text text-anchor="start" x="102" y="-264.8" font-family="FreeSans" font-size="8.00" fill="#2e3436">cost = 1</text>
</g>
<!-- N213&#45;&gt;N211 -->
<g id="edge10" class="edge"><title>N213&#45;&gt;N211</title>
<path fill="none" stroke="#2e3436" stroke-width="2" d="M138,-300.906C138,-274.441 138,-225.041 138,-194.781"/>
<polygon fill="#2e3436" stroke="#2e3436" points="138,-187.158 141.375,-194.658 138.5,-190.908 138.5,-194.658 138,-194.658 137.5,-194.658 137.5,-190.908 134.625,-194.658 138,-187.158 138,-187.158"/>
<text text-anchor="middle" x="152.5" y="-274.8" font-family="FreeSans" font-size="8.00" fill="#2e3436">to</text>
<text text-anchor="start" x="138" y="-264.8" font-family="FreeSans" font-size="8.00" fill="#2e3436">cost = 1</text>
</g>
<!-- N213&#45;&gt;N212 -->
<g id="edge12" class="edge"><title>N213&#45;&gt;N212</title>
<path fill="none" stroke="#2e3436" stroke-width="2" d="M155.593,-300.948C161.454,-294.927 168.013,-288.179 174,-282 184.577,-271.084 196.273,-258.968 206.151,-248.724"/>
<polygon fill="#2e3436" stroke="#2e3436" points="211.433,-243.245 208.658,-250.987 209.19,-246.291 206.588,-248.991 206.228,-248.644 205.868,-248.297 208.47,-245.597 203.798,-246.302 211.433,-243.245 211.433,-243.245"/>
<text text-anchor="middle" x="206.5" y="-274.8" font-family="FreeSans" font-size="8.00" fill="#2e3436">to</text>
<text text-anchor="start" x="192" y="-264.8" font-family="FreeSans" font-size="8.00" fill="#2e3436">cost = 1</text>
</g>
</g>
</svg>
