<?xml version="1.0" encoding="UTF-8" standalone="no"?>
<!DOCTYPE svg PUBLIC "-//W3C//DTD SVG 1.1//EN"
 "http://www.w3.org/Graphics/SVG/1.1/DTD/svg11.dtd">
<!-- Generated by graphviz version 2.26.3 (20100126.1600)
 -->
<!-- Title: g Pages: 1 -->
<svg width="225pt" height="130pt"
 viewBox="0.00 0.00 225.00 130.00" xmlns="http://www.w3.org/2000/svg" xmlns:xlink="http://www.w3.org/1999/xlink">
<g id="graph1" class="graph" transform="scale(1 1) rotate(0) translate(4 126)">
<title>g</title>
<polygon fill="white" stroke="white" points="-4,5 -4,-126 222,-126 222,5 -4,5"/>
<!-- N89 -->
<g id="node1" class="node"><title>N89</title>
<polygon fill="#ffffff" stroke="#ffffff" stroke-width="1.5" points="12,-1 82,-1 94,-13 94,-25 82,-37 12,-37 0,-25 0,-13 12,-1"/>
<path fill="#ffffff" stroke="#ffffff" stroke-width="1.5" d="M82,-1C88,-1 94,-7 94,-13"/>
<path fill="#ffffff" stroke="#ffffff" stroke-width="1.5" d="M94,-25C94,-31 88,-37 82,-37"/>
<path fill="#ffffff" stroke="#ffffff" stroke-width="1.5" d="M12,-37C6,-37 0,-31 0,-25"/>
<path fill="#ffffff" stroke="#ffffff" stroke-width="1.5" d="M0,-13C0,-7 6,-1 12,-1"/>
<polyline fill="none" stroke="#2e3436" stroke-width="1.5" points="12,-1 82,-1 "/>
<path fill="none" stroke="#2e3436" stroke-width="1.5" d="M82,-1C88,-1 94,-7 94,-13"/>
<polyline fill="none" stroke="#2e3436" stroke-width="1.5" points="94,-13 94,-25 "/>
<path fill="none" stroke="#2e3436" stroke-width="1.5" d="M94,-25C94,-31 88,-37 82,-37"/>
<polyline fill="none" stroke="#2e3436" stroke-width="1.5" points="82,-37 12,-37 "/>
<path fill="none" stroke="#2e3436" stroke-width="1.5" d="M12,-37C6,-37 0,-31 0,-25"/>
<polyline fill="none" stroke="#2e3436" stroke-width="1.5" points="0,-25 0,-13 "/>
<path fill="none" stroke="#2e3436" stroke-width="1.5" d="M0,-13C0,-7 6,-1 12,-1"/>
<text text-anchor="start" x="8" y="-16.8" font-family="FreeSans" font-size="8.00" fill="#1c2021">Node[89]name = &#39;car&#39;</text>
</g>
<!-- N90 -->
<g id="node2" class="node"><title>N90</title>
<polygon fill="#ffffff" stroke="#ffffff" stroke-width="1.5" points="134.5,-1 205.5,-1 217.5,-13 217.5,-25 205.5,-37 134.5,-37 122.5,-25 122.5,-13 134.5,-1"/>
<path fill="#ffffff" stroke="#ffffff" stroke-width="1.5" d="M205.5,-1C211.5,-1 217.5,-7 217.5,-13"/>
<path fill="#ffffff" stroke="#ffffff" stroke-width="1.5" d="M217.5,-25C217.5,-31 211.5,-37 205.5,-37"/>
<path fill="#ffffff" stroke="#ffffff" stroke-width="1.5" d="M134.5,-37C128.5,-37 122.5,-31 122.5,-25"/>
<path fill="#ffffff" stroke="#ffffff" stroke-width="1.5" d="M122.5,-13C122.5,-7 128.5,-1 134.5,-1"/>
<polyline fill="none" stroke="#2e3436" stroke-width="1.5" points="134.5,-1 205.5,-1 "/>
<path fill="none" stroke="#2e3436" stroke-width="1.5" d="M205.5,-1C211.5,-1 217.5,-7 217.5,-13"/>
<polyline fill="none" stroke="#2e3436" stroke-width="1.5" points="217.5,-13 217.5,-25 "/>
<path fill="none" stroke="#2e3436" stroke-width="1.5" d="M217.5,-25C217.5,-31 211.5,-37 205.5,-37"/>
<polyline fill="none" stroke="#2e3436" stroke-width="1.5" points="205.5,-37 134.5,-37 "/>
<path fill="none" stroke="#2e3436" stroke-width="1.5" d="M134.5,-37C128.5,-37 122.5,-31 122.5,-25"/>
<polyline fill="none" stroke="#2e3436" stroke-width="1.5" points="122.5,-25 122.5,-13 "/>
<path fill="none" stroke="#2e3436" stroke-width="1.5" d="M122.5,-13C122.5,-7 128.5,-1 134.5,-1"/>
<text text-anchor="start" x="130.5" y="-16.8" font-family="FreeSans" font-size="8.00" fill="#1c2021">Node[90]name = &#39;you&#39;</text>
</g>
<!-- N91 -->
<g id="node3" class="node"><title>N91</title>
<polygon fill="#ffffff" stroke="#ffffff" stroke-width="1.5" points="78,-85 138,-85 150,-97 150,-109 138,-121 78,-121 66,-109 66,-97 78,-85"/>
<path fill="#ffffff" stroke="#ffffff" stroke-width="1.5" d="M138,-85C144,-85 150,-91 150,-97"/>
<path fill="#ffffff" stroke="#ffffff" stroke-width="1.5" d="M150,-109C150,-115 144,-121 138,-121"/>
<path fill="#ffffff" stroke="#ffffff" stroke-width="1.5" d="M78,-121C72,-121 66,-115 66,-109"/>
<path fill="#ffffff" stroke="#ffffff" stroke-width="1.5" d="M66,-97C66,-91 72,-85 78,-85"/>
<polyline fill="none" stroke="#2e3436" stroke-width="1.5" points="78,-85 138,-85 "/>
<path fill="none" stroke="#2e3436" stroke-width="1.5" d="M138,-85C144,-85 150,-91 150,-97"/>
<polyline fill="none" stroke="#2e3436" stroke-width="1.5" points="150,-97 150,-109 "/>
<path fill="none" stroke="#2e3436" stroke-width="1.5" d="M150,-109C150,-115 144,-121 138,-121"/>
<polyline fill="none" stroke="#2e3436" stroke-width="1.5" points="138,-121 78,-121 "/>
<path fill="none" stroke="#2e3436" stroke-width="1.5" d="M78,-121C72,-121 66,-115 66,-109"/>
<polyline fill="none" stroke="#2e3436" stroke-width="1.5" points="66,-109 66,-97 "/>
<path fill="none" stroke="#2e3436" stroke-width="1.5" d="M66,-97C66,-91 72,-85 78,-85"/>
<text text-anchor="start" x="74" y="-100.8" font-family="FreeSans" font-size="8.00" fill="#1c2021">Node[91]name = &#39;I&#39;</text>
</g>
<!-- N91&#45;&gt;N89 -->
<g id="edge4" class="edge"><title>N91&#45;&gt;N89</title>
<path fill="none" stroke="#4e9a06" stroke-width="2" d="M94.7639,-84.7733C85.971,-72.665 74.3237,-56.6261 64.7322,-43.4181"/>
<polygon fill="#4e9a06" stroke="#4e9a06" points="60.2103,-37.1912 67.3482,-41.2767 62.8184,-39.9317 65.0219,-42.966 64.6173,-43.2598 64.2127,-43.5536 62.0092,-40.5193 61.8864,-45.243 60.2103,-37.1912 60.2103,-37.1912"/>
<text text-anchor="middle" x="88" y="-58.8" font-family="FreeSans" font-size="8.00" fill="#4e9a06">own</text>
</g>
<!-- N91&#45;&gt;N90 -->
<g id="edge2" class="edge"><title>N91&#45;&gt;N90</title>
<path fill="none" stroke="#2e3436" stroke-width="2" d="M121.453,-84.7733C130.39,-72.665 142.228,-56.6261 151.977,-43.4181"/>
<polygon fill="#2e3436" stroke="#2e3436" points="156.573,-37.1912 154.835,-45.2298 154.749,-40.5053 152.522,-43.5224 152.119,-43.2255 151.717,-42.9286 153.944,-39.9114 149.404,-41.2212 156.573,-37.1912 156.573,-37.1912"/>
<text text-anchor="middle" x="150" y="-58.8" font-family="FreeSans" font-size="8.00" fill="#2e3436">know</text>
</g>
</g>
</svg>
