<?xml version="1.0" encoding="UTF-8" standalone="no"?>
<!DOCTYPE svg PUBLIC "-//W3C//DTD SVG 1.1//EN"
 "http://www.w3.org/Graphics/SVG/1.1/DTD/svg11.dtd">
<!-- Generated by graphviz version 2.26.3 (20100126.1600)
 -->
<!-- Title: g Pages: 1 -->
<svg width="211pt" height="130pt"
 viewBox="0.00 0.00 211.00 130.00" xmlns="http://www.w3.org/2000/svg" xmlns:xlink="http://www.w3.org/1999/xlink">
<g id="graph1" class="graph" transform="scale(1 1) rotate(0) translate(4 126)">
<title>g</title>
<polygon fill="white" stroke="white" points="-4,5 -4,-126 208,-126 208,5 -4,5"/>
<!-- N67 -->
<g id="node1" class="node"><title>N67</title>
<polygon fill="#ffffff" stroke="#ffffff" stroke-width="1.5" points="11.5,-1 82.5,-1 94.5,-13 94.5,-25 82.5,-37 11.5,-37 -0.5,-25 -0.5,-13 11.5,-1"/>
<path fill="#ffffff" stroke="#ffffff" stroke-width="1.5" d="M82.5,-1C88.5,-1 94.5,-7 94.5,-13"/>
<path fill="#ffffff" stroke="#ffffff" stroke-width="1.5" d="M94.5,-25C94.5,-31 88.5,-37 82.5,-37"/>
<path fill="#ffffff" stroke="#ffffff" stroke-width="1.5" d="M11.5,-37C5.5,-37 -0.5,-31 -0.5,-25"/>
<path fill="#ffffff" stroke="#ffffff" stroke-width="1.5" d="M-0.5,-13C-0.5,-7 5.5,-1 11.5,-1"/>
<polyline fill="none" stroke="#2e3436" stroke-width="1.5" points="11.5,-1 82.5,-1 "/>
<path fill="none" stroke="#2e3436" stroke-width="1.5" d="M82.5,-1C88.5,-1 94.5,-7 94.5,-13"/>
<polyline fill="none" stroke="#2e3436" stroke-width="1.5" points="94.5,-13 94.5,-25 "/>
<path fill="none" stroke="#2e3436" stroke-width="1.5" d="M94.5,-25C94.5,-31 88.5,-37 82.5,-37"/>
<polyline fill="none" stroke="#2e3436" stroke-width="1.5" points="82.5,-37 11.5,-37 "/>
<path fill="none" stroke="#2e3436" stroke-width="1.5" d="M11.5,-37C5.5,-37 -0.5,-31 -0.5,-25"/>
<polyline fill="none" stroke="#2e3436" stroke-width="1.5" points="-0.5,-25 -0.5,-13 "/>
<path fill="none" stroke="#2e3436" stroke-width="1.5" d="M-0.5,-13C-0.5,-7 5.5,-1 11.5,-1"/>
<text text-anchor="start" x="7.5" y="-16.8" font-family="FreeSans" font-size="8.00" fill="#1c2021">Node[67]name = &#39;you&#39;</text>
</g>
<!-- N68 -->
<g id="node2" class="node"><title>N68</title>
<polygon fill="#ffffff" stroke="#ffffff" stroke-width="1.5" points="134.5,-1 191.5,-1 203.5,-13 203.5,-25 191.5,-37 134.5,-37 122.5,-25 122.5,-13 134.5,-1"/>
<path fill="#ffffff" stroke="#ffffff" stroke-width="1.5" d="M191.5,-1C197.5,-1 203.5,-7 203.5,-13"/>
<path fill="#ffffff" stroke="#ffffff" stroke-width="1.5" d="M203.5,-25C203.5,-31 197.5,-37 191.5,-37"/>
<path fill="#ffffff" stroke="#ffffff" stroke-width="1.5" d="M134.5,-37C128.5,-37 122.5,-31 122.5,-25"/>
<path fill="#ffffff" stroke="#ffffff" stroke-width="1.5" d="M122.5,-13C122.5,-7 128.5,-1 134.5,-1"/>
<polyline fill="none" stroke="#2e3436" stroke-width="1.5" points="134.5,-1 191.5,-1 "/>
<path fill="none" stroke="#2e3436" stroke-width="1.5" d="M191.5,-1C197.5,-1 203.5,-7 203.5,-13"/>
<polyline fill="none" stroke="#2e3436" stroke-width="1.5" points="203.5,-13 203.5,-25 "/>
<path fill="none" stroke="#2e3436" stroke-width="1.5" d="M203.5,-25C203.5,-31 197.5,-37 191.5,-37"/>
<polyline fill="none" stroke="#2e3436" stroke-width="1.5" points="191.5,-37 134.5,-37 "/>
<path fill="none" stroke="#2e3436" stroke-width="1.5" d="M134.5,-37C128.5,-37 122.5,-31 122.5,-25"/>
<polyline fill="none" stroke="#2e3436" stroke-width="1.5" points="122.5,-25 122.5,-13 "/>
<path fill="none" stroke="#2e3436" stroke-width="1.5" d="M122.5,-13C122.5,-7 128.5,-1 134.5,-1"/>
<text text-anchor="start" x="130.5" y="-21.8" font-family="FreeSans" font-size="8.00" fill="#1c2021">Node[68]age = 25</text>
<text text-anchor="start" x="130.5" y="-11.8" font-family="FreeSans" font-size="8.00" fill="#1c2021">name = &#39;him&#39;</text>
</g>
<!-- N69 -->
<g id="node3" class="node"><title>N69</title>
<polygon fill="#ffffff" stroke="#ffffff" stroke-width="1.5" points="75,-85 135,-85 147,-97 147,-109 135,-121 75,-121 63,-109 63,-97 75,-85"/>
<path fill="#ffffff" stroke="#ffffff" stroke-width="1.5" d="M135,-85C141,-85 147,-91 147,-97"/>
<path fill="#ffffff" stroke="#ffffff" stroke-width="1.5" d="M147,-109C147,-115 141,-121 135,-121"/>
<path fill="#ffffff" stroke="#ffffff" stroke-width="1.5" d="M75,-121C69,-121 63,-115 63,-109"/>
<path fill="#ffffff" stroke="#ffffff" stroke-width="1.5" d="M63,-97C63,-91 69,-85 75,-85"/>
<polyline fill="none" stroke="#2e3436" stroke-width="1.5" points="75,-85 135,-85 "/>
<path fill="none" stroke="#2e3436" stroke-width="1.5" d="M135,-85C141,-85 147,-91 147,-97"/>
<polyline fill="none" stroke="#2e3436" stroke-width="1.5" points="147,-97 147,-109 "/>
<path fill="none" stroke="#2e3436" stroke-width="1.5" d="M147,-109C147,-115 141,-121 135,-121"/>
<polyline fill="none" stroke="#2e3436" stroke-width="1.5" points="135,-121 75,-121 "/>
<path fill="none" stroke="#2e3436" stroke-width="1.5" d="M75,-121C69,-121 63,-115 63,-109"/>
<polyline fill="none" stroke="#2e3436" stroke-width="1.5" points="63,-109 63,-97 "/>
<path fill="none" stroke="#2e3436" stroke-width="1.5" d="M63,-97C63,-91 69,-85 75,-85"/>
<text text-anchor="start" x="71" y="-100.8" font-family="FreeSans" font-size="8.00" fill="#1c2021">Node[69]name = &#39;I&#39;</text>
</g>
<!-- N69&#45;&gt;N67 -->
<g id="edge4" class="edge"><title>N69&#45;&gt;N67</title>
<path fill="none" stroke="#2e3436" stroke-width="2" d="M92.4149,-84.7733C84.0544,-72.665 72.98,-56.6261 63.8601,-43.4181"/>
<polygon fill="#2e3436" stroke="#2e3436" points="59.5606,-37.1912 66.5993,-41.4453 62.1028,-39.993 64.2335,-43.0788 63.822,-43.3629 63.4106,-43.647 61.2799,-40.5611 61.0448,-45.2806 59.5606,-37.1912 59.5606,-37.1912"/>
<text text-anchor="middle" x="88" y="-58.8" font-family="FreeSans" font-size="8.00" fill="#2e3436">know</text>
</g>
<!-- N69&#45;&gt;N68 -->
<g id="edge2" class="edge"><title>N69&#45;&gt;N68</title>
<path fill="none" stroke="#2e3436" stroke-width="2" d="M117.585,-84.7733C125.946,-72.665 137.02,-56.6261 146.14,-43.4181"/>
<polygon fill="#2e3436" stroke="#2e3436" points="150.439,-37.1912 148.955,-45.2806 148.72,-40.5611 146.589,-43.647 146.178,-43.3629 145.767,-43.0788 147.897,-39.993 143.401,-41.4453 150.439,-37.1912 150.439,-37.1912"/>
<text text-anchor="middle" x="145" y="-58.8" font-family="FreeSans" font-size="8.00" fill="#2e3436">know</text>
</g>
</g>
</svg>
