<?xml version="1.0" encoding="UTF-8" standalone="no"?>
<!DOCTYPE svg PUBLIC "-//W3C//DTD SVG 1.1//EN"
 "http://www.w3.org/Graphics/SVG/1.1/DTD/svg11.dtd">
<!-- Generated by graphviz version 2.26.3 (20100126.1600)
 -->
<!-- Title: g Pages: 1 -->
<svg width="253pt" height="46pt"
 viewBox="0.00 0.00 253.00 46.00" xmlns="http://www.w3.org/2000/svg" xmlns:xlink="http://www.w3.org/1999/xlink">
<g id="graph1" class="graph" transform="scale(1 1) rotate(0) translate(4 42)">
<title>g</title>
<polygon fill="white" stroke="white" points="-4,5 -4,-42 250,-42 250,5 -4,5"/>
<!-- N123 -->
<g id="node1" class="node"><title>N123</title>
<polygon fill="#ffffff" stroke="#ffffff" stroke-width="1.5" points="11.5,-1 92.5,-1 104.5,-13 104.5,-25 92.5,-37 11.5,-37 -0.5,-25 -0.5,-13 11.5,-1"/>
<path fill="#ffffff" stroke="#ffffff" stroke-width="1.5" d="M92.5,-1C98.5,-1 104.5,-7 104.5,-13"/>
<path fill="#ffffff" stroke="#ffffff" stroke-width="1.5" d="M104.5,-25C104.5,-31 98.5,-37 92.5,-37"/>
<path fill="#ffffff" stroke="#ffffff" stroke-width="1.5" d="M11.5,-37C5.5,-37 -0.5,-31 -0.5,-25"/>
<path fill="#ffffff" stroke="#ffffff" stroke-width="1.5" d="M-0.5,-13C-0.5,-7 5.5,-1 11.5,-1"/>
<polyline fill="none" stroke="#2e3436" stroke-width="1.5" points="11.5,-1 92.5,-1 "/>
<path fill="none" stroke="#2e3436" stroke-width="1.5" d="M92.5,-1C98.5,-1 104.5,-7 104.5,-13"/>
<polyline fill="none" stroke="#2e3436" stroke-width="1.5" points="104.5,-13 104.5,-25 "/>
<path fill="none" stroke="#2e3436" stroke-width="1.5" d="M104.5,-25C104.5,-31 98.5,-37 92.5,-37"/>
<polyline fill="none" stroke="#2e3436" stroke-width="1.5" points="92.5,-37 11.5,-37 "/>
<path fill="none" stroke="#2e3436" stroke-width="1.5" d="M11.5,-37C5.5,-37 -0.5,-31 -0.5,-25"/>
<polyline fill="none" stroke="#2e3436" stroke-width="1.5" points="-0.5,-25 -0.5,-13 "/>
<path fill="none" stroke="#2e3436" stroke-width="1.5" d="M-0.5,-13C-0.5,-7 5.5,-1 11.5,-1"/>
<text text-anchor="start" x="7.5" y="-16.8" font-family="FreeSans" font-size="8.00" fill="#1c2021">Node[123]name = &#39;Juliet&#39;</text>
</g>
<!-- N124 -->
<g id="node2" class="node"><title>N124</title>
<polygon fill="#ffffff" stroke="#ffffff" stroke-width="1.5" points="144.5,-1 233.5,-1 245.5,-13 245.5,-25 233.5,-37 144.5,-37 132.5,-25 132.5,-13 144.5,-1"/>
<path fill="#ffffff" stroke="#ffffff" stroke-width="1.5" d="M233.5,-1C239.5,-1 245.5,-7 245.5,-13"/>
<path fill="#ffffff" stroke="#ffffff" stroke-width="1.5" d="M245.5,-25C245.5,-31 239.5,-37 233.5,-37"/>
<path fill="#ffffff" stroke="#ffffff" stroke-width="1.5" d="M144.5,-37C138.5,-37 132.5,-31 132.5,-25"/>
<path fill="#ffffff" stroke="#ffffff" stroke-width="1.5" d="M132.5,-13C132.5,-7 138.5,-1 144.5,-1"/>
<polyline fill="none" stroke="#2e3436" stroke-width="1.5" points="144.5,-1 233.5,-1 "/>
<path fill="none" stroke="#2e3436" stroke-width="1.5" d="M233.5,-1C239.5,-1 245.5,-7 245.5,-13"/>
<polyline fill="none" stroke="#2e3436" stroke-width="1.5" points="245.5,-13 245.5,-25 "/>
<path fill="none" stroke="#2e3436" stroke-width="1.5" d="M245.5,-25C245.5,-31 239.5,-37 233.5,-37"/>
<polyline fill="none" stroke="#2e3436" stroke-width="1.5" points="233.5,-37 144.5,-37 "/>
<path fill="none" stroke="#2e3436" stroke-width="1.5" d="M144.5,-37C138.5,-37 132.5,-31 132.5,-25"/>
<polyline fill="none" stroke="#2e3436" stroke-width="1.5" points="132.5,-25 132.5,-13 "/>
<path fill="none" stroke="#2e3436" stroke-width="1.5" d="M132.5,-13C132.5,-7 138.5,-1 144.5,-1"/>
<text text-anchor="start" x="140.5" y="-16.8" font-family="FreeSans" font-size="8.00" fill="#1c2021">Node[124]name = &#39;Romeo&#39;</text>
</g>
</g>
</svg>
