<?xml version="1.0" encoding="UTF-8" standalone="no"?>
<!DOCTYPE svg PUBLIC "-//W3C//DTD SVG 1.1//EN"
 "http://www.w3.org/Graphics/SVG/1.1/DTD/svg11.dtd">
<!-- Generated by graphviz version 2.26.3 (20100126.1600)
 -->
<!-- Title: g Pages: 1 -->
<svg width="221pt" height="56pt"
 viewBox="0.00 0.00 221.00 56.00" xmlns="http://www.w3.org/2000/svg" xmlns:xlink="http://www.w3.org/1999/xlink">
<g id="graph1" class="graph" transform="scale(1 1) rotate(0) translate(4 52)">
<title>g</title>
<polygon fill="white" stroke="white" points="-4,5 -4,-52 218,-52 218,5 -4,5"/>
<!-- N141 -->
<g id="node1" class="node"><title>N141</title>
<polygon fill="#ffffff" stroke="#ffffff" stroke-width="1.5" points="12,-1 80,-1 92,-13 92,-35 80,-47 12,-47 0,-35 0,-13 12,-1"/>
<path fill="#ffffff" stroke="#ffffff" stroke-width="1.5" d="M80,-1C86,-1 92,-7 92,-13"/>
<path fill="#ffffff" stroke="#ffffff" stroke-width="1.5" d="M92,-35C92,-41 86,-47 80,-47"/>
<path fill="#ffffff" stroke="#ffffff" stroke-width="1.5" d="M12,-47C6,-47 0,-41 0,-35"/>
<path fill="#ffffff" stroke="#ffffff" stroke-width="1.5" d="M0,-13C0,-7 6,-1 12,-1"/>
<polyline fill="none" stroke="#2e3436" stroke-width="1.5" points="12,-1 80,-1 "/>
<path fill="none" stroke="#2e3436" stroke-width="1.5" d="M80,-1C86,-1 92,-7 92,-13"/>
<polyline fill="none" stroke="#2e3436" stroke-width="1.5" points="92,-13 92,-35 "/>
<path fill="none" stroke="#2e3436" stroke-width="1.5" d="M92,-35C92,-41 86,-47 80,-47"/>
<polyline fill="none" stroke="#2e3436" stroke-width="1.5" points="80,-47 12,-47 "/>
<path fill="none" stroke="#2e3436" stroke-width="1.5" d="M12,-47C6,-47 0,-41 0,-35"/>
<polyline fill="none" stroke="#2e3436" stroke-width="1.5" points="0,-35 0,-13 "/>
<path fill="none" stroke="#2e3436" stroke-width="1.5" d="M0,-13C0,-7 6,-1 12,-1"/>
<text text-anchor="middle" x="46" y="-35.8" font-family="FreeSans" font-size="8.00" fill="#1c2021">Node[141]: Person</text>
<polyline fill="none" stroke="#2e3436" stroke-width="1.5" points="0,-29 92,-29 "/>
<text text-anchor="start" x="8" y="-17.8" font-family="FreeSans" font-size="8.00" fill="#1c2021">name = &#39;Andres&#39;</text>
<text text-anchor="start" x="8" y="-7.8" font-family="FreeSans" font-size="8.00" fill="#1c2021">position = &#39;Developer&#39;</text>
</g>
<!-- N142 -->
<g id="node2" class="node"><title>N142</title>
<polygon fill="#ffffff" stroke="#ffffff" stroke-width="1.5" points="133,-1 201,-1 213,-13 213,-35 201,-47 133,-47 121,-35 121,-13 133,-1"/>
<path fill="#ffffff" stroke="#ffffff" stroke-width="1.5" d="M201,-1C207,-1 213,-7 213,-13"/>
<path fill="#ffffff" stroke="#ffffff" stroke-width="1.5" d="M213,-35C213,-41 207,-47 201,-47"/>
<path fill="#ffffff" stroke="#ffffff" stroke-width="1.5" d="M133,-47C127,-47 121,-41 121,-35"/>
<path fill="#ffffff" stroke="#ffffff" stroke-width="1.5" d="M121,-13C121,-7 127,-1 133,-1"/>
<polyline fill="none" stroke="#2e3436" stroke-width="1.5" points="133,-1 201,-1 "/>
<path fill="none" stroke="#2e3436" stroke-width="1.5" d="M201,-1C207,-1 213,-7 213,-13"/>
<polyline fill="none" stroke="#2e3436" stroke-width="1.5" points="213,-13 213,-35 "/>
<path fill="none" stroke="#2e3436" stroke-width="1.5" d="M213,-35C213,-41 207,-47 201,-47"/>
<polyline fill="none" stroke="#2e3436" stroke-width="1.5" points="201,-47 133,-47 "/>
<path fill="none" stroke="#2e3436" stroke-width="1.5" d="M133,-47C127,-47 121,-41 121,-35"/>
<polyline fill="none" stroke="#2e3436" stroke-width="1.5" points="121,-35 121,-13 "/>
<path fill="none" stroke="#2e3436" stroke-width="1.5" d="M121,-13C121,-7 127,-1 133,-1"/>
<text text-anchor="middle" x="167" y="-35.8" font-family="FreeSans" font-size="8.00" fill="#1c2021">Node[142]: Person</text>
<polyline fill="none" stroke="#2e3436" stroke-width="1.5" points="121,-29 213,-29 "/>
<text text-anchor="start" x="129" y="-17.8" font-family="FreeSans" font-size="8.00" fill="#1c2021">name = &#39;Michael&#39;</text>
<text text-anchor="start" x="129" y="-7.8" font-family="FreeSans" font-size="8.00" fill="#1c2021">position = &#39;Developer&#39;</text>
</g>
</g>
</svg>
