<?xml version="1.0" encoding="UTF-8" standalone="no"?>
<!DOCTYPE svg PUBLIC "-//W3C//DTD SVG 1.1//EN"
 "http://www.w3.org/Graphics/SVG/1.1/DTD/svg11.dtd">
<!-- Generated by graphviz version 2.26.3 (20100126.1600)
 -->
<!-- Title: g Pages: 1 -->
<svg width="79pt" height="140pt"
 viewBox="0.00 0.00 79.00 140.00" xmlns="http://www.w3.org/2000/svg" xmlns:xlink="http://www.w3.org/1999/xlink">
<g id="graph1" class="graph" transform="scale(1 1) rotate(0) translate(4 136)">
<title>g</title>
<polygon fill="white" stroke="white" points="-4,5 -4,-136 76,-136 76,5 -4,5"/>
<!-- N8 -->
<g id="node1" class="node"><title>N8</title>
<polygon fill="#ffffff" stroke="#ffffff" stroke-width="1.5" points="12,-95 42,-95 54,-107 54,-119 42,-131 12,-131 0,-119 0,-107 12,-95"/>
<path fill="#ffffff" stroke="#ffffff" stroke-width="1.5" d="M42,-95C48,-95 54,-101 54,-107"/>
<path fill="#ffffff" stroke="#ffffff" stroke-width="1.5" d="M54,-119C54,-125 48,-131 42,-131"/>
<path fill="#ffffff" stroke="#ffffff" stroke-width="1.5" d="M12,-131C6,-131 0,-125 0,-119"/>
<path fill="#ffffff" stroke="#ffffff" stroke-width="1.5" d="M0,-107C0,-101 6,-95 12,-95"/>
<polyline fill="none" stroke="#2e3436" stroke-width="1.5" points="12,-95 42,-95 "/>
<path fill="none" stroke="#2e3436" stroke-width="1.5" d="M42,-95C48,-95 54,-101 54,-107"/>
<polyline fill="none" stroke="#2e3436" stroke-width="1.5" points="54,-107 54,-119 "/>
<path fill="none" stroke="#2e3436" stroke-width="1.5" d="M54,-119C54,-125 48,-131 42,-131"/>
<polyline fill="none" stroke="#2e3436" stroke-width="1.5" points="42,-131 12,-131 "/>
<path fill="none" stroke="#2e3436" stroke-width="1.5" d="M12,-131C6,-131 0,-125 0,-119"/>
<polyline fill="none" stroke="#2e3436" stroke-width="1.5" points="0,-119 0,-107 "/>
<path fill="none" stroke="#2e3436" stroke-width="1.5" d="M0,-107C0,-101 6,-95 12,-95"/>
<text text-anchor="middle" x="27" y="-110.8" font-family="FreeSans" font-size="8.00" fill="#1c2021">Node[8]</text>
</g>
<!-- N9 -->
<g id="node3" class="node"><title>N9</title>
<polygon fill="#ffffff" stroke="#ffffff" stroke-width="1.5" points="12,-1 42,-1 54,-13 54,-25 42,-37 12,-37 0,-25 0,-13 12,-1"/>
<path fill="#ffffff" stroke="#ffffff" stroke-width="1.5" d="M42,-1C48,-1 54,-7 54,-13"/>
<path fill="#ffffff" stroke="#ffffff" stroke-width="1.5" d="M54,-25C54,-31 48,-37 42,-37"/>
<path fill="#ffffff" stroke="#ffffff" stroke-width="1.5" d="M12,-37C6,-37 0,-31 0,-25"/>
<path fill="#ffffff" stroke="#ffffff" stroke-width="1.5" d="M0,-13C0,-7 6,-1 12,-1"/>
<polyline fill="none" stroke="#2e3436" stroke-width="1.5" points="12,-1 42,-1 "/>
<path fill="none" stroke="#2e3436" stroke-width="1.5" d="M42,-1C48,-1 54,-7 54,-13"/>
<polyline fill="none" stroke="#2e3436" stroke-width="1.5" points="54,-13 54,-25 "/>
<path fill="none" stroke="#2e3436" stroke-width="1.5" d="M54,-25C54,-31 48,-37 42,-37"/>
<polyline fill="none" stroke="#2e3436" stroke-width="1.5" points="42,-37 12,-37 "/>
<path fill="none" stroke="#2e3436" stroke-width="1.5" d="M12,-37C6,-37 0,-31 0,-25"/>
<polyline fill="none" stroke="#2e3436" stroke-width="1.5" points="0,-25 0,-13 "/>
<path fill="none" stroke="#2e3436" stroke-width="1.5" d="M0,-13C0,-7 6,-1 12,-1"/>
<text text-anchor="middle" x="27" y="-16.8" font-family="FreeSans" font-size="8.00" fill="#1c2021">Node[9]</text>
</g>
<!-- N8&#45;&gt;N9 -->
<g id="edge2" class="edge"><title>N8&#45;&gt;N9</title>
<path fill="none" stroke="#2e3436" stroke-width="2" d="M27,-94.8759C27,-80.7014 27,-60.806 27,-44.944"/>
<polygon fill="#2e3436" stroke="#2e3436" points="27,-37.0685 30.3751,-44.5685 27.5,-40.8185 27.5001,-44.5685 27.0001,-44.5685 26.5001,-44.5685 26.5,-40.8185 23.6251,-44.5685 27,-37.0685 27,-37.0685"/>
<text text-anchor="middle" x="49" y="-68.8" font-family="FreeSans" font-size="8.00" fill="#2e3436">KNOWS</text>
<text text-anchor="start" x="27" y="-58.8" font-family="FreeSans" font-size="8.00" fill="#2e3436">jim = &#39;tobias&#39;</text>
</g>
</g>
</svg>
