<?xml version="1.0" encoding="UTF-8" standalone="no"?>
<!DOCTYPE svg PUBLIC "-//W3C//DTD SVG 1.1//EN"
 "http://www.w3.org/Graphics/SVG/1.1/DTD/svg11.dtd">
<!-- Generated by graphviz version 2.26.3 (20100126.1600)
 -->
<!-- Title: g Pages: 1 -->
<svg width="108pt" height="140pt"
 viewBox="0.00 0.00 108.00 140.00" xmlns="http://www.w3.org/2000/svg" xmlns:xlink="http://www.w3.org/1999/xlink">
<g id="graph1" class="graph" transform="scale(1 1) rotate(0) translate(4 136)">
<title>g</title>
<polygon fill="white" stroke="white" points="-4,5 -4,-136 105,-136 105,5 -4,5"/>
<!-- N220 -->
<g id="node1" class="node"><title>N220</title>
<polygon fill="#ffffff" stroke="#ffffff" stroke-width="1.5" points="12,-95 88,-95 100,-107 100,-119 88,-131 12,-131 0,-119 0,-107 12,-95"/>
<path fill="#ffffff" stroke="#ffffff" stroke-width="1.5" d="M88,-95C94,-95 100,-101 100,-107"/>
<path fill="#ffffff" stroke="#ffffff" stroke-width="1.5" d="M100,-119C100,-125 94,-131 88,-131"/>
<path fill="#ffffff" stroke="#ffffff" stroke-width="1.5" d="M12,-131C6,-131 0,-125 0,-119"/>
<path fill="#ffffff" stroke="#ffffff" stroke-width="1.5" d="M0,-107C0,-101 6,-95 12,-95"/>
<polyline fill="none" stroke="#2e3436" stroke-width="1.5" points="12,-95 88,-95 "/>
<path fill="none" stroke="#2e3436" stroke-width="1.5" d="M88,-95C94,-95 100,-101 100,-107"/>
<polyline fill="none" stroke="#2e3436" stroke-width="1.5" points="100,-107 100,-119 "/>
<path fill="none" stroke="#2e3436" stroke-width="1.5" d="M100,-119C100,-125 94,-131 88,-131"/>
<polyline fill="none" stroke="#2e3436" stroke-width="1.5" points="88,-131 12,-131 "/>
<path fill="none" stroke="#2e3436" stroke-width="1.5" d="M12,-131C6,-131 0,-125 0,-119"/>
<polyline fill="none" stroke="#2e3436" stroke-width="1.5" points="0,-119 0,-107 "/>
<path fill="none" stroke="#2e3436" stroke-width="1.5" d="M0,-107C0,-101 6,-95 12,-95"/>
<text text-anchor="start" x="8" y="-110.8" font-family="FreeSans" font-size="8.00" fill="#1c2021">Node[220]name = &#39;bob&#39;</text>
</g>
<!-- N221 -->
<g id="node3" class="node"><title>N221</title>
<polygon fill="#ffffff" stroke="#ffffff" stroke-width="1.5" points="19,-1 81,-1 93,-13 93,-25 81,-37 19,-37 7,-25 7,-13 19,-1"/>
<path fill="#ffffff" stroke="#ffffff" stroke-width="1.5" d="M81,-1C87,-1 93,-7 93,-13"/>
<path fill="#ffffff" stroke="#ffffff" stroke-width="1.5" d="M93,-25C93,-31 87,-37 81,-37"/>
<path fill="#ffffff" stroke="#ffffff" stroke-width="1.5" d="M19,-37C13,-37 7,-31 7,-25"/>
<path fill="#ffffff" stroke="#ffffff" stroke-width="1.5" d="M7,-13C7,-7 13,-1 19,-1"/>
<polyline fill="none" stroke="#2e3436" stroke-width="1.5" points="19,-1 81,-1 "/>
<path fill="none" stroke="#2e3436" stroke-width="1.5" d="M81,-1C87,-1 93,-7 93,-13"/>
<polyline fill="none" stroke="#2e3436" stroke-width="1.5" points="93,-13 93,-25 "/>
<path fill="none" stroke="#2e3436" stroke-width="1.5" d="M93,-25C93,-31 87,-37 81,-37"/>
<polyline fill="none" stroke="#2e3436" stroke-width="1.5" points="81,-37 19,-37 "/>
<path fill="none" stroke="#2e3436" stroke-width="1.5" d="M19,-37C13,-37 7,-31 7,-25"/>
<polyline fill="none" stroke="#2e3436" stroke-width="1.5" points="7,-25 7,-13 "/>
<path fill="none" stroke="#2e3436" stroke-width="1.5" d="M7,-13C7,-7 13,-1 19,-1"/>
<text text-anchor="start" x="15" y="-16.8" font-family="FreeSans" font-size="8.00" fill="#1c2021">Node[221]age = 12</text>
</g>
<!-- N220&#45;&gt;N221 -->
<g id="edge2" class="edge"><title>N220&#45;&gt;N221</title>
<path fill="none" stroke="#2e3436" stroke-width="2" d="M50,-94.8759C50,-80.7014 50,-60.806 50,-44.944"/>
<polygon fill="#2e3436" stroke="#2e3436" points="50,-37.0685 53.3751,-44.5685 50.5,-40.8185 50.5001,-44.5685 50.0001,-44.5685 49.5001,-44.5685 49.5,-40.8185 46.6251,-44.5685 50,-37.0685 50,-37.0685"/>
<text text-anchor="middle" x="74.5" y="-68.8" font-family="FreeSans" font-size="8.00" fill="#2e3436">KNOWS</text>
<text text-anchor="start" x="50" y="-58.8" font-family="FreeSans" font-size="8.00" fill="#2e3436">since = &#39;2010&#39;</text>
</g>
</g>
</svg>
