<?xml version="1.0" encoding="UTF-8" standalone="no"?>
<!DOCTYPE svg PUBLIC "-//W3C//DTD SVG 1.1//EN"
 "http://www.w3.org/Graphics/SVG/1.1/DTD/svg11.dtd">
<!-- Generated by graphviz version 2.26.3 (20100126.1600)
 -->
<!-- Title: g Pages: 1 -->
<svg width="152pt" height="206pt"
 viewBox="0.00 0.00 152.00 206.00" xmlns="http://www.w3.org/2000/svg" xmlns:xlink="http://www.w3.org/1999/xlink">
<g id="graph1" class="graph" transform="scale(1 1) rotate(0) translate(4 202)">
<title>g</title>
<polygon fill="white" stroke="white" points="-4,5 -4,-202 149,-202 149,5 -4,5"/>
<!-- K -->
<g id="node1" class="node"><title>K</title>
<polygon fill="#a8e270" stroke="#a8e270" stroke-width="1.5" points="12,-89 42,-89 54,-101 54,-137 42,-149 12,-149 0,-137 0,-101 12,-89"/>
<path fill="#a8e270" stroke="#a8e270" stroke-width="1.5" d="M42,-89C48,-89 54,-95 54,-101"/>
<path fill="#a8e270" stroke="#a8e270" stroke-width="1.5" d="M54,-137C54,-143 48,-149 42,-149"/>
<path fill="#a8e270" stroke="#a8e270" stroke-width="1.5" d="M12,-149C6,-149 0,-143 0,-137"/>
<path fill="#a8e270" stroke="#a8e270" stroke-width="1.5" d="M0,-101C0,-95 6,-89 12,-89"/>
<polyline fill="none" stroke="#2e3436" stroke-width="1.5" points="12,-89 42,-89 "/>
<path fill="none" stroke="#2e3436" stroke-width="1.5" d="M42,-89C48,-89 54,-95 54,-101"/>
<polyline fill="none" stroke="#2e3436" stroke-width="1.5" points="54,-101 54,-137 "/>
<path fill="none" stroke="#2e3436" stroke-width="1.5" d="M54,-137C54,-143 48,-149 42,-149"/>
<polyline fill="none" stroke="#2e3436" stroke-width="1.5" points="42,-149 12,-149 "/>
<path fill="none" stroke="#2e3436" stroke-width="1.5" d="M12,-149C6,-149 0,-143 0,-137"/>
<polyline fill="none" stroke="#2e3436" stroke-width="1.5" points="0,-137 0,-101 "/>
<path fill="none" stroke="#2e3436" stroke-width="1.5" d="M0,-101C0,-95 6,-89 12,-89"/>
<text text-anchor="middle" x="27" y="-136" font-family="FreeSans" font-size="10.00" fill="#1c2021">K1</text>
<polyline fill="none" stroke="#2e3436" stroke-width="1.5" points="0,-129 54,-129 "/>
<text text-anchor="middle" x="27" y="-116" font-family="FreeSans" font-size="10.00" fill="#1c2021">K2</text>
<polyline fill="none" stroke="#2e3436" stroke-width="1.5" points="0,-109 54,-109 "/>
<text text-anchor="middle" x="27" y="-96" font-family="FreeSans" font-size="10.00" fill="#1c2021">K3</text>
</g>
<!-- V1 -->
<g id="node2" class="node"><title>V1</title>
<polygon fill="#fadcad" stroke="#fadcad" stroke-width="1.5" points="102,-158 132,-158 144,-170 144,-186 132,-198 102,-198 90,-186 90,-170 102,-158"/>
<path fill="#fadcad" stroke="#fadcad" stroke-width="1.5" d="M132,-158C138,-158 144,-164 144,-170"/>
<path fill="#fadcad" stroke="#fadcad" stroke-width="1.5" d="M144,-186C144,-192 138,-198 132,-198"/>
<path fill="#fadcad" stroke="#fadcad" stroke-width="1.5" d="M102,-198C96,-198 90,-192 90,-186"/>
<path fill="#fadcad" stroke="#fadcad" stroke-width="1.5" d="M90,-170C90,-164 96,-158 102,-158"/>
<polyline fill="none" stroke="#2e3436" stroke-width="1.5" points="102,-158 132,-158 "/>
<path fill="none" stroke="#2e3436" stroke-width="1.5" d="M132,-158C138,-158 144,-164 144,-170"/>
<polyline fill="none" stroke="#2e3436" stroke-width="1.5" points="144,-170 144,-186 "/>
<path fill="none" stroke="#2e3436" stroke-width="1.5" d="M144,-186C144,-192 138,-198 132,-198"/>
<polyline fill="none" stroke="#2e3436" stroke-width="1.5" points="132,-198 102,-198 "/>
<path fill="none" stroke="#2e3436" stroke-width="1.5" d="M102,-198C96,-198 90,-192 90,-186"/>
<polyline fill="none" stroke="#2e3436" stroke-width="1.5" points="90,-186 90,-170 "/>
<path fill="none" stroke="#2e3436" stroke-width="1.5" d="M90,-170C90,-164 96,-158 102,-158"/>
<text text-anchor="middle" x="117" y="-185" font-family="FreeSans" font-size="10.00" fill="#1c2021">V1</text>
<polyline fill="none" stroke="#2e3436" stroke-width="1.5" points="90,-178 144,-178 "/>
<text text-anchor="middle" x="117" y="-165" font-family="FreeSans" font-size="10.00" fill="#1c2021">K2</text>
</g>
<!-- K&#45;&gt;V1 -->
<g id="edge2" class="edge"><title>K:1&#45;&gt;V1:v</title>
<path fill="none" stroke="#2e3436" stroke-width="2" d="M54,-139C78.0678,-139 66.3851,-177.867 82.6325,-186.37"/>
<polygon fill="#2e3436" stroke="#2e3436" points="90,-188 81.9479,-189.675 86.2305,-187.678 82.5691,-186.868 82.6771,-186.379 82.7852,-185.891 86.4466,-186.702 83.4064,-183.084 90,-188 90,-188"/>
</g>
<!-- V2 -->
<g id="node3" class="node"><title>V2</title>
<polygon fill="#fadcad" stroke="#fadcad" stroke-width="1.5" points="102,-69 132,-69 144,-81 144,-117 132,-129 102,-129 90,-117 90,-81 102,-69"/>
<path fill="#fadcad" stroke="#fadcad" stroke-width="1.5" d="M132,-69C138,-69 144,-75 144,-81"/>
<path fill="#fadcad" stroke="#fadcad" stroke-width="1.5" d="M144,-117C144,-123 138,-129 132,-129"/>
<path fill="#fadcad" stroke="#fadcad" stroke-width="1.5" d="M102,-129C96,-129 90,-123 90,-117"/>
<path fill="#fadcad" stroke="#fadcad" stroke-width="1.5" d="M90,-81C90,-75 96,-69 102,-69"/>
<polyline fill="none" stroke="#2e3436" stroke-width="1.5" points="102,-69 132,-69 "/>
<path fill="none" stroke="#2e3436" stroke-width="1.5" d="M132,-69C138,-69 144,-75 144,-81"/>
<polyline fill="none" stroke="#2e3436" stroke-width="1.5" points="144,-81 144,-117 "/>
<path fill="none" stroke="#2e3436" stroke-width="1.5" d="M144,-117C144,-123 138,-129 132,-129"/>
<polyline fill="none" stroke="#2e3436" stroke-width="1.5" points="132,-129 102,-129 "/>
<path fill="none" stroke="#2e3436" stroke-width="1.5" d="M102,-129C96,-129 90,-123 90,-117"/>
<polyline fill="none" stroke="#2e3436" stroke-width="1.5" points="90,-117 90,-81 "/>
<path fill="none" stroke="#2e3436" stroke-width="1.5" d="M90,-81C90,-75 96,-69 102,-69"/>
<text text-anchor="middle" x="117" y="-116" font-family="FreeSans" font-size="10.00" fill="#1c2021">V2</text>
<polyline fill="none" stroke="#2e3436" stroke-width="1.5" points="90,-109 144,-109 "/>
<text text-anchor="middle" x="117" y="-96" font-family="FreeSans" font-size="10.00" fill="#1c2021">K1</text>
<polyline fill="none" stroke="#2e3436" stroke-width="1.5" points="90,-89 144,-89 "/>
<text text-anchor="middle" x="117" y="-76" font-family="FreeSans" font-size="10.00" fill="#1c2021">K3</text>
</g>
<!-- K&#45;&gt;V2 -->
<g id="edge4" class="edge"><title>K:2&#45;&gt;V2:v</title>
<path fill="none" stroke="#2e3436" stroke-width="2" d="M54,-119C67.125,-119 72.175,-119 82.3981,-119"/>
<polygon fill="#2e3436" stroke="#2e3436" points="90,-119 82.5,-122.375 86.25,-119.5 82.5,-119.5 82.5,-119 82.5,-118.5 86.25,-118.5 82.5,-115.625 90,-119 90,-119"/>
</g>
<!-- V3 -->
<g id="node4" class="node"><title>V3</title>
<polygon fill="#fadcad" stroke="#fadcad" stroke-width="1.5" points="102,-0 132,-0 144,-12 144,-28 132,-40 102,-40 90,-28 90,-12 102,-0"/>
<path fill="#fadcad" stroke="#fadcad" stroke-width="1.5" d="M132,-0C138,-0 144,-6 144,-12"/>
<path fill="#fadcad" stroke="#fadcad" stroke-width="1.5" d="M144,-28C144,-34 138,-40 132,-40"/>
<path fill="#fadcad" stroke="#fadcad" stroke-width="1.5" d="M102,-40C96,-40 90,-34 90,-28"/>
<path fill="#fadcad" stroke="#fadcad" stroke-width="1.5" d="M90,-12C90,-6 96,-0 102,-0"/>
<polyline fill="none" stroke="#2e3436" stroke-width="1.5" points="102,-0 132,-0 "/>
<path fill="none" stroke="#2e3436" stroke-width="1.5" d="M132,-0C138,-0 144,-6 144,-12"/>
<polyline fill="none" stroke="#2e3436" stroke-width="1.5" points="144,-12 144,-28 "/>
<path fill="none" stroke="#2e3436" stroke-width="1.5" d="M144,-28C144,-34 138,-40 132,-40"/>
<polyline fill="none" stroke="#2e3436" stroke-width="1.5" points="132,-40 102,-40 "/>
<path fill="none" stroke="#2e3436" stroke-width="1.5" d="M102,-40C96,-40 90,-34 90,-28"/>
<polyline fill="none" stroke="#2e3436" stroke-width="1.5" points="90,-28 90,-12 "/>
<path fill="none" stroke="#2e3436" stroke-width="1.5" d="M90,-12C90,-6 96,-0 102,-0"/>
<text text-anchor="middle" x="117" y="-27" font-family="FreeSans" font-size="10.00" fill="#1c2021">V3</text>
<polyline fill="none" stroke="#2e3436" stroke-width="1.5" points="90,-20 144,-20 "/>
<text text-anchor="middle" x="117" y="-7" font-family="FreeSans" font-size="10.00" fill="#1c2021">K1</text>
</g>
<!-- K&#45;&gt;V3 -->
<g id="edge6" class="edge"><title>K:3&#45;&gt;V3:v</title>
<path fill="none" stroke="#2e3436" stroke-width="2" d="M54,-99C85.6171,-99 60.6125,-41.3498 82.4978,-31.4412"/>
<polygon fill="#2e3436" stroke="#2e3436" points="90,-30 83.2714,-34.7294 86.4117,-31.1985 82.729,-31.906 82.6347,-31.415 82.5403,-30.9239 86.223,-30.2165 81.9979,-28.1006 90,-30 90,-30"/>
</g>
</g>
</svg>
