<?xml version="1.0" encoding="UTF-8" standalone="no"?>
<!DOCTYPE svg PUBLIC "-//W3C//DTD SVG 1.1//EN"
 "http://www.w3.org/Graphics/SVG/1.1/DTD/svg11.dtd">
<!-- Generated by graphviz version 2.26.3 (20100126.1600)
 -->
<!-- Title: g Pages: 1 -->
<svg width="149pt" height="298pt"
 viewBox="0.00 0.00 149.00 298.00" xmlns="http://www.w3.org/2000/svg" xmlns:xlink="http://www.w3.org/1999/xlink">
<g id="graph1" class="graph" transform="scale(1 1) rotate(0) translate(4 294)">
<title>g</title>
<polygon fill="white" stroke="white" points="-4,5 -4,-294 146,-294 146,5 -4,5"/>
<!-- / -->
<g id="node1" class="node"><title>/</title>
<polygon fill="#fcee7d" stroke="#fcee7d" stroke-width="1.5" points="83,-290 53,-290 41,-278 41,-266 53,-254 83,-254 95,-266 95,-278 83,-290"/>
<path fill="#fcee7d" stroke="#fcee7d" stroke-width="1.5" d="M53,-290C47,-290 41,-284 41,-278"/>
<path fill="#fcee7d" stroke="#fcee7d" stroke-width="1.5" d="M41,-266C41,-260 47,-254 53,-254"/>
<path fill="#fcee7d" stroke="#fcee7d" stroke-width="1.5" d="M83,-254C89,-254 95,-260 95,-266"/>
<path fill="#fcee7d" stroke="#fcee7d" stroke-width="1.5" d="M95,-278C95,-284 89,-290 83,-290"/>
<polyline fill="none" stroke="#2e3436" stroke-width="1.5" points="83,-290 53,-290 "/>
<path fill="none" stroke="#2e3436" stroke-width="1.5" d="M53,-290C47,-290 41,-284 41,-278"/>
<polyline fill="none" stroke="#2e3436" stroke-width="1.5" points="41,-278 41,-266 "/>
<path fill="none" stroke="#2e3436" stroke-width="1.5" d="M41,-266C41,-260 47,-254 53,-254"/>
<polyline fill="none" stroke="#2e3436" stroke-width="1.5" points="53,-254 83,-254 "/>
<path fill="none" stroke="#2e3436" stroke-width="1.5" d="M83,-254C89,-254 95,-260 95,-266"/>
<polyline fill="none" stroke="#2e3436" stroke-width="1.5" points="95,-266 95,-278 "/>
<path fill="none" stroke="#2e3436" stroke-width="1.5" d="M95,-278C95,-284 89,-290 83,-290"/>
<text text-anchor="middle" x="68" y="-269" font-family="FreeSans" font-size="10.00" fill="#1c2021">/</text>
</g>
<!-- A -->
<g id="node3" class="node"><title>A</title>
<polygon fill="#ffffff" stroke="#ffffff" stroke-width="1.5" points="83,-216 53,-216 41,-204 41,-192 53,-180 83,-180 95,-192 95,-204 83,-216"/>
<path fill="#ffffff" stroke="#ffffff" stroke-width="1.5" d="M53,-216C47,-216 41,-210 41,-204"/>
<path fill="#ffffff" stroke="#ffffff" stroke-width="1.5" d="M41,-192C41,-186 47,-180 53,-180"/>
<path fill="#ffffff" stroke="#ffffff" stroke-width="1.5" d="M83,-180C89,-180 95,-186 95,-192"/>
<path fill="#ffffff" stroke="#ffffff" stroke-width="1.5" d="M95,-204C95,-210 89,-216 83,-216"/>
<polyline fill="none" stroke="#2e3436" stroke-width="1.5" points="83,-216 53,-216 "/>
<path fill="none" stroke="#2e3436" stroke-width="1.5" d="M53,-216C47,-216 41,-210 41,-204"/>
<polyline fill="none" stroke="#2e3436" stroke-width="1.5" points="41,-204 41,-192 "/>
<path fill="none" stroke="#2e3436" stroke-width="1.5" d="M41,-192C41,-186 47,-180 53,-180"/>
<polyline fill="none" stroke="#2e3436" stroke-width="1.5" points="53,-180 83,-180 "/>
<path fill="none" stroke="#2e3436" stroke-width="1.5" d="M83,-180C89,-180 95,-186 95,-192"/>
<polyline fill="none" stroke="#2e3436" stroke-width="1.5" points="95,-192 95,-204 "/>
<path fill="none" stroke="#2e3436" stroke-width="1.5" d="M95,-204C95,-210 89,-216 83,-216"/>
<text text-anchor="middle" x="68" y="-195" font-family="FreeSans" font-size="10.00" fill="#1c2021">A</text>
</g>
<!-- /&#45;&gt;A -->
<g id="edge2" class="edge"><title>/&#45;&gt;A</title>
<path fill="none" stroke="#2e3436" stroke-width="2" d="M68,-253.708C68,-244.657 68,-233.579 68,-223.693"/>
<polygon fill="#2e3436" stroke="#2e3436" points="68,-216.082 71.3751,-223.582 68.5,-219.832 68.5001,-223.582 68.0001,-223.582 67.5001,-223.582 67.5,-219.832 64.6251,-223.582 68,-216.082 68,-216.082"/>
</g>
<!-- B -->
<g id="node5" class="node"><title>B</title>
<polygon fill="#ffffff" stroke="#ffffff" stroke-width="1.5" points="42,-132 12,-132 1.42109e-14,-120 7.10543e-15,-108 12,-96 42,-96 54,-108 54,-120 42,-132"/>
<path fill="#ffffff" stroke="#ffffff" stroke-width="1.5" d="M12,-132C6,-132 1.77636e-14,-126 1.42109e-14,-120"/>
<path fill="#ffffff" stroke="#ffffff" stroke-width="1.5" d="M7.10543e-15,-108C3.55271e-15,-102 6,-96 12,-96"/>
<path fill="#ffffff" stroke="#ffffff" stroke-width="1.5" d="M42,-96C48,-96 54,-102 54,-108"/>
<path fill="#ffffff" stroke="#ffffff" stroke-width="1.5" d="M54,-120C54,-126 48,-132 42,-132"/>
<polyline fill="none" stroke="#2e3436" stroke-width="1.5" points="42,-132 12,-132 "/>
<path fill="none" stroke="#2e3436" stroke-width="1.5" d="M12,-132C6,-132 1.77636e-14,-126 1.42109e-14,-120"/>
<polyline fill="none" stroke="#2e3436" stroke-width="1.5" points="1.42109e-14,-120 7.10543e-15,-108 "/>
<path fill="none" stroke="#2e3436" stroke-width="1.5" d="M7.10543e-15,-108C3.55271e-15,-102 6,-96 12,-96"/>
<polyline fill="none" stroke="#2e3436" stroke-width="1.5" points="12,-96 42,-96 "/>
<path fill="none" stroke="#2e3436" stroke-width="1.5" d="M42,-96C48,-96 54,-102 54,-108"/>
<polyline fill="none" stroke="#2e3436" stroke-width="1.5" points="54,-108 54,-120 "/>
<path fill="none" stroke="#2e3436" stroke-width="1.5" d="M54,-120C54,-126 48,-132 42,-132"/>
<text text-anchor="middle" x="27" y="-111" font-family="FreeSans" font-size="10.00" fill="#1c2021">B</text>
</g>
<!-- A&#45;&gt;B -->
<g id="edge4" class="edge"><title>A&#45;&gt;B</title>
<path fill="none" stroke="#2e3436" stroke-width="2" d="M59.1036,-179.773C53.3011,-167.885 45.6492,-152.208 39.2714,-139.141"/>
<polygon fill="#2e3436" stroke="#2e3436" points="35.879,-132.191 42.2018,-137.451 37.9733,-135.342 39.6182,-138.712 39.1688,-138.931 38.7195,-139.151 37.0746,-135.78 36.1358,-140.412 35.879,-132.191 35.879,-132.191"/>
<text text-anchor="middle" x="56.5" y="-153" font-family="FreeSans" font-size="10.00" fill="#1c2021">file</text>
</g>
<!-- C -->
<g id="node7" class="node"><title>C</title>
<polygon fill="#ffffff" stroke="#ffffff" stroke-width="1.5" points="129,-132 99,-132 87,-120 87,-108 99,-96 129,-96 141,-108 141,-120 129,-132"/>
<path fill="#ffffff" stroke="#ffffff" stroke-width="1.5" d="M99,-132C93,-132 87,-126 87,-120"/>
<path fill="#ffffff" stroke="#ffffff" stroke-width="1.5" d="M87,-108C87,-102 93,-96 99,-96"/>
<path fill="#ffffff" stroke="#ffffff" stroke-width="1.5" d="M129,-96C135,-96 141,-102 141,-108"/>
<path fill="#ffffff" stroke="#ffffff" stroke-width="1.5" d="M141,-120C141,-126 135,-132 129,-132"/>
<polyline fill="none" stroke="#2e3436" stroke-width="1.5" points="129,-132 99,-132 "/>
<path fill="none" stroke="#2e3436" stroke-width="1.5" d="M99,-132C93,-132 87,-126 87,-120"/>
<polyline fill="none" stroke="#2e3436" stroke-width="1.5" points="87,-120 87,-108 "/>
<path fill="none" stroke="#2e3436" stroke-width="1.5" d="M87,-108C87,-102 93,-96 99,-96"/>
<polyline fill="none" stroke="#2e3436" stroke-width="1.5" points="99,-96 129,-96 "/>
<path fill="none" stroke="#2e3436" stroke-width="1.5" d="M129,-96C135,-96 141,-102 141,-108"/>
<polyline fill="none" stroke="#2e3436" stroke-width="1.5" points="141,-108 141,-120 "/>
<path fill="none" stroke="#2e3436" stroke-width="1.5" d="M141,-120C141,-126 135,-132 129,-132"/>
<text text-anchor="middle" x="114" y="-111" font-family="FreeSans" font-size="10.00" fill="#1c2021">C</text>
</g>
<!-- A&#45;&gt;C -->
<g id="edge6" class="edge"><title>A&#45;&gt;C</title>
<path fill="none" stroke="#2e3436" stroke-width="2" d="M77.9813,-179.773C84.5518,-167.775 93.2357,-151.917 100.431,-138.779"/>
<polygon fill="#2e3436" stroke="#2e3436" points="104.038,-132.191 103.396,-140.39 102.676,-135.72 100.874,-139.01 100.436,-138.769 99.9972,-138.529 101.798,-135.24 97.4755,-137.148 104.038,-132.191 104.038,-132.191"/>
<text text-anchor="middle" x="99.5" y="-153" font-family="FreeSans" font-size="10.00" fill="#1c2021">file</text>
</g>
<!-- D -->
<g id="node9" class="node"><title>D</title>
<polygon fill="#ffffff" stroke="#ffffff" stroke-width="1.5" points="86,-36 56,-36 44,-24 44,-12 56,-1.46056e-14 86,-6.71068e-15 98,-12 98,-24 86,-36"/>
<path fill="#ffffff" stroke="#ffffff" stroke-width="1.5" d="M56,-36C50,-36 44,-30 44,-24"/>
<path fill="#ffffff" stroke="#ffffff" stroke-width="1.5" d="M44,-12C44,-6 50,-1.61846e-14 56,-1.46056e-14"/>
<path fill="#ffffff" stroke="#ffffff" stroke-width="1.5" d="M86,-6.71068e-15C92,-5.1317e-15 98,-6 98,-12"/>
<path fill="#ffffff" stroke="#ffffff" stroke-width="1.5" d="M98,-24C98,-30 92,-36 86,-36"/>
<polyline fill="none" stroke="#2e3436" stroke-width="1.5" points="86,-36 56,-36 "/>
<path fill="none" stroke="#2e3436" stroke-width="1.5" d="M56,-36C50,-36 44,-30 44,-24"/>
<polyline fill="none" stroke="#2e3436" stroke-width="1.5" points="44,-24 44,-12 "/>
<path fill="none" stroke="#2e3436" stroke-width="1.5" d="M44,-12C44,-6 50,-1.61846e-14 56,-1.46056e-14"/>
<polyline fill="none" stroke="#2e3436" stroke-width="1.5" points="56,-1.46056e-14 86,-6.71068e-15 "/>
<path fill="none" stroke="#2e3436" stroke-width="1.5" d="M86,-6.71068e-15C92,-5.1317e-15 98,-6 98,-12"/>
<polyline fill="none" stroke="#2e3436" stroke-width="1.5" points="98,-12 98,-24 "/>
<path fill="none" stroke="#2e3436" stroke-width="1.5" d="M98,-24C98,-30 92,-36 86,-36"/>
<text text-anchor="middle" x="71" y="-15" font-family="FreeSans" font-size="10.00" fill="#1c2021">D</text>
</g>
<!-- B&#45;&gt;D -->
<g id="edge10" class="edge"><title>B&#45;&gt;D</title>
<path fill="none" stroke="#a40000" stroke-width="2" d="M20.7097,-95.9809C17.4762,-83.5381 15.4382,-66.9632 22,-54 25.5755,-46.9363 31.2617,-40.9216 37.5149,-35.9475"/>
<polygon fill="#a40000" stroke="#a40000" points="43.9001,-31.32 39.8078,-38.454 41.157,-33.9255 38.1206,-36.1261 37.8272,-35.7213 37.5338,-35.3164 40.5702,-33.1158 35.8466,-32.9885 43.9001,-31.32 43.9001,-31.32"/>
<text text-anchor="middle" x="51" y="-69" font-family="FreeSans" font-size="10.00" fill="#a40000">symbolic link </text>
<text text-anchor="middle" x="51" y="-57" font-family="FreeSans" font-size="10.00" fill="#a40000">{name: &quot;E&quot;}</text>
</g>
<!-- C&#45;&gt;D -->
<g id="edge8" class="edge"><title>C&#45;&gt;D</title>
<path fill="none" stroke="#2e3436" stroke-width="2" d="M105.912,-95.9431C99.2875,-81.1536 89.8346,-60.0494 82.4355,-43.5303"/>
<polygon fill="#2e3436" stroke="#2e3436" points="79.1979,-36.3023 85.344,-41.7674 81.1872,-39.5203 82.7201,-42.9426 82.2638,-43.147 81.8075,-43.3514 80.2746,-39.9291 79.1837,-44.5267 79.1979,-36.3023 79.1979,-36.3023"/>
<text text-anchor="middle" x="103.5" y="-63" font-family="FreeSans" font-size="10.00" fill="#1c2021">file</text>
</g>
</g>
</svg>
