<?xml version="1.0" encoding="UTF-8" standalone="no"?>
<!DOCTYPE svg PUBLIC "-//W3C//DTD SVG 1.1//EN"
 "http://www.w3.org/Graphics/SVG/1.1/DTD/svg11.dtd">
<!-- Generated by graphviz version 2.26.3 (20100126.1600)
 -->
<!-- Title: g Pages: 1 -->
<svg width="80pt" height="44pt"
 viewBox="0.00 0.00 80.00 44.00" xmlns="http://www.w3.org/2000/svg" xmlns:xlink="http://www.w3.org/1999/xlink">
<g id="graph1" class="graph" transform="scale(1 1) rotate(0) translate(4 40)">
<title>g</title>
<polygon fill="white" stroke="white" points="-4,5 -4,-40 77,-40 77,5 -4,5"/>
<!-- name: Marko -->
<g id="node1" class="node"><title>name: Marko</title>
<polygon fill="#ffffff" stroke="#ffffff" stroke-width="1.5" points="60,-36 12,-36 1.89478e-14,-24 9.4739e-15,-12 12,-1.53951e-14 60,-5.92119e-15 72,-12 72,-24 60,-36"/>
<path fill="#ffffff" stroke="#ffffff" stroke-width="1.5" d="M12,-36C6,-36 2.36848e-14,-30 1.89478e-14,-24"/>
<path fill="#ffffff" stroke="#ffffff" stroke-width="1.5" d="M9.4739e-15,-12C4.73695e-15,-6 6,-1.65793e-14 12,-1.53951e-14"/>
<path fill="#ffffff" stroke="#ffffff" stroke-width="1.5" d="M60,-5.92119e-15C66,-4.73695e-15 72,-6 72,-12"/>
<path fill="#ffffff" stroke="#ffffff" stroke-width="1.5" d="M72,-24C72,-30 66,-36 60,-36"/>
<polyline fill="none" stroke="#2e3436" stroke-width="1.5" points="60,-36 12,-36 "/>
<path fill="none" stroke="#2e3436" stroke-width="1.5" d="M12,-36C6,-36 2.36848e-14,-30 1.89478e-14,-24"/>
<polyline fill="none" stroke="#2e3436" stroke-width="1.5" points="1.89478e-14,-24 9.4739e-15,-12 "/>
<path fill="none" stroke="#2e3436" stroke-width="1.5" d="M9.4739e-15,-12C4.73695e-15,-6 6,-1.65793e-14 12,-1.53951e-14"/>
<polyline fill="none" stroke="#2e3436" stroke-width="1.5" points="12,-1.53951e-14 60,-5.92119e-15 "/>
<path fill="none" stroke="#2e3436" stroke-width="1.5" d="M60,-5.92119e-15C66,-4.73695e-15 72,-6 72,-12"/>
<polyline fill="none" stroke="#2e3436" stroke-width="1.5" points="72,-12 72,-24 "/>
<path fill="none" stroke="#2e3436" stroke-width="1.5" d="M72,-24C72,-30 66,-36 60,-36"/>
<text text-anchor="middle" x="36" y="-15" font-family="FreeSans" font-size="10.00" fill="#1c2021">name: Marko</text>
</g>
</g>
</svg>
