<?xml version="1.0" encoding="UTF-8" standalone="no"?>
<!DOCTYPE svg PUBLIC "-//W3C//DTD SVG 1.1//EN"
 "http://www.w3.org/Graphics/SVG/1.1/DTD/svg11.dtd">
<!-- Generated by graphviz version 2.26.3 (20100126.1600)
 -->
<!-- Title: g Pages: 1 -->
<svg width="504pt" height="249pt"
 viewBox="0.00 0.00 504.00 249.49" xmlns="http://www.w3.org/2000/svg" xmlns:xlink="http://www.w3.org/1999/xlink">
<g id="graph1" class="graph" transform="scale(0.716927 0.716927) rotate(0) translate(4 344)">
<title>g</title>
<polygon fill="white" stroke="white" points="-4,5 -4,-344 700,-344 700,5 -4,5"/>
<!-- Traversal Description -->
<g id="node1" class="node"><title>Traversal Description</title>
<polygon fill="#a8e270" stroke="#a8e270" stroke-width="1.5" points="402,-204 320,-204 308,-192 308,-180 320,-168 402,-168 414,-180 414,-192 402,-204"/>
<path fill="#a8e270" stroke="#a8e270" stroke-width="1.5" d="M320,-204C314,-204 308,-198 308,-192"/>
<path fill="#a8e270" stroke="#a8e270" stroke-width="1.5" d="M308,-180C308,-174 314,-168 320,-168"/>
<path fill="#a8e270" stroke="#a8e270" stroke-width="1.5" d="M402,-168C408,-168 414,-174 414,-180"/>
<path fill="#a8e270" stroke="#a8e270" stroke-width="1.5" d="M414,-192C414,-198 408,-204 402,-204"/>
<polyline fill="none" stroke="#2e3436" stroke-width="1.5" points="402,-204 320,-204 "/>
<path fill="none" stroke="#2e3436" stroke-width="1.5" d="M320,-204C314,-204 308,-198 308,-192"/>
<polyline fill="none" stroke="#2e3436" stroke-width="1.5" points="308,-192 308,-180 "/>
<path fill="none" stroke="#2e3436" stroke-width="1.5" d="M308,-180C308,-174 314,-168 320,-168"/>
<polyline fill="none" stroke="#2e3436" stroke-width="1.5" points="320,-168 402,-168 "/>
<path fill="none" stroke="#2e3436" stroke-width="1.5" d="M402,-168C408,-168 414,-174 414,-180"/>
<polyline fill="none" stroke="#2e3436" stroke-width="1.5" points="414,-180 414,-192 "/>
<path fill="none" stroke="#2e3436" stroke-width="1.5" d="M414,-192C414,-198 408,-204 402,-204"/>
<text text-anchor="middle" x="361" y="-183" font-family="FreeSans" font-size="10.00" fill="#1c2021">Traversal Description</text>
</g>
<!-- Traverser -->
<g id="node30" class="node"><title>Traverser</title>
<polygon fill="#95bbe3" stroke="#95bbe3" stroke-width="1.5" points="377,-120 345,-120 333,-108 333,-96 345,-84 377,-84 389,-96 389,-108 377,-120"/>
<path fill="#95bbe3" stroke="#95bbe3" stroke-width="1.5" d="M345,-120C339,-120 333,-114 333,-108"/>
<path fill="#95bbe3" stroke="#95bbe3" stroke-width="1.5" d="M333,-96C333,-90 339,-84 345,-84"/>
<path fill="#95bbe3" stroke="#95bbe3" stroke-width="1.5" d="M377,-84C383,-84 389,-90 389,-96"/>
<path fill="#95bbe3" stroke="#95bbe3" stroke-width="1.5" d="M389,-108C389,-114 383,-120 377,-120"/>
<polyline fill="none" stroke="#2e3436" stroke-width="1.5" points="377,-120 345,-120 "/>
<path fill="none" stroke="#2e3436" stroke-width="1.5" d="M345,-120C339,-120 333,-114 333,-108"/>
<polyline fill="none" stroke="#2e3436" stroke-width="1.5" points="333,-108 333,-96 "/>
<path fill="none" stroke="#2e3436" stroke-width="1.5" d="M333,-96C333,-90 339,-84 345,-84"/>
<polyline fill="none" stroke="#2e3436" stroke-width="1.5" points="345,-84 377,-84 "/>
<path fill="none" stroke="#2e3436" stroke-width="1.5" d="M377,-84C383,-84 389,-90 389,-96"/>
<polyline fill="none" stroke="#2e3436" stroke-width="1.5" points="389,-96 389,-108 "/>
<path fill="none" stroke="#2e3436" stroke-width="1.5" d="M389,-108C389,-114 383,-120 377,-120"/>
<text text-anchor="middle" x="361" y="-99" font-family="FreeSans" font-size="10.00" fill="#1c2021">Traverser</text>
</g>
<!-- Traversal Description&#45;&gt;Traverser -->
<g id="edge30" class="edge"><title>Traversal Description&#45;&gt;Traverser</title>
<path fill="none" stroke="#2e3436" stroke-width="2" d="M361,-160.091C361,-147.168 361,-131.852 361,-120.191"/>
<polygon fill="#2e3436" stroke="#2e3436" points="361,-167.773 357.625,-160.273 360.5,-164.023 360.5,-160.273 361,-160.273 361.5,-160.273 361.5,-164.023 364.375,-160.273 361,-167.773 361,-167.773"/>
<text text-anchor="middle" x="376.5" y="-141" font-family="FreeSans" font-size="10.00" fill="#1c2021">applies</text>
</g>
<!-- Uniqueness -->
<g id="node2" class="node"><title>Uniqueness</title>
<polygon fill="#fadcad" stroke="#fadcad" stroke-width="1.5" points="432,-288 390,-288 378,-276 378,-264 390,-252 432,-252 444,-264 444,-276 432,-288"/>
<path fill="#fadcad" stroke="#fadcad" stroke-width="1.5" d="M390,-288C384,-288 378,-282 378,-276"/>
<path fill="#fadcad" stroke="#fadcad" stroke-width="1.5" d="M378,-264C378,-258 384,-252 390,-252"/>
<path fill="#fadcad" stroke="#fadcad" stroke-width="1.5" d="M432,-252C438,-252 444,-258 444,-264"/>
<path fill="#fadcad" stroke="#fadcad" stroke-width="1.5" d="M444,-276C444,-282 438,-288 432,-288"/>
<polyline fill="none" stroke="#2e3436" stroke-width="1.5" points="432,-288 390,-288 "/>
<path fill="none" stroke="#2e3436" stroke-width="1.5" d="M390,-288C384,-288 378,-282 378,-276"/>
<polyline fill="none" stroke="#2e3436" stroke-width="1.5" points="378,-276 378,-264 "/>
<path fill="none" stroke="#2e3436" stroke-width="1.5" d="M378,-264C378,-258 384,-252 390,-252"/>
<polyline fill="none" stroke="#2e3436" stroke-width="1.5" points="390,-252 432,-252 "/>
<path fill="none" stroke="#2e3436" stroke-width="1.5" d="M432,-252C438,-252 444,-258 444,-264"/>
<polyline fill="none" stroke="#2e3436" stroke-width="1.5" points="444,-264 444,-276 "/>
<path fill="none" stroke="#2e3436" stroke-width="1.5" d="M444,-276C444,-282 438,-288 432,-288"/>
<text text-anchor="middle" x="411" y="-267" font-family="FreeSans" font-size="10.00" fill="#1c2021">Uniqueness</text>
</g>
<!-- Uniqueness&#45;&gt;Traversal Description -->
<g id="edge2" class="edge"><title>Uniqueness&#45;&gt;Traversal Description</title>
<path fill="none" stroke="#2e3436" stroke-width="2" d="M400.151,-251.773C393.009,-239.775 383.57,-223.917 375.749,-210.779"/>
<polygon fill="#2e3436" stroke="#2e3436" points="371.828,-204.191 378.564,-208.91 374.176,-207.158 376.094,-210.38 375.664,-210.636 375.235,-210.892 373.317,-207.669 372.764,-212.362 371.828,-204.191 371.828,-204.191"/>
<text text-anchor="middle" x="423.5" y="-225" font-family="FreeSans" font-size="10.00" fill="#1c2021">avoid duplicates</text>
</g>
<!-- Evaluator -->
<g id="node4" class="node"><title>Evaluator</title>
<polygon fill="#fadcad" stroke="#fadcad" stroke-width="1.5" points="226,-288 194,-288 182,-276 182,-264 194,-252 226,-252 238,-264 238,-276 226,-288"/>
<path fill="#fadcad" stroke="#fadcad" stroke-width="1.5" d="M194,-288C188,-288 182,-282 182,-276"/>
<path fill="#fadcad" stroke="#fadcad" stroke-width="1.5" d="M182,-264C182,-258 188,-252 194,-252"/>
<path fill="#fadcad" stroke="#fadcad" stroke-width="1.5" d="M226,-252C232,-252 238,-258 238,-264"/>
<path fill="#fadcad" stroke="#fadcad" stroke-width="1.5" d="M238,-276C238,-282 232,-288 226,-288"/>
<polyline fill="none" stroke="#2e3436" stroke-width="1.5" points="226,-288 194,-288 "/>
<path fill="none" stroke="#2e3436" stroke-width="1.5" d="M194,-288C188,-288 182,-282 182,-276"/>
<polyline fill="none" stroke="#2e3436" stroke-width="1.5" points="182,-276 182,-264 "/>
<path fill="none" stroke="#2e3436" stroke-width="1.5" d="M182,-264C182,-258 188,-252 194,-252"/>
<polyline fill="none" stroke="#2e3436" stroke-width="1.5" points="194,-252 226,-252 "/>
<path fill="none" stroke="#2e3436" stroke-width="1.5" d="M226,-252C232,-252 238,-258 238,-264"/>
<polyline fill="none" stroke="#2e3436" stroke-width="1.5" points="238,-264 238,-276 "/>
<path fill="none" stroke="#2e3436" stroke-width="1.5" d="M238,-276C238,-282 232,-288 226,-288"/>
<text text-anchor="middle" x="210" y="-267" font-family="FreeSans" font-size="10.00" fill="#1c2021">Evaluator</text>
</g>
<!-- Evaluator&#45;&gt;Traversal Description -->
<g id="edge4" class="edge"><title>Evaluator&#45;&gt;Traversal Description</title>
<path fill="none" stroke="#2e3436" stroke-width="2" d="M233.918,-251.986C247.128,-242.455 264.05,-230.914 280,-222 289.188,-216.865 299.249,-211.904 309.06,-207.39"/>
<polygon fill="#2e3436" stroke="#2e3436" points="316.143,-204.187 310.7,-210.353 312.932,-206.188 309.516,-207.733 309.31,-207.277 309.104,-206.822 312.52,-205.277 307.919,-204.202 316.143,-204.187 316.143,-204.187"/>
<text text-anchor="middle" x="328.5" y="-225" font-family="FreeSans" font-size="10.00" fill="#1c2021">return and prune policy</text>
</g>
<!-- Prune/Continue -->
<g id="node19" class="node"><title>Prune/Continue</title>
<text text-anchor="middle" x="210" y="-183" font-family="FreeSans" font-size="10.00" fill="#1c2021">Prune/Continue</text>
</g>
<!-- Evaluator&#45;&gt;Prune/Continue -->
<g id="edge28" class="edge"><title>Evaluator&#45;&gt;Prune/Continue</title>
<path fill="none" stroke="#2e3436" stroke-width="2" d="M210,-251.773C210,-236.589 210,-215.223 210,-201.011"/>
<polygon fill="#2e3436" stroke="#2e3436" points="210,-193.205 213.375,-200.705 210.5,-196.955 210.5,-200.705 210,-200.705 209.5,-200.705 209.5,-196.955 206.625,-200.705 210,-193.205 210,-193.205"/>
</g>
<!-- Order -->
<g id="node6" class="node"><title>Order</title>
<polygon fill="#fadcad" stroke="#fadcad" stroke-width="1.5" points="125,-288 95,-288 83,-276 83,-264 95,-252 125,-252 137,-264 137,-276 125,-288"/>
<path fill="#fadcad" stroke="#fadcad" stroke-width="1.5" d="M95,-288C89,-288 83,-282 83,-276"/>
<path fill="#fadcad" stroke="#fadcad" stroke-width="1.5" d="M83,-264C83,-258 89,-252 95,-252"/>
<path fill="#fadcad" stroke="#fadcad" stroke-width="1.5" d="M125,-252C131,-252 137,-258 137,-264"/>
<path fill="#fadcad" stroke="#fadcad" stroke-width="1.5" d="M137,-276C137,-282 131,-288 125,-288"/>
<polyline fill="none" stroke="#2e3436" stroke-width="1.5" points="125,-288 95,-288 "/>
<path fill="none" stroke="#2e3436" stroke-width="1.5" d="M95,-288C89,-288 83,-282 83,-276"/>
<polyline fill="none" stroke="#2e3436" stroke-width="1.5" points="83,-276 83,-264 "/>
<path fill="none" stroke="#2e3436" stroke-width="1.5" d="M83,-264C83,-258 89,-252 95,-252"/>
<polyline fill="none" stroke="#2e3436" stroke-width="1.5" points="95,-252 125,-252 "/>
<path fill="none" stroke="#2e3436" stroke-width="1.5" d="M125,-252C131,-252 137,-258 137,-264"/>
<polyline fill="none" stroke="#2e3436" stroke-width="1.5" points="137,-264 137,-276 "/>
<path fill="none" stroke="#2e3436" stroke-width="1.5" d="M137,-276C137,-282 131,-288 125,-288"/>
<text text-anchor="middle" x="110" y="-267" font-family="FreeSans" font-size="10.00" fill="#1c2021">Order</text>
</g>
<!-- Order&#45;&gt;Traversal Description -->
<g id="edge6" class="edge"><title>Order&#45;&gt;Traversal Description</title>
<path fill="none" stroke="#2e3436" stroke-width="2" d="M133.769,-251.837C148.176,-241.654 167.328,-229.525 186,-222 206.491,-213.742 258.361,-203.528 300.346,-196.091"/>
<polygon fill="#2e3436" stroke="#2e3436" points="307.792,-194.783 300.99,-199.405 304.186,-195.924 300.492,-196.573 300.406,-196.081 300.319,-195.588 304.012,-194.939 299.822,-192.757 307.792,-194.783 307.792,-194.783"/>
<text text-anchor="middle" x="221" y="-225" font-family="FreeSans" font-size="10.00" fill="#1c2021">where to go next</text>
</g>
<!-- Expander -->
<g id="node8" class="node"><title>Expander</title>
<polygon fill="#fadcad" stroke="#fadcad" stroke-width="1.5" points="664,-288 632,-288 620,-276 620,-264 632,-252 664,-252 676,-264 676,-276 664,-288"/>
<path fill="#fadcad" stroke="#fadcad" stroke-width="1.5" d="M632,-288C626,-288 620,-282 620,-276"/>
<path fill="#fadcad" stroke="#fadcad" stroke-width="1.5" d="M620,-264C620,-258 626,-252 632,-252"/>
<path fill="#fadcad" stroke="#fadcad" stroke-width="1.5" d="M664,-252C670,-252 676,-258 676,-264"/>
<path fill="#fadcad" stroke="#fadcad" stroke-width="1.5" d="M676,-276C676,-282 670,-288 664,-288"/>
<polyline fill="none" stroke="#2e3436" stroke-width="1.5" points="664,-288 632,-288 "/>
<path fill="none" stroke="#2e3436" stroke-width="1.5" d="M632,-288C626,-288 620,-282 620,-276"/>
<polyline fill="none" stroke="#2e3436" stroke-width="1.5" points="620,-276 620,-264 "/>
<path fill="none" stroke="#2e3436" stroke-width="1.5" d="M620,-264C620,-258 626,-252 632,-252"/>
<polyline fill="none" stroke="#2e3436" stroke-width="1.5" points="632,-252 664,-252 "/>
<path fill="none" stroke="#2e3436" stroke-width="1.5" d="M664,-252C670,-252 676,-258 676,-264"/>
<polyline fill="none" stroke="#2e3436" stroke-width="1.5" points="676,-264 676,-276 "/>
<path fill="none" stroke="#2e3436" stroke-width="1.5" d="M676,-276C676,-282 670,-288 664,-288"/>
<text text-anchor="middle" x="648" y="-267" font-family="FreeSans" font-size="10.00" fill="#1c2021">Expander</text>
</g>
<!-- Expander&#45;&gt;Traversal Description -->
<g id="edge8" class="edge"><title>Expander&#45;&gt;Traversal Description</title>
<path fill="none" stroke="#2e3436" stroke-width="2" d="M619.959,-261.793C574.214,-248.404 482.519,-221.566 421.44,-203.69"/>
<polygon fill="#2e3436" stroke="#2e3436" points="414.148,-201.556 422.294,-200.423 417.888,-202.129 421.487,-203.182 421.346,-203.662 421.206,-204.142 417.607,-203.089 420.398,-206.901 414.148,-201.556 414.148,-201.556"/>
<text text-anchor="middle" x="555.5" y="-225" font-family="FreeSans" font-size="10.00" fill="#1c2021">what to traverse</text>
</g>
<!-- Relationship Type -->
<g id="node12" class="node"><title>Relationship Type</title>
<text text-anchor="middle" x="648" y="-183" font-family="FreeSans" font-size="10.00" fill="#1c2021">Relationship Type</text>
</g>
<!-- Expander&#45;&gt;Relationship Type -->
<g id="edge14" class="edge"><title>Expander&#45;&gt;Relationship Type</title>
<path fill="none" stroke="#2e3436" stroke-width="2" d="M648,-251.773C648,-236.589 648,-215.223 648,-201.011"/>
<polygon fill="#2e3436" stroke="#2e3436" points="648,-193.205 651.375,-200.705 648.5,-196.955 648.5,-200.705 648,-200.705 647.5,-200.705 647.5,-196.955 644.625,-200.705 648,-193.205 648,-193.205"/>
</g>
<!-- Depth First -->
<g id="node10" class="node"><title>Depth First</title>
<text text-anchor="middle" x="27" y="-330" font-family="FreeSans" font-size="10.00" fill="#1c2021">Depth First</text>
</g>
<!-- Depth First&#45;&gt;Order -->
<g id="edge10" class="edge"><title>Depth First&#45;&gt;Order</title>
<path fill="none" stroke="#2e3436" stroke-width="2" d="M42.7616,-321.036C55.0022,-311.745 72.1793,-298.707 86.1078,-288.135"/>
<polygon fill="#2e3436" stroke="#2e3436" points="36.5212,-325.773 40.4546,-318.55 39.2059,-323.108 42.1929,-320.84 42.4952,-321.239 42.7975,-321.637 39.8105,-323.904 44.5357,-323.927 36.5212,-325.773 36.5212,-325.773"/>
</g>
<!-- Breadth First -->
<g id="node11" class="node"><title>Breadth First</title>
<text text-anchor="middle" x="110" y="-330" font-family="FreeSans" font-size="10.00" fill="#1c2021">Breadth First</text>
</g>
<!-- Breadth First&#45;&gt;Order -->
<g id="edge12" class="edge"><title>Breadth First&#45;&gt;Order</title>
<path fill="none" stroke="#2e3436" stroke-width="2" d="M110,-318.087C110,-309.115 110,-297.63 110,-288.135"/>
<polygon fill="#2e3436" stroke="#2e3436" points="110,-325.773 106.625,-318.273 109.5,-322.023 109.5,-318.273 110,-318.273 110.5,-318.273 110.5,-322.023 113.375,-318.273 110,-325.773 110,-325.773"/>
</g>
<!-- Direction -->
<g id="node13" class="node"><title>Direction</title>
<text text-anchor="middle" x="668" y="-330" font-family="FreeSans" font-size="10.00" fill="#1c2021">Direction</text>
</g>
<!-- Direction&#45;&gt;Expander -->
<g id="edge16" class="edge"><title>Direction&#45;&gt;Expander</title>
<path fill="none" stroke="#2e3436" stroke-width="2" d="M663.354,-318.364C660.493,-309.352 656.803,-297.728 653.757,-288.135"/>
<polygon fill="#2e3436" stroke="#2e3436" points="665.706,-325.773 660.22,-319.646 664.094,-322.35 662.96,-318.776 663.436,-318.625 663.913,-318.473 665.048,-322.048 666.653,-317.603 665.706,-325.773 665.706,-325.773"/>
</g>
<!-- Unique Nodes -->
<g id="node14" class="node"><title>Unique Nodes</title>
<text text-anchor="middle" x="582" y="-330" font-family="FreeSans" font-size="10.00" fill="#1c2021">Unique Nodes</text>
</g>
<!-- Unique Nodes&#45;&gt;Uniqueness -->
<g id="edge18" class="edge"><title>Unique Nodes&#45;&gt;Uniqueness</title>
<path fill="none" stroke="#2e3436" stroke-width="2" d="M555.532,-323.249C525.589,-312.217 476.775,-294.233 444.277,-282.26"/>
<polygon fill="#2e3436" stroke="#2e3436" points="562.717,-325.896 554.512,-326.47 559.025,-325.068 555.506,-323.772 555.679,-323.303 555.852,-322.834 559.371,-324.13 556.846,-320.136 562.717,-325.896 562.717,-325.896"/>
</g>
<!-- Unique Relationships -->
<g id="node15" class="node"><title>Unique Relationships</title>
<text text-anchor="middle" x="308" y="-330" font-family="FreeSans" font-size="10.00" fill="#1c2021">Unique Relationships</text>
</g>
<!-- Unique Relationships&#45;&gt;Uniqueness -->
<g id="edge20" class="edge"><title>Unique Relationships&#45;&gt;Uniqueness</title>
<path fill="none" stroke="#2e3436" stroke-width="2" d="M326.308,-321.802C341.562,-312.472 363.586,-299.001 381.351,-288.135"/>
<polygon fill="#2e3436" stroke="#2e3436" points="319.815,-325.773 324.452,-318.981 322.754,-323.39 325.953,-321.433 326.214,-321.86 326.474,-322.286 323.275,-324.243 327.975,-324.739 319.815,-325.773 319.815,-325.773"/>
</g>
<!-- Unique Paths -->
<g id="node16" class="node"><title>Unique Paths</title>
<text text-anchor="middle" x="411" y="-330" font-family="FreeSans" font-size="10.00" fill="#1c2021">Unique Paths</text>
</g>
<!-- Unique Paths&#45;&gt;Uniqueness -->
<g id="edge22" class="edge"><title>Unique Paths&#45;&gt;Uniqueness</title>
<path fill="none" stroke="#2e3436" stroke-width="2" d="M411,-318.087C411,-309.115 411,-297.63 411,-288.135"/>
<polygon fill="#2e3436" stroke="#2e3436" points="411,-325.773 407.625,-318.273 410.5,-322.023 410.5,-318.273 411,-318.273 411.5,-318.273 411.5,-322.023 414.375,-318.273 411,-325.773 411,-325.773"/>
</g>
<!-- None -->
<g id="node17" class="node"><title>None</title>
<text text-anchor="middle" x="496" y="-330" font-family="FreeSans" font-size="10.00" fill="#1c2021">None</text>
</g>
<!-- None&#45;&gt;Uniqueness -->
<g id="edge24" class="edge"><title>None&#45;&gt;Uniqueness</title>
<path fill="none" stroke="#2e3436" stroke-width="2" d="M480.205,-321.293C467.649,-311.987 449.864,-298.805 435.468,-288.135"/>
<polygon fill="#2e3436" stroke="#2e3436" points="486.249,-325.773 478.214,-324.019 482.939,-323.942 479.926,-321.709 480.224,-321.307 480.522,-320.905 483.534,-323.138 482.234,-318.596 486.249,-325.773 486.249,-325.773"/>
</g>
<!-- Include/Exclude -->
<g id="node18" class="node"><title>Include/Exclude</title>
<text text-anchor="middle" x="200" y="-330" font-family="FreeSans" font-size="10.00" fill="#1c2021">Include/Exclude</text>
</g>
<!-- Include/Exclude&#45;&gt;Evaluator -->
<g id="edge26" class="edge"><title>Include/Exclude&#45;&gt;Evaluator</title>
<path fill="none" stroke="#2e3436" stroke-width="2" d="M202.323,-318.364C203.754,-309.352 205.599,-297.728 207.121,-288.135"/>
<polygon fill="#2e3436" stroke="#2e3436" points="201.147,-325.773 198.99,-317.837 201.241,-321.991 201.829,-318.287 202.323,-318.366 202.817,-318.444 202.229,-322.148 205.656,-318.895 201.147,-325.773 201.147,-325.773"/>
</g>
<!-- Paths -->
<g id="node35" class="node"><title>Paths</title>
<polygon fill="#fadcad" stroke="#fadcad" stroke-width="1.5" points="293,-36 263,-36 251,-24 251,-12 263,-1.46056e-14 293,-6.71068e-15 305,-12 305,-24 293,-36"/>
<path fill="#fadcad" stroke="#fadcad" stroke-width="1.5" d="M263,-36C257,-36 251,-30 251,-24"/>
<path fill="#fadcad" stroke="#fadcad" stroke-width="1.5" d="M251,-12C251,-6 257,-1.61846e-14 263,-1.46056e-14"/>
<path fill="#fadcad" stroke="#fadcad" stroke-width="1.5" d="M293,-6.71068e-15C299,-5.1317e-15 305,-6 305,-12"/>
<path fill="#fadcad" stroke="#fadcad" stroke-width="1.5" d="M305,-24C305,-30 299,-36 293,-36"/>
<polyline fill="none" stroke="#2e3436" stroke-width="1.5" points="293,-36 263,-36 "/>
<path fill="none" stroke="#2e3436" stroke-width="1.5" d="M263,-36C257,-36 251,-30 251,-24"/>
<polyline fill="none" stroke="#2e3436" stroke-width="1.5" points="251,-24 251,-12 "/>
<path fill="none" stroke="#2e3436" stroke-width="1.5" d="M251,-12C251,-6 257,-1.61846e-14 263,-1.46056e-14"/>
<polyline fill="none" stroke="#2e3436" stroke-width="1.5" points="263,-1.46056e-14 293,-6.71068e-15 "/>
<path fill="none" stroke="#2e3436" stroke-width="1.5" d="M293,-6.71068e-15C299,-5.1317e-15 305,-6 305,-12"/>
<polyline fill="none" stroke="#2e3436" stroke-width="1.5" points="305,-12 305,-24 "/>
<path fill="none" stroke="#2e3436" stroke-width="1.5" d="M305,-24C305,-30 299,-36 293,-36"/>
<text text-anchor="middle" x="278" y="-15" font-family="FreeSans" font-size="10.00" fill="#1c2021">Paths</text>
</g>
<!-- Traverser&#45;&gt;Paths -->
<g id="edge34" class="edge"><title>Traverser&#45;&gt;Paths</title>
<path fill="none" stroke="#2e3436" stroke-width="2" d="M337.568,-83.6735C331.024,-78.2146 324.051,-72.0653 318,-66 310.817,-58.8008 303.531,-50.4372 297.18,-42.7274"/>
<polygon fill="#2e3436" stroke="#2e3436" points="292.088,-36.4449 299.433,-40.1465 294.838,-39.0434 297.199,-41.9567 296.811,-42.2716 296.422,-42.5864 294.061,-39.6731 294.189,-44.3966 292.088,-36.4449 292.088,-36.4449"/>
<text text-anchor="middle" x="336" y="-57" font-family="FreeSans" font-size="10.00" fill="#1c2021">result as</text>
</g>
<!-- Nodes -->
<g id="node37" class="node"><title>Nodes</title>
<polygon fill="#fadcad" stroke="#fadcad" stroke-width="1.5" points="376,-36 346,-36 334,-24 334,-12 346,-1.46056e-14 376,-6.71068e-15 388,-12 388,-24 376,-36"/>
<path fill="#fadcad" stroke="#fadcad" stroke-width="1.5" d="M346,-36C340,-36 334,-30 334,-24"/>
<path fill="#fadcad" stroke="#fadcad" stroke-width="1.5" d="M334,-12C334,-6 340,-1.61846e-14 346,-1.46056e-14"/>
<path fill="#fadcad" stroke="#fadcad" stroke-width="1.5" d="M376,-6.71068e-15C382,-5.1317e-15 388,-6 388,-12"/>
<path fill="#fadcad" stroke="#fadcad" stroke-width="1.5" d="M388,-24C388,-30 382,-36 376,-36"/>
<polyline fill="none" stroke="#2e3436" stroke-width="1.5" points="376,-36 346,-36 "/>
<path fill="none" stroke="#2e3436" stroke-width="1.5" d="M346,-36C340,-36 334,-30 334,-24"/>
<polyline fill="none" stroke="#2e3436" stroke-width="1.5" points="334,-24 334,-12 "/>
<path fill="none" stroke="#2e3436" stroke-width="1.5" d="M334,-12C334,-6 340,-1.61846e-14 346,-1.46056e-14"/>
<polyline fill="none" stroke="#2e3436" stroke-width="1.5" points="346,-1.46056e-14 376,-6.71068e-15 "/>
<path fill="none" stroke="#2e3436" stroke-width="1.5" d="M376,-6.71068e-15C382,-5.1317e-15 388,-6 388,-12"/>
<polyline fill="none" stroke="#2e3436" stroke-width="1.5" points="388,-12 388,-24 "/>
<path fill="none" stroke="#2e3436" stroke-width="1.5" d="M388,-24C388,-30 382,-36 376,-36"/>
<text text-anchor="middle" x="361" y="-15" font-family="FreeSans" font-size="10.00" fill="#1c2021">Nodes</text>
</g>
<!-- Traverser&#45;&gt;Nodes -->
<g id="edge36" class="edge"><title>Traverser&#45;&gt;Nodes</title>
<path fill="none" stroke="#2e3436" stroke-width="2" d="M361,-83.7733C361,-72.1053 361,-56.7874 361,-43.8699"/>
<polygon fill="#2e3436" stroke="#2e3436" points="361,-36.1912 364.375,-43.6911 361.5,-39.9412 361.5,-43.6912 361,-43.6912 360.5,-43.6912 360.5,-39.9412 357.625,-43.6912 361,-36.1912 361,-36.1912"/>
<text text-anchor="middle" x="379" y="-57" font-family="FreeSans" font-size="10.00" fill="#1c2021">result as</text>
</g>
<!-- Relationships -->
<g id="node39" class="node"><title>Relationships</title>
<polygon fill="#fadcad" stroke="#fadcad" stroke-width="1.5" points="479,-36 429,-36 417,-24 417,-12 429,-1.54591e-14 479,-5.85718e-15 491,-12 491,-24 479,-36"/>
<path fill="#fadcad" stroke="#fadcad" stroke-width="1.5" d="M429,-36C423,-36 417,-30 417,-24"/>
<path fill="#fadcad" stroke="#fadcad" stroke-width="1.5" d="M417,-12C417,-6 423,-1.66113e-14 429,-1.54591e-14"/>
<path fill="#fadcad" stroke="#fadcad" stroke-width="1.5" d="M479,-5.85718e-15C485,-4.70495e-15 491,-6 491,-12"/>
<path fill="#fadcad" stroke="#fadcad" stroke-width="1.5" d="M491,-24C491,-30 485,-36 479,-36"/>
<polyline fill="none" stroke="#2e3436" stroke-width="1.5" points="479,-36 429,-36 "/>
<path fill="none" stroke="#2e3436" stroke-width="1.5" d="M429,-36C423,-36 417,-30 417,-24"/>
<polyline fill="none" stroke="#2e3436" stroke-width="1.5" points="417,-24 417,-12 "/>
<path fill="none" stroke="#2e3436" stroke-width="1.5" d="M417,-12C417,-6 423,-1.66113e-14 429,-1.54591e-14"/>
<polyline fill="none" stroke="#2e3436" stroke-width="1.5" points="429,-1.54591e-14 479,-5.85718e-15 "/>
<path fill="none" stroke="#2e3436" stroke-width="1.5" d="M479,-5.85718e-15C485,-4.70495e-15 491,-6 491,-12"/>
<polyline fill="none" stroke="#2e3436" stroke-width="1.5" points="491,-12 491,-24 "/>
<path fill="none" stroke="#2e3436" stroke-width="1.5" d="M491,-24C491,-30 485,-36 479,-36"/>
<text text-anchor="middle" x="454" y="-15" font-family="FreeSans" font-size="10.00" fill="#1c2021">Relationships</text>
</g>
<!-- Traverser&#45;&gt;Relationships -->
<g id="edge38" class="edge"><title>Traverser&#45;&gt;Relationships</title>
<path fill="none" stroke="#2e3436" stroke-width="2" d="M383.121,-83.9691C389.902,-78.3114 397.331,-71.9801 404,-66 412.735,-58.1673 422.069,-49.3383 430.279,-41.4081"/>
<polygon fill="#2e3436" stroke="#2e3436" points="435.761,-36.0848 432.731,-43.7307 433.419,-39.0558 430.729,-41.668 430.38,-41.3092 430.032,-40.9505 432.723,-38.3383 428.029,-38.8878 435.761,-36.0848 435.761,-36.0848"/>
<text text-anchor="middle" x="435" y="-57" font-family="FreeSans" font-size="10.00" fill="#1c2021">result as</text>
</g>
<!-- A Node -->
<g id="node31" class="node"><title>A Node</title>
<polygon fill="#a8e270" stroke="#a8e270" stroke-width="1.5" points="226,-120 196,-120 184,-108 184,-96 196,-84 226,-84 238,-96 238,-108 226,-120"/>
<path fill="#a8e270" stroke="#a8e270" stroke-width="1.5" d="M196,-120C190,-120 184,-114 184,-108"/>
<path fill="#a8e270" stroke="#a8e270" stroke-width="1.5" d="M184,-96C184,-90 190,-84 196,-84"/>
<path fill="#a8e270" stroke="#a8e270" stroke-width="1.5" d="M226,-84C232,-84 238,-90 238,-96"/>
<path fill="#a8e270" stroke="#a8e270" stroke-width="1.5" d="M238,-108C238,-114 232,-120 226,-120"/>
<polyline fill="none" stroke="#2e3436" stroke-width="1.5" points="226,-120 196,-120 "/>
<path fill="none" stroke="#2e3436" stroke-width="1.5" d="M196,-120C190,-120 184,-114 184,-108"/>
<polyline fill="none" stroke="#2e3436" stroke-width="1.5" points="184,-108 184,-96 "/>
<path fill="none" stroke="#2e3436" stroke-width="1.5" d="M184,-96C184,-90 190,-84 196,-84"/>
<polyline fill="none" stroke="#2e3436" stroke-width="1.5" points="196,-84 226,-84 "/>
<path fill="none" stroke="#2e3436" stroke-width="1.5" d="M226,-84C232,-84 238,-90 238,-96"/>
<polyline fill="none" stroke="#2e3436" stroke-width="1.5" points="238,-96 238,-108 "/>
<path fill="none" stroke="#2e3436" stroke-width="1.5" d="M238,-108C238,-114 232,-120 226,-120"/>
<text text-anchor="middle" x="211" y="-99" font-family="FreeSans" font-size="10.00" fill="#1c2021">A Node</text>
</g>
<!-- A Node&#45;&gt;Traverser -->
<g id="edge32" class="edge"><title>A Node&#45;&gt;Traverser</title>
<path fill="none" stroke="#2e3436" stroke-width="2" d="M238.164,-102C262.522,-102 298.435,-102 325.144,-102"/>
<polygon fill="#2e3436" stroke="#2e3436" points="332.765,-102 325.265,-105.375 329.015,-102.5 325.265,-102.5 325.265,-102 325.265,-101.5 329.015,-101.5 325.265,-98.6251 332.765,-102 332.765,-102"/>
<text text-anchor="middle" x="285" y="-105" font-family="FreeSans" font-size="10.00" fill="#1c2021">starting point of</text>
</g>
</g>
</svg>
