<?xml version="1.0" encoding="UTF-8" standalone="no"?>
<!DOCTYPE svg PUBLIC "-//W3C//DTD SVG 1.1//EN"
 "http://www.w3.org/Graphics/SVG/1.1/DTD/svg11.dtd">
<!-- Generated by graphviz version 2.26.3 (20100126.1600)
 -->
<!-- Title: g Pages: 1 -->
<svg width="168pt" height="212pt"
 viewBox="0.00 0.00 168.00 212.00" xmlns="http://www.w3.org/2000/svg" xmlns:xlink="http://www.w3.org/1999/xlink">
<g id="graph1" class="graph" transform="scale(1 1) rotate(0) translate(4 208)">
<title>g</title>
<polygon fill="white" stroke="white" points="-4,5 -4,-208 165,-208 165,5 -4,5"/>
<!-- Maja -->
<g id="node1" class="node"><title>Maja</title>
<polygon fill="#ffffff" stroke="#ffffff" stroke-width="1.5" points="42,-204 12,-204 1.42109e-14,-192 7.10543e-15,-180 12,-168 42,-168 54,-180 54,-192 42,-204"/>
<path fill="#ffffff" stroke="#ffffff" stroke-width="1.5" d="M12,-204C6,-204 1.77636e-14,-198 1.42109e-14,-192"/>
<path fill="#ffffff" stroke="#ffffff" stroke-width="1.5" d="M7.10543e-15,-180C3.55271e-15,-174 6,-168 12,-168"/>
<path fill="#ffffff" stroke="#ffffff" stroke-width="1.5" d="M42,-168C48,-168 54,-174 54,-180"/>
<path fill="#ffffff" stroke="#ffffff" stroke-width="1.5" d="M54,-192C54,-198 48,-204 42,-204"/>
<polyline fill="none" stroke="#2e3436" stroke-width="1.5" points="42,-204 12,-204 "/>
<path fill="none" stroke="#2e3436" stroke-width="1.5" d="M12,-204C6,-204 1.77636e-14,-198 1.42109e-14,-192"/>
<polyline fill="none" stroke="#2e3436" stroke-width="1.5" points="1.42109e-14,-192 7.10543e-15,-180 "/>
<path fill="none" stroke="#2e3436" stroke-width="1.5" d="M7.10543e-15,-180C3.55271e-15,-174 6,-168 12,-168"/>
<polyline fill="none" stroke="#2e3436" stroke-width="1.5" points="12,-168 42,-168 "/>
<path fill="none" stroke="#2e3436" stroke-width="1.5" d="M42,-168C48,-168 54,-174 54,-180"/>
<polyline fill="none" stroke="#2e3436" stroke-width="1.5" points="54,-180 54,-192 "/>
<path fill="none" stroke="#2e3436" stroke-width="1.5" d="M54,-192C54,-198 48,-204 42,-204"/>
<text text-anchor="middle" x="27" y="-183" font-family="FreeSans" font-size="10.00" fill="#1c2021">Maja</text>
</g>
<!-- Oscar -->
<g id="node3" class="node"><title>Oscar</title>
<polygon fill="#ffffff" stroke="#ffffff" stroke-width="1.5" points="84,-120 54,-120 42,-108 42,-96 54,-84 84,-84 96,-96 96,-108 84,-120"/>
<path fill="#ffffff" stroke="#ffffff" stroke-width="1.5" d="M54,-120C48,-120 42,-114 42,-108"/>
<path fill="#ffffff" stroke="#ffffff" stroke-width="1.5" d="M42,-96C42,-90 48,-84 54,-84"/>
<path fill="#ffffff" stroke="#ffffff" stroke-width="1.5" d="M84,-84C90,-84 96,-90 96,-96"/>
<path fill="#ffffff" stroke="#ffffff" stroke-width="1.5" d="M96,-108C96,-114 90,-120 84,-120"/>
<polyline fill="none" stroke="#2e3436" stroke-width="1.5" points="84,-120 54,-120 "/>
<path fill="none" stroke="#2e3436" stroke-width="1.5" d="M54,-120C48,-120 42,-114 42,-108"/>
<polyline fill="none" stroke="#2e3436" stroke-width="1.5" points="42,-108 42,-96 "/>
<path fill="none" stroke="#2e3436" stroke-width="1.5" d="M42,-96C42,-90 48,-84 54,-84"/>
<polyline fill="none" stroke="#2e3436" stroke-width="1.5" points="54,-84 84,-84 "/>
<path fill="none" stroke="#2e3436" stroke-width="1.5" d="M84,-84C90,-84 96,-90 96,-96"/>
<polyline fill="none" stroke="#2e3436" stroke-width="1.5" points="96,-96 96,-108 "/>
<path fill="none" stroke="#2e3436" stroke-width="1.5" d="M96,-108C96,-114 90,-120 84,-120"/>
<text text-anchor="middle" x="69" y="-99" font-family="FreeSans" font-size="10.00" fill="#1c2021">Oscar</text>
</g>
<!-- Maja&#45;&gt;Oscar -->
<g id="edge2" class="edge"><title>Maja&#45;&gt;Oscar</title>
<path fill="none" stroke="#2e3436" stroke-width="2" d="M9.04432,-167.893C2.20957,-158.762 -2.70717,-147.614 3,-138 10.0176,-126.179 22.4331,-117.991 34.6168,-112.447"/>
<polygon fill="#2e3436" stroke="#2e3436" points="41.7211,-109.482 36.1001,-115.485 38.4531,-111.388 34.9925,-112.832 34.7999,-112.371 34.6073,-111.91 38.0679,-110.465 33.4997,-109.256 41.7211,-109.482 41.7211,-109.482"/>
<text text-anchor="middle" x="18" y="-141" font-family="FreeSans" font-size="10.00" fill="#1c2021">follows</text>
</g>
<!-- Oscar&#45;&gt;Maja -->
<g id="edge4" class="edge"><title>Oscar&#45;&gt;Maja</title>
<path fill="none" stroke="#2e3436" stroke-width="2" d="M59.9044,-120.191C53.9641,-132.072 46.1262,-147.748 39.5902,-160.82"/>
<polygon fill="#2e3436" stroke="#2e3436" points="36.1134,-167.773 36.4488,-159.556 37.3432,-164.196 39.0203,-160.841 39.4675,-161.065 39.9147,-161.289 38.2377,-164.643 42.4862,-162.574 36.1134,-167.773 36.1134,-167.773"/>
<text text-anchor="middle" x="65" y="-141" font-family="FreeSans" font-size="10.00" fill="#1c2021">follows</text>
</g>
<!-- William -->
<g id="node8" class="node"><title>William</title>
<polygon fill="#ffffff" stroke="#ffffff" stroke-width="1.5" points="84,-36 54,-36 42,-24 42,-12 54,-1.46056e-14 84,-6.71068e-15 96,-12 96,-24 84,-36"/>
<path fill="#ffffff" stroke="#ffffff" stroke-width="1.5" d="M54,-36C48,-36 42,-30 42,-24"/>
<path fill="#ffffff" stroke="#ffffff" stroke-width="1.5" d="M42,-12C42,-6 48,-1.61846e-14 54,-1.46056e-14"/>
<path fill="#ffffff" stroke="#ffffff" stroke-width="1.5" d="M84,-6.71068e-15C90,-5.1317e-15 96,-6 96,-12"/>
<path fill="#ffffff" stroke="#ffffff" stroke-width="1.5" d="M96,-24C96,-30 90,-36 84,-36"/>
<polyline fill="none" stroke="#2e3436" stroke-width="1.5" points="84,-36 54,-36 "/>
<path fill="none" stroke="#2e3436" stroke-width="1.5" d="M54,-36C48,-36 42,-30 42,-24"/>
<polyline fill="none" stroke="#2e3436" stroke-width="1.5" points="42,-24 42,-12 "/>
<path fill="none" stroke="#2e3436" stroke-width="1.5" d="M42,-12C42,-6 48,-1.61846e-14 54,-1.46056e-14"/>
<polyline fill="none" stroke="#2e3436" stroke-width="1.5" points="54,-1.46056e-14 84,-6.71068e-15 "/>
<path fill="none" stroke="#2e3436" stroke-width="1.5" d="M84,-6.71068e-15C90,-5.1317e-15 96,-6 96,-12"/>
<polyline fill="none" stroke="#2e3436" stroke-width="1.5" points="96,-12 96,-24 "/>
<path fill="none" stroke="#2e3436" stroke-width="1.5" d="M96,-24C96,-30 90,-36 84,-36"/>
<text text-anchor="middle" x="69" y="-15" font-family="FreeSans" font-size="10.00" fill="#1c2021">William</text>
</g>
<!-- Oscar&#45;&gt;William -->
<g id="edge8" class="edge"><title>Oscar&#45;&gt;William</title>
<path fill="none" stroke="#a40000" stroke-width="2" d="M69,-83.7733C69,-72.1053 69,-56.7874 69,-43.8699"/>
<polygon fill="#a40000" stroke="#a40000" points="69,-36.1912 72.3751,-43.6911 69.5,-39.9412 69.5001,-43.6912 69.0001,-43.6912 68.5001,-43.6912 68.5,-39.9412 65.6251,-43.6912 69,-36.1912 69,-36.1912"/>
<text text-anchor="middle" x="83" y="-57" font-family="FreeSans" font-size="10.00" fill="#a40000">blocks</text>
</g>
<!-- Alice -->
<g id="node5" class="node"><title>Alice</title>
<polygon fill="#ffffff" stroke="#ffffff" stroke-width="1.5" points="148,-204 118,-204 106,-192 106,-180 118,-168 148,-168 160,-180 160,-192 148,-204"/>
<path fill="#ffffff" stroke="#ffffff" stroke-width="1.5" d="M118,-204C112,-204 106,-198 106,-192"/>
<path fill="#ffffff" stroke="#ffffff" stroke-width="1.5" d="M106,-180C106,-174 112,-168 118,-168"/>
<path fill="#ffffff" stroke="#ffffff" stroke-width="1.5" d="M148,-168C154,-168 160,-174 160,-180"/>
<path fill="#ffffff" stroke="#ffffff" stroke-width="1.5" d="M160,-192C160,-198 154,-204 148,-204"/>
<polyline fill="none" stroke="#2e3436" stroke-width="1.5" points="148,-204 118,-204 "/>
<path fill="none" stroke="#2e3436" stroke-width="1.5" d="M118,-204C112,-204 106,-198 106,-192"/>
<polyline fill="none" stroke="#2e3436" stroke-width="1.5" points="106,-192 106,-180 "/>
<path fill="none" stroke="#2e3436" stroke-width="1.5" d="M106,-180C106,-174 112,-168 118,-168"/>
<polyline fill="none" stroke="#2e3436" stroke-width="1.5" points="118,-168 148,-168 "/>
<path fill="none" stroke="#2e3436" stroke-width="1.5" d="M148,-168C154,-168 160,-174 160,-180"/>
<polyline fill="none" stroke="#2e3436" stroke-width="1.5" points="160,-180 160,-192 "/>
<path fill="none" stroke="#2e3436" stroke-width="1.5" d="M160,-192C160,-198 154,-204 148,-204"/>
<text text-anchor="middle" x="133" y="-183" font-family="FreeSans" font-size="10.00" fill="#1c2021">Alice</text>
</g>
<!-- Alice&#45;&gt;Oscar -->
<g id="edge6" class="edge"><title>Alice&#45;&gt;Oscar</title>
<path fill="none" stroke="#2e3436" stroke-width="2" d="M119.113,-167.773C109.888,-155.665 97.6675,-139.626 87.6043,-126.418"/>
<polygon fill="#2e3436" stroke="#2e3436" points="82.8599,-120.191 90.0899,-124.112 85.5303,-122.871 87.803,-125.854 87.4053,-126.157 87.0076,-126.46 84.7349,-123.477 84.7207,-128.202 82.8599,-120.191 82.8599,-120.191"/>
<text text-anchor="middle" x="119" y="-141" font-family="FreeSans" font-size="10.00" fill="#1c2021">follows</text>
</g>
</g>
</svg>
