<?xml version="1.0" encoding="UTF-8" standalone="no"?>
<!DOCTYPE svg PUBLIC "-//W3C//DTD SVG 1.1//EN"
 "http://www.w3.org/Graphics/SVG/1.1/DTD/svg11.dtd">
<!-- Generated by graphviz version 2.26.3 (20100126.1600)
 -->
<!-- Title: g Pages: 1 -->
<svg width="184pt" height="189pt"
 viewBox="0.00 0.00 184.00 189.00" xmlns="http://www.w3.org/2000/svg" xmlns:xlink="http://www.w3.org/1999/xlink">
<g id="graph1" class="graph" transform="scale(1 1) rotate(0) translate(4 185)">
<title>g</title>
<polygon fill="white" stroke="white" points="-4,5 -4,-185 181,-185 181,5 -4,5"/>
<g id="graph2" class="cluster"><title>cluster_0</title>
<polygon fill="none" stroke="none" points="8,-97 8,-173 78,-173 78,-97 8,-97"/>
</g>
<g id="graph3" class="cluster"><title>cluster_1</title>
<polygon fill="none" stroke="none" points="98,-17 98,-173 168,-173 168,-17 98,-17"/>
</g>
<g id="graph4" class="cluster"><title>cluster_2</title>
<polygon fill="none" stroke="none" points="8,-8 8,-84 78,-84 78,-8 8,-8"/>
</g>
<!-- A -->
<g id="node2" class="node"><title>A</title>
<polygon fill="#a8e270" stroke="#a8e270" stroke-width="1.5" points="28,-105 58,-105 70,-117 70,-153 58,-165 28,-165 16,-153 16,-117 28,-105"/>
<path fill="#a8e270" stroke="#a8e270" stroke-width="1.5" d="M58,-105C64,-105 70,-111 70,-117"/>
<path fill="#a8e270" stroke="#a8e270" stroke-width="1.5" d="M70,-153C70,-159 64,-165 58,-165"/>
<path fill="#a8e270" stroke="#a8e270" stroke-width="1.5" d="M28,-165C22,-165 16,-159 16,-153"/>
<path fill="#a8e270" stroke="#a8e270" stroke-width="1.5" d="M16,-117C16,-111 22,-105 28,-105"/>
<polyline fill="none" stroke="#2e3436" stroke-width="1.5" points="28,-105 58,-105 "/>
<path fill="none" stroke="#2e3436" stroke-width="1.5" d="M58,-105C64,-105 70,-111 70,-117"/>
<polyline fill="none" stroke="#2e3436" stroke-width="1.5" points="70,-117 70,-153 "/>
<path fill="none" stroke="#2e3436" stroke-width="1.5" d="M70,-153C70,-159 64,-165 58,-165"/>
<polyline fill="none" stroke="#2e3436" stroke-width="1.5" points="58,-165 28,-165 "/>
<path fill="none" stroke="#2e3436" stroke-width="1.5" d="M28,-165C22,-165 16,-159 16,-153"/>
<polyline fill="none" stroke="#2e3436" stroke-width="1.5" points="16,-153 16,-117 "/>
<path fill="none" stroke="#2e3436" stroke-width="1.5" d="M16,-117C16,-111 22,-105 28,-105"/>
<text text-anchor="middle" x="43" y="-152" font-family="FreeSans" font-size="10.00" fill="#1c2021">A1</text>
<polyline fill="none" stroke="#2e3436" stroke-width="1.5" points="16,-145 70,-145 "/>
<text text-anchor="middle" x="43" y="-132" font-family="FreeSans" font-size="10.00" fill="#1c2021">A2</text>
<polyline fill="none" stroke="#2e3436" stroke-width="1.5" points="16,-125 70,-125 "/>
<text text-anchor="middle" x="43" y="-112" font-family="FreeSans" font-size="10.00" fill="#1c2021">A3</text>
</g>
<!-- B -->
<g id="node4" class="node"><title>B</title>
<polygon fill="#fadcad" stroke="#fadcad" stroke-width="1.5" points="118,-25 148,-25 160,-37 160,-153 148,-165 118,-165 106,-153 106,-37 118,-25"/>
<path fill="#fadcad" stroke="#fadcad" stroke-width="1.5" d="M148,-25C154,-25 160,-31 160,-37"/>
<path fill="#fadcad" stroke="#fadcad" stroke-width="1.5" d="M160,-153C160,-159 154,-165 148,-165"/>
<path fill="#fadcad" stroke="#fadcad" stroke-width="1.5" d="M118,-165C112,-165 106,-159 106,-153"/>
<path fill="#fadcad" stroke="#fadcad" stroke-width="1.5" d="M106,-37C106,-31 112,-25 118,-25"/>
<polyline fill="none" stroke="#2e3436" stroke-width="1.5" points="118,-25 148,-25 "/>
<path fill="none" stroke="#2e3436" stroke-width="1.5" d="M148,-25C154,-25 160,-31 160,-37"/>
<polyline fill="none" stroke="#2e3436" stroke-width="1.5" points="160,-37 160,-153 "/>
<path fill="none" stroke="#2e3436" stroke-width="1.5" d="M160,-153C160,-159 154,-165 148,-165"/>
<polyline fill="none" stroke="#2e3436" stroke-width="1.5" points="148,-165 118,-165 "/>
<path fill="none" stroke="#2e3436" stroke-width="1.5" d="M118,-165C112,-165 106,-159 106,-153"/>
<polyline fill="none" stroke="#2e3436" stroke-width="1.5" points="106,-153 106,-37 "/>
<path fill="none" stroke="#2e3436" stroke-width="1.5" d="M106,-37C106,-31 112,-25 118,-25"/>
<text text-anchor="middle" x="133" y="-152" font-family="FreeSans" font-size="10.00" fill="#1c2021">B1</text>
<polyline fill="none" stroke="#2e3436" stroke-width="1.5" points="106,-145 160,-145 "/>
<text text-anchor="middle" x="133" y="-132" font-family="FreeSans" font-size="10.00" fill="#1c2021">B2</text>
<polyline fill="none" stroke="#2e3436" stroke-width="1.5" points="106,-125 160,-125 "/>
<text text-anchor="middle" x="133" y="-112" font-family="FreeSans" font-size="10.00" fill="#1c2021">B3</text>
<polyline fill="none" stroke="#2e3436" stroke-width="1.5" points="106,-105 160,-105 "/>
<text text-anchor="middle" x="133" y="-92" font-family="FreeSans" font-size="10.00" fill="#1c2021">B4</text>
<polyline fill="none" stroke="#2e3436" stroke-width="1.5" points="106,-85 160,-85 "/>
<text text-anchor="middle" x="133" y="-72" font-family="FreeSans" font-size="10.00" fill="#1c2021">B5</text>
<polyline fill="none" stroke="#2e3436" stroke-width="1.5" points="106,-65 160,-65 "/>
<text text-anchor="middle" x="133" y="-52" font-family="FreeSans" font-size="10.00" fill="#1c2021">B6</text>
<polyline fill="none" stroke="#2e3436" stroke-width="1.5" points="106,-45 160,-45 "/>
<text text-anchor="middle" x="133" y="-32" font-family="FreeSans" font-size="10.00" fill="#1c2021">B7</text>
</g>
<!-- A&#45;&gt;B -->
<g id="edge5" class="edge"><title>A:1&#45;&gt;B:1</title>
<path fill="none" stroke="#2e3436" stroke-width="2" d="M70,-155C86,-155 90,-155 106,-155"/>
</g>
<!-- A&#45;&gt;B -->
<g id="edge7" class="edge"><title>A:1&#45;&gt;B:2</title>
<path fill="none" stroke="#2e3436" stroke-width="2" d="M70,-155C88.3033,-155 87.6967,-135 106,-135"/>
</g>
<!-- A&#45;&gt;B -->
<g id="edge9" class="edge"><title>A:2&#45;&gt;B:4</title>
<path fill="none" stroke="#2e3436" stroke-width="2" d="M70,-135C93.9176,-135 82.0824,-95 106,-95"/>
</g>
<!-- A&#45;&gt;B -->
<g id="edge11" class="edge"><title>A:2&#45;&gt;B:6</title>
<path fill="none" stroke="#2e3436" stroke-width="2" d="M70,-135C108.99,-135 67.0103,-55 106,-55"/>
</g>
<!-- A&#45;&gt;B -->
<g id="edge13" class="edge"><title>A:3&#45;&gt;B:3</title>
<path fill="none" stroke="#2e3436" stroke-width="2" d="M70,-115C86,-115 90,-115 106,-115"/>
</g>
<!-- A&#45;&gt;B -->
<g id="edge15" class="edge"><title>A:3&#45;&gt;B:5</title>
<path fill="none" stroke="#2e3436" stroke-width="2" d="M70,-115C93.9176,-115 82.0824,-75 106,-75"/>
</g>
<!-- A&#45;&gt;B -->
<g id="edge17" class="edge"><title>A:3&#45;&gt;B:7</title>
<path fill="none" stroke="#2e3436" stroke-width="2" d="M70,-115C108.99,-115 67.0103,-35 106,-35"/>
</g>
<!-- C -->
<g id="node6" class="node"><title>C</title>
<polygon fill="#95bbe3" stroke="#95bbe3" stroke-width="1.5" points="28,-16 58,-16 70,-28 70,-64 58,-76 28,-76 16,-64 16,-28 28,-16"/>
<path fill="#95bbe3" stroke="#95bbe3" stroke-width="1.5" d="M58,-16C64,-16 70,-22 70,-28"/>
<path fill="#95bbe3" stroke="#95bbe3" stroke-width="1.5" d="M70,-64C70,-70 64,-76 58,-76"/>
<path fill="#95bbe3" stroke="#95bbe3" stroke-width="1.5" d="M28,-76C22,-76 16,-70 16,-64"/>
<path fill="#95bbe3" stroke="#95bbe3" stroke-width="1.5" d="M16,-28C16,-22 22,-16 28,-16"/>
<polyline fill="none" stroke="#2e3436" stroke-width="1.5" points="28,-16 58,-16 "/>
<path fill="none" stroke="#2e3436" stroke-width="1.5" d="M58,-16C64,-16 70,-22 70,-28"/>
<polyline fill="none" stroke="#2e3436" stroke-width="1.5" points="70,-28 70,-64 "/>
<path fill="none" stroke="#2e3436" stroke-width="1.5" d="M70,-64C70,-70 64,-76 58,-76"/>
<polyline fill="none" stroke="#2e3436" stroke-width="1.5" points="58,-76 28,-76 "/>
<path fill="none" stroke="#2e3436" stroke-width="1.5" d="M28,-76C22,-76 16,-70 16,-64"/>
<polyline fill="none" stroke="#2e3436" stroke-width="1.5" points="16,-64 16,-28 "/>
<path fill="none" stroke="#2e3436" stroke-width="1.5" d="M16,-28C16,-22 22,-16 28,-16"/>
<text text-anchor="middle" x="43" y="-63" font-family="FreeSans" font-size="10.00" fill="#1c2021">C1</text>
<polyline fill="none" stroke="#2e3436" stroke-width="1.5" points="16,-56 70,-56 "/>
<text text-anchor="middle" x="43" y="-43" font-family="FreeSans" font-size="10.00" fill="#1c2021">C2</text>
<polyline fill="none" stroke="#2e3436" stroke-width="1.5" points="16,-36 70,-36 "/>
<text text-anchor="middle" x="43" y="-23" font-family="FreeSans" font-size="10.00" fill="#1c2021">C3</text>
</g>
<!-- C&#45;&gt;B -->
<g id="edge25" class="edge"><title>C:2&#45;&gt;B:3</title>
<path fill="none" stroke="#2e3436" stroke-width="2" d="M70,-46C104.59,-46 71.4103,-115 106,-115"/>
</g>
<!-- C&#45;&gt;B -->
<g id="edge27" class="edge"><title>C:2&#45;&gt;B:7</title>
<path fill="none" stroke="#2e3436" stroke-width="2" d="M70,-46C86.7302,-46 89.2698,-35 106,-35"/>
</g>
<!-- C&#45;&gt;B -->
<g id="edge29" class="edge"><title>C:3&#45;&gt;B:2</title>
<path fill="none" stroke="#2e3436" stroke-width="2" d="M70,-26C121.018,-26 54.9817,-135 106,-135"/>
</g>
<!-- C&#45;&gt;B -->
<g id="edge31" class="edge"><title>C:3&#45;&gt;B:6</title>
<path fill="none" stroke="#2e3436" stroke-width="2" d="M70,-26C90.5456,-26 85.4544,-55 106,-55"/>
</g>
<!-- C&#45;&gt;B -->
<g id="edge19" class="edge"><title>C:1&#45;&gt;B:1</title>
<path fill="none" stroke="#2e3436" stroke-width="2" d="M70,-66C112.669,-66 63.331,-155 106,-155"/>
</g>
<!-- C&#45;&gt;B -->
<g id="edge21" class="edge"><title>C:1&#45;&gt;B:4</title>
<path fill="none" stroke="#2e3436" stroke-width="2" d="M70,-66C90.5456,-66 85.4544,-95 106,-95"/>
</g>
<!-- C&#45;&gt;B -->
<g id="edge23" class="edge"><title>C:1&#45;&gt;B:5</title>
<path fill="none" stroke="#2e3436" stroke-width="2" d="M70,-66C86.4924,-66 89.5076,-75 106,-75"/>
</g>
</g>
</svg>
