<?xml version="1.0" encoding="UTF-8" standalone="no"?>
<!DOCTYPE svg PUBLIC "-//W3C//DTD SVG 1.1//EN"
 "http://www.w3.org/Graphics/SVG/1.1/DTD/svg11.dtd">
<!-- Generated by graphviz version 2.26.3 (20100126.1600)
 -->
<!-- Title: g Pages: 1 -->
<svg width="96pt" height="128pt"
 viewBox="0.00 0.00 96.00 128.00" xmlns="http://www.w3.org/2000/svg" xmlns:xlink="http://www.w3.org/1999/xlink">
<g id="graph1" class="graph" transform="scale(1 1) rotate(0) translate(4 124)">
<title>g</title>
<polygon fill="white" stroke="white" points="-4,5 -4,-124 93,-124 93,5 -4,5"/>
<!-- Node 1 -->
<g id="node1" class="node"><title>Node 1</title>
<polygon fill="#ffffff" stroke="#ffffff" stroke-width="1.5" points="42,-120 12,-120 1.42109e-14,-108 7.10543e-15,-96 12,-84 42,-84 54,-96 54,-108 42,-120"/>
<path fill="#ffffff" stroke="#ffffff" stroke-width="1.5" d="M12,-120C6,-120 1.77636e-14,-114 1.42109e-14,-108"/>
<path fill="#ffffff" stroke="#ffffff" stroke-width="1.5" d="M7.10543e-15,-96C3.55271e-15,-90 6,-84 12,-84"/>
<path fill="#ffffff" stroke="#ffffff" stroke-width="1.5" d="M42,-84C48,-84 54,-90 54,-96"/>
<path fill="#ffffff" stroke="#ffffff" stroke-width="1.5" d="M54,-108C54,-114 48,-120 42,-120"/>
<polyline fill="none" stroke="#2e3436" stroke-width="1.5" points="42,-120 12,-120 "/>
<path fill="none" stroke="#2e3436" stroke-width="1.5" d="M12,-120C6,-120 1.77636e-14,-114 1.42109e-14,-108"/>
<polyline fill="none" stroke="#2e3436" stroke-width="1.5" points="1.42109e-14,-108 7.10543e-15,-96 "/>
<path fill="none" stroke="#2e3436" stroke-width="1.5" d="M7.10543e-15,-96C3.55271e-15,-90 6,-84 12,-84"/>
<polyline fill="none" stroke="#2e3436" stroke-width="1.5" points="12,-84 42,-84 "/>
<path fill="none" stroke="#2e3436" stroke-width="1.5" d="M42,-84C48,-84 54,-90 54,-96"/>
<polyline fill="none" stroke="#2e3436" stroke-width="1.5" points="54,-96 54,-108 "/>
<path fill="none" stroke="#2e3436" stroke-width="1.5" d="M54,-108C54,-114 48,-120 42,-120"/>
<text text-anchor="middle" x="27" y="-99" font-family="FreeSans" font-size="10.00" fill="#1c2021">Node 1</text>
</g>
<!-- Node 2 -->
<g id="node3" class="node"><title>Node 2</title>
<polygon fill="#ffffff" stroke="#ffffff" stroke-width="1.5" points="42,-36 12,-36 1.42109e-14,-24 7.10543e-15,-12 12,-1.46056e-14 42,-6.71068e-15 54,-12 54,-24 42,-36"/>
<path fill="#ffffff" stroke="#ffffff" stroke-width="1.5" d="M12,-36C6,-36 1.77636e-14,-30 1.42109e-14,-24"/>
<path fill="#ffffff" stroke="#ffffff" stroke-width="1.5" d="M7.10543e-15,-12C3.55271e-15,-6 6,-1.61846e-14 12,-1.46056e-14"/>
<path fill="#ffffff" stroke="#ffffff" stroke-width="1.5" d="M42,-6.71068e-15C48,-5.1317e-15 54,-6 54,-12"/>
<path fill="#ffffff" stroke="#ffffff" stroke-width="1.5" d="M54,-24C54,-30 48,-36 42,-36"/>
<polyline fill="none" stroke="#2e3436" stroke-width="1.5" points="42,-36 12,-36 "/>
<path fill="none" stroke="#2e3436" stroke-width="1.5" d="M12,-36C6,-36 1.77636e-14,-30 1.42109e-14,-24"/>
<polyline fill="none" stroke="#2e3436" stroke-width="1.5" points="1.42109e-14,-24 7.10543e-15,-12 "/>
<path fill="none" stroke="#2e3436" stroke-width="1.5" d="M7.10543e-15,-12C3.55271e-15,-6 6,-1.61846e-14 12,-1.46056e-14"/>
<polyline fill="none" stroke="#2e3436" stroke-width="1.5" points="12,-1.46056e-14 42,-6.71068e-15 "/>
<path fill="none" stroke="#2e3436" stroke-width="1.5" d="M42,-6.71068e-15C48,-5.1317e-15 54,-6 54,-12"/>
<polyline fill="none" stroke="#2e3436" stroke-width="1.5" points="54,-12 54,-24 "/>
<path fill="none" stroke="#2e3436" stroke-width="1.5" d="M54,-24C54,-30 48,-36 42,-36"/>
<text text-anchor="middle" x="27" y="-15" font-family="FreeSans" font-size="10.00" fill="#1c2021">Node 2</text>
</g>
<!-- Node 1&#45;&gt;Node 2 -->
<g id="edge2" class="edge"><title>Node 1&#45;&gt;Node 2</title>
<path fill="none" stroke="#2e3436" stroke-width="2" d="M27,-83.7733C27,-72.1053 27,-56.7874 27,-43.8699"/>
<polygon fill="#2e3436" stroke="#2e3436" points="27,-36.1912 30.3751,-43.6911 27.5,-39.9412 27.5001,-43.6912 27.0001,-43.6912 26.5001,-43.6912 26.5,-39.9412 23.6251,-43.6912 27,-36.1912 27,-36.1912"/>
<text text-anchor="middle" x="57.5" y="-57" font-family="FreeSans" font-size="10.00" fill="#1c2021">Relationship 1</text>
</g>
</g>
</svg>
