<?xml version="1.0" encoding="UTF-8" standalone="no"?>
<!DOCTYPE svg PUBLIC "-//W3C//DTD SVG 1.1//EN"
 "http://www.w3.org/Graphics/SVG/1.1/DTD/svg11.dtd">
<!-- Generated by graphviz version 2.26.3 (20100126.1600)
 -->
<!-- Title: g Pages: 1 -->
<svg width="359pt" height="212pt"
 viewBox="0.00 0.00 359.00 212.00" xmlns="http://www.w3.org/2000/svg" xmlns:xlink="http://www.w3.org/1999/xlink">
<g id="graph1" class="graph" transform="scale(1 1) rotate(0) translate(4 208)">
<title>g</title>
<polygon fill="white" stroke="white" points="-4,5 -4,-208 356,-208 356,5 -4,5"/>
<!-- A Relationship -->
<g id="node1" class="node"><title>A Relationship</title>
<polygon fill="#a8e270" stroke="#a8e270" stroke-width="1.5" points="183,-204 129,-204 117,-192 117,-180 129,-168 183,-168 195,-180 195,-192 183,-204"/>
<path fill="#a8e270" stroke="#a8e270" stroke-width="1.5" d="M129,-204C123,-204 117,-198 117,-192"/>
<path fill="#a8e270" stroke="#a8e270" stroke-width="1.5" d="M117,-180C117,-174 123,-168 129,-168"/>
<path fill="#a8e270" stroke="#a8e270" stroke-width="1.5" d="M183,-168C189,-168 195,-174 195,-180"/>
<path fill="#a8e270" stroke="#a8e270" stroke-width="1.5" d="M195,-192C195,-198 189,-204 183,-204"/>
<polyline fill="none" stroke="#2e3436" stroke-width="1.5" points="183,-204 129,-204 "/>
<path fill="none" stroke="#2e3436" stroke-width="1.5" d="M129,-204C123,-204 117,-198 117,-192"/>
<polyline fill="none" stroke="#2e3436" stroke-width="1.5" points="117,-192 117,-180 "/>
<path fill="none" stroke="#2e3436" stroke-width="1.5" d="M117,-180C117,-174 123,-168 129,-168"/>
<polyline fill="none" stroke="#2e3436" stroke-width="1.5" points="129,-168 183,-168 "/>
<path fill="none" stroke="#2e3436" stroke-width="1.5" d="M183,-168C189,-168 195,-174 195,-180"/>
<polyline fill="none" stroke="#2e3436" stroke-width="1.5" points="195,-180 195,-192 "/>
<path fill="none" stroke="#2e3436" stroke-width="1.5" d="M195,-192C195,-198 189,-204 183,-204"/>
<text text-anchor="middle" x="156" y="-183" font-family="FreeSans" font-size="10.00" fill="#1c2021">A Relationship</text>
</g>
<!-- Start node -->
<g id="node3" class="node"><title>Start node</title>
<polygon fill="#fadcad" stroke="#fadcad" stroke-width="1.5" points="48,-120 12,-120 2.0132e-14,-108 1.18424e-14,-96 12,-84 48,-84 60,-96 60,-108 48,-120"/>
<path fill="#fadcad" stroke="#fadcad" stroke-width="1.5" d="M12,-120C6,-120 2.42769e-14,-114 2.0132e-14,-108"/>
<path fill="#fadcad" stroke="#fadcad" stroke-width="1.5" d="M1.18424e-14,-96C7.69755e-15,-90 6,-84 12,-84"/>
<path fill="#fadcad" stroke="#fadcad" stroke-width="1.5" d="M48,-84C54,-84 60,-90 60,-96"/>
<path fill="#fadcad" stroke="#fadcad" stroke-width="1.5" d="M60,-108C60,-114 54,-120 48,-120"/>
<polyline fill="none" stroke="#2e3436" stroke-width="1.5" points="48,-120 12,-120 "/>
<path fill="none" stroke="#2e3436" stroke-width="1.5" d="M12,-120C6,-120 2.42769e-14,-114 2.0132e-14,-108"/>
<polyline fill="none" stroke="#2e3436" stroke-width="1.5" points="2.0132e-14,-108 1.18424e-14,-96 "/>
<path fill="none" stroke="#2e3436" stroke-width="1.5" d="M1.18424e-14,-96C7.69755e-15,-90 6,-84 12,-84"/>
<polyline fill="none" stroke="#2e3436" stroke-width="1.5" points="12,-84 48,-84 "/>
<path fill="none" stroke="#2e3436" stroke-width="1.5" d="M48,-84C54,-84 60,-90 60,-96"/>
<polyline fill="none" stroke="#2e3436" stroke-width="1.5" points="60,-96 60,-108 "/>
<path fill="none" stroke="#2e3436" stroke-width="1.5" d="M60,-108C60,-114 54,-120 48,-120"/>
<text text-anchor="middle" x="30" y="-99" font-family="FreeSans" font-size="10.00" fill="#1c2021">Start node</text>
</g>
<!-- A Relationship&#45;&gt;Start node -->
<g id="edge2" class="edge"><title>A Relationship&#45;&gt;Start node</title>
<path fill="none" stroke="#2e3436" stroke-width="2" d="M128.97,-167.98C109.917,-155.278 84.2638,-138.176 63.8493,-124.566"/>
<polygon fill="#2e3436" stroke="#2e3436" points="57.4202,-120.28 65.5327,-121.632 60.8178,-121.944 63.938,-124.024 63.6606,-124.44 63.3833,-124.856 60.2631,-122.776 61.7885,-127.249 57.4202,-120.28 57.4202,-120.28"/>
<text text-anchor="middle" x="112.5" y="-141" font-family="FreeSans" font-size="10.00" fill="#1c2021">has a</text>
</g>
<!-- End node -->
<g id="node5" class="node"><title>End node</title>
<polygon fill="#fadcad" stroke="#fadcad" stroke-width="1.5" points="133,-120 101,-120 89,-108 89,-96 101,-84 133,-84 145,-96 145,-108 133,-120"/>
<path fill="#fadcad" stroke="#fadcad" stroke-width="1.5" d="M101,-120C95,-120 89,-114 89,-108"/>
<path fill="#fadcad" stroke="#fadcad" stroke-width="1.5" d="M89,-96C89,-90 95,-84 101,-84"/>
<path fill="#fadcad" stroke="#fadcad" stroke-width="1.5" d="M133,-84C139,-84 145,-90 145,-96"/>
<path fill="#fadcad" stroke="#fadcad" stroke-width="1.5" d="M145,-108C145,-114 139,-120 133,-120"/>
<polyline fill="none" stroke="#2e3436" stroke-width="1.5" points="133,-120 101,-120 "/>
<path fill="none" stroke="#2e3436" stroke-width="1.5" d="M101,-120C95,-120 89,-114 89,-108"/>
<polyline fill="none" stroke="#2e3436" stroke-width="1.5" points="89,-108 89,-96 "/>
<path fill="none" stroke="#2e3436" stroke-width="1.5" d="M89,-96C89,-90 95,-84 101,-84"/>
<polyline fill="none" stroke="#2e3436" stroke-width="1.5" points="101,-84 133,-84 "/>
<path fill="none" stroke="#2e3436" stroke-width="1.5" d="M133,-84C139,-84 145,-90 145,-96"/>
<polyline fill="none" stroke="#2e3436" stroke-width="1.5" points="145,-96 145,-108 "/>
<path fill="none" stroke="#2e3436" stroke-width="1.5" d="M145,-108C145,-114 139,-120 133,-120"/>
<text text-anchor="middle" x="117" y="-99" font-family="FreeSans" font-size="10.00" fill="#1c2021">End node</text>
</g>
<!-- A Relationship&#45;&gt;End node -->
<g id="edge4" class="edge"><title>A Relationship&#45;&gt;End node</title>
<path fill="none" stroke="#2e3436" stroke-width="2" d="M146.009,-167.848C143.004,-162.186 139.771,-155.882 137,-150 133.595,-142.772 130.155,-134.805 127.109,-127.474"/>
<polygon fill="#2e3436" stroke="#2e3436" points="124.212,-120.405 130.18,-126.065 126.097,-123.686 127.519,-127.155 127.057,-127.345 126.594,-127.535 125.172,-124.065 123.934,-128.625 124.212,-120.405 124.212,-120.405"/>
<text text-anchor="middle" x="148.5" y="-141" font-family="FreeSans" font-size="10.00" fill="#1c2021">has a</text>
</g>
<!-- Relationship type -->
<g id="node7" class="node"><title>Relationship type</title>
<polygon fill="#fadcad" stroke="#fadcad" stroke-width="1.5" points="250,-120 186,-120 174,-108 174,-96 186,-84 250,-84 262,-96 262,-108 250,-120"/>
<path fill="#fadcad" stroke="#fadcad" stroke-width="1.5" d="M186,-120C180,-120 174,-114 174,-108"/>
<path fill="#fadcad" stroke="#fadcad" stroke-width="1.5" d="M174,-96C174,-90 180,-84 186,-84"/>
<path fill="#fadcad" stroke="#fadcad" stroke-width="1.5" d="M250,-84C256,-84 262,-90 262,-96"/>
<path fill="#fadcad" stroke="#fadcad" stroke-width="1.5" d="M262,-108C262,-114 256,-120 250,-120"/>
<polyline fill="none" stroke="#2e3436" stroke-width="1.5" points="250,-120 186,-120 "/>
<path fill="none" stroke="#2e3436" stroke-width="1.5" d="M186,-120C180,-120 174,-114 174,-108"/>
<polyline fill="none" stroke="#2e3436" stroke-width="1.5" points="174,-108 174,-96 "/>
<path fill="none" stroke="#2e3436" stroke-width="1.5" d="M174,-96C174,-90 180,-84 186,-84"/>
<polyline fill="none" stroke="#2e3436" stroke-width="1.5" points="186,-84 250,-84 "/>
<path fill="none" stroke="#2e3436" stroke-width="1.5" d="M250,-84C256,-84 262,-90 262,-96"/>
<polyline fill="none" stroke="#2e3436" stroke-width="1.5" points="262,-96 262,-108 "/>
<path fill="none" stroke="#2e3436" stroke-width="1.5" d="M262,-108C262,-114 256,-120 250,-120"/>
<text text-anchor="middle" x="218" y="-99" font-family="FreeSans" font-size="10.00" fill="#1c2021">Relationship type</text>
</g>
<!-- A Relationship&#45;&gt;Relationship type -->
<g id="edge6" class="edge"><title>A Relationship&#45;&gt;Relationship type</title>
<path fill="none" stroke="#2e3436" stroke-width="2" d="M169.453,-167.773C178.39,-155.665 190.228,-139.626 199.977,-126.418"/>
<polygon fill="#2e3436" stroke="#2e3436" points="204.573,-120.191 202.835,-128.23 202.749,-123.505 200.522,-126.522 200.119,-126.226 199.717,-125.929 201.944,-122.911 197.404,-124.221 204.573,-120.191 204.573,-120.191"/>
<text text-anchor="middle" x="202.5" y="-141" font-family="FreeSans" font-size="10.00" fill="#1c2021">has a</text>
</g>
<!-- Properties -->
<g id="node9" class="node"><title>Properties</title>
<polygon fill="#fadcad" stroke="#fadcad" stroke-width="1.5" points="339,-120 303,-120 291,-108 291,-96 303,-84 339,-84 351,-96 351,-108 339,-120"/>
<path fill="#fadcad" stroke="#fadcad" stroke-width="1.5" d="M303,-120C297,-120 291,-114 291,-108"/>
<path fill="#fadcad" stroke="#fadcad" stroke-width="1.5" d="M291,-96C291,-90 297,-84 303,-84"/>
<path fill="#fadcad" stroke="#fadcad" stroke-width="1.5" d="M339,-84C345,-84 351,-90 351,-96"/>
<path fill="#fadcad" stroke="#fadcad" stroke-width="1.5" d="M351,-108C351,-114 345,-120 339,-120"/>
<polyline fill="none" stroke="#2e3436" stroke-width="1.5" points="339,-120 303,-120 "/>
<path fill="none" stroke="#2e3436" stroke-width="1.5" d="M303,-120C297,-120 291,-114 291,-108"/>
<polyline fill="none" stroke="#2e3436" stroke-width="1.5" points="291,-108 291,-96 "/>
<path fill="none" stroke="#2e3436" stroke-width="1.5" d="M291,-96C291,-90 297,-84 303,-84"/>
<polyline fill="none" stroke="#2e3436" stroke-width="1.5" points="303,-84 339,-84 "/>
<path fill="none" stroke="#2e3436" stroke-width="1.5" d="M339,-84C345,-84 351,-90 351,-96"/>
<polyline fill="none" stroke="#2e3436" stroke-width="1.5" points="351,-96 351,-108 "/>
<path fill="none" stroke="#2e3436" stroke-width="1.5" d="M351,-108C351,-114 345,-120 339,-120"/>
<text text-anchor="middle" x="321" y="-99" font-family="FreeSans" font-size="10.00" fill="#1c2021">Properties</text>
</g>
<!-- A Relationship&#45;&gt;Properties -->
<g id="edge8" class="edge"><title>A Relationship&#45;&gt;Properties</title>
<path fill="none" stroke="#2e3436" stroke-width="2" d="M191.397,-167.98C218.72,-154.07 256.409,-134.883 284.103,-120.784"/>
<polygon fill="#2e3436" stroke="#2e3436" points="290.916,-117.316 285.763,-123.726 287.801,-119.463 284.459,-121.164 284.232,-120.718 284.005,-120.273 287.347,-118.571 282.701,-117.711 290.916,-117.316 290.916,-117.316"/>
<text text-anchor="middle" x="268.5" y="-141" font-family="FreeSans" font-size="10.00" fill="#1c2021">can have</text>
</g>
<!-- Name -->
<g id="node11" class="node"><title>Name</title>
<polygon fill="#fadcad" stroke="#fadcad" stroke-width="1.5" points="233,-36 203,-36 191,-24 191,-12 203,-1.46056e-14 233,-6.71068e-15 245,-12 245,-24 233,-36"/>
<path fill="#fadcad" stroke="#fadcad" stroke-width="1.5" d="M203,-36C197,-36 191,-30 191,-24"/>
<path fill="#fadcad" stroke="#fadcad" stroke-width="1.5" d="M191,-12C191,-6 197,-1.61846e-14 203,-1.46056e-14"/>
<path fill="#fadcad" stroke="#fadcad" stroke-width="1.5" d="M233,-6.71068e-15C239,-5.1317e-15 245,-6 245,-12"/>
<path fill="#fadcad" stroke="#fadcad" stroke-width="1.5" d="M245,-24C245,-30 239,-36 233,-36"/>
<polyline fill="none" stroke="#2e3436" stroke-width="1.5" points="233,-36 203,-36 "/>
<path fill="none" stroke="#2e3436" stroke-width="1.5" d="M203,-36C197,-36 191,-30 191,-24"/>
<polyline fill="none" stroke="#2e3436" stroke-width="1.5" points="191,-24 191,-12 "/>
<path fill="none" stroke="#2e3436" stroke-width="1.5" d="M191,-12C191,-6 197,-1.61846e-14 203,-1.46056e-14"/>
<polyline fill="none" stroke="#2e3436" stroke-width="1.5" points="203,-1.46056e-14 233,-6.71068e-15 "/>
<path fill="none" stroke="#2e3436" stroke-width="1.5" d="M233,-6.71068e-15C239,-5.1317e-15 245,-6 245,-12"/>
<polyline fill="none" stroke="#2e3436" stroke-width="1.5" points="245,-12 245,-24 "/>
<path fill="none" stroke="#2e3436" stroke-width="1.5" d="M245,-24C245,-30 239,-36 233,-36"/>
<text text-anchor="middle" x="218" y="-15" font-family="FreeSans" font-size="10.00" fill="#1c2021">Name</text>
</g>
<!-- Relationship type&#45;&gt;Name -->
<g id="edge10" class="edge"><title>Relationship type&#45;&gt;Name</title>
<path fill="none" stroke="#2e3436" stroke-width="2" d="M218,-83.7733C218,-72.1053 218,-56.7874 218,-43.8699"/>
<polygon fill="#2e3436" stroke="#2e3436" points="218,-36.1912 221.375,-43.6911 218.5,-39.9412 218.5,-43.6912 218,-43.6912 217.5,-43.6912 217.5,-39.9412 214.625,-43.6912 218,-36.1912 218,-36.1912"/>
<text text-anchor="middle" x="262" y="-57" font-family="FreeSans" font-size="10.00" fill="#1c2021">uniquely identified by</text>
</g>
</g>
</svg>
