<?xml version="1.0" encoding="UTF-8" standalone="no"?>
<!DOCTYPE svg PUBLIC "-//W3C//DTD SVG 1.1//EN"
 "http://www.w3.org/Graphics/SVG/1.1/DTD/svg11.dtd">
<!-- Generated by graphviz version 2.26.3 (20100126.1600)
 -->
<!-- Title: g Pages: 1 -->
<svg width="280pt" height="212pt"
 viewBox="0.00 0.00 280.00 212.00" xmlns="http://www.w3.org/2000/svg" xmlns:xlink="http://www.w3.org/1999/xlink">
<g id="graph1" class="graph" transform="scale(1 1) rotate(0) translate(4 208)">
<title>g</title>
<polygon fill="white" stroke="white" points="-4,5 -4,-208 277,-208 277,5 -4,5"/>
<!-- A Path -->
<g id="node1" class="node"><title>A Path</title>
<polygon fill="#a8e270" stroke="#a8e270" stroke-width="1.5" points="121,-204 91,-204 79,-192 79,-180 91,-168 121,-168 133,-180 133,-192 121,-204"/>
<path fill="#a8e270" stroke="#a8e270" stroke-width="1.5" d="M91,-204C85,-204 79,-198 79,-192"/>
<path fill="#a8e270" stroke="#a8e270" stroke-width="1.5" d="M79,-180C79,-174 85,-168 91,-168"/>
<path fill="#a8e270" stroke="#a8e270" stroke-width="1.5" d="M121,-168C127,-168 133,-174 133,-180"/>
<path fill="#a8e270" stroke="#a8e270" stroke-width="1.5" d="M133,-192C133,-198 127,-204 121,-204"/>
<polyline fill="none" stroke="#2e3436" stroke-width="1.5" points="121,-204 91,-204 "/>
<path fill="none" stroke="#2e3436" stroke-width="1.5" d="M91,-204C85,-204 79,-198 79,-192"/>
<polyline fill="none" stroke="#2e3436" stroke-width="1.5" points="79,-192 79,-180 "/>
<path fill="none" stroke="#2e3436" stroke-width="1.5" d="M79,-180C79,-174 85,-168 91,-168"/>
<polyline fill="none" stroke="#2e3436" stroke-width="1.5" points="91,-168 121,-168 "/>
<path fill="none" stroke="#2e3436" stroke-width="1.5" d="M121,-168C127,-168 133,-174 133,-180"/>
<polyline fill="none" stroke="#2e3436" stroke-width="1.5" points="133,-180 133,-192 "/>
<path fill="none" stroke="#2e3436" stroke-width="1.5" d="M133,-192C133,-198 127,-204 121,-204"/>
<text text-anchor="middle" x="106" y="-183" font-family="FreeSans" font-size="10.00" fill="#1c2021">A Path</text>
</g>
<!-- Start Node -->
<g id="node3" class="node"><title>Start Node</title>
<polygon fill="#fadcad" stroke="#fadcad" stroke-width="1.5" points="50,-120 12,-120 1.65793e-14,-108 8.28967e-15,-96 12,-84 50,-84 62,-96 62,-108 50,-120"/>
<path fill="#fadcad" stroke="#fadcad" stroke-width="1.5" d="M12,-120C6,-120 2.07242e-14,-114 1.65793e-14,-108"/>
<path fill="#fadcad" stroke="#fadcad" stroke-width="1.5" d="M8.28967e-15,-96C4.14483e-15,-90 6,-84 12,-84"/>
<path fill="#fadcad" stroke="#fadcad" stroke-width="1.5" d="M50,-84C56,-84 62,-90 62,-96"/>
<path fill="#fadcad" stroke="#fadcad" stroke-width="1.5" d="M62,-108C62,-114 56,-120 50,-120"/>
<polyline fill="none" stroke="#2e3436" stroke-width="1.5" points="50,-120 12,-120 "/>
<path fill="none" stroke="#2e3436" stroke-width="1.5" d="M12,-120C6,-120 2.07242e-14,-114 1.65793e-14,-108"/>
<polyline fill="none" stroke="#2e3436" stroke-width="1.5" points="1.65793e-14,-108 8.28967e-15,-96 "/>
<path fill="none" stroke="#2e3436" stroke-width="1.5" d="M8.28967e-15,-96C4.14483e-15,-90 6,-84 12,-84"/>
<polyline fill="none" stroke="#2e3436" stroke-width="1.5" points="12,-84 50,-84 "/>
<path fill="none" stroke="#2e3436" stroke-width="1.5" d="M50,-84C56,-84 62,-90 62,-96"/>
<polyline fill="none" stroke="#2e3436" stroke-width="1.5" points="62,-96 62,-108 "/>
<path fill="none" stroke="#2e3436" stroke-width="1.5" d="M62,-108C62,-114 56,-120 50,-120"/>
<text text-anchor="middle" x="31" y="-99" font-family="FreeSans" font-size="10.00" fill="#1c2021">Start Node</text>
</g>
<!-- A Path&#45;&gt;Start Node -->
<g id="edge2" class="edge"><title>A Path&#45;&gt;Start Node</title>
<path fill="none" stroke="#2e3436" stroke-width="2" d="M89.1298,-167.76C83.9296,-162.094 78.204,-155.811 73,-150 66.0534,-142.244 58.5435,-133.71 51.8212,-126.015"/>
<polygon fill="#2e3436" stroke="#2e3436" points="46.8565,-120.322 54.3295,-123.756 49.698,-122.819 52.1626,-125.646 51.7857,-125.974 51.4089,-126.303 48.9443,-123.477 49.242,-128.193 46.8565,-120.322 46.8565,-120.322"/>
<text text-anchor="middle" x="84.5" y="-141" font-family="FreeSans" font-size="10.00" fill="#1c2021">has a</text>
</g>
<!-- Relationship -->
<g id="node5" class="node"><title>Relationship</title>
<polygon fill="#fadcad" stroke="#fadcad" stroke-width="1.5" points="147,-120 103,-120 91,-108 91,-96 103,-84 147,-84 159,-96 159,-108 147,-120"/>
<path fill="#fadcad" stroke="#fadcad" stroke-width="1.5" d="M103,-120C97,-120 91,-114 91,-108"/>
<path fill="#fadcad" stroke="#fadcad" stroke-width="1.5" d="M91,-96C91,-90 97,-84 103,-84"/>
<path fill="#fadcad" stroke="#fadcad" stroke-width="1.5" d="M147,-84C153,-84 159,-90 159,-96"/>
<path fill="#fadcad" stroke="#fadcad" stroke-width="1.5" d="M159,-108C159,-114 153,-120 147,-120"/>
<polyline fill="none" stroke="#2e3436" stroke-width="1.5" points="147,-120 103,-120 "/>
<path fill="none" stroke="#2e3436" stroke-width="1.5" d="M103,-120C97,-120 91,-114 91,-108"/>
<polyline fill="none" stroke="#2e3436" stroke-width="1.5" points="91,-108 91,-96 "/>
<path fill="none" stroke="#2e3436" stroke-width="1.5" d="M91,-96C91,-90 97,-84 103,-84"/>
<polyline fill="none" stroke="#2e3436" stroke-width="1.5" points="103,-84 147,-84 "/>
<path fill="none" stroke="#2e3436" stroke-width="1.5" d="M147,-84C153,-84 159,-90 159,-96"/>
<polyline fill="none" stroke="#2e3436" stroke-width="1.5" points="159,-96 159,-108 "/>
<path fill="none" stroke="#2e3436" stroke-width="1.5" d="M159,-108C159,-114 153,-120 147,-120"/>
<text text-anchor="middle" x="125" y="-99" font-family="FreeSans" font-size="10.00" fill="#1c2021">Relationship</text>
</g>
<!-- A Path&#45;&gt;Relationship -->
<g id="edge4" class="edge"><title>A Path&#45;&gt;Relationship</title>
<path fill="none" stroke="#2e3436" stroke-width="2" d="M102.695,-167.933C101.664,-158.813 101.388,-147.662 104,-138 105.013,-134.254 106.522,-130.498 108.277,-126.901"/>
<polygon fill="#2e3436" stroke="#2e3436" points="111.885,-120.221 111.29,-128.424 110.543,-123.758 108.76,-127.058 108.32,-126.82 107.88,-126.582 109.663,-123.283 105.351,-125.216 111.885,-120.221 111.885,-120.221"/>
<text text-anchor="middle" x="155.5" y="-141" font-family="FreeSans" font-size="10.00" fill="#1c2021">can contain one or more</text>
</g>
<!-- End Node -->
<g id="node9" class="node"><title>End Node</title>
<polygon fill="#fadcad" stroke="#fadcad" stroke-width="1.5" points="260,-120 226,-120 214,-108 214,-96 226,-84 260,-84 272,-96 272,-108 260,-120"/>
<path fill="#fadcad" stroke="#fadcad" stroke-width="1.5" d="M226,-120C220,-120 214,-114 214,-108"/>
<path fill="#fadcad" stroke="#fadcad" stroke-width="1.5" d="M214,-96C214,-90 220,-84 226,-84"/>
<path fill="#fadcad" stroke="#fadcad" stroke-width="1.5" d="M260,-84C266,-84 272,-90 272,-96"/>
<path fill="#fadcad" stroke="#fadcad" stroke-width="1.5" d="M272,-108C272,-114 266,-120 260,-120"/>
<polyline fill="none" stroke="#2e3436" stroke-width="1.5" points="260,-120 226,-120 "/>
<path fill="none" stroke="#2e3436" stroke-width="1.5" d="M226,-120C220,-120 214,-114 214,-108"/>
<polyline fill="none" stroke="#2e3436" stroke-width="1.5" points="214,-108 214,-96 "/>
<path fill="none" stroke="#2e3436" stroke-width="1.5" d="M214,-96C214,-90 220,-84 226,-84"/>
<polyline fill="none" stroke="#2e3436" stroke-width="1.5" points="226,-84 260,-84 "/>
<path fill="none" stroke="#2e3436" stroke-width="1.5" d="M260,-84C266,-84 272,-90 272,-96"/>
<polyline fill="none" stroke="#2e3436" stroke-width="1.5" points="272,-96 272,-108 "/>
<path fill="none" stroke="#2e3436" stroke-width="1.5" d="M272,-108C272,-114 266,-120 260,-120"/>
<text text-anchor="middle" x="243" y="-99" font-family="FreeSans" font-size="10.00" fill="#1c2021">End Node</text>
</g>
<!-- A Path&#45;&gt;End Node -->
<g id="edge8" class="edge"><title>A Path&#45;&gt;End Node</title>
<path fill="none" stroke="#2e3436" stroke-width="2" d="M133.448,-181.43C155.836,-176.614 187.351,-167.249 210,-150 218.045,-143.873 224.841,-135.208 230.135,-126.924"/>
<polygon fill="#2e3436" stroke="#2e3436" points="234.223,-120.118 233.254,-128.285 232.721,-123.59 230.79,-126.804 230.361,-126.547 229.932,-126.289 231.864,-123.075 227.468,-124.809 234.223,-120.118 234.223,-120.118"/>
<text text-anchor="middle" x="235" y="-141" font-family="FreeSans" font-size="10.00" fill="#1c2021">has an</text>
</g>
<!-- Node -->
<g id="node7" class="node"><title>Node</title>
<polygon fill="#fadcad" stroke="#fadcad" stroke-width="1.5" points="140,-36 110,-36 98,-24 98,-12 110,-1.46056e-14 140,-6.71068e-15 152,-12 152,-24 140,-36"/>
<path fill="#fadcad" stroke="#fadcad" stroke-width="1.5" d="M110,-36C104,-36 98,-30 98,-24"/>
<path fill="#fadcad" stroke="#fadcad" stroke-width="1.5" d="M98,-12C98,-6 104,-1.61846e-14 110,-1.46056e-14"/>
<path fill="#fadcad" stroke="#fadcad" stroke-width="1.5" d="M140,-6.71068e-15C146,-5.1317e-15 152,-6 152,-12"/>
<path fill="#fadcad" stroke="#fadcad" stroke-width="1.5" d="M152,-24C152,-30 146,-36 140,-36"/>
<polyline fill="none" stroke="#2e3436" stroke-width="1.5" points="140,-36 110,-36 "/>
<path fill="none" stroke="#2e3436" stroke-width="1.5" d="M110,-36C104,-36 98,-30 98,-24"/>
<polyline fill="none" stroke="#2e3436" stroke-width="1.5" points="98,-24 98,-12 "/>
<path fill="none" stroke="#2e3436" stroke-width="1.5" d="M98,-12C98,-6 104,-1.61846e-14 110,-1.46056e-14"/>
<polyline fill="none" stroke="#2e3436" stroke-width="1.5" points="110,-1.46056e-14 140,-6.71068e-15 "/>
<path fill="none" stroke="#2e3436" stroke-width="1.5" d="M140,-6.71068e-15C146,-5.1317e-15 152,-6 152,-12"/>
<polyline fill="none" stroke="#2e3436" stroke-width="1.5" points="152,-12 152,-24 "/>
<path fill="none" stroke="#2e3436" stroke-width="1.5" d="M152,-24C152,-30 146,-36 140,-36"/>
<text text-anchor="middle" x="125" y="-15" font-family="FreeSans" font-size="10.00" fill="#1c2021">Node</text>
</g>
<!-- Relationship&#45;&gt;Node -->
<g id="edge6" class="edge"><title>Relationship&#45;&gt;Node</title>
<path fill="none" stroke="#2e3436" stroke-width="2" d="M125,-83.7733C125,-72.1053 125,-56.7874 125,-43.8699"/>
<polygon fill="#2e3436" stroke="#2e3436" points="125,-36.1912 128.375,-43.6911 125.5,-39.9412 125.5,-43.6912 125,-43.6912 124.5,-43.6912 124.5,-39.9412 121.625,-43.6912 125,-36.1912 125,-36.1912"/>
<text text-anchor="middle" x="164" y="-57" font-family="FreeSans" font-size="10.00" fill="#1c2021">accompanied by a</text>
</g>
</g>
</svg>
