<?xml version="1.0" encoding="UTF-8" standalone="no"?>
<!DOCTYPE svg PUBLIC "-//W3C//DTD SVG 1.1//EN"
 "http://www.w3.org/Graphics/SVG/1.1/DTD/svg11.dtd">
<!-- Generated by graphviz version 2.26.3 (20100126.1600)
 -->
<!-- Title: g Pages: 1 -->
<svg width="212pt" height="44pt"
 viewBox="0.00 0.00 212.00 44.00" xmlns="http://www.w3.org/2000/svg" xmlns:xlink="http://www.w3.org/1999/xlink">
<g id="graph1" class="graph" transform="scale(1 1) rotate(0) translate(4 40)">
<title>g</title>
<polygon fill="white" stroke="white" points="-4,5 -4,-40 209,-40 209,5 -4,5"/>
<!-- Start node -->
<g id="node1" class="node"><title>Start node</title>
<polygon fill="#ffffff" stroke="#ffffff" stroke-width="1.5" points="49,-36 13,-36 1,-24 1,-12 13,-1.49214e-14 49,-6.39488e-15 61,-12 61,-24 49,-36"/>
<path fill="#ffffff" stroke="#ffffff" stroke-width="1.5" d="M13,-36C7,-36 1,-30 1,-24"/>
<path fill="#ffffff" stroke="#ffffff" stroke-width="1.5" d="M1,-12C1,-6 7,-1.63425e-14 13,-1.49214e-14"/>
<path fill="#ffffff" stroke="#ffffff" stroke-width="1.5" d="M49,-6.39488e-15C55,-4.9738e-15 61,-6 61,-12"/>
<path fill="#ffffff" stroke="#ffffff" stroke-width="1.5" d="M61,-24C61,-30 55,-36 49,-36"/>
<polyline fill="none" stroke="#2e3436" stroke-width="1.5" points="49,-36 13,-36 "/>
<path fill="none" stroke="#2e3436" stroke-width="1.5" d="M13,-36C7,-36 1,-30 1,-24"/>
<polyline fill="none" stroke="#2e3436" stroke-width="1.5" points="1,-24 1,-12 "/>
<path fill="none" stroke="#2e3436" stroke-width="1.5" d="M1,-12C1,-6 7,-1.63425e-14 13,-1.49214e-14"/>
<polyline fill="none" stroke="#2e3436" stroke-width="1.5" points="13,-1.49214e-14 49,-6.39488e-15 "/>
<path fill="none" stroke="#2e3436" stroke-width="1.5" d="M49,-6.39488e-15C55,-4.9738e-15 61,-6 61,-12"/>
<polyline fill="none" stroke="#2e3436" stroke-width="1.5" points="61,-12 61,-24 "/>
<path fill="none" stroke="#2e3436" stroke-width="1.5" d="M61,-24C61,-30 55,-36 49,-36"/>
<text text-anchor="middle" x="31" y="-15" font-family="FreeSans" font-size="10.00" fill="#1c2021">Start node</text>
</g>
<!-- End node -->
<g id="node3" class="node"><title>End node</title>
<polygon fill="#ffffff" stroke="#ffffff" stroke-width="1.5" points="192,-36 160,-36 148,-24 148,-12 160,-1.47184e-14 192,-6.5979e-15 204,-12 204,-24 192,-36"/>
<path fill="#ffffff" stroke="#ffffff" stroke-width="1.5" d="M160,-36C154,-36 148,-30 148,-24"/>
<path fill="#ffffff" stroke="#ffffff" stroke-width="1.5" d="M148,-12C148,-6 154,-1.6241e-14 160,-1.47184e-14"/>
<path fill="#ffffff" stroke="#ffffff" stroke-width="1.5" d="M192,-6.5979e-15C198,-5.07531e-15 204,-6 204,-12"/>
<path fill="#ffffff" stroke="#ffffff" stroke-width="1.5" d="M204,-24C204,-30 198,-36 192,-36"/>
<polyline fill="none" stroke="#2e3436" stroke-width="1.5" points="192,-36 160,-36 "/>
<path fill="none" stroke="#2e3436" stroke-width="1.5" d="M160,-36C154,-36 148,-30 148,-24"/>
<polyline fill="none" stroke="#2e3436" stroke-width="1.5" points="148,-24 148,-12 "/>
<path fill="none" stroke="#2e3436" stroke-width="1.5" d="M148,-12C148,-6 154,-1.6241e-14 160,-1.47184e-14"/>
<polyline fill="none" stroke="#2e3436" stroke-width="1.5" points="160,-1.47184e-14 192,-6.5979e-15 "/>
<path fill="none" stroke="#2e3436" stroke-width="1.5" d="M192,-6.5979e-15C198,-5.07531e-15 204,-6 204,-12"/>
<polyline fill="none" stroke="#2e3436" stroke-width="1.5" points="204,-12 204,-24 "/>
<path fill="none" stroke="#2e3436" stroke-width="1.5" d="M204,-24C204,-30 198,-36 192,-36"/>
<text text-anchor="middle" x="176" y="-15" font-family="FreeSans" font-size="10.00" fill="#1c2021">End node</text>
</g>
<!-- Start node&#45;&gt;End node -->
<g id="edge2" class="edge"><title>Start node&#45;&gt;End node</title>
<path fill="none" stroke="#2e3436" stroke-width="2" d="M61.7508,-18C84.7049,-18 116.129,-18 140.211,-18"/>
<polygon fill="#2e3436" stroke="#2e3436" points="147.752,-18 140.252,-21.3751 144.002,-18.5 140.252,-18.5001 140.252,-18.0001 140.252,-17.5001 144.002,-17.5 140.252,-14.6251 147.752,-18 147.752,-18"/>
<text text-anchor="middle" x="105" y="-21" font-family="FreeSans" font-size="10.00" fill="#1c2021">relationship</text>
</g>
</g>
</svg>
