<?xml version="1.0" encoding="UTF-8" standalone="no"?>
<!DOCTYPE svg PUBLIC "-//W3C//DTD SVG 1.1//EN"
 "http://www.w3.org/Graphics/SVG/1.1/DTD/svg11.dtd">
<!-- Generated by graphviz version 2.26.3 (20100126.1600)
 -->
<!-- Title: g Pages: 1 -->
<svg width="98pt" height="130pt"
 viewBox="0.00 0.00 98.00 130.00" xmlns="http://www.w3.org/2000/svg" xmlns:xlink="http://www.w3.org/1999/xlink">
<g id="graph1" class="graph" transform="scale(1 1) rotate(0) translate(4 126)">
<title>g</title>
<polygon fill="white" stroke="white" points="-4,5 -4,-126 95,-126 95,5 -4,5"/>
<!-- N0 -->
<g id="node1" class="node"><title>N0</title>
<polygon fill="#ffffff" stroke="#ffffff" stroke-width="1.5" points="12,-1 78,-1 90,-13 90,-25 78,-37 12,-37 0,-25 0,-13 12,-1"/>
<path fill="#ffffff" stroke="#ffffff" stroke-width="1.5" d="M78,-1C84,-1 90,-7 90,-13"/>
<path fill="#ffffff" stroke="#ffffff" stroke-width="1.5" d="M90,-25C90,-31 84,-37 78,-37"/>
<path fill="#ffffff" stroke="#ffffff" stroke-width="1.5" d="M12,-37C6,-37 0,-31 0,-25"/>
<path fill="#ffffff" stroke="#ffffff" stroke-width="1.5" d="M0,-13C0,-7 6,-1 12,-1"/>
<polyline fill="none" stroke="#2e3436" stroke-width="1.5" points="12,-1 78,-1 "/>
<path fill="none" stroke="#2e3436" stroke-width="1.5" d="M78,-1C84,-1 90,-7 90,-13"/>
<polyline fill="none" stroke="#2e3436" stroke-width="1.5" points="90,-13 90,-25 "/>
<path fill="none" stroke="#2e3436" stroke-width="1.5" d="M90,-25C90,-31 84,-37 78,-37"/>
<polyline fill="none" stroke="#2e3436" stroke-width="1.5" points="78,-37 12,-37 "/>
<path fill="none" stroke="#2e3436" stroke-width="1.5" d="M12,-37C6,-37 0,-31 0,-25"/>
<polyline fill="none" stroke="#2e3436" stroke-width="1.5" points="0,-25 0,-13 "/>
<path fill="none" stroke="#2e3436" stroke-width="1.5" d="M0,-13C0,-7 6,-1 12,-1"/>
<text text-anchor="start" x="8" y="-16.8" font-family="FreeSans" font-size="8.00" fill="#1c2021">Node[0]name = &#39;you&#39;</text>
</g>
<!-- N1 -->
<g id="node2" class="node"><title>N1</title>
<polygon fill="#ffffff" stroke="#ffffff" stroke-width="1.5" points="17,-85 73,-85 85,-97 85,-109 73,-121 17,-121 5,-109 5,-97 17,-85"/>
<path fill="#ffffff" stroke="#ffffff" stroke-width="1.5" d="M73,-85C79,-85 85,-91 85,-97"/>
<path fill="#ffffff" stroke="#ffffff" stroke-width="1.5" d="M85,-109C85,-115 79,-121 73,-121"/>
<path fill="#ffffff" stroke="#ffffff" stroke-width="1.5" d="M17,-121C11,-121 5,-115 5,-109"/>
<path fill="#ffffff" stroke="#ffffff" stroke-width="1.5" d="M5,-97C5,-91 11,-85 17,-85"/>
<polyline fill="none" stroke="#2e3436" stroke-width="1.5" points="17,-85 73,-85 "/>
<path fill="none" stroke="#2e3436" stroke-width="1.5" d="M73,-85C79,-85 85,-91 85,-97"/>
<polyline fill="none" stroke="#2e3436" stroke-width="1.5" points="85,-97 85,-109 "/>
<path fill="none" stroke="#2e3436" stroke-width="1.5" d="M85,-109C85,-115 79,-121 73,-121"/>
<polyline fill="none" stroke="#2e3436" stroke-width="1.5" points="73,-121 17,-121 "/>
<path fill="none" stroke="#2e3436" stroke-width="1.5" d="M17,-121C11,-121 5,-115 5,-109"/>
<polyline fill="none" stroke="#2e3436" stroke-width="1.5" points="5,-109 5,-97 "/>
<path fill="none" stroke="#2e3436" stroke-width="1.5" d="M5,-97C5,-91 11,-85 17,-85"/>
<text text-anchor="start" x="13" y="-100.8" font-family="FreeSans" font-size="8.00" fill="#1c2021">Node[1]name = &#39;I&#39;</text>
</g>
<!-- N1&#45;&gt;N0 -->
<g id="edge2" class="edge"><title>N1&#45;&gt;N0</title>
<path fill="none" stroke="#2e3436" stroke-width="2" d="M45,-84.7733C45,-73.1053 45,-57.7874 45,-44.8699"/>
<polygon fill="#2e3436" stroke="#2e3436" points="45,-37.1912 48.3751,-44.6911 45.5,-40.9412 45.5001,-44.6912 45.0001,-44.6912 44.5001,-44.6912 44.5,-40.9412 41.6251,-44.6912 45,-37.1912 45,-37.1912"/>
<text text-anchor="middle" x="55" y="-58.8" font-family="FreeSans" font-size="8.00" fill="#2e3436">know</text>
</g>
</g>
</svg>
