<?xml version="1.0" encoding="UTF-8" standalone="no"?>
<!DOCTYPE svg PUBLIC "-//W3C//DTD SVG 1.1//EN"
 "http://www.w3.org/Graphics/SVG/1.1/DTD/svg11.dtd">
<!-- Generated by graphviz version 2.26.3 (20100126.1600)
 -->
<!-- Title: g Pages: 1 -->
<svg width="141pt" height="140pt"
 viewBox="0.00 0.00 141.00 140.00" xmlns="http://www.w3.org/2000/svg" xmlns:xlink="http://www.w3.org/1999/xlink">
<g id="graph1" class="graph" transform="scale(1 1) rotate(0) translate(4 136)">
<title>g</title>
<polygon fill="white" stroke="white" points="-4,5 -4,-136 138,-136 138,5 -4,5"/>
<!-- N1 -->
<g id="node1" class="node"><title>N1</title>
<polygon fill="#ffffff" stroke="#ffffff" stroke-width="1.5" points="12.5,-95 71.5,-95 83.5,-107 83.5,-119 71.5,-131 12.5,-131 0.5,-119 0.5,-107 12.5,-95"/>
<path fill="#ffffff" stroke="#ffffff" stroke-width="1.5" d="M71.5,-95C77.5,-95 83.5,-101 83.5,-107"/>
<path fill="#ffffff" stroke="#ffffff" stroke-width="1.5" d="M83.5,-119C83.5,-125 77.5,-131 71.5,-131"/>
<path fill="#ffffff" stroke="#ffffff" stroke-width="1.5" d="M12.5,-131C6.5,-131 0.5,-125 0.5,-119"/>
<path fill="#ffffff" stroke="#ffffff" stroke-width="1.5" d="M0.5,-107C0.5,-101 6.5,-95 12.5,-95"/>
<polyline fill="none" stroke="#2e3436" stroke-width="1.5" points="12.5,-95 71.5,-95 "/>
<path fill="none" stroke="#2e3436" stroke-width="1.5" d="M71.5,-95C77.5,-95 83.5,-101 83.5,-107"/>
<polyline fill="none" stroke="#2e3436" stroke-width="1.5" points="83.5,-107 83.5,-119 "/>
<path fill="none" stroke="#2e3436" stroke-width="1.5" d="M83.5,-119C83.5,-125 77.5,-131 71.5,-131"/>
<polyline fill="none" stroke="#2e3436" stroke-width="1.5" points="71.5,-131 12.5,-131 "/>
<path fill="none" stroke="#2e3436" stroke-width="1.5" d="M12.5,-131C6.5,-131 0.5,-125 0.5,-119"/>
<polyline fill="none" stroke="#2e3436" stroke-width="1.5" points="0.5,-119 0.5,-107 "/>
<path fill="none" stroke="#2e3436" stroke-width="1.5" d="M0.5,-107C0.5,-101 6.5,-95 12.5,-95"/>
<text text-anchor="start" x="8.5" y="-110.8" font-family="FreeSans" font-size="8.00" fill="#1c2021">message = &#39;Hello, &#39;</text>
</g>
<!-- N2 -->
<g id="node3" class="node"><title>N2</title>
<polygon fill="#ffffff" stroke="#ffffff" stroke-width="1.5" points="11.5,-1 72.5,-1 84.5,-13 84.5,-25 72.5,-37 11.5,-37 -0.5,-25 -0.5,-13 11.5,-1"/>
<path fill="#ffffff" stroke="#ffffff" stroke-width="1.5" d="M72.5,-1C78.5,-1 84.5,-7 84.5,-13"/>
<path fill="#ffffff" stroke="#ffffff" stroke-width="1.5" d="M84.5,-25C84.5,-31 78.5,-37 72.5,-37"/>
<path fill="#ffffff" stroke="#ffffff" stroke-width="1.5" d="M11.5,-37C5.5,-37 -0.5,-31 -0.5,-25"/>
<path fill="#ffffff" stroke="#ffffff" stroke-width="1.5" d="M-0.5,-13C-0.5,-7 5.5,-1 11.5,-1"/>
<polyline fill="none" stroke="#2e3436" stroke-width="1.5" points="11.5,-1 72.5,-1 "/>
<path fill="none" stroke="#2e3436" stroke-width="1.5" d="M72.5,-1C78.5,-1 84.5,-7 84.5,-13"/>
<polyline fill="none" stroke="#2e3436" stroke-width="1.5" points="84.5,-13 84.5,-25 "/>
<path fill="none" stroke="#2e3436" stroke-width="1.5" d="M84.5,-25C84.5,-31 78.5,-37 72.5,-37"/>
<polyline fill="none" stroke="#2e3436" stroke-width="1.5" points="72.5,-37 11.5,-37 "/>
<path fill="none" stroke="#2e3436" stroke-width="1.5" d="M11.5,-37C5.5,-37 -0.5,-31 -0.5,-25"/>
<polyline fill="none" stroke="#2e3436" stroke-width="1.5" points="-0.5,-25 -0.5,-13 "/>
<path fill="none" stroke="#2e3436" stroke-width="1.5" d="M-0.5,-13C-0.5,-7 5.5,-1 11.5,-1"/>
<text text-anchor="start" x="7.5" y="-16.8" font-family="FreeSans" font-size="8.00" fill="#1c2021">message = &#39;World!&#39;</text>
</g>
<!-- N1&#45;&gt;N2 -->
<g id="edge2" class="edge"><title>N1&#45;&gt;N2</title>
<path fill="none" stroke="#2e3436" stroke-width="2" d="M42,-94.8759C42,-80.7014 42,-60.806 42,-44.944"/>
<polygon fill="#2e3436" stroke="#2e3436" points="42,-37.0685 45.3751,-44.5685 42.5,-40.8185 42.5001,-44.5685 42.0001,-44.5685 41.5001,-44.5685 41.5,-40.8185 38.6251,-44.5685 42,-37.0685 42,-37.0685"/>
<text text-anchor="middle" x="87.5" y="-68.8" font-family="FreeSans" font-size="8.00" fill="#2e3436">KNOWS</text>
<text text-anchor="start" x="42" y="-58.8" font-family="FreeSans" font-size="8.00" fill="#2e3436">message = &#39;brave Neo4j &#39;</text>
</g>
</g>
</svg>
