<?xml version="1.0" encoding="UTF-8" standalone="no"?>
<!DOCTYPE svg PUBLIC "-//W3C//DTD SVG 1.1//EN"
 "http://www.w3.org/Graphics/SVG/1.1/DTD/svg11.dtd">
<!-- Generated by graphviz version 2.26.3 (20100126.1600)
 -->
<!-- Title: g Pages: 1 -->
<svg width="504pt" height="130pt"
 viewBox="0.00 0.00 504.00 130.46" xmlns="http://www.w3.org/2000/svg" xmlns:xlink="http://www.w3.org/1999/xlink">
<g id="graph1" class="graph" transform="scale(0.557522 0.557522) rotate(0) translate(4 230)">
<title>g</title>
<polygon fill="white" stroke="white" points="-4,5 -4,-230 901,-230 901,5 -4,5"/>
<!-- N0 -->
<g id="node1" class="node"><title>N0</title>
<polygon fill="#ffffff" stroke="#ffffff" stroke-width="1.5" points="11.5,-105 80.5,-105 92.5,-117 92.5,-129 80.5,-141 11.5,-141 -0.5,-129 -0.5,-117 11.5,-105"/>
<path fill="#ffffff" stroke="#ffffff" stroke-width="1.5" d="M80.5,-105C86.5,-105 92.5,-111 92.5,-117"/>
<path fill="#ffffff" stroke="#ffffff" stroke-width="1.5" d="M92.5,-129C92.5,-135 86.5,-141 80.5,-141"/>
<path fill="#ffffff" stroke="#ffffff" stroke-width="1.5" d="M11.5,-141C5.5,-141 -0.5,-135 -0.5,-129"/>
<path fill="#ffffff" stroke="#ffffff" stroke-width="1.5" d="M-0.5,-117C-0.5,-111 5.5,-105 11.5,-105"/>
<polyline fill="none" stroke="#2e3436" stroke-width="1.5" points="11.5,-105 80.5,-105 "/>
<path fill="none" stroke="#2e3436" stroke-width="1.5" d="M80.5,-105C86.5,-105 92.5,-111 92.5,-117"/>
<polyline fill="none" stroke="#2e3436" stroke-width="1.5" points="92.5,-117 92.5,-129 "/>
<path fill="none" stroke="#2e3436" stroke-width="1.5" d="M92.5,-129C92.5,-135 86.5,-141 80.5,-141"/>
<polyline fill="none" stroke="#2e3436" stroke-width="1.5" points="80.5,-141 11.5,-141 "/>
<path fill="none" stroke="#2e3436" stroke-width="1.5" d="M11.5,-141C5.5,-141 -0.5,-135 -0.5,-129"/>
<polyline fill="none" stroke="#2e3436" stroke-width="1.5" points="-0.5,-129 -0.5,-117 "/>
<path fill="none" stroke="#2e3436" stroke-width="1.5" d="M-0.5,-117C-0.5,-111 5.5,-105 11.5,-105"/>
<text text-anchor="middle" x="46" y="-129.8" font-family="FreeSans" font-size="8.00" fill="#1c2021">Person</text>
<polyline fill="none" stroke="#2e3436" stroke-width="1.5" points="-0.5,-123 92.5,-123 "/>
<text text-anchor="start" x="7.5" y="-111.8" font-family="FreeSans" font-size="8.00" fill="#1c2021">name = &#39;Oliver Stone&#39;</text>
</g>
<!-- N4 -->
<g id="node3" class="node"><title>N4</title>
<polygon fill="#ffffff" stroke="#ffffff" stroke-width="1.5" points="169,-1 231,-1 243,-13 243,-35 231,-47 169,-47 157,-35 157,-13 169,-1"/>
<path fill="#ffffff" stroke="#ffffff" stroke-width="1.5" d="M231,-1C237,-1 243,-7 243,-13"/>
<path fill="#ffffff" stroke="#ffffff" stroke-width="1.5" d="M243,-35C243,-41 237,-47 231,-47"/>
<path fill="#ffffff" stroke="#ffffff" stroke-width="1.5" d="M169,-47C163,-47 157,-41 157,-35"/>
<path fill="#ffffff" stroke="#ffffff" stroke-width="1.5" d="M157,-13C157,-7 163,-1 169,-1"/>
<polyline fill="none" stroke="#2e3436" stroke-width="1.5" points="169,-1 231,-1 "/>
<path fill="none" stroke="#2e3436" stroke-width="1.5" d="M231,-1C237,-1 243,-7 243,-13"/>
<polyline fill="none" stroke="#2e3436" stroke-width="1.5" points="243,-13 243,-35 "/>
<path fill="none" stroke="#2e3436" stroke-width="1.5" d="M243,-35C243,-41 237,-47 231,-47"/>
<polyline fill="none" stroke="#2e3436" stroke-width="1.5" points="231,-47 169,-47 "/>
<path fill="none" stroke="#2e3436" stroke-width="1.5" d="M169,-47C163,-47 157,-41 157,-35"/>
<polyline fill="none" stroke="#2e3436" stroke-width="1.5" points="157,-35 157,-13 "/>
<path fill="none" stroke="#2e3436" stroke-width="1.5" d="M157,-13C157,-7 163,-1 169,-1"/>
<text text-anchor="middle" x="200" y="-35.8" font-family="FreeSans" font-size="8.00" fill="#1c2021">Movie</text>
<polyline fill="none" stroke="#2e3436" stroke-width="1.5" points="157,-29 243,-29 "/>
<text text-anchor="start" x="165" y="-17.8" font-family="FreeSans" font-size="8.00" fill="#1c2021">name = &#39;WallStreet&#39;</text>
<text text-anchor="start" x="165" y="-7.8" font-family="FreeSans" font-size="8.00" fill="#1c2021">title = &#39;Wall Street&#39;</text>
</g>
<!-- N0&#45;&gt;N4 -->
<g id="edge2" class="edge"><title>N0&#45;&gt;N4</title>
<path fill="none" stroke="#2e3436" stroke-width="2" d="M54.6002,-104.839C61.3223,-92.3799 71.7434,-76.2982 85,-66 103.769,-51.4197 128.082,-41.5635 149.514,-35.0862"/>
<polygon fill="#2e3436" stroke="#2e3436" points="156.962,-32.9338 150.694,-38.2586 153.498,-34.4554 149.895,-35.4967 149.756,-35.0163 149.618,-34.536 153.22,-33.4947 148.819,-31.774 156.962,-32.9338 156.962,-32.9338"/>
<text text-anchor="middle" x="106.5" y="-73.8" font-family="FreeSans" font-size="8.00" fill="#2e3436">DIRECTED</text>
</g>
<!-- N1 -->
<g id="node4" class="node"><title>N1</title>
<polygon fill="#ffffff" stroke="#ffffff" stroke-width="1.5" points="398,-189 474,-189 486,-201 486,-213 474,-225 398,-225 386,-213 386,-201 398,-189"/>
<path fill="#ffffff" stroke="#ffffff" stroke-width="1.5" d="M474,-189C480,-189 486,-195 486,-201"/>
<path fill="#ffffff" stroke="#ffffff" stroke-width="1.5" d="M486,-213C486,-219 480,-225 474,-225"/>
<path fill="#ffffff" stroke="#ffffff" stroke-width="1.5" d="M398,-225C392,-225 386,-219 386,-213"/>
<path fill="#ffffff" stroke="#ffffff" stroke-width="1.5" d="M386,-201C386,-195 392,-189 398,-189"/>
<polyline fill="none" stroke="#2e3436" stroke-width="1.5" points="398,-189 474,-189 "/>
<path fill="none" stroke="#2e3436" stroke-width="1.5" d="M474,-189C480,-189 486,-195 486,-201"/>
<polyline fill="none" stroke="#2e3436" stroke-width="1.5" points="486,-201 486,-213 "/>
<path fill="none" stroke="#2e3436" stroke-width="1.5" d="M486,-213C486,-219 480,-225 474,-225"/>
<polyline fill="none" stroke="#2e3436" stroke-width="1.5" points="474,-225 398,-225 "/>
<path fill="none" stroke="#2e3436" stroke-width="1.5" d="M398,-225C392,-225 386,-219 386,-213"/>
<polyline fill="none" stroke="#2e3436" stroke-width="1.5" points="386,-213 386,-201 "/>
<path fill="none" stroke="#2e3436" stroke-width="1.5" d="M386,-201C386,-195 392,-189 398,-189"/>
<text text-anchor="middle" x="436" y="-213.8" font-family="FreeSans" font-size="8.00" fill="#1c2021">Person</text>
<polyline fill="none" stroke="#2e3436" stroke-width="1.5" points="386,-207 486,-207 "/>
<text text-anchor="start" x="394" y="-195.8" font-family="FreeSans" font-size="8.00" fill="#1c2021">name = &#39;Charlie Sheen&#39;</text>
</g>
<!-- N1&#45;&gt;N4 -->
<g id="edge4" class="edge"><title>N1&#45;&gt;N4</title>
<path fill="none" stroke="#4e9a06" stroke-width="2" d="M385.769,-202.317C314.889,-194.552 191.108,-176.349 164,-142 143.695,-116.271 160.53,-79.1361 177.358,-53.4261"/>
<polygon fill="#4e9a06" stroke="#4e9a06" points="181.613,-47.1498 180.198,-55.2515 179.922,-50.5342 177.818,-53.638 177.404,-53.3574 176.99,-53.0768 179.095,-49.973 174.611,-51.4634 181.613,-47.1498 181.613,-47.1498"/>
<text text-anchor="middle" x="184.5" y="-120.8" font-family="FreeSans" font-size="8.00" fill="#4e9a06">ACTED_IN</text>
</g>
<!-- N2 -->
<g id="node7" class="node"><title>N2</title>
<polygon fill="#ffffff" stroke="#ffffff" stroke-width="1.5" points="501.5,-105 574.5,-105 586.5,-117 586.5,-129 574.5,-141 501.5,-141 489.5,-129 489.5,-117 501.5,-105"/>
<path fill="#ffffff" stroke="#ffffff" stroke-width="1.5" d="M574.5,-105C580.5,-105 586.5,-111 586.5,-117"/>
<path fill="#ffffff" stroke="#ffffff" stroke-width="1.5" d="M586.5,-129C586.5,-135 580.5,-141 574.5,-141"/>
<path fill="#ffffff" stroke="#ffffff" stroke-width="1.5" d="M501.5,-141C495.5,-141 489.5,-135 489.5,-129"/>
<path fill="#ffffff" stroke="#ffffff" stroke-width="1.5" d="M489.5,-117C489.5,-111 495.5,-105 501.5,-105"/>
<polyline fill="none" stroke="#2e3436" stroke-width="1.5" points="501.5,-105 574.5,-105 "/>
<path fill="none" stroke="#2e3436" stroke-width="1.5" d="M574.5,-105C580.5,-105 586.5,-111 586.5,-117"/>
<polyline fill="none" stroke="#2e3436" stroke-width="1.5" points="586.5,-117 586.5,-129 "/>
<path fill="none" stroke="#2e3436" stroke-width="1.5" d="M586.5,-129C586.5,-135 580.5,-141 574.5,-141"/>
<polyline fill="none" stroke="#2e3436" stroke-width="1.5" points="574.5,-141 501.5,-141 "/>
<path fill="none" stroke="#2e3436" stroke-width="1.5" d="M501.5,-141C495.5,-141 489.5,-135 489.5,-129"/>
<polyline fill="none" stroke="#2e3436" stroke-width="1.5" points="489.5,-129 489.5,-117 "/>
<path fill="none" stroke="#2e3436" stroke-width="1.5" d="M489.5,-117C489.5,-111 495.5,-105 501.5,-105"/>
<text text-anchor="middle" x="538" y="-129.8" font-family="FreeSans" font-size="8.00" fill="#1c2021">Person</text>
<polyline fill="none" stroke="#2e3436" stroke-width="1.5" points="489.5,-123 586.5,-123 "/>
<text text-anchor="start" x="497.5" y="-111.8" font-family="FreeSans" font-size="8.00" fill="#1c2021">name = &#39;Martin Sheen&#39;</text>
</g>
<!-- N1&#45;&gt;N2 -->
<g id="edge6" class="edge"><title>N1&#45;&gt;N2</title>
<path fill="none" stroke="#a40000" stroke-width="2" d="M457.882,-188.98C473.105,-176.443 493.534,-159.619 509.952,-146.098"/>
<polygon fill="#a40000" stroke="#a40000" points="515.803,-141.28 512.159,-148.653 513.226,-144.05 510.331,-146.434 510.013,-146.048 509.695,-145.662 512.59,-143.278 507.868,-143.443 515.803,-141.28 515.803,-141.28"/>
<text text-anchor="middle" x="507" y="-162.8" font-family="FreeSans" font-size="8.00" fill="#a40000">FATHER</text>
</g>
<!-- N7 -->
<g id="node9" class="node"><title>N7</title>
<polygon fill="#ffffff" stroke="#ffffff" stroke-width="1.5" points="785,-6 817,-6 829,-18 829,-30 817,-42 785,-42 773,-30 773,-18 785,-6"/>
<path fill="#ffffff" stroke="#ffffff" stroke-width="1.5" d="M817,-6C823,-6 829,-12 829,-18"/>
<path fill="#ffffff" stroke="#ffffff" stroke-width="1.5" d="M829,-30C829,-36 823,-42 817,-42"/>
<path fill="#ffffff" stroke="#ffffff" stroke-width="1.5" d="M785,-42C779,-42 773,-36 773,-30"/>
<path fill="#ffffff" stroke="#ffffff" stroke-width="1.5" d="M773,-18C773,-12 779,-6 785,-6"/>
<polyline fill="none" stroke="#2e3436" stroke-width="1.5" points="785,-6 817,-6 "/>
<path fill="none" stroke="#2e3436" stroke-width="1.5" d="M817,-6C823,-6 829,-12 829,-18"/>
<polyline fill="none" stroke="#2e3436" stroke-width="1.5" points="829,-18 829,-30 "/>
<path fill="none" stroke="#2e3436" stroke-width="1.5" d="M829,-30C829,-36 823,-42 817,-42"/>
<polyline fill="none" stroke="#2e3436" stroke-width="1.5" points="817,-42 785,-42 "/>
<path fill="none" stroke="#2e3436" stroke-width="1.5" d="M785,-42C779,-42 773,-36 773,-30"/>
<polyline fill="none" stroke="#2e3436" stroke-width="1.5" points="773,-30 773,-18 "/>
<path fill="none" stroke="#2e3436" stroke-width="1.5" d="M773,-18C773,-12 779,-6 785,-6"/>
<text text-anchor="middle" x="801" y="-30.8" font-family="FreeSans" font-size="8.00" fill="#1c2021">Unblocked</text>
<polyline fill="none" stroke="#2e3436" stroke-width="1.5" points="773,-24 829,-24 "/>
<text text-anchor="middle" x="801" y="-12.8" font-family="FreeSans" font-size="8.00" fill="#1c2021"> </text>
</g>
<!-- N1&#45;&gt;N7 -->
<g id="edge8" class="edge"><title>N1&#45;&gt;N7</title>
<path fill="none" stroke="#204a87" stroke-width="2" d="M486.127,-202.354C587.442,-192.457 808.877,-168.061 831,-142 853.352,-115.669 834.949,-74.8783 818.71,-48.8134"/>
<polygon fill="#204a87" stroke="#204a87" points="814.439,-42.1995 821.343,-46.6693 816.894,-45.0785 818.928,-48.2288 818.508,-48.5001 818.088,-48.7713 816.054,-45.621 815.673,-50.3309 814.439,-42.1995 814.439,-42.1995"/>
<text text-anchor="middle" x="868.5" y="-125.8" font-family="FreeSans" font-size="8.00" fill="#204a87">X</text>
<text text-anchor="start" x="841" y="-115.8" font-family="FreeSans" font-size="8.00" fill="#204a87">blocked = false</text>
</g>
<!-- N8 -->
<g id="node11" class="node"><title>N8</title>
<polygon fill="#ffffff" stroke="#ffffff" stroke-width="1.5" points="407,-6 437,-6 449,-18 449,-30 437,-42 407,-42 395,-30 395,-18 407,-6"/>
<path fill="#ffffff" stroke="#ffffff" stroke-width="1.5" d="M437,-6C443,-6 449,-12 449,-18"/>
<path fill="#ffffff" stroke="#ffffff" stroke-width="1.5" d="M449,-30C449,-36 443,-42 437,-42"/>
<path fill="#ffffff" stroke="#ffffff" stroke-width="1.5" d="M407,-42C401,-42 395,-36 395,-30"/>
<path fill="#ffffff" stroke="#ffffff" stroke-width="1.5" d="M395,-18C395,-12 401,-6 407,-6"/>
<polyline fill="none" stroke="#2e3436" stroke-width="1.5" points="407,-6 437,-6 "/>
<path fill="none" stroke="#2e3436" stroke-width="1.5" d="M437,-6C443,-6 449,-12 449,-18"/>
<polyline fill="none" stroke="#2e3436" stroke-width="1.5" points="449,-18 449,-30 "/>
<path fill="none" stroke="#2e3436" stroke-width="1.5" d="M449,-30C449,-36 443,-42 437,-42"/>
<polyline fill="none" stroke="#2e3436" stroke-width="1.5" points="437,-42 407,-42 "/>
<path fill="none" stroke="#2e3436" stroke-width="1.5" d="M407,-42C401,-42 395,-36 395,-30"/>
<polyline fill="none" stroke="#2e3436" stroke-width="1.5" points="395,-30 395,-18 "/>
<path fill="none" stroke="#2e3436" stroke-width="1.5" d="M395,-18C395,-12 401,-6 407,-6"/>
<text text-anchor="middle" x="422" y="-30.8" font-family="FreeSans" font-size="8.00" fill="#1c2021">Blocked</text>
<polyline fill="none" stroke="#2e3436" stroke-width="1.5" points="395,-24 449,-24 "/>
<text text-anchor="middle" x="422" y="-12.8" font-family="FreeSans" font-size="8.00" fill="#1c2021"> </text>
</g>
<!-- N1&#45;&gt;N8 -->
<g id="edge10" class="edge"><title>N1&#45;&gt;N8</title>
<path fill="none" stroke="#204a87" stroke-width="2" d="M419.23,-188.613C400.1,-166.273 369.928,-126.52 358,-86 355.49,-77.4729 353.777,-73.8219 358,-66 364.544,-53.8777 376.282,-44.6863 387.934,-38.0398"/>
<polygon fill="#204a87" stroke="#204a87" points="394.745,-34.4176 389.708,-40.9191 391.669,-36.6199 388.358,-38.3808 388.123,-37.9393 387.888,-37.4979 391.199,-35.737 386.538,-34.9595 394.745,-34.4176 394.745,-34.4176"/>
<text text-anchor="middle" x="409" y="-125.8" font-family="FreeSans" font-size="8.00" fill="#204a87">X</text>
<text text-anchor="start" x="383" y="-115.8" font-family="FreeSans" font-size="8.00" fill="#204a87">blocked = true</text>
</g>
<!-- N2&#45;&gt;N4 -->
<g id="edge12" class="edge"><title>N2&#45;&gt;N4</title>
<path fill="none" stroke="#4e9a06" stroke-width="2" d="M489.469,-112.268C459.489,-105.372 420.321,-95.879 386,-86 339.694,-72.6714 287.725,-55.125 250.515,-42.1012"/>
<polygon fill="#4e9a06" stroke="#4e9a06" points="243.276,-39.5593 251.47,-38.8597 246.98,-40.3299 250.518,-41.5723 250.352,-42.0441 250.187,-42.5159 246.648,-41.2734 249.234,-45.2285 243.276,-39.5593 243.276,-39.5593"/>
<text text-anchor="middle" x="406.5" y="-73.8" font-family="FreeSans" font-size="8.00" fill="#4e9a06">ACTED_IN</text>
</g>
<!-- N2&#45;&gt;N7 -->
<g id="edge16" class="edge"><title>N2&#45;&gt;N7</title>
<path fill="none" stroke="#204a87" stroke-width="2" d="M586.665,-109.366C607.903,-102.967 632.941,-94.8123 655,-86 673.828,-78.4785 677.464,-74.2149 696,-66 718.961,-55.8241 745.192,-45.331 765.692,-37.3784"/>
<polygon fill="#204a87" stroke="#204a87" points="772.69,-34.6762 766.909,-40.5265 769.372,-36.4936 765.873,-37.8445 765.693,-37.3781 765.513,-36.9117 769.011,-35.5607 764.477,-34.2297 772.69,-34.6762 772.69,-34.6762"/>
<text text-anchor="middle" x="723.5" y="-78.8" font-family="FreeSans" font-size="8.00" fill="#204a87">X</text>
<text text-anchor="start" x="696" y="-68.8" font-family="FreeSans" font-size="8.00" fill="#204a87">blocked = false</text>
</g>
<!-- N2&#45;&gt;N8 -->
<g id="edge18" class="edge"><title>N2&#45;&gt;N8</title>
<path fill="none" stroke="#204a87" stroke-width="2" d="M530.739,-104.742C525.161,-92.556 516.468,-76.8393 505,-66 491.158,-52.9169 472.454,-42.9743 456.306,-36.0555"/>
<polygon fill="#204a87" stroke="#204a87" points="449.093,-33.0889 457.313,-32.8203 452.751,-34.0528 456.219,-35.4793 456.029,-35.9417 455.839,-36.4041 452.371,-34.9777 454.745,-39.063 449.093,-33.0889 449.093,-33.0889"/>
<text text-anchor="middle" x="547.5" y="-78.8" font-family="FreeSans" font-size="8.00" fill="#204a87">X</text>
<text text-anchor="start" x="520" y="-68.8" font-family="FreeSans" font-size="8.00" fill="#204a87">blocked = false</text>
</g>
<!-- N3 -->
<g id="node14" class="node"><title>N3</title>
<polygon fill="#ffffff" stroke="#ffffff" stroke-width="1.5" points="573.5,-1 680.5,-1 692.5,-13 692.5,-35 680.5,-47 573.5,-47 561.5,-35 561.5,-13 573.5,-1"/>
<path fill="#ffffff" stroke="#ffffff" stroke-width="1.5" d="M680.5,-1C686.5,-1 692.5,-7 692.5,-13"/>
<path fill="#ffffff" stroke="#ffffff" stroke-width="1.5" d="M692.5,-35C692.5,-41 686.5,-47 680.5,-47"/>
<path fill="#ffffff" stroke="#ffffff" stroke-width="1.5" d="M573.5,-47C567.5,-47 561.5,-41 561.5,-35"/>
<path fill="#ffffff" stroke="#ffffff" stroke-width="1.5" d="M561.5,-13C561.5,-7 567.5,-1 573.5,-1"/>
<polyline fill="none" stroke="#2e3436" stroke-width="1.5" points="573.5,-1 680.5,-1 "/>
<path fill="none" stroke="#2e3436" stroke-width="1.5" d="M680.5,-1C686.5,-1 692.5,-7 692.5,-13"/>
<polyline fill="none" stroke="#2e3436" stroke-width="1.5" points="692.5,-13 692.5,-35 "/>
<path fill="none" stroke="#2e3436" stroke-width="1.5" d="M692.5,-35C692.5,-41 686.5,-47 680.5,-47"/>
<polyline fill="none" stroke="#2e3436" stroke-width="1.5" points="680.5,-47 573.5,-47 "/>
<path fill="none" stroke="#2e3436" stroke-width="1.5" d="M573.5,-47C567.5,-47 561.5,-41 561.5,-35"/>
<polyline fill="none" stroke="#2e3436" stroke-width="1.5" points="561.5,-35 561.5,-13 "/>
<path fill="none" stroke="#2e3436" stroke-width="1.5" d="M561.5,-13C561.5,-7 567.5,-1 573.5,-1"/>
<text text-anchor="middle" x="627" y="-35.8" font-family="FreeSans" font-size="8.00" fill="#1c2021">Movie</text>
<polyline fill="none" stroke="#2e3436" stroke-width="1.5" points="561.5,-29 692.5,-29 "/>
<text text-anchor="start" x="569.5" y="-17.8" font-family="FreeSans" font-size="8.00" fill="#1c2021">name = &#39;TheAmericanPresident&#39;</text>
<text text-anchor="start" x="569.5" y="-7.8" font-family="FreeSans" font-size="8.00" fill="#1c2021">title = &#39;The American President&#39;</text>
</g>
<!-- N2&#45;&gt;N3 -->
<g id="edge14" class="edge"><title>N2&#45;&gt;N3</title>
<path fill="none" stroke="#4e9a06" stroke-width="2" d="M571.242,-104.949C579.318,-99.56 587.493,-93.1551 594,-86 602.413,-76.7501 609.38,-64.9632 614.711,-54.1557"/>
<polygon fill="#4e9a06" stroke="#4e9a06" points="617.976,-47.2315 617.83,-55.4546 616.829,-50.8366 615.229,-54.2283 614.777,-54.0151 614.325,-53.8018 615.924,-50.41 611.725,-52.5755 617.976,-47.2315 617.976,-47.2315"/>
<text text-anchor="middle" x="627.5" y="-73.8" font-family="FreeSans" font-size="8.00" fill="#4e9a06">ACTED_IN</text>
</g>
<!-- N5 -->
<g id="node17" class="node"><title>N5</title>
<polygon fill="#ffffff" stroke="#ffffff" stroke-width="1.5" points="738,-105 804,-105 816,-117 816,-129 804,-141 738,-141 726,-129 726,-117 738,-105"/>
<path fill="#ffffff" stroke="#ffffff" stroke-width="1.5" d="M804,-105C810,-105 816,-111 816,-117"/>
<path fill="#ffffff" stroke="#ffffff" stroke-width="1.5" d="M816,-129C816,-135 810,-141 804,-141"/>
<path fill="#ffffff" stroke="#ffffff" stroke-width="1.5" d="M738,-141C732,-141 726,-135 726,-129"/>
<path fill="#ffffff" stroke="#ffffff" stroke-width="1.5" d="M726,-117C726,-111 732,-105 738,-105"/>
<polyline fill="none" stroke="#2e3436" stroke-width="1.5" points="738,-105 804,-105 "/>
<path fill="none" stroke="#2e3436" stroke-width="1.5" d="M804,-105C810,-105 816,-111 816,-117"/>
<polyline fill="none" stroke="#2e3436" stroke-width="1.5" points="816,-117 816,-129 "/>
<path fill="none" stroke="#2e3436" stroke-width="1.5" d="M816,-129C816,-135 810,-141 804,-141"/>
<polyline fill="none" stroke="#2e3436" stroke-width="1.5" points="804,-141 738,-141 "/>
<path fill="none" stroke="#2e3436" stroke-width="1.5" d="M738,-141C732,-141 726,-135 726,-129"/>
<polyline fill="none" stroke="#2e3436" stroke-width="1.5" points="726,-129 726,-117 "/>
<path fill="none" stroke="#2e3436" stroke-width="1.5" d="M726,-117C726,-111 732,-105 738,-105"/>
<text text-anchor="middle" x="771" y="-129.8" font-family="FreeSans" font-size="8.00" fill="#1c2021">Person</text>
<polyline fill="none" stroke="#2e3436" stroke-width="1.5" points="726,-123 816,-123 "/>
<text text-anchor="start" x="734" y="-111.8" font-family="FreeSans" font-size="8.00" fill="#1c2021">name = &#39;Rob Reiner&#39;</text>
</g>
<!-- N5&#45;&gt;N3 -->
<g id="edge20" class="edge"><title>N5&#45;&gt;N3</title>
<path fill="none" stroke="#2e3436" stroke-width="2" d="M771.329,-104.946C770.594,-92.5362 767.607,-76.4707 758,-66 749.403,-56.6298 725.291,-47.7877 700.059,-40.6557"/>
<polygon fill="#2e3436" stroke="#2e3436" points="692.568,-38.5948 700.695,-37.3303 696.317,-39.1075 699.932,-40.1023 699.8,-40.5844 699.667,-41.0665 696.051,-40.0717 698.904,-43.8385 692.568,-38.5948 692.568,-38.5948"/>
<text text-anchor="middle" x="789.5" y="-73.8" font-family="FreeSans" font-size="8.00" fill="#2e3436">DIRECTED</text>
</g>
<!-- N6 -->
<g id="node19" class="node"><title>N6</title>
<polygon fill="#ffffff" stroke="#ffffff" stroke-width="1.5" points="232,-105 316,-105 328,-117 328,-129 316,-141 232,-141 220,-129 220,-117 232,-105"/>
<path fill="#ffffff" stroke="#ffffff" stroke-width="1.5" d="M316,-105C322,-105 328,-111 328,-117"/>
<path fill="#ffffff" stroke="#ffffff" stroke-width="1.5" d="M328,-129C328,-135 322,-141 316,-141"/>
<path fill="#ffffff" stroke="#ffffff" stroke-width="1.5" d="M232,-141C226,-141 220,-135 220,-129"/>
<path fill="#ffffff" stroke="#ffffff" stroke-width="1.5" d="M220,-117C220,-111 226,-105 232,-105"/>
<polyline fill="none" stroke="#2e3436" stroke-width="1.5" points="232,-105 316,-105 "/>
<path fill="none" stroke="#2e3436" stroke-width="1.5" d="M316,-105C322,-105 328,-111 328,-117"/>
<polyline fill="none" stroke="#2e3436" stroke-width="1.5" points="328,-117 328,-129 "/>
<path fill="none" stroke="#2e3436" stroke-width="1.5" d="M328,-129C328,-135 322,-141 316,-141"/>
<polyline fill="none" stroke="#2e3436" stroke-width="1.5" points="316,-141 232,-141 "/>
<path fill="none" stroke="#2e3436" stroke-width="1.5" d="M232,-141C226,-141 220,-135 220,-129"/>
<polyline fill="none" stroke="#2e3436" stroke-width="1.5" points="220,-129 220,-117 "/>
<path fill="none" stroke="#2e3436" stroke-width="1.5" d="M220,-117C220,-111 226,-105 232,-105"/>
<text text-anchor="middle" x="274" y="-129.8" font-family="FreeSans" font-size="8.00" fill="#1c2021">Person</text>
<polyline fill="none" stroke="#2e3436" stroke-width="1.5" points="220,-123 328,-123 "/>
<text text-anchor="start" x="228" y="-111.8" font-family="FreeSans" font-size="8.00" fill="#1c2021">name = &#39;Michael Douglas&#39;</text>
</g>
<!-- N6&#45;&gt;N4 -->
<g id="edge22" class="edge"><title>N6&#45;&gt;N4</title>
<path fill="none" stroke="#4e9a06" stroke-width="2" d="M260.427,-104.842C249.745,-90.5508 234.637,-70.3387 222.2,-53.7002"/>
<polygon fill="#4e9a06" stroke="#4e9a06" points="217.405,-47.2854 224.599,-51.272 220.051,-49.9897 222.296,-52.9933 221.896,-53.2927 221.495,-53.592 219.25,-50.5884 219.192,-55.3133 217.405,-47.2854 217.405,-47.2854"/>
<text text-anchor="middle" x="266.5" y="-73.8" font-family="FreeSans" font-size="8.00" fill="#4e9a06">ACTED_IN</text>
</g>
<!-- N6&#45;&gt;N3 -->
<g id="edge24" class="edge"><title>N6&#45;&gt;N3</title>
<path fill="none" stroke="#4e9a06" stroke-width="2" d="M328.347,-109.248C335.62,-107.456 342.987,-105.665 350,-104 385.458,-95.5799 396.865,-101.174 430,-86 443.578,-79.7823 443.488,-72.3592 457,-66 487.176,-51.7981 522.708,-42.0553 553.464,-35.5579"/>
<polygon fill="#4e9a06" stroke="#4e9a06" points="561.174,-33.9752 554.506,-38.7894 557.601,-35.2191 553.928,-35.9731 553.827,-35.4834 553.726,-34.9936 557.4,-34.2395 553.148,-32.1773 561.174,-33.9752 561.174,-33.9752"/>
<text text-anchor="middle" x="477.5" y="-73.8" font-family="FreeSans" font-size="8.00" fill="#4e9a06">ACTED_IN</text>
</g>
</g>
</svg>
