<?xml version="1.0" encoding="UTF-8" standalone="no"?>
<!DOCTYPE svg PUBLIC "-//W3C//DTD SVG 1.1//EN"
 "http://www.w3.org/Graphics/SVG/1.1/DTD/svg11.dtd">
<!-- Generated by graphviz version 2.26.3 (20100126.1600)
 -->
<!-- Title: g Pages: 1 -->
<svg width="240pt" height="296pt"
 viewBox="0.00 0.00 240.00 296.00" xmlns="http://www.w3.org/2000/svg" xmlns:xlink="http://www.w3.org/1999/xlink">
<g id="graph1" class="graph" transform="scale(1 1) rotate(0) translate(4 292)">
<title>g</title>
<polygon fill="white" stroke="white" points="-4,5 -4,-292 237,-292 237,5 -4,5"/>
<!-- TV Show -->
<g id="node1" class="node"><title>TV Show</title>
<polygon fill="white" stroke="#2e3436" stroke-width="1.5" points="143,-288 89,-288 89,-252 143,-252 143,-288"/>
<text text-anchor="middle" x="116" y="-267" font-family="FreeSans" font-size="10.00" fill="#1c2021">TV Show</text>
</g>
<!-- Season -->
<g id="node3" class="node"><title>Season</title>
<polygon fill="white" stroke="#2e3436" stroke-width="1.5" points="143,-204 89,-204 89,-168 143,-168 143,-204"/>
<text text-anchor="middle" x="116" y="-183" font-family="FreeSans" font-size="10.00" fill="#1c2021">Season</text>
</g>
<!-- TV Show&#45;&gt;Season -->
<g id="edge2" class="edge"><title>TV Show&#45;&gt;Season</title>
<path fill="none" stroke="#2e3436" d="M116,-251.773C116,-240.105 116,-224.787 116,-211.87"/>
<polygon fill="#2e3436" stroke="#2e3436" points="116,-211.691 119.375,-204.191 116,-207.941 116,-204.191 116,-204.191 116,-204.191 116,-207.941 112.625,-204.191 116,-211.691 116,-211.691"/>
<text text-anchor="middle" x="124" y="-225" font-family="FreeSans" font-size="10.00" fill="#1c2021">has</text>
</g>
<!-- Episode -->
<g id="node5" class="node"><title>Episode</title>
<polygon fill="white" stroke="#2e3436" stroke-width="1.5" points="143,-120 89,-120 89,-84 143,-84 143,-120"/>
<text text-anchor="middle" x="116" y="-99" font-family="FreeSans" font-size="10.00" fill="#1c2021">Episode</text>
</g>
<!-- Season&#45;&gt;Episode -->
<g id="edge4" class="edge"><title>Season&#45;&gt;Episode</title>
<path fill="none" stroke="#2e3436" d="M116,-167.773C116,-156.105 116,-140.787 116,-127.87"/>
<polygon fill="#2e3436" stroke="#2e3436" points="116,-127.691 119.375,-120.191 116,-123.941 116,-120.191 116,-120.191 116,-120.191 116,-123.941 112.625,-120.191 116,-127.691 116,-127.691"/>
<text text-anchor="middle" x="124" y="-141" font-family="FreeSans" font-size="10.00" fill="#1c2021">has</text>
</g>
<!-- Review -->
<g id="node8" class="node"><title>Review</title>
<polygon fill="white" stroke="#2e3436" stroke-width="1.5" points="89,-36 35,-36 35,-1.77636e-14 89,-3.55271e-15 89,-36"/>
<text text-anchor="middle" x="62" y="-15" font-family="FreeSans" font-size="10.00" fill="#1c2021">Review</text>
</g>
<!-- Episode&#45;&gt;Review -->
<g id="edge8" class="edge"><title>Episode&#45;&gt;Review</title>
<path fill="none" stroke="#2e3436" d="M104.283,-83.7733C96.5697,-71.7751 86.3755,-55.9174 77.9294,-42.779"/>
<polygon fill="#2e3436" stroke="#2e3436" points="77.7501,-42.5 76.5333,-34.3661 75.7222,-39.3456 73.6943,-36.1912 73.6943,-36.1912 73.6943,-36.1912 75.7222,-39.3456 70.8553,-38.0163 77.7501,-42.5 77.7501,-42.5"/>
<text text-anchor="middle" x="101" y="-57" font-family="FreeSans" font-size="10.00" fill="#1c2021">has</text>
</g>
<!-- Character -->
<g id="node11" class="node"><title>Character</title>
<polygon fill="white" stroke="#2e3436" stroke-width="1.5" points="187,-36 129,-36 129,-1.77636e-14 187,-3.55271e-15 187,-36"/>
<text text-anchor="middle" x="158" y="-15" font-family="FreeSans" font-size="10.00" fill="#1c2021">Character</text>
</g>
<!-- Episode&#45;&gt;Character -->
<g id="edge10" class="edge"><title>Episode&#45;&gt;Character</title>
<path fill="none" stroke="#2e3436" d="M121.198,-83.7461C124.123,-74.5775 128.161,-63.4406 133,-54 135.001,-50.0959 137.369,-46.1242 139.837,-42.3136"/>
<polygon fill="#2e3436" stroke="#2e3436" points="139.841,-42.3084 146.835,-37.9815 141.939,-39.2006 144.038,-36.0927 144.038,-36.0927 144.038,-36.0927 141.939,-39.2006 141.241,-34.204 139.841,-42.3084 139.841,-42.3084"/>
<text text-anchor="middle" x="151" y="-57" font-family="FreeSans" font-size="10.00" fill="#1c2021">featured</text>
</g>
<!-- User -->
<g id="node6" class="node"><title>User</title>
<polygon fill="white" stroke="#2e3436" stroke-width="1.5" points="54,-120 2.13163e-14,-120 0,-84 54,-84 54,-120"/>
<text text-anchor="middle" x="27" y="-99" font-family="FreeSans" font-size="10.00" fill="#1c2021">User</text>
</g>
<!-- User&#45;&gt;Review -->
<g id="edge6" class="edge"><title>User&#45;&gt;Review</title>
<path fill="none" stroke="#2e3436" d="M22.6099,-83.5596C21.3027,-74.3435 21.1066,-63.2204 25,-54 26.8304,-49.6653 29.4661,-45.5945 32.4999,-41.8616"/>
<polygon fill="#2e3436" stroke="#2e3436" points="32.5098,-41.8507 40.0413,-38.5464 35.0231,-39.0675 37.5364,-36.2844 37.5364,-36.2844 37.5364,-36.2844 35.0231,-39.0675 35.0316,-34.0224 32.5098,-41.8507 32.5098,-41.8507"/>
<text text-anchor="middle" x="37" y="-57" font-family="FreeSans" font-size="10.00" fill="#1c2021">wrote</text>
</g>
<!-- Actor -->
<g id="node12" class="node"><title>Actor</title>
<polygon fill="white" stroke="#2e3436" stroke-width="1.5" points="232,-120 178,-120 178,-84 232,-84 232,-120"/>
<text text-anchor="middle" x="205" y="-99" font-family="FreeSans" font-size="10.00" fill="#1c2021">Actor</text>
</g>
<!-- Actor&#45;&gt;Character -->
<g id="edge12" class="edge"><title>Actor&#45;&gt;Character</title>
<path fill="none" stroke="#2e3436" d="M191.114,-77.182C185.081,-66.4 178.027,-53.7926 171.983,-42.9911"/>
<polygon fill="#2e3436" stroke="#2e3436" points="191.139,-77.2281 191.856,-85.4212 192.971,-80.5007 194.802,-83.7733 194.802,-83.7733 194.802,-83.7733 192.971,-80.5007 197.747,-82.1253 191.139,-77.2281 191.139,-77.2281"/>
<polygon fill="#2e3436" stroke="#2e3436" points="171.841,-42.7363 171.124,-34.5432 170.009,-39.4637 168.178,-36.1912 168.178,-36.1912 168.178,-36.1912 170.009,-39.4637 165.233,-37.8392 171.841,-42.7363 171.841,-42.7363"/>
<text text-anchor="middle" x="198" y="-57" font-family="FreeSans" font-size="10.00" fill="#1c2021">played</text>
</g>
</g>
</svg>
