<?xml version="1.0" encoding="UTF-8" standalone="no"?>
<!DOCTYPE svg PUBLIC "-//W3C//DTD SVG 1.1//EN"
 "http://www.w3.org/Graphics/SVG/1.1/DTD/svg11.dtd">
<!-- Generated by graphviz version 2.26.3 (20100126.1600)
 -->
<!-- Title: g Pages: 1 -->
<svg width="200pt" height="486pt"
 viewBox="0.00 0.00 200.00 486.00" xmlns="http://www.w3.org/2000/svg" xmlns:xlink="http://www.w3.org/1999/xlink">
<g id="graph1" class="graph" transform="scale(1 1) rotate(0) translate(4 482)">
<title>g</title>
<polygon fill="white" stroke="white" points="-4,5 -4,-482 197,-482 197,5 -4,5"/>
<!-- N0 -->
<g id="node1" class="node"><title>N0</title>
<polygon fill="#ffffff" stroke="#ffffff" stroke-width="1.5" points="50,-441 80,-441 92,-453 92,-465 80,-477 50,-477 38,-465 38,-453 50,-441"/>
<path fill="#ffffff" stroke="#ffffff" stroke-width="1.5" d="M80,-441C86,-441 92,-447 92,-453"/>
<path fill="#ffffff" stroke="#ffffff" stroke-width="1.5" d="M92,-465C92,-471 86,-477 80,-477"/>
<path fill="#ffffff" stroke="#ffffff" stroke-width="1.5" d="M50,-477C44,-477 38,-471 38,-465"/>
<path fill="#ffffff" stroke="#ffffff" stroke-width="1.5" d="M38,-453C38,-447 44,-441 50,-441"/>
<polyline fill="none" stroke="#2e3436" stroke-width="1.5" points="50,-441 80,-441 "/>
<path fill="none" stroke="#2e3436" stroke-width="1.5" d="M80,-441C86,-441 92,-447 92,-453"/>
<polyline fill="none" stroke="#2e3436" stroke-width="1.5" points="92,-453 92,-465 "/>
<path fill="none" stroke="#2e3436" stroke-width="1.5" d="M92,-465C92,-471 86,-477 80,-477"/>
<polyline fill="none" stroke="#2e3436" stroke-width="1.5" points="80,-477 50,-477 "/>
<path fill="none" stroke="#2e3436" stroke-width="1.5" d="M50,-477C44,-477 38,-471 38,-465"/>
<polyline fill="none" stroke="#2e3436" stroke-width="1.5" points="38,-465 38,-453 "/>
<path fill="none" stroke="#2e3436" stroke-width="1.5" d="M38,-453C38,-447 44,-441 50,-441"/>
<text text-anchor="middle" x="65" y="-465.8" font-family="FreeSans" font-size="8.00" fill="#1c2021">Node[0]</text>
<polyline fill="none" stroke="#2e3436" stroke-width="1.5" points="38,-459 92,-459 "/>
<text text-anchor="middle" x="65" y="-447.8" font-family="FreeSans" font-size="8.00" fill="#1c2021"> </text>
</g>
<!-- N1 -->
<g id="node3" class="node"><title>N1</title>
<polygon fill="#ffffff" stroke="#ffffff" stroke-width="1.5" points="17.5,-357 112.5,-357 124.5,-369 124.5,-381 112.5,-393 17.5,-393 5.5,-381 5.5,-369 17.5,-357"/>
<path fill="#ffffff" stroke="#ffffff" stroke-width="1.5" d="M112.5,-357C118.5,-357 124.5,-363 124.5,-369"/>
<path fill="#ffffff" stroke="#ffffff" stroke-width="1.5" d="M124.5,-381C124.5,-387 118.5,-393 112.5,-393"/>
<path fill="#ffffff" stroke="#ffffff" stroke-width="1.5" d="M17.5,-393C11.5,-393 5.5,-387 5.5,-381"/>
<path fill="#ffffff" stroke="#ffffff" stroke-width="1.5" d="M5.5,-369C5.5,-363 11.5,-357 17.5,-357"/>
<polyline fill="none" stroke="#2e3436" stroke-width="1.5" points="17.5,-357 112.5,-357 "/>
<path fill="none" stroke="#2e3436" stroke-width="1.5" d="M112.5,-357C118.5,-357 124.5,-363 124.5,-369"/>
<polyline fill="none" stroke="#2e3436" stroke-width="1.5" points="124.5,-369 124.5,-381 "/>
<path fill="none" stroke="#2e3436" stroke-width="1.5" d="M124.5,-381C124.5,-387 118.5,-393 112.5,-393"/>
<polyline fill="none" stroke="#2e3436" stroke-width="1.5" points="112.5,-393 17.5,-393 "/>
<path fill="none" stroke="#2e3436" stroke-width="1.5" d="M17.5,-393C11.5,-393 5.5,-387 5.5,-381"/>
<polyline fill="none" stroke="#2e3436" stroke-width="1.5" points="5.5,-381 5.5,-369 "/>
<path fill="none" stroke="#2e3436" stroke-width="1.5" d="M5.5,-369C5.5,-363 11.5,-357 17.5,-357"/>
<text text-anchor="middle" x="65" y="-381.8" font-family="FreeSans" font-size="8.00" fill="#1c2021">Node[1]</text>
<polyline fill="none" stroke="#2e3436" stroke-width="1.5" points="5.5,-375 124.5,-375 "/>
<text text-anchor="start" x="13.5" y="-363.8" font-family="FreeSans" font-size="8.00" fill="#1c2021">name = &#39;Thomas Andersson&#39;</text>
</g>
<!-- N0&#45;&gt;N1 -->
<g id="edge2" class="edge"><title>N0&#45;&gt;N1</title>
<path fill="none" stroke="#2e3436" stroke-width="2" d="M65,-440.773C65,-429.105 65,-413.787 65,-400.87"/>
<polygon fill="#2e3436" stroke="#2e3436" points="65,-393.191 68.3751,-400.691 65.5,-396.941 65.5001,-400.691 65.0001,-400.691 64.5001,-400.691 64.5,-396.941 61.6251,-400.691 65,-393.191 65,-393.191"/>
<text text-anchor="middle" x="77.5" y="-414.8" font-family="FreeSans" font-size="8.00" fill="#2e3436">ROOT</text>
</g>
<!-- N2 -->
<g id="node5" class="node"><title>N2</title>
<polygon fill="#ffffff" stroke="#ffffff" stroke-width="1.5" points="11.5,-169 58.5,-169 70.5,-181 70.5,-193 58.5,-205 11.5,-205 -0.5,-193 -0.5,-181 11.5,-169"/>
<path fill="#ffffff" stroke="#ffffff" stroke-width="1.5" d="M58.5,-169C64.5,-169 70.5,-175 70.5,-181"/>
<path fill="#ffffff" stroke="#ffffff" stroke-width="1.5" d="M70.5,-193C70.5,-199 64.5,-205 58.5,-205"/>
<path fill="#ffffff" stroke="#ffffff" stroke-width="1.5" d="M11.5,-205C5.5,-205 -0.5,-199 -0.5,-193"/>
<path fill="#ffffff" stroke="#ffffff" stroke-width="1.5" d="M-0.5,-181C-0.5,-175 5.5,-169 11.5,-169"/>
<polyline fill="none" stroke="#2e3436" stroke-width="1.5" points="11.5,-169 58.5,-169 "/>
<path fill="none" stroke="#2e3436" stroke-width="1.5" d="M58.5,-169C64.5,-169 70.5,-175 70.5,-181"/>
<polyline fill="none" stroke="#2e3436" stroke-width="1.5" points="70.5,-181 70.5,-193 "/>
<path fill="none" stroke="#2e3436" stroke-width="1.5" d="M70.5,-193C70.5,-199 64.5,-205 58.5,-205"/>
<polyline fill="none" stroke="#2e3436" stroke-width="1.5" points="58.5,-205 11.5,-205 "/>
<path fill="none" stroke="#2e3436" stroke-width="1.5" d="M11.5,-205C5.5,-205 -0.5,-199 -0.5,-193"/>
<polyline fill="none" stroke="#2e3436" stroke-width="1.5" points="-0.5,-193 -0.5,-181 "/>
<path fill="none" stroke="#2e3436" stroke-width="1.5" d="M-0.5,-181C-0.5,-175 5.5,-169 11.5,-169"/>
<text text-anchor="middle" x="35" y="-193.8" font-family="FreeSans" font-size="8.00" fill="#1c2021">Node[2]</text>
<polyline fill="none" stroke="#2e3436" stroke-width="1.5" points="-0.5,-187 70.5,-187 "/>
<text text-anchor="start" x="7.5" y="-175.8" font-family="FreeSans" font-size="8.00" fill="#1c2021">name = &#39;Trinity&#39;</text>
</g>
<!-- N1&#45;&gt;N2 -->
<g id="edge4" class="edge"><title>N1&#45;&gt;N2</title>
<path fill="none" stroke="#4e9a06" stroke-width="2" d="M58.0971,-356.807C52.7273,-341.8 45.603,-319.832 42,-300 36.6257,-270.418 35.1747,-235.843 34.8773,-212.804"/>
<polygon fill="#4e9a06" stroke="#4e9a06" points="34.8156,-205.163 38.2511,-212.635 35.3459,-208.909 35.3762,-212.659 34.8762,-212.663 34.3762,-212.667 34.3459,-208.917 31.5013,-212.69 34.8156,-205.163 34.8156,-205.163"/>
<text text-anchor="middle" x="57.5" y="-278.8" font-family="FreeSans" font-size="8.00" fill="#4e9a06">KNOWS</text>
</g>
<!-- N3 -->
<g id="node7" class="node"><title>N3</title>
<polygon fill="#ffffff" stroke="#ffffff" stroke-width="1.5" points="99.5,-263 160.5,-263 172.5,-275 172.5,-287 160.5,-299 99.5,-299 87.5,-287 87.5,-275 99.5,-263"/>
<path fill="#ffffff" stroke="#ffffff" stroke-width="1.5" d="M160.5,-263C166.5,-263 172.5,-269 172.5,-275"/>
<path fill="#ffffff" stroke="#ffffff" stroke-width="1.5" d="M172.5,-287C172.5,-293 166.5,-299 160.5,-299"/>
<path fill="#ffffff" stroke="#ffffff" stroke-width="1.5" d="M99.5,-299C93.5,-299 87.5,-293 87.5,-287"/>
<path fill="#ffffff" stroke="#ffffff" stroke-width="1.5" d="M87.5,-275C87.5,-269 93.5,-263 99.5,-263"/>
<polyline fill="none" stroke="#2e3436" stroke-width="1.5" points="99.5,-263 160.5,-263 "/>
<path fill="none" stroke="#2e3436" stroke-width="1.5" d="M160.5,-263C166.5,-263 172.5,-269 172.5,-275"/>
<polyline fill="none" stroke="#2e3436" stroke-width="1.5" points="172.5,-275 172.5,-287 "/>
<path fill="none" stroke="#2e3436" stroke-width="1.5" d="M172.5,-287C172.5,-293 166.5,-299 160.5,-299"/>
<polyline fill="none" stroke="#2e3436" stroke-width="1.5" points="160.5,-299 99.5,-299 "/>
<path fill="none" stroke="#2e3436" stroke-width="1.5" d="M99.5,-299C93.5,-299 87.5,-293 87.5,-287"/>
<polyline fill="none" stroke="#2e3436" stroke-width="1.5" points="87.5,-287 87.5,-275 "/>
<path fill="none" stroke="#2e3436" stroke-width="1.5" d="M87.5,-275C87.5,-269 93.5,-263 99.5,-263"/>
<text text-anchor="middle" x="130" y="-287.8" font-family="FreeSans" font-size="8.00" fill="#1c2021">Node[3]</text>
<polyline fill="none" stroke="#2e3436" stroke-width="1.5" points="87.5,-281 172.5,-281 "/>
<text text-anchor="start" x="95.5" y="-269.8" font-family="FreeSans" font-size="8.00" fill="#1c2021">name = &#39;Morpheus&#39;</text>
</g>
<!-- N1&#45;&gt;N3 -->
<g id="edge6" class="edge"><title>N1&#45;&gt;N3</title>
<path fill="none" stroke="#4e9a06" stroke-width="2" d="M77.5327,-356.876C87.6039,-342.311 101.852,-321.706 112.959,-305.644"/>
<polygon fill="#4e9a06" stroke="#4e9a06" points="117.506,-299.069 116.016,-307.157 115.784,-302.437 113.651,-305.522 113.24,-305.237 112.829,-304.953 114.962,-301.869 110.464,-303.318 117.506,-299.069 117.506,-299.069"/>
<text text-anchor="middle" x="119.5" y="-330.8" font-family="FreeSans" font-size="8.00" fill="#4e9a06">KNOWS</text>
<text text-anchor="start" x="104" y="-320.8" font-family="FreeSans" font-size="8.00" fill="#4e9a06">age = 3</text>
</g>
<!-- N3&#45;&gt;N2 -->
<g id="edge8" class="edge"><title>N3&#45;&gt;N2</title>
<path fill="none" stroke="#4e9a06" stroke-width="2" d="M111.683,-262.876C96.5692,-247.921 75.0196,-226.598 58.6114,-210.363"/>
<polygon fill="#4e9a06" stroke="#4e9a06" points="53.2607,-205.069 60.9659,-207.945 56.2781,-207.351 58.9437,-209.988 58.592,-210.344 58.2404,-210.699 55.5747,-208.062 56.2182,-212.743 53.2607,-205.069 53.2607,-205.069"/>
<text text-anchor="middle" x="108" y="-236.8" font-family="FreeSans" font-size="8.00" fill="#4e9a06">KNOWS</text>
<text text-anchor="start" x="92" y="-226.8" font-family="FreeSans" font-size="8.00" fill="#4e9a06">age = 90</text>
</g>
<!-- N4 -->
<g id="node10" class="node"><title>N4</title>
<polygon fill="#ffffff" stroke="#ffffff" stroke-width="1.5" points="117.5,-169 168.5,-169 180.5,-181 180.5,-193 168.5,-205 117.5,-205 105.5,-193 105.5,-181 117.5,-169"/>
<path fill="#ffffff" stroke="#ffffff" stroke-width="1.5" d="M168.5,-169C174.5,-169 180.5,-175 180.5,-181"/>
<path fill="#ffffff" stroke="#ffffff" stroke-width="1.5" d="M180.5,-193C180.5,-199 174.5,-205 168.5,-205"/>
<path fill="#ffffff" stroke="#ffffff" stroke-width="1.5" d="M117.5,-205C111.5,-205 105.5,-199 105.5,-193"/>
<path fill="#ffffff" stroke="#ffffff" stroke-width="1.5" d="M105.5,-181C105.5,-175 111.5,-169 117.5,-169"/>
<polyline fill="none" stroke="#2e3436" stroke-width="1.5" points="117.5,-169 168.5,-169 "/>
<path fill="none" stroke="#2e3436" stroke-width="1.5" d="M168.5,-169C174.5,-169 180.5,-175 180.5,-181"/>
<polyline fill="none" stroke="#2e3436" stroke-width="1.5" points="180.5,-181 180.5,-193 "/>
<path fill="none" stroke="#2e3436" stroke-width="1.5" d="M180.5,-193C180.5,-199 174.5,-205 168.5,-205"/>
<polyline fill="none" stroke="#2e3436" stroke-width="1.5" points="168.5,-205 117.5,-205 "/>
<path fill="none" stroke="#2e3436" stroke-width="1.5" d="M117.5,-205C111.5,-205 105.5,-199 105.5,-193"/>
<polyline fill="none" stroke="#2e3436" stroke-width="1.5" points="105.5,-193 105.5,-181 "/>
<path fill="none" stroke="#2e3436" stroke-width="1.5" d="M105.5,-181C105.5,-175 111.5,-169 117.5,-169"/>
<text text-anchor="middle" x="143" y="-193.8" font-family="FreeSans" font-size="8.00" fill="#1c2021">Node[4]</text>
<polyline fill="none" stroke="#2e3436" stroke-width="1.5" points="105.5,-187 180.5,-187 "/>
<text text-anchor="start" x="113.5" y="-175.8" font-family="FreeSans" font-size="8.00" fill="#1c2021">name = &#39;Cypher&#39;</text>
</g>
<!-- N3&#45;&gt;N4 -->
<g id="edge10" class="edge"><title>N3&#45;&gt;N4</title>
<path fill="none" stroke="#4e9a06" stroke-width="2" d="M132.507,-262.876C134.485,-248.571 137.269,-228.44 139.472,-212.508"/>
<polygon fill="#4e9a06" stroke="#4e9a06" points="140.501,-205.069 142.817,-212.96 140.483,-208.852 139.969,-212.566 139.474,-212.498 138.978,-212.429 139.492,-208.715 136.13,-212.035 140.501,-205.069 140.501,-205.069"/>
<text text-anchor="middle" x="153.5" y="-231.8" font-family="FreeSans" font-size="8.00" fill="#4e9a06">KNOWS</text>
</g>
<!-- N5 -->
<g id="node12" class="node"><title>N5</title>
<polygon fill="#ffffff" stroke="#ffffff" stroke-width="1.5" points="109,-85 177,-85 189,-97 189,-109 177,-121 109,-121 97,-109 97,-97 109,-85"/>
<path fill="#ffffff" stroke="#ffffff" stroke-width="1.5" d="M177,-85C183,-85 189,-91 189,-97"/>
<path fill="#ffffff" stroke="#ffffff" stroke-width="1.5" d="M189,-109C189,-115 183,-121 177,-121"/>
<path fill="#ffffff" stroke="#ffffff" stroke-width="1.5" d="M109,-121C103,-121 97,-115 97,-109"/>
<path fill="#ffffff" stroke="#ffffff" stroke-width="1.5" d="M97,-97C97,-91 103,-85 109,-85"/>
<polyline fill="none" stroke="#2e3436" stroke-width="1.5" points="109,-85 177,-85 "/>
<path fill="none" stroke="#2e3436" stroke-width="1.5" d="M177,-85C183,-85 189,-91 189,-97"/>
<polyline fill="none" stroke="#2e3436" stroke-width="1.5" points="189,-97 189,-109 "/>
<path fill="none" stroke="#2e3436" stroke-width="1.5" d="M189,-109C189,-115 183,-121 177,-121"/>
<polyline fill="none" stroke="#2e3436" stroke-width="1.5" points="177,-121 109,-121 "/>
<path fill="none" stroke="#2e3436" stroke-width="1.5" d="M109,-121C103,-121 97,-115 97,-109"/>
<polyline fill="none" stroke="#2e3436" stroke-width="1.5" points="97,-109 97,-97 "/>
<path fill="none" stroke="#2e3436" stroke-width="1.5" d="M97,-97C97,-91 103,-85 109,-85"/>
<text text-anchor="middle" x="143" y="-109.8" font-family="FreeSans" font-size="8.00" fill="#1c2021">Node[5]</text>
<polyline fill="none" stroke="#2e3436" stroke-width="1.5" points="97,-103 189,-103 "/>
<text text-anchor="start" x="105" y="-91.8" font-family="FreeSans" font-size="8.00" fill="#1c2021">name = &#39;Agent Smith&#39;</text>
</g>
<!-- N4&#45;&gt;N5 -->
<g id="edge12" class="edge"><title>N4&#45;&gt;N5</title>
<path fill="none" stroke="#4e9a06" stroke-width="2" d="M143,-168.773C143,-157.105 143,-141.787 143,-128.87"/>
<polygon fill="#4e9a06" stroke="#4e9a06" points="143,-121.191 146.375,-128.691 143.5,-124.941 143.5,-128.691 143,-128.691 142.5,-128.691 142.5,-124.941 139.625,-128.691 143,-121.191 143,-121.191"/>
<text text-anchor="middle" x="158.5" y="-142.8" font-family="FreeSans" font-size="8.00" fill="#4e9a06">KNOWS</text>
</g>
<!-- N6 -->
<g id="node14" class="node"><title>N6</title>
<polygon fill="#ffffff" stroke="#ffffff" stroke-width="1.5" points="106,-1 180,-1 192,-13 192,-25 180,-37 106,-37 94,-25 94,-13 106,-1"/>
<path fill="#ffffff" stroke="#ffffff" stroke-width="1.5" d="M180,-1C186,-1 192,-7 192,-13"/>
<path fill="#ffffff" stroke="#ffffff" stroke-width="1.5" d="M192,-25C192,-31 186,-37 180,-37"/>
<path fill="#ffffff" stroke="#ffffff" stroke-width="1.5" d="M106,-37C100,-37 94,-31 94,-25"/>
<path fill="#ffffff" stroke="#ffffff" stroke-width="1.5" d="M94,-13C94,-7 100,-1 106,-1"/>
<polyline fill="none" stroke="#2e3436" stroke-width="1.5" points="106,-1 180,-1 "/>
<path fill="none" stroke="#2e3436" stroke-width="1.5" d="M180,-1C186,-1 192,-7 192,-13"/>
<polyline fill="none" stroke="#2e3436" stroke-width="1.5" points="192,-13 192,-25 "/>
<path fill="none" stroke="#2e3436" stroke-width="1.5" d="M192,-25C192,-31 186,-37 180,-37"/>
<polyline fill="none" stroke="#2e3436" stroke-width="1.5" points="180,-37 106,-37 "/>
<path fill="none" stroke="#2e3436" stroke-width="1.5" d="M106,-37C100,-37 94,-31 94,-25"/>
<polyline fill="none" stroke="#2e3436" stroke-width="1.5" points="94,-25 94,-13 "/>
<path fill="none" stroke="#2e3436" stroke-width="1.5" d="M94,-13C94,-7 100,-1 106,-1"/>
<text text-anchor="middle" x="143" y="-25.8" font-family="FreeSans" font-size="8.00" fill="#1c2021">Node[6]</text>
<polyline fill="none" stroke="#2e3436" stroke-width="1.5" points="94,-19 192,-19 "/>
<text text-anchor="start" x="102" y="-7.8" font-family="FreeSans" font-size="8.00" fill="#1c2021">name = &#39;The Architect&#39;</text>
</g>
<!-- N5&#45;&gt;N6 -->
<g id="edge14" class="edge"><title>N5&#45;&gt;N6</title>
<path fill="none" stroke="#a40000" stroke-width="2" d="M143,-84.7733C143,-73.1053 143,-57.7874 143,-44.8699"/>
<polygon fill="#a40000" stroke="#a40000" points="143,-37.1912 146.375,-44.6911 143.5,-40.9412 143.5,-44.6912 143,-44.6912 142.5,-44.6912 142.5,-40.9412 139.625,-44.6912 143,-37.1912 143,-37.1912"/>
<text text-anchor="middle" x="166" y="-58.8" font-family="FreeSans" font-size="8.00" fill="#a40000">CODED_BY</text>
</g>
</g>
</svg>
