<?xml version="1.0" encoding="UTF-8" standalone="no"?>
<!DOCTYPE svg PUBLIC "-//W3C//DTD SVG 1.1//EN"
 "http://www.w3.org/Graphics/SVG/1.1/DTD/svg11.dtd">
<!-- Generated by graphviz version 2.26.3 (20100126.1600)
 -->
<!-- Title: g Pages: 1 -->
<svg width="88pt" height="140pt"
 viewBox="0.00 0.00 88.00 140.00" xmlns="http://www.w3.org/2000/svg" xmlns:xlink="http://www.w3.org/1999/xlink">
<g id="graph1" class="graph" transform="scale(1 1) rotate(0) translate(4 136)">
<title>g</title>
<polygon fill="white" stroke="white" points="-4,5 -4,-136 85,-136 85,5 -4,5"/>
<!-- N7 -->
<g id="node1" class="node"><title>N7</title>
<polygon fill="#ffffff" stroke="#ffffff" stroke-width="1.5" points="15,-1 59,-1 71,-13 71,-25 59,-37 15,-37 3,-25 3,-13 15,-1"/>
<path fill="#ffffff" stroke="#ffffff" stroke-width="1.5" d="M59,-1C65,-1 71,-7 71,-13"/>
<path fill="#ffffff" stroke="#ffffff" stroke-width="1.5" d="M71,-25C71,-31 65,-37 59,-37"/>
<path fill="#ffffff" stroke="#ffffff" stroke-width="1.5" d="M15,-37C9,-37 3,-31 3,-25"/>
<path fill="#ffffff" stroke="#ffffff" stroke-width="1.5" d="M3,-13C3,-7 9,-1 15,-1"/>
<polyline fill="none" stroke="#2e3436" stroke-width="1.5" points="15,-1 59,-1 "/>
<path fill="none" stroke="#2e3436" stroke-width="1.5" d="M59,-1C65,-1 71,-7 71,-13"/>
<polyline fill="none" stroke="#2e3436" stroke-width="1.5" points="71,-13 71,-25 "/>
<path fill="none" stroke="#2e3436" stroke-width="1.5" d="M71,-25C71,-31 65,-37 59,-37"/>
<polyline fill="none" stroke="#2e3436" stroke-width="1.5" points="59,-37 15,-37 "/>
<path fill="none" stroke="#2e3436" stroke-width="1.5" d="M15,-37C9,-37 3,-31 3,-25"/>
<polyline fill="none" stroke="#2e3436" stroke-width="1.5" points="3,-25 3,-13 "/>
<path fill="none" stroke="#2e3436" stroke-width="1.5" d="M3,-13C3,-7 9,-1 15,-1"/>
<text text-anchor="middle" x="37" y="-25.8" font-family="FreeSans" font-size="8.00" fill="#1c2021">Node[7]</text>
<polyline fill="none" stroke="#2e3436" stroke-width="1.5" points="3,-19 71,-19 "/>
<text text-anchor="start" x="11" y="-7.8" font-family="FreeSans" font-size="8.00" fill="#1c2021">name = &#39;Juliet&#39;</text>
</g>
<!-- N8 -->
<g id="node2" class="node"><title>N8</title>
<polygon fill="#ffffff" stroke="#ffffff" stroke-width="1.5" points="11.5,-95 62.5,-95 74.5,-107 74.5,-119 62.5,-131 11.5,-131 -0.5,-119 -0.5,-107 11.5,-95"/>
<path fill="#ffffff" stroke="#ffffff" stroke-width="1.5" d="M62.5,-95C68.5,-95 74.5,-101 74.5,-107"/>
<path fill="#ffffff" stroke="#ffffff" stroke-width="1.5" d="M74.5,-119C74.5,-125 68.5,-131 62.5,-131"/>
<path fill="#ffffff" stroke="#ffffff" stroke-width="1.5" d="M11.5,-131C5.5,-131 -0.5,-125 -0.5,-119"/>
<path fill="#ffffff" stroke="#ffffff" stroke-width="1.5" d="M-0.5,-107C-0.5,-101 5.5,-95 11.5,-95"/>
<polyline fill="none" stroke="#2e3436" stroke-width="1.5" points="11.5,-95 62.5,-95 "/>
<path fill="none" stroke="#2e3436" stroke-width="1.5" d="M62.5,-95C68.5,-95 74.5,-101 74.5,-107"/>
<polyline fill="none" stroke="#2e3436" stroke-width="1.5" points="74.5,-107 74.5,-119 "/>
<path fill="none" stroke="#2e3436" stroke-width="1.5" d="M74.5,-119C74.5,-125 68.5,-131 62.5,-131"/>
<polyline fill="none" stroke="#2e3436" stroke-width="1.5" points="62.5,-131 11.5,-131 "/>
<path fill="none" stroke="#2e3436" stroke-width="1.5" d="M11.5,-131C5.5,-131 -0.5,-125 -0.5,-119"/>
<polyline fill="none" stroke="#2e3436" stroke-width="1.5" points="-0.5,-119 -0.5,-107 "/>
<path fill="none" stroke="#2e3436" stroke-width="1.5" d="M-0.5,-107C-0.5,-101 5.5,-95 11.5,-95"/>
<text text-anchor="middle" x="37" y="-119.8" font-family="FreeSans" font-size="8.00" fill="#1c2021">Node[8]</text>
<polyline fill="none" stroke="#2e3436" stroke-width="1.5" points="-0.5,-113 74.5,-113 "/>
<text text-anchor="start" x="7.5" y="-101.8" font-family="FreeSans" font-size="8.00" fill="#1c2021">name = &#39;Romeo&#39;</text>
</g>
<!-- N8&#45;&gt;N7 -->
<g id="edge2" class="edge"><title>N8&#45;&gt;N7</title>
<path fill="none" stroke="#2e3436" stroke-width="2" d="M37,-94.8759C37,-80.7014 37,-60.806 37,-44.944"/>
<polygon fill="#2e3436" stroke="#2e3436" points="37,-37.0685 40.3751,-44.5685 37.5,-40.8185 37.5001,-44.5685 37.0001,-44.5685 36.5001,-44.5685 36.5,-40.8185 33.6251,-44.5685 37,-37.0685 37,-37.0685"/>
<text text-anchor="middle" x="58.5" y="-68.8" font-family="FreeSans" font-size="8.00" fill="#2e3436">LOVES</text>
<text text-anchor="start" x="37" y="-58.8" font-family="FreeSans" font-size="8.00" fill="#2e3436">cost = &#39;high&#39;</text>
</g>
</g>
</svg>
