<?xml version="1.0" encoding="UTF-8" standalone="no"?>
<!DOCTYPE svg PUBLIC "-//W3C//DTD SVG 1.1//EN"
 "http://www.w3.org/Graphics/SVG/1.1/DTD/svg11.dtd">
<!-- Generated by graphviz version 2.26.3 (20100126.1600)
 -->
<!-- Title: g Pages: 1 -->
<svg width="112pt" height="140pt"
 viewBox="0.00 0.00 112.00 140.00" xmlns="http://www.w3.org/2000/svg" xmlns:xlink="http://www.w3.org/1999/xlink">
<g id="graph1" class="graph" transform="scale(1 1) rotate(0) translate(4 136)">
<title>g</title>
<polygon fill="white" stroke="white" points="-4,5 -4,-136 109,-136 109,5 -4,5"/>
<!-- N8 -->
<g id="node1" class="node"><title>N8</title>
<polygon fill="#ffffff" stroke="#ffffff" stroke-width="1.5" points="16,-1 88,-1 100,-13 100,-25 88,-37 16,-37 4,-25 4,-13 16,-1"/>
<path fill="#ffffff" stroke="#ffffff" stroke-width="1.5" d="M88,-1C94,-1 100,-7 100,-13"/>
<path fill="#ffffff" stroke="#ffffff" stroke-width="1.5" d="M100,-25C100,-31 94,-37 88,-37"/>
<path fill="#ffffff" stroke="#ffffff" stroke-width="1.5" d="M16,-37C10,-37 4,-31 4,-25"/>
<path fill="#ffffff" stroke="#ffffff" stroke-width="1.5" d="M4,-13C4,-7 10,-1 16,-1"/>
<polyline fill="none" stroke="#2e3436" stroke-width="1.5" points="16,-1 88,-1 "/>
<path fill="none" stroke="#2e3436" stroke-width="1.5" d="M88,-1C94,-1 100,-7 100,-13"/>
<polyline fill="none" stroke="#2e3436" stroke-width="1.5" points="100,-13 100,-25 "/>
<path fill="none" stroke="#2e3436" stroke-width="1.5" d="M100,-25C100,-31 94,-37 88,-37"/>
<polyline fill="none" stroke="#2e3436" stroke-width="1.5" points="88,-37 16,-37 "/>
<path fill="none" stroke="#2e3436" stroke-width="1.5" d="M16,-37C10,-37 4,-31 4,-25"/>
<polyline fill="none" stroke="#2e3436" stroke-width="1.5" points="4,-25 4,-13 "/>
<path fill="none" stroke="#2e3436" stroke-width="1.5" d="M4,-13C4,-7 10,-1 16,-1"/>
<text text-anchor="start" x="12" y="-16.8" font-family="FreeSans" font-size="8.00" fill="#1c2021">Node[8]name = &#39;Juliet&#39;</text>
</g>
<!-- N9 -->
<g id="node2" class="node"><title>N9</title>
<polygon fill="#ffffff" stroke="#ffffff" stroke-width="1.5" points="12,-95 92,-95 104,-107 104,-119 92,-131 12,-131 0,-119 0,-107 12,-95"/>
<path fill="#ffffff" stroke="#ffffff" stroke-width="1.5" d="M92,-95C98,-95 104,-101 104,-107"/>
<path fill="#ffffff" stroke="#ffffff" stroke-width="1.5" d="M104,-119C104,-125 98,-131 92,-131"/>
<path fill="#ffffff" stroke="#ffffff" stroke-width="1.5" d="M12,-131C6,-131 0,-125 0,-119"/>
<path fill="#ffffff" stroke="#ffffff" stroke-width="1.5" d="M0,-107C0,-101 6,-95 12,-95"/>
<polyline fill="none" stroke="#2e3436" stroke-width="1.5" points="12,-95 92,-95 "/>
<path fill="none" stroke="#2e3436" stroke-width="1.5" d="M92,-95C98,-95 104,-101 104,-107"/>
<polyline fill="none" stroke="#2e3436" stroke-width="1.5" points="104,-107 104,-119 "/>
<path fill="none" stroke="#2e3436" stroke-width="1.5" d="M104,-119C104,-125 98,-131 92,-131"/>
<polyline fill="none" stroke="#2e3436" stroke-width="1.5" points="92,-131 12,-131 "/>
<path fill="none" stroke="#2e3436" stroke-width="1.5" d="M12,-131C6,-131 0,-125 0,-119"/>
<polyline fill="none" stroke="#2e3436" stroke-width="1.5" points="0,-119 0,-107 "/>
<path fill="none" stroke="#2e3436" stroke-width="1.5" d="M0,-107C0,-101 6,-95 12,-95"/>
<text text-anchor="start" x="8" y="-110.8" font-family="FreeSans" font-size="8.00" fill="#1c2021">Node[9]name = &#39;Romeo&#39;</text>
</g>
<!-- N9&#45;&gt;N8 -->
<g id="edge2" class="edge"><title>N9&#45;&gt;N8</title>
<path fill="none" stroke="#2e3436" stroke-width="2" d="M52,-94.8759C52,-80.7014 52,-60.806 52,-44.944"/>
<polygon fill="#2e3436" stroke="#2e3436" points="52,-37.0685 55.3751,-44.5685 52.5,-40.8185 52.5001,-44.5685 52.0001,-44.5685 51.5001,-44.5685 51.5,-40.8185 48.6251,-44.5685 52,-37.0685 52,-37.0685"/>
<text text-anchor="middle" x="73.5" y="-68.8" font-family="FreeSans" font-size="8.00" fill="#2e3436">LOVES</text>
<text text-anchor="start" x="52" y="-58.8" font-family="FreeSans" font-size="8.00" fill="#2e3436">cost = &#39;high&#39;</text>
</g>
</g>
</svg>
