<?xml version="1.0" encoding="UTF-8" standalone="no"?>
<!DOCTYPE svg PUBLIC "-//W3C//DTD SVG 1.1//EN"
 "http://www.w3.org/Graphics/SVG/1.1/DTD/svg11.dtd">
<!-- Generated by graphviz version 2.26.3 (20100126.1600)
 -->
<!-- Title: g Pages: 1 -->
<svg width="120pt" height="140pt"
 viewBox="0.00 0.00 120.00 140.00" xmlns="http://www.w3.org/2000/svg" xmlns:xlink="http://www.w3.org/1999/xlink">
<g id="graph1" class="graph" transform="scale(1 1) rotate(0) translate(4 136)">
<title>g</title>
<polygon fill="white" stroke="white" points="-4,5 -4,-136 117,-136 117,5 -4,5"/>
<!-- N180 -->
<g id="node1" class="node"><title>N180</title>
<polygon fill="#ffffff" stroke="#ffffff" stroke-width="1.5" points="15.5,-1 96.5,-1 108.5,-13 108.5,-25 96.5,-37 15.5,-37 3.5,-25 3.5,-13 15.5,-1"/>
<path fill="#ffffff" stroke="#ffffff" stroke-width="1.5" d="M96.5,-1C102.5,-1 108.5,-7 108.5,-13"/>
<path fill="#ffffff" stroke="#ffffff" stroke-width="1.5" d="M108.5,-25C108.5,-31 102.5,-37 96.5,-37"/>
<path fill="#ffffff" stroke="#ffffff" stroke-width="1.5" d="M15.5,-37C9.5,-37 3.5,-31 3.5,-25"/>
<path fill="#ffffff" stroke="#ffffff" stroke-width="1.5" d="M3.5,-13C3.5,-7 9.5,-1 15.5,-1"/>
<polyline fill="none" stroke="#2e3436" stroke-width="1.5" points="15.5,-1 96.5,-1 "/>
<path fill="none" stroke="#2e3436" stroke-width="1.5" d="M96.5,-1C102.5,-1 108.5,-7 108.5,-13"/>
<polyline fill="none" stroke="#2e3436" stroke-width="1.5" points="108.5,-13 108.5,-25 "/>
<path fill="none" stroke="#2e3436" stroke-width="1.5" d="M108.5,-25C108.5,-31 102.5,-37 96.5,-37"/>
<polyline fill="none" stroke="#2e3436" stroke-width="1.5" points="96.5,-37 15.5,-37 "/>
<path fill="none" stroke="#2e3436" stroke-width="1.5" d="M15.5,-37C9.5,-37 3.5,-31 3.5,-25"/>
<polyline fill="none" stroke="#2e3436" stroke-width="1.5" points="3.5,-25 3.5,-13 "/>
<path fill="none" stroke="#2e3436" stroke-width="1.5" d="M3.5,-13C3.5,-7 9.5,-1 15.5,-1"/>
<text text-anchor="start" x="11.5" y="-16.8" font-family="FreeSans" font-size="8.00" fill="#1c2021">Node[180]name = &#39;Juliet&#39;</text>
</g>
<!-- N181 -->
<g id="node2" class="node"><title>N181</title>
<polygon fill="#ffffff" stroke="#ffffff" stroke-width="1.5" points="11.5,-95 100.5,-95 112.5,-107 112.5,-119 100.5,-131 11.5,-131 -0.5,-119 -0.5,-107 11.5,-95"/>
<path fill="#ffffff" stroke="#ffffff" stroke-width="1.5" d="M100.5,-95C106.5,-95 112.5,-101 112.5,-107"/>
<path fill="#ffffff" stroke="#ffffff" stroke-width="1.5" d="M112.5,-119C112.5,-125 106.5,-131 100.5,-131"/>
<path fill="#ffffff" stroke="#ffffff" stroke-width="1.5" d="M11.5,-131C5.5,-131 -0.5,-125 -0.5,-119"/>
<path fill="#ffffff" stroke="#ffffff" stroke-width="1.5" d="M-0.5,-107C-0.5,-101 5.5,-95 11.5,-95"/>
<polyline fill="none" stroke="#2e3436" stroke-width="1.5" points="11.5,-95 100.5,-95 "/>
<path fill="none" stroke="#2e3436" stroke-width="1.5" d="M100.5,-95C106.5,-95 112.5,-101 112.5,-107"/>
<polyline fill="none" stroke="#2e3436" stroke-width="1.5" points="112.5,-107 112.5,-119 "/>
<path fill="none" stroke="#2e3436" stroke-width="1.5" d="M112.5,-119C112.5,-125 106.5,-131 100.5,-131"/>
<polyline fill="none" stroke="#2e3436" stroke-width="1.5" points="100.5,-131 11.5,-131 "/>
<path fill="none" stroke="#2e3436" stroke-width="1.5" d="M11.5,-131C5.5,-131 -0.5,-125 -0.5,-119"/>
<polyline fill="none" stroke="#2e3436" stroke-width="1.5" points="-0.5,-119 -0.5,-107 "/>
<path fill="none" stroke="#2e3436" stroke-width="1.5" d="M-0.5,-107C-0.5,-101 5.5,-95 11.5,-95"/>
<text text-anchor="start" x="7.5" y="-110.8" font-family="FreeSans" font-size="8.00" fill="#1c2021">Node[181]name = &#39;Romeo&#39;</text>
</g>
<!-- N181&#45;&gt;N180 -->
<g id="edge2" class="edge"><title>N181&#45;&gt;N180</title>
<path fill="none" stroke="#2e3436" stroke-width="2" d="M56,-94.8759C56,-80.7014 56,-60.806 56,-44.944"/>
<polygon fill="#2e3436" stroke="#2e3436" points="56,-37.0685 59.3751,-44.5685 56.5,-40.8185 56.5001,-44.5685 56.0001,-44.5685 55.5001,-44.5685 55.5,-40.8185 52.6251,-44.5685 56,-37.0685 56,-37.0685"/>
<text text-anchor="middle" x="77.5" y="-68.8" font-family="FreeSans" font-size="8.00" fill="#2e3436">LOVES</text>
<text text-anchor="start" x="56" y="-58.8" font-family="FreeSans" font-size="8.00" fill="#2e3436">cost = &#39;high&#39;</text>
</g>
</g>
</svg>
