<?xml version="1.0" encoding="UTF-8" standalone="no"?>
<!DOCTYPE svg PUBLIC "-//W3C//DTD SVG 1.1//EN"
 "http://www.w3.org/Graphics/SVG/1.1/DTD/svg11.dtd">
<!-- Generated by graphviz version 2.26.3 (20100126.1600)
 -->
<!-- Title: g Pages: 1 -->
<svg width="504pt" height="346pt"
 viewBox="0.00 0.00 504.00 346.42" xmlns="http://www.w3.org/2000/svg" xmlns:xlink="http://www.w3.org/1999/xlink">
<g id="graph1" class="graph" transform="scale(0.446413 0.446413) rotate(0) translate(4 772)">
<title>g</title>
<polygon fill="white" stroke="white" points="-4,5 -4,-772 1126,-772 1126,5 -4,5"/>
<g id="graph2" class="cluster"><title>clusterFiles</title>
</g>
<g id="graph3" class="cluster"><title>clusterUsers</title>
</g>
<!-- N20 -->
<g id="node2" class="node"><title>N20</title>
<polygon fill="#ffffff" stroke="#ffffff" stroke-width="1.5" points="658.5,-221 777.5,-221 789.5,-233 789.5,-263 777.5,-275 658.5,-275 646.5,-263 646.5,-233 658.5,-221"/>
<path fill="#ffffff" stroke="#ffffff" stroke-width="1.5" d="M777.5,-221C783.5,-221 789.5,-227 789.5,-233"/>
<path fill="#ffffff" stroke="#ffffff" stroke-width="1.5" d="M789.5,-263C789.5,-269 783.5,-275 777.5,-275"/>
<path fill="#ffffff" stroke="#ffffff" stroke-width="1.5" d="M658.5,-275C652.5,-275 646.5,-269 646.5,-263"/>
<path fill="#ffffff" stroke="#ffffff" stroke-width="1.5" d="M646.5,-233C646.5,-227 652.5,-221 658.5,-221"/>
<polyline fill="none" stroke="#2e3436" stroke-width="1.5" points="658.5,-221 777.5,-221 "/>
<path fill="none" stroke="#2e3436" stroke-width="1.5" d="M777.5,-221C783.5,-221 789.5,-227 789.5,-233"/>
<polyline fill="none" stroke="#2e3436" stroke-width="1.5" points="789.5,-233 789.5,-263 "/>
<path fill="none" stroke="#2e3436" stroke-width="1.5" d="M789.5,-263C789.5,-269 783.5,-275 777.5,-275"/>
<polyline fill="none" stroke="#2e3436" stroke-width="1.5" points="777.5,-275 658.5,-275 "/>
<path fill="none" stroke="#2e3436" stroke-width="1.5" d="M658.5,-275C652.5,-275 646.5,-269 646.5,-263"/>
<polyline fill="none" stroke="#2e3436" stroke-width="1.5" points="646.5,-263 646.5,-233 "/>
<path fill="none" stroke="#2e3436" stroke-width="1.5" d="M646.5,-233C646.5,-227 652.5,-221 658.5,-221"/>
<text text-anchor="middle" x="718" y="-256.6" font-family="FreeSans" font-size="16.00" fill="#1c2021">Node[20]</text>
<polyline fill="none" stroke="#2e3436" stroke-width="1.5" points="646.5,-248 789.5,-248 "/>
<text text-anchor="middle" x="718" y="-229.6" font-family="FreeSans" font-size="16.00" fill="#1c2021">&#39;name&#39; = &#39;HomeU1&#39;</text>
</g>
<!-- N17 -->
<g id="node4" class="node"><title>N17</title>
<polygon fill="#ffffff" stroke="#ffffff" stroke-width="1.5" points="661.5,-119 754.5,-119 766.5,-131 766.5,-161 754.5,-173 661.5,-173 649.5,-161 649.5,-131 661.5,-119"/>
<path fill="#ffffff" stroke="#ffffff" stroke-width="1.5" d="M754.5,-119C760.5,-119 766.5,-125 766.5,-131"/>
<path fill="#ffffff" stroke="#ffffff" stroke-width="1.5" d="M766.5,-161C766.5,-167 760.5,-173 754.5,-173"/>
<path fill="#ffffff" stroke="#ffffff" stroke-width="1.5" d="M661.5,-173C655.5,-173 649.5,-167 649.5,-161"/>
<path fill="#ffffff" stroke="#ffffff" stroke-width="1.5" d="M649.5,-131C649.5,-125 655.5,-119 661.5,-119"/>
<polyline fill="none" stroke="#2e3436" stroke-width="1.5" points="661.5,-119 754.5,-119 "/>
<path fill="none" stroke="#2e3436" stroke-width="1.5" d="M754.5,-119C760.5,-119 766.5,-125 766.5,-131"/>
<polyline fill="none" stroke="#2e3436" stroke-width="1.5" points="766.5,-131 766.5,-161 "/>
<path fill="none" stroke="#2e3436" stroke-width="1.5" d="M766.5,-161C766.5,-167 760.5,-173 754.5,-173"/>
<polyline fill="none" stroke="#2e3436" stroke-width="1.5" points="754.5,-173 661.5,-173 "/>
<path fill="none" stroke="#2e3436" stroke-width="1.5" d="M661.5,-173C655.5,-173 649.5,-167 649.5,-161"/>
<polyline fill="none" stroke="#2e3436" stroke-width="1.5" points="649.5,-161 649.5,-131 "/>
<path fill="none" stroke="#2e3436" stroke-width="1.5" d="M649.5,-131C649.5,-125 655.5,-119 661.5,-119"/>
<text text-anchor="middle" x="708" y="-154.6" font-family="FreeSans" font-size="16.00" fill="#1c2021">Node[17]</text>
<polyline fill="none" stroke="#2e3436" stroke-width="1.5" points="649.5,-146 766.5,-146 "/>
<text text-anchor="middle" x="708" y="-127.6" font-family="FreeSans" font-size="16.00" fill="#1c2021">&#39;name&#39; = &#39;File1&#39;</text>
</g>
<!-- N20&#45;&gt;N17 -->
<g id="edge3" class="edge"><title>N20&#45;&gt;N17</title>
<path fill="none" stroke="red" stroke-width="2" d="M715.346,-220.934C714.216,-209.406 712.879,-195.769 711.658,-183.31"/>
<polygon fill="red" stroke="red" points="710.666,-173.193 716.12,-182.706 711.651,-178.12 712.139,-183.096 711.642,-183.145 711.144,-183.194 710.656,-178.218 707.163,-183.584 710.666,-173.193 710.666,-173.193"/>
<text text-anchor="middle" x="720.5" y="-194.8" font-family="FreeSans" font-size="8.00" fill="#1c2021">leaf</text>
</g>
<!-- N23 -->
<g id="node5" class="node"><title>N23</title>
<polygon fill="#ffffff" stroke="#ffffff" stroke-width="1.5" points="812,-119 928,-119 940,-131 940,-161 928,-173 812,-173 800,-161 800,-131 812,-119"/>
<path fill="#ffffff" stroke="#ffffff" stroke-width="1.5" d="M928,-119C934,-119 940,-125 940,-131"/>
<path fill="#ffffff" stroke="#ffffff" stroke-width="1.5" d="M940,-161C940,-167 934,-173 928,-173"/>
<path fill="#ffffff" stroke="#ffffff" stroke-width="1.5" d="M812,-173C806,-173 800,-167 800,-161"/>
<path fill="#ffffff" stroke="#ffffff" stroke-width="1.5" d="M800,-131C800,-125 806,-119 812,-119"/>
<polyline fill="none" stroke="#2e3436" stroke-width="1.5" points="812,-119 928,-119 "/>
<path fill="none" stroke="#2e3436" stroke-width="1.5" d="M928,-119C934,-119 940,-125 940,-131"/>
<polyline fill="none" stroke="#2e3436" stroke-width="1.5" points="940,-131 940,-161 "/>
<path fill="none" stroke="#2e3436" stroke-width="1.5" d="M940,-161C940,-167 934,-173 928,-173"/>
<polyline fill="none" stroke="#2e3436" stroke-width="1.5" points="928,-173 812,-173 "/>
<path fill="none" stroke="#2e3436" stroke-width="1.5" d="M812,-173C806,-173 800,-167 800,-161"/>
<polyline fill="none" stroke="#2e3436" stroke-width="1.5" points="800,-161 800,-131 "/>
<path fill="none" stroke="#2e3436" stroke-width="1.5" d="M800,-131C800,-125 806,-119 812,-119"/>
<text text-anchor="middle" x="870" y="-154.6" font-family="FreeSans" font-size="16.00" fill="#1c2021">Node[23]</text>
<polyline fill="none" stroke="#2e3436" stroke-width="1.5" points="800,-146 940,-146 "/>
<text text-anchor="middle" x="870" y="-127.6" font-family="FreeSans" font-size="16.00" fill="#1c2021">&#39;name&#39; = &#39;Desktop&#39;</text>
</g>
<!-- N16 -->
<g id="node7" class="node"><title>N16</title>
<polygon fill="#ffffff" stroke="#ffffff" stroke-width="1.5" points="699.5,-17 792.5,-17 804.5,-29 804.5,-59 792.5,-71 699.5,-71 687.5,-59 687.5,-29 699.5,-17"/>
<path fill="#ffffff" stroke="#ffffff" stroke-width="1.5" d="M792.5,-17C798.5,-17 804.5,-23 804.5,-29"/>
<path fill="#ffffff" stroke="#ffffff" stroke-width="1.5" d="M804.5,-59C804.5,-65 798.5,-71 792.5,-71"/>
<path fill="#ffffff" stroke="#ffffff" stroke-width="1.5" d="M699.5,-71C693.5,-71 687.5,-65 687.5,-59"/>
<path fill="#ffffff" stroke="#ffffff" stroke-width="1.5" d="M687.5,-29C687.5,-23 693.5,-17 699.5,-17"/>
<polyline fill="none" stroke="#2e3436" stroke-width="1.5" points="699.5,-17 792.5,-17 "/>
<path fill="none" stroke="#2e3436" stroke-width="1.5" d="M792.5,-17C798.5,-17 804.5,-23 804.5,-29"/>
<polyline fill="none" stroke="#2e3436" stroke-width="1.5" points="804.5,-29 804.5,-59 "/>
<path fill="none" stroke="#2e3436" stroke-width="1.5" d="M804.5,-59C804.5,-65 798.5,-71 792.5,-71"/>
<polyline fill="none" stroke="#2e3436" stroke-width="1.5" points="792.5,-71 699.5,-71 "/>
<path fill="none" stroke="#2e3436" stroke-width="1.5" d="M699.5,-71C693.5,-71 687.5,-65 687.5,-59"/>
<polyline fill="none" stroke="#2e3436" stroke-width="1.5" points="687.5,-59 687.5,-29 "/>
<path fill="none" stroke="#2e3436" stroke-width="1.5" d="M687.5,-29C687.5,-23 693.5,-17 699.5,-17"/>
<text text-anchor="middle" x="746" y="-52.6" font-family="FreeSans" font-size="16.00" fill="#1c2021">Node[16]</text>
<polyline fill="none" stroke="#2e3436" stroke-width="1.5" points="687.5,-44 804.5,-44 "/>
<text text-anchor="middle" x="746" y="-25.6" font-family="FreeSans" font-size="16.00" fill="#1c2021">&#39;name&#39; = &#39;File2&#39;</text>
</g>
<!-- N23&#45;&gt;N16 -->
<g id="edge5" class="edge"><title>N23&#45;&gt;N16</title>
<path fill="none" stroke="red" stroke-width="2" d="M837.096,-118.934C821.681,-106.254 803.163,-91.021 786.86,-77.6106"/>
<polygon fill="red" stroke="red" points="779.058,-71.1928 789.64,-74.0702 783.237,-73.983 787.098,-77.1594 786.781,-77.5456 786.463,-77.9317 782.602,-74.7553 783.922,-81.0209 779.058,-71.1928 779.058,-71.1928"/>
<text text-anchor="middle" x="817.5" y="-92.8" font-family="FreeSans" font-size="8.00" fill="#1c2021">leaf</text>
</g>
<!-- N10 -->
<g id="node8" class="node"><title>N10</title>
<polygon fill="#ffffff" stroke="#ffffff" stroke-width="1.5" points="672.5,-323 771.5,-323 783.5,-335 783.5,-365 771.5,-377 672.5,-377 660.5,-365 660.5,-335 672.5,-323"/>
<path fill="#ffffff" stroke="#ffffff" stroke-width="1.5" d="M771.5,-323C777.5,-323 783.5,-329 783.5,-335"/>
<path fill="#ffffff" stroke="#ffffff" stroke-width="1.5" d="M783.5,-365C783.5,-371 777.5,-377 771.5,-377"/>
<path fill="#ffffff" stroke="#ffffff" stroke-width="1.5" d="M672.5,-377C666.5,-377 660.5,-371 660.5,-365"/>
<path fill="#ffffff" stroke="#ffffff" stroke-width="1.5" d="M660.5,-335C660.5,-329 666.5,-323 672.5,-323"/>
<polyline fill="none" stroke="#2e3436" stroke-width="1.5" points="672.5,-323 771.5,-323 "/>
<path fill="none" stroke="#2e3436" stroke-width="1.5" d="M771.5,-323C777.5,-323 783.5,-329 783.5,-335"/>
<polyline fill="none" stroke="#2e3436" stroke-width="1.5" points="783.5,-335 783.5,-365 "/>
<path fill="none" stroke="#2e3436" stroke-width="1.5" d="M783.5,-365C783.5,-371 777.5,-377 771.5,-377"/>
<polyline fill="none" stroke="#2e3436" stroke-width="1.5" points="771.5,-377 672.5,-377 "/>
<path fill="none" stroke="#2e3436" stroke-width="1.5" d="M672.5,-377C666.5,-377 660.5,-371 660.5,-365"/>
<polyline fill="none" stroke="#2e3436" stroke-width="1.5" points="660.5,-365 660.5,-335 "/>
<path fill="none" stroke="#2e3436" stroke-width="1.5" d="M660.5,-335C660.5,-329 666.5,-323 672.5,-323"/>
<text text-anchor="middle" x="722" y="-358.6" font-family="FreeSans" font-size="16.00" fill="#1c2021">Node[10]</text>
<polyline fill="none" stroke="#2e3436" stroke-width="1.5" points="660.5,-350 783.5,-350 "/>
<text text-anchor="middle" x="722" y="-331.6" font-family="FreeSans" font-size="16.00" fill="#1c2021">&#39;name&#39; = &#39;Home&#39;</text>
</g>
<!-- N10&#45;&gt;N20 -->
<g id="edge7" class="edge"><title>N10&#45;&gt;N20</title>
<path fill="none" stroke="red" stroke-width="2" d="M720.939,-322.934C720.487,-311.406 719.952,-297.769 719.463,-285.31"/>
<polygon fill="red" stroke="red" points="719.066,-275.193 723.955,-285.009 719.762,-280.169 719.958,-285.166 719.458,-285.185 718.959,-285.205 718.763,-280.209 714.962,-285.362 719.066,-275.193 719.066,-275.193"/>
<text text-anchor="middle" x="736.5" y="-296.8" font-family="FreeSans" font-size="8.00" fill="#1c2021">contains</text>
</g>
<!-- N15 -->
<g id="node11" class="node"><title>N15</title>
<polygon fill="#ffffff" stroke="#ffffff" stroke-width="1.5" points="829.5,-221 948.5,-221 960.5,-233 960.5,-263 948.5,-275 829.5,-275 817.5,-263 817.5,-233 829.5,-221"/>
<path fill="#ffffff" stroke="#ffffff" stroke-width="1.5" d="M948.5,-221C954.5,-221 960.5,-227 960.5,-233"/>
<path fill="#ffffff" stroke="#ffffff" stroke-width="1.5" d="M960.5,-263C960.5,-269 954.5,-275 948.5,-275"/>
<path fill="#ffffff" stroke="#ffffff" stroke-width="1.5" d="M829.5,-275C823.5,-275 817.5,-269 817.5,-263"/>
<path fill="#ffffff" stroke="#ffffff" stroke-width="1.5" d="M817.5,-233C817.5,-227 823.5,-221 829.5,-221"/>
<polyline fill="none" stroke="#2e3436" stroke-width="1.5" points="829.5,-221 948.5,-221 "/>
<path fill="none" stroke="#2e3436" stroke-width="1.5" d="M948.5,-221C954.5,-221 960.5,-227 960.5,-233"/>
<polyline fill="none" stroke="#2e3436" stroke-width="1.5" points="960.5,-233 960.5,-263 "/>
<path fill="none" stroke="#2e3436" stroke-width="1.5" d="M960.5,-263C960.5,-269 954.5,-275 948.5,-275"/>
<polyline fill="none" stroke="#2e3436" stroke-width="1.5" points="948.5,-275 829.5,-275 "/>
<path fill="none" stroke="#2e3436" stroke-width="1.5" d="M829.5,-275C823.5,-275 817.5,-269 817.5,-263"/>
<polyline fill="none" stroke="#2e3436" stroke-width="1.5" points="817.5,-263 817.5,-233 "/>
<path fill="none" stroke="#2e3436" stroke-width="1.5" d="M817.5,-233C817.5,-227 823.5,-221 829.5,-221"/>
<text text-anchor="middle" x="889" y="-256.6" font-family="FreeSans" font-size="16.00" fill="#1c2021">Node[15]</text>
<polyline fill="none" stroke="#2e3436" stroke-width="1.5" points="817.5,-248 960.5,-248 "/>
<text text-anchor="middle" x="889" y="-229.6" font-family="FreeSans" font-size="16.00" fill="#1c2021">&#39;name&#39; = &#39;HomeU2&#39;</text>
</g>
<!-- N10&#45;&gt;N15 -->
<g id="edge9" class="edge"><title>N10&#45;&gt;N15</title>
<path fill="none" stroke="red" stroke-width="2" d="M766.314,-322.934C787.726,-309.856 813.584,-294.062 836.029,-280.354"/>
<polygon fill="red" stroke="red" points="844.768,-275.016 838.58,-284.069 840.762,-278.049 836.495,-280.655 836.234,-280.228 835.974,-279.801 840.241,-277.195 833.889,-276.388 844.768,-275.016 844.768,-275.016"/>
<text text-anchor="middle" x="825.5" y="-296.8" font-family="FreeSans" font-size="8.00" fill="#1c2021">contains</text>
</g>
<!-- N15&#45;&gt;N23 -->
<g id="edge13" class="edge"><title>N15&#45;&gt;N23</title>
<path fill="none" stroke="red" stroke-width="2" d="M883.958,-220.934C881.811,-209.406 879.271,-195.769 876.95,-183.31"/>
<polygon fill="red" stroke="red" points="875.065,-173.193 881.321,-182.2 876.473,-178.017 877.388,-182.932 876.897,-183.024 876.405,-183.115 875.489,-178.2 872.473,-183.848 875.065,-173.193 875.065,-173.193"/>
<text text-anchor="middle" x="895.5" y="-194.8" font-family="FreeSans" font-size="8.00" fill="#1c2021">contains</text>
</g>
<!-- N11 -->
<g id="node12" class="node"><title>N11</title>
<polygon fill="#ffffff" stroke="#ffffff" stroke-width="1.5" points="1001,-221 1093,-221 1105,-233 1105,-263 1093,-275 1001,-275 989,-263 989,-233 1001,-221"/>
<path fill="#ffffff" stroke="#ffffff" stroke-width="1.5" d="M1093,-221C1099,-221 1105,-227 1105,-233"/>
<path fill="#ffffff" stroke="#ffffff" stroke-width="1.5" d="M1105,-263C1105,-269 1099,-275 1093,-275"/>
<path fill="#ffffff" stroke="#ffffff" stroke-width="1.5" d="M1001,-275C995,-275 989,-269 989,-263"/>
<path fill="#ffffff" stroke="#ffffff" stroke-width="1.5" d="M989,-233C989,-227 995,-221 1001,-221"/>
<polyline fill="none" stroke="#2e3436" stroke-width="1.5" points="1001,-221 1093,-221 "/>
<path fill="none" stroke="#2e3436" stroke-width="1.5" d="M1093,-221C1099,-221 1105,-227 1105,-233"/>
<polyline fill="none" stroke="#2e3436" stroke-width="1.5" points="1105,-233 1105,-263 "/>
<path fill="none" stroke="#2e3436" stroke-width="1.5" d="M1105,-263C1105,-269 1099,-275 1093,-275"/>
<polyline fill="none" stroke="#2e3436" stroke-width="1.5" points="1093,-275 1001,-275 "/>
<path fill="none" stroke="#2e3436" stroke-width="1.5" d="M1001,-275C995,-275 989,-269 989,-263"/>
<polyline fill="none" stroke="#2e3436" stroke-width="1.5" points="989,-263 989,-233 "/>
<path fill="none" stroke="#2e3436" stroke-width="1.5" d="M989,-233C989,-227 995,-221 1001,-221"/>
<text text-anchor="middle" x="1047" y="-256.6" font-family="FreeSans" font-size="16.00" fill="#1c2021">Node[11]</text>
<polyline fill="none" stroke="#2e3436" stroke-width="1.5" points="989,-248 1105,-248 "/>
<text text-anchor="middle" x="1047" y="-229.6" font-family="FreeSans" font-size="16.00" fill="#1c2021">&#39;name&#39; = &#39;init.d&#39;</text>
</g>
<!-- N12 -->
<g id="node13" class="node"><title>N12</title>
<polygon fill="#ffffff" stroke="#ffffff" stroke-width="1.5" points="869,-323 949,-323 961,-335 961,-365 949,-377 869,-377 857,-365 857,-335 869,-323"/>
<path fill="#ffffff" stroke="#ffffff" stroke-width="1.5" d="M949,-323C955,-323 961,-329 961,-335"/>
<path fill="#ffffff" stroke="#ffffff" stroke-width="1.5" d="M961,-365C961,-371 955,-377 949,-377"/>
<path fill="#ffffff" stroke="#ffffff" stroke-width="1.5" d="M869,-377C863,-377 857,-371 857,-365"/>
<path fill="#ffffff" stroke="#ffffff" stroke-width="1.5" d="M857,-335C857,-329 863,-323 869,-323"/>
<polyline fill="none" stroke="#2e3436" stroke-width="1.5" points="869,-323 949,-323 "/>
<path fill="none" stroke="#2e3436" stroke-width="1.5" d="M949,-323C955,-323 961,-329 961,-335"/>
<polyline fill="none" stroke="#2e3436" stroke-width="1.5" points="961,-335 961,-365 "/>
<path fill="none" stroke="#2e3436" stroke-width="1.5" d="M961,-365C961,-371 955,-377 949,-377"/>
<polyline fill="none" stroke="#2e3436" stroke-width="1.5" points="949,-377 869,-377 "/>
<path fill="none" stroke="#2e3436" stroke-width="1.5" d="M869,-377C863,-377 857,-371 857,-365"/>
<polyline fill="none" stroke="#2e3436" stroke-width="1.5" points="857,-365 857,-335 "/>
<path fill="none" stroke="#2e3436" stroke-width="1.5" d="M857,-335C857,-329 863,-323 869,-323"/>
<text text-anchor="middle" x="909" y="-358.6" font-family="FreeSans" font-size="16.00" fill="#1c2021">Node[12]</text>
<polyline fill="none" stroke="#2e3436" stroke-width="1.5" points="857,-350 961,-350 "/>
<text text-anchor="middle" x="909" y="-331.6" font-family="FreeSans" font-size="16.00" fill="#1c2021">&#39;name&#39; = &#39;etc&#39;</text>
</g>
<!-- N12&#45;&gt;N11 -->
<g id="edge11" class="edge"><title>N12&#45;&gt;N11</title>
<path fill="none" stroke="red" stroke-width="2" d="M945.619,-322.934C962.93,-310.138 983.758,-294.744 1002.02,-281.245"/>
<polygon fill="red" stroke="red" points="1010.21,-275.193 1004.84,-284.756 1006.49,-278.567 1002.47,-281.539 1002.17,-281.137 1001.87,-280.735 1005.89,-277.763 999.493,-277.518 1010.21,-275.193 1010.21,-275.193"/>
<text text-anchor="middle" x="997.5" y="-296.8" font-family="FreeSans" font-size="8.00" fill="#1c2021">contains</text>
</g>
<!-- N18 -->
<g id="node16" class="node"><title>N18</title>
<polygon fill="#ffffff" stroke="#ffffff" stroke-width="1.5" points="664,-425 780,-425 792,-437 792,-467 780,-479 664,-479 652,-467 652,-437 664,-425"/>
<path fill="#ffffff" stroke="#ffffff" stroke-width="1.5" d="M780,-425C786,-425 792,-431 792,-437"/>
<path fill="#ffffff" stroke="#ffffff" stroke-width="1.5" d="M792,-467C792,-473 786,-479 780,-479"/>
<path fill="#ffffff" stroke="#ffffff" stroke-width="1.5" d="M664,-479C658,-479 652,-473 652,-467"/>
<path fill="#ffffff" stroke="#ffffff" stroke-width="1.5" d="M652,-437C652,-431 658,-425 664,-425"/>
<polyline fill="none" stroke="#2e3436" stroke-width="1.5" points="664,-425 780,-425 "/>
<path fill="none" stroke="#2e3436" stroke-width="1.5" d="M780,-425C786,-425 792,-431 792,-437"/>
<polyline fill="none" stroke="#2e3436" stroke-width="1.5" points="792,-437 792,-467 "/>
<path fill="none" stroke="#2e3436" stroke-width="1.5" d="M792,-467C792,-473 786,-479 780,-479"/>
<polyline fill="none" stroke="#2e3436" stroke-width="1.5" points="780,-479 664,-479 "/>
<path fill="none" stroke="#2e3436" stroke-width="1.5" d="M664,-479C658,-479 652,-473 652,-467"/>
<polyline fill="none" stroke="#2e3436" stroke-width="1.5" points="652,-467 652,-437 "/>
<path fill="none" stroke="#2e3436" stroke-width="1.5" d="M652,-437C652,-431 658,-425 664,-425"/>
<text text-anchor="middle" x="722" y="-460.6" font-family="FreeSans" font-size="16.00" fill="#1c2021">Node[18]</text>
<polyline fill="none" stroke="#2e3436" stroke-width="1.5" points="652,-452 792,-452 "/>
<text text-anchor="middle" x="722" y="-433.6" font-family="FreeSans" font-size="16.00" fill="#1c2021">&#39;name&#39; = &#39;FileRoot&#39;</text>
</g>
<!-- N18&#45;&gt;N10 -->
<g id="edge15" class="edge"><title>N18&#45;&gt;N10</title>
<path fill="none" stroke="red" stroke-width="2" d="M722,-424.934C722,-413.406 722,-399.769 722,-387.31"/>
<polygon fill="red" stroke="red" points="722,-377.193 726.5,-387.193 722.5,-382.193 722.5,-387.193 722,-387.193 721.5,-387.193 721.5,-382.193 717.5,-387.193 722,-377.193 722,-377.193"/>
<text text-anchor="middle" x="737.5" y="-398.8" font-family="FreeSans" font-size="8.00" fill="#1c2021">contains</text>
</g>
<!-- N18&#45;&gt;N12 -->
<g id="edge17" class="edge"><title>N18&#45;&gt;N12</title>
<path fill="none" stroke="red" stroke-width="2" d="M771.622,-424.934C795.916,-411.682 825.322,-395.643 850.684,-381.809"/>
<polygon fill="red" stroke="red" points="859.471,-377.016 852.847,-385.755 855.321,-379.849 850.932,-382.243 850.692,-381.804 850.453,-381.365 854.842,-378.971 848.537,-377.854 859.471,-377.016 859.471,-377.016"/>
<text text-anchor="middle" x="836.5" y="-398.8" font-family="FreeSans" font-size="8.00" fill="#1c2021">contains</text>
</g>
<!-- N7 -->
<g id="node20" class="node"><title>N7</title>
<polygon fill="#ffffff" stroke="#ffffff" stroke-width="1.5" points="185.5,-527 276.5,-527 288.5,-539 288.5,-569 276.5,-581 185.5,-581 173.5,-569 173.5,-539 185.5,-527"/>
<path fill="#ffffff" stroke="#ffffff" stroke-width="1.5" d="M276.5,-527C282.5,-527 288.5,-533 288.5,-539"/>
<path fill="#ffffff" stroke="#ffffff" stroke-width="1.5" d="M288.5,-569C288.5,-575 282.5,-581 276.5,-581"/>
<path fill="#ffffff" stroke="#ffffff" stroke-width="1.5" d="M185.5,-581C179.5,-581 173.5,-575 173.5,-569"/>
<path fill="#ffffff" stroke="#ffffff" stroke-width="1.5" d="M173.5,-539C173.5,-533 179.5,-527 185.5,-527"/>
<polyline fill="none" stroke="#2e3436" stroke-width="1.5" points="185.5,-527 276.5,-527 "/>
<path fill="none" stroke="#2e3436" stroke-width="1.5" d="M276.5,-527C282.5,-527 288.5,-533 288.5,-539"/>
<polyline fill="none" stroke="#2e3436" stroke-width="1.5" points="288.5,-539 288.5,-569 "/>
<path fill="none" stroke="#2e3436" stroke-width="1.5" d="M288.5,-569C288.5,-575 282.5,-581 276.5,-581"/>
<polyline fill="none" stroke="#2e3436" stroke-width="1.5" points="276.5,-581 185.5,-581 "/>
<path fill="none" stroke="#2e3436" stroke-width="1.5" d="M185.5,-581C179.5,-581 173.5,-575 173.5,-569"/>
<polyline fill="none" stroke="#2e3436" stroke-width="1.5" points="173.5,-569 173.5,-539 "/>
<path fill="none" stroke="#2e3436" stroke-width="1.5" d="M173.5,-539C173.5,-533 179.5,-527 185.5,-527"/>
<text text-anchor="middle" x="231" y="-562.6" font-family="FreeSans" font-size="16.00" fill="#1c2021">Node[7]</text>
<polyline fill="none" stroke="#2e3436" stroke-width="1.5" points="173.5,-554 288.5,-554 "/>
<text text-anchor="middle" x="231" y="-535.6" font-family="FreeSans" font-size="16.00" fill="#1c2021">&#39;name&#39; = &#39;User&#39;</text>
</g>
<!-- N14 -->
<g id="node22" class="node"><title>N14</title>
<polygon fill="#ffffff" stroke="#ffffff" stroke-width="1.5" points="181,-425 281,-425 293,-437 293,-467 281,-479 181,-479 169,-467 169,-437 181,-425"/>
<path fill="#ffffff" stroke="#ffffff" stroke-width="1.5" d="M281,-425C287,-425 293,-431 293,-437"/>
<path fill="#ffffff" stroke="#ffffff" stroke-width="1.5" d="M293,-467C293,-473 287,-479 281,-479"/>
<path fill="#ffffff" stroke="#ffffff" stroke-width="1.5" d="M181,-479C175,-479 169,-473 169,-467"/>
<path fill="#ffffff" stroke="#ffffff" stroke-width="1.5" d="M169,-437C169,-431 175,-425 181,-425"/>
<polyline fill="none" stroke="#2e3436" stroke-width="1.5" points="181,-425 281,-425 "/>
<path fill="none" stroke="#2e3436" stroke-width="1.5" d="M281,-425C287,-425 293,-431 293,-437"/>
<polyline fill="none" stroke="#2e3436" stroke-width="1.5" points="293,-437 293,-467 "/>
<path fill="none" stroke="#2e3436" stroke-width="1.5" d="M293,-467C293,-473 287,-479 281,-479"/>
<polyline fill="none" stroke="#2e3436" stroke-width="1.5" points="281,-479 181,-479 "/>
<path fill="none" stroke="#2e3436" stroke-width="1.5" d="M181,-479C175,-479 169,-473 169,-467"/>
<polyline fill="none" stroke="#2e3436" stroke-width="1.5" points="169,-467 169,-437 "/>
<path fill="none" stroke="#2e3436" stroke-width="1.5" d="M169,-437C169,-431 175,-425 181,-425"/>
<text text-anchor="middle" x="231" y="-460.6" font-family="FreeSans" font-size="16.00" fill="#1c2021">Node[14]</text>
<polyline fill="none" stroke="#2e3436" stroke-width="1.5" points="169,-452 293,-452 "/>
<text text-anchor="middle" x="231" y="-433.6" font-family="FreeSans" font-size="16.00" fill="#1c2021">&#39;name&#39; = &#39;User1&#39;</text>
</g>
<!-- N7&#45;&gt;N14 -->
<g id="edge20" class="edge"><title>N7&#45;&gt;N14</title>
<path fill="none" stroke="#2e3436" stroke-width="2" d="M231,-526.934C231,-514.6 231,-499.85 231,-486.712"/>
<polygon fill="#2e3436" stroke="#2e3436" points="231,-479.193 234.375,-486.693 231.5,-482.943 231.5,-486.693 231,-486.693 230.5,-486.693 230.5,-482.943 227.625,-486.693 231,-479.193 231,-479.193"/>
<text text-anchor="middle" x="246.5" y="-500.8" font-family="FreeSans" font-size="8.00" fill="#1c2021">member</text>
</g>
<!-- N13 -->
<g id="node24" class="node"><title>N13</title>
<polygon fill="#ffffff" stroke="#ffffff" stroke-width="1.5" points="28,-425 128,-425 140,-437 140,-467 128,-479 28,-479 16,-467 16,-437 28,-425"/>
<path fill="#ffffff" stroke="#ffffff" stroke-width="1.5" d="M128,-425C134,-425 140,-431 140,-437"/>
<path fill="#ffffff" stroke="#ffffff" stroke-width="1.5" d="M140,-467C140,-473 134,-479 128,-479"/>
<path fill="#ffffff" stroke="#ffffff" stroke-width="1.5" d="M28,-479C22,-479 16,-473 16,-467"/>
<path fill="#ffffff" stroke="#ffffff" stroke-width="1.5" d="M16,-437C16,-431 22,-425 28,-425"/>
<polyline fill="none" stroke="#2e3436" stroke-width="1.5" points="28,-425 128,-425 "/>
<path fill="none" stroke="#2e3436" stroke-width="1.5" d="M128,-425C134,-425 140,-431 140,-437"/>
<polyline fill="none" stroke="#2e3436" stroke-width="1.5" points="140,-437 140,-467 "/>
<path fill="none" stroke="#2e3436" stroke-width="1.5" d="M140,-467C140,-473 134,-479 128,-479"/>
<polyline fill="none" stroke="#2e3436" stroke-width="1.5" points="128,-479 28,-479 "/>
<path fill="none" stroke="#2e3436" stroke-width="1.5" d="M28,-479C22,-479 16,-473 16,-467"/>
<polyline fill="none" stroke="#2e3436" stroke-width="1.5" points="16,-467 16,-437 "/>
<path fill="none" stroke="#2e3436" stroke-width="1.5" d="M16,-437C16,-431 22,-425 28,-425"/>
<text text-anchor="middle" x="78" y="-460.6" font-family="FreeSans" font-size="16.00" fill="#1c2021">Node[13]</text>
<polyline fill="none" stroke="#2e3436" stroke-width="1.5" points="16,-452 140,-452 "/>
<text text-anchor="middle" x="78" y="-433.6" font-family="FreeSans" font-size="16.00" fill="#1c2021">&#39;name&#39; = &#39;User2&#39;</text>
</g>
<!-- N7&#45;&gt;N13 -->
<g id="edge22" class="edge"><title>N7&#45;&gt;N13</title>
<path fill="none" stroke="#2e3436" stroke-width="2" d="M190.4,-526.934C170.263,-513.509 145.833,-497.222 124.899,-483.266"/>
<polygon fill="#2e3436" stroke="#2e3436" points="118.524,-479.016 126.636,-480.368 121.921,-480.68 125.041,-482.76 124.764,-483.176 124.487,-483.592 121.366,-481.512 122.892,-485.984 118.524,-479.016 118.524,-479.016"/>
<text text-anchor="middle" x="175.5" y="-500.8" font-family="FreeSans" font-size="8.00" fill="#1c2021">member</text>
</g>
<!-- N14&#45;&gt;N17 -->
<g id="edge26" class="edge"><title>N14&#45;&gt;N17</title>
<path fill="none" stroke="#2e3436" stroke-width="2" d="M273.331,-424.845C361.728,-368.137 565.483,-237.426 659.209,-177.3"/>
<polygon fill="#2e3436" stroke="#2e3436" points="665.764,-173.095 661.274,-179.985 662.878,-175.54 659.722,-177.565 659.452,-177.144 659.182,-176.723 662.338,-174.699 657.629,-174.304 665.764,-173.095 665.764,-173.095"/>
<text text-anchor="middle" x="485.5" y="-296.8" font-family="FreeSans" font-size="8.00" fill="#1c2021">owns</text>
</g>
<!-- N13&#45;&gt;N16 -->
<g id="edge24" class="edge"><title>N13&#45;&gt;N16</title>
<path fill="none" stroke="#2e3436" stroke-width="2" d="M130.566,-424.849C169.564,-402.9 216,-372.121 216,-350 216,-350 216,-350 216,-146 216,-99.3284 537.011,-63.5221 679.376,-49.9373"/>
<polygon fill="#2e3436" stroke="#2e3436" points="687.256,-49.1907 680.108,-53.2582 683.57,-50.0423 679.836,-50.396 679.789,-49.8983 679.742,-49.4005 683.475,-49.0467 679.471,-46.5383 687.256,-49.1907 687.256,-49.1907"/>
<text text-anchor="middle" x="225.5" y="-245.8" font-family="FreeSans" font-size="8.00" fill="#1c2021">owns</text>
</g>
<!-- N8 -->
<g id="node25" class="node"><title>N8</title>
<polygon fill="#ffffff" stroke="#ffffff" stroke-width="1.5" points="334,-425 446,-425 458,-437 458,-467 446,-479 334,-479 322,-467 322,-437 334,-425"/>
<path fill="#ffffff" stroke="#ffffff" stroke-width="1.5" d="M446,-425C452,-425 458,-431 458,-437"/>
<path fill="#ffffff" stroke="#ffffff" stroke-width="1.5" d="M458,-467C458,-473 452,-479 446,-479"/>
<path fill="#ffffff" stroke="#ffffff" stroke-width="1.5" d="M334,-479C328,-479 322,-473 322,-467"/>
<path fill="#ffffff" stroke="#ffffff" stroke-width="1.5" d="M322,-437C322,-431 328,-425 334,-425"/>
<polyline fill="none" stroke="#2e3436" stroke-width="1.5" points="334,-425 446,-425 "/>
<path fill="none" stroke="#2e3436" stroke-width="1.5" d="M446,-425C452,-425 458,-431 458,-437"/>
<polyline fill="none" stroke="#2e3436" stroke-width="1.5" points="458,-437 458,-467 "/>
<path fill="none" stroke="#2e3436" stroke-width="1.5" d="M458,-467C458,-473 452,-479 446,-479"/>
<polyline fill="none" stroke="#2e3436" stroke-width="1.5" points="446,-479 334,-479 "/>
<path fill="none" stroke="#2e3436" stroke-width="1.5" d="M334,-479C328,-479 322,-473 322,-467"/>
<polyline fill="none" stroke="#2e3436" stroke-width="1.5" points="322,-467 322,-437 "/>
<path fill="none" stroke="#2e3436" stroke-width="1.5" d="M322,-437C322,-431 328,-425 334,-425"/>
<text text-anchor="middle" x="390" y="-460.6" font-family="FreeSans" font-size="16.00" fill="#1c2021">Node[8]</text>
<polyline fill="none" stroke="#2e3436" stroke-width="1.5" points="322,-452 458,-452 "/>
<text text-anchor="middle" x="390" y="-433.6" font-family="FreeSans" font-size="16.00" fill="#1c2021">&#39;name&#39; = &#39;Admin2&#39;</text>
</g>
<!-- N9 -->
<g id="node26" class="node"><title>N9</title>
<polygon fill="#ffffff" stroke="#ffffff" stroke-width="1.5" points="499,-425 611,-425 623,-437 623,-467 611,-479 499,-479 487,-467 487,-437 499,-425"/>
<path fill="#ffffff" stroke="#ffffff" stroke-width="1.5" d="M611,-425C617,-425 623,-431 623,-437"/>
<path fill="#ffffff" stroke="#ffffff" stroke-width="1.5" d="M623,-467C623,-473 617,-479 611,-479"/>
<path fill="#ffffff" stroke="#ffffff" stroke-width="1.5" d="M499,-479C493,-479 487,-473 487,-467"/>
<path fill="#ffffff" stroke="#ffffff" stroke-width="1.5" d="M487,-437C487,-431 493,-425 499,-425"/>
<polyline fill="none" stroke="#2e3436" stroke-width="1.5" points="499,-425 611,-425 "/>
<path fill="none" stroke="#2e3436" stroke-width="1.5" d="M611,-425C617,-425 623,-431 623,-437"/>
<polyline fill="none" stroke="#2e3436" stroke-width="1.5" points="623,-437 623,-467 "/>
<path fill="none" stroke="#2e3436" stroke-width="1.5" d="M623,-467C623,-473 617,-479 611,-479"/>
<polyline fill="none" stroke="#2e3436" stroke-width="1.5" points="611,-479 499,-479 "/>
<path fill="none" stroke="#2e3436" stroke-width="1.5" d="M499,-479C493,-479 487,-473 487,-467"/>
<polyline fill="none" stroke="#2e3436" stroke-width="1.5" points="487,-467 487,-437 "/>
<path fill="none" stroke="#2e3436" stroke-width="1.5" d="M487,-437C487,-431 493,-425 499,-425"/>
<text text-anchor="middle" x="555" y="-460.6" font-family="FreeSans" font-size="16.00" fill="#1c2021">Node[9]</text>
<polyline fill="none" stroke="#2e3436" stroke-width="1.5" points="487,-452 623,-452 "/>
<text text-anchor="middle" x="555" y="-433.6" font-family="FreeSans" font-size="16.00" fill="#1c2021">&#39;name&#39; = &#39;Admin1&#39;</text>
</g>
<!-- N21 -->
<g id="node29" class="node"><title>N21</title>
<polygon fill="#ffffff" stroke="#ffffff" stroke-width="1.5" points="504,-629 594,-629 606,-641 606,-671 594,-683 504,-683 492,-671 492,-641 504,-629"/>
<path fill="#ffffff" stroke="#ffffff" stroke-width="1.5" d="M594,-629C600,-629 606,-635 606,-641"/>
<path fill="#ffffff" stroke="#ffffff" stroke-width="1.5" d="M606,-671C606,-677 600,-683 594,-683"/>
<path fill="#ffffff" stroke="#ffffff" stroke-width="1.5" d="M504,-683C498,-683 492,-677 492,-671"/>
<path fill="#ffffff" stroke="#ffffff" stroke-width="1.5" d="M492,-641C492,-635 498,-629 504,-629"/>
<polyline fill="none" stroke="#2e3436" stroke-width="1.5" points="504,-629 594,-629 "/>
<path fill="none" stroke="#2e3436" stroke-width="1.5" d="M594,-629C600,-629 606,-635 606,-641"/>
<polyline fill="none" stroke="#2e3436" stroke-width="1.5" points="606,-641 606,-671 "/>
<path fill="none" stroke="#2e3436" stroke-width="1.5" d="M606,-671C606,-677 600,-683 594,-683"/>
<polyline fill="none" stroke="#2e3436" stroke-width="1.5" points="594,-683 504,-683 "/>
<path fill="none" stroke="#2e3436" stroke-width="1.5" d="M504,-683C498,-683 492,-677 492,-671"/>
<polyline fill="none" stroke="#2e3436" stroke-width="1.5" points="492,-671 492,-641 "/>
<path fill="none" stroke="#2e3436" stroke-width="1.5" d="M492,-641C492,-635 498,-629 504,-629"/>
<text text-anchor="middle" x="549" y="-664.6" font-family="FreeSans" font-size="16.00" fill="#1c2021">Node[21]</text>
<polyline fill="none" stroke="#2e3436" stroke-width="1.5" points="492,-656 606,-656 "/>
<text text-anchor="middle" x="549" y="-637.6" font-family="FreeSans" font-size="16.00" fill="#1c2021">&#39;name&#39; = &#39;Role&#39;</text>
</g>
<!-- N21&#45;&gt;N7 -->
<g id="edge30" class="edge"><title>N21&#45;&gt;N7</title>
<path fill="none" stroke="#2e3436" stroke-width="2" d="M491.781,-637.647C436.649,-619.963 353.352,-593.245 295.803,-574.786"/>
<polygon fill="#2e3436" stroke="#2e3436" points="288.564,-572.464 296.736,-571.541 292.288,-573.133 295.858,-574.279 295.706,-574.755 295.553,-575.231 291.982,-574.085 294.675,-577.968 288.564,-572.464 288.564,-572.464"/>
<text text-anchor="middle" x="415" y="-602.8" font-family="FreeSans" font-size="8.00" fill="#1c2021">subRole</text>
</g>
<!-- N22 -->
<g id="node31" class="node"><title>N22</title>
<polygon fill="#ffffff" stroke="#ffffff" stroke-width="1.5" points="486.5,-527 611.5,-527 623.5,-539 623.5,-569 611.5,-581 486.5,-581 474.5,-569 474.5,-539 486.5,-527"/>
<path fill="#ffffff" stroke="#ffffff" stroke-width="1.5" d="M611.5,-527C617.5,-527 623.5,-533 623.5,-539"/>
<path fill="#ffffff" stroke="#ffffff" stroke-width="1.5" d="M623.5,-569C623.5,-575 617.5,-581 611.5,-581"/>
<path fill="#ffffff" stroke="#ffffff" stroke-width="1.5" d="M486.5,-581C480.5,-581 474.5,-575 474.5,-569"/>
<path fill="#ffffff" stroke="#ffffff" stroke-width="1.5" d="M474.5,-539C474.5,-533 480.5,-527 486.5,-527"/>
<polyline fill="none" stroke="#2e3436" stroke-width="1.5" points="486.5,-527 611.5,-527 "/>
<path fill="none" stroke="#2e3436" stroke-width="1.5" d="M611.5,-527C617.5,-527 623.5,-533 623.5,-539"/>
<polyline fill="none" stroke="#2e3436" stroke-width="1.5" points="623.5,-539 623.5,-569 "/>
<path fill="none" stroke="#2e3436" stroke-width="1.5" d="M623.5,-569C623.5,-575 617.5,-581 611.5,-581"/>
<polyline fill="none" stroke="#2e3436" stroke-width="1.5" points="611.5,-581 486.5,-581 "/>
<path fill="none" stroke="#2e3436" stroke-width="1.5" d="M486.5,-581C480.5,-581 474.5,-575 474.5,-569"/>
<polyline fill="none" stroke="#2e3436" stroke-width="1.5" points="474.5,-569 474.5,-539 "/>
<path fill="none" stroke="#2e3436" stroke-width="1.5" d="M474.5,-539C474.5,-533 480.5,-527 486.5,-527"/>
<text text-anchor="middle" x="549" y="-562.6" font-family="FreeSans" font-size="16.00" fill="#1c2021">Node[22]</text>
<polyline fill="none" stroke="#2e3436" stroke-width="1.5" points="474.5,-554 623.5,-554 "/>
<text text-anchor="middle" x="549" y="-535.6" font-family="FreeSans" font-size="16.00" fill="#1c2021">&#39;name&#39; = &#39;SUDOers&#39;</text>
</g>
<!-- N21&#45;&gt;N22 -->
<g id="edge28" class="edge"><title>N21&#45;&gt;N22</title>
<path fill="none" stroke="#2e3436" stroke-width="2" d="M535.037,-628.875C532.537,-622.814 530.312,-616.309 529,-610 527.533,-602.949 528.352,-595.581 530.318,-588.594"/>
<polygon fill="#2e3436" stroke="#2e3436" points="532.849,-581.195 533.615,-589.383 532.108,-584.905 530.895,-588.453 530.422,-588.291 529.949,-588.129 531.162,-584.581 527.228,-587.199 532.849,-581.195 532.849,-581.195"/>
<text text-anchor="middle" x="544" y="-602.8" font-family="FreeSans" font-size="8.00" fill="#1c2021">subRole</text>
</g>
<!-- N22&#45;&gt;N18 -->
<g id="edge36" class="edge"><title>N22&#45;&gt;N18</title>
<path fill="none" stroke="#2e3436" stroke-width="2" d="M571.51,-526.923C581.219,-516.663 593.266,-505.628 606,-498 618.782,-490.343 624.023,-493.164 638,-488 643.116,-486.11 648.373,-484.078 653.64,-481.977"/>
<polygon fill="#2e3436" stroke="#2e3436" points="660.817,-479.076 655.129,-485.016 657.528,-480.945 654.051,-482.351 653.864,-481.887 653.676,-481.423 657.153,-480.018 652.599,-478.758 660.817,-479.076 660.817,-479.076"/>
<text text-anchor="middle" x="623" y="-500.8" font-family="FreeSans" font-size="8.00" fill="#1c2021">canRead</text>
</g>
<!-- N22&#45;&gt;N8 -->
<g id="edge34" class="edge"><title>N22&#45;&gt;N8</title>
<path fill="none" stroke="#2e3436" stroke-width="2" d="M506.808,-526.934C485.791,-513.451 460.274,-497.081 438.457,-483.086"/>
<polygon fill="#2e3436" stroke="#2e3436" points="432.113,-479.016 440.248,-480.225 435.539,-480.62 438.695,-482.645 438.425,-483.065 438.155,-483.486 434.999,-481.461 436.603,-485.906 432.113,-479.016 432.113,-479.016"/>
<text text-anchor="middle" x="490.5" y="-500.8" font-family="FreeSans" font-size="8.00" fill="#1c2021">member</text>
</g>
<!-- N22&#45;&gt;N9 -->
<g id="edge32" class="edge"><title>N22&#45;&gt;N9</title>
<path fill="none" stroke="#2e3436" stroke-width="2" d="M550.592,-526.934C551.318,-514.6 552.185,-499.85 552.958,-486.712"/>
<polygon fill="#2e3436" stroke="#2e3436" points="553.4,-479.193 556.329,-486.878 553.679,-482.966 553.459,-486.709 552.96,-486.68 552.461,-486.651 552.681,-482.907 549.591,-486.482 553.4,-479.193 553.4,-479.193"/>
<text text-anchor="middle" x="568.5" y="-500.8" font-family="FreeSans" font-size="8.00" fill="#1c2021">member</text>
</g>
<!-- N19 -->
<g id="node36" class="node"><title>N19</title>
<polygon fill="#ffffff" stroke="#ffffff" stroke-width="1.5" points="648.5,-731 693.5,-731 705.5,-743 705.5,-755 693.5,-767 648.5,-767 636.5,-755 636.5,-743 648.5,-731"/>
<path fill="#ffffff" stroke="#ffffff" stroke-width="1.5" d="M693.5,-731C699.5,-731 705.5,-737 705.5,-743"/>
<path fill="#ffffff" stroke="#ffffff" stroke-width="1.5" d="M705.5,-755C705.5,-761 699.5,-767 693.5,-767"/>
<path fill="#ffffff" stroke="#ffffff" stroke-width="1.5" d="M648.5,-767C642.5,-767 636.5,-761 636.5,-755"/>
<path fill="#ffffff" stroke="#ffffff" stroke-width="1.5" d="M636.5,-743C636.5,-737 642.5,-731 648.5,-731"/>
<polyline fill="none" stroke="#2e3436" stroke-width="1.5" points="648.5,-731 693.5,-731 "/>
<path fill="none" stroke="#2e3436" stroke-width="1.5" d="M693.5,-731C699.5,-731 705.5,-737 705.5,-743"/>
<polyline fill="none" stroke="#2e3436" stroke-width="1.5" points="705.5,-743 705.5,-755 "/>
<path fill="none" stroke="#2e3436" stroke-width="1.5" d="M705.5,-755C705.5,-761 699.5,-767 693.5,-767"/>
<polyline fill="none" stroke="#2e3436" stroke-width="1.5" points="693.5,-767 648.5,-767 "/>
<path fill="none" stroke="#2e3436" stroke-width="1.5" d="M648.5,-767C642.5,-767 636.5,-761 636.5,-755"/>
<polyline fill="none" stroke="#2e3436" stroke-width="1.5" points="636.5,-755 636.5,-743 "/>
<path fill="none" stroke="#2e3436" stroke-width="1.5" d="M636.5,-743C636.5,-737 642.5,-731 648.5,-731"/>
<text text-anchor="middle" x="671" y="-755.8" font-family="FreeSans" font-size="8.00" fill="#1c2021">Node[19]</text>
<polyline fill="none" stroke="#2e3436" stroke-width="1.5" points="636.5,-749 705.5,-749 "/>
<text text-anchor="middle" x="671" y="-737.8" font-family="FreeSans" font-size="8.00" fill="#1c2021">&#39;name&#39; = &#39;Root&#39;</text>
</g>
<!-- N19&#45;&gt;N18 -->
<g id="edge40" class="edge"><title>N19&#45;&gt;N18</title>
<path fill="none" stroke="#2e3436" stroke-width="2" d="M674.114,-730.868C682.389,-682.678 705.04,-550.766 715.958,-487.183"/>
<polygon fill="#2e3436" stroke="#2e3436" points="717.293,-479.412 719.35,-487.375 717.151,-483.192 716.516,-486.888 716.024,-486.804 715.531,-486.719 716.165,-483.023 712.697,-486.232 717.293,-479.412 717.293,-479.412"/>
<text text-anchor="middle" x="703.5" y="-602.8" font-family="FreeSans" font-size="8.00" fill="#1c2021">has</text>
</g>
<!-- N19&#45;&gt;N21 -->
<g id="edge38" class="edge"><title>N19&#45;&gt;N21</title>
<path fill="none" stroke="#2e3436" stroke-width="2" d="M647.188,-730.848C631.238,-718.69 609.805,-702.351 591.032,-688.041"/>
<polygon fill="#2e3436" stroke="#2e3436" points="584.78,-683.275 592.79,-685.137 588.065,-685.15 591.047,-687.424 590.744,-687.822 590.441,-688.219 587.459,-685.946 588.698,-690.506 584.78,-683.275 584.78,-683.275"/>
<text text-anchor="middle" x="627.5" y="-704.8" font-family="FreeSans" font-size="8.00" fill="#1c2021">has</text>
</g>
</g>
</svg>
