<?xml version="1.0" encoding="UTF-8" standalone="no"?>
<!DOCTYPE svg PUBLIC "-//W3C//DTD SVG 1.1//EN"
 "http://www.w3.org/Graphics/SVG/1.1/DTD/svg11.dtd">
<!-- Generated by graphviz version 2.26.3 (20100126.1600)
 -->
<!-- Title: g Pages: 1 -->
<svg width="218pt" height="410pt"
 viewBox="0.00 0.00 218.00 410.00" xmlns="http://www.w3.org/2000/svg" xmlns:xlink="http://www.w3.org/1999/xlink">
<g id="graph1" class="graph" transform="scale(1 1) rotate(0) translate(4 406)">
<title>g</title>
<polygon fill="white" stroke="white" points="-4,5 -4,-406 215,-406 215,5 -4,5"/>
<!-- N0 -->
<g id="node1" class="node"><title>N0</title>
<polygon fill="#ffffff" stroke="#ffffff" stroke-width="1.5" points="102.5,-281 171.5,-281 183.5,-293 183.5,-305 171.5,-317 102.5,-317 90.5,-305 90.5,-293 102.5,-281"/>
<path fill="#ffffff" stroke="#ffffff" stroke-width="1.5" d="M171.5,-281C177.5,-281 183.5,-287 183.5,-293"/>
<path fill="#ffffff" stroke="#ffffff" stroke-width="1.5" d="M183.5,-305C183.5,-311 177.5,-317 171.5,-317"/>
<path fill="#ffffff" stroke="#ffffff" stroke-width="1.5" d="M102.5,-317C96.5,-317 90.5,-311 90.5,-305"/>
<path fill="#ffffff" stroke="#ffffff" stroke-width="1.5" d="M90.5,-293C90.5,-287 96.5,-281 102.5,-281"/>
<polyline fill="none" stroke="#2e3436" stroke-width="1.5" points="102.5,-281 171.5,-281 "/>
<path fill="none" stroke="#2e3436" stroke-width="1.5" d="M171.5,-281C177.5,-281 183.5,-287 183.5,-293"/>
<polyline fill="none" stroke="#2e3436" stroke-width="1.5" points="183.5,-293 183.5,-305 "/>
<path fill="none" stroke="#2e3436" stroke-width="1.5" d="M183.5,-305C183.5,-311 177.5,-317 171.5,-317"/>
<polyline fill="none" stroke="#2e3436" stroke-width="1.5" points="171.5,-317 102.5,-317 "/>
<path fill="none" stroke="#2e3436" stroke-width="1.5" d="M102.5,-317C96.5,-317 90.5,-311 90.5,-305"/>
<polyline fill="none" stroke="#2e3436" stroke-width="1.5" points="90.5,-305 90.5,-293 "/>
<path fill="none" stroke="#2e3436" stroke-width="1.5" d="M90.5,-293C90.5,-287 96.5,-281 102.5,-281"/>
<text text-anchor="start" x="98.5" y="-296.8" font-family="FreeSans" font-size="8.00" fill="#1c2021">Node[0]name = &#39;Lars&#39;</text>
</g>
<!-- N5 -->
<g id="node3" class="node"><title>N5</title>
<polygon fill="#ffffff" stroke="#ffffff" stroke-width="1.5" points="103,-169 171,-169 183,-181 183,-193 171,-205 103,-205 91,-193 91,-181 103,-169"/>
<path fill="#ffffff" stroke="#ffffff" stroke-width="1.5" d="M171,-169C177,-169 183,-175 183,-181"/>
<path fill="#ffffff" stroke="#ffffff" stroke-width="1.5" d="M183,-193C183,-199 177,-205 171,-205"/>
<path fill="#ffffff" stroke="#ffffff" stroke-width="1.5" d="M103,-205C97,-205 91,-199 91,-193"/>
<path fill="#ffffff" stroke="#ffffff" stroke-width="1.5" d="M91,-181C91,-175 97,-169 103,-169"/>
<polyline fill="none" stroke="#2e3436" stroke-width="1.5" points="103,-169 171,-169 "/>
<path fill="none" stroke="#2e3436" stroke-width="1.5" d="M171,-169C177,-169 183,-175 183,-181"/>
<polyline fill="none" stroke="#2e3436" stroke-width="1.5" points="183,-181 183,-193 "/>
<path fill="none" stroke="#2e3436" stroke-width="1.5" d="M183,-193C183,-199 177,-205 171,-205"/>
<polyline fill="none" stroke="#2e3436" stroke-width="1.5" points="171,-205 103,-205 "/>
<path fill="none" stroke="#2e3436" stroke-width="1.5" d="M103,-205C97,-205 91,-199 91,-193"/>
<polyline fill="none" stroke="#2e3436" stroke-width="1.5" points="91,-193 91,-181 "/>
<path fill="none" stroke="#2e3436" stroke-width="1.5" d="M91,-181C91,-175 97,-169 103,-169"/>
<text text-anchor="start" x="99" y="-184.8" font-family="FreeSans" font-size="8.00" fill="#1c2021">Node[5]name = &#39;Dirk&#39;</text>
</g>
<!-- N0&#45;&gt;N5 -->
<g id="edge2" class="edge"><title>N0&#45;&gt;N5</title>
<path fill="none" stroke="#2e3436" stroke-width="2" d="M137,-280.505C137,-261.994 137,-233.364 137,-212.66"/>
<polygon fill="#2e3436" stroke="#2e3436" points="137,-205.15 140.375,-212.65 137.5,-208.9 137.5,-212.65 137,-212.65 136.5,-212.65 136.5,-208.9 133.625,-212.65 137,-205.15 137,-205.15"/>
<text text-anchor="middle" x="152.5" y="-240.8" font-family="FreeSans" font-size="8.00" fill="#2e3436">KNOWS</text>
</g>
<!-- N4 -->
<g id="node11" class="node"><title>N4</title>
<polygon fill="#ffffff" stroke="#ffffff" stroke-width="1.5" points="100.5,-85 173.5,-85 185.5,-97 185.5,-109 173.5,-121 100.5,-121 88.5,-109 88.5,-97 100.5,-85"/>
<path fill="#ffffff" stroke="#ffffff" stroke-width="1.5" d="M173.5,-85C179.5,-85 185.5,-91 185.5,-97"/>
<path fill="#ffffff" stroke="#ffffff" stroke-width="1.5" d="M185.5,-109C185.5,-115 179.5,-121 173.5,-121"/>
<path fill="#ffffff" stroke="#ffffff" stroke-width="1.5" d="M100.5,-121C94.5,-121 88.5,-115 88.5,-109"/>
<path fill="#ffffff" stroke="#ffffff" stroke-width="1.5" d="M88.5,-97C88.5,-91 94.5,-85 100.5,-85"/>
<polyline fill="none" stroke="#2e3436" stroke-width="1.5" points="100.5,-85 173.5,-85 "/>
<path fill="none" stroke="#2e3436" stroke-width="1.5" d="M173.5,-85C179.5,-85 185.5,-91 185.5,-97"/>
<polyline fill="none" stroke="#2e3436" stroke-width="1.5" points="185.5,-97 185.5,-109 "/>
<path fill="none" stroke="#2e3436" stroke-width="1.5" d="M185.5,-109C185.5,-115 179.5,-121 173.5,-121"/>
<polyline fill="none" stroke="#2e3436" stroke-width="1.5" points="173.5,-121 100.5,-121 "/>
<path fill="none" stroke="#2e3436" stroke-width="1.5" d="M100.5,-121C94.5,-121 88.5,-115 88.5,-109"/>
<polyline fill="none" stroke="#2e3436" stroke-width="1.5" points="88.5,-109 88.5,-97 "/>
<path fill="none" stroke="#2e3436" stroke-width="1.5" d="M88.5,-97C88.5,-91 94.5,-85 100.5,-85"/>
<text text-anchor="start" x="96.5" y="-100.8" font-family="FreeSans" font-size="8.00" fill="#1c2021">Node[4]name = &#39;Peter&#39;</text>
</g>
<!-- N5&#45;&gt;N4 -->
<g id="edge12" class="edge"><title>N5&#45;&gt;N4</title>
<path fill="none" stroke="#2e3436" stroke-width="2" d="M137,-168.773C137,-157.105 137,-141.787 137,-128.87"/>
<polygon fill="#2e3436" stroke="#2e3436" points="137,-121.191 140.375,-128.691 137.5,-124.941 137.5,-128.691 137,-128.691 136.5,-128.691 136.5,-124.941 133.625,-128.691 137,-121.191 137,-121.191"/>
<text text-anchor="middle" x="152.5" y="-142.8" font-family="FreeSans" font-size="8.00" fill="#2e3436">KNOWS</text>
</g>
<!-- N1 -->
<g id="node4" class="node"><title>N1</title>
<polygon fill="#ffffff" stroke="#ffffff" stroke-width="1.5" points="44.5,-1 115.5,-1 127.5,-13 127.5,-25 115.5,-37 44.5,-37 32.5,-25 32.5,-13 44.5,-1"/>
<path fill="#ffffff" stroke="#ffffff" stroke-width="1.5" d="M115.5,-1C121.5,-1 127.5,-7 127.5,-13"/>
<path fill="#ffffff" stroke="#ffffff" stroke-width="1.5" d="M127.5,-25C127.5,-31 121.5,-37 115.5,-37"/>
<path fill="#ffffff" stroke="#ffffff" stroke-width="1.5" d="M44.5,-37C38.5,-37 32.5,-31 32.5,-25"/>
<path fill="#ffffff" stroke="#ffffff" stroke-width="1.5" d="M32.5,-13C32.5,-7 38.5,-1 44.5,-1"/>
<polyline fill="none" stroke="#2e3436" stroke-width="1.5" points="44.5,-1 115.5,-1 "/>
<path fill="none" stroke="#2e3436" stroke-width="1.5" d="M115.5,-1C121.5,-1 127.5,-7 127.5,-13"/>
<polyline fill="none" stroke="#2e3436" stroke-width="1.5" points="127.5,-13 127.5,-25 "/>
<path fill="none" stroke="#2e3436" stroke-width="1.5" d="M127.5,-25C127.5,-31 121.5,-37 115.5,-37"/>
<polyline fill="none" stroke="#2e3436" stroke-width="1.5" points="115.5,-37 44.5,-37 "/>
<path fill="none" stroke="#2e3436" stroke-width="1.5" d="M44.5,-37C38.5,-37 32.5,-31 32.5,-25"/>
<polyline fill="none" stroke="#2e3436" stroke-width="1.5" points="32.5,-25 32.5,-13 "/>
<path fill="none" stroke="#2e3436" stroke-width="1.5" d="M32.5,-13C32.5,-7 38.5,-1 44.5,-1"/>
<text text-anchor="start" x="40.5" y="-16.8" font-family="FreeSans" font-size="8.00" fill="#1c2021">Node[1]name = &#39;Sara&#39;</text>
</g>
<!-- N2 -->
<g id="node5" class="node"><title>N2</title>
<polygon fill="#ffffff" stroke="#ffffff" stroke-width="1.5" points="135.5,-365 198.5,-365 210.5,-377 210.5,-389 198.5,-401 135.5,-401 123.5,-389 123.5,-377 135.5,-365"/>
<path fill="#ffffff" stroke="#ffffff" stroke-width="1.5" d="M198.5,-365C204.5,-365 210.5,-371 210.5,-377"/>
<path fill="#ffffff" stroke="#ffffff" stroke-width="1.5" d="M210.5,-389C210.5,-395 204.5,-401 198.5,-401"/>
<path fill="#ffffff" stroke="#ffffff" stroke-width="1.5" d="M135.5,-401C129.5,-401 123.5,-395 123.5,-389"/>
<path fill="#ffffff" stroke="#ffffff" stroke-width="1.5" d="M123.5,-377C123.5,-371 129.5,-365 135.5,-365"/>
<polyline fill="none" stroke="#2e3436" stroke-width="1.5" points="135.5,-365 198.5,-365 "/>
<path fill="none" stroke="#2e3436" stroke-width="1.5" d="M198.5,-365C204.5,-365 210.5,-371 210.5,-377"/>
<polyline fill="none" stroke="#2e3436" stroke-width="1.5" points="210.5,-377 210.5,-389 "/>
<path fill="none" stroke="#2e3436" stroke-width="1.5" d="M210.5,-389C210.5,-395 204.5,-401 198.5,-401"/>
<polyline fill="none" stroke="#2e3436" stroke-width="1.5" points="198.5,-401 135.5,-401 "/>
<path fill="none" stroke="#2e3436" stroke-width="1.5" d="M135.5,-401C129.5,-401 123.5,-395 123.5,-389"/>
<polyline fill="none" stroke="#2e3436" stroke-width="1.5" points="123.5,-389 123.5,-377 "/>
<path fill="none" stroke="#2e3436" stroke-width="1.5" d="M123.5,-377C123.5,-371 129.5,-365 135.5,-365"/>
<text text-anchor="start" x="131.5" y="-380.8" font-family="FreeSans" font-size="8.00" fill="#1c2021">Node[2]name = &#39;Ed&#39;</text>
</g>
<!-- N2&#45;&gt;N0 -->
<g id="edge4" class="edge"><title>N2&#45;&gt;N0</title>
<path fill="none" stroke="#2e3436" stroke-width="2" d="M160.49,-364.773C156.284,-352.995 150.749,-337.498 146.109,-324.505"/>
<polygon fill="#2e3436" stroke="#2e3436" points="143.497,-317.191 149.198,-323.119 145.229,-320.555 146.49,-324.086 146.019,-324.254 145.549,-324.422 144.287,-320.891 142.841,-325.389 143.497,-317.191 143.497,-317.191"/>
<text text-anchor="middle" x="167.5" y="-338.8" font-family="FreeSans" font-size="8.00" fill="#2e3436">KNOWS</text>
</g>
<!-- N3 -->
<g id="node7" class="node"><title>N3</title>
<polygon fill="#ffffff" stroke="#ffffff" stroke-width="1.5" points="13,-365 81,-365 93,-377 93,-389 81,-401 13,-401 1,-389 1,-377 13,-365"/>
<path fill="#ffffff" stroke="#ffffff" stroke-width="1.5" d="M81,-365C87,-365 93,-371 93,-377"/>
<path fill="#ffffff" stroke="#ffffff" stroke-width="1.5" d="M93,-389C93,-395 87,-401 81,-401"/>
<path fill="#ffffff" stroke="#ffffff" stroke-width="1.5" d="M13,-401C7,-401 1,-395 1,-389"/>
<path fill="#ffffff" stroke="#ffffff" stroke-width="1.5" d="M1,-377C1,-371 7,-365 13,-365"/>
<polyline fill="none" stroke="#2e3436" stroke-width="1.5" points="13,-365 81,-365 "/>
<path fill="none" stroke="#2e3436" stroke-width="1.5" d="M81,-365C87,-365 93,-371 93,-377"/>
<polyline fill="none" stroke="#2e3436" stroke-width="1.5" points="93,-377 93,-389 "/>
<path fill="none" stroke="#2e3436" stroke-width="1.5" d="M93,-389C93,-395 87,-401 81,-401"/>
<polyline fill="none" stroke="#2e3436" stroke-width="1.5" points="81,-401 13,-401 "/>
<path fill="none" stroke="#2e3436" stroke-width="1.5" d="M13,-401C7,-401 1,-395 1,-389"/>
<polyline fill="none" stroke="#2e3436" stroke-width="1.5" points="1,-389 1,-377 "/>
<path fill="none" stroke="#2e3436" stroke-width="1.5" d="M1,-377C1,-371 7,-365 13,-365"/>
<text text-anchor="start" x="9" y="-380.8" font-family="FreeSans" font-size="8.00" fill="#1c2021">Node[3]name = &#39;Lisa&#39;</text>
</g>
<!-- N3&#45;&gt;N0 -->
<g id="edge6" class="edge"><title>N3&#45;&gt;N0</title>
<path fill="none" stroke="#2e3436" stroke-width="2" d="M66.5287,-364.773C79.8556,-352.335 97.6267,-335.748 111.989,-322.344"/>
<polygon fill="#2e3436" stroke="#2e3436" points="117.509,-317.191 114.329,-324.776 115.109,-320.115 112.368,-322.674 112.027,-322.309 111.685,-321.943 114.427,-319.384 109.724,-319.841 117.509,-317.191 117.509,-317.191"/>
<text text-anchor="middle" x="109.5" y="-338.8" font-family="FreeSans" font-size="8.00" fill="#2e3436">KNOWS</text>
</g>
<!-- N6 -->
<g id="node10" class="node"><title>N6</title>
<polygon fill="#ffffff" stroke="#ffffff" stroke-width="1.5" points="11.5,-225 78.5,-225 90.5,-237 90.5,-249 78.5,-261 11.5,-261 -0.5,-249 -0.5,-237 11.5,-225"/>
<path fill="#ffffff" stroke="#ffffff" stroke-width="1.5" d="M78.5,-225C84.5,-225 90.5,-231 90.5,-237"/>
<path fill="#ffffff" stroke="#ffffff" stroke-width="1.5" d="M90.5,-249C90.5,-255 84.5,-261 78.5,-261"/>
<path fill="#ffffff" stroke="#ffffff" stroke-width="1.5" d="M11.5,-261C5.5,-261 -0.5,-255 -0.5,-249"/>
<path fill="#ffffff" stroke="#ffffff" stroke-width="1.5" d="M-0.5,-237C-0.5,-231 5.5,-225 11.5,-225"/>
<polyline fill="none" stroke="#2e3436" stroke-width="1.5" points="11.5,-225 78.5,-225 "/>
<path fill="none" stroke="#2e3436" stroke-width="1.5" d="M78.5,-225C84.5,-225 90.5,-231 90.5,-237"/>
<polyline fill="none" stroke="#2e3436" stroke-width="1.5" points="90.5,-237 90.5,-249 "/>
<path fill="none" stroke="#2e3436" stroke-width="1.5" d="M90.5,-249C90.5,-255 84.5,-261 78.5,-261"/>
<polyline fill="none" stroke="#2e3436" stroke-width="1.5" points="78.5,-261 11.5,-261 "/>
<path fill="none" stroke="#2e3436" stroke-width="1.5" d="M11.5,-261C5.5,-261 -0.5,-255 -0.5,-249"/>
<polyline fill="none" stroke="#2e3436" stroke-width="1.5" points="-0.5,-249 -0.5,-237 "/>
<path fill="none" stroke="#2e3436" stroke-width="1.5" d="M-0.5,-237C-0.5,-231 5.5,-225 11.5,-225"/>
<text text-anchor="start" x="7.5" y="-240.8" font-family="FreeSans" font-size="8.00" fill="#1c2021">Node[6]name = &#39;Joe&#39;</text>
</g>
<!-- N3&#45;&gt;N6 -->
<g id="edge8" class="edge"><title>N3&#45;&gt;N6</title>
<path fill="none" stroke="#4e9a06" stroke-width="2" d="M46.7426,-364.984C46.395,-340.652 45.7732,-297.122 45.374,-269.178"/>
<polygon fill="#4e9a06" stroke="#4e9a06" points="45.2627,-261.391 48.7446,-268.842 45.8163,-265.134 45.8699,-268.883 45.37,-268.891 44.87,-268.898 44.8164,-265.148 41.9953,-268.939 45.2627,-261.391 45.2627,-261.391"/>
<text text-anchor="middle" x="58.5" y="-338.8" font-family="FreeSans" font-size="8.00" fill="#4e9a06">LIKES</text>
</g>
<!-- N6&#45;&gt;N1 -->
<g id="edge14" class="edge"><title>N6&#45;&gt;N1</title>
<path fill="none" stroke="#2e3436" stroke-width="2" d="M47.8642,-224.669C54.0838,-184.863 68.8393,-90.4287 75.9847,-44.6978"/>
<polygon fill="#2e3436" stroke="#2e3436" points="77.1453,-37.27 79.3219,-45.2011 77.0604,-41.0522 76.4814,-44.7573 75.9874,-44.6801 75.4934,-44.6029 76.0724,-40.8978 72.6529,-44.159 77.1453,-37.27 77.1453,-37.27"/>
<text text-anchor="middle" x="76.5" y="-142.8" font-family="FreeSans" font-size="8.00" fill="#2e3436">KNOWS</text>
</g>
<!-- N4&#45;&gt;N1 -->
<g id="edge10" class="edge"><title>N4&#45;&gt;N1</title>
<path fill="none" stroke="#2e3436" stroke-width="2" d="M124.632,-84.7733C116.416,-72.665 105.532,-56.6261 96.5694,-43.4181"/>
<polygon fill="#2e3436" stroke="#2e3436" points="92.344,-37.1912 99.3481,-41.5022 94.8634,-40.0135 96.9691,-43.1165 96.5553,-43.3973 96.1416,-43.678 94.0359,-40.575 93.7626,-45.2924 92.344,-37.1912 92.344,-37.1912"/>
<text text-anchor="middle" x="125.5" y="-58.8" font-family="FreeSans" font-size="8.00" fill="#2e3436">KNOWS</text>
</g>
</g>
</svg>
